<svg xmlns="http://www.w3.org/2000/svg" xmlns:xlink="http://www.w3.org/1999/xlink" width="141" height="141" viewBox="0 0 141 141">
  <defs>
    <clipPath id="clip-path">
      <rect id="Rect치ngulo_321603" data-name="Rect치ngulo 321603" width="128.612" height="128.604" fill="none"/>
    </clipPath>
  </defs>
  <g id="Grupo_1076527" data-name="Grupo 1076527" transform="translate(-1129 -2010)">
    <g id="Grupo_1075458" data-name="Grupo 1075458">
      <path id="Trazado_821767" data-name="Trazado 821767" d="M259.863,70.5A70.5,70.5,0,1,1,189.363,0a70.5,70.5,0,0,1,70.5,70.5" transform="translate(1010.137 2009.999)" fill="#1b3f5e"/>
      <g id="Grupo_1072349" data-name="Grupo 1072349" transform="translate(1135.317 2016.32)" style="isolation: isolate">
        <g id="Grupo_253623" data-name="Grupo 253623" transform="translate(0 0)">
          <g id="Grupo_253622" data-name="Grupo 253622" clip-path="url(#clip-path)">
            <path id="Trazado_271692" data-name="Trazado 271692" d="M254.479,71.311A64.305,64.305,0,1,1,190.173,7.005a64.306,64.306,0,0,1,64.306,64.306" transform="translate(-125.867 -7.01)" fill="#e5dbd7"/>
          </g>
        </g>
      </g>
    </g>
    <g id="Grupo_1075459" data-name="Grupo 1075459" transform="translate(750 -42)">
      <path id="Uni칩n_12" data-name="Uni칩n 12" d="M65,0A65,65,0,1,1,0,65,65,65,0,0,1,65,0Z" transform="translate(385 2058)" fill="#1b3f5e"/>
      <circle id="Elipse_4842" data-name="Elipse 4842" cx="50" cy="50" r="50" transform="translate(400 2073)" fill="#1b3f5e"/>
    </g>
    <g id="Grupo_1068061" data-name="Grupo 1068061" transform="translate(1160.346 2036.152)">
      <path id="Trazado_809058" data-name="Trazado 809058" d="M933.224,283.1V249.942c-.279,0-.559-.014-.837,0a7.643,7.643,0,0,1-3.813-14.535q12.124-5.84,24.266-11.644,3.806-1.825,7.611-3.65a7.57,7.57,0,0,1,6.841-.033c10.651,5.106,21.312,10.192,31.94,15.345a7.642,7.642,0,0,1,2.486,11.79,7.486,7.486,0,0,1-5.57,2.694c-.5.032-1.005,0-1.569,0V283.1a12.728,12.728,0,0,1,5.707.86,4.957,4.957,0,0,1,3.035,4.2,22.713,22.713,0,0,1,0,5.165c-.4,2.994-2.838,4.926-6.048,5.08-.292.014-.585.009-.877.009q-32.5,0-65-.009a9.679,9.679,0,0,1-2.289-.236,5.731,5.731,0,0,1-4.709-5.413,20.58,20.58,0,0,1,0-3.979,6.074,6.074,0,0,1,6.264-5.67C931.5,283.081,932.343,283.1,933.224,283.1Zm58.741-.024v-.847q0-16.267.02-32.534a1.121,1.121,0,0,0-.782-1.176q-13.289-6.351-26.559-12.742a1.51,1.51,0,0,0-1.474,0q-13.3,6.413-26.631,12.776a1.125,1.125,0,0,0-.735,1.211q.027,16.227.013,32.455v.859Zm3.807-35.534a15.064,15.064,0,0,0,2.478-.8,4.762,4.762,0,0,0,2.683-4.551,4.994,4.994,0,0,0-3.1-4.633q-15.723-7.539-31.44-15.088a5.473,5.473,0,0,0-5.047.032c-6.091,2.949-12.2,5.86-18.3,8.789-4.5,2.159-9,4.307-13.485,6.495a4.76,4.76,0,0,0-2.8,4.559,4.819,4.819,0,0,0,2.767,4.508,5.118,5.118,0,0,0,4.82-.067c9.447-4.545,18.909-9.059,28.349-13.617a2.568,2.568,0,0,1,2.472.02q13.98,6.753,27.992,13.44A24.45,24.45,0,0,0,995.771,247.543ZM963.957,285.65H931.5c-.292,0-.585-.008-.877.008a3.6,3.6,0,0,0-3.742,3.8c-.028.823-.021,1.648,0,2.471a3.551,3.551,0,0,0,3.4,3.879,8.09,8.09,0,0,0,1.193.045q32.413,0,64.826,0c.292,0,.585.009.877-.009a3.549,3.549,0,0,0,3.713-3.806c.019-1.009.024-2.021-.021-3.029a3.1,3.1,0,0,0-2.27-3.037,6.763,6.763,0,0,0-2.028-.316Q980.263,285.635,963.957,285.65Z" transform="translate(-924.202 -219.281)" fill="#fff"/>
      <path id="Trazado_809059" data-name="Trazado 809059" d="M1077.134,354.861a8.775,8.775,0,0,1-8.035-5.2,8.66,8.66,0,0,1,1.214-9.493,2.27,2.27,0,0,0,.458-1.266c.052-5.633.052-11.267.091-16.9a6.3,6.3,0,0,1,12.552-1.014c.04.449.055.9.057,1.353.024,5.5.033,11,.086,16.5a2.425,2.425,0,0,0,.474,1.339c2.222,2.95,2.768,6.139,1.187,9.5A8.774,8.774,0,0,1,1077.134,354.861Zm6.405-9.252a6.081,6.081,0,0,0-1.849-4.162,2.269,2.269,0,0,1-.717-1.764c0-5.82-.031-11.64-.057-17.46a8.945,8.945,0,0,0-.078-1.271,3.712,3.712,0,0,0-4.186-3.047c-2.032.327-3.223,1.8-3.236,4.076q-.052,8.77-.057,17.54a2.68,2.68,0,0,1-.826,2.042,6.29,6.29,0,0,0-.817,7.654,6.357,6.357,0,0,0,7.176,2.821A6.442,6.442,0,0,0,1083.54,345.609Z" transform="translate(-1037.511 -294.851)" fill="#fff"/>
      <path id="Trazado_809060" data-name="Trazado 809060" d="M1097.43,361.17c0,2.842.009,5.684-.009,8.526a.926.926,0,0,0,.555.986,3.718,3.718,0,0,1,1.879,4.247,3.807,3.807,0,0,1-7.372.114,3.714,3.714,0,0,1,1.824-4.341,1,1,0,0,0,.581-1.054q-.021-8.327-.009-16.654c0-.212-.008-.426,0-.637a1.261,1.261,0,0,1,1.293-1.317,1.239,1.239,0,0,1,1.245,1.284c.031,1.088.01,2.178.011,3.267Q1097.431,358.381,1097.43,361.17Zm-.007,12.883a1.271,1.271,0,1,0-1.287,1.234A1.263,1.263,0,0,0,1097.423,374.053Z" transform="translate(-1056.502 -322.961)" fill="#fff"/>
    </g>
  </g>
</svg>
