<svg xmlns="http://www.w3.org/2000/svg" xmlns:xlink="http://www.w3.org/1999/xlink" width="141" height="141" viewBox="0 0 141 141">
  <defs>
    <clipPath id="clip-path">
      <rect id="Rect치ngulo_321603" data-name="Rect치ngulo 321603" width="128.612" height="128.604" fill="none"/>
    </clipPath>
  </defs>
  <g id="Grupo_1082414" data-name="Grupo 1082414" transform="translate(-365 -2778)">
    <g id="Grupo_1076524" data-name="Grupo 1076524" transform="translate(0 -14)">
      <path id="Trazado_821767" data-name="Trazado 821767" d="M259.863,70.5A70.5,70.5,0,1,1,189.363,0a70.5,70.5,0,0,1,70.5,70.5" transform="translate(246.137 2791.999)" fill="#1b3f5e"/>
      <g id="Grupo_1072349" data-name="Grupo 1072349" transform="translate(371.317 2798.32)" style="isolation: isolate">
        <g id="Grupo_253623" data-name="Grupo 253623" transform="translate(0 0)">
          <g id="Grupo_253622" data-name="Grupo 253622" clip-path="url(#clip-path)">
            <path id="Trazado_271692" data-name="Trazado 271692" d="M254.479,71.311A64.305,64.305,0,1,1,190.173,7.005a64.306,64.306,0,0,1,64.306,64.306" transform="translate(-125.867 -7.01)" fill="#e5dbd7"/>
          </g>
        </g>
      </g>
    </g>
    <g id="Grupo_1076528" data-name="Grupo 1076528" transform="translate(-14 726)">
      <path id="Uni칩n_12" data-name="Uni칩n 12" d="M65,0A65,65,0,1,1,0,65,65,65,0,0,1,65,0Z" transform="translate(385 2058)" fill="#1b3f5e"/>
      <circle id="Elipse_4842" data-name="Elipse 4842" cx="50" cy="50" r="50" transform="translate(400 2073)" fill="#1b3f5e"/>
    </g>
    <g id="Grupo_1076530" data-name="Grupo 1076530" transform="translate(383.139 2796.475)">
      <path id="Trazado_809061" data-name="Trazado 809061" d="M793.926,773.394l6.585,5.544c9.689-11.837,13.517-31.174,5.332-48.385-8.649-18.185-26.413-26.329-39.482-26.552,0,2.667-.023,5.334.041,8,.006.224.58.591.919.627a38.063,38.063,0,0,1,19.905,8.082c1.537,1.21,1.819,2.63.843,4.017-1.043,1.482-2.7,1.646-4.339.363a32.818,32.818,0,0,0-10.945-5.685A32.412,32.412,0,0,0,731.457,745.8a31.717,31.717,0,0,0,7.2,25.457c1.783,2.179,1.7,3.434-.44,5.248q-4.926,4.171-9.86,8.332c-1.783,1.495-3.23,1.36-4.715-.418a51.605,51.605,0,0,1-12.415-36.562,52.355,52.355,0,0,1,103.423-8.667c3.624,16.8-.322,31.926-11.205,45.228-1.439,1.759-2.956,1.851-4.722.364q-5.03-4.237-10.057-8.478c-1.835-1.545-1.978-2.945-.432-4.8a31.737,31.737,0,0,0,7.657-22.607,57.946,57.946,0,0,0-1.281-7.782,2.815,2.815,0,0,1,3.088-3.465,2.772,2.772,0,0,1,2.425,2.371,37.944,37.944,0,0,1-.432,22.3A38.436,38.436,0,0,1,793.926,773.394Zm-77.017-25.708c2.708,0,5.215-.038,7.72.02.9.021,1.07-.366,1.139-1.137a33.018,33.018,0,0,1,3.558-12.547c1.532-2.92,3.407-5.662,5.058-8.366l-5.97-5.97A46.62,46.62,0,0,0,716.909,747.686Zm43.815-43.845a46.687,46.687,0,0,0-28.009,11.543l6.146,6.143c8.312-6.071,10.222-6.87,21.185-8.9.257-.048.645-.416.648-.64C760.74,709.323,760.724,706.66,760.724,703.842ZM725.6,753.382h-8.7a46.653,46.653,0,0,0,9.608,25.674l6.66-5.645A38.417,38.417,0,0,1,725.6,753.382Z" transform="translate(-711.164 -698.047)" fill="#fff"/>
      <path id="Trazado_809062" data-name="Trazado 809062" d="M852.834,824.754c-5.291,0-8.839-2.489-10.175-6.229a9.1,9.1,0,0,1,3.027-10.5c6.949-5,13.994-9.867,21.041-14.727,4.776-3.294,9.626-6.481,14.436-9.725a2.739,2.739,0,0,1,3.187-.236,2.581,2.581,0,0,1,1.36,2.767,3.885,3.885,0,0,1-.748,1.624q-12.75,16.463-25.536,32.9C857.421,823.208,854.877,824.74,852.834,824.754Zm17.044-26.492-.2-.2c-2.107,1.429-4.233,2.831-6.317,4.293-4.742,3.327-9.5,6.628-14.174,10.054a3.536,3.536,0,0,0-.4,5.523,3.668,3.668,0,0,0,5.653-.128c1.078-1.209,2.087-2.482,3.087-3.757Q863.714,806.166,869.878,798.262Z" transform="translate(-799.477 -755.302)" fill="#fff"/>
      <path id="Trazado_809063" data-name="Trazado 809063" d="M817.5,965.166q11.627,0,23.253,0c1.754,0,2.777.779,3.006,2.215a2.734,2.734,0,0,1-2.724,3.377c-.2.012-.406.006-.608.006q-23.01,0-46.02,0c-2.057,0-3.159-.817-3.331-2.432a2.645,2.645,0,0,1,2.8-3.158c3-.031,6.006-.011,9.009-.011Z" transform="translate(-765.052 -878.22)" fill="#fff"/>
      <path id="Trazado_809064" data-name="Trazado 809064" d="M846.268,937.994c-3.242,0-6.485.043-9.726-.015a2.754,2.754,0,0,1-2.419-4.085,2.583,2.583,0,0,1,2.463-1.489c6.444-.017,12.888-.032,19.332.006a2.788,2.788,0,1,1-.044,5.577c-3.2.034-6.4.01-9.605.01Z" transform="translate(-793.882 -856.115)" fill="#fff"/>
    </g>
  </g>
</svg>
