<svg xmlns="http://www.w3.org/2000/svg" xmlns:xlink="http://www.w3.org/1999/xlink" width="96" height="96" viewBox="0 0 96 96">
  <defs>
    <clipPath id="clip-path">
      <rect id="Rectángulo_318432" data-name="Rectángulo 318432" width="63.342" height="51.038" fill="none"/>
    </clipPath>
  </defs>
  <g id="Grupo_1075190" data-name="Grupo 1075190" transform="translate(-1351.333 -295)">
    <circle id="Elipse_4282" data-name="Elipse 4282" cx="48" cy="48" r="48" transform="translate(1351.333 295)" fill="#fffad0"/>
    <g id="Grupo_246408" data-name="Grupo 246408" transform="translate(1368.331 317.639)">
      <g id="Grupo_246407" data-name="Grupo 246407" transform="translate(0 0)" clip-path="url(#clip-path)">
        <path id="Trazado_265748" data-name="Trazado 265748" d="M2.24,18.825a4.822,4.822,0,0,1,4.55-4.5c-.322,1.111-.667,2.23-.971,3.36a13.537,13.537,0,0,0,.058,6.274A18.306,18.306,0,0,1,5.9,31.174c-.327,1.676-.4,3.4-.588,5.1l-.114.494c-.01,3.662-.076,7.326-.008,10.987A3.169,3.169,0,0,0,8.571,51c1.91-.047,3.828-.1,5.732.016a3.321,3.321,0,0,0,3.106-4.045c-.326-1.631-1.1-3.162-.947-4.909A10.563,10.563,0,0,1,17.715,38.4c.067-.139.285-.227.451-.293a8.042,8.042,0,0,0,4.285-4.085c.174-.346.323-.629.74-.457a20.367,20.367,0,0,0,8.43,1.1c.1,0,.2.009.289.014.139,1.685.23,3.326.421,4.955.207,1.772.509,3.534.765,5.3.177,1.221.306,2.45.526,3.663a2.919,2.919,0,0,0,2.921,2.374c.86-.027,1.713-.216,2.573-.288a3.186,3.186,0,0,1,.849.15,4.4,4.4,0,0,0,3.844-.515,2.6,2.6,0,0,0,1.114-2.082c-.005-1.023.047-2.049,0-3.07a14.955,14.955,0,0,1,1.351-6.985A12.482,12.482,0,0,0,47,34.523a3.062,3.062,0,0,1,.99-2.4,10.171,10.171,0,0,0,3.627-5.685c.208-.892.223-1.834.485-2.706.356-1.185.865-2.324,1.342-3.572,1.08.661,1.99,1.243,2.923,1.785A3.663,3.663,0,0,0,60.9,21.2c.873-.98,2.094-1.73,2.265-3.172a4.563,4.563,0,0,0-.073-2.372,27.832,27.832,0,0,1-2.536-8.422.86.86,0,0,0-.125-.247,7.517,7.517,0,0,0,2.913-5.9c.014-.711-.278-1.024-1.047-1.03a10.145,10.145,0,0,0-4.852,1.116.8.8,0,0,1-.668-.011A6.061,6.061,0,0,0,49.2,1.5a.9.9,0,0,1-.773.052c-2.037-.984-3.939-.456-5.805.476a1.179,1.179,0,0,0-.545,1.575,14.439,14.439,0,0,0,.585,1.369,17.232,17.232,0,0,0-2.093.369c-1.611.487-3.234.965-4.792,1.6a15.357,15.357,0,0,1-6.859,1.2c-2.2-.15-4.388-.525-6.584-.769C18.406,6.929,14.581,7.1,11.177,9.46a5.745,5.745,0,0,0-1.4,1.16,4.425,4.425,0,0,1-3.314,1.573A7.159,7.159,0,0,0,.073,19.1C-.072,22.812.041,26.533.043,30.25a.653.653,0,0,0,.068.178H2.122V19.158l.118-.332m54.79-8.812a8.4,8.4,0,0,1-.791-1.506c-.292-.985-.458-2.007-.687-3.012-.129-.565-.279-1.125-.419-1.687V2.675C57.121,3.9,58.9,7.32,58.993,10.891l-1.963-.877M42.947,41.943l-.054.359c0,1.8-.024,3.6,0,5.4.007.682-.254,1.178-.905,1.3a3.689,3.689,0,0,1-1.206-.181c.028-.338.077-.673.079-1.009.009-1.586-.075-3.178.033-4.757a10.674,10.674,0,0,1,.662-3.236,15.813,15.813,0,0,0,1.436-4.961.513.513,0,0,1,.268-.379c.581-.183,1.176-.32,2.032-.542-.427,1.522-.781,2.824-1.16,4.119s-.786,2.591-1.181,3.886m3.258-14.25.31-.614a1.183,1.183,0,0,1-.241-.2c-.9-1.3-.894-1.3-1.979-.237-.268.264-.548.52-.793.8a9.564,9.564,0,0,0-2.329,4.8c-.1.808-.176,1.619-.294,2.424a18.018,18.018,0,0,1-.438,2.46c-.46,1.566-1.012,3.105-1.526,4.656l-.095.665c-.007,1.748,0,3.5-.034,5.242a1.737,1.737,0,0,1-.323,1.012c-.32.386-2.177.242-2.607-.125a2.935,2.935,0,0,1-.3-.685c-.135-.831-.221-1.67-.337-2.5-.373-2.66-.834-5.311-1.1-7.981-.23-2.305-.242-4.633-.348-6.951-.012-.257,0-.514,0-.766H31.832c0,.819.023,1.615-.019,2.408-.009.163-.265.45-.4.449a38.474,38.474,0,0,1-4.877-.169A12.523,12.523,0,0,1,20.368,29.7a4.479,4.479,0,0,0-3-1.153A3.95,3.95,0,0,0,13.4,32.672a4.121,4.121,0,0,1-.281,1.7c-.645,1.585-1.383,3.132-2.068,4.7A7.747,7.747,0,0,0,10.5,44c.231,1.009.512,2.006.772,3.008.339,1.3-.094,1.883-1.411,1.884-.485,0-.969.005-1.454,0-.762-.009-1.219-.392-1.2-1.156.113-5.39-.443-10.812.722-16.153a1.2,1.2,0,0,1,.475-.69A7.454,7.454,0,0,0,12.3,24.54a2.56,2.56,0,0,1,.871-2.123c2.526-1.861,2.391-3.318,2.054-6.037a12.244,12.244,0,0,0-2.348-5.545C16.216,8.722,19.8,9.226,23.416,9.595a26.733,26.733,0,0,0-1.262,2.723,11.729,11.729,0,0,0-.632,2.9,4.6,4.6,0,0,0,2.663,4.706c1.985.957,3.532.689,5.245-.912a16.717,16.717,0,0,1,6.73-3.913,6.085,6.085,0,0,0,3.007-2.025,7.419,7.419,0,0,0,1.551-3.958c.244-1.928.245-1.913,2.2-1.935a3.138,3.138,0,0,1,2.19.682,5.7,5.7,0,0,0,4.044,1.251,6.635,6.635,0,0,0-.17-1.9c-.09-.231-.8-.211-1.217-.326A5.048,5.048,0,0,1,44.229,3.44c.531-.1,1.033-.212,1.54-.288a3.791,3.791,0,0,1,2.478.6,1.173,1.173,0,0,0,1.595-.1,4.88,4.88,0,0,1,3.325-1.6c0,.272.01.513,0,.752a8.685,8.685,0,0,0,.625,3.859,7.844,7.844,0,0,1,.342,1.677c.24,1.374.611,2.69,1.929,3.433.667.376,1.4.632,2.108.942,1.474-.069,1.506-.05,1.927,1.221l-1.106.548A9.5,9.5,0,0,0,55.7,18.869c-3.319-.955-6.3-2.333-7.664-5.938l-1.96.681A11.535,11.535,0,0,0,49.6,18.37l2.009,1.265a12.985,12.985,0,0,0-1.857,5.584,8.656,8.656,0,0,1-4.992,6.6,9.805,9.805,0,0,1-1.4.47l-.163-.2.895-1.949ZM38.733,8.006c-.074,2.962-1.354,4.635-3.639,5.3A16.11,16.11,0,0,0,28.3,17.248a2.729,2.729,0,0,1-2.637,1.023c-1.93-.482-2.391-1.923-1.992-3.687.306-1.353,1.029-2.606,1.471-3.935.241-.722.692-.776,1.291-.709.555.062,1.115.089,1.667.173a15.194,15.194,0,0,0,7.352-.928c1.077-.371,2.145-.77,3.277-1.178M8.188,28.456c0-1.139.064-2.055-.013-2.959-.151-1.77-.467-3.529-.557-5.3a10.639,10.639,0,0,1,2.961-7.63c.369-.427.637-.469.98.061a12.284,12.284,0,0,1,1.693,4.2c.3,1.435.277,2.755-1.055,3.737a4.327,4.327,0,0,0-1.878,3.708,5.265,5.265,0,0,1-2.131,4.187m12.652,4.018c-1.263,3.008-3.83,4.656-6.079,4.084.2-1.282.455-2.539.576-3.809.162-1.7,1.44-2.6,3-1.891a19.621,19.621,0,0,1,2.505,1.616M13.387,48.887c-.037-.721-.019-1.375-.113-2.013-.245-1.655-1.157-3.217-.811-4.947a24.2,24.2,0,0,1,.923-2.985c.039-.114.275-.215.426-.225.443-.03.888-.01,1.411-.01-.089.232-.135.352-.18.471a9.541,9.541,0,0,0-.006,6.872,7.45,7.45,0,0,1,.3,1.925c.048.584-.342.855-.872.9a10.656,10.656,0,0,1-1.079.007M57.522,20.163a5.514,5.514,0,0,1,2.541-3.914c.223-.153.635-.341.768-.246a1.248,1.248,0,0,1,.392.816c.167,1.487-1.95,3.586-3.448,3.451a1.355,1.355,0,0,1-.253-.108M61.08,2.057l.223.248c-.438.738-.863,1.486-1.332,2.2a.547.547,0,0,1-.51.03c-.362-.508-.673-1.053-1.064-1.686l2.682-.8" transform="translate(0.001 0)" fill="#010101"/>
        <path id="Trazado_265749" data-name="Trazado 265749" d="M359.256,225.079l.114-.494-.114.494" transform="translate(-354.062 -188.306)" fill="#dddedf"/>
        <path id="Trazado_265750" data-name="Trazado 265750" d="M378.366,116.539l-.118.332.118-.332" transform="translate(-376.125 -97.714)" fill="#121313"/>
        <path id="Trazado_265751" data-name="Trazado 265751" d="M60.943,42.9a9.564,9.564,0,0,1,2.329-4.8c.245-.285.525-.54.793-.8,1.084-1.066,1.084-1.065,1.979.237a1.187,1.187,0,0,0,.24.2c.223-.3.562-.576.649-.914.292-1.127.4-2.308.755-3.412.477-1.488,1.116-2.924,1.685-4.383a11.531,11.531,0,0,1-3.526-4.758l1.96-.681c1.363,3.605,4.345,4.983,7.664,5.938a9.5,9.5,0,0,1,3.287-4.383l-.821-1.768c-.7-.31-1.44-.566-2.108-.942C74.511,21.692,74.14,20.376,73.9,19a7.846,7.846,0,0,0-.342-1.677,8.687,8.687,0,0,1-.625-3.859c.012-.24,0-.481,0-.752a4.879,4.879,0,0,0-3.325,1.6,1.173,1.173,0,0,1-1.595.1,3.789,3.789,0,0,0-2.478-.6c-.507.076-1.008.187-1.54.288a5.048,5.048,0,0,0,3.539,3.449c.42.115,1.127.095,1.217.325a6.642,6.642,0,0,1,.171,1.9,5.7,5.7,0,0,1-4.043-1.251,3.139,3.139,0,0,0-2.19-.682c-1.956.022-1.958.007-2.2,1.935a7.42,7.42,0,0,1-1.551,3.958,6.088,6.088,0,0,1-3.007,2.025,16.715,16.715,0,0,0-6.73,3.912c-1.712,1.6-3.26,1.869-5.245.912a4.6,4.6,0,0,1-2.663-4.706,11.734,11.734,0,0,1,.632-2.9,26.684,26.684,0,0,1,1.262-2.722c-3.619-.369-7.2-.873-10.544,1.239a12.243,12.243,0,0,1,2.349,5.545c.337,2.72.472,4.176-2.054,6.037a2.561,2.561,0,0,0-.871,2.123,7.453,7.453,0,0,1-3.891,6.354,1.2,1.2,0,0,0-.475.69c-1.165,5.341-.609,10.763-.722,16.153-.016.764.441,1.146,1.2,1.156.485.006.969,0,1.454,0,1.317,0,1.749-.58,1.411-1.884-.26-1-.541-2-.772-3.008a7.746,7.746,0,0,1,.548-4.93c.685-1.569,1.423-3.116,2.068-4.7a4.118,4.118,0,0,0,.281-1.7,3.95,3.95,0,0,1,3.965-4.124,4.479,4.479,0,0,1,3,1.153A12.523,12.523,0,0,0,46.3,43.034a38.441,38.441,0,0,0,4.877.169c.139,0,.4-.285.4-.449.043-.793.019-1.589.019-2.408h1.936c0,.252-.01.51,0,.766.105,2.318.117,4.645.348,6.951.267,2.67.729,5.321,1.1,7.981.117.834.2,1.673.337,2.5a2.941,2.941,0,0,0,.3.685A2.522,2.522,0,0,0,56.6,56.9c.031-1.588-.081-3.184.04-4.764a11.137,11.137,0,0,1,.735-3.257,11.551,11.551,0,0,0,1.163-4.961.679.679,0,0,1,.651-.821c.581-.086,1.168-.133,1.753-.2M62.92,27.034a6.549,6.549,0,0,1,1.748.113,3.075,3.075,0,0,1,2.1,2.6,3.164,3.164,0,0,1-1.722,3.44,22.921,22.921,0,0,0-2.288.96,13.777,13.777,0,0,0-2.238,2.039,6.606,6.606,0,0,1-6.74,1.834c-2.372-.543-2.851-3.781-1.487-5.11.809-.788,1.588-1.607,2.4-2.391a12.014,12.014,0,0,1,8.221-3.482" transform="translate(-19.768 -10.66)" fill="#f2f2f2"/>
        <path id="Trazado_265752" data-name="Trazado 265752" d="M167.53,49.564c-1.133.408-2.2.807-3.277,1.178a15.2,15.2,0,0,1-7.352.928c-.551-.085-1.112-.112-1.667-.173-.6-.067-1.051-.013-1.291.709-.442,1.329-1.166,2.582-1.471,3.935-.4,1.764.062,3.2,1.992,3.687a2.729,2.729,0,0,0,2.637-1.023,16.11,16.11,0,0,1,6.791-3.944c2.285-.662,3.565-2.335,3.639-5.3" transform="translate(-128.796 -41.558)" fill="#676767"/>
        <path id="Trazado_265753" data-name="Trazado 265753" d="M309.687,91.981a5.265,5.265,0,0,0,2.131-4.187,4.327,4.327,0,0,1,1.878-3.708c1.332-.982,1.358-2.3,1.055-3.737a12.284,12.284,0,0,0-1.693-4.2c-.343-.53-.611-.488-.98-.061a10.64,10.64,0,0,0-2.961,7.63c.09,1.771.407,3.53.557,5.3.077.9.014,1.819.014,2.959" transform="translate(-301.498 -63.525)" fill="#676767"/>
        <path id="Trazado_265754" data-name="Trazado 265754" d="M142.543,199.582c-.584.064-1.171.111-1.753.2a.679.679,0,0,0-.651.821,11.551,11.551,0,0,1-1.163,4.961,11.143,11.143,0,0,0-.735,3.257c-.121,1.58-.009,3.176-.04,4.764a2.522,2.522,0,0,1-.976,2.334c.43.367,2.287.51,2.607.125a1.737,1.737,0,0,0,.323-1.012c.037-1.747.027-3.495.034-5.242-.261-.263-.353-.5.095-.665.514-1.55,1.066-3.089,1.526-4.656a17.966,17.966,0,0,0,.438-2.46c.118-.805.2-1.616.294-2.424" transform="translate(-101.368 -167.342)" fill="#e6e6e6"/>
        <path id="Trazado_265755" data-name="Trazado 265755" d="M79.006,113.717c-.569,1.459-1.209,2.895-1.685,4.383-.354,1.1-.462,2.285-.755,3.412-.088.338-.426.611-.649.914l-.31.614a3.46,3.46,0,0,1-2.11,2.451L72.6,127.44l.163.2a9.8,9.8,0,0,0,1.4-.47,8.656,8.656,0,0,0,4.992-6.6,12.985,12.985,0,0,1,1.857-5.584l-2.008-1.265" transform="translate(-29.4 -95.347)" fill="#e5e5e5"/>
        <path id="Trazado_265756" data-name="Trazado 265756" d="M113.929,218.1c.395-1.3.8-2.587,1.181-3.886s.732-2.6,1.16-4.119c-.856.222-1.451.359-2.032.542a.513.513,0,0,0-.268.379,15.81,15.81,0,0,1-1.436,4.961,10.674,10.674,0,0,0-.662,3.236c-.108,1.579-.024,3.171-.033,4.757,0,.336-.052.672-.079,1.009a3.691,3.691,0,0,0,1.206.181c.651-.12.913-.616.905-1.3-.02-1.8,0-3.6,0-5.4l.054-.359" transform="translate(-70.981 -176.157)" fill="#b2b2b2"/>
        <path id="Trazado_265757" data-name="Trazado 265757" d="M269.187,191.368a19.648,19.648,0,0,0-2.505-1.616c-1.558-.711-2.836.187-3,1.891-.12,1.27-.377,2.527-.576,3.809,2.249.572,4.816-1.076,6.079-4.084" transform="translate(-248.347 -158.894)" fill="#e67bab"/>
        <path id="Trazado_265758" data-name="Trazado 265758" d="M298.137,249.757a10.647,10.647,0,0,0,1.079-.007c.53-.05.92-.321.872-.905a7.451,7.451,0,0,0-.3-1.925,9.541,9.541,0,0,1,.006-6.872c.045-.12.091-.239.18-.471-.522,0-.968-.019-1.411.011-.151.01-.388.111-.426.225a24.241,24.241,0,0,0-.923,2.985c-.346,1.73.567,3.292.811,4.947.094.638.076,1.292.113,2.013" transform="translate(-284.749 -200.87)" fill="#b3b3b3"/>
        <path id="Trazado_265759" data-name="Trazado 265759" d="M28.816,23.9l1.963.877c-.091-3.57-1.872-6.988-3.86-8.215V17.7a3.408,3.408,0,0,1,.49.571A16.7,16.7,0,0,1,28.816,23.9" transform="translate(28.215 -13.887)" fill="#4b4b4b"/>
        <path id="Trazado_265760" data-name="Trazado 265760" d="M13.056,103.093a1.347,1.347,0,0,0,.253.108c1.5.135,3.614-1.964,3.448-3.451a1.248,1.248,0,0,0-.392-.816c-.134-.1-.546.092-.768.246a5.513,5.513,0,0,0-2.541,3.914" transform="translate(44.467 -82.93)" fill="#4a4a4a"/>
        <path id="Trazado_265761" data-name="Trazado 265761" d="M15.3,12.737l-2.682.8c.39.634.7,1.178,1.064,1.686a.547.547,0,0,0,.51-.03c.468-.719.893-1.466,1.332-2.2l-.223-.248" transform="translate(45.781 -10.679)" fill="#b1b1b1"/>
        <path id="Trazado_265762" data-name="Trazado 265762" d="M40.966,29.784a16.7,16.7,0,0,0-1.407-5.634,3.408,3.408,0,0,0-.49-.571c.14.562.29,1.122.419,1.687.229,1,.395,2.026.687,3.012a8.4,8.4,0,0,0,.791,1.506" transform="translate(16.065 -19.77)" fill="#656565"/>
        <path id="Trazado_265763" data-name="Trazado 265763" d="M20.095,78.612l.821,1.769,1.106-.548c-.42-1.271-.452-1.29-1.927-1.221" transform="translate(38.074 -65.895)" fill="#e5e5e5"/>
        <path id="Trazado_265764" data-name="Trazado 265764" d="M106.079,173.882a3.459,3.459,0,0,0,2.11-2.451Z" transform="translate(-61.983 -143.738)" fill="#f2f2f2"/>
        <path id="Trazado_265765" data-name="Trazado 265765" d="M151.52,258.637c-.448.162-.356.4-.095.665l.095-.665" transform="translate(-112.604 -216.857)" fill="#f3f3f3"/>
        <path id="Trazado_265766" data-name="Trazado 265766" d="M126.3,259.648l-.054.359.054-.359" transform="translate(-83.354 -217.705)" fill="#c3c3c3"/>
        <path id="Trazado_265767" data-name="Trazado 265767" d="M112.3,101.363a12.014,12.014,0,0,0-8.221,3.482c-.813.784-1.592,1.6-2.4,2.391-1.364,1.328-.885,4.567,1.487,5.11a6.606,6.606,0,0,0,6.74-1.834,13.761,13.761,0,0,1,2.238-2.039,22.938,22.938,0,0,1,2.288-.96,3.164,3.164,0,0,0,1.722-3.44,3.074,3.074,0,0,0-2.1-2.6,6.541,6.541,0,0,0-1.748-.113m-7.093,9.079c-.348,0-.565-.016-.779,0a1.28,1.28,0,0,1-1.425-.671,1.344,1.344,0,0,1,.479-1.579c.621-.6,1.22-1.215,1.831-1.821a10.886,10.886,0,0,1,7.119-3.043c.914-.07,1.537.345,1.632.953.125.809-.351,1.354-1.282,1.653a7.546,7.546,0,0,0-3.707,2.409c-1.027,1.279-2.215,2.261-3.868,2.1" transform="translate(-69.15 -84.989)" fill="#010101"/>
        <path id="Trazado_265768" data-name="Trazado 265768" d="M116.262,120.616c1.652.165,2.84-.817,3.868-2.1a7.546,7.546,0,0,1,3.707-2.409c.931-.3,1.407-.844,1.282-1.653-.094-.608-.718-1.024-1.632-.953a10.886,10.886,0,0,0-7.119,3.043c-.611.607-1.21,1.225-1.831,1.821a1.344,1.344,0,0,0-.479,1.579,1.28,1.28,0,0,0,1.425.671c.214-.018.43,0,.779,0" transform="translate(-80.204 -95.163)" fill="#676767"/>
      </g>
    </g>
  </g>
</svg>
