<svg xmlns="http://www.w3.org/2000/svg" xmlns:xlink="http://www.w3.org/1999/xlink" width="295" height="234.968" viewBox="0 0 295 234.968">
  <defs>
    <linearGradient id="linear-gradient" y1="0.5" x2="1" y2="0.5" gradientUnits="objectBoundingBox">
      <stop offset="0.425" stop-color="#789401"/>
      <stop offset="0.442" stop-color="#7e9b01"/>
      <stop offset="0.506" stop-color="#8dae01"/>
      <stop offset="0.549" stop-color="#93b501"/>
    </linearGradient>
    <clipPath id="clip-path">
      <path id="Trazado_826931" data-name="Trazado 826931" d="M333.329,306.849a2.832,2.832,0,0,1-1.419-.365c-1.776-.978-2.614-3.622-1.871-5.905a3.566,3.566,0,0,1,3.14-2.728l.879-.015a3.566,3.566,0,0,0-3.14,2.728c-.742,2.283.1,4.928,1.871,5.905a2.828,2.828,0,0,0,1.419.365Z" transform="translate(-329.768 -297.836)"/>
    </clipPath>
    <clipPath id="clip-path-2">
      <path id="Trazado_826936" data-name="Trazado 826936" d="M332.119,300.434a.555.555,0,0,0-.49.425.792.792,0,0,0,.291.92l-.3.006a.793.793,0,0,1-.291-.92.554.554,0,0,1,.49-.425Z" transform="translate(-331.286 -300.434)"/>
    </clipPath>
    <clipPath id="clip-path-3">
      <path id="Trazado_826938" data-name="Trazado 826938" d="M331.964,301.524l-.3.006a.553.553,0,0,0,.49-.425l.3-.006A.553.553,0,0,1,331.964,301.524Z" transform="translate(-331.663 -301.099)"/>
    </clipPath>
    <clipPath id="clip-path-4">
      <path id="Trazado_826940" data-name="Trazado 826940" d="M332.008,305.329a2.092,2.092,0,0,1-1.051-.27,3.772,3.772,0,0,1-1.388-4.376,2.643,2.643,0,0,1,2.327-2.023l.778-.013a2.643,2.643,0,0,0-2.327,2.023,3.77,3.77,0,0,0,1.388,4.376,2.075,2.075,0,0,0,1.051.269Z" transform="translate(-329.369 -298.646)"/>
    </clipPath>
    <clipPath id="clip-path-5">
      <path id="Trazado_826946" data-name="Trazado 826946" d="M334.619,303.145l.882.253c-.576,1.773-2.161,2.595-3.54,1.836a3.951,3.951,0,0,1-1.454-4.585c.576-1.773,2.161-2.595,3.54-1.836A3.951,3.951,0,0,1,335.5,303.4l-.882-.253a3.2,3.2,0,0,0-1.178-3.718c-1.117-.616-2.4.051-2.87,1.488a3.2,3.2,0,0,0,1.179,3.718C332.868,305.248,334.151,304.582,334.619,303.145Z" transform="translate(-330.297 -298.53)"/>
    </clipPath>
    <clipPath id="clip-path-6">
      <path id="Trazado_826950" data-name="Trazado 826950" d="M333.069,304.829l-.879.015a3.566,3.566,0,0,0,3.14-2.728l.879-.015A3.568,3.568,0,0,1,333.069,304.829Z" transform="translate(-332.19 -302.101)"/>
    </clipPath>
    <clipPath id="clip-path-7">
      <path id="Trazado_826952" data-name="Trazado 826952" d="M332.088,297.851l.879-.015a2.845,2.845,0,0,1,1.419.363c1.776.978,2.614,3.622,1.871,5.905l-.879.015c.742-2.283-.1-4.928-1.871-5.905A2.842,2.842,0,0,0,332.088,297.851Z" transform="translate(-332.088 -297.836)"/>
    </clipPath>
    <clipPath id="clip-path-8">
      <path id="Trazado_826958" data-name="Trazado 826958" d="M332.536,301.942l.857.662a1.69,1.69,0,0,1-2.386,1.238,2.666,2.666,0,0,1-.98-3.092,1.69,1.69,0,0,1,2.386-1.238,2.666,2.666,0,0,1,.981,3.091l-.857-.662a.777.777,0,0,0-.287-.9.493.493,0,0,0-.7.362.777.777,0,0,0,.287.9A.493.493,0,0,0,332.536,301.942Z" transform="translate(-329.885 -299.321)"/>
    </clipPath>
    <clipPath id="clip-path-9">
      <path id="Trazado_826960" data-name="Trazado 826960" d="M331.942,303.83l-.778.013a2.643,2.643,0,0,0,2.327-2.023l.778-.013A2.643,2.643,0,0,1,331.942,303.83Z" transform="translate(-331.164 -301.807)"/>
    </clipPath>
    <clipPath id="clip-path-10">
      <path id="Trazado_826962" data-name="Trazado 826962" d="M331.088,298.659l.778-.013a2.092,2.092,0,0,1,1.051.27,3.772,3.772,0,0,1,1.388,4.376l-.778.013a3.772,3.772,0,0,0-1.388-4.376A2.092,2.092,0,0,0,331.088,298.659Z" transform="translate(-331.088 -298.646)"/>
    </clipPath>
  </defs>
  <g id="Grupo_1077253" data-name="Grupo 1077253" transform="translate(3192.328 -2664.934)">
    <g id="Grupo_1077073" data-name="Grupo 1077073" transform="translate(-3192.328 2716.599)">
      <path id="Trazado_826891" data-name="Trazado 826891" d="M531.672,381.685l-5.311.2a40.467,40.467,0,0,0-10.556-8.451l-85.491-49.358c-19.181-11.074-48.2-12.278-64.812-2.689L247.886,389.293a30.166,30.166,0,0,0-4.444,3.1l-6.77.251V405.5c-.022,7.366,5.354,15.142,15.866,21.21l85.491,49.358c19.181,11.074,48.2,12.278,64.812,2.684l117.616-67.9c7.446-4.3,11.133-10.036,11.211-16.056h0Z" transform="translate(-236.672 -301.927)" fill="url(#linear-gradient)"/>
      <path id="Trazado_826892" data-name="Trazado 826892" d="M520.456,380.84l-117.616,67.9c-16.61,9.594-45.63,8.39-64.812-2.684L252.538,396.7c-10.512-6.068-15.887-13.843-15.865-21.21v6.565c-.022,7.366,5.354,15.142,15.865,21.21l85.491,49.358c19.181,11.074,48.2,12.278,64.812,2.686l117.616-67.9c7.446-4.3,11.133-10.036,11.211-16.057h0v-6.565h0C531.589,370.8,527.9,376.542,520.456,380.84Z" transform="translate(-236.672 -278.484)" fill="#7a3d23"/>
      <path id="Trazado_826893" data-name="Trazado 826893" d="M520.456,402.016l-117.616,67.9c-16.612,9.594-45.63,8.39-64.812-2.684l-85.489-49.358c-19.181-11.074-21.263-27.828-4.651-37.417L365.5,312.552c16.615-9.589,45.63-8.385,64.812,2.689L515.807,364.6C534.986,375.673,537.066,392.427,520.456,402.016Z" transform="translate(-236.672 -306.079)" fill="#a6cc02"/>
    </g>
    <g id="Grupo_1077118" data-name="Grupo 1077118" transform="translate(-3134.671 2664.934)">
      <g id="Grupo_1077080" data-name="Grupo 1077080" transform="translate(0 0)">
        <path id="Trazado_826894" data-name="Trazado 826894" d="M417.378,412.825l2.968-1.713c10.47-6.045,9.145-16.7-2.944-23.682l-87.034-50.249c-12.09-6.98-30.549-7.746-41.019-1.7l-2.968,1.713c-10.47,6.045-9.145,16.7,2.944,23.683l87.034,50.249C388.449,418.106,406.909,418.87,417.378,412.825Z" transform="translate(-274.283 -242.51)" fill="#c1c8e0"/>
        <g id="Grupo_1077079" data-name="Grupo 1077079">
          <g id="Grupo_1077074" data-name="Grupo 1077074">
            <path id="Trazado_826895" data-name="Trazado 826895" d="M307.205,271.381a8.035,8.035,0,0,0-3.44-.422,18.807,18.807,0,0,0-9.329,2.918,21.372,21.372,0,0,0-4.193,3.655,23.283,23.283,0,0,0-1.879,2.414c-.368.542-.825,1.888-1.333,2.242l4.063-2.836a26.465,26.465,0,0,0-5.721,12.469c-.415,2.207-.107,4.534-1.094,6.543-.954,1.943-2.129,3.743-3.158,5.641-.881,1.624-2.114,3.021-3.058,4.626a16.947,16.947,0,0,0,3.362-3.672c-.14,2.123-1.445,3.954-2.474,5.817a24.656,24.656,0,0,0-3.055,12.334,59.163,59.163,0,0,0,1.916-6.157c0,3.321-.737,6.792-.15,10.052.551,3.058.7,6.343-.588,9.247.428-.967,1.335-1.541,1.879-2.414a21.32,21.32,0,0,0,1.463-2.84,9.362,9.362,0,0,1,.556,2.674,6.134,6.134,0,0,1-.11,2.4,11.127,11.127,0,0,0,1.363-5.219,28.927,28.927,0,0,1,.393,14.036,13.775,13.775,0,0,1,1.275-2.168c.375-.772.629-1.589.97-2.373a18.434,18.434,0,0,0,1.533-5,21.745,21.745,0,0,1,.7-2.459c.338-1.4,1.329-11.062,1.529-12.49a43.661,43.661,0,0,1,2.415-9.88c.6-1.546,1.336-10.495,2.237-11.89.8-1.239,2.149-2.376,2.273-3.946a34.137,34.137,0,0,0-.026,4.966,36.952,36.952,0,0,0,2.367-7.877c.462-2.534.684-5.192,1.958-7.431a11.059,11.059,0,0,1,6.346-5.17,6.156,6.156,0,0,1,4.044.163c1.469.657,2.161,2.234,3.578,2.955,2.915,1.482,4.5-2.64,2.546-4.585a11.568,11.568,0,0,0-3.663-2.021,3.083,3.083,0,0,1-1.076-.689C310.088,273.3,308.884,272.016,307.205,271.381Z" transform="translate(-275.893 -270.934)" fill="#28304a"/>
            <path id="Trazado_826896" data-name="Trazado 826896" d="M316.516,277.5c-.05-.059-.1-.116-.157-.172a11.559,11.559,0,0,0-3.665-2.021,3.085,3.085,0,0,1-1.076-.689,17.762,17.762,0,0,0-3.025-2.881,4,4,0,0,1-2.778,2.631,11.3,11.3,0,0,1-1.73.256c-1.829.15-3.69.051-5.439.919a9.554,9.554,0,0,0-3.039,2.73,38.4,38.4,0,0,0-6.315,11.413l2.2.069a23.792,23.792,0,0,1-6.346,12.632c.9,2.4-1.017,5.014-3.266,6.251a18.156,18.156,0,0,1-2.561,1.11c-.125.215-.248.431-.366.645a24.656,24.656,0,0,0-3.055,12.334,59.2,59.2,0,0,0,1.915-6.157c0,3.321-.737,6.792-.15,10.052.551,3.058.7,6.343-.588,9.247.428-.967,1.335-1.541,1.88-2.414a21.318,21.318,0,0,0,1.463-2.84,9.365,9.365,0,0,1,.556,2.674,6.136,6.136,0,0,1-.11,2.4,11.132,11.132,0,0,0,1.363-5.219,28.9,28.9,0,0,1,.391,14.036,13.78,13.78,0,0,1,1.275-2.168c.375-.773.629-1.589.97-2.373a18.43,18.43,0,0,0,1.533-5,21.779,21.779,0,0,1,.7-2.459c.338-1.4,1.329-11.062,1.529-12.49a43.658,43.658,0,0,1,2.415-9.88c.6-1.547,1.336-10.495,2.237-11.89.8-1.239,2.149-2.376,2.271-3.946a34.141,34.141,0,0,0-.026,4.966,37.041,37.041,0,0,0,2.368-7.877c.462-2.534.684-5.192,1.958-7.43a11.06,11.06,0,0,1,6.346-5.17,6.165,6.165,0,0,1,4.044.163c1.469.657,2.161,2.234,3.578,2.955a2.759,2.759,0,0,0,1.02.307A10.543,10.543,0,0,0,316.516,277.5Z" transform="translate(-275.892 -270.555)" fill="#1c2134"/>
            <path id="Trazado_826897" data-name="Trazado 826897" d="M293.344,289.55a6.36,6.36,0,0,0,1.089-2.186c.046-.223.09-.831-.163-.958a.465.465,0,0,0-.174-.037,1.732,1.732,0,0,0-.985.118,6.223,6.223,0,0,1-.688.412,4.714,4.714,0,0,0-1.636,1.445c-1,1.167-1.877,9.888-2.618,11.234a22.591,22.591,0,0,0-2.714,8.848c-.185,2.085-.078,4.184-.21,6.271-.326,5.158-2.95,18.321-4.7,23.184,3.907-5.669,5.2-12.687,6.29-19.486a18.345,18.345,0,0,0,.193,2.536,22.6,22.6,0,0,1-.172,2.712c-.222,1.863-.654,3.681-1.033,5.514,1.485-2.771,2.967-5.22,3.668-8.362a23.7,23.7,0,0,0,.187-9.5,13.524,13.524,0,0,1,1.6,4.98,24.77,24.77,0,0,0-.435-7.215,30.829,30.829,0,0,1-.716-7.934,21.641,21.641,0,0,1,1.039-5.158c.366-1.2.61-2.459,1.088-3.616A16.2,16.2,0,0,1,293.344,289.55Z" transform="translate(-273.707 -263.687)" fill="#1c2134"/>
          </g>
          <g id="Grupo_1077076" data-name="Grupo 1077076" transform="translate(18.966 2.145)">
            <path id="Trazado_826898" data-name="Trazado 826898" d="M333.267,374.216c-.567,2.808-8.722.884-9.233-1.5-.473-2.195.31-3.606-.4-5.626h-.006a4.187,4.187,0,0,0-.219-.545c-1.08-2.324-2.808-14.095-3.494-18.214s-6.628-16.019-4.867-19.7-1.857-15.247-1.463-18.027-8.738-10.64-8.738-30.986c0-3.2,6.549-11.6,14.067-.6s8.079,12.789,8.7,21.971a99.526,99.526,0,0,1-2.464,31.07s.344,9.538,1.48,13.329-.878,12.216,2.139,17.685c.742,1.345,1.429,2.539,2.032,3.608l.006.006C332.637,369.945,333.7,372.1,333.267,374.216Z" transform="translate(-281.249 -271.863)" fill="#82260a"/>
            <g id="Grupo_1077075" data-name="Grupo 1077075" transform="translate(23.601 0.116)">
              <path id="Trazado_826899" data-name="Trazado 826899" d="M375.193,317.524l.353,1.339a80.567,80.567,0,0,1,2.015,10.073c1.292,10.47,1.229,27.468-1.351,32.64s-2.495,30.008-2.6,31.885c-.054,1.075,1.389,4.911,2.659,8.32.185.507-.6,2.02-.362,2.506.958,1.964,2.212,3.825,2.8,6.118.3,4.581-11.139,2.737-11.284.379-.015-.231-.024-.479-.026-.732-.056-2.333.234-5.4.234-5.4l-.129-.653-.006-.006c-.279-1.389-.028-4.521-.859-6.82-1.079-2.977.607-5.135.76-11.164.006-.225-.428-11.971-.429-12.251,0-2.752-2.924-9.22-2.77-15.093.091-3.543-.773-15.752-1.932-19.834a111.273,111.273,0,0,0-5.106-13.992s-.057-4.623.412-10c.576-6.7,1.967-14.556,5.286-16.116,6.295-2.952.2,1.652,3.759,2.886a43.692,43.692,0,0,0,5.741,1.4S373.741,312.2,375.193,317.524Z" transform="translate(-280.259 -260.59)" fill="#942f11"/>
              <path id="Trazado_826900" data-name="Trazado 826900" d="M378.186,406.637c-1.3.113-2.58.212-3.827.3-.056-2.333.234-5.4.234-5.4l-.129-.653-.006-.006c-.279-1.389-.028-4.52-.858-6.82-1.079-2.977.607-5.135.76-11.164.006-.225-.428-11.971-.429-12.251,0-2.752-2.924-9.22-2.77-15.093.091-3.543-.773-15.752-1.932-19.834-2.567-.794-5.57-1.851-9.089-3.2-8.257-3.162-13.652-6.373-17.776-9.624,5.961,3.352,19.585,5.1,19.311-1.314-.268-6.162,2.624-14.7,3.537-17.219a24.372,24.372,0,0,0-.676,7.361c.029,1.26.112,2.69.269,4.315.657,6.717,16.473-.523,17.122,6.085,1.577,16.041-2.09,28.469-2.831,30.359-2.062,5.266-5.383,5.674-2.989,14.085s.146,20.8.476,22.595-.754,2.418-.362,5.21S377.3,399.644,378.186,406.637Z" transform="translate(-287.215 -257.481)" fill="#82260a"/>
              <path id="Trazado_826901" data-name="Trazado 826901" d="M375.44,376.431c.3,4.582-11.139,2.737-11.284.379a51.266,51.266,0,0,1,.207-6.136s-.047-.244-.129-.651c1.273,2.312,7.313,1.677,8.407.29C373.6,372.277,374.854,374.136,375.44,376.431Z" transform="translate(-276.988 -226.617)" fill="#222021"/>
              <path id="Trazado_826902" data-name="Trazado 826902" d="M433.718,329.234c-.607.141-2.559-1.26-2.559-1.26s0,1.091-1.907.034c-.2-.107-.412-.237-.647-.394-2.559-1.688-1.616-3.568-2.042-4.237s-3.106-6.959-5.419-9.064-5.857-10.24-6.712-10.662-2.555.967-3.23,3.168c-.332,1.1-2.2,3.753-4.316,6.7-.479.675-.973,1.367-1.469,2.054-1.677,2.358-3.319,4.714-4.293,6.465-2.1,3.781-2.34,5.08-2.364,6.515-.01.276-.006.551-.006.856,0,.478-.046,1.53-.146,2.87-.3,3.926,1.491,12.688-.237,14.77-2.205,2.661-6.251,3.241-21.832-4.766-.737-.378-1.5-.776-2.29-1.194-.1-.05-.191-.1-.281-.146-4.153-2.195-7.962-4.029-11.45-5.666-11.068-5.21-18.883-8.445-23.952-14.7-6.7-8.272-8.958-13.836-12.059-16.751a73.03,73.03,0,0,0-6.071-4.243,63.26,63.26,0,0,1-6.234-4.738c-3.533-3.094-6.662-6.836-7.612-11.18-2.257-10.32-2.74-6.921,1.091-9.391s9.261-4.231,25.888,7.608c0,0,16.2,9.94,21.322,11.656s17.474-1,21.064-2.13c3.6-1.148,23.064-10.489,26.783-12.254s11.388-2.509,14.556-1.035,5.425,2.852,8.468,10.628-.281,12.209,2.583,17.616,5.852,13.369,6.471,17.15C435.417,327.28,434.327,329.1,433.718,329.234Z" transform="translate(-304.849 -272.471)" fill="#ad4929"/>
              <path id="Trazado_826903" data-name="Trazado 826903" d="M314.858,288.263s.337,1.5.878,3.89A73.327,73.327,0,0,1,321.8,296.4c3.1,2.911,5.36,8.479,12.06,16.748s18.207,11.262,35.686,20.515,21.805,8.742,24.121,5.958c1.724-2.08-.068-10.842.234-14.773,0,0-2.656,9.376-8.084,10.759s-12.923-4.347-12.923-4.347l-6.418-16.175s.609,9.286,1.2,10.759-2.836.973-2.836.973-13.685-.958-23.8-10.29-14.984-19.834-17.3-21.17S314.858,288.263,314.858,288.263Z" transform="translate(-300.145 -265.049)" fill="#942f11"/>
              <path id="Trazado_826904" data-name="Trazado 826904" d="M385.76,280.736s2.9-7.3,2.836-7.572c-.514-2.017-4.434,1.269-5.367,2.015-.634.506-2.781,2.374-4.1,3.522a1.671,1.671,0,0,0-.306,2.161c.288.453.5,1.061.878,1.285,1.607.955,2.764,1.075,3.69.392A15.734,15.734,0,0,0,385.76,280.736Z" transform="translate(-270.201 -272.45)" fill="#82260a"/>
              <path id="Trazado_826905" data-name="Trazado 826905" d="M380.86,334.194c-1.811,4.338-15.8,14.32-28.172,18.381a39.55,39.55,0,0,1-4.985,1.311l-.022.006c-.32.062-.635.113-.945.163L344.614,323l-1.671-24.431s17.482,6.695,28.651,11.394q.49.2.961.4c4.782,2.032,8.187,3.612,8.147,4a13.851,13.851,0,0,0,.151,1.907C381.316,320.465,382.576,330.1,380.86,334.194Z" transform="translate(-286.943 -260.203)" fill="#ad4929"/>
            </g>
            <path id="Trazado_826906" data-name="Trazado 826906" d="M327.26,344.43c-.567,2.808-8.722.884-9.233-1.5-.473-2.195.31-3.606-.4-5.626,4.422,2.543,7.337,2.993,7.168-.416l.006.006C326.63,340.16,327.688,342.315,327.26,344.43Z" transform="translate(-275.242 -242.078)" fill="#222021"/>
            <path id="Trazado_826907" data-name="Trazado 826907" d="M319.618,272.509c-24.851-1.716-26.211,16.1-26.211,16.1s-7.61,26.211,10.027,22.975,24.3-18.709,23.011-22.787S319.618,272.509,319.618,272.509Z" transform="translate(-287.394 -272.393)" fill="#ad4929"/>
            <path id="Trazado_826908" data-name="Trazado 826908" d="M313.1,274.917c-21.991-2.289-24.387,14.878-24.306,24.269.05,5.751,13.5,19.039,16.545,18.687,17.814-2.054,10.293-18.287,9-22.367S313.1,274.917,313.1,274.917Z" transform="translate(-288.795 -271.304)" fill="#ad4929"/>
          </g>
          <g id="Grupo_1077078" data-name="Grupo 1077078" transform="translate(18.946 4.143)">
            <g id="Grupo_1077077" data-name="Grupo 1077077" transform="translate(1.507)">
              <path id="Trazado_826909" data-name="Trazado 826909" d="M436.323,323.926c-.141,2.858-1.614,4.917-2.115,5.031-.607.141-2.561-1.266-2.561-1.266s0,.866-1.345.315a7.713,7.713,0,0,1-1.21-.675c-2.559-1.688-3.291-2.6-3.719-3.264a79.068,79.068,0,0,0-7.094-8.1c-1.108-1.013-3.5-2.825-5.791-4.485-2.487-1.813-4.844-3.438-5.289-3.658-.85-.422-2.555.967-3.23,3.168-.237.782-2.931,3.793-6.437,7.562-.529.573-1.08,1.164-1.648,1.767-4.344,4.659-9.452,10.043-12.626,13.774-.034.034-.062.068-.09.1-.062.068-.123.141-.181.207-.8.945-1.469,1.779-1.946,2.448a9.845,9.845,0,0,0-.619.945c-2.5,4.5-2.374,5.486-2.374,7.371,0,.484-.046,1.53-.146,2.87-.3,3.927-1.114,10.382-2.842,12.463a4.547,4.547,0,0,1-2.38,1.57.059.059,0,0,1-.022.006c-1.97.523-3.809,2.63-9.629,1.7-.859-.134-2.54-4.548-3.453-4.964-2.454-1.1-5.305-2.509-8.637-4.271-7.815-4.135-12.784-7.972-16.487-11.7a.021.021,0,0,0-.012-.006c-4.569-4.6-7.219-9.014-10.921-13.588-6.7-8.265-8.953-13.836-12.057-16.745a73.818,73.818,0,0,0-6.065-4.248c-5.4-3.68-12.35-.124-13.846-6.994-2.257-10.32-2.746-15.844,1.091-18.309s9.255-4.231,25.888,7.607c0,0,1.1.046,2.746.191,3.657.337,10.021,1.2,13.088,3.313,4.451,3.061,14.692,11.922,18.282,10.787s39.145-19.766,42.864-21.533,11.388-2.515,14.557-1.035,5.424,2.853,8.467,10.623,7.421,11.793,10.28,17.2,6.8,8.187,7.411,11.968A9.175,9.175,0,0,1,436.323,323.926Z" transform="translate(-289.806 -270.27)" fill="#ad4929"/>
              <path id="Trazado_826910" data-name="Trazado 826910" d="M384.64,291.765a8.914,8.914,0,0,1,2.415,3.228,28.538,28.538,0,0,1,1.3,4.078,49.194,49.194,0,0,0,3.53,9.061q1.1,2.17,2.418,4.225a6.562,6.562,0,0,0,1.285,1.7c.606.478,1.388.716,2,1.2,1.242.991,2.723,4.119,1.813,5.666-.857,1.457-3.3,1.585-4.766,1.83a18.252,18.252,0,0,1-7.152-.694c-1.589-.447-3.549-3.631-4.663-4.826l-5.236-5.616a9.471,9.471,0,0,1-2.74-4.3c-.078-.384,2.656.407,2.833.481a4.433,4.433,0,0,1,1.173.682,45.933,45.933,0,0,0,4.756,3.039.779.779,0,0,0,.237.113.6.6,0,0,0,.578-.335,2.808,2.808,0,0,0,.179-1.861c-.416-3.121-1.157-6.048-3.293-8.438-1.841-2.058-3.871-4.023-5.067-6.512a5.675,5.675,0,0,1-.67-3.058,2.851,2.851,0,0,1,1.779-2.42,4.134,4.134,0,0,1,2.626.272A14.692,14.692,0,0,1,384.64,291.765Z" transform="translate(-249.838 -266.636)" fill="#a63513"/>
              <path id="Trazado_826911" data-name="Trazado 826911" d="M370.149,352.741c-9.386.626-19.583.578-27.167-4.986-2.06-1.511-9.705-2.427-12.982-7.106-4.132-5.9-9.026-15.283-12.484-21.6-1.57-2.868-2.186-6.457-2.721-9.7-.6-3.627-2.861-7.388-3.821-10.949-.831-3.078-2.04-8.018-5.6-11.347.539,2.649,1.288,8.494.234,10.925-.337.778-3.469-.287-3.738.517a5.485,5.485,0,0,0-.2,2.03c.151,2.958,1.732,5.05,2.427,7.828a16.667,16.667,0,0,1,1.8,1.38c3.106,2.909,5.361,8.479,12.057,16.745s9.942,16.035,27.419,25.292c24.143,12.769,10.373,10.555,21.719,7.534l.018-.006a4.326,4.326,0,0,0,1.585-.8A6.789,6.789,0,0,0,370.149,352.741Z" transform="translate(-284.237 -267.498)" fill="#942f11"/>
              <path id="Trazado_826912" data-name="Trazado 826912" d="M403.717,319.225a2.667,2.667,0,0,1-1.508,1.491,7.7,7.7,0,0,1-1.21-.675c-2.559-1.688-3.292-2.6-3.719-3.264a78.935,78.935,0,0,0-7.1-8.1c-1.108-1.013-3.5-2.825-5.789-4.485-1.677,2.358-3.319,4.714-4.293,6.465-2.1,3.781-2.34,5.08-2.364,6.515.462,4.187,1.721,13.818.006,17.916-1.811,4.338-15.8,14.32-28.172,18.382.754-3.876,1.811-7.7,2.858-11.512.259-.923-2.508-2.267-2.086-3.128a19.686,19.686,0,0,0,2.209-9.8c.8.973,4.859,2.157,6.015,2.645a5.053,5.053,0,0,0,4.094.1,4.622,4.622,0,0,0,1.467-1.17,6.228,6.228,0,0,0,1.355-5.2c-.523-2.595-2.617-4.537-4.591-6.3-.254-.226-.531-.515-.478-.851s.42-.529.739-.664a19.675,19.675,0,0,0,4.356-2.368,8.758,8.758,0,0,0,2.549-2.974c.594-1.188,1.416-2.22,2.055-3.4,1.389-2.567,2.267-5.375,3.671-7.934,1.129-2.06,3.452-4.964,6.095-4.1,2.492.814,4.365,3.409,5.983,5.327a21.683,21.683,0,0,0,1.885,2.07,22.716,22.716,0,0,1,2.273,1.952,21.833,21.833,0,0,1,1.958,3.4,18.8,18.8,0,0,0,1.666,2.257,14.591,14.591,0,0,0,3.871,3.685,11.6,11.6,0,0,0,5.435,1.216c-.281.631.659,1.136.822,1.807A1.172,1.172,0,0,1,403.717,319.225Z" transform="translate(-261.713 -262.983)" fill="#942f11"/>
              <path id="Trazado_826913" data-name="Trazado 826913" d="M360.192,324.681c-.012.45-.022.917-.034,1.383-.1,3.3.287,17.535-.248,20.85-1.677,10.415-3.375,20.227-5.367,25.651s-1.648,27.439-1.7,29.317a19,19,0,0,0,2.7,7.562c.273.466-.2,1.5.019,2,.876,2,2.054,3.912,2.546,6.229.113,4.59-11.241,2.277-11.29-.085-.006-.232,0-.479,0-.734.04-2.333.454-5.388.454-5.388s-.038-.245-.1-.657l0-.006a19.21,19.21,0,0,0-1.191-5.011c-1.163-2.946.463-5.15.445-11.181,0-.225-.766-9.326-.773-9.607-.076-2.75-2.87-8.151-3.365-14.005-.3-3.531-3.281-19.83-3.94-24.022a111.267,111.267,0,0,0-3.381-14.505s.5-4.6,1.614-9.88c1.379-6.577,3.709-14.212,7.192-15.361A16.173,16.173,0,0,1,358.61,309.5a16.782,16.782,0,0,1,3.214,2.9A71.424,71.424,0,0,0,360.192,324.681Z" transform="translate(-268.578 -258.429)" fill="#ad4929"/>
              <path id="Trazado_826914" data-name="Trazado 826914" d="M357.612,413.822c-1.308.06-2.586.106-3.837.147.04-2.333.454-5.388.454-5.388s-.038-.245-.1-.657l0-.006a19.212,19.212,0,0,0-1.191-5.011c-1.163-2.946.463-5.15.445-11.181,0-.225-.766-9.326-.773-9.607-.076-2.75-2.87-8.151-3.365-14.005-.3-3.531-3.281-19.83-3.94-24.022-2.454-1.1-5.305-2.509-8.637-4.271-7.815-4.135-12.784-7.972-16.487-11.7,5.514,4.046,18.827,7.427,19.327,1.025.478-6.151,4.378-14.274,5.588-16.666a24.321,24.321,0,0,0-1.558,7.224c-.123,1.254-.213,2.684-.253,4.316-.157,6.746,2.636,19.033,5.473,25.035a16.831,16.831,0,0,1,1.948,6.721c.069,7.059,1.332,13.864,3.963,22.2s.731,18.155,1.111,19.944-.685,2.439-.215,5.219S357.011,406.8,357.612,413.822Z" transform="translate(-275.53 -255.546)" fill="#942f11"/>
              <path id="Trazado_826915" data-name="Trazado 826915" d="M355.28,288.713a8.917,8.917,0,0,0,4.62-.45c-.369.14-.835.747-1.235.964-.456.248-.938.476-1.408.7a20.322,20.322,0,0,1-10.958,1.865l1.9.979c-.144.407-.675.49-1.107.5l-4.709.159c.141.123.287.241.434.356a13.359,13.359,0,0,0,12.05,1.824,9.358,9.358,0,0,1-3.591,2.051,9.573,9.573,0,0,0,3.7-.392,39.869,39.869,0,0,0,5.153-.979c1.229-.438,2.495-1.145,3.7-1.695a26.132,26.132,0,0,0,7.818-5.474,47.917,47.917,0,0,1-4.121,4.891,20.907,20.907,0,0,0,8.082-6.88,12.84,12.84,0,0,1,1.379-1.82c2.564-2.567,7.025-3.436,10.5-3.58a8.665,8.665,0,0,1,2.249.266c.653.144,1.282-.028,1.892.366a4.082,4.082,0,0,1,1.138,1.254,14.447,14.447,0,0,1,1.36,2.659q.13-1.38.381-2.747c-.016.088.463.519.534.6q.3.344.589.7a12.8,12.8,0,0,1,1.05,1.477,8.394,8.394,0,0,1,.722,1.608,9.922,9.922,0,0,1,.3,1.858,8.34,8.34,0,0,0,1-3.3c.52,1.105,1.379,2.017,1.99,3.074a15.574,15.574,0,0,1,1.438,4.106c-.032-.126.1-.417.126-.55.048-.22.093-.442.132-.664.081-.444.147-.892.2-1.341a9.2,9.2,0,0,0,.094-2.476,23.414,23.414,0,0,1,2.018,2.908,14.966,14.966,0,0,0-1.277-5.348,11.829,11.829,0,0,0-1.136-2.3,6.78,6.78,0,0,0-1.5-1.579,3.154,3.154,0,0,1,.989.093,8.063,8.063,0,0,1,1.72.875.421.421,0,0,1,.169.179.153.153,0,0,1,.007.085c.023-.126-.222-.479-.282-.6-.106-.213-.219-.425-.335-.632-.229-.409-.5-.775-.754-1.164a29.062,29.062,0,0,0-1.973-2.971,11.741,11.741,0,0,0-7.215-3.975,36.117,36.117,0,0,0-9.111-.3l4.734,1.38c-4.988.063-10.086.146-14.773,1.854l4.686-.354c-3.465,1.411-6.806,3.108-10.453,3.934a20.4,20.4,0,0,0-5.044,1.868,7.7,7.7,0,0,0,3.069-.243,11.8,11.8,0,0,0-1.81,1.082,15.794,15.794,0,0,0-1.876,1.019C360.23,286.126,358.132,288.079,355.28,288.713Z" transform="translate(-265.09 -273.752)" fill="#28304a"/>
              <path id="Trazado_826916" data-name="Trazado 826916" d="M377.942,292.954s1.71-1.661,2.975-.992c2.529,1.335,2.252,3.19,2.252,3.19a5.57,5.57,0,0,1-2.609-.166A7.023,7.023,0,0,1,377.942,292.954Z" transform="translate(-248.377 -265.267)" fill="#22222c"/>
              <path id="Trazado_826917" data-name="Trazado 826917" d="M383.643,306.525s3.877,7.48,4.131,8.187a.889.889,0,0,1-.232,1.054l-2.01-3.956-1.887-4.864v-.42Z" transform="translate(-245.698 -258.346)" fill="#050507"/>
              <path id="Trazado_826918" data-name="Trazado 826918" d="M399.187,285.087c-.24-3.246-3.556-5.242-6.476-6.68a8.183,8.183,0,0,1,3.879,1.1c-4.3-3.383-10.461-2.442-15.822-1.332a3.918,3.918,0,0,1,3.491-1.892,22.1,22.1,0,0,0-4.481-1.163,27.654,27.654,0,0,0-5.807,1.372l4.686-.354c-3.465,1.411-6.806,3.108-10.453,3.934a20.455,20.455,0,0,0-5.044,1.868,7.7,7.7,0,0,0,3.069-.243,11.791,11.791,0,0,0-1.81,1.082,15.8,15.8,0,0,0-1.876,1.019c-2.317,1.683-4.415,3.637-7.266,4.271a8.916,8.916,0,0,0,4.62-.45c-.367.14-.835.747-1.235.964-.457.248-.938.476-1.408.7a20.32,20.32,0,0,1-10.958,1.865l1.9.978c-.144.407-.675.49-1.107.5l-4.709.159c.141.124.287.241.434.356a13.354,13.354,0,0,0,12.05,1.823,9.329,9.329,0,0,1-3.591,2.051,9.572,9.572,0,0,0,3.7-.393,39.875,39.875,0,0,0,5.153-.979c1.229-.438,2.495-1.145,3.7-1.7a26.133,26.133,0,0,0,7.818-5.474,47.915,47.915,0,0,1-4.121,4.891,20.918,20.918,0,0,0,8.082-6.88,12.849,12.849,0,0,1,1.379-1.82c2.565-2.567,7.025-3.436,10.5-3.58a8.665,8.665,0,0,1,2.249.266c.653.144,1.282-.028,1.892.366a4.081,4.081,0,0,1,1.138,1.254,14.445,14.445,0,0,1,1.36,2.659q.13-1.38.381-2.747c-.016.088.463.519.534.6q.3.344.589.7a12.7,12.7,0,0,1,1.05,1.479,8.393,8.393,0,0,1,.722,1.608,9.922,9.922,0,0,1,.3,1.858,8.339,8.339,0,0,0,1-3.3,7.22,7.22,0,0,0,.385.692A5.667,5.667,0,0,0,399.187,285.087Z" transform="translate(-265.09 -273.107)" fill="#1c2134"/>
              <path id="Trazado_826919" data-name="Trazado 826919" d="M376.738,286.423s3.471-7.274,2.318-8.876c-.745-1.038-4.773,2.455-5.474,3.422s-4.8,4.21-5.017,6.073c-.151,1.28,2.533,2.426,3.587,2.555,1.17.144,1.308-1.48,2.063-2.109C375.183,286.679,376.619,286.764,376.738,286.423Z" transform="translate(-252.788 -272.057)" fill="#82260a"/>
            </g>
            <path id="Trazado_826920" data-name="Trazado 826920" d="M289.238,335.832c0,3.327,2.456,19.865,2.456,21.091s-.756,9.833-.631,11.932a11.007,11.007,0,0,0,1.639,4.417,28.114,28.114,0,0,1,.691,5.1c-.121,1.3,1.48,3.787,2.045,4.617a38.483,38.483,0,0,1,1.868,4.435s6.606-1.029,6.606-2.255a45.5,45.5,0,0,0-2.368-8.088c-.484-1.3-.847-2.265-.917-2.468a16.369,16.369,0,0,1-.378-4.634c.126-1.444-.631-4.125-1.008-6.437s-.631-9.767-.187-10.956,2.2-6.614,2.2-9,2.961-9.141,3.465-9.573a87.193,87.193,0,0,0,5.235-7.9c1.008-1.8,3.63-6.346,3.971-8.125s.323-17.132-3.333-24.451-14.339-12.347-17.808-10.445a6.751,6.751,0,0,0-3.59,5.3c-.469,5.561-.972,11.008,1.089,22.995.687,3.991,2.171,12.206,1.739,14.706C291.157,331.109,289.238,333.613,289.238,335.832Z" transform="translate(-288.781 -269.55)" fill="#ad4929"/>
            <path id="Trazado_826921" data-name="Trazado 826921" d="M309.994,291.84a3.755,3.755,0,0,0-.106.413c-.181,1.042.318,2.364.343,3.43.041,1.8-.088,3.628-.131,5.432a101.547,101.547,0,0,1-1.638,12.24c-1.041,5.48-5.846,10.972-8.933,15.622-1.942,2.925-4.431,5.579-5.316,9.066-.429,1.693,2.2.453,2.1,2.134a12.708,12.708,0,0,1-1.635,4.91,11.341,11.341,0,0,0-1.447,6.132,29.492,29.492,0,0,0,.073,5.2c.362,2.212,1.145,4.31,1.561,6.493a30.347,30.347,0,0,1,.19,6.576c-.032,1.129,1.488,9.56-1.921,7.28-.27.988-.57,1.97-.891,2.947.613,1.364,3.441,3.413,3.441,3.413s6.608-1.028,6.608-2.255a45.5,45.5,0,0,0-2.368-8.088c-.484-1.3-.847-2.265-.917-2.468a16.424,16.424,0,0,1-.378-4.634c.126-1.444-.631-4.125-1.008-6.439s-.631-9.767-.187-10.958,2.2-6.614,2.2-9,2.961-9.141,3.465-9.573a87.207,87.207,0,0,0,5.233-7.9c1.008-1.8,3.568-6.359,3.971-8.125C314.108,305.766,312.462,299.665,309.994,291.84Z" transform="translate(-287.155 -265.249)" fill="#a63513"/>
            <path id="Trazado_826922" data-name="Trazado 826922" d="M291.914,353.216c-.462,1.107.441,2.711,3.974,4.029,3.921,1.464,6.606-1.029,6.606-2.255a45.505,45.505,0,0,0-2.368-8.088s-.832,2.578-4.834,2.408a4.8,4.8,0,0,1-3.318-1.117C291.853,349.5,292.3,352.29,291.914,353.216Z" transform="translate(-287.361 -239.367)" fill="#222021"/>
          </g>
          <path id="Trazado_826923" data-name="Trazado 826923" d="M386.558,306.563c-2.286-.7-2.708,1.833-3.446,4.435s-.2,2.814.939,4.009,2.355,1.92,5.532,1.688,6.33-4.678,6.33-4.678Z" transform="translate(-225.653 -254.241)" fill="#7d341e"/>
          <path id="Trazado_826924" data-name="Trazado 826924" d="M390.278,318.9c3.9-.419,6.771-3.277,7.85-4.379s1.41-1.973,1.035-5.607-2.509-5.63-2.864-6.384c.49,1.549.213,2.13-.741,2.762-4,2.649-6.486,1.683-8.512,1.355s-3.375-.567-4.3,1.524,2.155,3.7,2.695,5.389S387.257,318.546,390.278,318.9Z" transform="translate(-225.745 -256.08)" fill="#7d341e"/>
          <path id="Trazado_826925" data-name="Trazado 826925" d="M389.413,308.553a.781.781,0,0,1,1.205.833c-.09.344-.194.767-.315,1.282-.128.547.789,1.411.81,1.8.056,1.047-.409,1.188-1.105,1.222-1.117.054-3.168-1.717-2.914-2.386A8.166,8.166,0,0,1,389.413,308.553Z" transform="translate(-223.633 -253.318)" fill="#1e1d1b"/>
          <path id="Trazado_826926" data-name="Trazado 826926" d="M354.32,384.268c.113,4.589-11.241,2.277-11.29-.084a51.291,51.291,0,0,1,.459-6.121s-.038-.245-.1-.657c1.177,2.362,7.237,1.976,8.388.634C352.65,380.042,353.828,381.953,354.32,384.268Z" transform="translate(-244.337 -220.886)" fill="#222021"/>
          <path id="Trazado_826927" data-name="Trazado 826927" d="M368.723,366.225a2.625,2.625,0,0,0,0-.372C368.824,365.872,368.817,365.981,368.723,366.225Z" transform="translate(-232.259 -226.317)" fill="#222021"/>
        </g>
        <path id="Trazado_826928" data-name="Trazado 826928" d="M319.852,322.935a6.447,6.447,0,0,1-.884-.957A3.742,3.742,0,0,1,319.852,322.935Z" transform="translate(-255.645 -246.94)" fill="#9a4025"/>
        <path id="Trazado_826929" data-name="Trazado 826929" d="M337.438,312.038c-.034.068-.129.253-.271.529A5.049,5.049,0,0,1,337.438,312.038Z" transform="translate(-247.091 -251.612)" fill="#9a4025"/>
      </g>
      <g id="Grupo_1077108" data-name="Grupo 1077108" transform="translate(78.612 39.548)">
        <g id="Grupo_1077107" data-name="Grupo 1077107">
          <g id="Grupo_1077082" data-name="Grupo 1077082" transform="translate(0.587 0)">
            <g id="Grupo_1077081" data-name="Grupo 1077081" clip-path="url(#clip-path)">
              <path id="Trazado_826930" data-name="Trazado 826930" d="M333.329,306.849l.879-.015a2.832,2.832,0,0,1-1.419-.365c-1.776-.978-2.614-3.622-1.871-5.905a3.566,3.566,0,0,1,3.14-2.728l-.879.015a3.566,3.566,0,0,0-3.14,2.728c-.742,2.283.1,4.928,1.871,5.905a2.833,2.833,0,0,0,1.419.365Z" transform="translate(-329.768 -297.836)" fill="#505e93"/>
            </g>
          </g>
          <g id="Grupo_1077083" data-name="Grupo 1077083" transform="translate(1.466 0.001)">
            <path id="Trazado_826932" data-name="Trazado 826932" d="M337.067,304.106c-.742,2.283-2.783,3.343-4.559,2.364s-2.614-3.622-1.871-5.905,2.783-3.341,4.559-2.364S337.807,301.821,337.067,304.106Z" transform="translate(-330.366 -297.836)" fill="#6071b1"/>
          </g>
          <g id="Grupo_1077084" data-name="Grupo 1077084" transform="translate(0.587 0.015)">
            <path id="Trazado_826933" data-name="Trazado 826933" d="M336.469,304.116c-.742,2.284-2.783,3.343-4.559,2.364s-2.614-3.622-1.871-5.905,2.783-3.341,4.559-2.364S337.211,301.831,336.469,304.116Zm-.719-.4a3.951,3.951,0,0,0-1.454-4.585c-1.379-.759-2.964.063-3.54,1.836a3.951,3.951,0,0,0,1.454,4.585c1.38.76,2.965-.062,3.54-1.836Z" transform="translate(-329.768 -297.846)" fill="#6071b1"/>
          </g>
          <g id="Grupo_1077085" data-name="Grupo 1077085" transform="translate(1.468 1.688)">
            <path id="Trazado_826934" data-name="Trazado 826934" d="M334.586,302.931c-.467,1.438-1.751,2.1-2.87,1.488a3.207,3.207,0,0,1-1.179-3.718c.467-1.438,1.751-2.1,2.87-1.488A3.2,3.2,0,0,1,334.586,302.931Zm-1.523-.838a.793.793,0,0,0-.291-.92.5.5,0,0,0-.71.369.792.792,0,0,0,.291.92.5.5,0,0,0,.71-.369Z" transform="translate(-330.368 -298.984)" fill="#6071b1"/>
          </g>
          <g id="Grupo_1077087" data-name="Grupo 1077087" transform="translate(2.819 3.819)">
            <g id="Grupo_1077086" data-name="Grupo 1077086" clip-path="url(#clip-path-2)">
              <path id="Trazado_826935" data-name="Trazado 826935" d="M331.62,301.785l.3-.006a.793.793,0,0,1-.291-.92.554.554,0,0,1,.49-.425l-.3,0a.555.555,0,0,0-.49.425.794.794,0,0,0,.291.922Z" transform="translate(-331.286 -300.434)" fill="#505e93"/>
            </g>
          </g>
          <g id="Grupo_1077089" data-name="Grupo 1077089" transform="translate(3.373 4.797)">
            <g id="Grupo_1077088" data-name="Grupo 1077088" clip-path="url(#clip-path-3)">
              <path id="Trazado_826937" data-name="Trazado 826937" d="M332.153,301.1l.3-.006a.554.554,0,0,1-.49.425l-.3.006a.553.553,0,0,0,.49-.425Z" transform="translate(-331.663 -301.099)" fill="#505e93"/>
            </g>
          </g>
          <g id="Grupo_1077091" data-name="Grupo 1077091" transform="translate(0 1.191)">
            <g id="Grupo_1077090" data-name="Grupo 1077090" clip-path="url(#clip-path-4)">
              <path id="Trazado_826939" data-name="Trazado 826939" d="M332.008,305.328l.778-.013a2.1,2.1,0,0,1-1.051-.269,3.772,3.772,0,0,1-1.388-4.376,2.643,2.643,0,0,1,2.327-2.023l-.778.013a2.641,2.641,0,0,0-2.327,2.023,3.77,3.77,0,0,0,1.388,4.376,2.1,2.1,0,0,0,1.051.269Z" transform="translate(-329.369 -298.646)" fill="#505e93"/>
            </g>
          </g>
          <g id="Grupo_1077093" data-name="Grupo 1077093" transform="translate(1.365 1.02)">
            <g id="Grupo_1077092" data-name="Grupo 1077092" clip-path="url(#clip-path-5)">
              <path id="Trazado_826941" data-name="Trazado 826941" d="M334.619,302.57l.882.253c-.576,1.773-2.161,2.595-3.54,1.836a3.951,3.951,0,0,1-1.454-4.585c.037-.112.076-.219.121-.322l.04.328c-.035.084-.068.172-.1.262a3.2,3.2,0,0,0,1.179,3.718c1.119.614,2.4-.051,2.87-1.489Z" transform="translate(-330.297 -297.955)" fill="#505e93"/>
              <path id="Trazado_826942" data-name="Trazado 826942" d="M330.563,300.654l-.04-.328c.654-1.548,2.127-2.224,3.419-1.514a2.443,2.443,0,0,1,.3.2l-.664.578a2.064,2.064,0,0,0-.245-.159,1.974,1.974,0,0,0-2.773,1.226Z" transform="translate(-330.191 -298.53)" fill="#6a7dc4"/>
              <path id="Trazado_826943" data-name="Trazado 826943" d="M332.6,299.434l.664-.578a3.279,3.279,0,0,1,1.02,1.348l-.859.322a2.658,2.658,0,0,0-.826-1.092Z" transform="translate(-329.213 -298.377)" fill="#a9b4dd"/>
              <path id="Trazado_826944" data-name="Trazado 826944" d="M333.165,300.095l.858-.322a4.37,4.37,0,0,1,.328,2.017l-.92-.059a3.544,3.544,0,0,0-.266-1.636Z" transform="translate(-328.949 -297.945)" fill="#6a7dc4"/>
              <path id="Trazado_826945" data-name="Trazado 826945" d="M333.4,301.105l.92.059a4.329,4.329,0,0,1-.2,1.023l-.882-.253a3.436,3.436,0,0,0,.16-.829Z" transform="translate(-328.915 -297.319)" fill="#505e93"/>
            </g>
          </g>
          <g id="Grupo_1077094" data-name="Grupo 1077094" transform="translate(0.778 1.192)">
            <path id="Trazado_826947" data-name="Trazado 826947" d="M334.864,303.293c-.55,1.692-2.062,2.477-3.378,1.752a3.772,3.772,0,0,1-1.388-4.376c.55-1.692,2.063-2.477,3.378-1.752A3.77,3.77,0,0,1,334.864,303.293Zm-1.882-1.036a.793.793,0,0,0-.291-.92.5.5,0,0,0-.71.369.793.793,0,0,0,.291.92.5.5,0,0,0,.71-.369Z" transform="translate(-329.898 -298.646)" fill="#6071b1"/>
          </g>
          <g id="Grupo_1077095" data-name="Grupo 1077095" transform="translate(2.385 3.846)">
            <path id="Trazado_826948" data-name="Trazado 826948" d="M332.016,301.411a.493.493,0,0,1-.7.362.778.778,0,0,1-.287-.9.493.493,0,0,1,.7-.362A.777.777,0,0,1,332.016,301.411Z" transform="translate(-330.991 -300.452)" fill="#6071b1"/>
          </g>
          <g id="Grupo_1077097" data-name="Grupo 1077097" transform="translate(4.147 6.27)">
            <g id="Grupo_1077096" data-name="Grupo 1077096" clip-path="url(#clip-path-6)">
              <path id="Trazado_826949" data-name="Trazado 826949" d="M335.33,302.116l.879-.015a3.566,3.566,0,0,1-3.14,2.728l-.879.015a3.566,3.566,0,0,0,3.14-2.728Z" transform="translate(-332.19 -302.101)" fill="#505e93"/>
            </g>
          </g>
          <g id="Grupo_1077099" data-name="Grupo 1077099" transform="translate(3.997)">
            <g id="Grupo_1077098" data-name="Grupo 1077098" clip-path="url(#clip-path-7)">
              <path id="Trazado_826951" data-name="Trazado 826951" d="M332.088,297.851l.879-.015a2.845,2.845,0,0,1,1.419.363c1.776.978,2.614,3.622,1.871,5.905l-.879.015c.742-2.283-.1-4.928-1.871-5.905a2.842,2.842,0,0,0-1.419-.363Z" transform="translate(-332.088 -297.836)" fill="#505e93"/>
            </g>
          </g>
          <g id="Grupo_1077101" data-name="Grupo 1077101" transform="translate(0.759 2.184)">
            <g id="Grupo_1077100" data-name="Grupo 1077100" clip-path="url(#clip-path-8)">
              <path id="Trazado_826953" data-name="Trazado 826953" d="M331.866,301.1l.857.662a1.943,1.943,0,0,1-1.413,1.405l.143-1.657a.564.564,0,0,0,.413-.41Z" transform="translate(-329.215 -298.484)" fill="#6a7dc4"/>
              <path id="Trazado_826954" data-name="Trazado 826954" d="M331.966,301.452l-.143,1.657a1.45,1.45,0,0,1-.975-.168,1.919,1.919,0,0,1-.628-.57l1.277-1.135a.566.566,0,0,0,.184.166.408.408,0,0,0,.284.05Z" transform="translate(-329.727 -298.422)" fill="#a9b4dd"/>
              <path id="Trazado_826955" data-name="Trazado 826955" d="M331.568,301.272l-1.277,1.135a2.416,2.416,0,0,1-.222-.379l1.435-.866a.691.691,0,0,0,.065.11Z" transform="translate(-329.799 -298.456)" fill="#c3cbe7"/>
              <path id="Trazado_826956" data-name="Trazado 826956" d="M331.59,301.36l-1.435.866a2.952,2.952,0,0,1-.26-1.488l1.618.187a.844.844,0,0,0,.077.435Z" transform="translate(-329.885 -298.656)" fill="#a9b4dd"/>
              <path id="Trazado_826957" data-name="Trazado 826957" d="M331.51,301.592l-1.618-.187a2.98,2.98,0,0,1,.131-.656,1.69,1.69,0,0,1,2.386-1.238,2.666,2.666,0,0,1,.981,3.091l-.857-.662a.777.777,0,0,0-.287-.9.493.493,0,0,0-.7.362.855.855,0,0,0-.038.191Z" transform="translate(-329.882 -299.321)" fill="#6a7dc4"/>
            </g>
          </g>
          <g id="Grupo_1077103" data-name="Grupo 1077103" transform="translate(2.639 5.838)">
            <g id="Grupo_1077102" data-name="Grupo 1077102" clip-path="url(#clip-path-9)">
              <path id="Trazado_826959" data-name="Trazado 826959" d="M333.491,301.82l.778-.013a2.639,2.639,0,0,1-2.327,2.021l-.778.013a2.639,2.639,0,0,0,2.327-2.021Z" transform="translate(-331.164 -301.807)" fill="#505e93"/>
            </g>
          </g>
          <g id="Grupo_1077105" data-name="Grupo 1077105" transform="translate(2.527 1.191)">
            <g id="Grupo_1077104" data-name="Grupo 1077104" clip-path="url(#clip-path-10)">
              <path id="Trazado_826961" data-name="Trazado 826961" d="M331.088,298.659l.778-.013a2.092,2.092,0,0,1,1.051.27,3.772,3.772,0,0,1,1.388,4.376l-.778.013a3.772,3.772,0,0,0-1.388-4.376,2.092,2.092,0,0,0-1.051-.27Z" transform="translate(-331.088 -298.646)" fill="#505e93"/>
            </g>
          </g>
          <g id="Grupo_1077106" data-name="Grupo 1077106" transform="translate(0 1.205)">
            <path id="Trazado_826963" data-name="Trazado 826963" d="M334.335,303.3c-.55,1.692-2.062,2.477-3.378,1.752a3.772,3.772,0,0,1-1.388-4.376c.55-1.692,2.063-2.477,3.378-1.752A3.772,3.772,0,0,1,334.335,303.3Zm-.7-.385a2.664,2.664,0,0,0-.981-3.092,1.69,1.69,0,0,0-2.386,1.238,2.663,2.663,0,0,0,.98,3.092,1.69,1.69,0,0,0,2.386-1.238Z" transform="translate(-329.369 -298.655)" fill="#6071b1"/>
          </g>
        </g>
      </g>
      <g id="Grupo_1077116" data-name="Grupo 1077116" transform="translate(19.219 15.205)">
        <ellipse id="Elipse_6206" data-name="Elipse 6206" cx="9.198" cy="15.932" rx="9.198" ry="15.932" transform="translate(3.004 152.463) rotate(-89.691)" fill="#c1c8e0"/>
        <g id="Grupo_1077115" data-name="Grupo 1077115">
          <path id="Trazado_826964" data-name="Trazado 826964" d="M303.547,380.554c-.122-.012-2.254,1.207-2.417,2.01a8.385,8.385,0,0,0,.231,3.386,17.367,17.367,0,0,0,4.95,1.32,10.87,10.87,0,0,0,3.853-.8,39.27,39.27,0,0,0,7.39.707c2.764-.172,6.589-1.505,7.24-3.08a5.012,5.012,0,0,0,.353-2.831s-.112-.288-.356-.313S303.547,380.554,303.547,380.554Z" transform="translate(-283.283 -234.612)" fill="#161b29"/>
          <path id="Trazado_826965" data-name="Trazado 826965" d="M291.057,375.414a4.777,4.777,0,0,1-1.238,1.375,2.255,2.255,0,0,0-.7,1.547c-.112,1.1-.287,2.43,0,2.828s3.168,1.51,4.881.781a13.2,13.2,0,0,0,3.5-2.6l.9-1.549a4.325,4.325,0,0,0,2.259-.059,22.975,22.975,0,0,0,5.157-2.348,4.01,4.01,0,0,0,1.61-2.133,3.591,3.591,0,0,0-.232-1.868s-4.9.694-5.436.761S291.057,375.414,291.057,375.414Z" transform="translate(-288.967 -238.92)" fill="#161b29"/>
          <path id="Trazado_826966" data-name="Trazado 826966" d="M327.882,294.32c-.6-.122-15.306,1.771-16.7,2.183s-7.929-1.848-7.929-1.848-7.29-.335-8.534,7.731,14.631,3.709,16.24,3.011,16.678-3.785,17.811-4.654S327.882,294.32,327.882,294.32Z" transform="translate(-286.297 -275.149)" fill="#dadaf0"/>
          <g id="Grupo_1077109" data-name="Grupo 1077109" transform="translate(31.339 30.598)">
            <path id="Trazado_826967" data-name="Trazado 826967" d="M327,339.986c-6.162,0-9.583-3.8-11.949-7.437-2.051-3.155-2.465-10.47-2.831-16.922a66.216,66.216,0,0,0-1.007-10.077,23.135,23.135,0,0,0-.932-3.075l.9-.384a23.435,23.435,0,0,1,.98,3.224,66.776,66.776,0,0,1,1.033,10.257c.359,6.332.764,13.507,2.674,16.444,3.052,4.7,7.461,9.078,17.057,5.94,3.436-1.123,6.462-4.128,8.526-8.46,3.537-7.427,3.716-17.305.469-25.779l.913-.35c3.341,8.716,3.15,18.89-.5,26.551-2.18,4.578-5.414,7.763-9.105,8.97A20.12,20.12,0,0,1,327,339.986Z" transform="translate(-310.285 -302.091)" fill="#28304a"/>
          </g>
          <g id="Grupo_1077110" data-name="Grupo 1077110" transform="translate(26.338 18.164)">
            <path id="Trazado_826968" data-name="Trazado 826968" d="M312.3,307.651l-.437-1.522a63.547,63.547,0,0,0-3.115-7.577,25.93,25.93,0,0,1-1.867-4.669l.948-.251a24.965,24.965,0,0,0,1.8,4.5,64.113,64.113,0,0,1,3.165,7.7l.444,1.542Z" transform="translate(-306.883 -293.633)" fill="#e6ebff"/>
          </g>
          <path id="Trazado_826969" data-name="Trazado 826969" d="M302.493,376.772s-.692,6.038-.6,7.563a3.391,3.391,0,0,0,1.548,2.411,24.14,24.14,0,0,0,5.177-.009c1.307-.36,7.275,1.023,10.182.662s5.014-2.155,5.128-3.272a9.908,9.908,0,0,0-.1-2.07,1.325,1.325,0,0,0-1.069-1.128c-2.653-.5-10.17-1.93-10.227-2.036C312.458,378.764,302.493,376.772,302.493,376.772Z" transform="translate(-282.895 -236.389)" fill="#404759"/>
          <path id="Trazado_826970" data-name="Trazado 826970" d="M290.058,371.393c-.012.122-.681,5.917-.719,7.1s3.224,1.761,4.82,1.389,3.228-3.137,4.57-3.441a30.833,30.833,0,0,0,4.525-.967,6.831,6.831,0,0,0,3.465-3.052c.387-.986-1.573-2.409-1.688-2.5s-6.095.814-6.095.814Z" transform="translate(-288.792 -239.613)" fill="#404759"/>
          <path id="Trazado_826971" data-name="Trazado 826971" d="M294.761,324.147a30.512,30.512,0,0,0-3.262,9.139c-1.261,9.069,1.573,14.454,1.464,27.246-.021,2.455,7,5.792,8.857,5.242s1.983-8.244,1.983-8.244,2.008-29.558,1.5-31.374S294.761,324.147,294.761,324.147Z" transform="translate(-287.929 -261.126)" fill="#295ea9"/>
          <path id="Trazado_826972" data-name="Trazado 826972" d="M297.135,346.846c-1.445.1-2.884-3.09-3.415-.684s-3.127,13.877-3.862,17.9-.413,19.881-.3,21.574,5.031,1.329,6.452,1.063a4.622,4.622,0,0,0,3.112-2.8c.131-.888,4.538-29.1,4.753-29.964S297.135,346.846,297.135,346.846Z" transform="translate(-288.768 -251.201)" fill="#295ea9"/>
          <path id="Trazado_826973" data-name="Trazado 826973" d="M296.472,325.157a27.575,27.575,0,0,0-2.717,11.952c-.044,6.924,4.323,14.764,4.323,14.764s3.727,19,4.675,20.57,12.829-.553,12.839-4.429c.024-8.229.66-26.877.36-30.8s-1.627-10.659-1.627-10.659Z" transform="translate(-286.716 -260.651)" fill="#2c6bb8"/>
          <path id="Trazado_826974" data-name="Trazado 826974" d="M300.761,351.263a42.233,42.233,0,0,0-1.008,8.087c-.147,4.956-.841,7.755.2,13.23s2.906,18.467,3.1,20.207,5.2,2.454,7.43,1.53,3.347-2.284,3.306-2.7-.794-36.5-.9-37.333S300.761,351.263,300.761,351.263Z" transform="translate(-284.067 -248.38)" fill="#2c6bb8"/>
          <g id="Grupo_1077111" data-name="Grupo 1077111" transform="translate(22.993 69.479)">
            <path id="Trazado_826975" data-name="Trazado 826975" d="M306.954,405.193c-.2-24.447-.256-31.609-.031-33.713-.009-.135-.018-.225-.025-.27l.06-.01c.01-.066.022-.125.031-.176.135-6.386.276-39.19-2.381-41.782l.684-.7c3.209,3.128,2.814,37.869,2.621,43.13.006.118.012.248.019.392l-.035,0a1.76,1.76,0,0,1-.024.272l-.071.032c-.066,4.581.032,21.288.129,32.817Z" transform="translate(-304.608 -328.54)" fill="#3279d1"/>
          </g>
          <path id="Trazado_826976" data-name="Trazado 826976" d="M292.933,326.033a24.7,24.7,0,0,0-1.205,4.038c-.1.378.532,2.018,3.959,3.578a28.236,28.236,0,0,0,13.031,2.386c5.017-.275,7.784-1.523,7.777-2.811a32.923,32.923,0,0,0-.526-4.041Z" transform="translate(-287.673 -260.239)" fill="#1d2329"/>
          <g id="Grupo_1077112" data-name="Grupo 1077112" transform="translate(26.736 69.137)">
            <rect id="Rect치ngulo_376508" data-name="Rect치ngulo 376508" width="1.469" height="6.637" transform="matrix(0.997, -0.074, 0.074, 0.997, 0, 0.108)" fill="#2c6bb8"/>
          </g>
          <g id="Grupo_1077113" data-name="Grupo 1077113" transform="translate(18.727 68.334)">
            <path id="Trazado_826977" data-name="Trazado 826977" d="M302.8,337.3l-1-1.073a.436.436,0,0,0-.093.118,19.4,19.4,0,0,0,.2-3.424c.034-2.73.09-4.438.554-5.16l1.235.8a19.307,19.307,0,0,0-.32,4.384C303.335,335.867,303.282,336.852,302.8,337.3Z" transform="translate(-301.706 -327.761)" fill="#2c6bb8"/>
          </g>
          <g id="Grupo_1077114" data-name="Grupo 1077114" transform="translate(8.19 68.706)">
            <rect id="Rect치ngulo_376509" data-name="Rect치ngulo 376509" width="7.102" height="1.467" transform="translate(0 7.076) rotate(-85.061)" fill="#2c6bb8"/>
          </g>
          <path id="Trazado_826978" data-name="Trazado 826978" d="M315.9,345.859c-5.786,3.231-14.414,1.329-18.634-.318-3.344-1.305-4.109-2.023-4.87-3.474s2.417-23.834,1.895-31.45,1.836-13.28,5.527-15.121,6.878-.779,8.592,1.363,3.663,4.994,4.964,6.11,6.383,4.4,6.376,9.8-2.9,24.3-3.012,25.392S315.9,345.859,315.9,345.859Z" transform="translate(-287.411 -275.037)" fill="#4280ff"/>
          <path id="Trazado_826979" data-name="Trazado 826979" d="M312.686,303.722c-1.394-1.229-6.167.313-7.632,4.093-2.775,7.158,2.508,9.821,3.734,11.221s13.253,12.453,15.168,12.174,1.644-9.807.81-10.7S313.8,304.7,312.686,303.722Z" transform="translate(-281.779 -270.922)" fill="#dadaf0"/>
          <path id="Trazado_826980" data-name="Trazado 826980" d="M327.589,313.828c.859-1.683,2.5-4.666,3.033-5.658a56.607,56.607,0,0,1,3.565-4.559,20.226,20.226,0,0,1,3.606-.681.726.726,0,0,1-.126,1.248,20.128,20.128,0,0,1-1.973.662,27.271,27.271,0,0,0-1.852,2.18c-.121.3,2.892-1.522,2.892-1.522l2.192.222-.007,1.6-1.173-.334-1.893,1.469a5.3,5.3,0,0,1,1.958-.816c.578.059,1.205.245,1.314.994a.692.692,0,0,1-.607.831l-1.633.942s1.245-.459,1.726-.041a1.579,1.579,0,0,1,.331,1.294l-2.617,1.549a21.826,21.826,0,0,1-2.721,2.584c-.886.556-2.781,1.655-2.781,1.655Z" transform="translate(-270.812 -271.108)" fill="#ffa399"/>
          <path id="Trazado_826981" data-name="Trazado 826981" d="M316.557,326.4c.054.682-.229,2.315,1.932,2.226s6.858-2.684,10.417-5.843c3.9-3.458,8.009-6.889,8.485-7.947s-2.39-5.836-3.84-6.105-15.206,9.283-15.974,9.574S316.557,326.4,316.557,326.4Z" transform="translate(-275.998 -268.373)" fill="#dadaf0"/>
          <path id="Trazado_826982" data-name="Trazado 826982" d="M329.323,292.991c.19-.35-.248-.579-.248-.579l-2.795.27-5.13,1.786a33.12,33.12,0,0,0-3.64,1.47c-.353.309-.325,2.771-.107,3.655s1.454.823,1.454.823a4.716,4.716,0,0,1,1.466,1.01c.465.569,5.541,1.145,5.813.9s-.326-1.632-.326-1.632l-2.9-.509,2.208-1.16s5.141-.67,5.6-1.258-.262-1.06-.262-1.06l-4.817.4s5.808-1.688,6.046-2.217-.66-.775-.66-.775l-.719.112s.567-.742.445-1.061S329.323,292.991,329.323,292.991Z" transform="translate(-275.676 -276.043)" fill="#ffa399"/>
          <path id="Trazado_826983" data-name="Trazado 826983" d="M300.634,293.795c.284.669,1.351,3.422-.642,7.94-.883,2,9.01,5.492,9.263,3.96a14.422,14.422,0,0,1,2.29-5.876c1.211-1.435-2.5-9.764-2.5-9.764S301.027,283.832,300.634,293.795Z" transform="translate(-283.811 -278.053)" fill="#ffa399"/>
          <path id="Trazado_826984" data-name="Trazado 826984" d="M305.137,287.45c-.019,1.8-.917,7.04-.961,9.5a9.116,9.116,0,0,0,1.1,5.235c.725,1.057,6.811,2.9,7.9,2.684s1.345-1.954,1.345-1.954.046-4.094.813-4.387,1.891-.861.942-1.62a6.5,6.5,0,0,1-1.463-4.582c.266-1,.485-5.2-.609-6.539s-7.693-1.763-7.693-1.763Z" transform="translate(-281.819 -279.988)" fill="#ffa399"/>
          <path id="Trazado_826985" data-name="Trazado 826985" d="M318.013,289.739a9.216,9.216,0,0,1-4,1.62s-.566,2.627-.688,2.883c-.384.807-1.866.876-1.866.876l-.734,2.357-1.476-.334s.146-3.356-1.8-3.306-1.7,2.2-2.008,3.191-.781,3.588-1.463,4.257-2.636-.954-2.636-.954a13.817,13.817,0,0,1-2.08-3.568c-1.352-5.329-1.38-7.878.082-11.2,1.132-2.57,2.718-2.815,5.17-3.14a10.314,10.314,0,0,1,11.012,1.01c3.034,2.439,2.662,3.181,2.648,4.787A6.576,6.576,0,0,1,318.013,289.739Z" transform="translate(-284.601 -281.277)" fill="#1c2134"/>
        </g>
      </g>
      <g id="Grupo_1077117" data-name="Grupo 1077117" transform="translate(41.61 31.86)">
        <path id="Trazado_826986" data-name="Trazado 826986" d="M313.515,307.224c-7.962-1.376-9.266-13.989-9.317-14.524l.973-.094c.013.124,1.285,12.406,8.51,13.654Z" transform="translate(-304.198 -292.606)" fill="#e6ebff"/>
      </g>
      <path id="Trazado_826987" data-name="Trazado 826987" d="M305.927,292.789c.113.694-.218,1.642-.8,1.736s-1.2-.7-1.311-1.392.318-1.026.9-1.12A.923.923,0,0,1,305.927,292.789Z" transform="translate(-262.777 -261.037)" fill="#28304a"/>
      <path id="Trazado_826988" data-name="Trazado 826988" d="M312.422,303.343c-3.74-.7-7.328,1.813-8.072,6.1s-.026,5.742,2.154,7.857,5.133,5.114,5.619,5.419,2.126,1.339,6.165-1.651c3.772-2.795,2.748-6.139,2.305-6.914C320.257,313.566,312.422,303.343,312.422,303.343Z" transform="translate(-262.65 -255.754)" fill="#5c92ff"/>
    </g>
    <g id="Grupo_1077250" data-name="Grupo 1077250" transform="translate(-3095.305 2812.987)">
      <path id="Trazado_827191" data-name="Trazado 827191" d="M159.886,366.845l32.078,18.521h16.813L181.612,354.3Z" transform="translate(-159.886 -312.343)" fill="#c1c8e0"/>
      <g id="Grupo_1077247" data-name="Grupo 1077247" transform="translate(16.813 21.441)">
        <g id="Grupo_1077246" data-name="Grupo 1077246">
          <path id="Trazado_827192" data-name="Trazado 827192" d="M193.144,386.005l21.726-12.544V352.942l-21.726,12.544Z" transform="translate(-161.066 -334.422)" fill="#ffba17"/>
          <path id="Trazado_827193" data-name="Trazado 827193" d="M171.323,352.887,203.4,371.408l21.726-12.544-32.078-18.52Z" transform="translate(-171.323 -340.344)" fill="#ed9507"/>
          <path id="Trazado_827194" data-name="Trazado 827194" d="M171.323,369.4,203.4,387.916V367.4l-32.078-18.521Z" transform="translate(-171.323 -336.334)" fill="#ffc626"/>
        </g>
        <path id="Trazado_827195" data-name="Trazado 827195" d="M181.707,358.883l1.548.892,21.726-12.542-1.548-.894Z" transform="translate(-166.442 -337.526)" fill="#a15902"/>
        <path id="Trazado_827196" data-name="Trazado 827196" d="M181.707,375.39l1.548.894V355.764l-1.548-.892Z" transform="translate(-166.442 -333.515)" fill="#a15902"/>
        <path id="Trazado_827197" data-name="Trazado 827197" d="M211.812,362.827l-1.547.894L178.186,345.2l1.548-.894Z" transform="translate(-168.097 -338.482)" fill="#a15902"/>
        <path id="Trazado_827198" data-name="Trazado 827198" d="M201.555,377.423l-1.546.894V357.8l1.546-.894Z" transform="translate(-157.84 -332.56)" fill="#a15902"/>
      </g>
      <g id="Grupo_1077249" data-name="Grupo 1077249" transform="translate(16.813 0)">
        <g id="Grupo_1077248" data-name="Grupo 1077248">
          <path id="Trazado_827199" data-name="Trazado 827199" d="M193.144,371.421l21.726-12.544V338.358L193.144,350.9Z" transform="translate(-161.066 -319.837)" fill="#ffba17"/>
          <path id="Trazado_827200" data-name="Trazado 827200" d="M171.323,338.3,203.4,356.824l21.726-12.544-32.078-18.521Z" transform="translate(-171.323 -325.759)" fill="#ffda38"/>
          <path id="Trazado_827201" data-name="Trazado 827201" d="M171.323,354.811,203.4,373.332V352.813l-32.078-18.521Z" transform="translate(-171.323 -321.748)" fill="#ffc626"/>
        </g>
        <path id="Trazado_827202" data-name="Trazado 827202" d="M181.707,344.3l1.548.894,21.726-12.543-1.548-.894Z" transform="translate(-166.442 -322.941)" fill="#a15902"/>
        <path id="Trazado_827203" data-name="Trazado 827203" d="M181.707,360.806l1.548.894V341.181l-1.548-.894Z" transform="translate(-166.442 -318.93)" fill="#a15902"/>
        <path id="Trazado_827204" data-name="Trazado 827204" d="M211.812,348.242l-1.547.894-32.079-18.52,1.548-.894Z" transform="translate(-168.097 -323.896)" fill="#a15902"/>
        <path id="Trazado_827205" data-name="Trazado 827205" d="M201.555,362.839l-1.546.894V343.214l1.546-.894Z" transform="translate(-157.84 -317.975)" fill="#a15902"/>
      </g>
    </g>
    <g id="Grupo_1077252" data-name="Grupo 1077252" transform="translate(-2988.521 2749.664)">
      <g id="Grupo_1077251" data-name="Grupo 1077251" transform="translate(0 0)">
        <path id="Trazado_827206" data-name="Trazado 827206" d="M375.311,361.1l39.381,22.736h20.641l-33.351-38.135Z" transform="translate(-375.311 -320.517)" fill="#c1c8e0"/>
        <path id="Trazado_827207" data-name="Trazado 827207" d="M416.141,384.625l26.671-15.4V344.037l-26.671,15.4Z" transform="translate(-356.119 -321.301)" fill="#ffba17"/>
        <path id="Trazado_827208" data-name="Trazado 827208" d="M389.352,343.97l39.381,22.736,26.671-15.4-39.381-22.736Z" transform="translate(-368.711 -328.571)" fill="#ffda38"/>
        <path id="Trazado_827209" data-name="Trazado 827209" d="M389.352,364.235l39.381,22.736V361.782l-39.381-22.736Z" transform="translate(-368.711 -323.647)" fill="#ffc626"/>
      </g>
      <path id="Trazado_827210" data-name="Trazado 827210" d="M402.1,351.33l1.9,1.1,26.671-15.4-1.9-1.1Z" transform="translate(-362.719 -325.111)" fill="#a15902"/>
      <path id="Trazado_827211" data-name="Trazado 827211" d="M402.1,371.6l1.9,1.1V347.5l-1.9-1.1Z" transform="translate(-362.719 -320.188)" fill="#a15902"/>
      <path id="Trazado_827212" data-name="Trazado 827212" d="M439.059,356.171l-1.9,1.1-39.381-22.737,1.9-1.1Z" transform="translate(-364.751 -326.285)" fill="#a15902"/>
      <path id="Trazado_827213" data-name="Trazado 827213" d="M426.467,374.09l-1.9,1.1V350l1.9-1.1Z" transform="translate(-352.159 -319.015)" fill="#a15902"/>
    </g>
  </g>
</svg>
