<svg xmlns="http://www.w3.org/2000/svg" width="146.106" height="189.643" viewBox="0 0 146.106 189.643">
  <g id="icono10" transform="translate(-686.987 -184.533)">
    <g id="Grupo_1077254" data-name="Grupo 1077254" transform="translate(803.527 228.135)">
      <path id="Trazado_827214" data-name="Trazado 827214" d="M1129.571,424.5c-2.615,0-4.883-.774-5.871-2.135l.961-.694c.907,1.254,3.923,2.162,7.632,1.361,3.816-.827,13.049-4.59,16.572-21.776,4.857-23.59,4.136-45.206-1.708-50.3-5.39-4.7-11.795,1.121-11.875,1.174l-.8-.881c.08-.053,7.258-6.591,13.449-1.2,6.245,5.417,7.1,27.059,2.082,51.423-3.683,17.853-13.45,21.829-17.506,22.683A12.253,12.253,0,0,1,1129.571,424.5Z" transform="translate(-1123.7 -347.921)" fill="#4c2011"/>
    </g>
    <path id="Trazado_827215" data-name="Trazado 827215" d="M993.063,310.59a70.282,70.282,0,0,0-6.725,4.51c-1.735,1.494-1.628,3.683-.747,6.111s3.389,2.322,5.738.08,8.913-4.243,7.312-7.339C997.013,310.83,995.091,309.976,993.063,310.59Z" transform="translate(-218.463 -92.281)" fill="#fff"/>
    <path id="Trazado_827216" data-name="Trazado 827216" d="M1095.1,284.205s12.756-2.428,15.691,5.978c2.909,8.406-7.072,17.239-7.072,17.239Z" transform="translate(-299.205 -72.835)" fill="#fdb64f"/>
    <path id="Trazado_827217" data-name="Trazado 827217" d="M866.6,424.488c-3.1-.107-4.99,1.761-2.108,5.6s8.593,4.643,10.7,4.163c2.082-.48,6.378-1.014,6.378-1.014l1.468-5.764s-7.552-.32-9.474-.854S868.944,424.568,866.6,424.488Z" transform="translate(-129.089 -175.918)" fill="#fff"/>
    <g id="Grupo_1077255" data-name="Grupo 1077255" transform="translate(738.601 222.579)">
      <path id="Trazado_827218" data-name="Trazado 827218" d="M915.705,328.861a21.209,21.209,0,0,1-1.281-1.761L880.4,357.682l1.788,2.562,33.971-30.822C916,329.235,915.865,329.048,915.705,328.861Z" transform="translate(-880.4 -327.1)" fill="#4c2011"/>
    </g>
    <path id="Trazado_827219" data-name="Trazado 827219" d="M1004.455,309.6c-1.895.347-2.4,1.6-4.67,6.164s.934,4.59,3.683,2c2.749-2.562,6.084-2.775,6.191-4.857C1009.739,310.828,1005.976,309.307,1004.455,309.6Z" transform="translate(-228.761 -91.665)" fill="#fff"/>
    <path id="Trazado_827220" data-name="Trazado 827220" d="M1017.587,294.051c-.72.32-2.375,1.388-2.295,3.042a6.247,6.247,0,0,1,4.27,2.028,4.3,4.3,0,0,1,.107,4.59c.907,1.041,12.3.4,13.876-4.51s-.507-6.938-4.4-7.205A29.048,29.048,0,0,0,1017.587,294.051Z" transform="translate(-240.692 -78.758)" fill="#fdb64f"/>
    <path id="Trazado_827221" data-name="Trazado 827221" d="M945.847,820.582a10.645,10.645,0,0,1-4.27.694c-4.723.187-5.9-.827-8.139-3.976.027.214-1.468,5.844-1.468,5.924-3.229-1.094-6.271-2.855-9.02-1.174-2.909,1.761-3.1,4.43-2.428,7.045a15.531,15.531,0,0,0,5.337,4.35,38.625,38.625,0,0,0,9.714,2.882c2.295,1.387,5.551,2.455,7.926,1.2,2.455-1.281,3.709-2.375,2.962-5.1A50.809,50.809,0,0,1,945.847,820.582Z" transform="translate(-170.98 -463.908)" fill="#4c2011"/>
    <path id="Trazado_827222" data-name="Trazado 827222" d="M1110.5,757.4c-2.082,1.281-7.285,4.937-8.94,3.176-.374.027-3.443,1.681-5.791,1.681-4.083,0-7.845.667-7.872,5.23,0,1.121,2.588,4.35,3.683,4.99,5.764,3.416,9.367,1.841,11.715,1.281,2,1.708,6.671.213,9.447-2.348.907-.854-.534-5.017-1.548-6.058C1111.384,764.5,1110.4,758.334,1110.5,757.4Z" transform="translate(-293.926 -419.993)" fill="#4c2011"/>
    <path id="Trazado_827223" data-name="Trazado 827223" d="M1078.886,507.888c1.628-6.351,1.628-14.464-2.828-19.16,7.151-7.232,1.868-20.868-4-27.86.053-.027.133-.08.187-.107,1.174-.747.08-2.589-1.094-1.841-3.6,2.322-10.568,5.044-12.863,8.78-2.215,3.6-1.495,10.007-1.761,14.09-.72,11.688-.374,25.085,8.273,33.331.4,2.455,5.124,8.086,6.538,15.745,1.174,6.351,0,9.287,2.295,13.209,2.082,3.576,11.528,6.031,14.277.08,1.521-3.256-1.2-17-1.654-19.267C1083.876,513.6,1081.875,509.889,1078.886,507.888Z" transform="translate(-270.742 -201.035)" fill="#f8a73d"/>
    <path id="Trazado_827224" data-name="Trazado 827224" d="M997.2,506.491c-.694-2.028-2.162-5.737-4.563-6.245-1.841-.4-4.243,1.468-5.657,1.975-1.815.667-13.8.854-13.743,1.041-5.017,8.326-10.221,29.354-11.075,44.058-1.307,6.218-1.254,19.8-1.708,26.125-.427,6.218-2.775,14.544.48,18.413,1.788,2.108,10.755,4.536,14.33.8,4.136-3.389,6.084-33.731,3.069-37.84,4.937-3.442,7.686-12.035,9.927-16.919a35.976,35.976,0,0,0,2.935-9.207c.214-1.228.293-2.4.4-3.5A16.384,16.384,0,0,0,997.2,506.491Z" transform="translate(-199.596 -231.422)" fill="#fdb64f"/>
    <path id="Trazado_827225" data-name="Trazado 827225" d="M1006.3,500.859s3.416,6.431,16.652,3.576c10.247-2.215,14.063-7.392,14.063-7.392l-1.068-3.843-28.394,4.323Z" transform="translate(-234.102 -226.296)" fill="#f8a73d"/>
    <path id="Trazado_827226" data-name="Trazado 827226" d="M1039.539,299.682c-7.632-10.461-20.548.374-27.78,4.937-10.274,6.485-7.632,20.2-7.819,24.738-.214,5.017-2.589,7.846-1.628,10.247,1.281,3.149,3.1,3.976.32,6.538-.427.4-1.148,1.067-.374,2.081a16.932,16.932,0,0,0,2.295,2.3c-1.414.907-1.521,2.669.107,3.95,3.2,2.482,11.1,3.309,15,1.975,6.832-2.295,13.823-5.471,16.172-10.061,1.041-2.028.347-3.1.267-6.725-.053-2.428-.107-4.75,1.147-6.912C1041.995,324.66,1046.264,308.888,1039.539,299.682Z" transform="translate(-230.888 -81.186)" fill="#fdd264"/>
    <path id="Trazado_827227" data-name="Trazado 827227" d="M960.735,350.852c-1.708-5.017-8.86-11.582-14.037-8.246-1.067.694-5.257,3.2-4.4,9.66a12.816,12.816,0,0,0-5.9,11.155c-1.708-.64-8.539-.667-9.954,1.361a4.4,4.4,0,0,0-5.23,3.2c-.587,1.921-.614,5.444.56,6.271,2.829,1.948,7.846,2.989,12.916,3.843,7.579,1.281,8.273.961,16.332-4.91C958.413,367.8,964.257,361.206,960.735,350.852Z" transform="translate(-171.431 -115.224)" fill="#fdb64f"/>
    <path id="Trazado_827228" data-name="Trazado 827228" d="M1066.072,279.258c-1.548-2.615-2.135-3.549-2.455-6.485-.053-.48-10.941,2.935-10.461,3.229-.507,3.683-2.748,7.339-4.056,10.354,2.7,0,4.457.48,7.525-.347,2.428-.64,6.324-1.681,8.3-3.416C1065.725,281.873,1066.659,280.218,1066.072,279.258Z" transform="translate(-265.48 -64.658)" fill="#ffb8a3"/>
    <path id="Trazado_827229" data-name="Trazado 827229" d="M1037.877,204.041c-6.191,2.989-7.952,12.062-5.684,18.573a8.422,8.422,0,0,0,2.722,4.67c3.256,2.829,7.632.72,10.861-1.041,3.763-2.055,7.819-5.044,8.406-9.66C1055.089,209.3,1044.842,200.678,1037.877,204.041Z" transform="translate(-252.389 -13.752)" fill="#ffc8b5"/>
    <path id="Trazado_827230" data-name="Trazado 827230" d="M1034.282,187.7c-.374-4.75-7.872-3.683-9.473.08-.934-.614-2.242-.881-2.776.374a1.79,1.79,0,0,0-.107.64c-2.962-.507-6.164,2.428-5.2,5.711,1.334,4.563,8.513,3.843,12.329,2.028a4.775,4.775,0,0,0-.267,5.23,3.918,3.918,0,0,0,4.884,1.574c.667,2.775,2.749,6.218,6.458,5.577,4.643-.827,8.966-8.513,3.362-14.891C1043.462,190.049,1038.818,185.619,1034.282,187.7Z" transform="translate(-241.615 0)" fill="#4c2011"/>
    <path id="Trazado_827231" data-name="Trazado 827231" d="M1081.3,261.494s2.855-3.042,3.6.267a3.207,3.207,0,0,1-1.708,3.416Z" transform="translate(-289.087 -55.487)" fill="#ffc8b5"/>
    <path id="Trazado_827232" data-name="Trazado 827232" d="M1016.4,502.534s2.562,1.468,7.5,1.468a16.53,16.53,0,0,0,8.139-2s-6.191.56-8.326.667C1021.55,502.774,1016.4,502.534,1016.4,502.534Z" transform="translate(-241.506 -232.748)" fill="#fdb64f"/>
    <path id="Trazado_827233" data-name="Trazado 827233" d="M1021.4,466.973a33,33,0,0,0,9.18-1.628c4.35-1.548,8.086-6.645,8.086-6.645s-5.444,4.27-8.966,5.577S1021.4,466.973,1021.4,466.973Z" transform="translate(-245.172 -201.003)" fill="#fdb64f"/>
    <path id="Trazado_827234" data-name="Trazado 827234" d="M1008.2,457.23s7.392,6.485,14.277,2.482c6.885-4.03,4.59-7.712,4.59-7.712s-3.5,5.6-8.86,5.951-7.819-2.108-7.819-2.108Z" transform="translate(-235.495 -196.091)" fill="#4c2011"/>
    <path id="Trazado_827235" data-name="Trazado 827235" d="M1038.8,326.486s4.91.427,8.086,3.016a20.919,20.919,0,0,1,4.537,4.883l1.788-1.147a27.078,27.078,0,0,0-5.844-6.485,8.324,8.324,0,0,0-6.725-1.468Z" transform="translate(-257.929 -103.053)" fill="#4c2011"/>
    <path id="Trazado_827236" data-name="Trazado 827236" d="M1103.8,290.686s4.91.427,8.086,3.016a20.912,20.912,0,0,1,4.537,4.884l1.788-1.148a27.075,27.075,0,0,0-5.844-6.485,8.324,8.324,0,0,0-6.725-1.468Z" transform="translate(-305.583 -76.807)" fill="#4c2011"/>
    <path id="Trazado_827237" data-name="Trazado 827237" d="M1045.684,295.9s-.374-3.869,4.857-5.337c5.23-1.494,8.513-1.948,11.448-5.2.854-.961,1.014.267,1.761,1.6.774,1.334,1.868,2.562-1.494,5.631s-8.166,3.683-10.834,3.9A19.3,19.3,0,0,1,1045.684,295.9Z" transform="translate(-262.971 -73.668)" fill="#fdb64f"/>
    <path id="Trazado_827238" data-name="Trazado 827238" d="M997.2,696.17a7.135,7.135,0,0,0,4.029,2.508,6.79,6.79,0,0,0,4.03,0S1000.536,695.716,997.2,696.17Z" transform="translate(-227.43 -375.068)" fill="#f8a73d"/>
    <path id="Trazado_827239" data-name="Trazado 827239" d="M1006.6,676.8a10.372,10.372,0,0,0,2.615,3.469,36.516,36.516,0,0,0,3.843,2.108,10.384,10.384,0,0,0-1.921-3.042C1009.7,677.654,1006.6,676.8,1006.6,676.8Z" transform="translate(-234.321 -360.901)" fill="#f8a73d"/>
    <path id="Trazado_827240" data-name="Trazado 827240" d="M881.121,441.851a1.39,1.39,0,0,1-.053,1.948,1.414,1.414,0,0,1-1.868-.614,1.39,1.39,0,0,1,.053-1.948A1.414,1.414,0,0,1,881.121,441.851Z" transform="translate(-140.652 -188.077)" fill="#682e23"/>
    <path id="Trazado_827241" data-name="Trazado 827241" d="M797.11,445.311A.786.786,0,0,0,797,444.4c-.267-.374-.667-.534-.907-.374-.027.027-31.2,27.006-31.2,27.006l.987,1.281s31.222-26.979,31.222-27.006Z" transform="translate(-57.121 -190.203)" fill="#fff"/>
    <path id="Trazado_827242" data-name="Trazado 827242" d="M763.6,537s2.428-1.414,3.282-1.174a1.735,1.735,0,0,1,.934,1.254c0,1.495-1.761,2.829-1.761,2.829Z" transform="translate(-56.168 -257.526)" fill="#4c2011"/>
    <path id="Trazado_827243" data-name="Trazado 827243" d="M764.436,540.5a1.5,1.5,0,1,1-2.268-.747A1.739,1.739,0,0,1,764.436,540.5Z" transform="translate(-54.736 -260.278)" fill="#682e23"/>
    <path id="Trazado_827244" data-name="Trazado 827244" d="M765.865,543.065a.833.833,0,1,1-1.307.934.972.972,0,0,1,.053-1.334A.924.924,0,0,1,765.865,543.065Z" transform="translate(-56.698 -262.471)" fill="#4c2011"/>
    <path id="Trazado_827245" data-name="Trazado 827245" d="M1096.069,349.9s-2.162,4.083-10.194,7.018a80.977,80.977,0,0,1-11.315,2.989l-.16,6.351a66.312,66.312,0,0,0,12.542-3.362c3.629-1.414,6.991-3.362,8.993-7.018C1096.709,354.41,1096.069,349.9,1096.069,349.9Z" transform="translate(-284.029 -121.237)" fill="#fff"/>
    <g id="Grupo_1077260" data-name="Grupo 1077260" transform="translate(773.897 194.854)">
      <g id="Grupo_1077256" data-name="Grupo 1077256" transform="translate(10.695 0)">
        <path id="Trazado_827246" data-name="Trazado 827246" d="M1053.345,238.656a.59.59,0,0,1-.267-1.121c.08-.027,7.1-3.656,10.941-7.125a58.883,58.883,0,0,0,6.565-6.965.59.59,0,1,1,.934.721,56.852,56.852,0,0,1-6.725,7.125c-3.976,3.549-10.915,7.125-11.208,7.285A.373.373,0,0,1,1053.345,238.656Z" transform="translate(-1052.743 -223.206)" fill="#fff"/>
      </g>
      <g id="Grupo_1077257" data-name="Grupo 1077257" transform="translate(16.767 5.519)">
        <path id="Trazado_827247" data-name="Trazado 827247" d="M1076.059,256.753a.561.561,0,0,1-.347-.133.592.592,0,0,1-.08-.827c.053-.053,5.311-6.351,6.778-11.475a.6.6,0,1,1,1.147.347c-1.521,5.391-6.778,11.662-6.992,11.929A.684.684,0,0,1,1076.059,256.753Z" transform="translate(-1075.499 -243.887)" fill="#fff"/>
      </g>
      <g id="Grupo_1077259" data-name="Grupo 1077259" transform="translate(0 8.886)">
        <path id="Trazado_827248" data-name="Trazado 827248" d="M1019.6,263.4l-5.2,1.361,1.761,6.938,4.884-.907Z" transform="translate(-1013.937 -261.56)" fill="#4c2011"/>
        <path id="Trazado_827249" data-name="Trazado 827249" d="M1030.423,256.531s3.443-.507,8.086,3.042c5.2,3.976,6.592,5.711,6.592,5.711s-5.364,6.7-11.288,2.455C1029.409,264.564,1030.423,256.531,1030.423,256.531Z" transform="translate(-1025.611 -256.506)" fill="#602a1c"/>
        <g id="Grupo_1077258" data-name="Grupo 1077258" transform="translate(10.094 6.29)">
          <path id="Trazado_827250" data-name="Trazado 827250" d="M1056.365,285.1l2.508-2.4-1.975-2.081c-1.094-1.041-3.282-.534-4.883,1.147s-2,3.9-.907,4.937l1.735,1.788,2.268-2.162a6.079,6.079,0,0,0,.907-.774A4.085,4.085,0,0,1,1056.365,285.1Z" transform="translate(-1050.492 -280.076)" fill="#4c2011"/>
          <path id="Trazado_827251" data-name="Trazado 827251" d="M1063.291,293.453c-1.6,1.681-3.789,2.188-4.883,1.147s-.694-3.256.907-4.937,3.789-2.188,4.884-1.148S1064.892,291.772,1063.291,293.453Z" transform="translate(-1055.844 -285.868)" fill="#682e23"/>
          <path id="Trazado_827252" data-name="Trazado 827252" d="M1065.519,295.355c-1.228,1.281-2.909,1.681-3.736.881-.854-.8-.533-2.508.694-3.789s2.909-1.681,3.736-.881C1067.04,292.393,1066.746,294.074,1065.519,295.355Z" transform="translate(-1058.418 -288.197)" fill="#602a1c"/>
        </g>
        <path id="Trazado_827253" data-name="Trazado 827253" d="M1015.1,271.605c.48,1.921.374,3.6-.214,3.736s-1.441-1.308-1.921-3.229-.374-3.6.214-3.736S1014.623,269.684,1015.1,271.605Z" transform="translate(-1012.666 -265.202)" fill="#682e23"/>
        <path id="Trazado_827254" data-name="Trazado 827254" d="M1015.705,273.238c.4,1.628.374,3.015-.027,3.122s-1.068-1.121-1.468-2.749-.373-3.016.027-3.122C1014.665,270.41,1015.305,271.61,1015.705,273.238Z" transform="translate(-1013.588 -266.755)" fill="#602a1c"/>
      </g>
    </g>
    <path id="Trazado_827255" data-name="Trazado 827255" d="M894.607,429.219a36.988,36.988,0,0,0-6.885-.854c-2.242.133-4.163-.16-4.857.747-.694.881-.107,1.521.827,1.735s2.428,1.574,4.323,2.749a19.882,19.882,0,0,0,4.75,1.654C892.659,432.955,892.846,430.58,894.607,429.219Z" transform="translate(-143.384 -178.754)" fill="#fff"/>
    <g id="Grupo_1077261" data-name="Grupo 1077261" transform="translate(686.987 282.888)">
      <path id="Trazado_827256" data-name="Trazado 827256" d="M706.982,553.1c-4.27,3.389-9.473,4.937-14.624,6.538-1.094.347-4.51.507-4.136,2.241C689.183,566.39,702.446,557.9,706.982,553.1Z" transform="translate(-687.872 -553.1)" fill="#3e72db"/>
      <path id="Trazado_827257" data-name="Trazado 827257" d="M701.481,577.4c-1.548,1.174-19.8,18.066-12.969,20.174,1.468.454,2.935-3.122,5.15-7.685C695.69,585.726,698.359,582.817,701.481,577.4Z" transform="translate(-686.987 -570.915)" fill="#3e72db"/>
      <path id="Trazado_827258" data-name="Trazado 827258" d="M698.285,626.8c-1.2,1.521-14.891,22.309-7.739,22.683,1.548.08,2.082-3.736,3.149-8.7C694.682,636.273,696.551,632.778,698.285,626.8Z" transform="translate(-688.088 -607.133)" fill="#3e72db"/>
    </g>
    <g id="Grupo_1077269" data-name="Grupo 1077269" transform="translate(785.381 209.769)">
      <g id="Grupo_1077264" data-name="Grupo 1077264" transform="translate(0 11.848)">
        <path id="Trazado_827259" data-name="Trazado 827259" d="M1055.833,361.727l-.134,34.184h.027a3.813,3.813,0,0,0,1.6,2.589V361.3Z" transform="translate(-1055.7 -351.213)" fill="#2f6bcc"/>
        <path id="Trazado_827260" data-name="Trazado 827260" d="M1082.5,332.066v41.6c2.775.774,5.977.64,8.006-.534l21.3-12.3a2.974,2.974,0,0,0,1.761-2.775h0V323.5Z" transform="translate(-1075.348 -323.5)" fill="#2f6bcc"/>
        <path id="Trazado_827261" data-name="Trazado 827261" d="M1061.7,357.121v37.173a5.956,5.956,0,0,0,.907.614l2.268,1.308a11.406,11.406,0,0,0,2.348.961V355.6Z" transform="translate(-1060.099 -347.034)" fill="#2f6bcc"/>
        <path id="Trazado_827262" data-name="Trazado 827262" d="M1061.7,357.121v37.173a5.956,5.956,0,0,0,.907.614l2.268,1.308a11.406,11.406,0,0,0,2.348.961V355.6Z" transform="translate(-1060.099 -347.034)" fill="#4688e8"/>
        <g id="Grupo_1077262" data-name="Grupo 1077262" transform="translate(0.027 31.703)">
          <path id="Trazado_827263" data-name="Trazado 827263" d="M1092.226,445.075l-21.3,12.3c-2.028,1.174-5.231,1.334-8.006.534a10.3,10.3,0,0,1-2.348-.961l-2.268-1.308a5.974,5.974,0,0,1-.908-.614,3.812,3.812,0,0,1-1.6-2.589h0v1.174h.026a3.813,3.813,0,0,0,1.6,2.589,5.99,5.99,0,0,0,.907.614l2.268,1.308a11.414,11.414,0,0,0,2.348.961c2.775.774,5.978.64,8.006-.534l21.3-12.3a2.975,2.975,0,0,0,1.761-2.775h0V442.3h0A3.024,3.024,0,0,1,1092.226,445.075Z" transform="translate(-1055.8 -442.3)" fill="#602a1c"/>
        </g>
        <g id="Grupo_1077263" data-name="Grupo 1077263" transform="translate(0.027 1.468)">
          <path id="Trazado_827264" data-name="Trazado 827264" d="M1092.226,331.775l-21.3,12.3c-2.028,1.174-5.231,1.334-8.006.534a10.308,10.308,0,0,1-2.348-.961l-2.268-1.308a5.987,5.987,0,0,1-.908-.614,3.812,3.812,0,0,1-1.6-2.589h0v1.174h.026a3.813,3.813,0,0,0,1.6,2.589,5.985,5.985,0,0,0,.907.614l2.268,1.308a11.414,11.414,0,0,0,2.348.961c2.775.774,5.978.64,8.006-.534l21.3-12.3a2.974,2.974,0,0,0,1.761-2.775h0V329h0A3.05,3.05,0,0,1,1092.226,331.775Z" transform="translate(-1055.8 -329)" fill="#602a1c"/>
        </g>
      </g>
      <path id="Trazado_827265" data-name="Trazado 827265" d="M1092.181,308.888l-21.3,12.3c-2.642,1.521-7.312,1.334-10.354-.427l-2.268-1.308c-3.042-1.761-3.389-4.457-.747-5.978l21.3-12.3c2.642-1.521,7.312-1.334,10.354.427l2.268,1.308C1094.476,304.671,1094.823,307.366,1092.181,308.888Z" transform="translate(-1055.728 -294.531)" fill="#4688e8"/>
      <path id="Trazado_827266" data-name="Trazado 827266" d="M1082.778,344.249c0,2.4-3.469,4.35-7.739,4.35s-7.739-1.948-7.739-4.35,3.469-4.35,7.739-4.35C1079.308,339.873,1082.778,341.821,1082.778,344.249Z" transform="translate(-1064.204 -323.674)" fill="#97ceff"/>
      <ellipse id="Elipse_6207" data-name="Elipse 6207" cx="7.739" cy="4.35" rx="7.739" ry="4.35" transform="translate(20.041 6.778)" fill="#97ceff"/>
      <g id="Grupo_1077265" data-name="Grupo 1077265" transform="translate(5.551 9.313)">
        <path id="Trazado_827267" data-name="Trazado 827267" d="M1076.6,326v4.8c0,1.761,2.562,3.2,5.711,3.2s5.711-1.441,5.711-3.2V326Z" transform="translate(-1076.573 -322.798)" fill="#602a1c"/>
        <path id="Trazado_827268" data-name="Trazado 827268" d="M1087.922,317.2c0,1.761-2.562,3.2-5.711,3.2s-5.711-1.441-5.711-3.2,2.562-3.2,5.711-3.2S1087.922,315.441,1087.922,317.2Z" transform="translate(-1076.5 -314)" fill="#77362d"/>
        <path id="Trazado_827269" data-name="Trazado 827269" d="M1091.752,317.928c0,1.121-1.6,2.028-3.576,2.028s-3.576-.907-3.576-2.028,1.6-2.028,3.576-2.028C1090.124,315.927,1091.752,316.807,1091.752,317.928Z" transform="translate(-1082.439 -315.393)" fill="#843e36"/>
      </g>
      <g id="Grupo_1077266" data-name="Grupo 1077266" transform="translate(22.069)">
        <path id="Trazado_827270" data-name="Trazado 827270" d="M1138.5,291.1v4.8c0,1.761,2.562,3.2,5.711,3.2s5.711-1.441,5.711-3.2v-4.8Z" transform="translate(-1138.473 -287.898)" fill="#602a1c"/>
        <ellipse id="Elipse_6208" data-name="Elipse 6208" cx="5.711" cy="3.202" rx="5.711" ry="3.202" fill="#77362d"/>
      </g>
      <g id="Grupo_1077267" data-name="Grupo 1077267" transform="translate(15.531 31.463)">
        <path id="Trazado_827271" data-name="Trazado 827271" d="M1118.116,426.806l-4.216-2.428V399.4l4.216,2.455Z" transform="translate(-1113.9 -398.759)" fill="#602a1c"/>
        <path id="Trazado_827272" data-name="Trazado 827272" d="M1115.181,397l-1.281.64,4.216,2.455,1.281-.64Z" transform="translate(-1113.9 -397)" fill="#843e36"/>
      </g>
      <g id="Grupo_1077268" data-name="Grupo 1077268" transform="translate(16.759 26.899)">
        <path id="Trazado_827273" data-name="Trazado 827273" d="M1118.5,388.9v30.849c0,1.334,1.921,2.4,4.27,2.4s4.27-1.067,4.27-2.4V388.9Z" transform="translate(-1118.5 -386.498)" fill="#ccbcbc"/>
        <path id="Trazado_827274" data-name="Trazado 827274" d="M1127.139,382.3c0,1.334-1.921,2.4-4.27,2.4s-4.27-1.067-4.27-2.4,1.921-2.4,4.27-2.4S1127.139,380.967,1127.139,382.3Z" transform="translate(-1118.573 -379.9)" fill="#f4ebea"/>
        <path id="Trazado_827275" data-name="Trazado 827275" d="M1129.764,381.828c0,.881-1.281,1.628-2.882,1.628-1.574,0-2.882-.72-2.882-1.628s1.281-1.628,2.882-1.628C1128.483,380.227,1129.764,380.947,1129.764,381.828Z" transform="translate(-1122.532 -380.12)" fill="#fff"/>
      </g>
      <path id="Trazado_827276" data-name="Trazado 827276" d="M1153.652,283.528c0,1.121-1.6,2.028-3.576,2.028s-3.576-.907-3.576-2.028,1.6-2.028,3.576-2.028S1153.652,282.407,1153.652,283.528Z" transform="translate(-1122.269 -280.86)" fill="#843e36"/>
      <path id="Trazado_827277" data-name="Trazado 827277" d="M1162.354,363.965l4.617-2.669a2.061,2.061,0,0,0,.854-1.628h0c0-.614-.373-.907-.854-.641l-4.617,2.669a2.061,2.061,0,0,0-.854,1.628h0C1161.5,363.965,1161.874,364.232,1162.354,363.965Z" transform="translate(-1133.266 -337.626)" fill="#fff"/>
      <path id="Trazado_827278" data-name="Trazado 827278" d="M1162.354,447.265l4.617-2.669a2.061,2.061,0,0,0,.854-1.628h0c0-.614-.373-.907-.854-.641L1162.354,445a2.061,2.061,0,0,0-.854,1.628h0C1161.5,447.265,1161.874,447.532,1162.354,447.265Z" transform="translate(-1133.266 -398.697)" fill="#fff"/>
    </g>
  </g>
</svg>
