<svg xmlns="http://www.w3.org/2000/svg" xmlns:xlink="http://www.w3.org/1999/xlink" width="295" height="224.24" viewBox="0 0 295 224.24">
  <defs>
    <linearGradient id="linear-gradient" y1="0.5" x2="1" y2="0.5" gradientUnits="objectBoundingBox">
      <stop offset="0.425" stop-color="#789401"/>
      <stop offset="0.442" stop-color="#7e9b01"/>
      <stop offset="0.506" stop-color="#8dae01"/>
      <stop offset="0.549" stop-color="#93b501"/>
    </linearGradient>
  </defs>
  <g id="Grupo_1082383" data-name="Grupo 1082383" transform="translate(3537.329 1930.77)">
    <g id="Grupo_1076311" data-name="Grupo 1076311" transform="translate(-3537.329 -1889.831)">
      <path id="Trazado_826089" data-name="Trazado 826089" d="M306.671,381.685l-5.311.2a40.467,40.467,0,0,0-10.556-8.451l-85.489-49.358c-19.181-11.074-48.2-12.278-64.811-2.689L22.886,389.292a30.269,30.269,0,0,0-4.445,3.1l-6.77.251V405.5c-.022,7.366,5.354,15.142,15.866,21.21l85.491,49.358c19.181,11.074,48.2,12.278,64.811,2.684l117.615-67.9c7.446-4.3,11.133-10.036,11.211-16.056h0V381.685Z" transform="translate(-11.671 -301.927)" fill="url(#linear-gradient)"/>
      <path id="Trazado_826090" data-name="Trazado 826090" d="M295.454,380.84l-117.615,67.9c-16.612,9.594-45.63,8.39-64.811-2.684L27.537,396.7c-10.512-6.068-15.887-13.843-15.865-21.21v6.565c-.022,7.366,5.354,15.141,15.865,21.21l85.49,49.358c19.181,11.074,48.2,12.278,64.811,2.686l117.615-67.9c7.446-4.3,11.133-10.036,11.211-16.057h0v-6.565h0C306.588,370.8,302.9,376.541,295.454,380.84Z" transform="translate(-11.67 -278.485)" fill="#7a3d23"/>
      <path id="Trazado_826091" data-name="Trazado 826091" d="M249.609,369.3,164.12,319.937c-19.181-11.074-48.2-12.278-64.811-2.689l73.054,129.843V454l81.9-47.284c7.5-4.328,11.186-10.114,11.215-16.179v-6.9A50.718,50.718,0,0,0,249.609,369.3Z" transform="translate(29.523 -303.871)" fill="#875937"/>
      <path id="Trazado_826092" data-name="Trazado 826092" d="M295.454,402.016l-117.615,67.9c-16.612,9.594-45.63,8.39-64.811-2.684L27.539,417.878C8.356,406.8,6.276,390.05,22.886,380.46L140.5,312.552c16.614-9.589,45.63-8.385,64.811,2.689L290.8,364.6C309.986,375.673,312.066,392.427,295.454,402.016Z" transform="translate(-11.671 -306.079)" fill="#a6cc02"/>
      <path id="Trazado_826093" data-name="Trazado 826093" d="M275.8,364.6,190.307,315.24c-19.181-11.074-48.2-12.278-64.811-2.689L43.6,359.839,198.55,449.3l81.9-47.284C297.059,392.427,294.979,375.673,275.8,364.6Z" transform="translate(3.336 -306.079)" fill="#a26b42"/>
    </g>
    <g id="Grupo_1076312" data-name="Grupo 1076312" transform="translate(-3487.722 -1839.611)">
      <path id="Trazado_826094" data-name="Trazado 826094" d="M45.416,343.16,199.2,431.953l5.057-2.921L50.473,340.241Z" transform="translate(-45.416 -340.241)" fill="#c1c8e0"/>
    </g>
    <g id="Grupo_1076443" data-name="Grupo 1076443" transform="translate(-3445.121 -1930.77)">
      <path id="Trazado_826303" data-name="Trazado 826303" d="M109.733,393.043,99.8,387.307c-7.938-4.584-6.933-12.663,2.233-17.955l68.235-39.4c9.166-5.292,23.161-5.873,31.1-1.289L211.3,334.4c7.938,4.584,6.933,12.663-2.233,17.955l-68.235,39.4C131.665,397.046,117.672,397.626,109.733,393.043Z" transform="translate(-64.973 -255.976)" fill="#c1c8e0"/>
      <g id="Grupo_1076442" data-name="Grupo 1076442" transform="translate(0 0)">
        <path id="Trazado_826304" data-name="Trazado 826304" d="M104.449,343.233c-1.439-8.831-4.153-8.65-4.565-14.686s5.564-15.352,5.139-21.827,12.2-13.827,14.534-13.191,8.2,3.175,7.5,15.281,3.572,12.35-2.543,29.786c-1.441,4.107-5.2,14.093-5.1,18.977s-2.149,5.476-2.193,8.129-.859,8.44,0,12.951.714,5.361.52,6.953-3.954,2.911-6.608,2.433-4.09-1.964-3.609-3.371.9-5.652,1.751-7.35,1.539-13.322.478-15.391-.781-3.89-.084-7.255S104.449,343.233,104.449,343.233Z" transform="translate(-62.424 -271.057)" fill="#942f11"/>
        <path id="Trazado_826305" data-name="Trazado 826305" d="M83.462,296.672c1.486.071,7.253,2.254,8.035,3.74s.356,2.9,1.842,4.813-2.871,2.983-5.207,2.487-2.264-2.477-2.9-4.6a10.964,10.964,0,0,0-3.693-5.238C80.194,296.954,83.462,296.672,83.462,296.672Z" transform="translate(-71.191 -269.562)" fill="#ba4f2c"/>
        <path id="Trazado_826306" data-name="Trazado 826306" d="M81.591,297.419c2.724-.106,5.025,2.387,4.529,4.485s1.557,4.256,1.557,4.432-.484.766-1.167,0S84.918,300.143,81.591,297.419Z" transform="translate(-71.013 -269.212)" fill="#eb874b"/>
        <path id="Trazado_826307" data-name="Trazado 826307" d="M103.69,308.734c6.162.293,15.756,1.151,23.725,1.927.614,5.051,1.23,8.982-2.9,20.77-1.441,4.107-5.2,14.095-5.1,18.977s-2.149,5.474-2.193,8.129-.859,8.44,0,12.951.714,5.361.52,6.953c-.122,1-1.664,1.9-3.45,2.3.091-10.139-.382-9.648.534-10.358.961-.745-.245-8.545,0-10.615s-.168-7.909-2.164-9.766c-.845-.786-1.936-1.9-2.95-2.99.123-3.594-5.266-10.947-5.266-10.947a26.161,26.161,0,0,0-2.928-8.91c-.559-1.858-1.108-3.728-1.616-5.53-.007-.082-.015-.162-.021-.247C99.684,318.451,101.657,313.644,103.69,308.734Z" transform="translate(-62.422 -263.892)" fill="#82260a"/>
        <path id="Trazado_826308" data-name="Trazado 826308" d="M111.512,354.615c2.9-1.107,2.487-1.229,3.727-1.37a13.138,13.138,0,0,1,.085,4.422c-.194,1.592-3.954,2.911-6.608,2.433s-4.09-1.964-3.609-3.371a31.6,31.6,0,0,0,.789-3.8C105.663,354.253,107.9,356,111.512,354.615Z" transform="translate(-60.003 -243.116)" fill="#33373b"/>
        <path id="Trazado_826309" data-name="Trazado 826309" d="M141.162,313.013c.476,3.874,4.025,6.956,6.071,9.7a53.7,53.7,0,0,1,4.713,13.4c.425,1.239-.11,3.447,0,5.749s.951,8.263,1.053,8.738a7.9,7.9,0,0,1-.246,2.761,23.948,23.948,0,0,0-.382,2.37,10.226,10.226,0,0,0,.051,3.422c.434,1.376,1.7,1.436,3.252,1.571s4.764-1.732,4.67-2.581a25.429,25.429,0,0,1,0-2.923c.016-.636-.706-3.712-.756-6.692s-1.5-5.036-1.444-7.049,1.8-7.384,2.2-13.964c.4-6.561-.672-4.579-1.608-6.687s-1.27-2.864-.445-5.674,1.3-8.917,1.189-14.174,1.486-8.917,1.749-14.386,6.348-1.444-.226-7.8c-2.093-1.818-12.342,1.172-15.143,2.848s-3.882,2.871-4.584,5.855C138.14,300.822,140.686,309.141,141.162,313.013Z" transform="translate(-43.683 -278.23)" fill="#82260a"/>
        <path id="Trazado_826310" data-name="Trazado 826310" d="M147.951,333.99c-.144,1.435,1.979,2.239,3.534,2.376s5.1-1.924,5-2.772a25.432,25.432,0,0,1,0-2.923,3.119,3.119,0,0,0-2.458.975c-1.7,1.37-5.6-.078-5.423-1.189a4.31,4.31,0,0,1-.093.723C148.378,332.436,148.041,333.177,147.951,333.99Z" transform="translate(-39.824 -253.681)" fill="#33373b"/>
        <path id="Trazado_826311" data-name="Trazado 826311" d="M148.5,334.359a3.4,3.4,0,0,1,1.377-.983s.232,1.585.2,1.779S148.5,334.359,148.5,334.359Z" transform="translate(-39.564 -252.309)" fill="#fff"/>
        <path id="Trazado_826312" data-name="Trazado 826312" d="M89.14,337.546a76.633,76.633,0,0,0,6.955,7.507c4.459-.637,10.3.381,12.312,4.95s12.77,9.51,16.914,11.208,14.3-2.042,18.969-4.8,15.388-2.761,26.853-6.793,15.3-12.365,18.595-13.689,4.245-.8,8.594-6.107a9.55,9.55,0,0,0,1.07-1.749c4.178-8.425,9.053-35.4,8.272-37.741-.85-2.548-6.421-6.192-9.07-6.3s-10.232-6.089-14.8-5.554a30.224,30.224,0,0,0-14.384,4.831c-6.046,3.719-14.939,11.009-23.328,14.295s-15.237,1.224-20.335,3.75c-14.295,7.083-11,9.411-15.888,10.756-6.927,1.907-8.886,1.951-12.607,1.738S86.544,326.9,85.906,330.929C85.649,332.519,87.186,335.057,89.14,337.546Z" transform="translate(-68.998 -278.131)" fill="#ad4929"/>
        <path id="Trazado_826313" data-name="Trazado 826313" d="M107.263,317.013c2.9,1.275,3.893,7.926,3.893,11.334s3.377,2.43,6.49,6.039,2.073,6.687,6.165,9.06,5.745,1.273,6.523,0,2.9-5.486,3.114-7.555.991-3.309,1.666-5.883,19.159-11.544,20.932-17.677c1.72,2.254,2.473,4.911,3.322,6.875a19.055,19.055,0,0,1,1.061,7.8c-.212,2.283,1.38,7.006,3.45,7.59s6.915-2.052,12.49-5.344,6.476-6.527,7.59-8.632,3.184-4.051,3.715-5.8a21.521,21.521,0,0,0,.673-7.077s7.856-6.459,15.244-6.318c-1.469,6.4-3.211,12.542-4.847,15.841a9.6,9.6,0,0,1-1.07,1.749c-4.348,5.308-5.308,4.781-8.594,6.107s-7.131,9.655-18.595,13.689-22.182,4.034-26.852,6.793-14.833,6.5-18.969,4.8-14.893-6.648-16.914-11.208-7.853-5.586-12.312-4.95a76.628,76.628,0,0,1-6.955-7.508c-.431-.548-.835-1.1-1.21-1.641C92.009,320.078,104.9,315.977,107.263,317.013Z" transform="translate(-68.343 -267.329)" fill="#942f11"/>
        <path id="Trazado_826314" data-name="Trazado 826314" d="M149.118,330.192c-.2-1.57,2.577-4.741,6.373-7.019s2.539-4.869,5.723-8.168a13.976,13.976,0,0,1,6.44-3.985s-.319,9.46-5.132,15.76S150.211,331.92,149.118,330.192Z" transform="translate(-39.277 -262.817)" fill="#ffa399"/>
        <path id="Trazado_826315" data-name="Trazado 826315" d="M149.629,323.38v5.039a1.105,1.105,0,1,0,2.18,0V323.38Z" transform="translate(-39.032 -257.008)" fill="#ffa399"/>
        <path id="Trazado_826316" data-name="Trazado 826316" d="M156.963,326.357a1.126,1.126,0,1,0,2.229,0v-5.039h-2.23v5.039Z" transform="translate(-35.586 -257.977)" fill="#ffa399"/>
        <path id="Trazado_826317" data-name="Trazado 826317" d="M152.13,328.343a1.127,1.127,0,1,0,2.23,0V323.3h-2.23Z" transform="translate(-37.857 -257.043)" fill="#ffa399"/>
        <path id="Trazado_826318" data-name="Trazado 826318" d="M158.855,318.079v5.039c0,.712.434,1.288.969,1.288h0c.535,0,.969-.576.969-1.288v-5.039Z" transform="translate(-34.696 -259.499)" fill="#ffa399"/>
        <path id="Trazado_826319" data-name="Trazado 826319" d="M154.911,322.719v5.039c0,.712.434,1.288.969,1.288h0c.535,0,.969-.576.969-1.288v-5.039Z" transform="translate(-36.55 -257.318)" fill="#ffa399"/>
        <path id="Trazado_826320" data-name="Trazado 826320" d="M75.213,342.267a10.964,10.964,0,0,0,3.831,3.456,9.253,9.253,0,0,0,2.065.7,4.626,4.626,0,0,1,2.918,1.718s.886.672,3.362-.659a42.527,42.527,0,0,0,5.479-3.782c3.924-.535,8.478-4.769,11.363-6.717s5.935-2.523,8.168-6.558a25.016,25.016,0,0,0,2.14-4.857,14.434,14.434,0,0,0,.2-7.456c-1.061-4.773-2.761-9.341-6.267-11.778s-5.705-3.9-8.016-4.262c-6.086-.942-8.572-.3-10.724,1.835-4.669,4.641-5.039,11.871-6.2,15.378s-3.555,13.13-5.671,14.925C74.411,337.13,74.186,340.647,75.213,342.267Z" transform="translate(-74.264 -267.223)" fill="#ad4929"/>
        <path id="Trazado_826321" data-name="Trazado 826321" d="M111.873,311.126c.54-2.1-2.862-5.989-6.456-5.8s-6.274,1.758-10.245,0a3.522,3.522,0,0,0-.528,4.464c.713.973,2.093,5.254,3.9,4.759s1.645-2.877,2.123-3.047C102.434,310.867,107.973,312.73,111.873,311.126Z" transform="translate(-65.141 -265.499)" fill="#ba4f2c"/>
        <path id="Trazado_826322" data-name="Trazado 826322" d="M93.323,304.68c.265,1.355,1.539,2.1.982,2.842s-2.761.823-2.627,0S92.076,304.97,93.323,304.68Z" transform="translate(-66.275 -265.797)" fill="#f7f7ff"/>
        <path id="Trazado_826323" data-name="Trazado 826323" d="M88.6,302.49c.266,1.355,1.539,2.1.982,2.842s-2.759.823-2.627,0S87.353,302.781,88.6,302.49Z" transform="translate(-68.494 -266.827)" fill="#f7f7ff"/>
        <path id="Trazado_826324" data-name="Trazado 826324" d="M109.15,310.428c-.39-1.663-1.982-4.517-5.1-3.638s-4.423,1.852-6.44,1.738c-.247,1.017-.5,3.35.707,2.095S104.444,311.667,109.15,310.428Z" transform="translate(-63.578 -264.883)" fill="#eb874b"/>
        <path id="Trazado_826325" data-name="Trazado 826325" d="M77.647,338.074a12.065,12.065,0,0,0,2.165,1.044,4.781,4.781,0,0,1,2.818,1.372s.648,1.932,3.124.6a12.861,12.861,0,0,0,3.777-2.993c2.359-.356,9.771-5.518,12.657-7.466s6.581-3.822,8.814-7.856a25.016,25.016,0,0,0,2.14-4.857c-1.053,1.248-1.9,1.567-2.828,2.947-.788,1.182-2.271,3.219-3.681,3.04-1.538-.2-3.175-1.333-4.475-.492-.67.432-.334,1.951-.631,2.689-1.808,4.553-5.352,5.1-9.527,7.643a8.277,8.277,0,0,1-3.318,1.114,27.488,27.488,0,0,1-3.635-.293c-1.113-.11-.587,1.233-1.505.551-1.053-.779-.469-2.5-1.895-1.771-.961.488-.834-.187-1.448.7l-.628-.366C79.332,335.266,78.309,336.6,77.647,338.074Z" transform="translate(-72.867 -259.575)" fill="#942f11"/>
        <path id="Trazado_826326" data-name="Trazado 826326" d="M88.21,320.321a9.539,9.539,0,0,1,.7-1.83c1.113-2.092,3.455-1.022,4.978-2.168,1.654-1.247,2.9-3.528,3.825-5.327-.044.085.713,2.456.778,2.792a4.111,4.111,0,0,0,1.405,2.737,3.758,3.758,0,0,1,.634.442,1.452,1.452,0,0,1,.172,1.545,5.737,5.737,0,0,1-.947,1.339c-2.085,2.54-3.178,6.121-6.132,7.56-1.5.728-3.265.775-4.714,1.591-1.911,1.076-3,3.344-5.036,4.169.5-.2,1.238-3.706,1.455-4.315q.851-2.382,1.8-4.729C87.589,322.966,87.842,321.591,88.21,320.321Z" transform="translate(-69.939 -262.829)" fill="#a63513"/>
        <path id="Trazado_826327" data-name="Trazado 826327" d="M91.49,315.94l.253-.066c1.142-.309,2.293-.585,3.44-.876a.96.96,0,0,1,.3-.043.643.643,0,0,1,.506.687,2.074,2.074,0,0,1-.319.875c-.732,1.373-1.242,2.934-2.418,3.953-1.307,1.132-3.147,1.349-4.867,1.519a15.928,15.928,0,0,0,.581-1.9,10.218,10.218,0,0,0,.659-2.484,2.781,2.781,0,0,1,.066-.564C89.873,316.377,90.816,316.115,91.49,315.94Z" transform="translate(-67.82 -260.968)" fill="#a63513"/>
        <g id="Grupo_1076441" data-name="Grupo 1076441" transform="translate(118.697 8.252)">
          <path id="Trazado_826328" data-name="Trazado 826328" d="M158.073,324c.476,3.874,4.025,6.956,6.071,9.7a53.768,53.768,0,0,1,4.713,13.4c.425,1.239-.11,3.447,0,5.749s.951,8.263,1.053,8.738a7.894,7.894,0,0,1-.245,2.759,23.941,23.941,0,0,0-.382,2.37,10.226,10.226,0,0,0,.051,3.422c.434,1.376,1.7,1.436,3.252,1.571s4.764-1.732,4.67-2.581a25.4,25.4,0,0,1,0-2.921c.016-.637-.706-3.712-.756-6.692s-1.5-5.035-1.444-7.049,1.036-6.524,1.433-13.1c.4-6.561.093-5.439-.844-7.549s-1.27-2.864-.445-5.674a51.2,51.2,0,0,0,1.8-13.777c-.11-5.257,1.486-8.917,1.749-14.386s-.293-7.666-6.865-14.018c-3.067-.51-3.627.772-5.843,3.166s-3.524,3.159-6.786,7.483C151.024,305.535,157.6,320.125,158.073,324Z" transform="translate(-155.139 -283.844)" fill="#ad4929"/>
          <path id="Trazado_826329" data-name="Trazado 826329" d="M164.108,328.376c-2.046-2.743-5.6-5.826-6.071-9.7-.319-2.6-4.723-10.893-1.845-23.519,1.029.719.578,7.319.578,7.319.869,8.736,2.914,15.112,5.733,18.384s3.281,4.223,5.473,4.9,1.98.92,1.514,4.034.792,3.255,1.579,8.42S170,341.6,169.52,345.789s1.58,3.214,2.135,5.552a47.774,47.774,0,0,1,.909,7.54c.1,1.938-.6,6.8-.485,7.465-1.333-.121-2.392-.3-2.78-1.53a10.226,10.226,0,0,1-.051-3.422c.11-.976.272-1.885.382-2.37a7.861,7.861,0,0,0,.246-2.759c-.1-.475-.951-6.436-1.053-8.738s.425-4.51,0-5.749A53.917,53.917,0,0,0,164.108,328.376Z" transform="translate(-155.101 -278.525)" fill="#942f11"/>
          <path id="Trazado_826330" data-name="Trazado 826330" d="M164.381,343.256c-.144,1.435,1.979,2.239,3.533,2.376s5.1-1.924,5-2.773a25.4,25.4,0,0,1,0-2.921,3.117,3.117,0,0,0-2.458.975c-1.7,1.37-5.6-.078-5.423-1.189a4.311,4.311,0,0,1-.093.723C164.806,341.7,164.469,342.445,164.381,343.256Z" transform="translate(-150.798 -257.577)" fill="#33373b"/>
          <path id="Trazado_826331" data-name="Trazado 826331" d="M164.926,343.626a3.4,3.4,0,0,1,1.377-.983s.232,1.585.2,1.779S164.926,343.626,164.926,343.626Z" transform="translate(-150.539 -256.205)" fill="#fff"/>
        </g>
        <path id="Trazado_826332" data-name="Trazado 826332" d="M123.527,349.374c-2.912-8.459-3.421-4.866-3.975-10.89s2.376-20.656,1.8-27.119,9.157-9.383,11.506-8.8,9.8,6.111,9.388,18.232.4,18.292-3.513,27.865c-2.015,4.933-4.714,11.222-4.492,16.1s-2.018,5.526-2,8.179-.657,10.289.309,14.778.842,5.342.687,6.939-3.884,3-6.548,2.589-4.135-1.867-3.688-3.284.767-5.673,1.576-7.39,1.222-15.187.112-17.232-.429-6.551.188-9.933S123.527,349.374,123.527,349.374Z" transform="translate(-53.203 -266.827)" fill="#ad4929"/>
        <path id="Trazado_826333" data-name="Trazado 826333" d="M124.548,394.287c.218-2.287,1.251-5.25,2.411-6.357s.37-3.444.517-4.378c.356-2.252.544-1.541,0-6.53s-.916-6.953.251-7.909,2.952-4.612,1.858-9.66c-.554-2.555,2.123-6.953,3.184-9.979s-3.025-2.176-.9-7.59,2.739.281,4.617-6.32,2.583-16.45,2.442-22.467a31.224,31.224,0,0,0-.4-4.257,23.473,23.473,0,0,1,1.339,8.963c-.415,12.12.4,18.292-3.513,27.865-2.015,4.933-4.714,11.221-4.492,16.1s-2.018,5.526-2,8.179-.657,10.289.309,14.78.842,5.342.686,6.939C130.7,393.22,127.19,394.585,124.548,394.287Z" transform="translate(-50.822 -263.841)" fill="#942f11"/>
        <path id="Trazado_826334" data-name="Trazado 826334" d="M128.251,363.668c2.87-1.176,2.458-1.288,3.694-1.458a13.132,13.132,0,0,1,.191,4.419c-.156,1.6-3.884,3-6.548,2.59s-4.135-1.867-3.688-3.284a31.329,31.329,0,0,0,.7-3.815C122.4,363.444,124.674,365.132,128.251,363.668Z" transform="translate(-52.103 -238.798)" fill="#33373b"/>
        <path id="Trazado_826335" data-name="Trazado 826335" d="M90.427,317.25c.284-.5,1.768-1.805,2.618-1.539s.212,1.752-.566,2.177-2.9,1.213-2.9,1.213Z" transform="translate(-67.26 -260.629)" fill="#22222c"/>
        <path id="Trazado_826336" data-name="Trazado 826336" d="M75.716,325.39c1.25-.29,1.633,1.7,1.633,1.7s3.713,2.681,5.573,1.873,2.965.348,3.725,1.214,2.261.191,2.583,1.614a7.692,7.692,0,0,1-.09,4.1,3.533,3.533,0,0,1-2.595,2.137,19.752,19.752,0,0,1-3.184-.071c-1.405-.2-2.846-2.152-6.451-3.585-2.827-1.123-2.079-4.435-2.32-5.785s-.393-2.458.368-2.833Z" transform="translate(-74.396 -256.076)" fill="#ffa399"/>
        <path id="Trazado_826337" data-name="Trazado 826337" d="M82.669,329.1c.476.86.078,2.9.078,2.9s-1.865,1.374-3.244,1.2.834-1.038,1.646-2.545S82.669,329.1,82.669,329.1Z" transform="translate(-72.203 -254.321)" fill="#eb874b"/>
        <path id="Trazado_826338" data-name="Trazado 826338" d="M75.679,326.377c.754,1.15.453,1.921.916,3.418s1.232,1.939.807,1.929a3.6,3.6,0,0,1-1.788-2.376,28.626,28.626,0,0,0-.675-2.987Z" transform="translate(-74.14 -255.606)" fill="#eb874b"/>
      </g>
    </g>
    <g id="Grupo_1076474" data-name="Grupo 1076474" transform="translate(-3485.695 -1882.573)">
      <g id="Grupo_1076458" data-name="Grupo 1076458" transform="translate(0 0)">
        <g id="Grupo_1076450" data-name="Grupo 1076450">
          <g id="Grupo_1076445" data-name="Grupo 1076445">
            <g id="Grupo_1076444" data-name="Grupo 1076444">
              <path id="Trazado_826339" data-name="Trazado 826339" d="M54.735,313.2l-3.779-2.183-4.16,2.4,3.779,2.183Z" transform="translate(-46.795 -311.016)" fill="#e8b969"/>
            </g>
          </g>
          <g id="Grupo_1076447" data-name="Grupo 1076447" transform="translate(0 43.934)">
            <g id="Grupo_1076446" data-name="Grupo 1076446">
              <path id="Trazado_826340" data-name="Trazado 826340" d="M54.735,343.085,50.955,340.9l-4.16,2.4,3.779,2.183Z" transform="translate(-46.795 -340.902)" fill="#e8b969"/>
            </g>
          </g>
          <g id="Grupo_1076448" data-name="Grupo 1076448" transform="translate(0 2.402)">
            <path id="Trazado_826341" data-name="Trazado 826341" d="M50.574,314.833l-3.779-2.183v43.934l3.779,2.183Z" transform="translate(-46.795 -312.65)" fill="#d6934b"/>
          </g>
          <g id="Grupo_1076449" data-name="Grupo 1076449" transform="translate(3.779 2.183)">
            <path id="Trazado_826342" data-name="Trazado 826342" d="M53.526,312.5v43.934l-4.16,2.4V314.9Z" transform="translate(-49.366 -312.501)" fill="#e3ae52"/>
          </g>
          <path id="Trazado_826343" data-name="Trazado 826343" d="M50.132,336.684l69.289,40v-3.175L50.132,333.507Z" transform="translate(-45.226 -300.444)" fill="#c98f4d"/>
          <path id="Trazado_826344" data-name="Trazado 826344" d="M50.132,334.007l69.289,40.006,2.709-1.566-69.289-40Z" transform="translate(-45.226 -300.944)" fill="#e8b969"/>
        </g>
        <g id="Grupo_1076453" data-name="Grupo 1076453" transform="translate(4.906 13.226)">
          <g id="Grupo_1076451" data-name="Grupo 1076451" transform="translate(0 1.566)">
            <path id="Trazado_826345" data-name="Trazado 826345" d="M50.132,324.253l69.289,40.006v-3.177l-69.289-40Z" transform="translate(-50.132 -321.078)" fill="#c98f4d"/>
          </g>
          <g id="Grupo_1076452" data-name="Grupo 1076452">
            <path id="Trazado_826346" data-name="Trazado 826346" d="M50.132,321.579l69.289,40,2.709-1.564L52.841,320.013Z" transform="translate(-50.132 -320.013)" fill="#e8b969"/>
          </g>
        </g>
        <g id="Grupo_1076455" data-name="Grupo 1076455" transform="translate(74.077 42.77)">
          <g id="Grupo_1076454" data-name="Grupo 1076454">
            <path id="Trazado_826347" data-name="Trazado 826347" d="M105.127,342.293l-3.781-2.183-4.16,2.4,3.781,2.183Z" transform="translate(-97.186 -340.11)" fill="#e8b969"/>
          </g>
        </g>
        <g id="Grupo_1076456" data-name="Grupo 1076456" transform="translate(74.077 45.172)">
          <path id="Trazado_826348" data-name="Trazado 826348" d="M100.967,343.927l-3.781-2.183v43.934l3.781,2.183Z" transform="translate(-97.186 -341.744)" fill="#d6934b"/>
        </g>
        <g id="Grupo_1076457" data-name="Grupo 1076457" transform="translate(77.858 44.953)">
          <path id="Trazado_826349" data-name="Trazado 826349" d="M103.918,341.595v43.934l-4.16,2.4V344Z" transform="translate(-99.758 -341.595)" fill="#e3ae52"/>
        </g>
      </g>
      <g id="Grupo_1076473" data-name="Grupo 1076473" transform="translate(74.077 42.77)">
        <g id="Grupo_1076465" data-name="Grupo 1076465">
          <g id="Grupo_1076460" data-name="Grupo 1076460">
            <g id="Grupo_1076459" data-name="Grupo 1076459">
              <path id="Trazado_826350" data-name="Trazado 826350" d="M105.127,342.293l-3.781-2.183-4.16,2.4,3.781,2.183Z" transform="translate(-97.186 -340.11)" fill="#e8b969"/>
            </g>
          </g>
          <g id="Grupo_1076462" data-name="Grupo 1076462" transform="translate(0 43.934)">
            <g id="Grupo_1076461" data-name="Grupo 1076461">
              <path id="Trazado_826351" data-name="Trazado 826351" d="M105.127,372.179,101.346,370l-4.16,2.4,3.781,2.183Z" transform="translate(-97.186 -369.996)" fill="#e8b969"/>
            </g>
          </g>
          <g id="Grupo_1076463" data-name="Grupo 1076463" transform="translate(0 2.402)">
            <path id="Trazado_826352" data-name="Trazado 826352" d="M100.967,343.927l-3.781-2.183v43.934l3.781,2.183Z" transform="translate(-97.186 -341.744)" fill="#d6934b"/>
          </g>
          <g id="Grupo_1076464" data-name="Grupo 1076464" transform="translate(3.781 2.183)">
            <path id="Trazado_826353" data-name="Trazado 826353" d="M103.918,341.595v43.934l-4.16,2.4V344Z" transform="translate(-99.758 -341.595)" fill="#e3ae52"/>
          </g>
          <path id="Trazado_826354" data-name="Trazado 826354" d="M100.523,365.778l69.291,40v-3.175L100.523,362.6Z" transform="translate(-95.617 -329.538)" fill="#c98f4d"/>
          <path id="Trazado_826355" data-name="Trazado 826355" d="M100.523,363.1l69.291,40.006,2.709-1.566-69.289-40Z" transform="translate(-95.617 -330.038)" fill="#e8b969"/>
        </g>
        <g id="Grupo_1076468" data-name="Grupo 1076468" transform="translate(4.906 13.227)">
          <g id="Grupo_1076466" data-name="Grupo 1076466" transform="translate(0 1.564)">
            <path id="Trazado_826356" data-name="Trazado 826356" d="M100.523,353.347l69.291,40.006v-3.177l-69.291-40Z" transform="translate(-100.523 -350.172)" fill="#c98f4d"/>
          </g>
          <g id="Grupo_1076467" data-name="Grupo 1076467">
            <path id="Trazado_826357" data-name="Trazado 826357" d="M100.523,350.672l69.291,40,2.709-1.564-69.289-40Z" transform="translate(-100.523 -349.108)" fill="#e8b969"/>
          </g>
        </g>
        <g id="Grupo_1076470" data-name="Grupo 1076470" transform="translate(74.079 42.77)">
          <g id="Grupo_1076469" data-name="Grupo 1076469">
            <path id="Trazado_826358" data-name="Trazado 826358" d="M155.519,371.387l-3.781-2.183-4.16,2.4,3.781,2.183Z" transform="translate(-147.578 -369.204)" fill="#e8b969"/>
          </g>
        </g>
        <g id="Grupo_1076471" data-name="Grupo 1076471" transform="translate(74.079 45.172)">
          <path id="Trazado_826359" data-name="Trazado 826359" d="M151.359,373.021l-3.781-2.183v43.934l3.781,2.183Z" transform="translate(-147.578 -370.838)" fill="#d6934b"/>
        </g>
        <g id="Grupo_1076472" data-name="Grupo 1076472" transform="translate(77.86 44.953)">
          <path id="Trazado_826360" data-name="Trazado 826360" d="M154.31,370.689v43.934l-4.16,2.4V373.091Z" transform="translate(-150.15 -370.689)" fill="#e3ae52"/>
        </g>
      </g>
    </g>
    <g id="Grupo_1076481" data-name="Grupo 1076481" transform="translate(-3489.456 -1835.982)">
      <path id="Trazado_826361" data-name="Trazado 826361" d="M62.107,350.71l-1.574.909-1.251-.909L44.237,359.4l120.372,69.952h2.825l15.044-8.687Z" transform="translate(-44.237 -338.95)" fill="#c1c8e0"/>
      <path id="Trazado_826362" data-name="Trazado 826362" d="M174.515,419.4,54.143,349.445l.482-5.626L175,413.773Z" transform="translate(-39.581 -342.189)" fill="#9ea4b7"/>
      <path id="Trazado_826363" data-name="Trazado 826363" d="M174.844,414.294,54.471,344.34l2.825-1.63,120.372,69.952Z" transform="translate(-39.427 -342.71)" fill="#a7adc2"/>
      <path id="Trazado_826364" data-name="Trazado 826364" d="M168.8,422.449,48.429,352.5l8.4-4.85L177.2,417.6Z" transform="translate(-42.267 -340.39)" fill="#6177c2"/>
      <g id="Grupo_1076476" data-name="Grupo 1076476" transform="translate(8.475 3.262)">
        <g id="Grupo_1076475" data-name="Grupo 1076475">
          <path id="Trazado_826365" data-name="Trazado 826365" d="M59.4,344.929l-.482,5.626-4.3,2.48L50,350.353Z" transform="translate(-50.002 -344.929)" fill="#717684"/>
        </g>
      </g>
      <path id="Trazado_826366" data-name="Trazado 826366" d="M167.945,427.507,47.573,357.553l-.725-7.165L167.22,420.342Z" transform="translate(-43.01 -339.101)" fill="#8a8fa0"/>
      <path id="Trazado_826367" data-name="Trazado 826367" d="M166.531,419.093,46.158,349.141l2.825-1.632,120.372,69.954Z" transform="translate(-43.334 -340.454)" fill="#a7adc2"/>
      <path id="Trazado_826368" data-name="Trazado 826368" d="M166.54,421.752,46.168,351.8l-.01-3.181,120.373,69.952Z" transform="translate(-43.334 -339.932)" fill="#949aac"/>
      <path id="Trazado_826369" data-name="Trazado 826369" d="M143.086,390.295l.009,3.181-1,.581-.691,7.982-11.621,6.709-.725-7.165-1,.579-.009-3.181Z" transform="translate(-4.845 -320.343)" fill="#717684"/>
      <g id="Grupo_1076478" data-name="Grupo 1076478" transform="translate(123.196 69.952)">
        <g id="Grupo_1076477" data-name="Grupo 1076477">
          <path id="Trazado_826370" data-name="Trazado 826370" d="M140.263,391.927l-2.827-1.632-9.4,5.424,2.825,1.632Z" transform="translate(-128.041 -390.295)" fill="#a7adc2"/>
        </g>
      </g>
      <g id="Grupo_1076480" data-name="Grupo 1076480" transform="translate(5.649 1.63)">
        <g id="Grupo_1076479" data-name="Grupo 1076479">
          <path id="Trazado_826371" data-name="Trazado 826371" d="M60.3,345.451l-2.825-1.632-9.4,5.424,2.825,1.632Z" transform="translate(-48.08 -343.819)" fill="#a7adc2"/>
        </g>
      </g>
    </g>
    <g id="Grupo_1076485" data-name="Grupo 1076485" transform="translate(-3492.369 -1888.458)">
      <path id="Trazado_826372" data-name="Trazado 826372" d="M69.463,391.677c-5.38,3.106-14.132,3.091-19.546-.035s-5.442-8.178-.062-11.286,14.132-3.09,19.546.035S74.843,388.571,69.463,391.677Z" transform="translate(-40.571 -273.628)" fill="#c1c8e0"/>
      <g id="Grupo_1076484" data-name="Grupo 1076484" transform="translate(0 0)">
        <g id="Grupo_1076483" data-name="Grupo 1076483">
          <path id="Trazado_826373" data-name="Trazado 826373" d="M55.433,377.466a4.269,4.269,0,0,0-1.086,1.142,5.2,5.2,0,0,0-.278,2.746c.115.473,1.308.763,1.982.828,1.477.143,3.043.163,3.043.163a4.9,4.9,0,0,1,1.277-.609,11.6,11.6,0,0,1,2.508.857,27.679,27.679,0,0,0,6.74.619c2.477-.229,2.293-1.469,2.293-1.469s.184-1.592-.594-1.982a21.343,21.343,0,0,0-4.1-.285Z" transform="translate(-36.734 -273.897)" fill="#161b29"/>
          <path id="Trazado_826374" data-name="Trazado 826374" d="M55.222,376.438a11.724,11.724,0,0,0-.832,3.65,1.834,1.834,0,0,0,.572,1.373,14.847,14.847,0,0,0,3.8.706,39.323,39.323,0,0,1,6.733,1.286c1.84.435,5.386.19,5.608-.25a3.76,3.76,0,0,0,.115-1.482s-.071-1.708-1.275-2.114-7.9-2.477-7.9-2.477l-3.587-2.852Z" transform="translate(-36.551 -275.395)" fill="#404759"/>
          <path id="Trazado_826375" data-name="Trazado 826375" d="M51.181,354.087a49.642,49.642,0,0,0,2.352,9.777c.916,2.546,1.4,6.292,2.8,8.781s7.533,2.415,8.3,1.158,1.621-6.706,1.621-6.706-4.025-16.437-4.567-17.932S60.3,338.147,60.3,338.147l-9.116,3.622Z" transform="translate(-38.059 -292.378)" fill="#295ea9"/>
          <path id="Trazado_826376" data-name="Trazado 826376" d="M55.4,357.994a24.214,24.214,0,0,0-1.386,6.847c-.209,2.593.564,20.153.441,21.369s1.968,1.639,4.218,1.547,4.27-.939,4.457-1.721,2.148-24.864,1.816-27.759S55.4,357.994,55.4,357.994Z" transform="translate(-36.746 -283.558)" fill="#295ea9"/>
          <path id="Trazado_826377" data-name="Trazado 826377" d="M45.429,382.137c-.82.37-.989,0-1.4.853a6.552,6.552,0,0,0-.228,2.609,14.493,14.493,0,0,0,1.449,1.42c.27.134,1.33.562,1.33.562s1.3,2.621,2.83,3.309a11.011,11.011,0,0,0,5.305.989,4.965,4.965,0,0,0,3.012-1,4.7,4.7,0,0,0-.069-1.671c-.431-.91-3.265-2.574-3.265-2.574Z" transform="translate(-41.544 -271.701)" fill="#161b29"/>
          <path id="Trazado_826378" data-name="Trazado 826378" d="M84.44,318.36a21.559,21.559,0,0,1,1.6,4.861c-.024.457-17.2,6.2-19.421,6.123s-3.346-5.36-2.824-6.352,2.721-1.223,4.219-1.516S84.44,318.36,84.44,318.36Z" transform="translate(-32.192 -301.679)" fill="#5c92ff"/>
          <path id="Trazado_826379" data-name="Trazado 826379" d="M69.394,330.286c-.337.179-5.214-.729-6.226-.228s-.931,1.319-2.434,1.416-4.01-13.711-2.531-14.7,6.506.024,7.706.465S71.037,324.23,69.394,330.286Z" transform="translate(-34.971 -302.621)" fill="#5c92ff"/>
          <path id="Trazado_826380" data-name="Trazado 826380" d="M78.388,322.96a1.762,1.762,0,0,0,2.057.582c1.122-.366,3.928-1.558,4.178-2.1a.959.959,0,0,0-.288-1.025l-.97.1s.585-.51.834-.5a28.2,28.2,0,0,0,4.467.141c.556-.219.109-1.458.109-1.458s.564-.138.6-.634a.5.5,0,0,0-.479-.529s-4.989-1.063-5.708-.994a5.912,5.912,0,0,0-2.546,1.094,21.386,21.386,0,0,1-2.623,1.532S76.331,322.182,78.388,322.96Z" transform="translate(-25.751 -302.538)" fill="#ffa399"/>
          <path id="Trazado_826381" data-name="Trazado 826381" d="M44.9,378.766c-.075,1.1-.735,5.154-.817,5.964s.347,1.138.973,1.983,2.286,2.01,2.774,3.162,2.345,2.479,4.957,2.671,4.694-.343,4.6-1.561a7.085,7.085,0,0,0-.434-2.036s-5.06-4.816-5.548-5.967-1.58-3.716-1.58-3.716Z" transform="translate(-41.401 -273.285)" fill="#404759"/>
          <path id="Trazado_826382" data-name="Trazado 826382" d="M46.811,336.164c-1.37,2.476-3.8,6.5-4.37,11.027s.256,10.642,1.239,15.169.509,11.6.391,13.3,9.83,6.254,10.3,4.012c.319-1.516,3.441-18.33,4.034-19.444s2.179-2.553,2.725-4.259.063-12.744-1.667-14.625S46.811,336.164,46.811,336.164Z" transform="translate(-42.255 -293.31)" fill="#2c6bb8"/>
          <path id="Trazado_826383" data-name="Trazado 826383" d="M43.815,339.837a10.591,10.591,0,0,0-1,2.72c-.434,1.777,2.274,4.623,6.574,5.932a14.387,14.387,0,0,0,11.568-.914c3.665-1.907,3.8-2.146,3.8-2.146l.185-4.883Z" transform="translate(-42.014 -291.584)" fill="#1d2329"/>
          <g id="Grupo_1076482" data-name="Grupo 1076482" transform="translate(0.232 48.728)">
            <path id="Trazado_826384" data-name="Trazado 826384" d="M49.474,350.418a3.528,3.528,0,0,1-1.151-.269c-.659-.244-6.345-2.853-5.883-4.513.268-.963,1.751-5.292,1.814-5.476l1.205.413c-.016.043-1.408,4.106-1.754,5.266.526.806,4.343,3.04,5.558,3.284.322-1.007,1.013-3.979,1.42-5.83l.146-.66,6.952,1.961v.482c0,1.385-.012,4.66-.121,5.152l-1.244-.273c.051-.291.085-2.383.09-4.4l-4.723-1.333c-.356,1.595-1.142,5.02-1.466,5.713A.85.85,0,0,1,49.474,350.418Z" transform="translate(-42.413 -340.16)" fill="#2c6bb8"/>
          </g>
          <path id="Trazado_826385" data-name="Trazado 826385" d="M54.02,369.452c-.341,2.312-1.439,21.213-1.275,23.791-4.307,1.973-7.386-.563-7.844-1.3s-1.918-16.357-1.9-19.183S44.535,357.9,44.535,357.9Z" transform="translate(-41.904 -283.095)" fill="#2c6bb8"/>
          <path id="Trazado_826386" data-name="Trazado 826386" d="M67.8,315.866c-1.986.119-5.219.966-6.931,2.606s-6.621,6.958-7.887,10.509-8.875,20.175-9.739,22.381,6.02,6.107,9.438,6.606c6.37.929,10.208-2,11.208-3.449s4.622-9.651,6.837-15.9c2.452-6.915,4.6-13.914,3.656-17.264S67.8,315.866,67.8,315.866Z" transform="translate(-41.824 -302.851)" fill="#4280ff"/>
          <path id="Trazado_826387" data-name="Trazado 826387" d="M60.327,315.507a9.227,9.227,0,0,1-1.267,3.819c-.639.788-.92.92-.953,2.037s2.343,5.305,3.488,6.114,2.135-.265,2.583-.753,2.04-1.98,3.28-1.829,2.906.444,3.813-.078,2.4-3.678,2.556-4.435c.864-.1,1.433.065,1.142-1.272a3.429,3.429,0,0,1,.257-2.534c.285-.717,1.282-5.285-.247-6S60.327,315.507,60.327,315.507Z" transform="translate(-34.804 -305.366)" fill="#ffa399"/>
          <path id="Trazado_826388" data-name="Trazado 826388" d="M74.759,315.2a2.334,2.334,0,0,0-.663,1.854,5.136,5.136,0,0,1-.2,1.58,4.525,4.525,0,0,0-1.924,1.513,22.893,22.893,0,0,0-1,2.246l-1.639-.582a1.514,1.514,0,0,0-1.379-1.927c-1.792-.209-2.495,1.721-3.755,2.314a3.431,3.431,0,0,1-3.18.051,4.236,4.236,0,0,1-1.6-2.12,15.872,15.872,0,0,1-.3-6.448c.385-3.535,2.062-4.566,3.869-5.023,1.951-1.883,5.329-1.995,7.588-1.126s4.723,2.124,5.864,4.629c.685,1.5-.872,2.933-1.036,3.05S74.759,315.2,74.759,315.2Z" transform="translate(-34.409 -307.013)" fill="#1c2134"/>
          <path id="Trazado_826389" data-name="Trazado 826389" d="M65.959,315.583c-.45-.162-1.255.54-1.489,1.529a2.419,2.419,0,0,0,.644,2.333c.451.285.863-1.673.966-2.17S66.371,315.732,65.959,315.583Z" transform="translate(-31.844 -302.995)" fill="#ffa399"/>
          <path id="Trazado_826390" data-name="Trazado 826390" d="M59.9,325.737c-3.164-2.511-7.324-3.785-9.367,2.9-.91,2.98-3.259,15.8-3.655,19.35s6.2,3.347,8.635-1.905,5.563-11.812,5.661-14.9S61.184,326.756,59.9,325.737Z" transform="translate(-40.089 -299.164)" fill="#5c92ff"/>
          <path id="Trazado_826391" data-name="Trazado 826391" d="M69.3,340.24c-.087-.151,8.7.881,8.7.881l-2.358.81-6.664,1.476L60.409,342.4l1.89-1.818Z" transform="translate(-33.722 -291.402)" fill="#161b29"/>
        </g>
        <path id="Trazado_826392" data-name="Trazado 826392" d="M61.329,345.134a8.292,8.292,0,0,0,2.217.932,20.433,20.433,0,0,0,4.162-.713,18.931,18.931,0,0,0,3.144-1.372,3.655,3.655,0,0,0,.764-.706s1.654-.348,1.967-.992-.007-.979-.007-.979l-3.784,1.2-2.721-.169s-1.364-1.276-2.126-1.139-3.3.591-3.631,1.091S61.329,345.134,61.329,345.134Z" transform="translate(-33.364 -290.95)" fill="#ffa399"/>
        <path id="Trazado_826393" data-name="Trazado 826393" d="M64.6,343.535a7.186,7.186,0,0,0,1.808-.475c.544-.1,2.827,0,3.416-.028s.751-1.1.138-1.373a33.561,33.561,0,0,0-3.749-.379,5.526,5.526,0,0,0-2.383-.17c-.838.2-2.556.132-2.9.525S64.6,343.535,64.6,343.535Z" transform="translate(-33.483 -291.021)" fill="#ffa399"/>
        <path id="Trazado_826394" data-name="Trazado 826394" d="M48.331,337.651c-.681,1.1-1.92,3.919-1.352,5.376s4.247,2.564,10.252,3.669a59.4,59.4,0,0,0,11.4,1.154c.4-.1,1.61-2.331.247-4.456a2.3,2.3,0,0,0-1.724-1.273c-.567-.022-10.373-3.33-11.628-3.919S48.331,337.651,48.331,337.651Z" transform="translate(-40.103 -292.611)" fill="#5c92ff"/>
      </g>
    </g>
    <g id="Grupo_1076490" data-name="Grupo 1076490" transform="translate(-3319.446 -1860.9)">
      <path id="Trazado_826395" data-name="Trazado 826395" d="M159.886,366.845l32.078,18.521h16.813L181.612,354.3Z" transform="translate(-159.886 -312.343)" fill="#c1c8e0"/>
      <g id="Grupo_1076487" data-name="Grupo 1076487" transform="translate(16.813 21.441)">
        <g id="Grupo_1076486" data-name="Grupo 1076486">
          <path id="Trazado_826396" data-name="Trazado 826396" d="M193.144,386l21.726-12.544V352.942l-21.726,12.544Z" transform="translate(-161.066 -334.422)" fill="#ffba17"/>
          <path id="Trazado_826397" data-name="Trazado 826397" d="M171.323,352.886,203.4,371.408l21.726-12.544-32.078-18.52Z" transform="translate(-171.323 -340.344)" fill="#ed9507"/>
          <path id="Trazado_826398" data-name="Trazado 826398" d="M171.323,369.395,203.4,387.916V367.4l-32.078-18.521Z" transform="translate(-171.323 -336.334)" fill="#ffc626"/>
        </g>
        <path id="Trazado_826399" data-name="Trazado 826399" d="M181.707,358.883l1.548.892,21.726-12.542-1.548-.894Z" transform="translate(-166.442 -337.526)" fill="#a15902"/>
        <path id="Trazado_826400" data-name="Trazado 826400" d="M181.707,375.389l1.548.894V355.764l-1.548-.892Z" transform="translate(-166.442 -333.515)" fill="#a15902"/>
        <path id="Trazado_826401" data-name="Trazado 826401" d="M211.812,362.827l-1.546.894L178.186,345.2l1.548-.894Z" transform="translate(-168.097 -338.482)" fill="#a15902"/>
        <path id="Trazado_826402" data-name="Trazado 826402" d="M201.554,377.422l-1.546.894V357.8l1.546-.894Z" transform="translate(-157.84 -332.559)" fill="#a15902"/>
      </g>
      <g id="Grupo_1076489" data-name="Grupo 1076489" transform="translate(16.813 0)">
        <g id="Grupo_1076488" data-name="Grupo 1076488">
          <path id="Trazado_826403" data-name="Trazado 826403" d="M193.144,371.421l21.726-12.544V338.358L193.144,350.9Z" transform="translate(-161.066 -319.837)" fill="#ffba17"/>
          <path id="Trazado_826404" data-name="Trazado 826404" d="M171.323,338.3,203.4,356.824l21.726-12.544-32.078-18.521Z" transform="translate(-171.323 -325.759)" fill="#ffda38"/>
          <path id="Trazado_826405" data-name="Trazado 826405" d="M171.323,354.811,203.4,373.332V352.813l-32.078-18.521Z" transform="translate(-171.323 -321.748)" fill="#ffc626"/>
        </g>
        <path id="Trazado_826406" data-name="Trazado 826406" d="M181.707,344.3l1.548.894,21.726-12.542-1.548-.894Z" transform="translate(-166.442 -322.941)" fill="#a15902"/>
        <path id="Trazado_826407" data-name="Trazado 826407" d="M181.707,360.806l1.548.894V341.181l-1.548-.894Z" transform="translate(-166.442 -318.93)" fill="#a15902"/>
        <path id="Trazado_826408" data-name="Trazado 826408" d="M211.812,348.242l-1.546.894-32.079-18.52,1.548-.894Z" transform="translate(-168.097 -323.896)" fill="#a15902"/>
        <path id="Trazado_826409" data-name="Trazado 826409" d="M201.554,362.839l-1.546.894V343.214l1.546-.894Z" transform="translate(-157.84 -317.975)" fill="#a15902"/>
      </g>
    </g>
  </g>
</svg>
