<svg xmlns="http://www.w3.org/2000/svg" width="820" height="490" viewBox="0 0 820 490">
  <g id="Grupo_1082423" data-name="Grupo 1082423" transform="translate(-391 -12059.896)">
    <path id="Trazado_833133" data-name="Trazado 833133" d="M15,0H805a15,15,0,0,1,15,15V475a15,15,0,0,1-15,15H15A15,15,0,0,1,0,475V15A15,15,0,0,1,15,0Z" transform="translate(391 12059.896)" fill="#dbf9bd"/>
    <g id="Grupo_1068042" data-name="Grupo 1068042" transform="translate(97.998 2960.223)">
      <path id="Trazado_833605" data-name="Trazado 833605" d="M11.32,12.667a4.673,4.673,0,0,1-.721,2.36,4.35,4.35,0,0,1-1.85,1.586,6.3,6.3,0,0,1-2.72.563,5.025,5.025,0,0,1-3.973-1.644,6.786,6.786,0,0,1-1.45-4.641v-.633a7.746,7.746,0,0,1,.655-3.292,4.961,4.961,0,0,1,1.885-2.18,5.26,5.26,0,0,1,2.848-.769A5.516,5.516,0,0,1,9.738,5.245a4.844,4.844,0,0,1,1.608,3.379H8.271a2.292,2.292,0,0,0-.589-1.679,2.422,2.422,0,0,0-1.687-.51A1.843,1.843,0,0,0,4.307,7.3a5.536,5.536,0,0,0-.562,2.751v.905a6.125,6.125,0,0,0,.514,2.927,1.882,1.882,0,0,0,1.771.879,2.369,2.369,0,0,0,1.626-.5,2.126,2.126,0,0,0,.6-1.591Zm.949-.51a5.613,5.613,0,0,1,.554-2.536,3.96,3.96,0,0,1,1.591-1.709,4.791,4.791,0,0,1,2.435-.6,4.373,4.373,0,0,1,3.366,1.323,5.076,5.076,0,0,1,1.23,3.6v.105a4.925,4.925,0,0,1-1.235,3.529,4.384,4.384,0,0,1-3.344,1.305,4.434,4.434,0,0,1-3.261-1.217,4.761,4.761,0,0,1-1.327-3.3Zm2.962.185a3.538,3.538,0,0,0,.413,1.934,1.376,1.376,0,0,0,1.222.615q1.582,0,1.617-2.435v-.3q0-2.558-1.635-2.558-1.485,0-1.608,2.206ZM28.5,10.171l-.976-.07a1.752,1.752,0,0,0-1.793.879V17H22.772V7.49H25.55l.1,1.222a2.294,2.294,0,0,1,2.083-1.4,2.888,2.888,0,0,1,.826.105Zm6.82,0-.976-.07a1.752,1.752,0,0,0-1.793.879V17H29.593V7.49H32.37l.1,1.222a2.294,2.294,0,0,1,2.083-1.4,2.888,2.888,0,0,1,.826.105ZM39.516,17H36.545V7.49h2.971ZM36.369,5.038A1.322,1.322,0,0,1,36.826,4,1.943,1.943,0,0,1,39.2,4a1.322,1.322,0,0,1,.457,1.037A1.322,1.322,0,0,1,39.2,6.075a1.943,1.943,0,0,1-2.373,0A1.322,1.322,0,0,1,36.369,5.038ZM45.94,17.176A4.889,4.889,0,0,1,42.4,15.871a4.507,4.507,0,0,1-1.354-3.4v-.246a5.84,5.84,0,0,1,.541-2.575,3.955,3.955,0,0,1,1.578-1.727,4.763,4.763,0,0,1,2.461-.611,4.117,4.117,0,0,1,3.164,1.244,4.887,4.887,0,0,1,1.16,3.467v1.151H44.06a2.135,2.135,0,0,0,.694,1.257,2.066,2.066,0,0,0,1.389.457,2.662,2.662,0,0,0,2.2-.984l1.354,1.6a3.784,3.784,0,0,1-1.569,1.217A5.3,5.3,0,0,1,45.94,17.176ZM45.606,9.6q-1.3,0-1.547,1.723h2.988v-.229a1.467,1.467,0,0,0-.36-1.1A1.434,1.434,0,0,0,45.606,9.6ZM53.859,7.49l.1,1.116a3.225,3.225,0,0,1,2.716-1.292,2.713,2.713,0,0,1,2.219.888,4.226,4.226,0,0,1,.76,2.672V17H56.681V11a1.6,1.6,0,0,0-.29-1.059A1.342,1.342,0,0,0,55.336,9.6a1.413,1.413,0,0,0-1.292.686V17H51.082V7.49ZM64.74,5.126V7.49H66.3V9.547H64.74V13.9a1.111,1.111,0,0,0,.193.747,1.037,1.037,0,0,0,.765.211,4.345,4.345,0,0,0,.738-.053v2.118a5.466,5.466,0,0,1-1.67.255,3.1,3.1,0,0,1-2.259-.721,2.954,2.954,0,0,1-.729-2.188V9.547H60.565V7.49h1.213V5.126Zm7.33,12.05a4.889,4.889,0,0,1-3.542-1.305,4.507,4.507,0,0,1-1.354-3.4v-.246a5.84,5.84,0,0,1,.541-2.575,3.955,3.955,0,0,1,1.578-1.727,4.763,4.763,0,0,1,2.461-.611,4.117,4.117,0,0,1,3.164,1.244,4.887,4.887,0,0,1,1.16,3.467v1.151H70.189a2.135,2.135,0,0,0,.694,1.257,2.066,2.066,0,0,0,1.389.457,2.662,2.662,0,0,0,2.2-.984l1.354,1.6a3.784,3.784,0,0,1-1.569,1.217A5.3,5.3,0,0,1,72.07,17.176ZM71.736,9.6q-1.3,0-1.547,1.723h2.988v-.229a1.467,1.467,0,0,0-.36-1.1A1.434,1.434,0,0,0,71.736,9.6Zm9.642,2.575a5.809,5.809,0,0,1,.976-3.56,3.211,3.211,0,0,1,2.725-1.3,2.731,2.731,0,0,1,2.145,1V3.5h2.971V17H87.53l-.149-1.02a2.8,2.8,0,0,1-2.32,1.2,3.205,3.205,0,0,1-2.689-1.3A5.993,5.993,0,0,1,81.378,12.175Zm2.962.185q0,2.531,1.477,2.531a1.458,1.458,0,0,0,1.406-.826V10.443A1.419,1.419,0,0,0,85.834,9.6q-1.371,0-1.485,2.215Zm12.138,4.816a4.889,4.889,0,0,1-3.542-1.305,4.507,4.507,0,0,1-1.354-3.4v-.246a5.84,5.84,0,0,1,.541-2.575A3.955,3.955,0,0,1,93.7,7.925a4.763,4.763,0,0,1,2.461-.611,4.117,4.117,0,0,1,3.164,1.244,4.887,4.887,0,0,1,1.16,3.467v1.151H94.6a2.135,2.135,0,0,0,.694,1.257,2.066,2.066,0,0,0,1.389.457,2.662,2.662,0,0,0,2.2-.984l1.354,1.6a3.784,3.784,0,0,1-1.569,1.217A5.3,5.3,0,0,1,96.478,17.176ZM96.144,9.6q-1.3,0-1.547,1.723h2.988v-.229a1.467,1.467,0,0,0-.36-1.1A1.434,1.434,0,0,0,96.144,9.6ZM104.8,17H101.83V3.5H104.8Zm11.663,0a3.344,3.344,0,0,1-.281-.853,2.754,2.754,0,0,1-2.285,1.028,3.374,3.374,0,0,1-2.285-.813,2.588,2.588,0,0,1-.94-2.043,2.66,2.66,0,0,1,1.143-2.338,5.821,5.821,0,0,1,3.322-.791h.914v-.5q0-1.316-1.134-1.316a.927.927,0,0,0-1.055,1.042H110.9a2.655,2.655,0,0,1,1.173-2.239,4.931,4.931,0,0,1,2.993-.86,4.323,4.323,0,0,1,2.874.888,3.086,3.086,0,0,1,1.081,2.435v4.21a4.311,4.311,0,0,0,.4,2V17Zm-1.854-1.934a1.652,1.652,0,0,0,.918-.237,1.487,1.487,0,0,0,.523-.536V12.772h-.861q-1.547,0-1.547,1.389a.848.848,0,0,0,.272.655A.986.986,0,0,0,114.609,15.066ZM123.785,17h-2.971V7.49h2.971ZM120.639,5.038A1.322,1.322,0,0,1,121.1,4a1.943,1.943,0,0,1,2.373,0,1.322,1.322,0,0,1,.457,1.037,1.322,1.322,0,0,1-.457,1.037,1.943,1.943,0,0,1-2.373,0A1.322,1.322,0,0,1,120.639,5.038Zm10.723,5.133-.976-.07a1.752,1.752,0,0,0-1.793.879V17h-2.962V7.49h2.777l.1,1.222a2.294,2.294,0,0,1,2.083-1.4,2.888,2.888,0,0,1,.826.105Zm5.5,7a4.889,4.889,0,0,1-3.542-1.305,4.507,4.507,0,0,1-1.354-3.4v-.246a5.84,5.84,0,0,1,.541-2.575,3.955,3.955,0,0,1,1.578-1.727,4.763,4.763,0,0,1,2.461-.611,4.117,4.117,0,0,1,3.164,1.244,4.887,4.887,0,0,1,1.16,3.467v1.151h-5.889a2.135,2.135,0,0,0,.694,1.257,2.066,2.066,0,0,0,1.389.457,2.662,2.662,0,0,0,2.2-.984l1.354,1.6a3.784,3.784,0,0,1-1.569,1.217A5.3,5.3,0,0,1,136.863,17.176ZM136.529,9.6q-1.3,0-1.547,1.723h2.988v-.229a1.467,1.467,0,0,0-.36-1.1A1.434,1.434,0,0,0,136.529,9.6Z" transform="translate(444 9248)" fill="#1b3f5e"/>
      <path id="Trazado_833606" data-name="Trazado 833606" d="M11.32,12.667a4.673,4.673,0,0,1-.721,2.36,4.35,4.35,0,0,1-1.85,1.586,6.3,6.3,0,0,1-2.72.563,5.025,5.025,0,0,1-3.973-1.644,6.786,6.786,0,0,1-1.45-4.641v-.633a7.746,7.746,0,0,1,.655-3.292,4.961,4.961,0,0,1,1.885-2.18,5.26,5.26,0,0,1,2.848-.769A5.516,5.516,0,0,1,9.738,5.245a4.844,4.844,0,0,1,1.608,3.379H8.271a2.292,2.292,0,0,0-.589-1.679,2.422,2.422,0,0,0-1.687-.51A1.843,1.843,0,0,0,4.307,7.3a5.536,5.536,0,0,0-.562,2.751v.905a6.125,6.125,0,0,0,.514,2.927,1.882,1.882,0,0,0,1.771.879,2.369,2.369,0,0,0,1.626-.5,2.126,2.126,0,0,0,.6-1.591Zm.949-.51a5.613,5.613,0,0,1,.554-2.536,3.96,3.96,0,0,1,1.591-1.709,4.791,4.791,0,0,1,2.435-.6,4.373,4.373,0,0,1,3.366,1.323,5.076,5.076,0,0,1,1.23,3.6v.105a4.925,4.925,0,0,1-1.235,3.529,4.384,4.384,0,0,1-3.344,1.305,4.434,4.434,0,0,1-3.261-1.217,4.761,4.761,0,0,1-1.327-3.3Zm2.962.185a3.538,3.538,0,0,0,.413,1.934,1.376,1.376,0,0,0,1.222.615q1.582,0,1.617-2.435v-.3q0-2.558-1.635-2.558-1.485,0-1.608,2.206ZM25.471,7.49l.1,1.116a3.225,3.225,0,0,1,2.716-1.292A2.713,2.713,0,0,1,30.5,8.2a4.226,4.226,0,0,1,.76,2.672V17H28.292V11A1.6,1.6,0,0,0,28,9.938,1.342,1.342,0,0,0,26.947,9.6a1.413,1.413,0,0,0-1.292.686V17H22.693V7.49ZM37.5,17.176a4.889,4.889,0,0,1-3.542-1.305,4.507,4.507,0,0,1-1.354-3.4v-.246a5.84,5.84,0,0,1,.541-2.575,3.955,3.955,0,0,1,1.578-1.727,4.763,4.763,0,0,1,2.461-.611,4.117,4.117,0,0,1,3.164,1.244,4.887,4.887,0,0,1,1.16,3.467v1.151H35.622a2.135,2.135,0,0,0,.694,1.257,2.066,2.066,0,0,0,1.389.457,2.662,2.662,0,0,0,2.2-.984l1.354,1.6a3.784,3.784,0,0,1-1.569,1.217A5.3,5.3,0,0,1,37.5,17.176ZM37.169,9.6q-1.3,0-1.547,1.723H38.61v-.229a1.467,1.467,0,0,0-.36-1.1A1.434,1.434,0,0,0,37.169,9.6ZM45.888,7.49v9.835a3.452,3.452,0,0,1-.967,2.6,3.714,3.714,0,0,1-2.672.914,6.308,6.308,0,0,1-1.4-.149V18.45a5.667,5.667,0,0,0,.835.079,1.084,1.084,0,0,0,1.23-1.222V7.49ZM42.7,5.038A1.322,1.322,0,0,1,43.154,4a1.943,1.943,0,0,1,2.373,0,1.322,1.322,0,0,1,.457,1.037,1.322,1.322,0,0,1-.457,1.037,1.943,1.943,0,0,1-2.373,0A1.322,1.322,0,0,1,42.7,5.038Zm9.466,12.138a4.889,4.889,0,0,1-3.542-1.305,4.507,4.507,0,0,1-1.354-3.4v-.246a5.84,5.84,0,0,1,.541-2.575,3.955,3.955,0,0,1,1.578-1.727,4.763,4.763,0,0,1,2.461-.611,4.117,4.117,0,0,1,3.164,1.244,4.887,4.887,0,0,1,1.16,3.467v1.151H50.282a2.135,2.135,0,0,0,.694,1.257,2.066,2.066,0,0,0,1.389.457,2.662,2.662,0,0,0,2.2-.984l1.354,1.6a3.784,3.784,0,0,1-1.569,1.217A5.3,5.3,0,0,1,52.163,17.176ZM51.829,9.6q-1.3,0-1.547,1.723h2.988v-.229a1.467,1.467,0,0,0-.36-1.1A1.434,1.434,0,0,0,51.829,9.6Zm11.285.571-.976-.07a1.752,1.752,0,0,0-1.793.879V17H57.384V7.49h2.777l.1,1.222a2.294,2.294,0,0,1,2.083-1.4,2.888,2.888,0,0,1,.826.105ZM69.275,17a3.344,3.344,0,0,1-.281-.853,2.754,2.754,0,0,1-2.285,1.028,3.374,3.374,0,0,1-2.285-.813,2.588,2.588,0,0,1-.94-2.043,2.66,2.66,0,0,1,1.143-2.338,5.821,5.821,0,0,1,3.322-.791h.914v-.5q0-1.316-1.134-1.316a.927.927,0,0,0-1.055,1.042H63.712a2.655,2.655,0,0,1,1.173-2.239,4.931,4.931,0,0,1,2.993-.86,4.323,4.323,0,0,1,2.874.888,3.086,3.086,0,0,1,1.081,2.435v4.21a4.311,4.311,0,0,0,.4,2V17Zm-1.854-1.934a1.652,1.652,0,0,0,.918-.237,1.487,1.487,0,0,0,.523-.536V12.772H68q-1.547,0-1.547,1.389a.848.848,0,0,0,.272.655A.986.986,0,0,0,67.421,15.066Zm11.03-.738a.684.684,0,0,0-.4-.606,6.016,6.016,0,0,0-1.5-.475,6.853,6.853,0,0,1-1.828-.646,3.062,3.062,0,0,1-1.1-.971,2.319,2.319,0,0,1-.378-1.31,2.628,2.628,0,0,1,1.081-2.158,4.453,4.453,0,0,1,2.83-.848,4.934,4.934,0,0,1,3.023.853,2.666,2.666,0,0,1,1.143,2.241H78.354q0-1.143-1.2-1.143a1.194,1.194,0,0,0-.782.259.8.8,0,0,0-.316.646.737.737,0,0,0,.387.642,3.654,3.654,0,0,0,1.235.4,10.671,10.671,0,0,1,1.49.378,2.706,2.706,0,0,1,2.145,2.646,2.491,2.491,0,0,1-1.156,2.118,5.068,5.068,0,0,1-2.993.817,5.172,5.172,0,0,1-2.18-.439,3.645,3.645,0,0,1-1.494-1.2,2.707,2.707,0,0,1-.536-1.591h2.769a1.145,1.145,0,0,0,.439.962,1.808,1.808,0,0,0,1.081.3,1.422,1.422,0,0,0,.91-.246A.787.787,0,0,0,78.451,14.328Z" transform="translate(774 9373)" fill="#1b3f5e"/>
      <path id="Trazado_808888" data-name="Trazado 808888" d="M562.945,352.021c-12.15-.157-39.816.552-51.887-3.2-7.7-2.39-23.207-13.762-25.565-21.781-4.14-14.081-8.264-28.168-12.6-42.191-.685-2.217-2.016-5.4-3.739-5.94-9.75-3.074-18.678-9.618-30-6.464a41.758,41.758,0,0,1-24.243-.467c-4.04-1.277-8.906-.971-13.191-.211-7.332,1.3-14.439,3.845-21.76,5.242-4.857.926-7.168,3.559-8.712,7.954-4.947,14.086-10.206,28.063-15.25,42.116-5.515,15.366-5.384,15.182-20.208,8.889-5.358-2.275-7.674-5.333-7.411-11.261.419-9.454-.091-18.945.188-28.409.134-4.544-1.817-6.441-5.852-8.089-13.5-5.516-26.462-5.061-39.491,1.546-4.04,2.048-6.358,4.218-6.074,9,.442,7.451.524,14.926.676,22.392.163,7.991-10.717,24.639-18.362,26.647a151.13,151.13,0,0,1-24.48,4.166c-7.416.681-14.943.143-22.421.143h-40q-.029.962-.058,1.924h8.427c122.165,0,259.842,0,382.007.016Zm-136.53-18.766c-.051-8.448.033-16.9.065-25.344.013-3.652.94-6.165,5.494-6.049,4.494.114,5.347,2.55,5.309,6.267-.075,7.205.369,14.438-.119,21.61-.441,6.466,1.2,11.12,7.541,13.667,1.4.562,2.416,2.072,3.837,3.349C436.6,351.085,426.484,344.665,426.415,333.254Z" transform="translate(272.077 8875.469)" fill="#1b3f5e"/>
      <path id="Trazado_808889" data-name="Trazado 808889" d="M548.723,1189.646c-30.615-.117-69.037-.018-99.653-.145-2-.008-4.593-.742-5.884-2.109-3.225-3.414-2.859-19.62.68-22.7,7.068-6.157,14.55-11.842,21.937-17.625a5.029,5.029,0,0,1,2.864-.467c5.724.016,9.7-2.83,11.23-8.1,1.59-5.464.4-10.436-3.238-15.368-4.588-6.216-8.211-13.186-11.863-20.037-2.938-5.511-6.422-9.42-13.373-8.125-1.375.256-3.492.535-4.193-.208-7.207-7.642-13.937-5.242-18.995-.135-9.907-3.922-18.492-7.865-27.461-10.511-2.407-.71-6.216,2.191-8.932,4.08-1.684,1.172-2.523,3.559-4.006,5.8-8.993-4.069-13.982.988-17.811,8.573-7.97-4.516-14.949-5.1-20.411,3.3-.621.955-3.01,1.171-4.532,1.063-9.957-.709-15.023,4.109-13.793,14.206.494,4.053-.453,6.112-3.718,8.527-5.1,3.769-7.627,9.189-5.6,15.766,2.114,6.861,6.47,10.9,14.027,11.259,9.208.439,15.226,6.242,19.017,13.747,5.443,10.776-.035,19.16-11.752,19.161q-91.943.009-183.885.064c-3.11,0-6.218.89-9.327,1.365H549C548.9,1190.572,548.81,1190.109,548.723,1189.646Zm-101.446-44.722c2.727-2.261,8.53-.813,12.97-1.009l1.081,2.883-17.891,12.609-2.045-1.333C443.238,1153.55,443.961,1147.674,447.277,1144.924Zm-92.311,17.181-11.518-8.29,7.838-5.086,5.92,11.72Zm26.2-8.969-16.63,9.446C366.841,1150.363,367.121,1150.209,381.165,1153.137Zm13.407,31.8c0,1.525-3.526,3.825-5.775,4.392-3.027.762-6.391.189-9.611.189v.083a3.9,3.9,0,0,1-.742-.006c-5.05-.994-11.971,3.043-14.3-5.289-2.81-10.066-.415-16.69,7.8-21.524,1.706-1,3.464-1.92,5.193-2.887,8.442-4.719,11.56-4.632,15.333,4.3C395.067,1170.352,394.564,1177.974,394.571,1184.941Zm23.318,4.665c-14.414,0-15.036-.693-15.006-16.674.014-7.226,8.894-17.463,15.429-17.787,5.9-.293,15.469,12.613,15.365,20.729C433.516,1188.487,432.229,1189.607,417.889,1189.605Zm13.793-30.232-8.944-7.81,4.916-6.926,2.455.074q1.847,6.935,3.693,13.871Z" transform="translate(286.339 8359.295)" fill="#1b3f5e"/>
      <path id="Trazado_808890" data-name="Trazado 808890" d="M657.317,674.879c.313-5.312.555-9.419.868-14.74,4.866,0,9.548-.422,14.075.232,1.547.224,3.684,3.053,3.856,4.853a106.207,106.207,0,0,1,.133,16.414c-.275,4.572,1.542,7.243,5.372,9.623,12.631,7.848,25.04,16.052,37.859,24.33-5.122,5.594-9.485,6.2-15.7,2.113-26.634-17.489-53.682-34.346-80.372-51.751-4.508-2.939-7.634-2.773-11.988.054-26.515,17.221-53.343,33.961-79.729,51.373-6.123,4.04-10.6,4.241-15.807-1.4a45.928,45.928,0,0,1,3.9-3.146c30.759-19.812,61.606-39.488,92.234-59.5,4.363-2.85,7.333-2.4,11.276.3,8.6,5.88,17.462,11.391,26.262,16.98C651.762,672.019,654.145,673.15,657.317,674.879Z" transform="translate(54.045 8633.994)" fill="#1b3f5e"/>
      <path id="Trazado_808891" data-name="Trazado 808891" d="M592.9,979.356c-1.114.023-10.281.022-11.745.02-65.857-.1-131.714-.338-197.571-.333q-109.5.008-219,.343-3.615.006-7.231,0l.008,1.769H593.186C593.078,980.558,592.981,979.959,592.9,979.356Z" transform="translate(281.7 8425.848)" fill="#12263f"/>
      <path id="Trazado_808892" data-name="Trazado 808892" d="M238.556,613.779l-10.6-7.475v3.6H167.209v7.759h60.749v3.974Z" transform="translate(275.444 8668.26)" fill="#363b40"/>
      <path id="Trazado_808893" data-name="Trazado 808893" d="M238.556,676.779l-10.6-7.475v3.6H167.209v7.759h60.749v3.974Z" transform="translate(275.444 8623.807)" fill="#363b40"/>
      <path id="Trazado_808894" data-name="Trazado 808894" d="M238.556,735.922l-10.6-7.475v3.6H167.209V739.8h60.749v3.974Z" transform="translate(275.444 8582.074)" fill="#363b40"/>
      <g id="Grupo_1067748" data-name="Grupo 1067748" transform="translate(851.104 9325.85)">
        <path id="Trazado_808895" data-name="Trazado 808895" d="M1308.138,762.235,1191.281,785.7v4.928l17.6-3.463v56.26h5.4V786.1l79.078-15.562v72.884h5.632V769.433l9.152-1.8Z" transform="translate(-1191.281 -762.235)" fill="#12263f"/>
      </g>
      <g id="Grupo_1067752" data-name="Grupo 1067752" transform="translate(436.001 9274.167)">
        <g id="Grupo_1067749" data-name="Grupo 1067749" transform="translate(0 103.316)">
          <rect id="Rectángulo_375242" data-name="Rectángulo 375242" width="2.189" height="1.46" transform="matrix(0.901, -0.433, 0.433, 0.901, 0, 0.948)" fill="#475d37"/>
        </g>
        <g id="Grupo_1067750" data-name="Grupo 1067750" transform="translate(5.921)">
          <path id="Trazado_808896" data-name="Trazado 808896" d="M165.84,723.369l-.635-1.314,3.954-1.913.637,1.314C168.336,722.163,167.012,722.8,165.84,723.369Zm7.908-3.83-.637-1.314q1.879-.912,3.95-1.919l.639,1.313Zm7.9-3.842-.64-1.313,3.947-1.925.641,1.312Zm7.893-3.856-.642-1.311q1.938-.949,3.943-1.933l.644,1.311Zm7.886-3.868-.644-1.31q1.95-.958,3.939-1.94l.646,1.31Zm7.878-3.884-.647-1.309,3.935-1.948.648,1.308Q207.267,703.119,205.307,704.089Zm7.866-3.9-.65-1.308q1.966-.977,3.931-1.958l.652,1.306Q215.14,699.21,213.172,700.189Zm7.867-3.927-.654-1.305q1.971-.987,3.923-1.97l.656,1.3Q223.013,695.273,221.04,696.262Zm7.847-3.949-.659-1.3q1.978-1,3.915-1.985l.662,1.3Q230.868,691.311,228.887,692.313Zm7.832-3.982-.665-1.3q1.987-1.017,3.9-2.005l.669,1.3Q238.709,687.312,236.718,688.331Zm7.81-4.028-.674-1.3q2-1.041,3.888-2.034l.68,1.292Q246.535,683.26,244.529,684.3Zm7.777-4.113-.707-1.277c1.2-.666,2.475-1.4,3.782-2.178l.748,1.254C254.808,678.776,253.521,679.517,252.306,680.19Zm7.579-4.5-.777-1.236c1.164-.731,2.4-1.526,3.684-2.362l.8,1.223C262.3,674.15,261.055,674.95,259.884,675.686Zm7.372-4.8-.813-1.213q1.8-1.2,3.631-2.455l.822,1.207Q269.057,669.674,267.256,670.883Zm7.264-4.943-.827-1.2q1.669-1.148,3.37-2.321l.244-.168.829,1.2-.244.168Q276.19,664.79,274.52,665.939Zm339.317-1.957c-1.445-.007-2.923-.022-4.393-.046l.024-1.46c1.464.024,2.936.039,4.376.045Zm4.395-.007-.011-1.46c1.461-.011,2.933-.032,4.377-.062l.03,1.46C621.178,663.943,619.7,663.964,618.232,663.975Zm-13.178-.135q-2.2-.06-4.388-.144l.056-1.459q2.179.083,4.372.144Zm21.967-.046-.049-1.459c1.46-.049,2.931-.109,4.372-.179l.07,1.458C629.968,663.684,628.489,663.745,627.022,663.794Zm-30.738-.289q-2.2-.107-4.389-.235l.085-1.458q2.177.128,4.374.234Zm39.524-.135-.092-1.457c1.467-.092,2.935-.2,4.365-.308l.114,1.456C638.758,663.174,637.281,663.278,635.807,663.371Zm-48.3-.378q-2.2-.151-4.382-.32l.112-1.456q2.173.169,4.369.319Zm57.069-.311-.138-1.453c1.46-.139,2.924-.291,4.352-.452l.163,1.451C647.519,662.388,646.046,662.541,644.578,662.681Zm-65.83-.368q-2.2-.191-4.376-.4l.138-1.454q2.165.206,4.363.4Zm74.576-.619-.19-1.448c1.456-.191,2.914-.4,4.331-.611l.218,1.444C656.256,661.295,654.789,661.5,653.324,661.694ZM570,661.479q-2.2-.229-4.368-.472l.162-1.451q2.158.241,4.357.47Zm-288.25-.518-.827-1.2q1.795-1.233,3.624-2.481l.822,1.207Q283.542,659.728,281.749,660.961Zm279.518-.461q-2.205-.265-4.36-.541l.185-1.448q2.149.275,4.348.539Zm100.762-.124-.248-1.439c1.445-.249,2.892-.514,4.3-.789l.28,1.433C664.942,659.859,663.485,660.126,662.03,660.377Zm-109.477-.991q-2.207-.3-4.351-.606l.207-1.445q2.138.306,4.34.6Zm-8.7-1.243q-2.213-.332-4.342-.668l.227-1.442q2.123.335,4.331.667Zm-8.679-1.366q-2.222-.365-4.332-.727l.246-1.439q2.1.36,4.323.725ZM289,656.026l-.815-1.211q1.812-1.218,3.656-2.438l.8,1.218Q290.806,654.81,289,656.026Zm237.518-.73q-.977-.174-1.925-.345c-.774-.139-1.583-.295-2.405-.46l.289-1.431c.812.164,1.612.317,2.376.455l1.921.344Zm-8.639-1.741c-1.353-.314-2.793-.664-4.28-1.042l.36-1.415c1.477.376,2.907.724,4.249,1.035Zm-8.536-2.162c-1.346-.365-2.771-.761-4.237-1.178l.4-1.4c1.46.415,2.88.81,4.22,1.174Zm-213.03-.194-.792-1.226c1.245-.805,2.493-1.6,3.707-2.365l.777,1.236C298.8,649.6,297.553,650.4,296.312,651.2Zm204.571-2.205q-2.076-.61-4.212-1.252l.42-1.4q2.131.641,4.2,1.25Zm-197.159-2.457-.761-1.246c1.268-.774,2.537-1.535,3.772-2.263l.741,1.258C306.249,645.008,304.987,645.766,303.725,646.535Zm188.744-.07q-2.075-.633-4.2-1.288l.43-1.4q2.121.653,4.194,1.287Zm-8.392-2.583-4.193-1.3.431-1.4,4.193,1.3ZM311.266,642.1l-.719-1.271c1.283-.726,2.575-1.442,3.84-2.126l.7,1.284C313.825,640.664,312.541,641.375,311.266,642.1Zm164.425-.8q-2.081-.64-4.2-1.284l.426-1.4q2.115.644,4.2,1.285Zm-8.393-2.554q-2.087-.628-4.2-1.254l.414-1.4q2.118.626,4.209,1.256Zm-148.358-.791-.668-1.3c1.312-.675,2.634-1.336,3.93-1.966l.638,1.313C321.555,636.623,320.242,637.279,318.94,637.948Zm139.948-1.7q-2.1-.608-4.214-1.208l.4-1.4q2.122.6,4.223,1.211Zm-132.1-2.112-.606-1.329c1.344-.613,2.7-1.209,4.025-1.772l.571,1.344C329.461,632.941,328.119,633.532,326.786,634.14Zm123.667-.276q-2.106-.58-4.23-1.148l.377-1.411q2.129.568,4.241,1.151Zm-8.468-2.261q-2.117-.545-4.248-1.073l.351-1.417q2.137.529,4.261,1.076Zm-107.175-.867-.533-1.36c1.372-.537,2.758-1.057,4.12-1.543l.492,1.375C337.542,629.69,336.169,630.2,334.811,630.737Zm98.66-1.239c-1.438-.339-2.876-.67-4.275-.984l.319-1.425c1.4.315,2.848.647,4.291.988Zm-90.459-1.69-.448-1.39c1.4-.451,2.816-.881,4.209-1.279l.4,1.4C345.8,626.936,344.4,627.362,343.011,627.808Zm81.9-.227c-1.427-.3-2.871-.6-4.291-.876l.282-1.433c1.426.281,2.877.577,4.31.88Zm-8.591-1.692c-1.444-.263-2.894-.516-4.309-.751l.24-1.44c1.422.237,2.879.491,4.331.755Zm-64.935-.47L351.033,624c1.431-.355,2.878-.686,4.3-.984l.3,1.429C354.228,624.741,352.8,625.068,351.385,625.419Zm56.31-.963c-1.447-.216-2.9-.42-4.325-.607l.189-1.448c1.432.188,2.9.393,4.351.61Zm-47.782-.821-.245-1.439c1.45-.246,2.919-.466,4.364-.654l.188,1.448C362.794,623.176,361.344,623.393,359.913,623.636Zm39.125-.312c-1.455-.162-2.914-.311-4.339-.44l.133-1.454c1.435.131,2.9.28,4.369.444Zm-8.7-.789c-1.457-.1-2.925-.185-4.362-.25l.066-1.459c1.449.066,2.928.151,4.4.253Zm-21.793-.016-.129-1.454c1.464-.13,2.946-.231,4.4-.3l.069,1.458C371.454,622.291,369.992,622.39,368.548,622.518Zm13.064-.379c-1.464-.03-2.927-.041-4.367-.031l-.009-1.46c1.453-.009,2.93,0,4.406.031Z" transform="translate(-165.205 -620.645)" fill="#475d37"/>
        </g>
        <g id="Grupo_1067751" data-name="Grupo 1067751" transform="translate(510.977 36.161)">
          <path id="Trazado_808897" data-name="Trazado 808897" d="M1549.169,721.617l-.313-1.427q1.068-.233,2.128-.479l.329,1.423Q1550.245,721.382,1549.169,721.617Z" transform="translate(-1548.856 -719.712)" fill="#475d37"/>
        </g>
      </g>
      <g id="Grupo_1067756" data-name="Grupo 1067756" transform="translate(436.083 9273.86)">
        <g id="Grupo_1067753" data-name="Grupo 1067753" transform="translate(0 115.093)">
          <path id="Trazado_808898" data-name="Trazado 808898" d="M149.678,937.2l-.469-1.382s.722-.245,2.068-.707l.474,1.381C150.4,936.959,149.678,937.2,149.678,937.2Z" transform="translate(-149.209 -935.115)" fill="#475d37"/>
        </g>
        <g id="Grupo_1067754" data-name="Grupo 1067754" transform="translate(6.18)">
          <path id="Trazado_808899" data-name="Trazado 808899" d="M166.618,734.862l-.477-1.38c1.217-.421,2.6-.9,4.124-1.431l.48,1.379C169.217,733.962,167.837,734.44,166.618,734.862Zm8.248-2.871-.483-1.378q1.951-.683,4.115-1.445l.485,1.378Q176.822,731.306,174.867,731.991Zm8.232-2.9-.487-1.377q1.989-.7,4.108-1.457l.489,1.376Q185.091,728.389,183.1,729.094Zm8.218-2.923-.491-1.375q2.007-.717,4.1-1.47l.494,1.374Q193.326,725.453,191.316,726.171Zm8.207-2.949-.5-1.373q2.018-.729,4.1-1.483l.5,1.372Q201.543,722.493,199.523,723.223Zm8.2-2.975-.5-1.372q2.024-.739,4.091-1.5l.5,1.371Q209.745,719.508,207.719,720.248Zm8.184-3-.506-1.37q2.027-.748,4.085-1.513l.508,1.369Q217.934,716.494,215.9,717.243Zm8.172-3.036-.511-1.367q2.03-.759,4.078-1.53l.515,1.367Q226.108,713.448,224.076,714.208Zm8.16-3.069-.517-1.366q2.027-.768,4.061-1.544l.521,1.364Q234.265,710.37,232.235,711.138Zm8.133-3.1-.523-1.363q2.034-.782,4.069-1.57l.528,1.362Q242.406,707.253,240.369,708.036Zm8.136-3.153-.531-1.36q2.032-.794,4.054-1.591l.536,1.358Q250.539,704.088,248.5,704.883Zm8.111-3.2-.54-1.357q2.032-.809,4.043-1.618l.545,1.355Q258.65,700.875,256.615,701.685Zm8.09-3.256-.55-1.352q2.03-.826,4.029-1.65l.556,1.349Q266.739,697.6,264.705,698.429Zm8.064-3.323-.563-1.348q2.029-.847,4.013-1.689l.57,1.344Q274.8,694.257,272.769,695.106ZM280.8,691.7l-.579-1.34q2.026-.875,3.991-1.738l.587,1.337Q282.832,690.821,280.8,691.7Zm7.989-3.514-.6-1.332q2.023-.909,3.961-1.8l.611,1.326Q290.82,687.271,288.789,688.184Zm7.93-3.658-.626-1.319c1.351-.642,2.669-1.279,3.916-1.893l.645,1.31C299.4,683.241,298.077,683.881,296.719,684.526Zm7.841-3.87-.669-1.3c1.349-.7,2.64-1.382,3.836-2.036l.7,1.281C307.222,679.264,305.92,679.954,304.56,680.656Zm7.677-4.224-.748-1.254q.434-.258.85-.513c.914-.559,1.868-1.153,2.834-1.767l.782,1.233c-.973.618-1.934,1.217-2.855,1.779Q312.678,676.17,312.237,676.432Zm7.385-4.674-.8-1.219c1.147-.756,2.361-1.569,3.61-2.417l.82,1.208C321.994,670.182,320.774,671,319.622,671.759Zm7.221-4.9-.832-1.2q1.774-1.23,3.565-2.491l.84,1.195Q328.621,665.629,326.843,666.863Zm7.132-5.008-.844-1.192,3.552-2.518.844,1.191Zm7.1-5.034-.842-1.193q1.772-1.252,3.564-2.507l.837,1.2Q342.849,655.57,341.08,656.821Zm7.13-4.984-.829-1.2q1.787-1.232,3.593-2.455l.818,1.209Q349.991,650.607,348.21,651.836Zm208.012-2.655q-.807,0-1.594-.01l.017-1.46c1.393.017,2.846.011,4.331-.017l.028,1.46C558.063,649.172,557.127,649.181,556.222,649.181Zm-5.974-.146c-1.553-.081-3.027-.2-4.38-.346l.159-1.451c1.326.145,2.772.26,4.3.339Zm13.126-.021-.065-1.459c1.411-.063,2.868-.144,4.331-.242l.1,1.457C566.264,648.869,564.8,648.951,563.375,649.014Zm8.719-.576-.126-1.455c1.421-.123,2.875-.261,4.322-.412l.151,1.452C574.985,648.175,573.523,648.315,572.094,648.438Zm-30.592-.414c-.465-.095-.917-.2-1.343-.3-.9-.226-1.889-.488-2.926-.78l.395-1.406c1.025.288,2,.546,2.886.769.406.1.837.2,1.281.29Zm39.279-.49-.176-1.449c1.422-.173,2.87-.36,4.306-.558l.2,1.447C583.666,647.171,582.209,647.36,580.78,647.534Zm-225.38-.556-.8-1.219c1.239-.818,2.468-1.617,3.654-2.377l.788,1.23C357.857,645.368,356.633,646.164,355.4,646.978Zm234.029-.635-.222-1.443c1.428-.22,2.87-.453,4.286-.695l.245,1.439C592.314,645.887,590.864,646.122,589.429,646.342Zm-56.39-.641c-1.245-.384-2.606-.814-4.16-1.315l.448-1.39c1.548.5,2.9.927,4.142,1.309Zm65-.824-.268-1.435c1.428-.267,2.861-.547,4.261-.833l.292,1.43C600.913,644.326,599.471,644.609,598.036,644.877Zm8.557-1.749-.317-1.425c1.422-.317,2.844-.647,4.228-.983l.344,1.419C609.454,642.477,608.023,642.809,606.592,643.128Zm-81.857-.095q-1.93-.636-3.972-1.314l-.162-.054.46-1.386.162.054q2.04.676,3.97,1.314ZM362.709,642.3l-.768-1.242c1.258-.777,2.514-1.538,3.733-2.262l.745,1.256C365.207,640.772,363.959,641.528,362.709,642.3Zm252.373-1.234-.373-1.412c1.416-.374,2.823-.763,4.181-1.155l.405,1.4C617.926,640.3,616.509,640.689,615.082,641.066Zm-98.614-.769q-2.02-.666-4.134-1.356l.452-1.389q2.117.69,4.139,1.358Zm107.012-1.662-.442-1.391.61-.2c1.187-.382,2.385-.753,3.559-1.1l.416,1.4c-1.164.346-2.351.713-3.528,1.092Zm-253.308-.756-.719-1.271c1.289-.728,2.577-1.437,3.829-2.107l.688,1.287C372.729,636.452,371.451,637.156,370.172,637.879Zm138.022-.274q-2.034-.65-4.147-1.309l.435-1.394q2.116.66,4.156,1.312Zm123.6-1.432-.376-1.411c1.416-.377,2.844-.734,4.243-1.063l.334,1.421C634.608,635.445,633.194,635.8,631.792,636.173Zm-131.9-1.155q-2.05-.621-4.166-1.241l.41-1.4q2.122.621,4.179,1.245Zm140.329-.82-.288-1.431c1.439-.29,2.888-.556,4.3-.792l.24,1.44C643.077,633.648,641.645,633.911,640.222,634.2Zm-262.4-.407-.656-1.3c1.318-.662,2.642-1.3,3.934-1.91l.619,1.322C380.435,632.5,379.124,633.134,377.818,633.791Zm270.939-1.008-.187-1.448c1.467-.189,2.933-.349,4.356-.474l.128,1.454C651.65,632.438,650.2,632.6,648.757,632.782Zm-157.207-.206q-2.066-.582-4.188-1.156l.381-1.409q2.131.575,4.2,1.161Zm165.814-.548-.063-1.459c1.228-.053,2.439-.08,3.6-.08.27,0,.534,0,.789,0l-.016,1.46q-.376,0-.774,0C659.761,631.951,658.57,631.977,657.364,632.029Zm-174.2-1.718c-1.4-.361-2.816-.718-4.213-1.06l.348-1.418c1.4.344,2.825.7,4.229,1.065Zm-97.5-.187-.578-1.341c1.35-.582,2.711-1.142,4.046-1.665l.533,1.359C388.346,628.994,387,629.548,385.665,630.123Zm89.058-1.882c-1.408-.327-2.833-.648-4.237-.954l.311-1.426c1.41.308,2.842.63,4.256.958Zm-81-1.272-.484-1.378c1.384-.486,2.782-.948,4.155-1.371l.43,1.4C396.465,626.034,395.085,626.49,393.718,626.97Zm72.518-.58c-1.413-.289-2.846-.571-4.261-.84l.272-1.435c1.421.27,2.861.553,4.281.844Zm-8.532-1.618c-1.422-.249-2.863-.49-4.282-.717l.231-1.442c1.427.228,2.875.471,4.3.721Zm-55.737-.345-.373-1.412c1.414-.375,2.844-.721,4.249-1.029l.313,1.426C404.771,623.715,403.362,624.057,401.967,624.426ZM449.13,623.4c-1.426-.206-2.873-.4-4.3-.588l.187-1.448c1.435.185,2.89.384,4.323.591Zm-38.739-.82-.249-1.438c1.44-.249,2.9-.467,4.335-.647l.182,1.449C413.245,622.121,411.809,622.335,410.392,622.58Zm30.127-.29c-1.436-.162-2.888-.315-4.317-.453l.141-1.453c1.436.139,2.9.292,4.34.455Zm-21.569-.781-.112-1.456c1.453-.112,2.927-.189,4.379-.23l.041,1.459C421.83,621.322,420.381,621.4,418.95,621.509Zm12.935-.047c-1.428-.1-2.878-.166-4.312-.2l.031-1.46c1.457.03,2.932.1,4.383.2Z" transform="translate(-166.141 -619.806)" fill="#475d37"/>
        </g>
        <g id="Grupo_1067755" data-name="Grupo 1067755" transform="translate(505.792 10.867)">
          <path id="Trazado_808900" data-name="Trazado 808900" d="M1536.987,651.265c-.007,0-.735-.124-2.111-.234l.116-1.455c1.45.116,2.209.245,2.241.25Z" transform="translate(-1534.876 -649.576)" fill="#475d37"/>
        </g>
      </g>
      <g id="Grupo_1067760" data-name="Grupo 1067760" transform="translate(436.17 9294.705)">
        <g id="Grupo_1067757" data-name="Grupo 1067757" transform="translate(510.797 1.088)">
          <path id="Trazado_808901" data-name="Trazado 808901" d="M1549.241,681.917l-.414-1.4c1.36-.4,2.088-.625,2.09-.625l.428,1.4S1550.612,681.512,1549.241,681.917Z" transform="translate(-1548.827 -679.892)" fill="#475d37"/>
        </g>
        <g id="Grupo_1067758" data-name="Grupo 1067758" transform="translate(5.887)">
          <path id="Trazado_808902" data-name="Trazado 808902" d="M166.036,779.569l-.461-1.385c1.268-.422,2.645-.917,4.094-1.471l.522,1.364C168.722,778.638,167.324,779.141,166.036,779.569Zm8.245-3.13-.562-1.347c1.276-.532,2.626-1.113,4.013-1.727l.591,1.335C176.926,775.318,175.567,775.9,174.281,776.439Zm8.046-3.552-.613-1.325c1.283-.595,2.615-1.222,3.956-1.865l.63,1.317C184.953,771.66,183.616,772.29,182.327,772.887Zm7.924-3.791-.646-1.31q1.926-.948,3.917-1.952l.657,1.3Q192.182,768.145,190.251,769.1Zm7.839-3.948-.667-1.3q1.919-.985,3.887-2.013l.675,1.295Q200.013,764.161,198.089,765.149Zm7.778-4.058-.683-1.29q1.914-1.012,3.865-2.057l.689,1.287Q207.784,760.077,205.867,761.091Zm7.732-4.14-.695-1.284q1.909-1.033,3.847-2.091l.7,1.282Q215.51,755.916,213.6,756.951Zm7.7-4.2-.7-1.279q1.905-1.049,3.833-2.118l.708,1.277Q223.2,751.7,221.295,752.749Zm7.667-4.251-.711-1.275q1.9-1.062,3.822-2.138l.714,1.273Q230.867,747.437,228.962,748.5Zm7.645-4.288-.717-1.272q1.9-1.071,3.813-2.154l.719,1.271Q238.509,743.139,236.607,744.211Zm7.627-4.316-.721-1.27q1.9-1.079,3.807-2.166l.723,1.269Q246.136,738.814,244.234,739.894Zm7.615-4.339-.725-1.267,3.815-2.182.726,1.267Zm7.624-4.365-.726-1.267,3.8-2.181.727,1.266Zm7.6-4.362-.727-1.266,3.789-2.178.727,1.266Zm7.587-4.361-.728-1.266,3.8-2.184.727,1.266Zm7.6-4.365-.726-1.266,3.8-2.18.726,1.267Zm7.6-4.356-.725-1.267,3.805-2.173.723,1.268Q291.769,712.652,289.856,713.747Zm7.61-4.34-.722-1.269q1.921-1.092,3.812-2.163l.719,1.271Q299.387,708.315,297.467,709.407Zm7.624-4.315-.717-1.272q1.93-1.087,3.822-2.147l.713,1.274Q307.019,704.005,305.09,705.091Zm232.265-1.432c-1.493-.018-2.972-.056-4.4-.113l.058-1.459c1.411.056,2.876.094,4.356.112Zm4.394,0-.017-1.46c1.416-.017,2.884-.05,4.363-.1l.049,1.459C544.656,703.608,543.177,703.642,541.75,703.659Zm8.784-.289-.076-1.458c1.42-.074,2.887-.164,4.36-.266l.1,1.457C553.439,703.2,551.964,703.3,550.535,703.37Zm-21.969-.066c-1.5-.108-2.972-.241-4.386-.4l.158-1.452c1.4.153,2.854.284,4.333.39Zm30.733-.541-.124-1.455c1.427-.121,2.891-.257,4.352-.4l.144,1.453C562.2,702.506,560.732,702.641,559.3,702.763Zm-39.492-.428c-1.495-.232-2.957-.5-4.345-.789l.3-1.429c1.363.286,2.8.547,4.268.774Zm48.229-.437-.163-1.451c1.425-.16,2.886-.333,4.342-.514l.18,1.449C570.934,701.563,569.467,701.736,568.036,701.9Zm8.711-1.083-.2-1.447q2.168-.294,4.34-.612l.211,1.445Q578.923,700.519,576.747,700.815Zm-264.014,0-.709-1.276q1.942-1.08,3.836-2.124l.7,1.279Q314.674,699.733,312.734,700.812Zm198.442-.284q-2.09-.521-4.249-1.068l.358-1.416q2.157.546,4.245,1.067Zm74.269-.984-.226-1.443q2.162-.337,4.319-.693l.238,1.44Q587.614,699.206,585.445,699.544Zm-82.765-1.162-4.244-1.082.361-1.415,4.244,1.082Zm91.415-.266-.25-1.439q2.156-.375,4.3-.765l.262,1.437Q596.258,697.74,594.1,698.116ZM320.4,696.585l-.7-1.282q1.96-1.069,3.856-2.091l.692,1.285Q322.362,695.518,320.4,696.585Zm282.31-.039-.272-1.434q2.16-.411,4.3-.833l.283,1.433Q604.881,696.134,602.715,696.546Zm-108.522-.328q-2.1-.534-4.243-1.077l.358-1.415q2.144.543,4.246,1.078Zm117.129-1.371-.293-1.43q2.159-.442,4.284-.892l.3,1.428Q613.486,694.4,611.321,694.847ZM485.7,694.072q-2.106-.528-4.247-1.058l.351-1.417q2.143.531,4.251,1.059Zm134.2-1.04-.311-1.427q2.161-.472,4.274-.946l.32,1.424Q622.069,692.558,619.9,693.031Zm-291.787-.6-.684-1.29q1.986-1.053,3.885-2.042l.674,1.3Q330.1,691.383,328.116,692.434Zm149.091-.464q-2.112-.515-4.254-1.027l.34-1.42q2.144.513,4.26,1.029Zm151.254-.862-.328-1.423q2.164-.5,4.263-1l.337,1.421Q630.631,690.607,628.461,691.108ZM468.7,689.936q-2.121-.5-4.263-.985l.325-1.423q2.146.489,4.27.987Zm168.3-.85-.345-1.419q2.171-.528,4.251-1.046l.353,1.417Q639.173,688.555,637,689.085ZM335.877,688.4l-.65-1.307c1.3-.646,2.649-1.27,4.011-1.853l.575,1.342C338.477,687.157,337.152,687.769,335.877,688.4Zm124.288-.412q-2.128-.472-4.274-.933l.307-1.428q2.15.462,4.283.935Zm185.344-1.025-.36-1.415q2.188-.557,4.24-1.093l.369,1.413Q647.7,686.407,645.508,686.966Zm-193.888-.809q-2.134-.442-4.279-.869l.285-1.432q2.151.428,4.29.871Zm-107.773-1.174-.5-1.371c1.358-.5,2.765-.975,4.182-1.418l.435,1.394C346.567,684.024,345.183,684.493,343.848,684.983ZM654,684.753l-.376-1.411q2.222-.592,4.228-1.14l.384,1.409Q656.23,684.158,654,684.753Zm-210.945-.3q-2.144-.407-4.3-.8l.26-1.437q2.159.389,4.309.8Zm-8.6-1.552q-2.155-.367-4.314-.712l.23-1.442q2.165.345,4.329.714Zm228.014-.459-.393-1.406c1.563-.436,2.973-.836,4.215-1.192l.4,1.4C665.447,681.605,664.034,682.006,662.467,682.443Zm-310.328-.055-.371-1.412c1.4-.367,2.838-.714,4.289-1.032l.312,1.426C354.939,681.684,353.516,682.026,352.14,682.388Zm73.677-.863c-1.448-.214-2.906-.421-4.332-.614l.2-1.447c1.432.194,2.9.4,4.349.616Zm-65.182-1-.257-1.437c1.421-.254,2.883-.489,4.348-.7l.206,1.445C363.484,680.041,362.039,680.273,360.635,680.524Zm56.509-.171c-1.45-.177-2.913-.345-4.349-.5l.157-1.451c1.442.155,2.912.325,4.369.5Zm-8.694-.935c-1.459-.135-2.923-.259-4.351-.367l.111-1.456c1.436.11,2.908.234,4.374.369Zm-39.2-.126-.159-1.452c1.43-.157,2.9-.3,4.38-.412l.115,1.455C372.125,679,370.666,679.137,369.251,679.292Zm30.492-.535c-1.463-.086-2.93-.158-4.359-.215l.058-1.459c1.439.058,2.914.13,4.387.217Zm-21.805-.156-.075-1.459c1.437-.074,2.916-.13,4.4-.169l.038,1.46C380.83,678.471,379.363,678.527,377.938,678.6Zm13.084-.19c-1.317-.026-2.64-.039-3.934-.039h-.429l0-1.46h.433c1.3,0,2.636.013,3.962.039Z" transform="translate(-165.575 -676.912)" fill="#475d37"/>
        </g>
        <g id="Grupo_1067759" data-name="Grupo 1067759" transform="translate(0 102.415)">
          <path id="Trazado_808903" data-name="Trazado 808903" d="M149.743,959.414l-.295-1.43c.657-.136,1.361-.3,2.091-.495l.373,1.412C151.156,959.1,150.426,959.273,149.743,959.414Z" transform="translate(-149.448 -957.489)" fill="#475d37"/>
        </g>
      </g>
      <g id="Grupo_1067762" data-name="Grupo 1067762" transform="translate(816.457 9148.374)">
        <path id="Trazado_808904" data-name="Trazado 808904" d="M1308.138,276.024l-116.858,23.465v4.928l17.6-3.463v56.26h5.4V299.892l79.078-15.562v72.884h5.632V283.222l9.152-1.8Z" transform="translate(-1191.281 -276.024)" fill="#12263f"/>
      </g>
      <g id="Grupo_1067763" data-name="Grupo 1067763" transform="translate(850.717 9182.399)">
        <path id="Trazado_808905" data-name="Trazado 808905" d="M1285.138,379.211V416.4H1291V401.621h43.646V416.4h5.866V369.238Zm49.277,2.229h-29.566l29.566-5.632Z" transform="translate(-1285.138 -369.238)" fill="#12263f"/>
      </g>
      <g id="Grupo_1067764" data-name="Grupo 1067764" transform="translate(442.263 9124.456)">
        <path id="Trazado_808906" data-name="Trazado 808906" d="M166.919,301.386l-.78-1.234a36.77,36.77,0,0,1,3.982-2.049l.607,1.328A36.248,36.248,0,0,0,166.919,301.386Zm7.807-3.638-.53-1.361c1.319-.514,2.714-1.02,4.147-1.505l.468,1.383C177.4,296.743,176.025,297.242,174.726,297.748Zm8.234-2.8-.416-1.4c1.371-.408,2.8-.807,4.241-1.185l.37,1.412C185.728,294.15,184.316,294.544,182.96,294.948Zm8.426-2.213-.328-1.423c1.4-.323,2.848-.637,4.3-.93l.289,1.431C194.21,292.1,192.776,292.414,191.387,292.734ZM199.932,291l-.254-1.437c1.426-.253,2.885-.493,4.338-.715l.221,1.443C202.8,290.511,201.347,290.749,199.932,291Zm8.625-1.324-.19-1.448c1.433-.188,2.9-.366,4.362-.527l.161,1.451C211.438,289.312,209.98,289.488,208.557,289.675Zm8.676-.963-.133-1.454c1.443-.132,2.916-.254,4.378-.361l.107,1.456C220.131,288.46,218.667,288.58,217.233,288.712Zm8.709-.641-.082-1.458c1.235-.07,2.5-.132,3.76-.185l.619-.029.073,1.458q-.314.016-.63.029C228.429,287.941,227.171,288,225.942,288.071Zm8.768-.542-.147-1.453c1.442-.146,2.887-.333,4.3-.555l.227,1.442C237.651,287.189,236.179,287.379,234.71,287.529Zm8.716-1.376-.309-1.427c1.406-.3,2.82-.654,4.2-1.038l.391,1.406C246.3,285.487,244.858,285.843,243.426,286.153Zm8.5-2.365-.472-1.382c1.352-.462,2.718-.972,4.059-1.516l.548,1.353C254.7,282.8,253.307,283.317,251.929,283.788Zm8.18-3.31-.619-1.322c1.281-.6,2.588-1.251,3.885-1.936l.682,1.291C262.739,279.206,261.411,279.868,260.109,280.477Zm7.8-4.112-.736-1.261c1.207-.7,2.459-1.466,3.718-2.262l.78,1.234C270.4,274.882,269.136,275.652,267.913,276.366Zm7.443-4.695-.815-1.211c1.147-.772,2.32-1.582,3.587-2.475l.841,1.194C277.695,270.078,276.513,270.893,275.357,271.671Zm7.177-5.044-.858-1.182q1.765-1.281,3.529-2.584l.866,1.176Q284.3,265.341,282.533,266.626Zm7.061-5.189-.866-1.176q1.758-1.294,3.537-2.59l.858,1.181Q291.346,260.144,289.594,261.437Zm7.08-5.13-.842-1.193c1.269-.9,2.45-1.715,3.61-2.5l.82,1.209C299.109,254.6,297.936,255.416,296.675,256.307Zm7.224-4.892-.79-1.228c1.259-.81,2.515-1.593,3.732-2.328l.754,1.25C306.388,249.837,305.145,250.613,303.9,251.415Zm7.459-4.492-.712-1.275c1.291-.721,2.6-1.42,3.882-2.077l.665,1.3C313.924,245.52,312.634,246.211,311.358,246.923Zm7.744-3.955-.613-1.325c1.336-.618,2.694-1.212,4.036-1.767l.558,1.349C321.758,241.773,320.419,242.359,319.1,242.969Zm8.03-3.315-.5-1.372c1.374-.5,2.778-.978,4.174-1.42l.441,1.392C329.87,238.689,328.486,239.16,327.132,239.653Zm8.294-2.685-.422-1.4q2.084-.63,4.206-1.252l.411,1.4Q337.5,236.34,335.426,236.968Zm8.4-2.462-.4-1.4q2.1-.6,4.225-1.184l.389,1.407Q345.919,233.912,343.825,234.507Zm8.438-2.331-.379-1.41q2.109-.566,4.241-1.123l.369,1.413Q354.368,231.61,352.263,232.175Zm8.471-2.213-.36-1.415q2.115-.537,4.244-1.064l.351,1.417Q362.844,229.426,360.734,229.963ZM621,228.741h-.437l0-1.46H621c1.322,0,2.645-.009,3.936-.028l.02,1.46C623.659,228.731,622.328,228.741,621,228.741Zm-4.83-.04c-1.437-.023-2.914-.057-4.391-.1l.043-1.459c1.47.044,2.941.078,4.371.1Zm13.179-.088-.046-1.459c1.469-.046,2.938-.106,4.366-.178l.074,1.459C632.306,228.506,630.828,228.566,629.35,228.612Zm-21.956-.173c-1.44-.062-2.914-.134-4.381-.214l.08-1.458c1.461.08,2.929.151,4.363.213Zm30.739-.271-.1-1.456c1.473-.1,2.937-.224,4.352-.356l.136,1.454C641.093,227.943,639.617,228.064,638.134,228.169Zm-39.5-.208q-2.2-.146-4.379-.313l.112-1.456q2.169.166,4.363.312Zm-229.417-.1-.341-1.419q2.127-.512,4.263-1.013l.333,1.422Q371.337,227.354,369.214,227.865Zm277.68-.517-.172-1.45c1.461-.173,2.915-.365,4.323-.572l.212,1.445C649.836,226.979,648.368,227.173,646.894,227.348Zm-57.017-.058q-2.2-.192-4.371-.4l.141-1.453q2.16.209,4.357.4Zm-8.738-.845q-2.207-.234-4.362-.482l.167-1.451q2.147.247,4.349.481Zm74.464-.379-.257-1.437c1.455-.26,2.893-.542,4.273-.839l.307,1.428C658.529,225.517,657.074,225.8,655.6,226.065Zm-277.87-.2-.324-1.424q2.139-.487,4.281-.962l.316,1.425Q379.867,225.383,377.732,225.87Zm194.686-.427q-2.214-.273-4.354-.556l.191-1.448q2.133.282,4.341.555Zm-8.7-1.147q-2.225-.312-4.344-.625l.214-1.444q2.111.312,4.333.624Zm100.5-.09-.363-1.414c1.338-.344,2.656-.713,3.919-1.1l.424,1.4C666.914,223.482,665.575,223.856,664.217,224.206Zm-277.932-.233-.307-1.427q2.15-.463,4.3-.913l.3,1.429Q388.432,223.511,386.286,223.973Zm168.748-.961q-2.249-.35-4.334-.691l.235-1.441q2.078.339,4.323.689Zm-160.16-.836-.291-1.431q2.154-.438,4.3-.86l.282,1.432Q397.023,221.739,394.873,222.176Zm151.5-.577c-1.539-.262-2.983-.515-4.323-.753l.255-1.438c1.338.238,2.779.489,4.313.751Zm-142.907-1.114-.273-1.434q2.163-.412,4.312-.808l.265,1.436Q405.623,220.073,403.464,220.485Zm134.265-.421-1.283-.238q-1.52-.283-3.029-.579l.28-1.433q1.5.294,3.015.576l1.281.237ZM412.074,218.9l-.255-1.437q2.171-.386,4.322-.753l.246,1.439Q414.242,218.514,412.074,218.9Zm117.045-.512q-1.537-.313-3.079-.631l-1.212-.249.293-1.43,1.212.249,3.077.63ZM420.7,217.425l-.236-1.441q2.181-.357,4.333-.694l.226,1.443Q422.881,217.069,420.7,217.425Zm99.834-.79q-2.122-.425-4.29-.838l.272-1.435q2.179.413,4.305.841Zm-91.185-.562-.215-1.444q2.191-.326,4.343-.628l.2,1.446Q431.539,215.749,429.353,216.074Zm82.6-1.059c-1.466-.256-2.915-.495-4.307-.71l.224-1.443c1.4.218,2.859.458,4.333.715Zm-73.93-.157-.19-1.448q2.2-.29,4.355-.552l.177,1.449Q440.218,214.569,438.021,214.858Zm8.687-1.058-.162-1.451c1.472-.164,2.941-.319,4.367-.462l.145,1.453C449.638,213.482,448.175,213.637,446.708,213.8Zm56.617-.121c-1.447-.194-2.9-.373-4.33-.531l.162-1.451c1.436.16,2.9.34,4.362.535Zm-47.913-.745-.126-1.455c1.487-.128,2.961-.245,4.38-.347l.1,1.456C458.359,212.69,456.893,212.806,455.413,212.934Zm39.243-.22c-1.44-.127-2.9-.239-4.349-.334l.095-1.457c1.458.1,2.933.208,4.383.337Zm-30.524-.4-.078-1.458c1.476-.08,2.952-.146,4.388-.2l.054,1.459C467.067,212.169,465.6,212.236,464.131,212.315Zm21.819-.17c-1.438-.062-2.905-.108-4.36-.14l.031-1.46c1.466.031,2.943.079,4.392.141ZM472.86,212l-.027-1.46c1.4-.026,2.813-.039,4.2-.039h.193v1.46h-.193C475.655,211.957,474.251,211.971,472.86,212Z" transform="translate(-166.139 -210.497)" fill="#475d37"/>
      </g>
      <g id="Grupo_1067765" data-name="Grupo 1067765" transform="translate(442.238 9133.386)">
        <path id="Trazado_808907" data-name="Trazado 808907" d="M166.9,302.825l-.829-1.2c.013-.009,1.327-.914,3.7-2.423l.782,1.233C168.209,301.924,166.915,302.816,166.9,302.825Zm7.373-4.7-.758-1.248c1.223-.743,2.494-1.5,3.778-2.253l.738,1.26C176.756,296.633,175.492,297.387,174.275,298.126Zm7.549-4.421-.718-1.271c1.26-.711,2.553-1.429,3.843-2.134l.7,1.282C184.364,292.283,183.077,293,181.824,293.7Zm7.679-4.191-.68-1.292c1.291-.68,2.6-1.36,3.9-2.021l.662,1.3C192.1,288.16,190.788,288.837,189.5,289.514Zm7.8-3.967-.644-1.311c1.308-.642,2.64-1.283,3.959-1.908l.624,1.32C199.927,284.27,198.6,284.909,197.3,285.548Zm7.906-3.739-.6-1.329c1.333-.607,2.684-1.209,4.013-1.79l.584,1.338C207.876,280.606,206.533,281.205,205.206,281.809Zm8.012-3.5-.564-1.347c1.357-.568,2.725-1.129,4.067-1.666l.542,1.356C215.929,277.185,214.568,277.742,213.219,278.308Zm8.115-3.249-.521-1.364c1.366-.522,2.752-1.037,4.118-1.533l.5,1.373C224.071,274.027,222.693,274.54,221.334,275.058Zm8.217-2.98-.474-1.381c1.389-.477,2.792-.945,4.17-1.39l.449,1.389C232.326,271.14,230.931,271.6,229.551,272.079Zm8.314-2.688-.423-1.4c1.406-.426,2.826-.841,4.219-1.235l.4,1.4C240.672,268.555,239.261,268.967,237.864,269.391Zm8.407-2.37-.368-1.413c1.42-.37,2.855-.728,4.266-1.065l.339,1.42C249.106,266.3,247.681,266.653,246.271,267.02ZM254.763,265l-.308-1.427.344-.074q1.969-.421,3.937-.847l.309,1.427q-1.97.426-3.941.848Zm8.563-1.853-.312-1.426q2.138-.468,4.276-.94l.315,1.426Q265.465,262.675,263.326,263.144Zm8.555-1.886-.316-1.425,4.275-.948.316,1.426Zm8.55-1.894-.315-1.425q2.138-.473,4.277-.943l.314,1.426Q282.567,258.891,280.43,259.364Zm8.551-1.878-.31-1.426q2.139-.465,4.281-.926l.307,1.428Q291.119,257.02,288.982,257.485Zm8.557-1.838-.3-1.428q2.143-.453,4.289-.9l.3,1.43Q299.679,255.2,297.539,255.647Zm8.568-1.773-.289-1.431q2.147-.434,4.3-.857l.282,1.433Q308.25,253.441,306.108,253.874Zm8.584-1.685-.273-1.435q2.152-.409,4.309-.8l.262,1.436Q316.838,251.781,314.691,252.189Zm8.6-1.574-.252-1.438q2.157-.378,4.32-.74l.241,1.44Q325.443,250.237,323.293,250.615Zm8.622-1.439-.228-1.442q2.163-.342,4.333-.664l.214,1.444Q334.071,248.836,331.915,249.176Zm166.3-1h-.352v-1.46h.352q2.024,0,4.028-.006l0,1.46Q500.245,248.175,498.219,248.175Zm-4.736-.008q-2.183-.007-4.384-.021l.009-1.46q2.2.014,4.379.021Zm13.152-.018-.009-1.46q2.206-.014,4.379-.035l.014,1.46Q508.843,248.135,506.635,248.149Zm-21.924-.037q-2.189-.02-4.387-.046l.017-1.46q2.2.026,4.383.046Zm30.692-.05-.02-1.46q2.21-.031,4.378-.069l.026,1.46Q517.617,248.032,515.4,248.062Zm-39.465-.055q-2.19-.032-4.384-.07l.026-1.46q2.191.038,4.38.07Zm48.232-.1-.032-1.46q2.216-.049,4.377-.107l.039,1.459Q526.392,247.858,524.17,247.907Zm-183.612-.012-.2-1.446q2.169-.3,4.346-.577l.184,1.448Q342.72,247.6,340.558,247.895Zm126.613-.04q-2.192-.044-4.381-.095l.034-1.46q2.186.05,4.377.095Zm65.767-.185-.047-1.459q2.224-.072,4.374-.155l.057,1.459Q535.169,247.6,532.938,247.669Zm-74.527-.015q-2.194-.056-4.378-.118l.041-1.459q2.181.062,4.374.118Zm-8.754-.249q-2.2-.068-4.381-.143l.05-1.459q2.18.074,4.377.143Zm92.048-.076-.066-1.459q2.236-.1,4.37-.216l.079,1.458Q543.948,247.227,541.7,247.33Zm-100.809-.223q-2.2-.082-4.381-.17l.059-1.459q2.175.088,4.376.17Zm109.573-.252-.093-1.457c1.5-.1,2.967-.2,4.362-.3l.111,1.456C553.447,246.656,551.974,246.759,550.468,246.855Zm-201.245-.061-.168-1.451c1.463-.169,2.929-.33,4.357-.479l.151,1.452C352.141,246.464,350.681,246.625,349.223,246.794Zm82.911-.04q-2.208-.1-4.379-.2l.068-1.458q2.17.1,4.374.2Zm-8.759-.411q-2.211-.113-4.378-.23l.08-1.458q2.163.118,4.373.23Zm135.851-.161-.135-1.454c1.535-.142,3-.293,4.342-.448l.168,1.45C562.244,245.886,560.772,246.038,559.226,246.181Zm-201.319-.289-.133-1.454c1.46-.134,2.93-.258,4.367-.371l.114,1.455C360.824,245.635,359.361,245.76,357.907,245.892Zm56.712-.029q-2.219-.13-4.377-.268l.093-1.457q2.154.137,4.37.267Zm-8.752-.557-1.139-.079q-1.615-.114-3.224-.207l.084-1.458q1.618.094,3.243.208l1.136.079Zm-39.26-.1-.095-1.457c1.465-.095,2.937-.18,4.375-.253l.074,1.458C369.53,245.032,368.065,245.117,366.607,245.211Zm201.364-.057-.218-1.444c1.234-.187,2.368-.383,3.369-.583q.448-.09.918-.179l.272,1.434q-.462.088-.9.176C570.385,244.764,569.229,244.965,567.971,245.154Zm-170.829-.35c-1.449-.059-2.918-.108-4.366-.145l.037-1.46c1.456.037,2.933.086,4.389.146Zm-21.824-.036-.054-1.459c1.458-.053,2.931-.1,4.379-.128l.032,1.46C378.234,244.672,376.768,244.715,375.318,244.768Zm13.09-.183q-2.189-.02-4.369-.006l-.009-1.46q2.19-.014,4.391.006Zm188.211-.937-.224-1.443c1.347-.21,2.815-.421,4.362-.629l.195,1.447C579.414,243.23,577.957,243.44,576.619,243.648Zm8.678-1.177-.174-1.45q2.119-.255,4.369-.5l.16,1.451Q587.413,242.217,585.3,242.471Zm8.713-.959-.147-1.453q2.149-.218,4.373-.428l.138,1.454Q596.157,241.294,594.01,241.512Zm8.73-.827-.13-1.454q2.168-.193,4.376-.379l.123,1.455Q604.907,240.492,602.74,240.684Zm8.739-.736-.116-1.455q2.181-.174,4.374-.341l.111,1.456Q613.659,239.775,611.479,239.948Zm8.751-.667-.106-1.456q2.2-.16,4.38-.313l.1,1.456Q622.427,239.121,620.23,239.281Zm8.751-.612-.1-1.457q2.212-.148,4.381-.289l.094,1.457Q631.194,238.52,628.982,238.669Zm8.756-.566-.091-1.457q2.231-.139,4.382-.268l.088,1.458Q639.97,237.964,637.737,238.1Zm8.76-.526-.084-1.458c1.509-.088,2.973-.171,4.385-.25l.081,1.458Q648.764,237.446,646.5,237.577Zm8.766-.49-.078-1.458c1.556-.084,3.023-.161,4.388-.232l.076,1.458C658.284,236.926,656.818,237,655.263,237.087Zm8.774-.454-.073-1.458c1.794-.089,3.278-.16,4.394-.212l.068,1.458C667.312,236.472,665.829,236.544,664.037,236.633Z" transform="translate(-166.073 -234.962)" fill="#475d37"/>
      </g>
      <g id="Grupo_1067766" data-name="Grupo 1067766" transform="translate(445.477 9129.061)">
        <path id="Trazado_808908" data-name="Trazado 808908" d="M183.162,294.613c-1.1,0-2.15-.047-3.125-.142l.14-1.453a33.519,33.519,0,0,0,4.282.113l.047,1.459Q183.822,294.614,183.162,294.613Zm5.772-.364-.169-1.45c1.358-.158,2.8-.373,4.292-.637l.255,1.437C191.794,293.87,190.321,294.088,188.935,294.25Zm-13.344-.666q-.331-.11-.647-.231l.525-1.363q.284.11.582.208Zm22.051-.856-.319-1.425c1.363-.305,2.787-.653,4.233-1.033l.37,1.413C200.463,292.066,199.022,292.418,197.641,292.727Zm8.527-2.228-.412-1.4c1.354-.4,2.757-.832,4.171-1.287l.447,1.389C208.949,289.66,207.535,290.1,206.169,290.5Zm8.378-2.7-.479-1.379c1.338-.464,2.722-.96,4.113-1.473l.506,1.37C217.287,286.838,215.893,287.337,214.547,287.8Zm8.25-3.042-.53-1.361c1.331-.518,2.7-1.063,4.06-1.62l.552,1.352C225.509,283.692,224.136,284.24,222.8,284.762Zm8.137-3.322-.573-1.343c1.325-.565,2.674-1.152,4.01-1.744l.592,1.335C233.622,280.281,232.266,280.871,230.934,281.439Zm8.033-3.562-.61-1.326c1.312-.6,2.645-1.228,3.961-1.855l.628,1.318C241.623,276.644,240.285,277.271,238.967,277.877ZM246.9,274.1l-.645-1.31c1.3-.638,2.615-1.3,3.917-1.959l.662,1.3C249.524,272.8,248.2,273.458,246.9,274.1Zm7.839-3.985-.678-1.293c1.289-.676,2.587-1.367,3.859-2.055l.695,1.284C257.335,268.742,256.031,269.436,254.737,270.115Zm7.721-4.175-.711-1.275c1.272-.71,2.552-1.435,3.805-2.155l.728,1.265C265.021,264.5,263.735,265.227,262.458,265.939Zm7.616-4.381-.745-1.255c1.26-.748,2.52-1.508,3.744-2.259l.763,1.245C272.605,260.044,271.339,260.807,270.073,261.559Zm7.491-4.594-.782-1.233c1.239-.786,2.474-1.583,3.672-2.371l.8,1.22C280.052,255.373,278.81,256.175,277.564,256.964Zm7.346-4.831-.825-1.2.2-.138c1.157-.792,2.318-1.568,3.451-2.307l.8,1.223c-1.124.733-2.276,1.5-3.424,2.289Zm7.3-4.759-.765-1.244c1.269-.78,2.54-1.537,3.778-2.249l.728,1.266C294.729,245.853,293.471,246.6,292.215,247.375Zm7.547-4.329-.684-1.29c1.317-.7,2.638-1.367,3.927-1.988l.634,1.315C302.367,241.7,301.063,242.356,299.762,243.046Zm304.733-.725q-1.292,0-2.587,0l0-1.46q2.192.007,4.377,0l0,1.46Zm6.178-.021-.009-1.46q2.2-.015,4.379-.039l.016,1.46Q612.877,242.286,610.673,242.3Zm-13.152-.008q-2.2-.018-4.389-.049l.021-1.46q2.186.031,4.381.049Zm21.924-.089-.022-1.46q2.206-.033,4.38-.075l.028,1.46Q621.656,242.171,619.446,242.2Zm-30.7-.037q-2.2-.045-4.387-.1l.04-1.46q2.177.06,4.376.1Zm39.475-.13-.033-1.46q2.215-.05,4.379-.107l.038,1.46Q630.435,241.987,628.216,242.037Zm-48.247-.112q-2.21-.078-4.385-.173l.063-1.459q2.168.095,4.373.172Zm57.016-.119-.043-1.459q2.228-.066,4.379-.138l.049,1.459Q639.218,241.741,636.985,241.807Zm-65.786-.266c-1.484-.079-2.958-.166-4.382-.258l.094-1.457c1.419.092,2.888.178,4.366.257Zm74.553-.023-.053-1.459q2.248-.082,4.378-.166l.058,1.459Q648,241.436,645.753,241.518Zm8.766-.346-.062-1.459q2.282-.1,4.377-.193l.067,1.459C657.5,241.042,656.041,241.107,654.518,241.172Zm-92.082-.2c-1.5-.116-2.971-.241-4.378-.37l.134-1.454c1.4.129,2.865.253,4.356.369Zm100.847-.2-.071-1.459c1.583-.077,3.046-.152,4.377-.222l.076,1.458C666.332,240.619,664.868,240.693,663.283,240.771Zm8.764-.461-.083-1.458c2.813-.159,4.379-.26,4.381-.26l.093,1.457S674.869,240.15,672.047,240.31Zm-118.362-.15c-1.5-.166-2.97-.344-4.366-.53l.192-1.447c1.385.184,2.844.361,4.334.526Zm-246.1-.881-.577-1.341c1.361-.586,2.736-1.142,4.086-1.65l.515,1.366C310.284,238.155,308.93,238.7,307.589,239.279Zm237.373-.289c-1.518-.246-2.978-.509-4.34-.782l.287-1.432c1.344.27,2.786.53,4.286.773Zm-8.651-1.761c-1.551-.4-2.982-.827-4.256-1.272l.482-1.378c1.235.432,2.627.848,4.138,1.237Zm-220.6-1-.447-1.39c1.394-.448,2.818-.866,4.231-1.243l.376,1.411C318.478,235.373,317.078,235.784,315.707,236.225Zm212.238-2.03A36.615,36.615,0,0,0,524,232.517l.5-1.372a38.086,38.086,0,0,1,4.108,1.747Zm-203.86-.205-.306-1.428c1.4-.3,2.856-.577,4.328-.825l.242,1.44C326.9,233.421,325.463,233.695,324.085,233.99Zm8.562-1.45-.188-1.448c1.376-.179,2.8-.343,4.367-.5l.148,1.452C335.426,232.2,334.01,232.363,332.647,232.54Zm8.671-.9-.122-1.455q2.158-.181,4.367-.348l.112,1.456Q343.468,231.466,341.319,231.644Zm178.555-.444c-1.31-.37-2.726-.731-4.21-1.073l.327-1.423c1.508.347,2.948.714,4.281,1.091Zm-169.834-.24-.115-1.456q2.138-.169,4.354-.362l.129,1.455Q352.182,230.793,350.039,230.959Zm8.734-.783-.151-1.452c1.5-.156,2.916-.317,4.334-.492l.179,1.449C361.708,229.858,360.281,230.02,358.773,230.177ZM511.4,229.23c-1.37-.263-2.815-.518-4.3-.759l.234-1.441c1.494.243,2.953.5,4.336.766ZM367.487,229.1l-.211-1.445q1.027-.15,2.075-.314,1.081-.17,2.259-.336l.2,1.445q-1.165.165-2.237.333T367.487,229.1Zm8.658-1.21-.173-1.449c1.381-.165,2.85-.328,4.367-.484l.15,1.452C378.98,227.559,377.519,227.721,376.145,227.885Zm126.643-.063c-1.39-.194-2.848-.382-4.332-.56l.174-1.449c1.494.179,2.96.369,4.36.564Zm-117.947-.84-.132-1.454q2.123-.193,4.373-.374l.117,1.455Q386.959,226.79,384.842,226.982Zm109.271-.2c-1.416-.147-2.881-.288-4.352-.419l.13-1.455c1.478.132,2.949.273,4.372.421Zm-100.549-.5-.1-1.456q2.145-.154,4.378-.3l.093,1.457Q395.7,226.123,393.563,226.277ZM485.4,226q-2.157-.166-4.363-.311l.1-1.457q2.213.146,4.379.312Zm-83.1-.278-.083-1.458q2.159-.122,4.381-.234l.073,1.458Q404.453,225.6,402.3,225.719Zm74.374-.3q-2.168-.121-4.37-.223l.068-1.459q2.209.1,4.384.224Zm-65.631-.14-.064-1.459q2.169-.095,4.382-.178l.055,1.459Q413.206,225.186,411.042,225.281Zm56.889-.269q-2.175-.083-4.374-.15l.044-1.459q2.2.067,4.385.15Zm-48.14-.061-.046-1.459q2.176-.069,4.384-.127l.038,1.46Q421.963,224.882,419.79,224.951Zm39.391-.207q-2.18-.05-4.371-.086l.024-1.46q2.2.036,4.381.087Zm-30.64-.021-.029-1.46q2.183-.044,4.385-.076l.021,1.46Q430.721,224.679,428.542,224.724Zm21.893-.122q-2.187-.021-4.377-.028l0-1.46q2.193.007,4.386.028ZM437.3,224.6l-.013-1.46q2.19-.019,4.389-.025l0,1.46Q439.486,224.578,437.3,224.6Z" transform="translate(-174.944 -223.112)" fill="#475d37"/>
      </g>
      <g id="Grupo_1067767" data-name="Grupo 1067767" transform="translate(816.457 9469.092)">
        <path id="Trazado_808909" data-name="Trazado 808909" d="M1308.138,1154.661l-116.858,23.465v4.928l17.6-3.463v56.26h5.4v-57.322l79.078-15.562v72.884h5.632v-73.992l9.152-1.8Z" transform="translate(-1191.281 -1154.661)" fill="#12263f"/>
      </g>
      <g id="Grupo_1067768" data-name="Grupo 1067768" transform="translate(850.717 9503.117)">
        <path id="Trazado_808910" data-name="Trazado 808910" d="M1285.138,1257.848v37.193H1291v-14.783h43.646v14.783h5.866v-47.166Zm49.277,2.229h-29.566l29.566-5.632Z" transform="translate(-1285.138 -1247.875)" fill="#12263f"/>
      </g>
      <path id="Trazado_808911" data-name="Trazado 808911" d="M1285.138,864.89v37.193H1291V887.3h43.646v14.783h5.866V854.917Zm49.277,2.229h-29.566l29.566-5.632Z" transform="translate(-399.774 8504.764)" fill="#12263f"/>
      <g id="Grupo_1067770" data-name="Grupo 1067770" transform="translate(436.061 9440.053)">
        <path id="Trazado_808912" data-name="Trazado 808912" d="M149.662,1164.429l-.515-1.367s1.462-.551,4.157-1.559l.511,1.367C151.124,1163.878,149.662,1164.428,149.662,1164.429Zm8.282-3.1-.51-1.368,4.124-1.536.509,1.369Zm8.242-3.066-.508-1.369,4.12-1.527.507,1.369Zm8.237-3.049-.506-1.37,4.119-1.52.5,1.37Zm8.237-3.036-.5-1.37,4.12-1.513.5,1.371Zm8.238-3.022-.5-1.371q2.025-.742,4.121-1.507l.5,1.372Q192.925,1148.414,190.9,1149.156Zm8.241-3.011-.5-1.371,4.122-1.5.5,1.372Zm8.244-3-.5-1.372,4.124-1.5.5,1.373Zm8.248-2.985-.5-1.373,4.127-1.488.495,1.374Zm8.252-2.972-.494-1.374,4.129-1.482.492,1.375Zm8.256-2.958-.491-1.375,4.131-1.474.49,1.375Zm8.261-2.944-.489-1.376,4.133-1.467.488,1.376Zm8.265-2.928-.486-1.377,4.121-1.453.485,1.377Zm8.248-2.9-.483-1.378,4.14-1.449.482,1.378Zm8.287-2.9-.48-1.379q2.071-.722,4.143-1.44l.478,1.379Q267.271,1121.839,265.2,1122.561Zm8.284-2.873-.477-1.38q2.075-.717,4.147-1.429l.475,1.381Q275.559,1118.97,273.484,1119.688Zm8.291-2.852-.473-1.382,4.151-1.417.471,1.382Q283.854,1116.123,281.775,1116.836Zm8.3-2.828-.469-1.383q2.084-.707,4.155-1.4l.466,1.384Q292.159,1113.3,290.075,1114.008Zm8.309-2.8-.464-1.385q2.09-.7,4.161-1.39l.461,1.385Q300.473,1110.507,298.384,1111.207Zm8.319-2.769-.458-1.386q2.1-.694,4.167-1.373l.455,1.387Q308.8,1107.745,306.7,1108.438Zm8.331-2.734-.452-1.388q2.1-.684,4.174-1.352l.448,1.389Q317.137,1105.021,315.034,1105.7Zm8.345-2.69-.444-1.391q2.113-.675,4.183-1.328l.44,1.393Q325.49,1102.342,323.379,1103.015Zm8.361-2.638-.434-1.394q2.124-.662,4.194-1.3l.429,1.4Q333.862,1099.716,331.741,1100.377Zm8.382-2.573-.422-1.4q2.139-.646,4.207-1.258l.414,1.4Q342.258,1097.159,340.123,1097.8Zm8.406-2.488-.406-1.4q2.161-.626,4.225-1.207l.4,1.405Q350.685,1094.692,348.529,1095.316Zm254.8-.965a38.041,38.041,0,0,1-4.45-.3l.177-1.45a36.51,36.51,0,0,0,4.279.291Zm4.5-.373-.265-1.436c.538-.1,1.067-.222,1.57-.364.807-.227,1.679-.471,2.609-.731l.393,1.406c-.929.259-1.8.5-2.606.73C608.977,1093.737,608.405,1093.87,607.823,1093.978Zm-13.317-.63c-1.323-.256-2.732-.561-4.309-.933l.335-1.421c1.557.366,2.947.668,4.251.919Zm-237.538-.4-.383-1.408c1.466-.4,2.9-.778,4.251-1.129l.366,1.413C359.853,1092.169,358.428,1092.548,356.968,1092.944Zm259.388-1.266-.39-1.407,4.23-1.17.388,1.408Zm-30.424-.321q-2.048-.529-4.241-1.121l.379-1.41q2.187.588,4.227,1.118Zm-220.481-.606-.345-1.419c1.5-.365,2.944-.7,4.29-1l.315,1.426C368.376,1090.055,366.942,1090.389,365.451,1090.751Zm259.364-1.407-.387-1.408,4.231-1.163.386,1.408Zm-47.353-.252q-2.051-.555-4.226-1.138l.377-1.411q2.179.582,4.231,1.139Zm-203.48-.208-.27-1.435q2.15-.4,4.306-.8l.265,1.436Q376.131,1088.48,373.983,1088.883Zm8.6-1.585-.259-1.437q2.153-.389,4.313-.768l.253,1.438Q384.738,1086.91,382.588,1087.3Zm250.689-.277-.386-1.408,4.232-1.159.385,1.408Zm-64.27-.181q-2.064-.535-4.238-1.075l.352-1.417q2.181.542,4.252,1.079Zm-177.8-1.06-.247-1.439q2.158-.369,4.321-.73l.239,1.44Q393.359,1085.413,391.2,1085.781Zm169.316-1.045c-1.432-.337-2.865-.665-4.26-.975l.316-1.425c1.4.311,2.84.64,4.279.979Zm81.22-.03-.385-1.409,4.233-1.156.384,1.409Zm-241.906-.361-.233-1.441q2.161-.349,4.328-.687l.225,1.443Q401.993,1084,399.835,1084.345Zm8.644-1.347-.216-1.444q2.165-.325,4.336-.638l.208,1.445Q410.641,1082.672,408.479,1083Zm143.509-.152c-1.42-.294-2.861-.581-4.285-.854l.275-1.434c1.43.274,2.878.563,4.3.858Zm98.218-.45-.384-1.409,4.234-1.153.384,1.408Zm-233.069-.646-.2-1.447q2.17-.3,4.344-.585l.19,1.448Q419.3,1081.45,417.138,1081.75Zm126.27-.548c-1.434-.253-2.883-.5-4.308-.725l.231-1.441c1.432.23,2.889.475,4.329.729Zm-117.6-.591-.18-1.448q2.174-.271,4.352-.527l.17,1.45Q427.981,1080.34,425.812,1080.61Zm232.867-.522-.384-1.409,3.058-.832.808-.219.195.7h.732c0,.558-.233.622-1.352.926Zm-123.9-.271c-1.427-.207-2.884-.406-4.328-.592l.187-1.448c1.452.187,2.915.388,4.35.6Zm-100.283-.226-.16-1.451q2.179-.239,4.361-.462l.148,1.452Q436.673,1079.353,434.5,1079.592Zm8.7-.889-.137-1.454q2.182-.205,4.367-.394l.125,1.455Q445.378,1078.5,443.2,1078.7Zm82.917,0c-1.435-.163-2.9-.318-4.344-.461l.143-1.453c1.454.143,2.923.3,4.366.464Zm-74.2-.745-.112-1.456q2.186-.169,4.374-.32l.1,1.456Q454.1,1077.785,451.916,1077.953Zm65.507-.114c-1.439-.122-2.9-.238-4.358-.342l.1-1.456c1.459.1,2.932.22,4.376.343Zm-56.782-.485-.087-1.458q2.189-.13,4.38-.24l.073,1.458Q462.823,1077.224,460.641,1077.354Zm48.063-.144c-1.449-.086-2.918-.164-4.365-.233l.069-1.459c1.453.069,2.928.147,4.383.234Zm-39.329-.294-.059-1.459q2.191-.089,4.384-.156l.044,1.46Q471.559,1076.828,469.375,1076.916Zm30.6-.118c-1.441-.051-2.911-.094-4.37-.128l.034-1.46c1.464.034,2.941.078,4.387.129Zm-21.857-.15-.03-1.46q2.193-.044,4.386-.066l.014,1.46Q480.3,1076.6,478.115,1076.649Zm13.115-.056c-1.43-.017-2.9-.027-4.372-.029v-1.46c1.477,0,2.953.011,4.388.029Z" transform="translate(-149.147 -1075.104)" fill="#475d37"/>
      </g>
      <g id="Grupo_1067771" data-name="Grupo 1067771" transform="translate(438.47 9432.226)">
        <path id="Trazado_808913" data-name="Trazado 808913" d="M156.137,1159.75l-.388-1.408s1.516-.418,4.264-1.193l.4,1.4C157.655,1159.332,156.137,1159.75,156.137,1159.75Zm8.511-2.4-.4-1.4c1.283-.366,2.7-.771,4.225-1.213l.4,1.4C167.346,1156.579,165.932,1156.984,164.648,1157.351Zm8.452-2.437-.408-1.4q2.012-.585,4.214-1.232l.411,1.4Q175.116,1154.328,173.1,1154.914Zm8.431-2.475-.414-1.4q2.043-.6,4.206-1.25l.418,1.4Q183.577,1151.833,181.531,1152.439Zm8.415-2.512-.421-1.4q2.058-.62,4.2-1.269l.423,1.4Q192.007,1149.306,189.947,1149.927Zm8.4-2.55-.427-1.4q2.066-.632,4.192-1.288l.431,1.4Q200.417,1146.744,198.349,1147.377Zm8.388-2.589-.434-1.394q2.071-.644,4.185-1.308l.437,1.393Q208.81,1144.143,206.736,1144.789Zm8.374-2.629-.441-1.392q2.074-.657,4.178-1.33l.445,1.391Q217.187,1141.5,215.111,1142.159Zm8.36-2.673-.449-1.39q2.076-.67,4.17-1.353l.453,1.388Q225.549,1138.815,223.471,1139.486Zm8.344-2.722-.457-1.387q2.075-.684,4.161-1.378l.461,1.385Q233.893,1136.079,231.815,1136.764Zm8.319-2.771-.466-1.384q2.076-.7,4.153-1.407l.471,1.382Q242.214,1133.293,240.134,1133.993Zm8.322-2.837-.476-1.38q2.074-.716,4.14-1.438l.482,1.378Q250.533,1130.439,248.456,1131.156Zm8.286-2.9-.488-1.376q2.071-.734,4.127-1.474l.495,1.374Q258.817,1127.522,256.742,1128.258Zm8.261-2.973-.5-1.372q2.067-.755,4.112-1.516l.509,1.369Q267.075,1124.527,265,1125.285Zm8.23-3.061-.517-1.365q2.064-.782,4.093-1.565l.526,1.361Q275.3,1121.441,273.232,1122.224Zm8.193-3.165-.536-1.358q2.059-.812,4.069-1.624l.547,1.354Q283.49,1118.245,281.426,1119.059Zm8.146-3.292-.559-1.349q2.05-.85,4.036-1.7l.574,1.343Q291.63,1114.913,289.571,1115.767Zm8.084-3.454-.59-1.336c1.369-.6,2.712-1.208,3.993-1.8l.608,1.327C300.38,1111.1,299.03,1111.705,297.655,1112.312Zm8-3.669-.63-1.317c1.357-.65,2.678-1.3,3.925-1.928l.658,1.3C308.348,1107.335,307.019,1107.989,305.652,1108.643Zm7.862-3.977-.691-1.286c1.342-.722,2.623-1.438,3.808-2.13l.736,1.261C316.168,1103.211,314.871,1103.937,313.514,1104.667Zm7.62-4.469-.8-1.224c.795-.517,1.554-1.032,2.255-1.531l1.322-.943.847,1.189-1.322.942C322.722,1099.143,321.946,1099.67,321.134,1100.2Zm7.2-5.048-.846-1.19q1.8-1.278,3.574-2.534l.843,1.192Q330.127,1093.872,328.33,1095.15Zm229.054-1.681H556.9l.01-1.46h.473c1.3,0,2.6-.036,3.859-.107l.081,1.458C560.036,1093.432,558.71,1093.469,557.384,1093.469Zm-4.9-.157c-1.436-.09-2.915-.221-4.4-.389l.164-1.451c1.458.165,2.913.294,4.325.383Zm13.252-.35-.182-1.449c1.441-.181,2.876-.415,4.268-.7l.29,1.431C568.685,1092.536,567.212,1092.776,565.736,1092.962Zm-22.021-.634c-1.414-.224-2.875-.485-4.34-.777l.285-1.432c1.446.288,2.887.546,4.283.767Zm30.706-1.134-.4-1.4q2.13-.607,4.22-1.19l.393,1.406Q576.547,1090.589,574.421,1091.194Zm-39.35-.578c-1.384-.324-2.822-.685-4.271-1.072l.377-1.411c1.435.383,2.858.74,4.228,1.061Zm-199.591-.517-.838-1.2q1.808-1.267,3.6-2.5l.83,1.2Q337.283,1088.835,335.479,1090.1Zm247.372-1.26-.386-1.408q2.139-.587,4.232-1.148l.378,1.41Q584.987,1088.254,582.852,1088.839Zm-56.289-.486c-1.363-.4-2.777-.838-4.2-1.295l.445-1.39c1.415.453,2.819.885,4.172,1.284Zm64.744-1.782-.371-1.412q2.149-.564,4.244-1.1l.363,1.415Q593.451,1086.008,591.307,1086.571Zm-73.12-.895c-1.344-.459-2.739-.949-4.146-1.458l.5-1.373c1.4.505,2.786.993,4.122,1.449Zm-175.509-.55-.821-1.207q1.827-1.241,3.641-2.447l.808,1.216Q344.5,1083.89,342.677,1085.126Zm257.108-.729-.354-1.417q2.16-.54,4.258-1.051l.345,1.419Q601.942,1083.859,599.785,1084.4Zm-89.867-1.7c-1.317-.5-2.7-1.026-4.1-1.573l.531-1.36c1.4.545,2.771,1.072,4.083,1.567Zm98.37-.37-.336-1.421q2.174-.514,4.272-.993l.326,1.423Q610.458,1081.816,608.289,1082.328Zm8.53-1.949-.314-1.426q2.191-.482,4.289-.925l.3,1.429Q619,1079.9,616.819,1080.38Zm-266.86-.088-.793-1.226c1.254-.811,2.5-1.6,3.7-2.356l.774,1.237C352.448,1078.7,351.208,1079.484,349.96,1080.292Zm151.769-.785q-2.037-.818-4.071-1.651l.553-1.351q2.029.831,4.062,1.647Zm123.651-.932-.287-1.432q2.214-.444,4.307-.841l.272,1.435Q627.586,1078.132,625.38,1078.575Zm8.592-1.624-.253-1.438c1.481-.26,2.939-.505,4.332-.728l.23,1.442C636.9,1076.448,635.446,1076.691,633.972,1076.95Zm-140.37-.768q-2.025-.841-4.044-1.687l.564-1.346q2.017.844,4.04,1.685Zm-136.236-.52-.753-1.251c1.271-.765,2.545-1.514,3.786-2.229l.727,1.266C359.894,1074.157,358.629,1074.9,357.366,1075.662Zm285.233-.086-.2-1.446c1.527-.213,3-.4,4.365-.553l.163,1.451C645.569,1075.181,644.113,1075.366,642.6,1075.577Zm8.658-.953-.1-1.456c1.546-.11,2.945-.166,4.159-.167h.275l-.012,1.46h-.263C654.133,1074.462,652.769,1074.517,651.257,1074.624Zm-165.735-1.82-.118-.049q-1.967-.825-3.924-1.643l.563-1.348q1.957.818,3.926,1.643l.118.05Zm-120.589-1.486-.7-1.282c1.307-.713,2.617-1.405,3.893-2.059l.666,1.3C367.528,1069.924,366.229,1070.611,364.933,1071.318Zm112.5-1.887q-2.033-.84-4.051-1.66l.549-1.353q2.023.821,4.06,1.664ZM372.7,1067.337l-.63-1.317c1.33-.637,2.675-1.256,4-1.841l.59,1.335C375.351,1066.094,374.019,1066.706,372.7,1067.337Zm96.619-1.195c-1.408-.557-2.78-1.091-4.077-1.587l.521-1.364c1.3.5,2.679,1.034,4.093,1.593Zm-88.65-2.324-.547-1.354c1.364-.551,2.746-1.082,4.106-1.578l.5,1.372C383.386,1062.749,382.02,1063.274,380.672,1063.818Zm80.478-.795c-1.408-.515-2.793-1.006-4.117-1.463l.475-1.38c1.333.459,2.726.954,4.143,1.471Zm-72.311-2.181-.451-1.389c1.394-.453,2.812-.885,4.213-1.283l.4,1.4C391.617,1059.968,390.216,1060.394,388.839,1060.842Zm64.051-.658c-1.421-.454-2.824-.881-4.173-1.27l.406-1.4c1.361.393,2.778.825,4.212,1.282Zm-55.684-1.72-.346-1.418c1.418-.347,2.864-.67,4.3-.964l.292,1.431C400.033,1057.8,398.606,1058.122,397.206,1058.464Zm47.306-.692c-1.441-.365-2.867-.7-4.239-.985l.3-1.429c1.39.292,2.836.629,4.3,1Zm-38.785-1.048-.238-1.441c1.437-.237,2.9-.452,4.358-.636l.184,1.449C408.593,1056.277,407.146,1056.488,405.726,1056.723Zm30.276-.731c-1.47-.235-2.916-.424-4.3-.563l.145-1.453c1.412.142,2.887.335,4.384.574Zm-21.647-.366-.131-1.454c1.45-.131,2.927-.237,4.391-.318l.08,1.458C417.248,1055.391,415.788,1055.5,414.355,1055.626Zm8.689-.477-.03-1.46c.926-.018,1.869-.018,2.781-.028q.812,0,1.634.025l-.042,1.459c-.553-.016-1.105-.025-1.648-.024C424.849,1055.121,423.942,1055.131,423.044,1055.149Z" transform="translate(-155.749 -1053.661)" fill="#475d37"/>
      </g>
      <g id="Grupo_1067772" data-name="Grupo 1067772" transform="translate(438.156 9434.905)">
        <path id="Trazado_808914" data-name="Trazado 808914" d="M155.9,1174.089l-1.015-1.049c.45-.435.923-.861,1.406-1.265l.937,1.12C156.775,1173.277,156.329,1173.679,155.9,1174.089Zm4.808-3.632-.735-1.262a29.507,29.507,0,0,1,4.04-1.948l.534,1.359A27.94,27.94,0,0,0,160.712,1170.457Zm46.842-1.559c-1.447,0-2.924-.017-4.391-.042l.025-1.46c1.46.025,2.93.039,4.369.042Zm4.392-.024-.02-1.46c1.484-.02,2.953-.052,4.365-.1l.045,1.459C214.916,1168.821,213.439,1168.854,211.947,1168.874Zm-13.171-.123q-1.276-.039-2.577-.088l-.1,0-.1-.031c-.006,0-.626-.2-1.7-.48l.367-1.413c.884.229,1.465.4,1.685.472q1.246.047,2.468.084Zm21.948-.147-.071-1.458c1.471-.072,2.937-.158,4.354-.257l.1,1.457C223.68,1168.445,222.205,1168.532,220.724,1168.6Zm8.763-.609-.133-1.454c1.47-.134,2.929-.286,4.335-.45l.169,1.45C232.439,1167.707,230.968,1167.859,229.487,1168Zm-60.855-.68-.35-1.418a39.951,39.951,0,0,1,4.384-.817l.188,1.448A38.4,38.4,0,0,0,168.632,1167.315Zm21.438-.1c-1.422-.263-2.864-.483-4.285-.65l.171-1.45c1.453.171,2.926.4,4.379.664Zm48.147-.241-.208-1.445c1.461-.21,2.907-.441,4.3-.685l.252,1.438C241.154,1166.529,239.693,1166.762,238.217,1166.974Zm-56.746-.765c-1.476-.068-2.931-.077-4.321-.028l-.051-1.46c1.428-.05,2.924-.041,4.439.029Zm65.409-.761-.3-1.429c1.44-.3,2.865-.633,4.235-.979l.357,1.416C249.783,1164.807,248.339,1165.14,246.881,1165.448Zm8.538-2.162-.42-1.4c1.415-.425,2.8-.88,4.12-1.351l.491,1.375C258.268,1162.392,256.858,1162.854,255.419,1163.286Zm8.3-2.982-.573-1.343c1.357-.578,2.673-1.194,3.914-1.829l.666,1.3C266.46,1159.082,265.112,1159.712,263.724,1160.3Zm7.865-4.053-.772-1.24c1.246-.776,2.436-1.6,3.535-2.444l.891,1.157C274.105,1154.6,272.876,1155.45,271.589,1156.251Zm7.024-5.44-1.019-1.045a31.434,31.434,0,0,0,2.853-3.178l1.152.9A32.832,32.832,0,0,1,278.614,1150.811Zm5.463-7.064-1.277-.708a24.9,24.9,0,0,0,1.739-3.875l1.379.48A26.406,26.406,0,0,1,284.077,1143.746Zm2.931-8.479-1.443-.22a21.159,21.159,0,0,0,.247-3.18c0-.354-.01-.7-.029-1.042l1.458-.084c.021.365.032.743.032,1.125A22.581,22.581,0,0,1,287.008,1135.268Zm1.652-7.764-1.128-.928c.925-1.124,1.878-2.255,2.836-3.362l1.1.955C290.523,1125.267,289.577,1126.389,288.66,1127.5Zm5.706-6.6-1.081-.982c.977-1.075,1.986-2.158,3-3.218l1.056,1.008C296.335,1118.765,295.335,1119.839,294.366,1120.906Zm6.023-6.309-1.031-1.034c1.036-1.033,2.1-2.065,3.152-3.067l1,1.059C302.468,1112.549,301.416,1113.572,300.389,1114.6Zm6.326-6.006-.979-1.083c1.083-.979,2.193-1.958,3.3-2.908l.953,1.106C308.889,1106.649,307.789,1107.619,306.715,1108.59Zm6.612-5.69-.925-1.13c1.134-.929,2.289-1.852,3.435-2.745l.9,1.151C315.6,1101.063,314.451,1101.979,313.326,1102.9Zm6.881-5.364-.87-1.173c1.167-.866,2.367-1.732,3.564-2.577l.841,1.193C322.554,1095.818,321.365,1096.678,320.207,1097.537Zm7.131-5.026-.813-1.213c1.206-.808,2.445-1.617,3.683-2.4l.783,1.232C329.764,1090.906,328.534,1091.709,327.338,1092.51Zm336.721-2.694s-1.584-.149-4.386-.4l.129-1.455c2.808.25,4.394.4,4.394.4Zm-8.759-.781c-1.332-.115-2.8-.239-4.372-.371l.122-1.455c1.579.132,3.042.257,4.376.372Zm-8.745-.733q-2.1-.171-4.372-.351l.115-1.456c1.517.12,2.978.238,4.376.352Zm-311.853-.474-.754-1.25c1.249-.753,2.525-1.5,3.792-2.227l.725,1.267C337.206,1086.338,335.94,1087.081,334.7,1087.829Zm303.108-.218q-2.133-.163-4.373-.331l.108-1.456q2.239.167,4.377.331Zm-8.747-.651q-2.154-.155-4.374-.309l.1-1.457q2.22.154,4.378.309Zm-90.148-.606q-.829,0-1.691-.018l.03-1.46c1.536.032,3,.02,4.336-.035l.061,1.459C540.786,1086.337,539.865,1086.355,538.914,1086.355Zm81.4,0q-2.169-.144-4.375-.285l.093-1.457q2.207.14,4.379.285Zm-87.5-.208c-1.393-.088-2.872-.206-4.394-.349l.137-1.454c1.508.142,2.972.259,4.35.346Zm13.276-.241-.213-1.444c.6-.089,1.177-.193,1.709-.308.765-.167,1.643-.32,2.607-.457l.2,1.446c-.929.131-1.771.279-2.5.438C547.329,1085.7,546.721,1085.812,546.087,1085.905Zm65.477-.107q-2.177-.132-4.369-.256l.084-1.458q2.192.126,4.373.258Zm-87.526-.469c-1.4-.167-2.872-.356-4.363-.563l.2-1.447c1.483.206,2.941.394,4.335.559Zm78.779-.028q-2.2-.117-4.386-.224l.071-1.459q2.192.107,4.393.225Zm-8.764-.429q-2.2-.1-4.379-.183l.057-1.459q2.178.085,4.386.183Zm-39.346-.186-.114-1.456c1.34-.105,2.819-.193,4.4-.262l.063,1.459C557.491,1084.494,556.028,1084.581,554.705,1084.685Zm30.588-.156q-2.216-.074-4.379-.13l.038-1.459q2.166.056,4.39.13Zm-8.759-.228q-2.234-.04-4.379-.058l.012-1.46q2.15.017,4.394.058Zm-13.119-.013-.031-1.46c1.391-.029,2.869-.047,4.392-.054l.007,1.46C566.267,1084.241,564.8,1084.259,563.415,1084.288Zm-48.092-.162c-1.392-.216-2.852-.453-4.339-.7l.243-1.439c1.481.25,2.934.485,4.319.7Zm-173.047-.627-.694-1.285c1.289-.7,2.6-1.385,3.893-2.046l.664,1.3C344.855,1082.125,343.555,1082.808,342.276,1083.5Zm164.38-.836q-2.143-.389-4.318-.807l.276-1.434q2.165.417,4.3.8Zm-8.627-1.656q-2.144-.433-4.3-.887l.3-1.429q2.15.452,4.289.885Zm-147.982-1.479-.634-1.315c1.311-.632,2.651-1.258,3.984-1.862l.6,1.33C352.679,1078.28,351.349,1078.9,350.048,1079.529Zm139.391-.33q-2.147-.47-4.29-.955l.322-1.424q2.136.483,4.279.952Zm-8.568-1.939q-2.146-.5-4.271-1.011l.341-1.42q2.12.509,4.263,1.01ZM358,1075.926l-.572-1.344c1.343-.571,2.712-1.134,4.067-1.674l.539,1.357C360.687,1074.8,359.33,1075.359,358,1075.926Zm114.336-.714q-2.15-.53-4.259-1.063l.358-1.416q2.1.531,4.251,1.061Zm-8.512-2.151q-2.156-.558-4.247-1.112l.375-1.412q2.084.552,4.238,1.11Zm-97.716-.362-.508-1.369c1.376-.51,2.769-1.008,4.142-1.481l.475,1.381C368.853,1071.7,367.471,1072.193,366.105,1072.7Zm89.229-1.888q-2.169-.588-4.234-1.162l.391-1.407q2.058.572,4.225,1.16Zm-80.976-.951-.442-1.392c1.395-.442,2.811-.873,4.209-1.28l.408,1.4C377.146,1068.994,375.741,1069.421,374.358,1069.86Zm72.515-1.4q-2.2-.626-4.221-1.22l.411-1.4q2.017.591,4.21,1.216Zm-64.135-1.034-.373-1.411c1.421-.375,2.857-.734,4.269-1.068l.336,1.421C385.57,1066.7,384.146,1067.053,382.737,1067.425Zm55.7-1.44c-1.5-.453-2.909-.89-4.2-1.3l.441-1.392c1.287.408,2.695.843,4.184,1.294Zm-47.213-.567-.3-1.429c1.437-.3,2.891-.583,4.321-.84l.259,1.437C394.092,1064.841,392.652,1065.121,391.228,1065.418Zm8.584-1.543-.216-1.444c1.461-.219,2.93-.417,4.366-.586l.172,1.45C402.712,1063.463,401.258,1063.658,399.812,1063.875Zm30.274-.3c-1.315-.269-2.75-.493-4.262-.665l.165-1.451c1.555.177,3.032.408,4.39.686Zm-21.617-.714-.122-1.455c1.491-.125,2.972-.221,4.4-.287l.067,1.458C411.4,1062.637,409.941,1062.733,408.468,1062.856Zm13.037-.3c-1.31-.064-2.686-.1-4.089-.1h-.252l-.007-1.46h.258c1.427,0,2.826.034,4.159.1Z" transform="translate(-154.889 -1061.004)" fill="#475d37"/>
      </g>
      <path id="Trazado_808915" data-name="Trazado 808915" d="M739.065,766.386a11.13,11.13,0,0,0-4.172-7.792q-32.452-21.554-65.407-42.33a8.1,8.1,0,0,0-7.156-.007q-33.228,21.035-66.018,42.767c-2.148,1.43-3.747,5.244-3.839,8.011-.41,12.3.012,24.635-.268,36.946-.122,5.37,1.442,7.766,7.13,7.667,14.7-.255,29.4-.216,44.1-.012,4.547.063,6.568-1.422,6.882-5.361v-3.294c-.2-7.91-.216-15.833,0-23.742V768.513H660.7c6.539-.151,13.233,0,20.476,0,0,10.88.1,21.16,0,31.347v7.114c.363,3.317,2.167,4.643,6.021,4.615q22.8-.167,45.6.012c4.83.046,6.587-1.958,6.518-6.76C739.128,792.023,739.494,779.192,739.065,766.386Zm-99.382,23.7H603.859V768.516h9.321c5.4-.241,10.815-.242,16.212,0h10.291Zm88.97,0H692.829V768.516h35.823Z" transform="translate(5.583 8593.336)" fill="#1b3f5e"/>
    </g>
  </g>
</svg>
