<svg xmlns="http://www.w3.org/2000/svg" xmlns:xlink="http://www.w3.org/1999/xlink" width="253" height="192.348" viewBox="0 0 253 192.348">
  <defs>
    <linearGradient id="linear-gradient" y1="0.195" x2="1" y2="0.195" gradientUnits="objectBoundingBox">
      <stop offset="0.425" stop-color="#789401"/>
      <stop offset="0.442" stop-color="#7e9b01"/>
      <stop offset="0.506" stop-color="#8dae01"/>
      <stop offset="0.549" stop-color="#93b501"/>
    </linearGradient>
  </defs>
  <g id="icono12" transform="translate(-465.063 -182.52)">
    <g id="Grupo_1077494" data-name="Grupo 1077494" transform="translate(472.748 222.387)">
      <path id="Trazado_827821" data-name="Trazado 827821" d="M738,419.9l-4.4.167a33.023,33.023,0,0,0-8.778-7.022L653.733,372c-15.939-9.2-40.07-10.2-53.892-2.229l-97.807,56.483a25.556,25.556,0,0,0-3.706,2.591l-5.629.223v10.7c-.028,6.13,4.458,12.6,13.18,17.639l71.085,41.046c15.939,9.2,40.07,10.2,53.892,2.229l97.807-56.455c6.186-3.567,9.251-8.332,9.335-13.348h0V419.9Z" transform="translate(-492.684 -353.584)" fill="url(#linear-gradient)"/>
      <path id="Trazado_827822" data-name="Trazado 827822" d="M728.663,596.547,630.856,653c-13.821,7.97-37.953,6.966-53.891-2.229L505.88,609.728c-8.75-5.044-13.208-11.508-13.18-17.639v5.462c-.028,6.13,4.458,12.6,13.18,17.639l71.085,41.046c15.939,9.2,40.07,10.2,53.891,2.229l97.807-56.455c6.186-3.567,9.251-8.332,9.335-13.347h0V583.2h0C737.943,588.188,734.877,592.953,728.663,596.547Z" transform="translate(-492.684 -511.418)" fill="#7a3d23"/>
      <path id="Trazado_827823" data-name="Trazado 827823" d="M1002.076,394.95,930.991,353.9c-15.939-9.2-40.07-10.2-53.892-2.229l60.746,107.978v5.74l68.1-39.318c6.242-3.595,9.307-8.415,9.335-13.459v-5.74A42.15,42.15,0,0,0,1002.076,394.95Z" transform="translate(-769.969 -340.527)" fill="#875937"/>
      <path id="Trazado_827824" data-name="Trazado 827824" d="M728.622,405.375,630.815,461.83c-13.821,7.969-37.953,6.966-53.892-2.229l-71.084-41.018c-15.939-9.2-17.694-23.128-3.873-31.126l97.807-56.483c13.821-7.969,37.953-6.966,53.892,2.229l71.085,41.046C740.716,383.473,742.443,397.406,728.622,405.375Z" transform="translate(-492.642 -325.595)" fill="#a6cc02"/>
      <path id="Trazado_827825" data-name="Trazado 827825" d="M825.779,374.35,754.694,333.3c-15.939-9.2-40.07-10.2-53.892-2.229l-68.1,39.318,128.849,74.4,68.1-39.318C843.473,397.478,841.746,383.545,825.779,374.35Z" transform="translate(-593.673 -325.668)" fill="#a26b42"/>
    </g>
    <g id="Grupo_1077495" data-name="Grupo 1077495" transform="translate(514.005 264.159)">
      <path id="Trazado_827826" data-name="Trazado 827826" d="M640.7,477.924l127.874,73.843,4.208-2.424L644.908,475.5Z" transform="translate(-640.7 -475.5)" fill="#c1c8e0"/>
    </g>
    <g id="Grupo_1077498" data-name="Grupo 1077498" transform="translate(561.993 182.519)">
      <g id="Grupo_1077497" data-name="Grupo 1077497" transform="translate(0)">
        <path id="Trazado_827827" data-name="Trazado 827827" d="M928.348,290.741c-1.2-7.356-3.455-7.189-3.79-12.2s4.626-12.762,4.263-18.14,10.143-11.508,12.094-10.979,6.827,2.647,6.242,12.707,2.982,10.282-2.118,24.772c-1.2,3.427-4.319,11.731-4.236,15.772.084,4.068-1.783,4.542-1.811,6.771-.028,2.2-.724,7.022,0,10.756s.585,4.458.446,5.8c-.167,1.338-3.288,2.424-5.489,2.034s-3.4-1.644-3.009-2.814.752-4.709,1.449-6.1c.7-1.421,1.282-11.09.39-12.79-.892-1.728-.641-3.232-.084-6.019C933.28,297.457,928.348,290.741,928.348,290.741Z" transform="translate(-893.436 -230.752)" fill="#942f11"/>
        <path id="Trazado_827828" data-name="Trazado 827828" d="M844.591,263.4c1.226.056,6.019,1.867,6.688,3.121.641,1.226.307,2.424,1.533,4.013s-2.4,2.48-4.319,2.062c-1.951-.418-1.895-2.062-2.424-3.818A9.086,9.086,0,0,0,843,264.431C841.888,263.679,844.591,263.4,844.591,263.4Z" transform="translate(-834.423 -240.862)" fill="#ba4f2c"/>
        <path id="Trazado_827829" data-name="Trazado 827829" d="M844.4,266.594c2.257-.084,4.18,1.978,3.762,3.734s1.282,3.539,1.282,3.678-.39.641-.975,0C847.911,273.393,847.159,268.879,844.4,266.594Z" transform="translate(-835.626 -243.164)" fill="#eb874b"/>
        <path id="Trazado_827830" data-name="Trazado 827830" d="M927.808,316.3c5.127.251,13.1.947,19.729,1.616.5,4.208,1.031,7.468-2.424,17.277-1.2,3.427-4.319,11.731-4.236,15.772.084,4.068-1.783,4.542-1.811,6.771-.028,2.2-.724,7.022,0,10.756s.585,4.458.446,5.8c-.111.836-1.393,1.588-2.87,1.923.084-8.443-.307-8.025.446-8.61.808-.613-.2-7.106,0-8.833s-.139-6.576-1.811-8.109c-.7-.641-1.616-1.588-2.452-2.48.111-2.982-4.375-9.112-4.375-9.112a22.637,22.637,0,0,0-2.424-7.412c-.474-1.533-.92-3.093-1.337-4.6a.474.474,0,0,0-.028-.2C924.464,324.381,926.108,320.368,927.808,316.3Z" transform="translate(-893.509 -279.021)" fill="#82260a"/>
        <path id="Trazado_827831" data-name="Trazado 827831" d="M952.533,511.593c2.4-.92,2.062-1.031,3.093-1.143a11.034,11.034,0,0,1,.084,3.678c-.167,1.338-3.288,2.424-5.489,2.034s-3.4-1.644-3.009-2.814a25.986,25.986,0,0,0,.669-3.149C947.685,511.287,949.552,512.736,952.533,511.593Z" transform="translate(-909.736 -418.89)" fill="#33373b"/>
        <path id="Trazado_827832" data-name="Trazado 827832" d="M1100.632,211.438c.39,3.232,3.344,5.8,5.044,8.053a45.194,45.194,0,0,1,3.929,11.146c.362,1.031-.084,2.87,0,4.793s.78,6.883.864,7.273a6.567,6.567,0,0,1-.2,2.285c-.084.39-.223,1.17-.307,1.978a7.836,7.836,0,0,0,.056,2.842c.362,1.143,1.421,1.2,2.7,1.31s3.957-1.449,3.873-2.146a17.571,17.571,0,0,1,0-2.424c0-.529-.585-3.093-.641-5.573s-1.254-4.18-1.2-5.852,1.5-6.13,1.839-11.62c.334-5.462-.557-3.818-1.338-5.573a5.161,5.161,0,0,1-.362-4.709c.7-2.341,1.087-7.412.975-11.787s1.226-7.412,1.449-11.954,5.266-1.2-.2-6.493c-1.728-1.5-10.255.975-12.6,2.369s-3.232,2.4-3.818,4.876C1098.125,201.295,1100.242,208.205,1100.632,211.438Z" transform="translate(-1019.604 -182.519)" fill="#82260a"/>
        <path id="Trazado_827833" data-name="Trazado 827833" d="M1135.487,414.526c-.112,1.2,1.644,1.867,2.926,1.978s4.235-1.588,4.152-2.313a17.514,17.514,0,0,1,0-2.424,2.544,2.544,0,0,0-2.034.808c-1.421,1.143-4.653-.056-4.514-.975a2.482,2.482,0,0,1-.083.613C1135.849,413.244,1135.57,413.857,1135.487,414.526Z" transform="translate(-1045.597 -347.766)" fill="#33373b"/>
        <path id="Trazado_827834" data-name="Trazado 827834" d="M1137.9,425.208a2.709,2.709,0,0,1,1.142-.808s.2,1.31.167,1.477S1137.9,425.208,1137.9,425.208Z" transform="translate(-1047.341 -356.999)" fill="#fff"/>
        <path id="Trazado_827835" data-name="Trazado 827835" d="M865.852,232.554a61.567,61.567,0,0,0,5.8,6.242c3.706-.529,8.555.307,10.227,4.124,1.672,3.79,10.617,7.914,14.072,9.307,3.427,1.421,11.9-1.7,15.772-3.985s12.79-2.285,22.32-5.657c9.53-3.344,12.734-10.282,15.465-11.4s3.539-.669,7.134-5.072a8.891,8.891,0,0,0,.892-1.449c3.483-6.994,7.524-29.426,6.883-31.376-.7-2.118-5.35-5.155-7.552-5.239s-8.5-5.072-12.316-4.626a25.061,25.061,0,0,0-11.954,4.013c-5.016,3.093-12.428,9.168-19.394,11.9s-12.679,1.031-16.914,3.121c-11.9,5.88-9.14,7.83-13.208,8.945-5.768,1.588-7.384,1.616-10.477,1.449s-8.917,10.867-9.446,14.211C862.954,228.374,864.236,230.464,865.852,232.554Z" transform="translate(-849.136 -183.153)" fill="#ad4929"/>
        <path id="Trazado_827836" data-name="Trazado 827836" d="M886.08,297.009c2.424,1.059,3.232,6.6,3.232,9.418,0,2.842,2.814,2.034,5.406,5.016,2.591,3.009,1.728,5.573,5.127,7.524,3.4,1.978,4.765,1.059,5.434,0,.641-1.059,2.424-4.57,2.591-6.27.167-1.728.836-2.759,1.393-4.9s15.939-9.614,17.416-14.713a24.679,24.679,0,0,1,2.759,5.712,16.25,16.25,0,0,1,.892,6.493c-.167,1.895,1.143,5.824,2.87,6.3s5.74-1.7,10.394-4.431c4.626-2.731,5.378-5.434,6.3-7.189s2.647-3.372,3.093-4.821a17.748,17.748,0,0,0,.557-5.88s6.521-5.378,12.679-5.267c-1.226,5.322-2.675,10.422-4.041,13.18a7.8,7.8,0,0,1-.892,1.449c-3.622,4.4-4.4,3.985-7.133,5.072-2.731,1.115-5.935,8.025-15.465,11.4-9.53,3.344-18.447,3.344-22.32,5.657-3.873,2.285-12.344,5.406-15.772,3.985-3.455-1.421-12.372-5.517-14.072-9.307-1.672-3.79-6.521-4.654-10.227-4.124a65.351,65.351,0,0,1-5.8-6.242c-.362-.446-.7-.92-1-1.365C873.4,299.572,884.1,296.145,886.08,297.009Z" transform="translate(-853.732 -255.717)" fill="#942f11"/>
        <path id="Trazado_827837" data-name="Trazado 827837" d="M1140.578,342.239c-.167-1.31,2.146-3.929,5.294-5.824s2.118-4.04,4.765-6.8a11.756,11.756,0,0,1,5.35-3.316s-.279,7.858-4.263,13.1S1141.5,343.688,1140.578,342.239Z" transform="translate(-1049.267 -286.235)" fill="#ffa399"/>
        <path id="Trazado_827838" data-name="Trazado 827838" d="M1142.9,380.5v4.18a.929.929,0,1,0,1.839,0V380.5Z" transform="translate(-1050.948 -325.332)" fill="#ffa399"/>
        <path id="Trazado_827839" data-name="Trazado 827839" d="M1174.928,375.68a.929.929,0,1,0,1.839,0V371.5H1174.9l.028,4.18Z" transform="translate(-1074.031 -318.84)" fill="#ffa399"/>
        <path id="Trazado_827840" data-name="Trazado 827840" d="M1153.728,384.38a.929.929,0,1,0,1.839,0V380.2H1153.7v4.18Z" transform="translate(-1058.739 -325.115)" fill="#ffa399"/>
        <path id="Trazado_827841" data-name="Trazado 827841" d="M1183.3,357.3v4.18a.96.96,0,0,0,.808,1.059h0a.959.959,0,0,0,.808-1.059V357.3Z" transform="translate(-1080.09 -308.597)" fill="#ffa399"/>
        <path id="Trazado_827842" data-name="Trazado 827842" d="M1166,377.6v4.18a.959.959,0,0,0,.808,1.059h0a.959.959,0,0,0,.808-1.059V377.6Z" transform="translate(-1067.611 -323.24)" fill="#ffa399"/>
        <path id="Trazado_827843" data-name="Trazado 827843" d="M814.532,318.932a9.124,9.124,0,0,0,3.177,2.87,8.427,8.427,0,0,0,1.728.585,3.862,3.862,0,0,1,2.424,1.421s.725.557,2.787-.557a32.643,32.643,0,0,0,4.542-3.149c3.26-.446,7.05-3.957,9.446-5.573s4.932-2.09,6.8-5.462a22.97,22.97,0,0,0,1.783-4.04,12.2,12.2,0,0,0,.167-6.214c-.892-3.957-2.285-7.774-5.211-9.781-2.9-2.034-4.737-3.26-6.66-3.539-5.071-.78-7.133-.251-8.917,1.533-3.873,3.845-4.18,9.864-5.155,12.79-.975,2.9-2.954,10.923-4.709,12.4C813.863,314.669,813.668,317.595,814.532,318.932Z" transform="translate(-813.755 -256.547)" fill="#ad4929"/>
        <path id="Trazado_827844" data-name="Trazado 827844" d="M913.961,306.1c.446-1.756-2.369-4.988-5.378-4.821-2.982.167-5.211,1.449-8.527,0a2.936,2.936,0,0,0-.446,3.706c.585.808,1.728,4.375,3.232,3.957s1.365-2.4,1.755-2.536C906.1,305.882,910.7,307.442,913.961,306.1Z" transform="translate(-875.12 -268.185)" fill="#ba4f2c"/>
        <path id="Trazado_827845" data-name="Trazado 827845" d="M889.953,298.5c.223,1.115,1.282,1.755.808,2.369s-2.285.7-2.174,0S888.922,298.751,889.953,298.5Z" transform="translate(-867.497 -266.181)" fill="#f7f7ff"/>
        <path id="Trazado_827846" data-name="Trazado 827846" d="M869.253,288.9c.223,1.115,1.282,1.756.808,2.369s-2.285.7-2.173,0S868.222,289.151,869.253,288.9Z" transform="translate(-852.565 -259.256)" fill="#f7f7ff"/>
        <path id="Trazado_827847" data-name="Trazado 827847" d="M923.552,310.189c-.334-1.393-1.644-3.762-4.236-3.037s-3.678,1.533-5.35,1.449c-.2.836-.418,2.787.585,1.755C915.554,309.3,919.651,311.22,923.552,310.189Z" transform="translate(-885.686 -272.325)" fill="#eb874b"/>
        <path id="Trazado_827848" data-name="Trazado 827848" d="M827.1,373.347a10.691,10.691,0,0,0,1.811.864,3.975,3.975,0,0,1,2.341,1.142s.529,1.616,2.591.5a10.467,10.467,0,0,0,3.149-2.48c1.951-.307,8.137-4.6,10.533-6.214s5.462-3.177,7.328-6.521a22.97,22.97,0,0,0,1.783-4.04c-.864,1.031-1.588,1.31-2.341,2.452-.669.975-1.895,2.675-3.065,2.536-1.282-.167-2.647-1.115-3.734-.418-.557.362-.279,1.616-.529,2.229-1.5,3.79-4.459,4.236-7.914,6.353a6.538,6.538,0,0,1-2.759.92,21.926,21.926,0,0,1-3.009-.251c-.92-.084-.5,1.031-1.254.446-.864-.641-.39-2.062-1.588-1.477-.808.418-.7-.167-1.2.585l-.529-.307A15.4,15.4,0,0,1,827.1,373.347Z" transform="translate(-823.147 -308.092)" fill="#942f11"/>
        <path id="Trazado_827849" data-name="Trazado 827849" d="M858.095,333.874a9.164,9.164,0,0,1,.585-1.533c.92-1.728,2.87-.836,4.152-1.811a12.941,12.941,0,0,0,3.177-4.431c-.028.084.585,2.034.641,2.313a3.509,3.509,0,0,0,1.17,2.285,3.545,3.545,0,0,1,.529.362,1.244,1.244,0,0,1,.139,1.282,5.028,5.028,0,0,1-.78,1.115c-1.728,2.118-2.647,5.1-5.1,6.3-1.254.613-2.7.641-3.929,1.31-1.588.892-2.508,2.787-4.18,3.455.418-.167,1.031-3.093,1.2-3.595q.711-1.965,1.5-3.929C857.565,336.076,857.788,334.933,858.095,333.874Z" transform="translate(-842.912 -286.091)" fill="#a63513"/>
        <path id="Trazado_827850" data-name="Trazado 827850" d="M876.864,344.408c.084-.028.139-.028.223-.056.947-.251,1.895-.474,2.87-.725a.772.772,0,0,1,.251-.028.546.546,0,0,1,.418.557,1.46,1.46,0,0,1-.279.725,10.632,10.632,0,0,1-2.006,3.288,7.013,7.013,0,0,1-4.04,1.254,9.806,9.806,0,0,0,.474-1.588,8.678,8.678,0,0,0,.557-2.062,1.38,1.38,0,0,1,.056-.474C875.5,344.77,876.306,344.547,876.864,344.408Z" transform="translate(-857.194 -298.714)" fill="#a63513"/>
        <g id="Grupo_1077496" data-name="Grupo 1077496" transform="translate(98.696 6.899)">
          <path id="Trazado_827851" data-name="Trazado 827851" d="M1169.527,240.609c.39,3.232,3.344,5.8,5.043,8.053a45.177,45.177,0,0,1,3.929,11.146c.362,1.031-.083,2.87,0,4.793s.78,6.883.864,7.273a6.568,6.568,0,0,1-.2,2.285c-.083.39-.223,1.17-.306,1.978a7.839,7.839,0,0,0,.056,2.842c.362,1.142,1.421,1.2,2.7,1.31s3.957-1.449,3.873-2.146a17.551,17.551,0,0,1,0-2.424c0-.529-.585-3.093-.641-5.573s-1.254-4.18-1.2-5.852.864-5.434,1.2-10.9.084-4.514-.7-6.27a5.16,5.16,0,0,1-.362-4.709,42.362,42.362,0,0,0,1.5-11.453c-.084-4.375,1.226-7.412,1.449-11.954s-.251-6.381-5.712-11.648c-2.564-.418-3.01.641-4.849,2.619a51.441,51.441,0,0,0-5.629,6.214C1163.675,225.256,1169.136,237.4,1169.527,240.609Z" transform="translate(-1167.103 -207.276)" fill="#ad4929"/>
          <path id="Trazado_827852" data-name="Trazado 827852" d="M1174.777,284.415c-1.7-2.285-4.653-4.849-5.044-8.053-.279-2.146-3.929-9.056-1.533-19.561.864.585.474,6.075.474,6.075.724,7.273,2.424,12.567,4.765,15.3s2.731,3.511,4.542,4.068,1.644.752,1.254,3.344.669,2.7,1.31,6.994-.892,2.814-1.282,6.3,1.31,2.675,1.783,4.626a37.887,37.887,0,0,1,.752,6.27c.083,1.616-.5,5.657-.39,6.214-1.115-.111-1.978-.251-2.313-1.282a8.546,8.546,0,0,1-.056-2.842c.083-.808.223-1.56.306-1.978a5.941,5.941,0,0,0,.2-2.285c-.084-.39-.78-5.35-.864-7.273s.362-3.762,0-4.793A43.251,43.251,0,0,0,1174.777,284.415Z" transform="translate(-1167.31 -243)" fill="#942f11"/>
          <path id="Trazado_827853" data-name="Trazado 827853" d="M1207.587,455.226c-.111,1.2,1.644,1.867,2.926,1.978s4.235-1.588,4.152-2.313a17.571,17.571,0,0,1,0-2.424,2.543,2.543,0,0,0-2.034.808c-1.421,1.142-4.654-.056-4.514-.975a2.477,2.477,0,0,1-.084.613C1207.921,453.916,1207.643,454.529,1207.587,455.226Z" transform="translate(-1196.302 -384.023)" fill="#33373b"/>
          <path id="Trazado_827854" data-name="Trazado 827854" d="M1210,465.908a2.71,2.71,0,0,1,1.142-.808s.2,1.31.167,1.477C1211.282,466.716,1210,465.908,1210,465.908Z" transform="translate(-1198.047 -393.256)" fill="#fff"/>
        </g>
        <path id="Trazado_827855" data-name="Trazado 827855" d="M1013.958,327.878c-2.424-7.022-2.842-4.04-3.316-9.056s1.978-17.165,1.5-22.543,7.607-7.8,9.558-7.329,8.165,5.071,7.8,15.159c-.334,10.087.334,15.214-2.926,23.184-1.672,4.1-3.929,9.335-3.734,13.375.2,4.068-1.672,4.6-1.672,6.8.028,2.2-.557,8.555.251,12.289s.7,4.431.557,5.768-3.232,2.508-5.434,2.146c-2.229-.334-3.427-1.56-3.065-2.731s.641-4.709,1.31-6.158c.669-1.421,1-12.623.084-14.323s-.362-5.434.167-8.248S1013.958,327.878,1013.958,327.878Z" transform="translate(-955.5 -259.25)" fill="#ad4929"/>
        <path id="Trazado_827856" data-name="Trazado 827856" d="M1032.8,387.757c.167-1.895,1.031-4.375,2.006-5.294s.307-2.87.418-3.65c.307-1.867.446-1.282,0-5.434s-.752-5.8.223-6.576c.975-.808,2.452-3.845,1.533-8.025-.474-2.118,1.755-5.8,2.647-8.3s-2.508-1.811-.752-6.3c1.755-4.514,2.285.223,3.845-5.267s2.146-13.682,2.034-18.67a26.815,26.815,0,0,0-.334-3.539,19.206,19.206,0,0,1,1.115,7.44c-.334,10.087.334,15.214-2.926,23.184-1.672,4.1-3.929,9.335-3.734,13.375.195,4.068-1.672,4.6-1.672,6.8.028,2.2-.557,8.555.251,12.289s.7,4.431.557,5.768C1037.927,386.865,1035,388.007,1032.8,387.757Z" transform="translate(-971.528 -279.31)" fill="#942f11"/>
        <path id="Trazado_827857" data-name="Trazado 827857" d="M1026.3,551.71c2.4-.975,2.034-1.059,3.065-1.226a11.68,11.68,0,0,1,.167,3.678c-.139,1.338-3.233,2.508-5.434,2.146-2.229-.334-3.427-1.56-3.065-2.731a29.582,29.582,0,0,0,.585-3.177C1021.425,551.515,1023.319,552.936,1026.3,551.71Z" transform="translate(-962.995 -447.889)" fill="#33373b"/>
        <path id="Trazado_827858" data-name="Trazado 827858" d="M880.124,348c.223-.418,1.477-1.5,2.174-1.282s.167,1.449-.474,1.811a24.478,24.478,0,0,1-2.424,1Z" transform="translate(-860.873 -300.945)" fill="#22222c"/>
        <path id="Trazado_827859" data-name="Trazado 827859" d="M814,389.234c1.031-.251,1.365,1.421,1.365,1.421s3.093,2.229,4.626,1.56,2.452.279,3.093,1,1.867.167,2.146,1.337a6.084,6.084,0,0,1-.084,3.4A2.923,2.923,0,0,1,823,399.739a14.705,14.705,0,0,1-2.647-.056c-1.17-.167-2.369-1.783-5.35-2.982-2.341-.947-1.728-3.678-1.923-4.821-.2-1.115-.334-2.034.307-2.369Z" transform="translate(-812.913 -331.613)" fill="#ffa399"/>
        <path id="Trazado_827860" data-name="Trazado 827860" d="M836.3,405.6a5.057,5.057,0,0,1,.056,2.424,4.988,4.988,0,0,1-2.7,1c-1.143-.139.7-.864,1.365-2.118S836.3,405.6,836.3,405.6Z" transform="translate(-827.61 -343.438)" fill="#eb874b"/>
        <path id="Trazado_827861" data-name="Trazado 827861" d="M815.813,393.7c.641.947.39,1.588.752,2.842.39,1.254,1.031,1.616.669,1.616a2.885,2.885,0,0,1-1.477-1.978c-.111-.836-.557-2.48-.557-2.48Z" transform="translate(-814.563 -334.854)" fill="#eb874b"/>
      </g>
    </g>
    <g id="Grupo_1077529" data-name="Grupo 1077529" transform="translate(515.677 228.435)">
      <g id="Grupo_1077513" data-name="Grupo 1077513">
        <g id="Grupo_1077505" data-name="Grupo 1077505">
          <g id="Grupo_1077500" data-name="Grupo 1077500">
            <g id="Grupo_1077499" data-name="Grupo 1077499">
              <path id="Trazado_827862" data-name="Trazado 827862" d="M653.3,349.111l-3.121-1.811-3.483,2.006,3.149,1.811Z" transform="translate(-646.7 -347.3)" fill="#e8b969"/>
            </g>
          </g>
          <g id="Grupo_1077502" data-name="Grupo 1077502" transform="translate(0 36.531)">
            <g id="Grupo_1077501" data-name="Grupo 1077501">
              <path id="Trazado_827863" data-name="Trazado 827863" d="M653.3,480.211l-3.121-1.811-3.483,2.006,3.149,1.811Z" transform="translate(-646.7 -478.4)" fill="#e8b969"/>
            </g>
          </g>
          <g id="Grupo_1077503" data-name="Grupo 1077503" transform="translate(0 2.006)">
            <path id="Trazado_827864" data-name="Trazado 827864" d="M649.849,356.311,646.7,354.5v36.531l3.149,1.811Z" transform="translate(-646.7 -354.5)" fill="#d6934b"/>
          </g>
          <g id="Grupo_1077504" data-name="Grupo 1077504" transform="translate(3.149 1.811)">
            <path id="Trazado_827865" data-name="Trazado 827865" d="M661.455,353.8v36.531L658,392.338V355.806Z" transform="translate(-658 -353.8)" fill="#e3ae52"/>
          </g>
          <path id="Trazado_827866" data-name="Trazado 827866" d="M661.4,448.619l57.626,33.271v-2.647L661.4,446Z" transform="translate(-657.304 -418.497)" fill="#c98f4d"/>
          <path id="Trazado_827867" data-name="Trazado 827867" d="M661.4,442.61l57.626,33.243,2.229-1.282-57.6-33.271Z" transform="translate(-657.304 -415.107)" fill="#e8b969"/>
        </g>
        <g id="Grupo_1077508" data-name="Grupo 1077508" transform="translate(4.096 11.007)">
          <g id="Grupo_1077506" data-name="Grupo 1077506" transform="translate(0 1.282)">
            <path id="Trazado_827868" data-name="Trazado 827868" d="M661.4,394.047l57.626,33.271v-2.647L661.4,391.4Z" transform="translate(-661.4 -391.4)" fill="#c98f4d"/>
          </g>
          <g id="Grupo_1077507" data-name="Grupo 1077507">
            <path id="Trazado_827869" data-name="Trazado 827869" d="M661.4,388.082l57.626,33.271,2.229-1.31-57.6-33.243Z" transform="translate(-661.4 -386.8)" fill="#e8b969"/>
          </g>
        </g>
        <g id="Grupo_1077510" data-name="Grupo 1077510" transform="translate(61.61 35.556)">
          <g id="Grupo_1077509" data-name="Grupo 1077509">
            <path id="Trazado_827870" data-name="Trazado 827870" d="M874.4,476.711l-3.149-1.811-3.455,2.006,3.149,1.811Z" transform="translate(-867.8 -474.9)" fill="#e8b969"/>
          </g>
        </g>
        <g id="Grupo_1077511" data-name="Grupo 1077511" transform="translate(61.61 37.562)">
          <path id="Trazado_827871" data-name="Trazado 827871" d="M870.949,483.911,867.8,482.1v36.531l3.149,1.811Z" transform="translate(-867.8 -482.1)" fill="#d6934b"/>
        </g>
        <g id="Grupo_1077512" data-name="Grupo 1077512" transform="translate(64.759 37.367)">
          <path id="Trazado_827872" data-name="Trazado 827872" d="M882.555,481.4v36.531l-3.455,2.006V483.406Z" transform="translate(-879.1 -481.4)" fill="#e3ae52"/>
        </g>
      </g>
      <g id="Grupo_1077528" data-name="Grupo 1077528" transform="translate(61.61 35.556)">
        <g id="Grupo_1077520" data-name="Grupo 1077520">
          <g id="Grupo_1077515" data-name="Grupo 1077515">
            <g id="Grupo_1077514" data-name="Grupo 1077514">
              <path id="Trazado_827873" data-name="Trazado 827873" d="M874.4,476.711l-3.149-1.811-3.455,2.006,3.149,1.811Z" transform="translate(-867.8 -474.9)" fill="#e8b969"/>
            </g>
          </g>
          <g id="Grupo_1077517" data-name="Grupo 1077517" transform="translate(0 36.531)">
            <g id="Grupo_1077516" data-name="Grupo 1077516">
              <path id="Trazado_827874" data-name="Trazado 827874" d="M874.4,607.811,871.255,606l-3.455,2.006,3.149,1.811Z" transform="translate(-867.8 -606)" fill="#e8b969"/>
            </g>
          </g>
          <g id="Grupo_1077518" data-name="Grupo 1077518" transform="translate(0 2.006)">
            <path id="Trazado_827875" data-name="Trazado 827875" d="M870.949,483.911,867.8,482.1v36.531l3.149,1.811Z" transform="translate(-867.8 -482.1)" fill="#d6934b"/>
          </g>
          <g id="Grupo_1077519" data-name="Grupo 1077519" transform="translate(3.149 1.811)">
            <path id="Trazado_827876" data-name="Trazado 827876" d="M882.555,481.4v36.531l-3.455,2.006V483.406Z" transform="translate(-879.1 -481.4)" fill="#e3ae52"/>
          </g>
          <path id="Trazado_827877" data-name="Trazado 827877" d="M882.4,576.247l57.625,33.243v-2.619L882.4,573.6Z" transform="translate(-878.332 -546.097)" fill="#c98f4d"/>
          <path id="Trazado_827878" data-name="Trazado 827878" d="M882.4,570.21l57.625,33.271,2.257-1.31L884.657,568.9Z" transform="translate(-878.332 -542.707)" fill="#e8b969"/>
        </g>
        <g id="Grupo_1077523" data-name="Grupo 1077523" transform="translate(4.068 11.007)">
          <g id="Grupo_1077521" data-name="Grupo 1077521" transform="translate(0 1.31)">
            <path id="Trazado_827879" data-name="Trazado 827879" d="M882.4,521.719l57.625,33.271v-2.647L882.4,519.1Z" transform="translate(-882.4 -519.1)" fill="#c98f4d"/>
          </g>
          <g id="Grupo_1077522" data-name="Grupo 1077522">
            <path id="Trazado_827880" data-name="Trazado 827880" d="M882.4,515.71l57.625,33.243,2.257-1.282L884.657,514.4Z" transform="translate(-882.4 -514.4)" fill="#e8b969"/>
          </g>
        </g>
        <g id="Grupo_1077525" data-name="Grupo 1077525" transform="translate(61.61 35.584)">
          <g id="Grupo_1077524" data-name="Grupo 1077524">
            <path id="Trazado_827881" data-name="Trazado 827881" d="M1095.5,604.411l-3.149-1.811-3.455,1.978,3.149,1.811Z" transform="translate(-1088.9 -602.6)" fill="#e8b969"/>
          </g>
        </g>
        <g id="Grupo_1077526" data-name="Grupo 1077526" transform="translate(61.61 37.562)">
          <path id="Trazado_827882" data-name="Trazado 827882" d="M1092.049,611.511,1088.9,609.7v36.531l3.149,1.811Z" transform="translate(-1088.9 -609.7)" fill="#d6934b"/>
        </g>
        <g id="Grupo_1077527" data-name="Grupo 1077527" transform="translate(64.759 37.395)">
          <path id="Trazado_827883" data-name="Trazado 827883" d="M1103.655,609.1v36.531l-3.455,1.978V611.078Z" transform="translate(-1100.2 -609.1)" fill="#e3ae52"/>
        </g>
      </g>
    </g>
    <g id="Grupo_1077536" data-name="Grupo 1077536" transform="translate(488.731 251.592)">
      <path id="Trazado_827884" data-name="Trazado 827884" d="M571.038,480.1l-1.867,1.059-1.477-1.059L550,490.3l141.584,82.286h3.344l17.695-10.227Z" transform="translate(-550 -466.251)" fill="#c1c8e0"/>
      <path id="Trazado_827885" data-name="Trazado 827885" d="M753.084,526.19,611.5,443.9l.557-6.6,141.584,82.286Z" transform="translate(-594.363 -435.377)" fill="#9ea4b7"/>
      <path id="Trazado_827886" data-name="Trazado 827886" d="M755.084,514.609,613.5,432.323l3.344-1.923,141.584,82.286Z" transform="translate(-595.805 -430.4)" fill="#a7adc2"/>
      <path id="Trazado_827887" data-name="Trazado 827887" d="M717.584,549,576,466.712,585.892,461l141.584,82.286Z" transform="translate(-568.755 -452.473)" fill="#6177c2"/>
      <g id="Grupo_1077531" data-name="Grupo 1077531" transform="translate(9.976 3.845)">
        <g id="Grupo_1077530" data-name="Grupo 1077530">
          <path id="Trazado_827888" data-name="Trazado 827888" d="M596.862,444.2l-.585,6.6-5.044,2.926-5.434-3.149Z" transform="translate(-585.8 -444.2)" fill="#717684"/>
        </g>
      </g>
      <path id="Trazado_827889" data-name="Trazado 827889" d="M708.648,568.8,567.064,486.515,566.2,478.1l141.584,82.259Z" transform="translate(-561.686 -464.808)" fill="#8a8fa0"/>
      <path id="Trazado_827890" data-name="Trazado 827890" d="M703.512,544.409,561.9,462.123l3.344-1.923,141.584,82.286Z" transform="translate(-558.584 -451.896)" fill="#a7adc2"/>
      <path id="Trazado_827891" data-name="Trazado 827891" d="M703.512,553.12,561.928,470.834,561.9,467.1l141.612,82.286Z" transform="translate(-558.584 -456.873)" fill="#949aac"/>
      <path id="Trazado_827892" data-name="Trazado 827892" d="M1087.795,725.7v3.734l-1.17.7-.836,9.391-13.654,7.886-.864-8.443-1.17.7v-3.734Z" transform="translate(-925.172 -643.414)" fill="#717684"/>
      <g id="Grupo_1077533" data-name="Grupo 1077533" transform="translate(144.9 82.286)">
        <g id="Grupo_1077532" data-name="Grupo 1077532">
          <path id="Trazado_827893" data-name="Trazado 827893" d="M1084.379,727.623l-3.316-1.923L1070,732.081l3.344,1.923Z" transform="translate(-1070 -725.7)" fill="#a7adc2"/>
        </g>
      </g>
      <g id="Grupo_1077535" data-name="Grupo 1077535" transform="translate(6.66 1.923)">
        <g id="Grupo_1077534" data-name="Grupo 1077534">
          <path id="Trazado_827894" data-name="Trazado 827894" d="M588.279,439.223l-3.344-1.923L573.9,443.681l3.316,1.923Z" transform="translate(-573.9 -437.3)" fill="#a7adc2"/>
        </g>
      </g>
    </g>
    <g id="Grupo_1077553" data-name="Grupo 1077553" transform="translate(465.063 211.485)">
      <g id="Grupo_1077537" data-name="Grupo 1077537" transform="translate(0 25.081)">
        <path id="Trazado_827895" data-name="Trazado 827895" d="M478.727,420.651a4.3,4.3,0,0,0,3.4-1.226l-.557-.418c-.529.725-2.257,1.254-4.4.78-2.2-.474-7.524-2.647-9.558-12.539-2.814-13.6-2.4-26.082.975-29.008,3.121-2.7,6.8.641,6.827.669l.474-.5c-.028-.028-4.18-3.818-7.747-.7-3.595,3.121-4.1,15.6-1.2,29.649,2.118,10.31,7.774,12.567,10.087,13.1A7.073,7.073,0,0,0,478.727,420.651Z" transform="translate(-465.063 -376.479)" fill="#4c2011"/>
      </g>
      <path id="Trazado_827896" data-name="Trazado 827896" d="M577.343,356.007a43.231,43.231,0,0,1,3.873,2.591c1,.864.947,2.118.418,3.511-.5,1.393-1.951,1.338-3.316.056s-5.155-2.452-4.208-4.236C575.086,356.119,576.173,355.645,577.343,356.007Z" transform="translate(-543.616 -336.549)" fill="#fff"/>
      <path id="Trazado_827897" data-name="Trazado 827897" d="M517.938,341.42s-7.357-1.393-9.028,3.455,4.068,9.948,4.068,9.948Z" transform="translate(-496.471 -325.974)" fill="#fdb64f"/>
      <path id="Trazado_827898" data-name="Trazado 827898" d="M638.374,418.895c1.783-.056,2.87,1,1.226,3.232a6.988,6.988,0,0,1-6.158,2.4c-1.2-.279-3.678-.585-3.678-.585l-.864-3.316a48.166,48.166,0,0,0,5.462-.5C635.476,419.814,637.009,418.922,638.374,418.895Z" transform="translate(-583.246 -381.992)" fill="#fff"/>
      <g id="Grupo_1077538" data-name="Grupo 1077538" transform="translate(33.867 21.911)">
        <path id="Trazado_827899" data-name="Trazado 827899" d="M586.879,366.1a8.312,8.312,0,0,0,.724-1l19.617,17.639-1.031,1.477L586.6,366.438C586.684,366.326,586.8,366.215,586.879,366.1Z" transform="translate(-586.6 -365.1)" fill="#4c2011"/>
      </g>
      <path id="Trazado_827900" data-name="Trazado 827900" d="M576.179,355.362c1.087.2,1.393.92,2.7,3.567s-.529,2.647-2.118,1.17-3.511-1.588-3.567-2.786C573.141,356.086,575.287,355.222,576.179,355.362Z" transform="translate(-543.065 -336.154)" fill="#fff"/>
      <path id="Trazado_827901" data-name="Trazado 827901" d="M556.891,346.905a2.055,2.055,0,0,1,1.338,1.756,3.491,3.491,0,0,0-2.452,1.17,2.446,2.446,0,0,0-.056,2.647c-.529.613-7.106.223-8-2.591-.892-2.842.279-3.985,2.536-4.152A16.6,16.6,0,0,1,556.891,346.905Z" transform="translate(-524.474 -329.202)" fill="#fdb64f"/>
      <path id="Trazado_827902" data-name="Trazado 827902" d="M584.323,637.595a5.975,5.975,0,0,0,2.452.39c2.731.112,3.4-.474,4.681-2.285,0,.139.836,3.372.836,3.4,1.867-.641,3.622-1.644,5.211-.7,1.672,1,1.783,2.536,1.393,4.068a8.887,8.887,0,0,1-3.065,2.508,22.163,22.163,0,0,1-5.6,1.672c-1.338.808-3.2,1.421-4.57.7-1.421-.752-2.146-1.365-1.7-2.954A28.662,28.662,0,0,0,584.323,637.595Z" transform="translate(-550.735 -538.386)" fill="#4c2011"/>
      <path id="Trazado_827903" data-name="Trazado 827903" d="M495.618,602.7c1.2.752,4.208,2.842,5.155,1.839a12,12,0,0,0,3.344.975c2.341,0,4.542.39,4.542,3.009,0,.641-1.5,2.508-2.118,2.87a7.341,7.341,0,0,1-6.743.724c-1.142,1-3.845.111-5.434-1.365-.529-.5.306-2.9.892-3.483C495.116,606.768,495.674,603.229,495.618,602.7Z" transform="translate(-486.078 -514.581)" fill="#4c2011"/>
      <path id="Trazado_827904" data-name="Trazado 827904" d="M498.343,475.891c-.279,1.31-1.839,9.223-.947,11.09,1.588,3.427,7.022,2.034,8.22-.028,1.31-2.257.641-3.957,1.31-7.607.836-4.431,3.539-7.663,3.762-9.084,4.988-4.765,5.183-12.484,4.765-19.227-.139-2.368.251-6.047-1-8.137-1.338-2.146-5.35-3.734-7.412-5.071-.669-.446-1.282.641-.613,1.059.028.028.084.028.111.056-3.4,4.041-6.437,11.9-2.313,16.078-2.591,2.7-2.564,7.384-1.644,11.063C500.878,467.225,499.708,469.371,498.343,475.891Z" transform="translate(-488.189 -395.575)" fill="#f8a73d"/>
      <path id="Trazado_827905" data-name="Trazado 827905" d="M540.307,475.027a17.934,17.934,0,0,0,.251,2.006,20.623,20.623,0,0,0,1.7,5.294c1.282,2.814,2.87,7.774,5.74,9.753-1.728,2.369-.613,19.868,1.755,21.819,2.062,2.146,7.245.752,8.276-.446,1.895-2.229.529-7.022.279-10.617-.251-3.65-.223-11.481-.975-15.075-.5-8.471-3.483-20.592-6.381-25.385.028-.111-6.883-.223-7.942-.613-.808-.307-2.2-1.365-3.26-1.142-1.393.307-2.229,2.424-2.647,3.595A9.573,9.573,0,0,0,540.307,475.027Z" transform="translate(-516.639 -412.071)" fill="#fdb64f"/>
      <path id="Trazado_827906" data-name="Trazado 827906" d="M545.294,461.231s-1.978,3.706-9.586,2.062c-5.907-1.282-8.109-4.263-8.109-4.263l.613-2.229,16.357,2.508Z" transform="translate(-510.174 -409.337)" fill="#f8a73d"/>
      <path id="Trazado_827907" data-name="Trazado 827907" d="M511.812,369.162a7.256,7.256,0,0,1,.669,3.985c-.056,2.09-.446,2.7.167,3.873,1.365,2.647,5.378,4.458,9.335,5.8,2.229.752,6.8.279,8.638-1.142.947-.725.892-1.756.056-2.257a10.107,10.107,0,0,0,1.337-1.338c.446-.585.028-.975-.223-1.2-1.616-1.477-.557-1.951.167-3.762.557-1.393-.808-3.009-.919-5.907-.111-2.619,1.421-10.533-4.514-14.267-4.18-2.619-11.62-8.889-16.023-2.842C506.629,355.4,509.081,364.481,511.812,369.162Z" transform="translate(-496.392 -330.532)" fill="#fdd264"/>
      <path id="Trazado_827908" data-name="Trazado 827908" d="M554.125,378.439c1-2.9,5.1-6.66,8.109-4.765a5.228,5.228,0,0,1,2.536,5.573,7.407,7.407,0,0,1,3.4,6.437c.975-.362,4.932-.39,5.74.78a2.533,2.533,0,0,1,3.009,1.839c.334,1.115.362,3.121-.334,3.622-1.616,1.115-4.542,1.728-7.44,2.229-4.375.752-4.765.557-9.419-2.842C555.463,388.192,552.091,384.4,554.125,378.439Z" transform="translate(-528.869 -349.005)" fill="#fdb64f"/>
      <path id="Trazado_827909" data-name="Trazado 827909" d="M532.754,340.786c1.115,1,3.372,1.588,4.765,1.978a13.657,13.657,0,0,0,4.347.2c-.752-1.728-2.034-3.845-2.341-5.963.279-.2-5.991-2.146-6.047-1.867a7.519,7.519,0,0,1-1.421,3.734C531.751,339.393,532.252,340.368,532.754,340.786Z" transform="translate(-513.322 -321.551)" fill="#ffb8a3"/>
      <path id="Trazado_827910" data-name="Trazado 827910" d="M529.814,304.341c.334,2.647,2.675,4.375,4.849,5.573,1.867,1,4.375,2.229,6.27.585a4.569,4.569,0,0,0,1.56-2.7c1.31-3.734.279-8.973-3.288-10.7C535.192,295.173,529.284,300.133,529.814,304.341Z" transform="translate(-511.747 -293.827)" fill="#ffc8b5"/>
      <path id="Trazado_827911" data-name="Trazado 827911" d="M525.735,291.912c-3.232,3.678-.752,8.109,1.951,8.583,2.146.39,3.344-1.616,3.706-3.2a2.258,2.258,0,0,0,2.814-.892,2.744,2.744,0,0,0-.139-3.009c2.2,1.031,6.325,1.449,7.106-1.17a2.683,2.683,0,0,0-3.009-3.288.823.823,0,0,0-.056-.362c-.306-.724-1.059-.557-1.616-.223-.919-2.173-5.239-2.787-5.462-.056C528.438,287.063,525.735,289.627,525.735,291.912Z" transform="translate(-507.723 -286.47)" fill="#4c2011"/>
      <path id="Trazado_827912" data-name="Trazado 827912" d="M544.167,328.883s-1.644-1.756-2.09.139a1.863,1.863,0,0,0,.975,1.978Z" transform="translate(-520.583 -316.53)" fill="#ffc8b5"/>
      <path id="Trazado_827913" data-name="Trazado 827913" d="M562.2,462.006a9.4,9.4,0,0,1-4.319.836A9.547,9.547,0,0,1,553.2,461.7s3.567.334,4.821.39C559.247,462.146,562.2,462.006,562.2,462.006Z" transform="translate(-528.64 -412.871)" fill="#fdb64f"/>
      <path id="Trazado_827914" data-name="Trazado 827914" d="M556.948,442.565a19.258,19.258,0,0,1-5.294-.947C549.146,440.726,547,437.8,547,437.8a26,26,0,0,0,5.183,3.2C554.217,441.757,556.948,442.565,556.948,442.565Z" transform="translate(-524.168 -395.631)" fill="#fdb64f"/>
      <path id="Trazado_827915" data-name="Trazado 827915" d="M561.33,437.037s-4.263,3.734-8.22,1.421S550.462,434,550.462,434s2.034,3.232,5.1,3.427a5.976,5.976,0,0,0,4.514-1.226Z" transform="translate(-526.516 -392.89)" fill="#4c2011"/>
      <path id="Trazado_827916" data-name="Trazado 827916" d="M551.6,364.812a9.851,9.851,0,0,0-4.653,1.728,11.583,11.583,0,0,0-2.619,2.814l-1.031-.669a15.17,15.17,0,0,1,3.372-3.734,4.8,4.8,0,0,1,3.873-.836Z" transform="translate(-521.499 -342.399)" fill="#4c2011"/>
      <path id="Trazado_827917" data-name="Trazado 827917" d="M515.8,345.012a9.851,9.851,0,0,0-4.654,1.728,11.58,11.58,0,0,0-2.619,2.814l-1.031-.669a15.171,15.171,0,0,1,3.372-3.734,4.8,4.8,0,0,1,3.873-.836Z" transform="translate(-495.675 -328.117)" fill="#4c2011"/>
      <path id="Trazado_827918" data-name="Trazado 827918" d="M541.108,348.092s.223-2.229-2.786-3.093-4.9-1.115-6.6-3.009c-.5-.557-.585.167-1.031.92s-1.087,1.477.864,3.26,4.709,2.118,6.242,2.257A11.11,11.11,0,0,0,541.108,348.092Z" transform="translate(-512.062 -326.376)" fill="#fdb64f"/>
      <path id="Trazado_827919" data-name="Trazado 827919" d="M584.126,568.835a4.074,4.074,0,0,1-2.313,1.449,3.776,3.776,0,0,1-2.313,0S582.2,568.584,584.126,568.835Z" transform="translate(-547.612 -490.134)" fill="#f8a73d"/>
      <path id="Trazado_827920" data-name="Trazado 827920" d="M581.234,558.2a6.115,6.115,0,0,1-1.5,2.006,17.9,17.9,0,0,1-2.229,1.226,5.538,5.538,0,0,1,1.115-1.755A6.007,6.007,0,0,1,581.234,558.2Z" transform="translate(-546.169 -482.481)" fill="#f8a73d"/>
      <path id="Trazado_827921" data-name="Trazado 827921" d="M656.268,428.438a.841.841,0,0,0,.028,1.142c.307.223.78.056,1.087-.362a.712.712,0,1,0-1.115-.78Z" transform="translate(-602.84 -388.554)" fill="#682e23"/>
      <path id="Trazado_827922" data-name="Trazado 827922" d="M657.552,430.37a.475.475,0,0,1,.056-.529.435.435,0,0,1,.529-.223l18,15.577-.557.725c-.028.028-18-15.549-18.029-15.549Z" transform="translate(-603.873 -389.706)" fill="#fff"/>
      <path id="Trazado_827923" data-name="Trazado 827923" d="M718.824,481.027s-1.393-.808-1.895-.669a1.015,1.015,0,0,0-.529.724c0,.864,1,1.644,1,1.644Z" transform="translate(-646.364 -426.319)" fill="#4c2011"/>
      <path id="Trazado_827924" data-name="Trazado 827924" d="M719.74,482.988a.87.87,0,1,0,1.31-.418C720.687,482.291,720.1,482.486,719.74,482.988Z" transform="translate(-648.589 -427.834)" fill="#682e23"/>
      <path id="Trazado_827925" data-name="Trazado 827925" d="M721.13,484.327c-.2.279-.2.613.028.752a.564.564,0,0,0,.724-.251c.2-.279.2-.613-.028-.752A.594.594,0,0,0,721.13,484.327Z" transform="translate(-649.673 -428.978)" fill="#4c2011"/>
      <path id="Trazado_827926" data-name="Trazado 827926" d="M508.241,377.7s1.254,2.369,5.88,4.041a47.693,47.693,0,0,0,6.521,1.728l.112,3.65a36.856,36.856,0,0,1-7.245-1.951,9.334,9.334,0,0,1-5.183-4.04C507.878,380.292,508.241,377.7,508.241,377.7Z" transform="translate(-496.109 -352.278)" fill="#fff"/>
      <g id="Grupo_1077543" data-name="Grupo 1077543" transform="translate(17.079 5.931)">
        <g id="Grupo_1077539" data-name="Grupo 1077539">
          <path id="Trazado_827927" data-name="Trazado 827927" d="M536.9,316.655a.325.325,0,0,0,.307-.2.365.365,0,0,0-.139-.474,39.458,39.458,0,0,1-6.326-4.1,35.307,35.307,0,0,1-3.79-4.013.337.337,0,1,0-.529.418,35.494,35.494,0,0,0,3.873,4.124,38.307,38.307,0,0,0,6.465,4.208A1.2,1.2,0,0,0,536.9,316.655Z" transform="translate(-526.353 -307.753)" fill="#fff"/>
        </g>
        <g id="Grupo_1077540" data-name="Grupo 1077540" transform="translate(2.711 3.157)">
          <path id="Trazado_827928" data-name="Trazado 827928" d="M540.433,326.526a.252.252,0,0,0,.195-.084.321.321,0,0,0,.028-.474c-.028-.028-3.065-3.65-3.9-6.632a.345.345,0,0,0-.669.167c.864,3.093,3.9,6.716,4.041,6.883A.508.508,0,0,0,540.433,326.526Z" transform="translate(-536.081 -319.081)" fill="#fff"/>
        </g>
        <g id="Grupo_1077542" data-name="Grupo 1077542" transform="translate(5.809 5.096)">
          <path id="Trazado_827929" data-name="Trazado 827929" d="M573.736,329.9l2.982.78-1,4.013-2.814-.529Z" transform="translate(-565.739 -328.825)" fill="#4c2011"/>
          <path id="Trazado_827930" data-name="Trazado 827930" d="M555.671,326.058s-1.978-.306-4.653,1.756A27.223,27.223,0,0,0,547.2,331.1s3.093,3.873,6.521,1.421C556.256,330.684,555.671,326.058,555.671,326.058Z" transform="translate(-547.2 -326.042)" fill="#602a1c"/>
          <g id="Grupo_1077541" data-name="Grupo 1077541" transform="translate(0.256 3.656)">
            <path id="Trazado_827931" data-name="Trazado 827931" d="M550.849,342.044l-1.449-1.365,1.143-1.2c.641-.613,1.895-.306,2.814.669s1.142,2.257.529,2.842l-1,1.031-1.31-1.254c-.167-.139-.362-.279-.529-.446A2.4,2.4,0,0,1,550.849,342.044Z" transform="translate(-549.043 -339.164)" fill="#4c2011"/>
            <path id="Trazado_827932" data-name="Trazado 827932" d="M549.006,346.655c.92.975,2.174,1.254,2.814.669.641-.613.39-1.895-.529-2.842-.92-.975-2.173-1.254-2.814-.669S548.087,345.68,549.006,346.655Z" transform="translate(-548.12 -342.298)" fill="#682e23"/>
            <path id="Trazado_827933" data-name="Trazado 827933" d="M550.263,347.63c.7.752,1.672.975,2.146.5s.307-1.449-.39-2.173c-.7-.752-1.672-.975-2.146-.5C549.372,345.93,549.567,346.905,550.263,347.63Z" transform="translate(-549.182 -343.524)" fill="#602a1c"/>
          </g>
          <path id="Trazado_827934" data-name="Trazado 827934" d="M582.038,334.552c-.279,1.115-.223,2.062.111,2.146s.836-.752,1.115-1.867.223-2.062-.111-2.146S582.317,333.437,582.038,334.552Z" transform="translate(-572.202 -330.83)" fill="#682e23"/>
          <path id="Trazado_827935" data-name="Trazado 827935" d="M582.776,335.381c-.223.92-.223,1.728.028,1.783s.613-.641.864-1.588.223-1.728-.028-1.783S583,334.461,582.776,335.381Z" transform="translate(-572.744 -331.63)" fill="#602a1c"/>
        </g>
      </g>
      <path id="Trazado_827936" data-name="Trazado 827936" d="M634.5,421.486a21.341,21.341,0,0,1,3.957-.5c1.282.084,2.4-.084,2.786.418s.056.892-.474,1a15.566,15.566,0,0,0-2.508,1.588,10.188,10.188,0,0,1-2.731.947C635.615,423.631,635.5,422.266,634.5,421.486Z" transform="translate(-587.286 -383.497)" fill="#fff"/>
      <g id="Grupo_1077544" data-name="Grupo 1077544" transform="translate(73.213 56.687)">
        <path id="Trazado_827937" data-name="Trazado 827937" d="M738.64,494.971c.223-1-1.755-1.087-2.4-1.31-2.982-.92-5.963-1.811-8.443-3.762C730.419,492.659,738.082,497.563,738.64,494.971Z" transform="translate(-727.8 -489.9)" fill="#3e72db"/>
        <path id="Trazado_827938" data-name="Trazado 827938" d="M741.914,510.489c1.282,2.619,2.118,4.681,2.954,4.431,3.957-1.2-6.576-10.951-7.468-11.62C739.211,506.421,740.744,508.093,741.914,510.489Z" transform="translate(-734.725 -499.566)" fill="#3e72db"/>
        <path id="Trazado_827939" data-name="Trazado 827939" d="M748.947,538.581c.613,2.87.92,5.071,1.811,5.016,4.124-.223-3.762-12.205-4.458-13.1C747.3,533.983,748.39,535.962,748.947,538.581Z" transform="translate(-741.145 -519.187)" fill="#3e72db"/>
      </g>
      <g id="Grupo_1077552" data-name="Grupo 1077552" transform="translate(5.442 14.526)">
        <g id="Grupo_1077547" data-name="Grupo 1077547" transform="translate(0 6.827)">
          <path id="Trazado_827940" data-name="Trazado 827940" d="M561.336,384.223l.084,19.7h0a2.081,2.081,0,0,1-.92,1.477V384Z" transform="translate(-539.349 -378.176)" fill="#2f6bcc"/>
          <path id="Trazado_827941" data-name="Trazado 827941" d="M502.541,368.032v23.992a6.48,6.48,0,0,1-4.626-.307l-12.289-7.078a1.783,1.783,0,0,1-1.031-1.616h0V363.1Z" transform="translate(-484.594 -363.1)" fill="#2f6bcc"/>
          <path id="Trazado_827942" data-name="Trazado 827942" d="M552.2,381.692V403.12a3.551,3.551,0,0,1-.529.362l-1.31.752a5.4,5.4,0,0,1-1.365.557V380.8Z" transform="translate(-531.053 -375.868)" fill="#2f6bcc"/>
          <path id="Trazado_827943" data-name="Trazado 827943" d="M552.2,381.692V403.12a3.551,3.551,0,0,1-.529.362l-1.31.752a5.4,5.4,0,0,1-1.365.557V380.8Z" transform="translate(-531.053 -375.868)" fill="#4688e8"/>
          <g id="Grupo_1077545" data-name="Grupo 1077545" transform="translate(0.028 18.252)">
            <path id="Trazado_827944" data-name="Trazado 827944" d="M485.727,430.216l12.289,7.078a6.467,6.467,0,0,0,4.626.307,7.378,7.378,0,0,0,1.365-.557l1.31-.752a3.549,3.549,0,0,0,.529-.362,2.081,2.081,0,0,0,.919-1.477h0v.669h0a2.081,2.081,0,0,1-.919,1.477,3.549,3.549,0,0,1-.529.362l-1.31.752a5.4,5.4,0,0,1-1.365.557,6.48,6.48,0,0,1-4.626-.307l-12.289-7.078a1.783,1.783,0,0,1-1.031-1.616h0V428.6h0A1.783,1.783,0,0,0,485.727,430.216Z" transform="translate(-484.694 -428.6)" fill="#602a1c"/>
          </g>
          <g id="Grupo_1077546" data-name="Grupo 1077546" transform="translate(0.028 0.836)">
            <path id="Trazado_827945" data-name="Trazado 827945" d="M485.727,367.716l12.289,7.078a6.468,6.468,0,0,0,4.626.307,7.382,7.382,0,0,0,1.365-.557l1.31-.752a3.551,3.551,0,0,0,.529-.362,2.081,2.081,0,0,0,.919-1.477h0v.669h0a2.081,2.081,0,0,1-.919,1.477,3.553,3.553,0,0,1-.529.362l-1.31.752a5.4,5.4,0,0,1-1.365.557,6.48,6.48,0,0,1-4.626-.307l-12.289-7.078a1.783,1.783,0,0,1-1.031-1.616h0V366.1h0A1.812,1.812,0,0,0,485.727,367.716Z" transform="translate(-484.694 -366.1)" fill="#602a1c"/>
          </g>
        </g>
        <path id="Trazado_827946" data-name="Trazado 827946" d="M485.721,355.2l12.289,7.078a6.562,6.562,0,0,0,5.963-.251l1.31-.752c1.756-1,1.951-2.564.418-3.455l-12.289-7.078a6.562,6.562,0,0,0-5.963.251l-1.31.752C484.384,352.748,484.189,354.308,485.721,355.2Z" transform="translate(-484.661 -346.924)" fill="#4688e8"/>
        <path id="Trazado_827947" data-name="Trazado 827947" d="M525.4,374.608c0,1.393,2.006,2.508,4.458,2.508s4.458-1.115,4.458-2.508-2.006-2.508-4.458-2.508C527.378,372.1,525.4,373.215,525.4,374.608Z" transform="translate(-514.029 -362.765)" fill="#97ceff"/>
        <ellipse id="Elipse_6268" data-name="Elipse 6268" cx="4.458" cy="2.508" rx="4.458" ry="2.508" transform="translate(1.59 3.901)" fill="#97ceff"/>
        <g id="Grupo_1077548" data-name="Grupo 1077548" transform="translate(12.29 5.377)">
          <path id="Trazado_827948" data-name="Trazado 827948" d="M535.276,364.5v2.759c0,1.031-1.477,1.839-3.288,1.839s-3.288-.836-3.288-1.839V364.5Z" transform="translate(-528.7 -362.66)" fill="#602a1c"/>
          <path id="Trazado_827949" data-name="Trazado 827949" d="M528.7,359.737c0,1.031,1.477,1.839,3.288,1.839s3.288-.836,3.288-1.839c0-1.031-1.477-1.839-3.288-1.839C530.177,357.87,528.7,358.706,528.7,359.737Z" transform="translate(-528.7 -357.898)" fill="#77362d"/>
          <path id="Trazado_827950" data-name="Trazado 827950" d="M533.1,360.07c0,.641.92,1.17,2.062,1.17s2.062-.529,2.062-1.17-.92-1.17-2.062-1.17S533.1,359.429,533.1,360.07Z" transform="translate(-531.874 -358.621)" fill="#843e36"/>
        </g>
        <g id="Grupo_1077549" data-name="Grupo 1077549" transform="translate(2.76)">
          <path id="Trazado_827951" data-name="Trazado 827951" d="M501.076,345.2v2.759c0,1.031-1.477,1.839-3.288,1.839s-3.288-.836-3.288-1.839V345.2Z" transform="translate(-494.5 -343.361)" fill="#602a1c"/>
          <ellipse id="Elipse_6269" data-name="Elipse 6269" cx="3.288" cy="1.839" rx="3.288" ry="1.839" fill="#77362d"/>
        </g>
        <g id="Grupo_1077550" data-name="Grupo 1077550" transform="translate(9.95 18.14)">
          <path id="Trazado_827952" data-name="Trazado 827952" d="M522.9,420.8l2.452-1.393V405l-2.452,1.421Z" transform="translate(-522.176 -404.638)" fill="#602a1c"/>
          <path id="Trazado_827953" data-name="Trazado 827953" d="M522.724,403.7l.752.362-2.452,1.421-.724-.39Z" transform="translate(-520.3 -403.7)" fill="#843e36"/>
        </g>
        <g id="Grupo_1077551" data-name="Grupo 1077551" transform="translate(7.442 15.493)">
          <path id="Trazado_827954" data-name="Trazado 827954" d="M516.26,399.2v17.778c0,.78-1.115,1.393-2.48,1.393s-2.48-.613-2.48-1.393V399.2Z" transform="translate(-511.3 -397.807)" fill="#ccbcbc"/>
          <path id="Trazado_827955" data-name="Trazado 827955" d="M511.4,395.593c0,.78,1.115,1.393,2.48,1.393s2.48-.613,2.48-1.393-1.115-1.393-2.48-1.393S511.4,394.813,511.4,395.593Z" transform="translate(-511.372 -394.2)" fill="#f4ebea"/>
          <path id="Trazado_827956" data-name="Trazado 827956" d="M514.2,395.416c0,.5.752.92,1.644.92.92,0,1.644-.418,1.644-.92s-.752-.92-1.644-.92C514.924,394.469,514.2,394.887,514.2,395.416Z" transform="translate(-513.392 -394.413)" fill="#fff"/>
        </g>
        <path id="Trazado_827957" data-name="Trazado 827957" d="M498.9,341.07c0,.641.92,1.17,2.062,1.17s2.062-.529,2.062-1.17-.92-1.17-2.062-1.17S498.9,340.429,498.9,341.07Z" transform="translate(-494.914 -339.538)" fill="#843e36"/>
        <path id="Trazado_827958" data-name="Trazado 827958" d="M495.549,385.574l-2.647-1.533a1.2,1.2,0,0,1-.5-.947h0c0-.362.223-.529.5-.362l2.647,1.533a1.2,1.2,0,0,1,.5.947h0C496.022,385.574,495.8,385.741,495.549,385.574Z" transform="translate(-490.225 -370.387)" fill="#fff"/>
        <path id="Trazado_827959" data-name="Trazado 827959" d="M495.549,431.574l-2.647-1.533a1.2,1.2,0,0,1-.5-.947h0c0-.362.223-.529.5-.362l2.647,1.533a1.2,1.2,0,0,1,.5.947h0C496.022,431.546,495.8,431.713,495.549,431.574Z" transform="translate(-490.225 -403.569)" fill="#fff"/>
      </g>
    </g>
  </g>
</svg>
