<svg id="Grupo_1082374" data-name="Grupo 1082374" xmlns="http://www.w3.org/2000/svg" xmlns:xlink="http://www.w3.org/1999/xlink" width="253" height="204" viewBox="0 0 253 204">
  <defs>
    <radialGradient id="radial-gradient" cx="0.538" cy="0.55" r="0.547" gradientTransform="matrix(-0.82, 0.274, 0.234, 0.962, 15.322, 16.131)" gradientUnits="objectBoundingBox">
      <stop offset="0.574" stop-color="#151112"/>
      <stop offset="0.798" stop-color="#151112"/>
      <stop offset="1" stop-color="#151112"/>
    </radialGradient>
    <clipPath id="clip-path">
      <rect id="Rectángulo_376939" data-name="Rectángulo 376939" width="253" height="101.757" fill="none"/>
    </clipPath>
    <clipPath id="clip-path-3">
      <path id="Trazado_832506" data-name="Trazado 832506" d="M63.076,30.261l12.365,9.7A19.639,19.639,0,0,1,69.485,74.06l-9.832,3.254a11.283,11.283,0,0,1-7.093,0L42.728,74.06a19.639,19.639,0,0,1-5.956-34.094l12.365-9.7a11.287,11.287,0,0,1,13.939,0" transform="translate(-29.258 -27.852)" fill="none"/>
    </clipPath>
    <linearGradient id="linear-gradient" x1="-0.449" y1="-0.524" x2="-0.434" y2="-0.524" gradientUnits="objectBoundingBox">
      <stop offset="0" stop-color="#5294c0"/>
      <stop offset="1" stop-color="#63b5cc"/>
    </linearGradient>
    <clipPath id="clip-path-4">
      <path id="Trazado_832507" data-name="Trazado 832507" d="M60.423,30.261l12.365,9.7A19.639,19.639,0,0,1,66.832,74.06L57,77.314a11.286,11.286,0,0,1-7.093,0L40.074,74.06a19.639,19.639,0,0,1-5.955-34.094l12.364-9.7a11.288,11.288,0,0,1,13.94,0" transform="translate(-26.604 -27.852)" fill="none"/>
    </clipPath>
    <linearGradient id="linear-gradient-2" x1="1.368" y1="1.614" x2="1.354" y2="1.614" xlink:href="#linear-gradient"/>
    <clipPath id="clip-path-5">
      <path id="Trazado_832508" data-name="Trazado 832508" d="M53.454,65.6a72.181,72.181,0,0,0,26.593-4.91,20.037,20.037,0,0,1,.253,3.163A19.621,19.621,0,0,1,66.833,82.5L57,85.746a11.215,11.215,0,0,1-7.094,0L40.073,82.5A19.632,19.632,0,0,1,26.606,63.849a20.038,20.038,0,0,1,.253-3.163A72.183,72.183,0,0,0,53.454,65.6" transform="translate(-26.606 -60.686)" fill="none"/>
    </clipPath>
    <linearGradient id="linear-gradient-3" x1="1.368" y1="2.194" x2="1.354" y2="2.194" gradientUnits="objectBoundingBox">
      <stop offset="0" stop-color="#5294c0"/>
      <stop offset="0.445" stop-color="#5396c0"/>
      <stop offset="0.704" stop-color="#579ec3"/>
      <stop offset="0.914" stop-color="#5eacc8"/>
      <stop offset="1" stop-color="#63b5cc"/>
    </linearGradient>
    <clipPath id="clip-path-7">
      <rect id="Rectángulo_376915" data-name="Rectángulo 376915" width="44.747" height="41.743" fill="none"/>
    </clipPath>
    <clipPath id="clip-path-8">
      <rect id="Rectángulo_376917" data-name="Rectángulo 376917" width="19.567" height="0.675" fill="none"/>
    </clipPath>
    <clipPath id="clip-path-9">
      <rect id="Rectángulo_376919" data-name="Rectángulo 376919" width="27.968" height="0.675" fill="none"/>
    </clipPath>
    <clipPath id="clip-path-11">
      <path id="Trazado_832510" data-name="Trazado 832510" d="M308.706,43.554V68.667H296.08a5.249,5.249,0,0,1-5.094-6.515l4.624-18.6Z" transform="translate(-290.829 -43.554)" fill="none"/>
    </clipPath>
    <linearGradient id="linear-gradient-4" x1="-6.769" y1="-1.492" x2="-6.745" y2="-1.492" xlink:href="#linear-gradient"/>
    <clipPath id="clip-path-12">
      <path id="Trazado_832511" data-name="Trazado 832511" d="M289.492,36.6,293.4,75.751a57.755,57.755,0,0,1-3.116,25.271L288,107.4a5.686,5.686,0,0,1-5.351,3.763H263.762a5.686,5.686,0,0,1-5.361-7.581,57.74,57.74,0,0,0,2.095-31L253.019,36.6Z" transform="translate(-253.019 -36.604)" fill="none"/>
    </clipPath>
    <radialGradient id="radial-gradient-2" cx="0.941" cy="0.521" r="1.392" gradientTransform="matrix(-1.075, 0, 0, -1, -4.476, 1.041)" gradientUnits="objectBoundingBox">
      <stop offset="0" stop-color="#f4d75b"/>
      <stop offset="0.749" stop-color="#edb600"/>
      <stop offset="1" stop-color="#edb600"/>
    </radialGradient>
    <clipPath id="clip-path-13">
      <path id="Trazado_832512" data-name="Trazado 832512" d="M324,43.431l-35.111-4.521-.493-.06-2.922-.36-3.668-.458a6.207,6.207,0,0,1-5.447-6.156V15.547a6.22,6.22,0,0,1,5.664-6.181l3.715-.325,3.68-.324a.818.818,0,0,1,.168-.025l.169-.012L324,5.567Z" transform="translate(-276.361 -5.567)" fill="none"/>
    </clipPath>
    <linearGradient id="linear-gradient-5" x1="5.311" y1="2.578" x2="5.295" y2="2.578" gradientUnits="objectBoundingBox">
      <stop offset="0" stop-color="#eaeaea"/>
      <stop offset="0.566" stop-color="#d8d8d8"/>
      <stop offset="1" stop-color="#d0d0d0"/>
    </linearGradient>
    <clipPath id="clip-path-14">
      <path id="Trazado_832513" data-name="Trazado 832513" d="M293.3,36.61l7.48,35.976a57.928,57.928,0,0,1-2.093,31,5.679,5.679,0,0,0,5.351,7.576h-2.321a5.679,5.679,0,0,1-5.35-7.576,57.928,57.928,0,0,0,2.093-31l-7.48-35.976Z" transform="translate(-290.983 -36.61)" fill="none"/>
    </clipPath>
    <linearGradient id="linear-gradient-6" x1="-2.452" y1="-1.355" x2="-2.442" y2="-1.355" xlink:href="#linear-gradient"/>
    <clipPath id="clip-path-15">
      <path id="Trazado_832514" data-name="Trazado 832514" d="M313.259,44.45l-44.6-5.687-.18-.024a5.258,5.258,0,0,1-.962-.205,6.555,6.555,0,0,1-4.8-6.324V14.918A6.558,6.558,0,0,1,268.541,8.4a.818.818,0,0,1,.168-.025l.169-.012,44.382-4.028Z" transform="translate(-262.72 -4.337)" fill="none"/>
    </clipPath>
    <radialGradient id="radial-gradient-3" cx="0.488" cy="0.133" r="1.827" gradientTransform="matrix(-0.972, 0, 0, -1, -5.752, 0.267)" xlink:href="#radial-gradient-2"/>
    <clipPath id="clip-path-16">
      <path id="Trazado_832515" data-name="Trazado 832515" d="M281.865,67.462a57.744,57.744,0,0,1-3.116,25.271l-2.291,6.376a5.686,5.686,0,0,1-5.351,3.763H252.223a5.686,5.686,0,0,1-5.361-7.581,57.747,57.747,0,0,0,2.094-31L237.642,6.811l35.65-2.471Z" transform="translate(-237.642 -4.34)" fill="none"/>
    </clipPath>
    <radialGradient id="radial-gradient-4" cx="1.027" cy="0.429" r="1.69" gradientTransform="translate(-2.203 0.858) rotate(180) scale(0.507 1)" xlink:href="#radial-gradient-2"/>
    <clipPath id="clip-path-17">
      <path id="Trazado_832517" data-name="Trazado 832517" d="M257.223,4.34a10.884,10.884,0,0,1,10.3,8.774l3.919,22.566a7.18,7.18,0,0,1-7.25,8.774H246.8a10.883,10.883,0,0,1-10.3-8.774l-3.919-22.566a7.18,7.18,0,0,1,7.25-8.774Z" transform="translate(-232.454 -4.34)" fill="none"/>
    </clipPath>
    <linearGradient id="linear-gradient-7" x1="2.971" y1="1.473" x2="2.962" y2="1.473" xlink:href="#linear-gradient"/>
    <clipPath id="clip-path-18">
      <path id="Trazado_832519" data-name="Trazado 832519" d="M267.7,14.886a3.992,3.992,0,0,1,3.776,3.218l4.488,25.841a2.633,2.633,0,0,1-2.659,3.218H261.817a13.527,13.527,0,0,1-12.8-10.9L245.866,18.1a2.633,2.633,0,0,1,2.659-3.218Z" transform="translate(-245.818 -14.886)" fill="none"/>
    </clipPath>
    <linearGradient id="linear-gradient-8" x1="5.047" y1="1.824" x2="5.03" y2="1.824" xlink:href="#linear-gradient"/>
    <clipPath id="clip-path-20">
      <rect id="Rectángulo_376929" data-name="Rectángulo 376929" width="21.612" height="12.359" fill="none"/>
    </clipPath>
    <clipPath id="clip-path-21">
      <path id="Trazado_832533" data-name="Trazado 832533" d="M274.547,38.656a3.075,3.075,0,0,0,.567-2.535L271.2,13.555a5.534,5.534,0,0,0-5.152-4.4H246.7a2.871,2.871,0,0,0-2.321.988,3.072,3.072,0,0,0-.567,2.535l3.919,22.566a5.534,5.534,0,0,0,5.152,4.4h19.342a2.869,2.869,0,0,0,2.321-.988M263.7,4.34a10.884,10.884,0,0,1,10.3,8.774l3.919,22.566a7.18,7.18,0,0,1-7.25,8.774H253.277a10.885,10.885,0,0,1-10.3-8.774L239.06,13.114a7.18,7.18,0,0,1,7.25-8.774Z" transform="translate(-238.927 -4.34)" fill="none"/>
    </clipPath>
    <linearGradient id="linear-gradient-9" x1="2.974" y1="1.475" x2="2.965" y2="1.475" gradientUnits="objectBoundingBox">
      <stop offset="0" stop-color="#eaeaea"/>
      <stop offset="0.427" stop-color="#d8d8d8"/>
      <stop offset="0.755" stop-color="#d0d0d0"/>
      <stop offset="1" stop-color="#d0d0d0"/>
    </linearGradient>
    <clipPath id="clip-path-22">
      <path id="Trazado_832535" data-name="Trazado 832535" d="M266.119,38.656a3.072,3.072,0,0,0,.567-2.535l-3.919-22.566a5.534,5.534,0,0,0-5.152-4.4H240.228a2.869,2.869,0,0,0-2.321.988,3.075,3.075,0,0,0-.568,2.535l3.92,22.566a5.534,5.534,0,0,0,5.152,4.4H263.8a2.868,2.868,0,0,0,2.321-.988m-8.9-34.316a10.884,10.884,0,0,1,10.3,8.774l3.919,22.566a7.18,7.18,0,0,1-7.25,8.774H246.8a10.883,10.883,0,0,1-10.3-8.774l-3.919-22.566a7.18,7.18,0,0,1,7.25-8.774Z" transform="translate(-232.454 -4.34)" fill="none"/>
    </clipPath>
    <linearGradient id="linear-gradient-10" x1="3.111" y1="1.524" x2="3.101" y2="1.524" gradientUnits="objectBoundingBox">
      <stop offset="0" stop-color="#eaeaea"/>
      <stop offset="0.403" stop-color="#e3e3e3"/>
      <stop offset="0.97" stop-color="#d1d1d1"/>
      <stop offset="1" stop-color="#d0d0d0"/>
    </linearGradient>
    <clipPath id="clip-path-23">
      <path id="Trazado_832536" data-name="Trazado 832536" d="M329.325,9.794a6.179,6.179,0,0,0-5.676,6.192V33.939a6.207,6.207,0,0,0,4.81,6.048,4.06,4.06,0,0,0,.649.12v.048l-.18-.024a5.258,5.258,0,0,1-.962-.205l-2.922-.36a7.4,7.4,0,0,1-2.6-5.627V15.987a7.391,7.391,0,0,1,2.862-5.868l3.68-.324a.818.818,0,0,1,.168-.025l.169-.012Z" transform="translate(-322.447 -9.758)" fill="none"/>
    </clipPath>
    <radialGradient id="radial-gradient-5" cx="1.233" cy="-0.036" r="1.304" gradientTransform="matrix(0, 1, -3.586, 0, -20.65, 25.772)" xlink:href="#radial-gradient-2"/>
    <clipPath id="clip-path-24">
      <rect id="Rectángulo_376933" data-name="Rectángulo 376933" width="15.84" height="13.555" rx="6.778" fill="none"/>
    </clipPath>
    <linearGradient id="linear-gradient-11" x1="12.663" y1="3.938" x2="12.616" y2="3.938" xlink:href="#linear-gradient"/>
    <clipPath id="clip-path-25">
      <path id="Trazado_832537" data-name="Trazado 832537" d="M262.158,71.881A6.778,6.778,0,1,1,255.38,65.1a6.778,6.778,0,0,1,6.778,6.778" transform="translate(-248.602 -65.103)" fill="none"/>
    </clipPath>
    <linearGradient id="linear-gradient-12" x1="-9.494" y1="-1.932" x2="-9.455" y2="-1.932" xlink:href="#linear-gradient"/>
    <clipPath id="clip-path-27">
      <rect id="Rectángulo_376937" data-name="Rectángulo 376937" width="43.158" height="45.042" fill="none"/>
    </clipPath>
    <clipPath id="clip-path-28">
      <path id="Trazado_832538" data-name="Trazado 832538" d="M243.42,11.8a2.885,2.885,0,0,1,2.321-.986h14.526a5.547,5.547,0,0,1,5.158,4.412l3.92,22.558a3.082,3.082,0,0,1-.577,2.538,2.8,2.8,0,0,1-1.936.962V41.3h-14.91a5.549,5.549,0,0,1-5.158-4.4l-3.92-22.57a3.629,3.629,0,0,1-.048-.493,2.946,2.946,0,0,1,.625-2.043" transform="translate(-242.792 -10.81)" fill="none"/>
    </clipPath>
  </defs>
  <rect id="Rectángulo_376605" data-name="Rectángulo 376605" width="253" height="204" rx="14" fill="none"/>
  <g id="Elipse_6295" data-name="Elipse 6295" transform="translate(73 178)" fill="#3b5620" stroke="#707070" stroke-width="1" opacity="0.22">
    <ellipse cx="52.5" cy="9" rx="52.5" ry="9" stroke="none"/>
    <ellipse cx="52.5" cy="9" rx="52" ry="8.5" fill="none"/>
  </g>
  <g id="icono17" transform="translate(78.296 8.43)">
    <g id="Grupo_1079634" data-name="Grupo 1079634" transform="translate(0)">
      <path id="Trazado_829131" data-name="Trazado 829131" d="M181.6,318.7l-12.1.2,6.073-27.8Z" transform="translate(-103.833 -163.384)" fill="#0e9992"/>
      <path id="Trazado_829132" data-name="Trazado 829132" d="M194.087,329.285l-3.407,25.328s2.666,4.839,7.406,4.69c4.789-.148,3.16,4.345,3.16,4.345L181.2,363.2l-4.641-33.524C176.51,329.63,183.817,327.31,194.087,329.285Z" transform="translate(-127.235 -182.313)" fill="#4e6fd8"/>
      <path id="Trazado_829133" data-name="Trazado 829133" d="M186.335,329.288l-3.407,25.328s2.666,4.839,7.406,4.69c4.789-.148,3.16,4.345,3.16,4.345l-4.937-.1c-.592-1.58-2.222-4.937-6.122-5.628-5.135-.889-5.925-4.789-2.37-13.676,2.271-5.678-.889-11.8-3.505-15.7A39.22,39.22,0,0,1,186.335,329.288Z" transform="translate(-119.483 -182.316)" fill="#231f20" opacity="0.45"/>
      <path id="Trazado_829134" data-name="Trazado 829134" d="M254.609,329.631l.987,25.328s-2.765,4.789-7.5,4.493c-4.789-.247-3.259,4.246-3.259,4.246h20.045l5.431-33.425C270.26,330.273,264.878,327.854,254.609,329.631Z" transform="translate(-229.625 -182.561)" fill="#4e6fd8"/>
      <path id="Trazado_829135" data-name="Trazado 829135" d="M245.764,346.266c-2.715-5.085,5.233-7.949.938-11.751a6.029,6.029,0,0,1-1.827-5.579c7.06-.4,10.714,1.234,10.714,1.234L250.158,363.6h-4.937C248.875,358.857,248.48,351.352,245.764,346.266Z" transform="translate(-215.004 -182.508)" fill="#231f20" opacity="0.45"/>
      <path id="Trazado_829136" data-name="Trazado 829136" d="M231.974,199.842s-20.638,51.446-11.208,62.259c9.43,10.763,20.687,3.11,21.23-4.888.543-8.048,9.282-44.287,9.183-45.225S249.9,199.2,249.9,199.2Z" transform="translate(-197.511 -116.857)" fill="#f2f2f2"/>
      <path id="Trazado_829137" data-name="Trazado 829137" d="M224.847,266.2c-3.752-7.011,8.788-3.259,8.788-15.552s-13.084-20.045-2.024-20.588a34.3,34.3,0,0,0,11.7-2.962c-1.185,6.023-8.492,36.881-8.986,44.188-.444,6.468-7.8,12.689-15.6,9.233C218.132,279.386,228.6,273.214,224.847,266.2Z" transform="translate(-189.84 -130.982)" fill="#d9ddd9"/>
      <path id="Trazado_829138" data-name="Trazado 829138" d="M205.909,188.11s.494,3.654.938,10.615c.395,7.011,1.185,57.272-5.382,61.42-6.616,4.147-17.28,1.58-20.44-4.789s5.53-55.594-.049-65.122C175.348,180.753,205.909,188.11,205.909,188.11Z" transform="translate(-134.664 -109.865)" fill="#f2f2f2"/>
      <path id="Trazado_829139" data-name="Trazado 829139" d="M202.749,189.331s.494,3.654.938,10.615c.395,7.011,1.185,57.272-5.382,61.42-5.382,3.407-13.528,2.271-18.021-1.728.938-.79-.839-4.74,1.827-7.554,4.246-4.444,2.666,4,6.665,6.863,4,2.913,12.2-2.913,10.813-14.861-1.333-11.948-8.245-19.206-2.321-30.167,5.974-10.961-7.357-17.231-7.357-17.231l5.283-8.887C199.441,188.541,202.749,189.331,202.749,189.331Z" transform="translate(-131.503 -111.086)"/>
      <g id="Grupo_1079627" data-name="Grupo 1079627" transform="translate(0 72.424)">
        <path id="Trazado_829140" data-name="Trazado 829140" d="M313.159,179.9s-4.987.839-5.382,1.777,2.913.346,2.913.346-4.789,2.715-4.888,4.246,7.208,1.629,9.677-3.11C317.9,178.414,313.653,178.612,313.159,179.9Z" transform="translate(-305.752 -179.111)" fill="#4e6fd8"/>
        <path id="Trazado_829141" data-name="Trazado 829141" d="M305.854,186.362v-.049c1.777,1.086,7.7-3.9,8.492-4.888a7.437,7.437,0,0,0,1.136-2.024c.839.395,1.284,1.531.049,3.9C313.063,187.991,305.755,187.892,305.854,186.362Z" transform="translate(-305.853 -179.257)" fill="#231f20" opacity="0.45"/>
      </g>
      <path id="Trazado_829142" data-name="Trazado 829142" d="M271.608,87.8s-10.763-.148-14.762,6.369-4.394,16.54-6.665,21.23c-2.271,4.641-16.49,12.738-18.169,18.515l3.456,3.654a41.928,41.928,0,0,0,11.158-3.259C252.8,131.05,279.261,110.017,271.608,87.8Z" transform="translate(-226.086 -60.458)" fill="#11bcaf"/>
      <path id="Trazado_829143" data-name="Trazado 829143" d="M231.84,136.285a5.631,5.631,0,0,0,3.456-4.839c.543-5.875,12.047-.247,14.417-5.974,1.234-3.11.1-7.9-1.185-11.7,1.728-5.085,2.469-13.726,6.023-19.5,4-6.517,14.762-6.369,14.762-6.369,7.6,22.168-18.811,43.25-24.983,46.41a39.951,39.951,0,0,1-11.158,3.259Z" transform="translate(-223.692 -60.509)" opacity="0.5"/>
      <path id="Trazado_829144" data-name="Trazado 829144" d="M187.074,83.68c3.7-1.975,18.86-6.221,27.4,2.123s8.788,47.3,2.024,52.779-29.031,6.468-35.351,1.728C174.879,135.571,178.384,88.272,187.074,83.68Z" transform="translate(-147.673 -56.931)" fill="#f2f2f2"/>
      <path id="Trazado_829145" data-name="Trazado 829145" d="M229.621,62.321l-3.407-2.567s-6.27-16.49-2.962-21.082c3.308-4.641,11.405,5.678,11.5,6.023s-1.086,15.157-1.382,15.157C233.126,59.853,229.621,62.321,229.621,62.321Z" transform="translate(-183.062 -34.98)" fill="#dbdddb"/>
      <path id="XMLID_6_" d="M216.115,66.6s0,6.962-3.012,8.986c-.2,3.95,10.121,2.666,10.319-1.234a3.26,3.26,0,0,1-2.024-1.58,35.022,35.022,0,0,1-1.037-4.839Z" transform="translate(-167.185 -49.725)" fill="#f9b28a"/>
      <path id="Trazado_829146" data-name="Trazado 829146" d="M218.3,73.759c1.481-2.814,1.481-7.159,1.481-7.159l4.3,1.284s.2,1.185.444,2.419A18.485,18.485,0,0,1,218.3,73.759Z" transform="translate(-170.852 -49.725)" fill="#231f20"/>
      <g id="Grupo_1079628" data-name="Grupo 1079628" transform="translate(37.82 1.46)">
        <path id="Trazado_829147" data-name="Trazado 829147" d="M213.822,43.24l-.938-1.876s-.247-3.456,5.579-5.283c5.875-1.827,10.566-.1,11.751,5.332s-.148,9.776-1.777,10.467c-1.629.741-7.406-7.307-7.406-7.307Z" transform="translate(-212.144 -35.379)" fill="#343456"/>
        <path id="Trazado_829148" data-name="Trazado 829148" d="M217.2,46.075l-.938-1.876a3.325,3.325,0,0,1,.049-.494,11.035,11.035,0,0,1,3.851-2.024c5.875-1.827,10.566-.1,11.751,5.332a15.636,15.636,0,0,1,0,7.6c-.049,0-.049.049-.1.049-1.629.741-7.406-7.307-7.406-7.307Z" transform="translate(-215.519 -38.214)" opacity="0.18" fill="url(#radial-gradient)"/>
        <path id="XMLID_1_" d="M215.38,47.549s-2.419,14.269,2.518,16.49,13.084-5.974,13.084-5.974L229.7,55.794s2.37,1.037,2.518-2.172c.1-3.209-.987-4.74-2.37-3.505a4.2,4.2,0,0,0-1.481,2.567s-3.259-1.432-1.284-5.184C227.032,47.45,217.4,50.314,215.38,47.549Z" transform="translate(-214.639 -41.515)" fill="#ffc19a"/>
        <path id="Trazado_829149" data-name="Trazado 829149" d="M234.427,59.189c.049.494-.1.987-.395.987-.3.049-.543-.346-.642-.889-.049-.494.1-.987.395-.987S234.378,58.695,234.427,59.189Z" transform="translate(-226.034 -46.983)" fill="#343456"/>
        <path id="Trazado_829150" data-name="Trazado 829150" d="M234.7,59.334c0,.148-.049.3-.1.3a.226.226,0,0,1-.2-.247c0-.148.049-.3.1-.3C234.6,59.038,234.647,59.136,234.7,59.334Z" transform="translate(-226.797 -47.375)" fill="#f2f2f2"/>
        <path id="Trazado_829151" data-name="Trazado 829151" d="M247.427,60.289c.049.494-.1.987-.395.987-.3.049-.543-.346-.642-.889-.049-.494.1-.987.395-.987S247.378,59.746,247.427,60.289Z" transform="translate(-245.452 -47.54)" fill="#343456"/>
        <path id="Trazado_829152" data-name="Trazado 829152" d="M247.7,60.337c0,.148-.049.3-.1.3a.226.226,0,0,1-.2-.247c0-.148.049-.3.1-.3C247.548,60.041,247.647,60.189,247.7,60.337Z" transform="translate(-246.215 -47.885)" fill="#f2f2f2"/>
        <path id="Trazado_829153" data-name="Trazado 829153" d="M228.9,54.92c.1-.049,2.962-1.876,4.839-.346l-.346.642a5.283,5.283,0,0,0-4.345,0Z" transform="translate(-223.123 -44.789)" fill="#343456"/>
        <path id="Trazado_829154" data-name="Trazado 829154" d="M247.312,55.964c-.049-.049-1.728-1.333-3.012-.346l.148.444a3.285,3.285,0,0,1,2.715.148Z" transform="translate(-244.3 -45.437)" fill="#343456"/>
        <path id="Trazado_829155" data-name="Trazado 829155" d="M242.566,61.1l-1.58,4.542s2.419-.247,2.518-.2S242.566,61.1,242.566,61.1Z" transform="translate(-238.864 -48.401)" fill="#fc6b76"/>
      </g>
      <g id="Grupo_1079629" data-name="Grupo 1079629" transform="translate(48.137 12.023)">
        <path id="Trazado_829156" data-name="Trazado 829156" d="M222.442,62.465l.1-.1,3.11-5.233a.212.212,0,0,0-.1-.346c-.148-.049-.3.049-.395.247l-3.11,5.233a.212.212,0,0,0,.1.346A.352.352,0,0,0,222.442,62.465Z" transform="translate(-221.996 -56.775)" fill="#fff"/>
      </g>
      <g id="Grupo_1079630" data-name="Grupo 1079630" transform="translate(49.393 17.882)">
        <path id="Trazado_829157" data-name="Trazado 829157" d="M217.466,72.076c.049,0,.1,0,.1-.049l4.3-2.864a.288.288,0,0,0-.3-.494l-4.3,2.864a.31.31,0,0,0-.1.395A.352.352,0,0,0,217.466,72.076Z" transform="translate(-217.14 -68.64)" fill="#fff"/>
      </g>
      <path id="Trazado_829158" data-name="Trazado 829158" d="M225.558,64.719s2.271-1.876,3.407-1.728c1.185.148,4.345,1.777,6.764,2.222s1.827,3.209-.2,4.839-5.777,3.209-8,1.679C225.311,70.249,224.274,66,225.558,64.719Z" transform="translate(-186.948 -47.894)" fill="#09cec8"/>
      <g id="Grupo_1079631" data-name="Grupo 1079631" transform="translate(39.42 15.533)">
        <path id="Trazado_829159" data-name="Trazado 829159" d="M242.338,65.126c.1,0,.148-.049.2-.148a.255.255,0,0,0-.148-.346,8.515,8.515,0,0,0-2.024-.741,4.551,4.551,0,0,0-2.172.79.288.288,0,0,0,.3.494,4.258,4.258,0,0,1,1.777-.691,13.45,13.45,0,0,1,1.876.691A.373.373,0,0,0,242.338,65.126Z" transform="translate(-238.063 -63.883)" fill="#fff"/>
      </g>
      <path id="Trazado_829160" data-name="Trazado 829160" d="M211.293,59.418l-.148-2.172s5.233-.987,5.974-2.617-.839-13.232-2.469-15.75-6.418-2.765-6.418-2.765a2.1,2.1,0,0,1,1.777-2.123c1.876-.395,2.715-.1,4.246-.839,1.481-.741,5.777-1.333,6.962.395s2.123,2.123,4.2,4.542,1.284,7.5-.741,10.566.839,6.912.642,8.64-6.517,5.283-10.121,5.283A3.619,3.619,0,0,1,211.293,59.418Z" transform="translate(-167.993 -32.422)" fill="#f2f2f2"/>
      <path id="Trazado_829161" data-name="Trazado 829161" d="M210.985,82.944c7.5,2.814,11.9-2.123,13.479-4.444a5.4,5.4,0,0,1,.444,2.074c-.2,1.728-6.517,5.283-10.121,5.283A3.513,3.513,0,0,1,210.985,82.944Z" transform="translate(-167.635 -55.75)" fill="#0071bc"/>
      <path id="Trazado_829162" data-name="Trazado 829162" d="M229.881,79.991a21.8,21.8,0,0,1,.494,6.27c-.1,4.394-4.394,45.028,0,56.285h1.531s-1.481-4.2-1.728-14.219,1.728-42.214,1.728-42.214V84.435l-.494-5.135Z" transform="translate(-183.223 -56.155)" fill="#0071bc"/>
      <path id="Trazado_829163" data-name="Trazado 829163" d="M185.145,144.9c.642-4.641-10.763-3.555-6.172-9.035,4.542-5.53,11.109-11.109,9.43-17.034-1.679-5.974-10.566-8.048-5.925-13.775,2.37-2.962,6.172-5.678,9.282-7.653,6.32,12.294,5.875,44.633-.2,49.57-2.271,1.827-6.27,3.16-10.862,3.95C182.726,149.291,184.849,147.168,185.145,144.9Z" transform="translate(-122.688 -65.319)"/>
      <path id="Trazado_829164" data-name="Trazado 829164" d="M226.131,207.4s.395,7.8,1.926,12.442c0,0-2.814-2.617-3.456-12.442Z" transform="translate(-177.498 -121.009)" fill="#29abe2"/>
      <path id="Trazado_829165" data-name="Trazado 829165" d="M220.881,193.7s-14.219,7.06-22.514,5.925S184,197.4,184,197.4l.3,1.284s10.27,2.222,14.219,2.222c8.936,0,11.9-1.432,22.613-6.073Z" transform="translate(-150.524 -114.073)" fill="#29abe2"/>
      <path id="Trazado_829166" data-name="Trazado 829166" d="M238.855,49V66.034s-10.121,2.321-15.355,0V49.79Z" transform="translate(-187.753 -40.815)" fill="#fff" opacity="0.43"/>
      <g id="Grupo_1079632" data-name="Grupo 1079632" transform="translate(35.697 8.481)">
        <path id="Trazado_829167" data-name="Trazado 829167" d="M240.7,53.9l6.912,15.6h-1.333l-5.53-12.442V53.9Z" transform="translate(-240.7 -51.777)" fill="#fff"/>
        <path id="Trazado_829168" data-name="Trazado 829168" d="M239.2,50.149l1.284-.049,2.715,5.036-.346,1.185Z" transform="translate(-235.546 -49.853)" fill="#fff"/>
        <path id="Trazado_829169" data-name="Trazado 829169" d="M231.4,60.314v2.715L223.5,49.7l1.777-.1C226.611,51.822,229.474,56.907,231.4,60.314Z" transform="translate(-215.995 -49.6)" fill="#fff"/>
      </g>
      <path id="Trazado_829170" data-name="Trazado 829170" d="M208.3,50.017l5.628.2V47.4H208.4Z" transform="translate(-155.322 -40.005)" fill="#e6e6e6"/>
      <rect id="Rectángulo_376602" data-name="Rectángulo 376602" width="17.922" height="1.58" transform="translate(35.697 7.395)" fill="#0071bc"/>
      <path id="Trazado_829171" data-name="Trazado 829171" d="M218.495,50.159h0a.425.425,0,0,0,.395-.395V47.295a.425.425,0,0,0-.395-.395h0a.425.425,0,0,0-.395.395v2.469A.389.389,0,0,0,218.495,50.159Z" transform="translate(-165.122 -39.752)" fill="#ccc"/>
      <path id="Trazado_829172" data-name="Trazado 829172" d="M207.174,81.7s-14.466,9.381-16.145,1.234c0,0-4.839-.2-7.949,6.517-3.061,6.665-7.9,41.67-4.246,52.335,0,0-10.023,37.178-10.911,51.4s-2.123,20.243-2.123,20.243,52.039,4.444,51.891,3.555S221,191.9,221,191.9l1.876,23.8,5.283-.543S225.59,152.8,221,136.948c0,0,1.234-15.059,1.876-24C223.566,104.066,221.69,83.082,207.174,81.7Z" transform="translate(-148.568 -57.37)" fill="#09cec8"/>
      <path id="Trazado_829173" data-name="Trazado 829173" d="M171.983,218.01c-2.567-5.135,8.788,0,15.009,1.234s9.233-19.354,9.282-33.771-2.172-25.427-8.591-28.093,7.11-3.209,4.987-8.788-21.526-.79-26.365-5.085,20.835,1.629,24.439-1.926-1.284-6.567-8.591-9.43,4.493-1.926,9.677-7.06-.444-10.862-3.8-17.083c-2.617-4.789,3.7-12.047,6.715-15.108,5.628,7.208,6.418,19.5,5.974,25.822-.691,8.936-1.876,24-1.876,24,4.542,15.849,7.159,78.206,7.159,78.206l-5.283.543-1.876-23.8s-3.505,24.193-3.308,25.081c.1.395-10.516-.3-22.168-1.185A27.931,27.931,0,0,0,171.983,218.01Z" transform="translate(-126.361 -63.04)" opacity="0.5"/>
      <rect id="Rectángulo_376603" data-name="Rectángulo 376603" width="19.453" height="27.747" transform="translate(41.128 48.72)" fill="#f2f2f2"/>
      <path id="Trazado_829174" data-name="Trazado 829174" d="M204.649,153.5l4.246,3.505,11.208,2.123v11.059s-7.7-7.406-12.59-9.035C202.526,159.474,204.649,153.5,204.649,153.5Z" transform="translate(-159.472 -93.721)" opacity="0.5"/>
      <g id="Grupo_1079633" data-name="Grupo 1079633" transform="translate(44.024 58.188)">
        <path id="Trazado_829175" data-name="Trazado 829175" d="M225.313,154.485s-2.864-4.2-3.851-4.2c-.987.049.889,2.765.889,2.765s-4.444-3.259-5.875-2.715,1.481,7.208,6.813,7.5C228.67,158.188,226.7,154.386,225.313,154.485Z" transform="translate(-216.112 -150.276)" fill="#4e6fd8"/>
        <path id="Trazado_829176" data-name="Trazado 829176" d="M216.442,150.5h.049c-.247,2.074,6.764,5.431,8,5.678a10.014,10.014,0,0,0,2.321.2c0,.889-.839,1.777-3.505,1.629C217.973,157.758,215.06,151.043,216.442,150.5Z" transform="translate(-216.079 -150.39)" fill="#231f20" opacity="0.45"/>
      </g>
      <path id="Trazado_829177" data-name="Trazado 829177" d="M152.657,121.795s.839-3.6,4-3.6,8.541-3.555,15.207-2.666c0,0-10.22-10.319-10.961-18.86-.691-8.541,1.58-11.553,5.332-10.862,3.752.741,25.427,22.514,17.577,35.993-7.8,13.429-29.624,8.393-30.957,3.407Z" transform="translate(-99.432 -59.399)" fill="#14ddd3"/>
      <path id="Trazado_829178" data-name="Trazado 829178" d="M154.451,126.337c1.926.987-.1-4.987,3.259-.987,3.308,4,14.269,3.456,12.047-1.679s10.566.543,12.541-8.2c1.58-7.11-11.454-23.7-16.244-29.475,4.049,1.136,25.229,22.613,17.478,35.943-7.8,13.429-29.624,8.393-30.957,3.407V125.1A10.207,10.207,0,0,0,154.451,126.337Z" transform="translate(-99.103 -59.547)" opacity="0.5"/>
      <rect id="Rectángulo_376604" data-name="Rectángulo 376604" width="7.603" height="2.321" transform="translate(47.152 47.979)" fill="#f7931e"/>
      <path id="Trazado_829179" data-name="Trazado 829179" d="M217.247,133.694h6.27a.233.233,0,0,0,.247-.247h0a.233.233,0,0,0-.247-.247h-6.27a.233.233,0,0,0-.247.247h0A.233.233,0,0,0,217.247,133.694Z" transform="translate(-169.453 -83.443)" fill="#fff"/>
      <circle id="Elipse_6280" data-name="Elipse 6280" cx="0.444" cy="0.444" r="0.444" transform="translate(53.422 48.374)" fill="#fff"/>
      <path id="Trazado_829180" data-name="Trazado 829180" d="M228.9,130.844a.444.444,0,1,0,.444-.444A.521.521,0,0,0,228.9,130.844Z" transform="translate(-181.353 -82.026)" fill="#fff"/>
    </g>
  </g>
  <g id="Grupo_1082373" data-name="Grupo 1082373" transform="translate(0 5.182)">
    <g id="Grupo_1082372" data-name="Grupo 1082372" clip-path="url(#clip-path)">
      <g id="Grupo_1082313" data-name="Grupo 1082313">
        <g id="Grupo_1082312" data-name="Grupo 1082312" clip-path="url(#clip-path)">
          <path id="Trazado_832504" data-name="Trazado 832504" d="M121.377,72.272l.23-.635-23.7-8.6a11.892,11.892,0,0,1-7.816-11.148A11.859,11.859,0,0,1,106.2,40.821l14.408,5.526.241-.63L106.44,40.191a12.534,12.534,0,0,0-17.021,11.7,12.571,12.571,0,0,0,8.26,11.783Z" transform="translate(64.947 -10.108)" fill="#00a9ca"/>
          <path id="Trazado_832505" data-name="Trazado 832505" d="M.23,72.272l23.7-8.6a12.571,12.571,0,0,0,8.26-11.783,12.534,12.534,0,0,0-17.021-11.7L.759,45.717l.242.63,14.408-5.526A11.859,11.859,0,0,1,31.514,51.894,11.892,11.892,0,0,1,23.7,63.042L0,71.638Z" transform="translate(220.811 -10.107)" fill="#00a9ca"/>
        </g>
      </g>
      <g id="Grupo_1082315" data-name="Grupo 1082315" transform="translate(177.562 20.696)">
        <g id="Grupo_1082314" data-name="Grupo 1082314" clip-path="url(#clip-path-3)">
          <rect id="Rectángulo_376912" data-name="Rectángulo 376912" width="51.213" height="54.621" transform="matrix(-0.019, -1, 1, -0.019, 0.019, 51.222)" fill="url(#linear-gradient)"/>
        </g>
      </g>
      <g id="Grupo_1082317" data-name="Grupo 1082317" transform="translate(179.533 20.696)">
        <g id="Grupo_1082316" data-name="Grupo 1082316" clip-path="url(#clip-path-4)">
          <rect id="Rectángulo_376913" data-name="Rectángulo 376913" width="53.698" height="50.224" transform="translate(0 0)" fill="url(#linear-gradient-2)"/>
        </g>
      </g>
      <g id="Grupo_1082319" data-name="Grupo 1082319" transform="translate(179.536 45.095)">
        <g id="Grupo_1082318" data-name="Grupo 1082318" clip-path="url(#clip-path-5)">
          <rect id="Rectángulo_376914" data-name="Rectángulo 376914" width="53.694" height="25.827" transform="translate(0 0)" fill="url(#linear-gradient-3)"/>
        </g>
      </g>
      <g id="Grupo_1082333" data-name="Grupo 1082333">
        <g id="Grupo_1082332" data-name="Grupo 1082332" clip-path="url(#clip-path)">
          <g id="Grupo_1082322" data-name="Grupo 1082322" transform="translate(184.008 24.837)" opacity="0.6">
            <g id="Grupo_1082321" data-name="Grupo 1082321">
              <g id="Grupo_1082320" data-name="Grupo 1082320" clip-path="url(#clip-path-7)">
                <path id="Trazado_832509" data-name="Trazado 832509" d="M55,75.167a9.619,9.619,0,0,0,3.018-.483l8.07-2.67a16.457,16.457,0,0,0,4.991-28.569L60.928,35.479a9.58,9.58,0,0,0-11.858,0L38.923,43.445a16.456,16.456,0,0,0,4.991,28.569l8.07,2.67A9.617,9.617,0,0,0,55,75.167M55,34.1a8.912,8.912,0,0,1,5.513,1.91l10.148,7.966a15.782,15.782,0,0,1-4.785,27.4L57.8,74.043a8.989,8.989,0,0,1-5.609,0l-8.071-2.67a15.781,15.781,0,0,1-4.787-27.4l10.15-7.966A8.91,8.91,0,0,1,55,34.1" transform="translate(-32.626 -33.424)" fill="#fdf6f0"/>
              </g>
            </g>
          </g>
          <g id="Grupo_1082325" data-name="Grupo 1082325" transform="translate(196.598 38.711)" opacity="0.6">
            <g id="Grupo_1082324" data-name="Grupo 1082324">
              <g id="Grupo_1082323" data-name="Grupo 1082323" clip-path="url(#clip-path-8)">
                <rect id="Rectángulo_376916" data-name="Rectángulo 376916" width="19.568" height="0.675" transform="translate(0 0)" fill="#fdf6f0"/>
              </g>
            </g>
          </g>
          <g id="Grupo_1082328" data-name="Grupo 1082328" transform="translate(192.398 45.376)" opacity="0.6">
            <g id="Grupo_1082327" data-name="Grupo 1082327">
              <g id="Grupo_1082326" data-name="Grupo 1082326" clip-path="url(#clip-path-9)">
                <rect id="Rectángulo_376918" data-name="Rectángulo 376918" width="27.968" height="0.675" transform="translate(0 0)" fill="#fdf6f0"/>
              </g>
            </g>
          </g>
          <g id="Grupo_1082331" data-name="Grupo 1082331" transform="translate(196.598 52.983)" opacity="0.6">
            <g id="Grupo_1082330" data-name="Grupo 1082330">
              <g id="Grupo_1082329" data-name="Grupo 1082329" clip-path="url(#clip-path-8)">
                <rect id="Rectángulo_376920" data-name="Rectángulo 376920" width="19.568" height="0.675" transform="translate(0 0)" fill="#fdf6f0"/>
              </g>
            </g>
          </g>
        </g>
      </g>
      <g id="Grupo_1082335" data-name="Grupo 1082335" transform="translate(19.013 32.364)">
        <g id="Grupo_1082334" data-name="Grupo 1082334" clip-path="url(#clip-path-11)">
          <rect id="Rectángulo_376923" data-name="Rectángulo 376923" width="31.004" height="28.559" transform="translate(3.899 33.101) rotate(-119.745)" fill="url(#linear-gradient-4)"/>
        </g>
      </g>
      <g id="Grupo_1082337" data-name="Grupo 1082337" transform="translate(24.315 27.2)">
        <g id="Grupo_1082336" data-name="Grupo 1082336" clip-path="url(#clip-path-12)">
          <rect id="Rectángulo_376924" data-name="Rectángulo 376924" width="78.309" height="84.177" transform="matrix(-0.79, -0.614, 0.614, -0.79, 25.716, 94.537)" fill="url(#radial-gradient-2)"/>
        </g>
      </g>
      <g id="Grupo_1082339" data-name="Grupo 1082339" transform="translate(0 4.137)">
        <g id="Grupo_1082338" data-name="Grupo 1082338" clip-path="url(#clip-path-13)">
          <rect id="Rectángulo_376925" data-name="Rectángulo 376925" width="47.641" height="37.864" transform="translate(0 0)" fill="url(#linear-gradient-5)"/>
        </g>
      </g>
      <g id="Grupo_1082341" data-name="Grupo 1082341" transform="translate(23.717 27.204)">
        <g id="Grupo_1082340" data-name="Grupo 1082340" clip-path="url(#clip-path-14)">
          <rect id="Rectángulo_376926" data-name="Rectángulo 376926" width="75.455" height="20.092" transform="matrix(-0.095, -0.995, 0.995, -0.095, 0.118, 75.788)" fill="url(#linear-gradient-6)"/>
        </g>
      </g>
      <g id="Grupo_1082343" data-name="Grupo 1082343" transform="translate(7.238 3.223)">
        <g id="Grupo_1082342" data-name="Grupo 1082342" clip-path="url(#clip-path-15)">
          <rect id="Rectángulo_376927" data-name="Rectángulo 376927" width="64.52" height="62.684" transform="matrix(-0.79, -0.614, 0.614, -0.79, 31.515, 64.599)" fill="url(#radial-gradient-3)"/>
        </g>
      </g>
      <g id="Grupo_1082345" data-name="Grupo 1082345" transform="translate(31.903 3.225)">
        <g id="Grupo_1082344" data-name="Grupo 1082344" clip-path="url(#clip-path-16)">
          <rect id="Rectángulo_376928" data-name="Rectángulo 376928" width="101.21" height="51.279" transform="translate(0.184 101.405) rotate(-93.662)" fill="url(#radial-gradient-4)"/>
        </g>
      </g>
      <g id="Grupo_1082347" data-name="Grupo 1082347" transform="translate(41.149 3.225)">
        <g id="Grupo_1082346" data-name="Grupo 1082346" clip-path="url(#clip-path-17)">
          <path id="Trazado_832516" data-name="Trazado 832516" d="M239.936-22.936,206.416,22.72l44.3,34.994,33.52-45.656Z" transform="translate(-225.764 2.668)" fill="url(#linear-gradient-7)"/>
        </g>
      </g>
      <g id="Grupo_1082349" data-name="Grupo 1082349" transform="translate(40.147 11.062)">
        <g id="Grupo_1082348" data-name="Grupo 1082348" clip-path="url(#clip-path-18)">
          <path id="Trazado_832518" data-name="Trazado 832518" d="M245.856-1.279,236.871,40.28l34.5,14.742,8.986-41.559Z" transform="translate(-243.519 -10.733)" fill="url(#linear-gradient-8)"/>
        </g>
      </g>
      <g id="Grupo_1082354" data-name="Grupo 1082354">
        <g id="Grupo_1082353" data-name="Grupo 1082353" clip-path="url(#clip-path)">
          <g id="Grupo_1082352" data-name="Grupo 1082352" transform="translate(45.548 18.052)" opacity="0.7">
            <g id="Grupo_1082351" data-name="Grupo 1082351">
              <g id="Grupo_1082350" data-name="Grupo 1082350" clip-path="url(#clip-path-20)">
                <path id="Trazado_832520" data-name="Trazado 832520" d="M253.025,24.294H259.3l-.8,1.719h-4.076Z" transform="translate(-239.869 -24.294)" fill="#fff"/>
                <path id="Trazado_832521" data-name="Trazado 832521" d="M257.617,33.265h-6.278l.8-1.719h4.076Z" transform="translate(-236.93 -26.157)" fill="#fff"/>
                <path id="Trazado_832522" data-name="Trazado 832522" d="M256.372,40.332h-6.278l.8-1.719h4.076Z" transform="translate(-234.76 -27.973)" fill="#fff"/>
                <path id="Trazado_832523" data-name="Trazado 832523" d="M258.67,36.637l-2.175-12.343,1.913,1.1,1.786,10.14Z" transform="translate(-243.339 -24.294)" fill="#fff"/>
                <path id="Trazado_832524" data-name="Trazado 832524" d="M263.113,24.294h6.278l-.8,1.719h-4.076Z" transform="translate(-257.453 -24.294)" fill="#fff"/>
                <path id="Trazado_832525" data-name="Trazado 832525" d="M261.835,31.546h6.278l-.8,1.719h-4.076Z" transform="translate(-255.226 -26.157)" fill="#fff"/>
                <path id="Trazado_832526" data-name="Trazado 832526" d="M266.46,40.332h-6.278l.8-1.719h4.076Z" transform="translate(-252.344 -27.973)" fill="#fff"/>
                <path id="Trazado_832527" data-name="Trazado 832527" d="M267.807,38.516l-1.228-6.971,1.92,1.139.833,4.73Z" transform="translate(-259.97 -26.157)" fill="#fff"/>
                <path id="Trazado_832528" data-name="Trazado 832528" d="M261.71,24.294l2.175,12.343-1.913-1.1L260.185,25.4Z" transform="translate(-249.772 -24.294)" fill="#fff"/>
                <path id="Trazado_832529" data-name="Trazado 832529" d="M273.505,24.294h4.216l-.537,1.154h-2.736Z" transform="translate(-273.506 -24.294)" fill="#fff"/>
                <path id="Trazado_832530" data-name="Trazado 832530" d="M276.611,30.193H272.4l.536-1.154h2.736Z" transform="translate(-271.572 -25.513)" fill="#fff"/>
                <path id="Trazado_832531" data-name="Trazado 832531" d="M273.423,24.294l.823,4.669-1.284-.739-.563-3.19Z" transform="translate(-269.208 -24.294)" fill="#fff"/>
              </g>
            </g>
          </g>
        </g>
      </g>
      <g id="Grupo_1082356" data-name="Grupo 1082356" transform="translate(36.339 3.225)">
        <g id="Grupo_1082355" data-name="Grupo 1082355" clip-path="url(#clip-path-21)">
          <path id="Trazado_832532" data-name="Trazado 832532" d="M211.642,20.776l43.231,36.888,36.438-43.61L248.079-22.834Z" transform="translate(-231.917 2.641)" fill="url(#linear-gradient-9)"/>
        </g>
      </g>
      <g id="Grupo_1082358" data-name="Grupo 1082358" transform="translate(41.149 3.225)">
        <g id="Grupo_1082357" data-name="Grupo 1082357" clip-path="url(#clip-path-22)">
          <path id="Trazado_832534" data-name="Trazado 832534" d="M235.8-20.257,209.224,28.22,256.3,56.411,282.867,7.934Z" transform="translate(-226.486 1.979)" fill="url(#linear-gradient-10)"/>
        </g>
      </g>
      <g id="Grupo_1082360" data-name="Grupo 1082360" transform="translate(6.518 7.251)">
        <g id="Grupo_1082359" data-name="Grupo 1082359" clip-path="url(#clip-path-23)">
          <rect id="Rectángulo_376931" data-name="Rectángulo 376931" width="8.572" height="30.736" transform="translate(6.856 30.783) rotate(-176.784)" fill="url(#radial-gradient-5)"/>
        </g>
      </g>
      <g id="Grupo_1082362" data-name="Grupo 1082362" transform="translate(52.429 48.377)">
        <g id="Grupo_1082361" data-name="Grupo 1082361" clip-path="url(#clip-path-24)">
          <rect id="Rectángulo_376932" data-name="Rectángulo 376932" width="15.84" height="13.555" fill="url(#linear-gradient-11)"/>
        </g>
      </g>
      <g id="Grupo_1082364" data-name="Grupo 1082364" transform="translate(54.712 48.377)">
        <g id="Grupo_1082363" data-name="Grupo 1082363" clip-path="url(#clip-path-25)">
          <rect id="Rectángulo_376934" data-name="Rectángulo 376934" width="19.163" height="19.163" transform="translate(6.389 20.322) rotate(-133.354)" fill="url(#linear-gradient-12)"/>
        </g>
      </g>
      <g id="Grupo_1082371" data-name="Grupo 1082371">
        <g id="Grupo_1082370" data-name="Grupo 1082370" clip-path="url(#clip-path)">
          <g id="Grupo_1082369" data-name="Grupo 1082369" transform="translate(36.351)" opacity="0.2">
            <g id="Grupo_1082368" data-name="Grupo 1082368">
              <g id="Grupo_1082367" data-name="Grupo 1082367" clip-path="url(#clip-path-27)">
                <g id="Grupo_1082366" data-name="Grupo 1082366" transform="translate(9.624 8.033)">
                  <g id="Grupo_1082365" data-name="Grupo 1082365" clip-path="url(#clip-path-28)">
                    <rect id="Rectángulo_376935" data-name="Rectángulo 376935" width="47.021" height="7.955" transform="translate(27.908 30.841) rotate(-135)" fill="#fff"/>
                    <rect id="Rectángulo_376936" data-name="Rectángulo 376936" width="47.021" height="5.681" transform="translate(23.625 37.01) rotate(-135)" fill="#fff"/>
                  </g>
                </g>
              </g>
            </g>
          </g>
        </g>
      </g>
    </g>
  </g>
</svg>
