<svg xmlns="http://www.w3.org/2000/svg" width="253" height="238.656" viewBox="0 0 253 238.656">
  <g id="icono11" transform="translate(-640.387 -127.338)">
    <path id="Trazado_827775" data-name="Trazado 827775" d="M971.015,231.03s-24.623-2.206-25.434,29.229c-4.574,8.435-11.614,13.3-11.841,24.72-9.278,2.368-20.211,10.284-27.964,17.713-6.65,6.391-2.855,21.541,9.8,20.049,5.093-.584,24.72-8.078,34.031-13.723,9.343-5.677,12.684-14.826,16.967-27.8C969.36,272.717,971.015,231.03,971.015,231.03Z" transform="translate(-177.113 -70.031)" fill="#1b3f5e"/>
    <path id="Trazado_827776" data-name="Trazado 827776" d="M1278.5,677.794a31.714,31.714,0,0,1,10.187-7.267c5.483-2.465,8.273-1.005,12.814,5.126,6.618,2.855,9.278,3.179,14.761,3.99,5.515.811,10.349,3.244,7.267,8.792s-15.831,7.98-22.06,7.883c-6.2-.1-17.486,0-17.486,0Z" transform="translate(-431.103 -366.203)" fill="#4c2011"/>
    <path id="Trazado_827777" data-name="Trazado 827777" d="M1153.4,606.894a31.709,31.709,0,0,1,10.187-7.267c5.483-2.466,8.272-1.006,12.814,5.126,6.618,2.855,9.246,3.179,14.761,3.99s10.349,3.244,7.267,8.792-15.831,7.98-22.06,7.883c-6.2-.1-17.486,0-17.486,0Z" transform="translate(-346.586 -318.304)" fill="#4c2011"/>
    <path id="Trazado_827778" data-name="Trazado 827778" d="M988.784,517.7s-16.155,20.048-26.18,32.506-10.576,18.654-4.8,31.208c5.774,12.587,13.95,11.808,27.478,9.6s45.969-21.638,45.969-21.638V533.531Z" transform="translate(-211.946 -263.725)" fill="#f4ebea"/>
    <path id="Trazado_827779" data-name="Trazado 827779" d="M1071.956,556.128s-13.268,32.668-16.772,46.293a30.521,30.521,0,0,0,8.727,30.3c4.736,4.412,28.775,4.769,45.352-1.427s28.321-8.175,32.7-13.268a16.134,16.134,0,0,0,1.979-18.1c-4.9-9.83-8.175-9.505-22.352-5.612-9.148,2.53-22.968,5.612-22.968,5.612s9.57-7.461,14.371-16.837c4.8-9.408,3.439-29.586,3.439-29.586Z" transform="translate(-279.546 -287.911)" fill="#fff"/>
    <path id="Trazado_827780" data-name="Trazado 827780" d="M1054.2,567.28s3.114,10.641,27.607,12.49c27.51,2.076,34.615-7.1,34.615-7.1l.227-7.364s-23.39,4.412-34.842,2.563a224.507,224.507,0,0,1-25.4-6.164Z" transform="translate(-279.568 -293.451)" fill="#d8c2c0"/>
    <path id="Trazado_827781" data-name="Trazado 827781" d="M1054.711,259.145c-8.3,2.4-12.036,7.624-12.036,24.428,0,5.353,3.731,23.033,3.731,31.922,0,15.312-6.942,25.855-7.007,31.143-.1,9.959,11.452,18.232,18.978,20.795,18.361,6.261,37.956,2.563,46.455-5.385s2.271-16.707,2.628-25.855c.649-17.907,8.273-39.578,1.1-53.69-9.246-18.232-20.86-18.816-26.018-20.989C1074.305,258.042,1063.016,256.744,1054.711,259.145Z" transform="translate(-269.568 -88.218)" fill="#fff"/>
    <path id="Trazado_827782" data-name="Trazado 827782" d="M1070.287,188.8a142.238,142.238,0,0,0,.26,21.93c1.3,15.377,15.7,17.94,15.7,17.94s6.229-13.56,6.229-14.436-8.5-25.4-8.5-25.4h-13.69Z" transform="translate(-290.238 -41.523)" fill="#eddcda"/>
    <path id="Trazado_827783" data-name="Trazado 827783" d="M1118.6,260.993s-1.622,11.289,0,14.6c4.671.552,6.78-.681,17.68-5.807s1.979-11.484,1.979-11.484Z" transform="translate(-322.588 -88.476)" fill="#ffb8a3"/>
    <g id="Grupo_1077484" data-name="Grupo 1077484" transform="translate(776.818 135.791)">
      <path id="Trazado_827784" data-name="Trazado 827784" d="M1084.679,177.9c.779-4.9,2.53-10.933,6.715-14.014,4.12-3.049,10.576-2.66,15.377-1.752,7.461,1.395,11.808,10.284,9.375,19.757-2.238,8.727-9.732,21.735-19.821,22.482-5.158.357-8.629-3.86-10.381-8.954C1083.836,189.355,1084.03,181.959,1084.679,177.9Z" transform="translate(-1076.679 -158.858)" fill="#ffc8b5"/>
      <path id="Trazado_827785" data-name="Trazado 827785" d="M1102.9,178.407s.551.357-1.038,3.958a76.691,76.691,0,0,1-4.769,8.5s-2.238-1.557-2.011-6.683a17.1,17.1,0,0,1,2.011-7.851s-5.223.973-10.9-3.341-6.423-7.526-6.423-7.526-4.412,6.326-10.349,6-12-8.986-6.034-10.933,11.549-7.072,16.383-7.137C1092.75,153.3,1106.31,156.023,1102.9,178.407Z" transform="translate(-1060.938 -153.392)" fill="#4c2011"/>
    </g>
    <path id="Trazado_827786" data-name="Trazado 827786" d="M1093.6,138.551c14.534,2.6,15.539,20.146,14.306,29.813-2.076,16.188-10.381,16.9-10.381,16.9s13.69,1.427,22.092-7.721c11.387-12.392,8.337-22.255,5.061-33.22-3.925-13.074-12.879-19.108-26.926-16.318-11.776,2.336-16.188,8.889-19.951,13.69C1084.515,139.491,1090.842,138.064,1093.6,138.551Z" transform="translate(-295.512 0)" fill="#fff"/>
    <g id="Grupo_1077489" data-name="Grupo 1077489" transform="translate(777.197 162.524)">
      <g id="Grupo_1077485" data-name="Grupo 1077485" transform="translate(18.082)">
        <path id="Trazado_827787" data-name="Trazado 827787" d="M1118.868,248.42a1.039,1.039,0,0,1-.908-.551,1.016,1.016,0,0,1,.422-1.363c.1-.065,10.251-5.32,16.934-10.706.065.973-.1,1.849-.1,2.628a127.869,127.869,0,0,1-15.929,9.862A.712.712,0,0,1,1118.868,248.42Z" transform="translate(-1117.845 -235.8)" fill="#fff"/>
      </g>
      <g id="Grupo_1077486" data-name="Grupo 1077486" transform="translate(28.346 7.007)">
        <path id="Trazado_827788" data-name="Trazado 827788" d="M1150.432,267.976a1.011,1.011,0,0,1-.584-.227,1.023,1.023,0,0,1-.13-1.427,88.028,88.028,0,0,0,6.423-8.921,45.765,45.765,0,0,1-1.265,5.515c-1.947,2.725-3.471,4.542-3.633,4.7A.849.849,0,0,1,1150.432,267.976Z" transform="translate(-1149.486 -257.4)" fill="#fff"/>
      </g>
      <g id="Grupo_1077488" data-name="Grupo 1077488" transform="translate(0 1.512)">
        <path id="Trazado_827789" data-name="Trazado 827789" d="M1073.292,250l-8.792,2.336,2.984,11.744,8.272-1.557Z" transform="translate(-1063.724 -246.906)" fill="#4c2011"/>
        <path id="Trazado_827790" data-name="Trazado 827790" d="M1086.83,240.507s5.807-.876,13.69,5.126c8.791,6.715,11.16,9.667,11.16,9.667s-9.051,11.322-19.108,4.152C1085.078,254.067,1086.83,240.507,1086.83,240.507Z" transform="translate(-1078.69 -240.462)" fill="#602a1c"/>
        <g id="Grupo_1077487" data-name="Grupo 1077487" transform="translate(17.027 10.636)">
          <path id="Trazado_827791" data-name="Trazado 827791" d="M1124.555,281.765l4.217-4.055-3.341-3.536c-1.849-1.784-5.58-.908-8.272,1.946s-3.374,6.586-1.525,8.37l2.92,3.017,3.828-3.666a11.162,11.162,0,0,0,1.525-1.3C1124.133,282.316,1124.328,282.024,1124.555,281.765Z" transform="translate(-1114.593 -273.248)" fill="#4c2011"/>
          <path id="Trazado_827792" data-name="Trazado 827792" d="M1134.177,293.443c-2.693,2.855-6.423,3.731-8.272,1.946-1.882-1.784-1.168-5.515,1.525-8.37s6.423-3.731,8.273-1.946S1136.869,290.621,1134.177,293.443Z" transform="translate(-1121.522 -280.612)" fill="#682e23"/>
          <path id="Trazado_827793" data-name="Trazado 827793" d="M1136.849,295.926c-2.076,2.174-4.9,2.855-6.326,1.492s-.908-4.217,1.168-6.391,4.9-2.855,6.326-1.492C1139.444,290.866,1138.925,293.72,1136.849,295.926Z" transform="translate(-1124.811 -283.777)" fill="#602a1c"/>
        </g>
        <path id="Trazado_827794" data-name="Trazado 827794" d="M1066.225,262.519c.811,3.244.649,6.1-.357,6.326-1.005.26-2.465-2.206-3.244-5.45-.811-3.244-.649-6.1.357-6.326C1063.954,256.842,1065.414,259.275,1066.225,262.519Z" transform="translate(-1062.108 -251.672)" fill="#682e23"/>
        <path id="Trazado_827795" data-name="Trazado 827795" d="M1066.84,264.621c.681,2.725.649,5.093-.065,5.255s-1.817-1.914-2.5-4.639-.649-5.093.065-5.255S1066.159,261.9,1066.84,264.621Z" transform="translate(-1063.241 -253.643)" fill="#602a1c"/>
      </g>
    </g>
    <path id="Trazado_827796" data-name="Trazado 827796" d="M1165.641,712.2a30.9,30.9,0,0,0-5.775,3.6c-3.6,2.693-3.6,4.477-3.666,6.229,1.46.162,4.055-1.1,5.613-3.406A59.654,59.654,0,0,0,1165.641,712.2Z" transform="translate(-348.478 -395.127)" fill="#ccbcbc"/>
    <path id="Trazado_827797" data-name="Trazado 827797" d="M1150.55,703.1s-6.65.325-9.375,1.525a12.662,12.662,0,0,0-4.574,3.828,19.005,19.005,0,0,0,6.975-.876A20.732,20.732,0,0,0,1150.55,703.1Z" transform="translate(-335.237 -388.979)" fill="#ccbcbc"/>
    <path id="Trazado_827798" data-name="Trazado 827798" d="M1082.365,306.2s-2.3,10.284-3.439,18.037-1.135,19.108-1.557,25.855-3.569,25.369-5.385,31.435-3.017,13.268-2.757,13.431c.26.195,4.088,2.66,4.088,2.66s2.076-12.23,3.828-19.854a123.965,123.965,0,0,0,3.568-29c0-17.875,5.028-40.843,5.028-40.843Z" transform="translate(-289.696 -120.837)" fill="#eddcda"/>
    <g id="Grupo_1077490" data-name="Grupo 1077490" transform="translate(726.114 228.152)">
      <path id="Trazado_827799" data-name="Trazado 827799" d="M948.359,551.416c-15.8,0-39.675,0-43.438-21.833-1.557-9.018,3.406-23.584,15.182-44.476l.714-1.265c10.478-18.654,18.07-32.117,8.175-43.049a4.187,4.187,0,0,0-3.114-1.4h-.259c-5.418,0-12.944,6.91-13.041,6.975l-.876-.973c.324-.292,7.98-7.3,13.917-7.3h.324a5.568,5.568,0,0,1,4.023,1.817c10.511,11.614,2.758,25.434-8.013,44.574l-.714,1.265c-11.614,20.633-16.512,34.906-15.02,43.633,3.569,20.762,26.8,20.762,42.141,20.762Z" transform="translate(-904.642 -438.1)" fill="#602a1c"/>
    </g>
    <path id="Trazado_827800" data-name="Trazado 827800" d="M1055.573,552.3h-9.116a22.229,22.229,0,0,0-22.157,22.157v56.48a22.229,22.229,0,0,0,22.157,22.157h9.116a22.229,22.229,0,0,0,22.157-22.157v-56.48A22.249,22.249,0,0,0,1055.573,552.3Z" transform="translate(-259.368 -287.1)" fill="#602a1c"/>
    <path id="Trazado_827801" data-name="Trazado 827801" d="M1178.452,312.558c-8.078-8.37-14.631-7.818-21.573-1.492-10.187,9.278-8.986,15.929-4.574,27.283a32.531,32.531,0,0,0,13.528,16.156,27.42,27.42,0,0,0,5.742,14.371c-8.078.714-21.314-4.38-31.078-1.038-9.343,3.212-7.1,21.022,0,22.936,9.181,2.5,28.58,8.3,40.583,5.191,15.182-3.925,14.177-3.568,16.123-17.323C1199.182,364.918,1187.893,322.355,1178.452,312.558Z" transform="translate(-333.683 -120.901)" fill="#1b3f5e"/>
    <path id="Trazado_827802" data-name="Trazado 827802" d="M861.277,455.523s-10.738,4.087-14.209,10.705c-3.471,6.65-3.147,7.4-2.044,13.139,1.1,5.774,6.131,3.536,7.494.876,4.347-1.006,8.4-2.66,10.478-4.736,3.212-3.179,8.143-9.019,9.57-13.463C874.026,457.6,868.9,451.922,861.277,455.523Z" transform="translate(-137.74 -220.947)" fill="#3e72db"/>
    <g id="Grupo_1077492" data-name="Grupo 1077492" transform="translate(764.932 255.143)">
      <path id="Trazado_827803" data-name="Trazado 827803" d="M1073.2,552.333v7.98c0,3.179,4.834,5.775,10.835,5.775,5.969,0,10.835-2.6,10.835-5.775V552.3H1073.2Z" transform="translate(-1057.336 -542.243)" fill="#fdb64f"/>
      <path id="Trazado_827804" data-name="Trazado 827804" d="M1094.871,540.375c0,3.179-4.833,5.775-10.835,5.775-5.969,0-10.835-2.6-10.835-5.775s4.834-5.774,10.835-5.774S1094.871,537.2,1094.871,540.375Z" transform="translate(-1057.336 -530.285)" fill="#fdd264"/>
      <path id="Trazado_827805" data-name="Trazado 827805" d="M1077.7,658.244c-.811,7.429-12.3,13.268-26.18,13.268-15.02,0-27.218-6.845-27.218-15.312v40.421c0,8.467,12.2,15.312,27.218,15.312s26.115-6.521,26.115-15.15Z" transform="translate(-1024.3 -612.437)" fill="#fdb64f"/>
      <g id="Grupo_1077491" data-name="Grupo 1077491" transform="translate(0 38.573)">
        <path id="Trazado_827806" data-name="Trazado 827806" d="M1188.8,664.79l.032-24.59v.032l-.032,24.558Z" transform="translate(-1135.435 -640.2)" fill="#602a1c"/>
        <path id="Trazado_827807" data-name="Trazado 827807" d="M1065.111,764.1a42.254,42.254,0,0,1-13.593,2.109c-15.02,0-27.218-6.845-27.218-15.312v2.433c0,8.467,12.2,15.312,27.218,15.312a43.2,43.2,0,0,0,13.593-2.076Z" transform="translate(-1024.3 -714.988)" fill="#602a1c"/>
        <path id="Trazado_827808" data-name="Trazado 827808" d="M1065.111,742.8a42.257,42.257,0,0,1-13.593,2.109c-15.02,0-27.218-6.845-27.218-15.312v2.433c0,8.467,12.2,15.312,27.218,15.312a43.2,43.2,0,0,0,13.593-2.076Z" transform="translate(-1024.3 -700.598)" fill="#602a1c"/>
        <path id="Trazado_827809" data-name="Trazado 827809" d="M1065.111,721.5a42.254,42.254,0,0,1-13.593,2.109c-15.02,0-27.218-6.845-27.218-15.312v2.433c0,8.467,12.2,15.312,27.218,15.312a43.2,43.2,0,0,0,13.593-2.076Z" transform="translate(-1024.3 -686.208)" fill="#602a1c"/>
        <path id="Trazado_827810" data-name="Trazado 827810" d="M1065.111,700.2a42.254,42.254,0,0,1-13.593,2.109c-15.02,0-27.218-6.845-27.218-15.312v2.433c0,8.467,12.2,15.312,27.218,15.312a43.2,43.2,0,0,0,13.593-2.076Z" transform="translate(-1024.3 -671.818)" fill="#602a1c"/>
      </g>
      <path id="Trazado_827811" data-name="Trazado 827811" d="M1081.5,534.6v4.445c0,2.4,3.633,4.315,8.143,4.315s8.142-1.946,8.142-4.315V534.6Z" transform="translate(-1062.944 -530.285)" fill="#602a1c"/>
      <path id="Trazado_827812" data-name="Trazado 827812" d="M1097.785,525.614c0,2.4-3.633,4.315-8.142,4.315s-8.143-1.946-8.143-4.315c0-2.4,3.633-4.315,8.143-4.315C1094.152,521.267,1097.785,523.213,1097.785,525.614Z" transform="translate(-1062.944 -521.299)" fill="#604249"/>
    </g>
    <path id="Trazado_827813" data-name="Trazado 827813" d="M1087.726,505.628s-5.774-3.212-18.945,0c-11.873,2.887-10.868,7.818-11.938,13.139s9.505,6,15.637,4.055,10.933-2.109,14.015-4.574C1091.49,514.257,1087.726,505.628,1087.726,505.628Z" transform="translate(-281.302 -254.604)" fill="#3e72db"/>
    <path id="Trazado_827814" data-name="Trazado 827814" d="M1255,488.6s.616,3.341,2.271,5.061a35.257,35.257,0,0,0,3.633,3.212s.779-1.59-.876-4.152A12.256,12.256,0,0,0,1255,488.6Z" transform="translate(-415.227 -244.065)" fill="#d8c2c0"/>
    <path id="Trazado_827815" data-name="Trazado 827815" d="M1016.01,380.4a6.594,6.594,0,0,0-2.4,3.6,8.268,8.268,0,0,0,0,3.6,14.371,14.371,0,0,0,1.849-3.6A10.721,10.721,0,0,0,1016.01,380.4Z" transform="translate(-252.019 -170.966)" fill="#d8c2c0"/>
    <g id="Grupo_1077493" data-name="Grupo 1077493" transform="translate(640.387 230.696)">
      <path id="Trazado_827816" data-name="Trazado 827816" d="M833.6,447.323c-.811-1.233-2.206-1.719-3.114-1.135L780.3,488.848l2.92,4.444,50.186-42.66C834.314,450.016,834.412,448.524,833.6,447.323Z" transform="translate(-734.911 -445.942)" fill="#4c2011"/>
      <path id="Trazado_827817" data-name="Trazado 827817" d="M781.859,578.794c.811,1.233.714,2.692-.195,3.309s-2.3.1-3.114-1.135-.714-2.693.195-3.309S781.048,577.561,781.859,578.794Z" transform="translate(-733.356 -534.753)" fill="#682e23"/>
      <path id="Trazado_827818" data-name="Trazado 827818" d="M782.693,582.589a1.213,1.213,0,0,1-.1,1.654,1.192,1.192,0,0,1-1.557-.552,1.213,1.213,0,0,1,.1-1.654A1.2,1.2,0,0,1,782.693,582.589Z" transform="translate(-735.228 -537.801)" fill="#fff"/>
      <path id="Trazado_827819" data-name="Trazado 827819" d="M681.2,586.755c-8.629,7.007-24.655,20.081-30.3,25.012-7.753,6.78-10.641,13.041-10.511,23.617-.032.389.552.746,1.33.811s1.395-.227,1.427-.616c0-.032-.032-.065-.032-.1h.032c-.13-9.83,2.3-15.474,9.505-21.768,5.612-4.9,21.638-17.94,30.235-24.947,2.79-2.271,4.7-3.828,5.028-4.087L686.23,582.7C685.841,582.96,683.96,584.484,681.2,586.755Z" transform="translate(-640.387 -538.334)" fill="#fff"/>
    </g>
    <path id="Trazado_827820" data-name="Trazado 827820" d="M872.479,466.914a39.712,39.712,0,0,0-3.179,7.721c-.876,3.341,1.427,7.332,3.179,4.9,1.233-1.719,2.4-3.569,5.839-7.721,3.277-3.958,2.757-7.2,2.466-6.942C880.492,465.1,874.49,465.908,872.479,466.914Z" transform="translate(-154.521 -228.023)" fill="#3e72db"/>
  </g>
</svg>
