<svg xmlns="http://www.w3.org/2000/svg" width="253" height="207" viewBox="0 0 253 207">
  <g id="Grupo_1082311" data-name="Grupo 1082311" transform="translate(-915 -24702)">
    <rect id="Rectángulo_376910" data-name="Rectángulo 376910" width="253" height="207" transform="translate(915 24702)" fill="none"/>
    <g id="icono18" transform="translate(879.463 24667.275)">
      <g id="Grupo_1079704" data-name="Grupo 1079704" transform="translate(113.084 72.027)">
        <g id="Grupo_1079639" data-name="Grupo 1079639" transform="translate(13.333 9.053)">
          <g id="Grupo_1079635" data-name="Grupo 1079635" transform="translate(1.043 1.043)">
            <path id="Trazado_829181" data-name="Trazado 829181" d="M216.047,140.224A19.424,19.424,0,1,1,196.624,120.8,19.424,19.424,0,0,1,216.047,140.224Z" transform="translate(-177.2 -120.8)" fill="#bddef5"/>
          </g>
          <g id="Grupo_1079636" data-name="Grupo 1079636">
            <path id="Trazado_829182" data-name="Trazado 829182" d="M195.766,159.832a20.466,20.466,0,1,1,20.521-20.466A20.5,20.5,0,0,1,195.766,159.832Zm0-38.847a18.381,18.381,0,1,0,18.381,18.381A18.382,18.382,0,0,0,195.766,120.985Z" transform="translate(-175.3 -118.9)" fill="#fff"/>
          </g>
          <g id="Grupo_1079637" data-name="Grupo 1079637" transform="translate(23.441 28.933)">
            <path id="Trazado_829183" data-name="Trazado 829183" d="M219.108,178.144a1.1,1.1,0,0,1-1.043-.768,1.075,1.075,0,0,1,.713-1.317,13.547,13.547,0,0,0,6.365-4.06,1.05,1.05,0,0,1,1.591,1.372,15.5,15.5,0,0,1-7.352,4.719A.6.6,0,0,1,219.108,178.144Z" transform="translate(-218.023 -171.632)" fill="#fff"/>
          </g>
          <g id="Grupo_1079638" data-name="Grupo 1079638" transform="translate(4.883 4.883)">
            <path id="Trazado_829184" data-name="Trazado 829184" d="M185.243,144.425a1.042,1.042,0,0,1-1.043-1.042A15.607,15.607,0,0,1,199.783,127.8a1.043,1.043,0,0,1,0,2.085,13.523,13.523,0,0,0-13.5,13.5A1.079,1.079,0,0,1,185.243,144.425Z" transform="translate(-184.2 -127.8)" fill="#fff"/>
          </g>
        </g>
        <g id="Grupo_1079644" data-name="Grupo 1079644" transform="translate(32.702)">
          <g id="Grupo_1079640" data-name="Grupo 1079640" transform="translate(1.097 1.152)">
            <path id="Trazado_829185" data-name="Trazado 829185" d="M239.705,118.052A13.553,13.553,0,1,1,226.153,104.5,13.547,13.547,0,0,1,239.705,118.052Z" transform="translate(-212.6 -104.499)" fill="#bddef5"/>
          </g>
          <g id="Grupo_1079641" data-name="Grupo 1079641">
            <path id="Trazado_829186" data-name="Trazado 829186" d="M225.25,131.7a14.65,14.65,0,1,1,14.65-14.65A14.682,14.682,0,0,1,225.25,131.7Zm0-27.16a12.51,12.51,0,1,0,12.51,12.51A12.5,12.5,0,0,0,225.25,104.54Z" transform="translate(-210.6 -102.4)" fill="#fff"/>
          </g>
          <g id="Grupo_1079642" data-name="Grupo 1079642" transform="translate(17.153 20.678)">
            <path id="Trazado_829187" data-name="Trazado 829187" d="M242.925,144.813a1.084,1.084,0,0,1-.384-2.085,10.021,10.021,0,0,0,3.512-2.3,1.048,1.048,0,1,1,1.536,1.427,11.732,11.732,0,0,1-4.28,2.853A.463.463,0,0,1,242.925,144.813Z" transform="translate(-241.862 -140.087)" fill="#fff"/>
          </g>
          <g id="Grupo_1079643" data-name="Grupo 1079643" transform="translate(3.292 3.347)">
            <path id="Trazado_829188" data-name="Trazado 829188" d="M217.643,120.9a1.042,1.042,0,0,1-1.042-1.042A11.381,11.381,0,0,1,227.958,108.5a1.043,1.043,0,1,1,0,2.085,9.3,9.3,0,0,0-9.273,9.273A1.042,1.042,0,0,1,217.643,120.9Z" transform="translate(-216.6 -108.5)" fill="#fff"/>
          </g>
        </g>
        <g id="Grupo_1079649" data-name="Grupo 1079649" transform="translate(59.039 15.089)">
          <g id="Grupo_1079645" data-name="Grupo 1079645" transform="translate(1.097 1.043)">
            <path id="Trazado_829189" data-name="Trazado 829189" d="M260.6,149.029A17.229,17.229,0,1,1,277.829,166.2,17.223,17.223,0,0,1,260.6,149.029Z" transform="translate(-260.6 -131.8)" fill="#bddef5"/>
          </g>
          <g id="Grupo_1079646" data-name="Grupo 1079646">
            <path id="Trazado_829190" data-name="Trazado 829190" d="M276.871,166.443a18.271,18.271,0,1,1,18.271-18.271A18.265,18.265,0,0,1,276.871,166.443Zm0-34.4A16.131,16.131,0,1,0,293,148.171,16.158,16.158,0,0,0,276.871,132.04Z" transform="translate(-258.6 -129.9)" fill="#fff"/>
          </g>
          <g id="Grupo_1079647" data-name="Grupo 1079647" transform="translate(21.44 25.147)">
            <path id="Trazado_829191" data-name="Trazado 829191" d="M298.731,181.476a1.054,1.054,0,0,1-.988-.713,1.081,1.081,0,0,1,.658-1.372,11.343,11.343,0,0,0,4.719-3.292,1.05,1.05,0,0,1,1.591,1.372,13.283,13.283,0,0,1-5.6,3.9A.592.592,0,0,1,298.731,181.476Z" transform="translate(-297.675 -175.732)" fill="#fff"/>
          </g>
          <g id="Grupo_1079648" data-name="Grupo 1079648" transform="translate(4.938 4.883)">
            <path id="Trazado_829192" data-name="Trazado 829192" d="M268.643,153.231a1.042,1.042,0,0,1-1.042-1.043A13.406,13.406,0,0,1,280.988,138.8a1.042,1.042,0,0,1,1.043,1.043,1.079,1.079,0,0,1-1.043,1.043,11.263,11.263,0,0,0-11.248,11.248A1.1,1.1,0,0,1,268.643,153.231Z" transform="translate(-267.6 -138.8)" fill="#fff"/>
          </g>
        </g>
        <g id="Grupo_1079654" data-name="Grupo 1079654" transform="translate(85.102 9.053)">
          <g id="Grupo_1079650" data-name="Grupo 1079650" transform="translate(1.043 1.043)">
            <path id="Trazado_829193" data-name="Trazado 829193" d="M308,132.432a11.632,11.632,0,1,1,11.632,11.632A11.638,11.638,0,0,1,308,132.432Z" transform="translate(-308 -120.8)" fill="#bddef5"/>
          </g>
          <g id="Grupo_1079651" data-name="Grupo 1079651">
            <path id="Trazado_829194" data-name="Trazado 829194" d="M318.775,144.249a12.675,12.675,0,1,1,12.675-12.675A12.68,12.68,0,0,1,318.775,144.249Zm0-23.264a10.59,10.59,0,1,0,10.59,10.59A10.6,10.6,0,0,0,318.775,120.985Z" transform="translate(-306.1 -118.9)" fill="#fff"/>
          </g>
          <g id="Grupo_1079652" data-name="Grupo 1079652" transform="translate(14.84 17.523)">
            <path id="Trazado_829195" data-name="Trazado 829195" d="M334.218,154.767a1,1,0,0,1-.988-.658,1.027,1.027,0,0,1,.549-1.372,6.682,6.682,0,0,0,2.3-1.591,1.043,1.043,0,0,1,1.481,0,1,1,0,0,1,0,1.481,9.434,9.434,0,0,1-3.018,2.03A.464.464,0,0,1,334.218,154.767Z" transform="translate(-333.147 -150.837)" fill="#fff"/>
          </g>
          <g id="Grupo_1079653" data-name="Grupo 1079653" transform="translate(3.237 3.237)">
            <path id="Trazado_829196" data-name="Trazado 829196" d="M313.042,135.28A1.042,1.042,0,0,1,312,134.237a9.437,9.437,0,0,1,9.437-9.437,1.043,1.043,0,1,1,0,2.085,7.33,7.33,0,0,0-7.3,7.3A1.1,1.1,0,0,1,313.042,135.28Z" transform="translate(-312 -124.8)" fill="#fff"/>
          </g>
        </g>
        <g id="Grupo_1079659" data-name="Grupo 1079659" transform="translate(37.64 12.675)">
          <g id="Grupo_1079655" data-name="Grupo 1079655" transform="translate(1.097 1.152)">
            <path id="Trazado_829197" data-name="Trazado 829197" d="M221.6,145.158a17.558,17.558,0,1,1,17.558,17.558A17.539,17.539,0,0,1,221.6,145.158Z" transform="translate(-221.6 -127.6)" fill="#bddef5"/>
          </g>
          <g id="Grupo_1079656" data-name="Grupo 1079656">
            <path id="Trazado_829198" data-name="Trazado 829198" d="M238.255,162.811a18.655,18.655,0,1,1,18.655-18.655A18.675,18.675,0,0,1,238.255,162.811Zm0-35.116a16.516,16.516,0,1,0,16.516,16.516A16.532,16.532,0,0,0,238.255,127.695Z" transform="translate(-219.6 -125.5)" fill="#fff"/>
          </g>
          <g id="Grupo_1079657" data-name="Grupo 1079657" transform="translate(21.982 26.824)">
            <path id="Trazado_829199" data-name="Trazado 829199" d="M260.725,179.223a1.084,1.084,0,0,1-.384-2.085,11.428,11.428,0,0,0,3.951-2.469,1.048,1.048,0,1,1,1.427,1.536,14.21,14.21,0,0,1-4.664,2.908A.4.4,0,0,1,260.725,179.223Z" transform="translate(-259.662 -174.387)" fill="#fff"/>
          </g>
          <g id="Grupo_1079658" data-name="Grupo 1079658" transform="translate(4.938 4.993)">
            <path id="Trazado_829200" data-name="Trazado 829200" d="M229.643,149.36a1.042,1.042,0,0,1-1.043-1.042A13.734,13.734,0,0,1,242.372,134.6a1.042,1.042,0,0,1,1.042,1.043,1.079,1.079,0,0,1-1.042,1.042,11.638,11.638,0,0,0-11.632,11.632A1.13,1.13,0,0,1,229.643,149.36Z" transform="translate(-228.6 -134.6)" fill="#fff"/>
          </g>
        </g>
        <g id="Grupo_1079666" data-name="Grupo 1079666" transform="translate(2.743 41.316)">
          <g id="Grupo_1079660" data-name="Grupo 1079660" transform="translate(7.407 12.62)">
            <path id="Trazado_829201" data-name="Trazado 829201" d="M280.939,200.7l-.549,8.066H170.049L169.5,200.7Z" transform="translate(-169.5 -200.7)" fill="#73a847"/>
          </g>
          <g id="Grupo_1079661" data-name="Grupo 1079661">
            <path id="Trazado_829202" data-name="Trazado 829202" d="M282.253,183.736v4.554a1.992,1.992,0,0,1-2.03,2.03H158.03a2.025,2.025,0,0,1-2.03-2.03v-4.554a6.018,6.018,0,0,1,6.036-6.036H276.218A6.018,6.018,0,0,1,282.253,183.736Z" transform="translate(-156 -177.7)" fill="#9fd672"/>
          </g>
          <g id="Grupo_1079662" data-name="Grupo 1079662" transform="translate(2.798 1.317)">
            <path id="Trazado_829203" data-name="Trazado 829203" d="M166.642,189.647a4.777,4.777,0,0,1,4.774-4.774H282.854a4.777,4.777,0,0,0-4.774-4.774H165.874a4.777,4.777,0,0,0-4.774,4.774v3.621a1.592,1.592,0,0,0,1.591,1.591h3.951Z" transform="translate(-161.1 -180.1)" fill="#525e46"/>
          </g>
          <g id="Grupo_1079663" data-name="Grupo 1079663" transform="translate(7.956 20.686)">
            <path id="Trazado_829204" data-name="Trazado 829204" d="M280.841,215.4l-6.365,91.357a17.523,17.523,0,0,1-17.284,16.077H194.148a17.523,17.523,0,0,1-17.284-16.077L170.5,215.4Z" transform="translate(-170.5 -215.4)" fill="#9fd672"/>
          </g>
          <g id="Grupo_1079664" data-name="Grupo 1079664" transform="translate(12.894 24.526)">
            <path id="Trazado_829205" data-name="Trazado 829205" d="M270.089,311.781h-57.5a16.013,16.013,0,0,1-15.747-14.65L191.626,222.4H179.5l5.816,83.236a15.97,15.97,0,0,0,15.747,14.65h57.448a15.978,15.978,0,0,0,14.046-8.724A12.162,12.162,0,0,1,270.089,311.781Z" transform="translate(-179.5 -222.4)" fill="#3a4231"/>
          </g>
          <g id="Grupo_1079665" data-name="Grupo 1079665" transform="translate(64.526 12.62)">
            <path id="Trazado_829206" data-name="Trazado 829206" d="M273.6,200.7V316.2h30.178a17.6,17.6,0,0,0,17.284-16.077l6.365-91.357.549-8.066Z" transform="translate(-273.6 -200.7)" fill="#dae6d1"/>
          </g>
        </g>
        <g id="Grupo_1079673" data-name="Grupo 1079673" transform="translate(71.878 0.055)">
          <g id="Grupo_1079668" data-name="Grupo 1079668">
            <g id="Grupo_1079667" data-name="Grupo 1079667">
              <path id="Trazado_829207" data-name="Trazado 829207" d="M293.3,108.152a5.651,5.651,0,1,1-5.651-5.651A5.643,5.643,0,0,1,293.3,108.152Z" transform="translate(-282 -102.5)" fill="#bddef5"/>
            </g>
          </g>
          <g id="Grupo_1079670" data-name="Grupo 1079670" transform="translate(7.352 7.966)">
            <g id="Grupo_1079669" data-name="Grupo 1079669">
              <path id="Trazado_829208" data-name="Trazado 829208" d="M295.839,118.819a.367.367,0,0,1-.384-.219.441.441,0,0,1,.165-.6,3.594,3.594,0,0,0,.988-.823.467.467,0,0,1,.713.6,4.155,4.155,0,0,1-1.207.988A.6.6,0,0,1,295.839,118.819Z" transform="translate(-295.4 -117.019)" fill="#fff"/>
            </g>
          </g>
          <g id="Grupo_1079672" data-name="Grupo 1079672" transform="translate(0.988 0.988)">
            <g id="Grupo_1079671" data-name="Grupo 1079671">
              <path id="Trazado_829209" data-name="Trazado 829209" d="M284.239,109.4a.433.433,0,0,1-.439-.439,4.66,4.66,0,0,1,4.664-4.664.439.439,0,1,1,0,.878,3.794,3.794,0,0,0-3.786,3.786A.4.4,0,0,1,284.239,109.4Z" transform="translate(-283.8 -104.3)" fill="#fff"/>
            </g>
          </g>
        </g>
        <g id="Grupo_1079680" data-name="Grupo 1079680" transform="translate(112.481 5.322)">
          <g id="Grupo_1079675" data-name="Grupo 1079675">
            <g id="Grupo_1079674" data-name="Grupo 1079674">
              <path id="Trazado_829210" data-name="Trazado 829210" d="M363.133,115.666a3.566,3.566,0,1,1-3.566-3.566A3.559,3.559,0,0,1,363.133,115.666Z" transform="translate(-356 -112.1)" fill="#bddef5"/>
            </g>
          </g>
          <g id="Grupo_1079677" data-name="Grupo 1079677" transform="translate(4.631 5.067)">
            <g id="Grupo_1079676" data-name="Grupo 1079676">
              <path id="Trazado_829211" data-name="Trazado 829211" d="M364.693,122.468c-.11,0-.22-.055-.22-.165-.055-.11-.055-.329.11-.384a2.639,2.639,0,0,0,.6-.494.274.274,0,1,1,.439.329,2.887,2.887,0,0,1-.768.658C364.8,122.413,364.747,122.468,364.693,122.468Z" transform="translate(-364.44 -121.334)" fill="#fff"/>
            </g>
          </g>
          <g id="Grupo_1079679" data-name="Grupo 1079679" transform="translate(0.604 0.658)">
            <g id="Grupo_1079678" data-name="Grupo 1079678">
              <path id="Trazado_829212" data-name="Trazado 829212" d="M357.374,116.537a.259.259,0,0,1-.274-.274,2.951,2.951,0,0,1,2.963-2.963.274.274,0,1,1,0,.549,2.436,2.436,0,0,0-2.414,2.414A.294.294,0,0,1,357.374,116.537Z" transform="translate(-357.1 -113.3)" fill="#fff"/>
            </g>
          </g>
        </g>
        <g id="Grupo_1079688" data-name="Grupo 1079688" transform="translate(0 44.608)">
          <g id="Grupo_1079681" data-name="Grupo 1079681" transform="translate(35.804 56.136)">
            <path id="Trazado_829213" data-name="Trazado 829213" d="M277.568,295.771a1.777,1.777,0,0,1-1.207,1.975,86.415,86.415,0,0,1-29.41,5.048,85.435,85.435,0,0,1-29.465-5.048,1.7,1.7,0,0,1-1.152-2.085c0-.055.055-.055.055-.11l4.115-8.56v-.055a2.048,2.048,0,0,1,2.524-.768A75.659,75.659,0,0,0,246.9,289.9c8.56,0,17.613-1.427,23.868-3.731a1.988,1.988,0,0,1,2.524.768l.11.22,4.005,8.34C277.513,295.606,277.568,295.661,277.568,295.771Z" transform="translate(-216.254 -286.009)" fill="#73a847"/>
          </g>
          <g id="Grupo_1079682" data-name="Grupo 1079682" transform="translate(35.749 62.715)">
            <path id="Trazado_829214" data-name="Trazado 829214" d="M277.413,300.908,275.986,298a89.357,89.357,0,0,1-58.271,0l-1.427,2.908a.192.192,0,0,1-.055.11,1.657,1.657,0,0,0,1.152,2.085,86.521,86.521,0,0,0,29.465,5.048,84.739,84.739,0,0,0,29.41-5.048,1.8,1.8,0,0,0,1.207-1.975C277.522,301.073,277.468,301.018,277.413,300.908Z" transform="translate(-216.154 -298)" fill="#dae6d1"/>
          </g>
          <g id="Grupo_1079683" data-name="Grupo 1079683" transform="translate(37.629 57.692)">
            <path id="Trazado_829215" data-name="Trazado 829215" d="M224.968,293.923h0a1.8,1.8,0,0,1,2.14-.658,69.769,69.769,0,0,0,20.576,1.536c17.558-1.1,24.252-5.926,24.252-5.926-5.267,1.92-19.314,3.731-26.447,3.731a67.071,67.071,0,0,1-20.8-3.621,1.645,1.645,0,0,0-2.085.6v.055L219.7,295.57c0,.055,0,.055-.055.11a1.4,1.4,0,0,0,.933,1.756c.6.219,1.372.494,2.3.768Z" transform="translate(-219.579 -288.846)" fill="#475c2f"/>
          </g>
          <g id="Grupo_1079684" data-name="Grupo 1079684" transform="translate(0 0.274)">
            <path id="Trazado_829216" data-name="Trazado 829216" d="M186.994,249.549a.192.192,0,0,1-.055.11h-.055C162.577,239.727,151,217.176,151,190.894c0-3.566.768-6.145,3.237-6.694a6.2,6.2,0,0,0-.549,2.414v4.554a1.992,1.992,0,0,0,2.03,2.03h.055c3.018,21.783,14.54,39.725,35.281,47.736v.055Z" transform="translate(-151 -184.2)" fill="#ffcc4d"/>
          </g>
          <g id="Grupo_1079685" data-name="Grupo 1079685" transform="translate(1.207 7.188)">
            <path id="Trazado_829217" data-name="Trazado 829217" d="M153.2,196.8c0,24.8,10.974,46.145,33.964,55.527h.055c0-.055.055-.055.055-.11l1.975-4.115C156.218,236.8,153.2,196.8,153.2,196.8Z" transform="translate(-153.2 -196.8)" fill="#705e48"/>
          </g>
          <g id="Grupo_1079686" data-name="Grupo 1079686" transform="translate(93.058)">
            <path id="Trazado_829218" data-name="Trazado 829218" d="M360,190.723c0,26.392-10.425,49.053-35.281,58.874-.055-.11-.055-.219-.11-.274l-4.005-8.34c21.673-7.9,32.537-26.172,35.226-48.394a2,2,0,0,0,.823-1.591v-4.554a5.789,5.789,0,0,0-.658-2.743h.055C358.789,183.7,360,185.127,360,190.723Z" transform="translate(-320.6 -183.7)" fill="#ffcc4d"/>
          </g>
          <g id="Grupo_1079687" data-name="Grupo 1079687" transform="translate(95.472 12.839)">
            <path id="Trazado_829219" data-name="Trazado 829219" d="M325,251.818l1.811,3.731c18.6-7.188,31.879-26.282,30.946-48.449C355.178,227.676,345.082,244.466,325,251.818Z" transform="translate(-325 -207.1)" fill="#705e48"/>
          </g>
        </g>
        <g id="Grupo_1079693" data-name="Grupo 1079693" transform="translate(3.128 18.655)">
          <g id="Grupo_1079689" data-name="Grupo 1079689" transform="translate(1.152 1.152)">
            <path id="Trazado_829220" data-name="Trazado 829220" d="M185.027,151.613A13.114,13.114,0,1,1,171.914,138.5,13.113,13.113,0,0,1,185.027,151.613Z" transform="translate(-158.8 -138.499)" fill="#bddef5"/>
          </g>
          <g id="Grupo_1079690" data-name="Grupo 1079690">
            <path id="Trazado_829221" data-name="Trazado 829221" d="M170.911,164.822a14.211,14.211,0,1,1,14.211-14.211A14.214,14.214,0,0,1,170.911,164.822Zm0-26.227a12.071,12.071,0,1,0,12.071,12.071A12.107,12.107,0,0,0,170.911,138.595Z" transform="translate(-156.7 -136.4)" fill="#fff"/>
          </g>
          <g id="Grupo_1079691" data-name="Grupo 1079691" transform="translate(16.303 21.667)">
            <path id="Trazado_829222" data-name="Trazado 829222" d="M187.449,178.912a1,1,0,0,1-.988-.713,1.044,1.044,0,0,1,.658-1.317,13.216,13.216,0,0,0,1.811-.823,1.073,1.073,0,1,1,1.152,1.811,10.519,10.519,0,0,1-2.25,1.042A.9.9,0,0,0,187.449,178.912Z" transform="translate(-186.414 -175.888)" fill="#fff"/>
          </g>
          <g id="Grupo_1079692" data-name="Grupo 1079692" transform="translate(3.292 3.347)">
            <path id="Trazado_829223" data-name="Trazado 829223" d="M163.743,154.461a1.042,1.042,0,0,1-1.043-1.043A10.912,10.912,0,0,1,173.619,142.5a1.043,1.043,0,0,1,0,2.085,8.817,8.817,0,0,0-8.834,8.779A1.023,1.023,0,0,1,163.743,154.461Z" transform="translate(-162.7 -142.5)" fill="#fff"/>
          </g>
        </g>
        <g id="Grupo_1079698" data-name="Grupo 1079698" transform="translate(88.339 24.197)">
          <g id="Grupo_1079694" data-name="Grupo 1079694" transform="translate(1.043 1.043)">
            <path id="Trazado_829224" data-name="Trazado 829224" d="M313.9,161.075a12.675,12.675,0,1,1,12.675,12.675A12.68,12.68,0,0,1,313.9,161.075Z" transform="translate(-313.9 -148.4)" fill="#bddef5"/>
          </g>
          <g id="Grupo_1079695" data-name="Grupo 1079695">
            <path id="Trazado_829225" data-name="Trazado 829225" d="M325.717,173.934a13.717,13.717,0,1,1,13.717-13.717A13.722,13.722,0,0,1,325.717,173.934Zm0-25.349a11.577,11.577,0,1,0,11.577,11.577A11.627,11.627,0,0,0,325.717,148.585Z" transform="translate(-312 -146.5)" fill="#fff"/>
          </g>
          <g id="Grupo_1079696" data-name="Grupo 1079696" transform="translate(16.322 18.608)">
            <path id="Trazado_829226" data-name="Trazado 829226" d="M342.819,185.235a1,1,0,0,1-.988-.658,1.027,1.027,0,0,1,.549-1.372,8.2,8.2,0,0,0,3.182-2.414,1.054,1.054,0,1,1,1.646,1.317,10.76,10.76,0,0,1-4.005,3.018A1.017,1.017,0,0,1,342.819,185.235Z" transform="translate(-341.747 -180.414)" fill="#fff"/>
          </g>
          <g id="Grupo_1079697" data-name="Grupo 1079697" transform="translate(3.292 3.237)">
            <path id="Trazado_829227" data-name="Trazado 829227" d="M319.043,163.922A1.042,1.042,0,0,1,318,162.88a10.514,10.514,0,0,1,10.48-10.48,1.043,1.043,0,1,1,0,2.085,8.336,8.336,0,0,0-8.34,8.34A1.179,1.179,0,0,1,319.043,163.922Z" transform="translate(-318 -152.4)" fill="#fff"/>
          </g>
        </g>
        <g id="Grupo_1079703" data-name="Grupo 1079703" transform="translate(110.835 27.05)">
          <g id="Grupo_1079699" data-name="Grupo 1079699" transform="translate(0.823 0.823)">
            <path id="Trazado_829228" data-name="Trazado 829228" d="M354.5,162.089a8.889,8.889,0,1,1,8.889,8.889A8.887,8.887,0,0,1,354.5,162.089Z" transform="translate(-354.5 -153.2)" fill="#bddef5"/>
          </g>
          <g id="Grupo_1079700" data-name="Grupo 1079700">
            <path id="Trazado_829229" data-name="Trazado 829229" d="M362.712,171.124a9.712,9.712,0,1,1,9.712-9.712A9.695,9.695,0,0,1,362.712,171.124Zm0-17.777a8.066,8.066,0,1,0,8.066,8.066A8.079,8.079,0,0,0,362.712,153.346Z" transform="translate(-353 -151.7)" fill="#fff"/>
          </g>
          <g id="Grupo_1079701" data-name="Grupo 1079701" transform="translate(11.811 12.942)">
            <path id="Trazado_829230" data-name="Trazado 829230" d="M375.115,179.08a.661.661,0,0,1-.549-.384.647.647,0,0,1,.329-.823,6.366,6.366,0,0,0,2.8-2.3.559.559,0,0,1,.823-.165.6.6,0,0,1,.165.823,8,8,0,0,1-3.292,2.743A.927.927,0,0,1,375.115,179.08Z" transform="translate(-374.525 -175.287)" fill="#fff"/>
          </g>
          <g id="Grupo_1079702" data-name="Grupo 1079702" transform="translate(2.195 2.195)">
            <path id="Trazado_829231" data-name="Trazado 829231" d="M357.6,163.821a.609.609,0,0,1-.6-.6,7.528,7.528,0,0,1,7.517-7.517.6.6,0,0,1,0,1.207,6.346,6.346,0,0,0-6.31,6.31A.609.609,0,0,1,357.6,163.821Z" transform="translate(-357 -155.7)" fill="#fff"/>
          </g>
        </g>
      </g>
      <g id="Grupo_1079734" data-name="Grupo 1079734" transform="translate(66.987 35.1)">
        <g id="Grupo_1079728" data-name="Grupo 1079728">
          <g id="Grupo_1079715" data-name="Grupo 1079715">
            <g id="Grupo_1079705" data-name="Grupo 1079705" transform="translate(0 44.828)">
              <path id="Trazado_829232" data-name="Trazado 829232" d="M145.456,266.976a5.469,5.469,0,0,1-5.6,6.2H72.92a5.882,5.882,0,0,1-5.926-6.255l12.949-85.815a68.76,68.76,0,0,1,.988-8.23L99.7,116.8H115l-.549,40.274a13.486,13.486,0,0,0,4.17,6.639l12.181,9.383a16.384,16.384,0,0,1,5.6,10.041Z" transform="translate(-66.987 -116.8)" fill="#76b8de"/>
            </g>
            <g id="Grupo_1079706" data-name="Grupo 1079706" transform="translate(5.68 44.883)">
              <path id="Trazado_829233" data-name="Trazado 829233" d="M150.129,267.021l-9.053-83.785a16.809,16.809,0,0,0-5.6-10.041L123.3,163.813a13.485,13.485,0,0,1-4.17-6.639l.549-40.274h-6.31l-1.427,43.676a13.485,13.485,0,0,0,4.17,6.639l12.181,9.383a16.384,16.384,0,0,1,5.6,10.041l5.981,73.415a5.469,5.469,0,0,1-5.6,6.2s-60.246,6.968-56.789,6.968h66.94A5.519,5.519,0,0,0,150.129,267.021Z" transform="translate(-77.339 -116.9)" fill="#cae0ed"/>
            </g>
            <g id="Grupo_1079707" data-name="Grupo 1079707" transform="translate(0.055 44.883)">
              <path id="Trazado_829234" data-name="Trazado 829234" d="M76.7,269.765l13.388-88.558a73.453,73.453,0,0,1,1.043-8.5l13.223-55.8H99.8L81.031,172.921a68.764,68.764,0,0,0-.988,8.23L67.094,266.966a5.882,5.882,0,0,0,5.926,6.255h4.554A6.137,6.137,0,0,1,76.7,269.765Z" transform="translate(-67.087 -116.9)" fill="#3a5b6e"/>
            </g>
            <g id="Grupo_1079708" data-name="Grupo 1079708" transform="translate(83.134 2.579)">
              <path id="Trazado_829235" data-name="Trazado 829235" d="M222.341,40.458v4.774L218.5,46.549V39.8Z" transform="translate(-218.5 -39.8)" fill="#e96352"/>
            </g>
            <g id="Grupo_1079709" data-name="Grupo 1079709" transform="translate(53.669 10.974)">
              <path id="Trazado_829236" data-name="Trazado 829236" d="M189.326,75.347c2.195,2.908,1.975,3.621-1.152,1.866a26.926,26.926,0,0,1-11.522-12.675H164.8c5.926-5.871,16.131-8.395,22.825-9.437v.11S182.193,65.909,189.326,75.347Z" transform="translate(-164.8 -55.1)" fill="#e96352"/>
            </g>
            <g id="Grupo_1079710" data-name="Grupo 1079710" transform="translate(12.898)">
              <path id="Trazado_829237" data-name="Trazado 829237" d="M126.546,66.1H110.689l1.7-5.542a2.954,2.954,0,0,0-3.018-4.06H95.051c-2.359,0-4.664-1.92-4.554-4.225.329-5.322,3.128-13.992,17.832-16.3,12.949-1.975,52.345,0,52.345,0v9.437a65.039,65.039,0,0,0-6.639.713c-6.694,1.043-16.9,3.566-22.825,9.437A15.079,15.079,0,0,0,126.546,66.1Z" transform="translate(-90.493 -35.1)" fill="#ffcc4d"/>
            </g>
            <g id="Grupo_1079712" data-name="Grupo 1079712" transform="translate(16.902 3.67)">
              <g id="Grupo_1079711" data-name="Grupo 1079711">
                <path id="Trazado_829238" data-name="Trazado 829238" d="M117.165,47.227c8.175-1.043,38.518-4.828,38.518-4.828s-32.537-1.372-43.182,0c-12.126,1.536-14.431,7.517-14.7,11.138-.11,1.591,1.811,2.908,3.731,2.908h1.262C103.722,52.879,106.959,48.544,117.165,47.227Z" transform="translate(-97.792 -41.789)" fill="#968554"/>
              </g>
            </g>
            <g id="Grupo_1079713" data-name="Grupo 1079713" transform="translate(28.923 31.001)">
              <path id="Trazado_829239" data-name="Trazado 829239" d="M139.727,91.6a2.623,2.623,0,0,1,2.414,2.579v8.669a2.576,2.576,0,0,1-2.579,2.579H122.279a2.576,2.576,0,0,1-2.579-2.579V94.179a2.576,2.576,0,0,1,2.579-2.579h17.448Z" transform="translate(-119.7 -91.6)" fill="#f57a62"/>
            </g>
            <g id="Grupo_1079714" data-name="Grupo 1079714" transform="translate(32.599 44.883)">
              <path id="Trazado_829240" data-name="Trazado 829240" d="M141.873,116.9H126.565l-.165.439a55.814,55.814,0,0,1,15.363,5.213Z" transform="translate(-126.4 -116.9)" fill="#cae0ed"/>
            </g>
          </g>
          <g id="Grupo_1079726" data-name="Grupo 1079726" transform="translate(31.392 33.635)">
            <g id="Grupo_1079717" data-name="Grupo 1079717">
              <g id="Grupo_1079716" data-name="Grupo 1079716">
                <path id="Trazado_829241" data-name="Trazado 829241" d="M125.243,105.014a1.042,1.042,0,0,1-1.043-1.043V97.443a1.042,1.042,0,0,1,1.043-1.042,1.079,1.079,0,0,1,1.043,1.042v6.529A1.079,1.079,0,0,1,125.243,105.014Z" transform="translate(-124.2 -96.4)" fill="#e96352"/>
              </g>
            </g>
            <g id="Grupo_1079719" data-name="Grupo 1079719" transform="translate(3.841)">
              <g id="Grupo_1079718" data-name="Grupo 1079718">
                <path id="Trazado_829242" data-name="Trazado 829242" d="M132.243,105.014a1.042,1.042,0,0,1-1.043-1.043V97.443a1.043,1.043,0,0,1,2.085,0v6.529A1.042,1.042,0,0,1,132.243,105.014Z" transform="translate(-131.2 -96.4)" fill="#e96352"/>
              </g>
            </g>
            <g id="Grupo_1079721" data-name="Grupo 1079721" transform="translate(7.682)">
              <g id="Grupo_1079720" data-name="Grupo 1079720">
                <path id="Trazado_829243" data-name="Trazado 829243" d="M139.243,105.014a1.042,1.042,0,0,1-1.043-1.043V97.443a1.043,1.043,0,0,1,2.085,0v6.529A1.042,1.042,0,0,1,139.243,105.014Z" transform="translate(-138.2 -96.4)" fill="#e96352"/>
              </g>
            </g>
            <g id="Grupo_1079723" data-name="Grupo 1079723" transform="translate(11.522)">
              <g id="Grupo_1079722" data-name="Grupo 1079722">
                <path id="Trazado_829244" data-name="Trazado 829244" d="M146.243,105.014a1.042,1.042,0,0,1-1.043-1.043V97.443a1.042,1.042,0,0,1,1.043-1.042,1.079,1.079,0,0,1,1.042,1.042v6.529A1.008,1.008,0,0,1,146.243,105.014Z" transform="translate(-145.2 -96.4)" fill="#e96352"/>
              </g>
            </g>
            <g id="Grupo_1079725" data-name="Grupo 1079725" transform="translate(15.363)">
              <g id="Grupo_1079724" data-name="Grupo 1079724">
                <path id="Trazado_829245" data-name="Trazado 829245" d="M153.243,105.014a1.042,1.042,0,0,1-1.043-1.043V97.443a1.043,1.043,0,0,1,2.085,0v6.529A1.008,1.008,0,0,1,153.243,105.014Z" transform="translate(-152.2 -96.4)" fill="#e96352"/>
              </g>
            </g>
          </g>
          <g id="Grupo_1079727" data-name="Grupo 1079727" transform="translate(14.328 111.878)">
            <path id="Trazado_829246" data-name="Trazado 829246" d="M140.177,314.335H95.13a2.038,2.038,0,0,1-2.03-2.085l10.809-71.165a2.168,2.168,0,0,1,2.14-2.085H134.8a2.31,2.31,0,0,1,2.25,2.085L142.1,312.25A1.888,1.888,0,0,1,140.177,314.335Z" transform="translate(-93.1 -239)" fill="#ffcc4d"/>
          </g>
        </g>
        <g id="Grupo_1079729" data-name="Grupo 1079729" transform="translate(27.497 127.57)">
          <rect id="Rectángulo_376606" data-name="Rectángulo 376606" width="26.118" height="6.365" fill="#d6950d"/>
        </g>
        <g id="Grupo_1079730" data-name="Grupo 1079730" transform="translate(27.497 141.342)">
          <rect id="Rectángulo_376607" data-name="Rectángulo 376607" width="26.118" height="6.365" fill="#d6950d"/>
        </g>
        <g id="Grupo_1079731" data-name="Grupo 1079731" transform="translate(18.663 177.556)">
          <rect id="Rectángulo_376608" data-name="Rectángulo 376608" width="40.987" height="4.28" fill="#d6950d"/>
        </g>
        <g id="Grupo_1079732" data-name="Grupo 1079732" transform="translate(45.823 159.175)">
          <path id="Trazado_829247" data-name="Trazado 829247" d="M150.5,332.772c7.682,1.262,6.968,7.572,6.968,7.572h.549s-.713-6.31,6.968-7.572c-7.682-1.262-6.968-7.572-6.968-7.572h-.549S158.182,331.51,150.5,332.772Z" transform="translate(-150.5 -325.2)" fill="#fff"/>
        </g>
        <g id="Grupo_1079733" data-name="Grupo 1079733" transform="translate(21.461 151.603)">
          <path id="Trazado_829248" data-name="Trazado 829248" d="M106.1,315.405c4.06.658,3.676,4.005,3.676,4.005h.274s-.384-3.347,3.676-4.005c-4.06-.658-3.676-4.005-3.676-4.005h-.274S110.16,314.747,106.1,315.405Z" transform="translate(-106.1 -311.4)" fill="#fff"/>
        </g>
      </g>
    </g>
  </g>
</svg>
