<svg xmlns="http://www.w3.org/2000/svg" xmlns:xlink="http://www.w3.org/1999/xlink" width="253" height="209.602" viewBox="0 0 253 209.602">
  <defs>
    <linearGradient id="linear-gradient" y1="0.5" x2="1" y2="0.5" gradientUnits="objectBoundingBox">
      <stop offset="0.425" stop-color="#789401"/>
      <stop offset="0.442" stop-color="#7e9b01"/>
      <stop offset="0.506" stop-color="#8dae01"/>
      <stop offset="0.549" stop-color="#93b501"/>
    </linearGradient>
  </defs>
  <g id="Grupo_1077483" data-name="Grupo 1077483" transform="translate(3572.329 -10635.52)">
    <g id="Grupo_1077270" data-name="Grupo 1077270" transform="translate(-3572.329 10687.916)">
      <path id="Trazado_827279" data-name="Trazado 827279" d="M264.671,147.178l-4.555.169a34.707,34.707,0,0,0-9.053-7.248L177.745,97.768c-16.45-9.5-41.335-10.53-55.584-2.306L21.289,153.7a25.96,25.96,0,0,0-3.813,2.659l-5.806.216V167.6c-.019,6.318,4.592,12.986,13.607,18.19L98.6,228.125c16.45,9.5,41.339,10.53,55.584,2.3l100.87-58.237c6.386-3.686,9.548-8.607,9.615-13.771h0V147.178Z" transform="translate(-11.671 -78.776)" fill="url(#linear-gradient)"/>
      <path id="Trazado_827280" data-name="Trazado 827280" d="M255.051,153.554l-100.87,58.237c-14.245,8.228-39.134,7.2-55.584-2.3L25.278,167.157c-9.016-5.2-13.625-11.873-13.606-18.19V154.6c-.019,6.318,4.592,12.986,13.606,18.19L98.6,215.119c16.45,9.5,41.339,10.53,55.584,2.3l100.87-58.237c6.386-3.686,9.548-8.607,9.615-13.771h0v-5.631h0C264.6,144.947,261.438,149.867,255.051,153.554Z" transform="translate(-11.671 -65.771)" fill="#7a3d23"/>
      <path id="Trazado_827281" data-name="Trazado 827281" d="M255.051,163.357l-100.87,58.237c-14.246,8.228-39.134,7.2-55.584-2.3L25.279,176.96c-16.452-9.5-18.236-23.866-3.99-32.09l100.87-58.24c14.249-8.224,39.134-7.191,55.584,2.306l73.319,42.331C267.514,140.764,269.3,155.133,255.051,163.357Z" transform="translate(-11.671 -81.079)" fill="#a6cc02"/>
    </g>
    <g id="Grupo_1077272" data-name="Grupo 1077272" transform="translate(-3444.44 10635.52)">
      <path id="Trazado_827282" data-name="Trazado 827282" d="M185.185,133.646l2.175-1.256c7.675-4.432,6.7-12.244-2.158-17.362L151.755,95.717c-8.863-5.117-22.395-5.678-30.071-1.247l-2.175,1.256c-7.675,4.432-6.7,12.244,2.158,17.362L155.114,132.4C163.978,137.516,177.51,138.077,185.185,133.646Z" transform="translate(-112.791 -25.97)" fill="#a2b0e0"/>
      <g id="Grupo_1077271" data-name="Grupo 1077271" transform="translate(0 0)">
        <path id="Trazado_827283" data-name="Trazado 827283" d="M205.952,50.185c-.043-1.189-8.463,2.263-9.594,2.9a14.61,14.61,0,0,1-4.773,1.821c-1.526.148-2.066,1.673-3.2,1.968s.314,3.747,1.476,3.739.148-.246,1.23-.492,6.643-1.083,8.611-2.411S206,51.563,205.952,50.185Z" transform="translate(-93.588 -36.802)" fill="#ffefb6"/>
        <path id="Trazado_827284" data-name="Trazado 827284" d="M200.411,51.561a17.454,17.454,0,0,0-2.723,1.223,14.668,14.668,0,0,0-2.564,1.52,21.809,21.809,0,0,0-4.28,4.745c.126-.192,1.393.005,1.64-.035a11.13,11.13,0,0,0,2.389-.485c1.141-.479,2.6-.582,3.68-1.243a13.427,13.427,0,0,0,2.669-2.4,37.826,37.826,0,0,0,2.96-3.666c.121-.166.219-.763.383-.837a27.281,27.281,0,0,1-3.7,1.031C200.711,51.464,200.561,51.51,200.411,51.561Z" transform="translate(-92.84 -36.685)" fill="#fae59b"/>
        <path id="Trazado_827285" data-name="Trazado 827285" d="M177.185,81.314a34.337,34.337,0,0,1-1.2,7.16c-.417,1.786-4.047,4.984-4.047,4.984a23.486,23.486,0,0,1-.5,4.724l-.445,1.232a8.015,8.015,0,0,1,0,4.476c-.736,2.165-1.575,2.708-2.015,4.526a34.428,34.428,0,0,0-.347,8.168,64.673,64.673,0,0,0,1.37,6.609c.039.15.059.232.059.232a12.43,12.43,0,0,1,1.083,3.346c0,1.031-.59.787-.59.787l-1.181-1.035s.492,1.87.243,1.921a4.52,4.52,0,0,1-2.118-.044,6.664,6.664,0,0,1-1.276-.449c-1.894-.874-2.216-.74-2.756-1.921a4.646,4.646,0,0,1-.366-2.255c.015-.315.052-.6.071-.842.059-.751,1.039-.983.961-1.673s-1.354-1.527-1.452-3.051,1.334-3.051,1.452-5.464.76-4.624.417-6.444a13.064,13.064,0,0,1,.54-4.774s-2.361-2.755-1.476-9.053a92.443,92.443,0,0,1,1.8-9.541c1.2-4.728,2.936-9.065,5.381-9.845C174.973,71.76,177.185,81.314,177.185,81.314Z" transform="translate(-100.187 -30.8)" fill="#fae59b"/>
        <path id="Trazado_827286" data-name="Trazado 827286" d="M172.107,84.614a4.449,4.449,0,0,1-.477,1.241,44.909,44.909,0,0,0-3.5,9.5,5.054,5.054,0,0,0-.208,1.8,13.225,13.225,0,0,1,.224,1.3c.024,1.035-.751,1.885-1.339,2.743a4.266,4.266,0,0,0-.874,2.634,2.175,2.175,0,0,0,1.657,2.031,1.8,1.8,0,0,0-1.59,1.452,17.974,17.974,0,0,0-.236,2.307,14.408,14.408,0,0,1-1.236,3.476,5.4,5.4,0,0,0-.453,3.6,2.345,2.345,0,0,0,2.849,1.657c.217,1.326-.878,2.46-1.527,3.637a1.242,1.242,0,0,0-.208.818,1.393,1.393,0,0,0,.386.629,6.018,6.018,0,0,1,1.85,2.6c.028.145.047.291.063.44a6.664,6.664,0,0,1-1.276-.449c-1.894-.874-2.216-.74-2.756-1.921a4.647,4.647,0,0,1-.366-2.255c.015-.315.052-.6.071-.842.059-.751,1.039-.983.961-1.673s-1.354-1.527-1.452-3.051,1.334-3.051,1.452-5.464.76-4.624.417-6.444a13.064,13.064,0,0,1,.54-4.774s-2.361-2.755-1.476-9.053a92.449,92.449,0,0,1,1.8-9.541,11.422,11.422,0,0,1,4.023-.669,2.228,2.228,0,0,1,1.043.2,2.1,2.1,0,0,1,.751.85,7.617,7.617,0,0,1,.783,1.984A3.19,3.19,0,0,1,172.107,84.614Z" transform="translate(-100.187 -28.876)" fill="#f0d773"/>
        <path id="Trazado_827287" data-name="Trazado 827287" d="M171.049,116.379c0,1.031-.59.787-.59.787l-1.181-1.035s.492,1.87.245,1.921a5.1,5.1,0,0,1-3.393-.492c-1.894-.874-2.216-.74-2.756-1.921a4.649,4.649,0,0,1-.366-2.255,10.268,10.268,0,0,0,2.208.681,3.1,3.1,0,0,0,2.756-.3c.26-.24.449-.575.768-.724.276-.126.551-.035.818-.111a2.1,2.1,0,0,0,.351-.134c.039.15.059.232.059.232A12.44,12.44,0,0,1,171.049,116.379Z" transform="translate(-100.101 -20.411)" fill="#33373b"/>
        <path id="Trazado_827288" data-name="Trazado 827288" d="M142.751,109.208l-.657.92-.917-1.512v1.9a3.668,3.668,0,0,1-1.855.263,3.114,3.114,0,0,1-.933-.263c-1.413-.657-3.381-1.248-3.775-2.5a5.58,5.58,0,0,1-.189-1.567c-.015-1.133.126-2.424.126-3.287,0-1.311-1.181-1.575-1.181-2.886a20.7,20.7,0,0,0-.787-4s.166-8.413-1.212-10.511a12.411,12.411,0,0,1-2.228-6.429c.035-1.011-1.378-5.3-2.6-9.794a41.11,41.11,0,0,1-1.732-9.168c0-5.314,12.793,6.629,12.793,6.629,0,.1,0,.193.008.291.154,5.893,1.154,10.45-.008,13.616a28.9,28.9,0,0,0-.925,2.9,4.479,4.479,0,0,0-.193,1.13s-.037,9.892,1.145,12.058,1.575.985,2.232,3.216c.319,1.087,1.011,3.248,1.638,5.177C142.164,107.429,142.751,109.208,142.751,109.208Z" transform="translate(-110.057 -34.434)" fill="#f0d773"/>
        <path id="Trazado_827289" data-name="Trazado 827289" d="M138.964,109.12a3.113,3.113,0,0,1-.933-.264c-1.413-.657-3.381-1.248-3.775-2.5a5.578,5.578,0,0,1-.189-1.567c-.015-1.133.126-2.424.126-3.287,0-1.311-1.181-1.575-1.181-2.886a20.7,20.7,0,0,0-.787-4s.166-8.413-1.212-10.511a12.411,12.411,0,0,1-2.228-6.429c.035-1.011-1.378-5.3-2.6-9.794a15.861,15.861,0,0,0,1.432-1.012,4.647,4.647,0,0,1,3.231-.924,18.136,18.136,0,0,0,3.326-.284,7.2,7.2,0,0,1,2.385-.217,3.048,3.048,0,0,1,.692.189,4.1,4.1,0,0,1,1.723,1.346,8.18,8.18,0,0,1,1.256,2.637,18.781,18.781,0,0,1,.811,5.984,9.342,9.342,0,0,1-.516,3.066,4.68,4.68,0,0,1-1.9,2.4c-.729.432-1.6.614-2.3,1.083a2.51,2.51,0,0,0-.217.154,5.023,5.023,0,0,0-1.567,4.869c1.051,3.582-.367,7.571.685,11.156a3.453,3.453,0,0,0,.437,1.048c.5.72,1.523,1.04,1.814,1.866a4.959,4.959,0,0,1-.015,1.751,5.444,5.444,0,0,0,.252,1.476q.609,2.262,1.22,4.524C138.944,109.033,138.953,109.077,138.964,109.12Z" transform="translate(-109.699 -32.768)" fill="#f0d773"/>
        <path id="Trazado_827290" data-name="Trazado 827290" d="M124.287,45.224c-3.5-2.257-11.63,4.677-11.158,9.037s3.257,2.174,8.195-1.224S124.287,45.224,124.287,45.224Z" transform="translate(-113.109 -38.146)" fill="#fae59b"/>
        <path id="Trazado_827291" data-name="Trazado 827291" d="M124.022,45.244c-3.5-2.257-10.348,3.065-9.875,7.426s3.257,2.174,8.195-1.224S124.022,45.244,124.022,45.244Z" transform="translate(-112.845 -38.166)" fill="#ffefb6"/>
        <path id="Trazado_827292" data-name="Trazado 827292" d="M140.764,99.615l-.657.922-.918-1.512v1.9a3.558,3.558,0,0,1-2.788,0c-1.413-.657-3.381-1.248-3.775-2.5a5.58,5.58,0,0,1-.189-1.567,4.741,4.741,0,0,0,1.779.516,12.31,12.31,0,0,0,3.125-.236,3.973,3.973,0,0,0,1.716-.859,1.1,1.1,0,0,0,.091-.078,3.913,3.913,0,0,0,.366-.406C140.178,97.835,140.764,99.615,140.764,99.615Z" transform="translate(-108.069 -24.842)" fill="#33373b"/>
        <path id="Trazado_827293" data-name="Trazado 827293" d="M202.636,79.074c.787,1.046,1.8,5.707-3.413,7.38s-6.889,1.4-9.447,4-2.854,3.287-3.248,5.058-2.263,4.429-3.346,6-6.3,2.361-7.972,2.854-11.809-3.248-15.351-4.034-11.022-1.925-19.19-8.589-10.628-8.927-12.4-10.4a48.125,48.125,0,0,1-4.429-4.672c-2.751-3.231-5.8-7.388-6.5-10.285-1.181-4.921-1.87-7.97-1.28-11.12s2.558-7.479,6.4-9.25,11.25-3.269,16.564-2.088,6.692,1.28,8.463,2.953,5.9,6.2,9.447,8.365,7.251,2.885,12.368,3.149S178.1,60.094,180,61.6s3.936,2.1,5.184,1.838,12.99-5.359,16.4-4.635,10.1,20.468,10.1,20.468Z" transform="translate(-112.394 -38.481)" fill="#ffefb6"/>
        <path id="Trazado_827294" data-name="Trazado 827294" d="M200.983,75.4c.787,1.046,1.8,5.707-3.413,7.38s-6.889,1.4-9.447,4-2.854,3.287-3.248,5.058-2.263,4.429-3.346,6-6.3,2.361-7.972,2.854-11.809-3.248-15.351-4.034-11.021-1.925-19.19-8.589-10.628-8.927-12.4-10.4a48.129,48.129,0,0,1-4.429-4.672,35.684,35.684,0,0,1,1.5-8.966c.508-1.558,1.41-4.318,2.9-5.652a2.6,2.6,0,0,1,3.181-.4A7.959,7.959,0,0,1,133.11,61.9a7.864,7.864,0,0,0,1.849,2.625,1.045,1.045,0,0,1,.393.567c.035.3-.213.555-.417.779-1.386,1.5-1.606,3.712-1.756,5.755a10.455,10.455,0,0,0,.169,3.656,10.427,10.427,0,0,0,1.172,2.382c1.6,2.645,3.326,5.416,6.065,6.853,3.409,1.786,6.653,2.118,10.447,2.614a1.939,1.939,0,0,0,.985-.039,1.917,1.917,0,0,0,.669-.551,35.3,35.3,0,0,1,3.531-3.669c.968-.807,3.1-2.621,4.42-2.365a3.177,3.177,0,0,1,1.362.775c1.5,1.232,3.22,4.066,5.318,3.043,1.256-.614,1.523-.653,2.311.378.862,1.133,3.007,3.657,4.6,3.448,1.547-.208,3.424-2.063,4.527-3.079,2.845-2.626,5.14-5.9,8.5-7.939,3.531-2.137,7.735-2.81,11.832-3.307a9.605,9.605,0,0,1,4.172.122,5.074,5.074,0,0,1,2.244,1.543Z" transform="translate(-110.742 -34.804)" fill="#fae59b"/>
        <path id="Trazado_827295" data-name="Trazado 827295" d="M203.33,87.68a2.347,2.347,0,0,1-.653,1.768,7.81,7.81,0,0,1-.855.831c-.992.846-3.283.985-5.314.456a7.162,7.162,0,0,1-3.413-2.295s-2.558-.523-3.149-1.248a14.776,14.776,0,0,0-1.508-1.508s-3.523-1.2-5.535-1.649a8.388,8.388,0,0,1-5.29-3.795,33.831,33.831,0,0,1-3.062-8.258c-.173-.7-.315-1.373-.417-1.976-.523-3.149,2.165-6.826,3.149-8.99s1.89-3.586,4.35-4.22a10.975,10.975,0,0,0,4.838-2.406c1.181-.983,5.77,1.051,5.77,1.051l2.558,4.329.922,2.1s2.886,2.165,3.212,3.61.067,3.476.33,5.77,1.7,8.4,2.885,9.71a7.594,7.594,0,0,1,2.1,3.806C204.578,86.276,203.33,86.855,203.33,87.68Z" transform="translate(-97.215 -35.711)" fill="#ffefb6"/>
        <path id="Trazado_827296" data-name="Trazado 827296" d="M189.45,69.814a9.775,9.775,0,0,0-2.083-1.862c-1.891-1.145-4.28-1.459-5.987.137a.23.23,0,0,0-.072.333,10.472,10.472,0,0,0,1.225,2.191,4.729,4.729,0,0,0,1.341,1.236c.483.248,1.019.145,1.32.691a1.109,1.109,0,0,1,.026,1.116c-.2.263-2.721.851-1.027,1.435a34.693,34.693,0,0,1,6.065,2.77q1.415.819,2.747,1.768c.671.478,1.684,1.654,2.465,1.807.343-.739-.356-2.021-.75-2.66-.527-.856-1.2-1.61-1.773-2.437a12.149,12.149,0,0,1-1.246-2.288c-.29-.7-.189-1.505-.464-2.15A9.553,9.553,0,0,0,189.45,69.814Z" transform="translate(-95.338 -32.356)" fill="#fae59b"/>
        <path id="Trazado_827297" data-name="Trazado 827297" d="M202.577,85.759a7.807,7.807,0,0,1-.855.831c-.992.846-3.283.985-5.314.456A7.161,7.161,0,0,1,193,84.752s-2.558-.523-3.149-1.248A14.775,14.775,0,0,0,188.338,82s-3.523-1.2-5.535-1.649a8.388,8.388,0,0,1-5.29-3.795,33.829,33.829,0,0,1-3.062-8.258l.078-.024a34.28,34.28,0,0,0,3.424,6.108,10.256,10.256,0,0,0,3.921,3.567c2.153.909,4.693.559,6.774,1.728,2.335,1.307,4.472,3.554,7.046,4.35a1.52,1.52,0,0,0,.354.071c1.382.115,1.9-1.834,3.433-1.81,1.078.02,3.094,1.122,3.185,2.263A3.783,3.783,0,0,1,202.577,85.759Z" transform="translate(-97.114 -32.022)" fill="#fae59b"/>
        <path id="Trazado_827298" data-name="Trazado 827298" d="M186.776,70.008a5.151,5.151,0,0,0-2.607-2.022c-1.033-.39-2.656.546-2.656.546s1.476,1.919,2.312,2.116A8,8,0,0,0,186.776,70.008Z" transform="translate(-95.273 -32.121)" fill="#33373b"/>
        <path id="Trazado_827299" data-name="Trazado 827299" d="M181.565,39.519a8.144,8.144,0,0,0,0,3.936,8.136,8.136,0,0,1,1.526,4.329C183.042,50,184.2,59.445,184.2,59.445a10.1,10.1,0,0,0,3.863.639c1.727-.179,1.657-1.1,1.657-1.1s-3.772-13.414-4.657-15.137A24.767,24.767,0,0,0,181.565,39.519Z" transform="translate(-95.328 -39.519)" fill="#f2dd8b"/>
        <path id="Trazado_827300" data-name="Trazado 827300" d="M162,48.312c.688,1.034,5.363,1.673,8.808,3.789s8.892,4.85,9.447,6.248,1.083,3.1,1.427,3.739,2.214.541,4.28,0,2.165-1.23,2.116-1.87-3.051-4.517-3.051-4.517-2.706-3.307-10.284-5.914S162,48.312,162,48.312Z" transform="translate(-100.362 -37.29)" fill="#f2dd8b"/>
        <path id="Trazado_827301" data-name="Trazado 827301" d="M198.677,76.361c-.59.344-.688,2.214-.688,2.214s-.836,1.526-1.821,1.329-1.919-1.329-2.756-.738a1.456,1.456,0,0,0-.344,2.361c.787.934,1.427,1.821,1.427,1.821a1.45,1.45,0,0,1-1.624.688c-1.083-.3.2,1.537,2.361,1.212s3.4-1.359,3.444-1.949.1-2.107.1-2.107,1.473-1.239.981-2.666A7.811,7.811,0,0,0,198.677,76.361Z" transform="translate(-92.414 -29.912)" fill="#33373b"/>
        <path id="Trazado_827302" data-name="Trazado 827302" d="M196.118,83.367a3.655,3.655,0,0,1-3.641-.443c-1.476-1.083-.443-1.673-2.805-3.149s-2.46,0-2.9,0,.2,1.4,1.624,1.773,1.771,1.722,2.461,2.116,4.428,1.832,5.9.866S196.118,83.367,196.118,83.367Z" transform="translate(-93.939 -29.193)" fill="#33373b"/>
        <path id="Trazado_827303" data-name="Trazado 827303" d="M161.953,138.8c-.439.4-1.626-1.417-1.626-1.417l.209,1.706s.1.407-1.582.421a3.768,3.768,0,0,1-1.62-.5h0a17.089,17.089,0,0,1-2.985-2.133,13.981,13.981,0,0,1,.292-3.072,2.906,2.906,0,0,1,.14-.444c.479-1.188,1.015-1.572.731-2.593s-1.459-3.427-1.2-5.33a61.013,61.013,0,0,0-.057-7.181l-.425-.64c-.425-.64-.85-5.653-.85-5.653a7.445,7.445,0,0,0-1.039-3.744c-1.155-2.107-.988-4.86-1.5-6.234s-1.8-2.9-2.282-4.474.214-4.994.743-6.782-1.392-8.4-.57-10.493c.46-1.165.4-5.662.478-9.863.063-3.323.217-6.459.779-7.62,1.278-2.632,1.983-5.458,5.318-3.971a17.822,17.822,0,0,1,7.8,7.721,20.1,20.1,0,0,1,1.368,5.955,21.385,21.385,0,0,1-.61,8.249c-1.507,4.722.661,7.2,1.515,9.452s2.151,5.272.72,7.491-3.451,2.4-3.849,3.8c0,0-.156,1.286-.488,3.871s-1.5,5.53-1.557,6.513-.044,5.388-.711,7.394.063,5.749.751,7.606.322,4.292.557,5.11.8.88,1.3,2.129c.006.016.013.029.019.045a6.9,6.9,0,0,1,.337,1.376C162.272,136.87,162.271,138.509,161.953,138.8Z" transform="translate(-104.012 -34.604)" fill="#ffefb6"/>
        <path id="Trazado_827304" data-name="Trazado 827304" d="M160.488,132.583a8.961,8.961,0,0,0-.611-1.033,13.528,13.528,0,0,1-1.256-1.915,8.1,8.1,0,0,1-.519-2.337,77.548,77.548,0,0,0-1.891-9.778c-.374.021-.745.044-1.116.068a2.053,2.053,0,0,0-.373-1.653,5.2,5.2,0,0,0,2.443-2.346c.589-1.144.417-2.25.6-3.482a1.329,1.329,0,0,0,0-.614,1.645,1.645,0,0,0-.323-.483,4.105,4.105,0,0,1-.64-2.137,3.87,3.87,0,0,1,.706-3.2c.456-.449,1.106-.663,1.563-1.112a3.4,3.4,0,0,0,.482-3.456c-.412-.611-.75-.311-1.183.061a2.474,2.474,0,0,1-1.712.842c-.3,0-.6-.062-.9-.055a2.083,2.083,0,0,0-1.74,1.025,13.355,13.355,0,0,1,1.436-3.64,9.357,9.357,0,0,1,1.188-1.66c1.272-1.377,3.018-2.394,4.044-3.988a4.089,4.089,0,0,0,.644-2.127,17.321,17.321,0,0,1-.018-2.583,6.7,6.7,0,0,0-.485-2.829,10.821,10.821,0,0,1-.319-3.812c.1-1.205.523-2.4.509-3.6a22.967,22.967,0,0,1,1.489-7.194,21.384,21.384,0,0,1-.61,8.249c-1.507,4.722.661,7.2,1.515,9.452s2.151,5.272.72,7.491-3.451,2.4-3.849,3.8c0,0-.156,1.286-.488,3.87s-1.5,5.53-1.557,6.513-.044,5.388-.711,7.394.063,5.749.751,7.606.322,4.292.557,5.11.8.88,1.3,2.129c.006.016.013.029.019.045A7.093,7.093,0,0,1,160.488,132.583Z" transform="translate(-102.442 -31.69)" fill="#fae59b"/>
        <path id="Trazado_827305" data-name="Trazado 827305" d="M157.116,134.575a8.234,8.234,0,0,0,.214,1.952,17.088,17.088,0,0,1-2.985-2.133,13.982,13.982,0,0,1,.292-3.072,2.907,2.907,0,0,1,.14-.444c.479-1.188,1.015-1.572.731-2.593s-1.459-3.427-1.2-5.33a61.013,61.013,0,0,0-.057-7.181l-.425-.64c-.425-.64-.85-5.653-.85-5.653a7.445,7.445,0,0,0-1.039-3.744c-1.155-2.107-.988-4.86-1.5-6.234s-1.8-2.9-2.282-4.474.214-4.994.743-6.782-1.392-8.4-.57-10.493c.46-1.165.4-5.662.478-9.863a73.628,73.628,0,0,1,.439,7.781,23.187,23.187,0,0,0,.306,4.793c.021.1.042.2.067.289.362,1.473,1.586,2.7,1.668,4.226.083,1.589-1.063,2.949-1.607,4.445a10.064,10.064,0,0,0-.074,5.421,5.45,5.45,0,0,0,.86,2.24,5.061,5.061,0,0,0,2.94,1.756c1.263.107,3.014-.842,4.091-1.417-.107.8-.213,1.589-.324,2.384a1.711,1.711,0,0,1-.257.823c-.441.589-1.357.386-2.064.59a2.437,2.437,0,0,0-1.541,2.278,9.515,9.515,0,0,0,.524,2.873,18.875,18.875,0,0,1,.506,2.649,1.693,1.693,0,0,0,.2.73c.359.553,1.212.469,1.751.854a3.857,3.857,0,0,0-1.862,3.265,1.512,1.512,0,0,0,.859,1.528,1.8,1.8,0,0,0,.855-.029c.445-.086.886-.176,1.331-.262a.738.738,0,0,1,.431,0,.592.592,0,0,1,.252.269,2.051,2.051,0,0,1-.222,1.916,16.885,16.885,0,0,0-1.054,1.71,6.516,6.516,0,0,0-.306,1.971,18.432,18.432,0,0,0-.271,2.651,13.136,13.136,0,0,0,.387,2.363c.2.905.408,1.807.61,2.712a7.359,7.359,0,0,0,1.478,3.5A2.43,2.43,0,0,0,157.116,134.575Z" transform="translate(-104.012 -32.122)" fill="#fae59b"/>
        <path id="Trazado_827306" data-name="Trazado 827306" d="M160.642,123.2c-.439.4-1.626-1.417-1.626-1.417l.209,1.706s.1.407-1.582.421-4.611-2.631-4.611-2.631a13.98,13.98,0,0,1,.292-3.072,5.663,5.663,0,0,0,2.253,1.193,5.748,5.748,0,0,0,3.306-.137,3.612,3.612,0,0,0,1.493-.763.222.222,0,0,0,.014-.023c.006.016.013.029.019.045C160.914,119.808,161.082,122.8,160.642,123.2Z" transform="translate(-102.7 -19.002)" fill="#33373b"/>
        <path id="Trazado_827307" data-name="Trazado 827307" d="M132.56,116.874a2.526,2.526,0,0,1-.343,1.209.316.316,0,0,1-.315.106c-.59-.134-1.378-1.118-1.378-1.118l.13,1.771-1.311-.063a9.478,9.478,0,0,1-2.788-.874c-1.169-.532-2.228-1.2-2.33-1.684-.173-.818.429-1.894.564-2.673v0a1.356,1.356,0,0,0,.028-.276,8.218,8.218,0,0,0-1.051-3.346c-.787-1.708,0-1.968,0-3.543s-.967-10.549-.967-10.549a3.9,3.9,0,0,0-.764-2.257c-.787-.985-1.181-2.428-2.1-4.2s.787-3.936.787-3.936a9.911,9.911,0,0,0,.2-2.688,26.842,26.842,0,0,0-1.558-8.069c-1.1-2.693-2.7-12.4-3.346-14.368s-1.456-5.054.217-7.022a5.12,5.12,0,0,1,1.137-1c1.618-1.043,3.76-1.169,6.11-1.169a7.1,7.1,0,0,1,4.133.657c2.1,1.051,2.5,1.508,3.019,6.3.039.366.074.716.106,1.055a28.949,28.949,0,0,1-.236,8.916c-.527,3.019,1.311,6.889.985,10.5a38.684,38.684,0,0,1-2.5,9.317,7.1,7.1,0,0,1-2.165,2.953c-.653.72-.3,9.129.683,12.03s2.165,4.121,2.232,5.475a43.325,43.325,0,0,0,1.428,5.806v0c.011.035.015.052.015.052Z" transform="translate(-112.554 -36.511)" fill="#ffefb6"/>
        <path id="Trazado_827308" data-name="Trazado 827308" d="M130.869,115.2a2.525,2.525,0,0,1-.343,1.209c-.441-1.016-.831-2.051-1.178-3.1a6.812,6.812,0,0,0-.937-2.111,2.077,2.077,0,0,0-2.016-.874c-.33.078-.63.267-.961.354a.817.817,0,0,1-.918-.26c-.287-.484.291-1.015.788-1.283.425-.228.846-.456,1.267-.685.319-.169.673-.4.709-.755a1.146,1.146,0,0,0-.154-.575c-2.157-4.582-1.262-9.845-2.2-14.825a3.6,3.6,0,0,0-.414-1.3,1.2,1.2,0,0,0-1.154-.6c-.492.095-.9.6-1.386.477-.653-.169.146-2.341.339-2.634.453-.688,1.22-1.232,1.74-1.909a21.048,21.048,0,0,0,2.984-5.455,17.13,17.13,0,0,0,1.2-6.425c-.095-1.677-.8-3.279-.905-4.967a26.1,26.1,0,0,1,.7-5c.284-2.055.287-4.062.449-6.125.032-.374.158-.838.527-.894a.088.088,0,0,1,.032,0,28.948,28.948,0,0,1-.236,8.916c-.527,3.019,1.311,6.889.985,10.5a38.685,38.685,0,0,1-2.5,9.317,7.1,7.1,0,0,1-2.165,2.953c-.653.72-.3,9.129.683,12.03s2.165,4.121,2.232,5.475a43.326,43.326,0,0,0,1.428,5.806v0c.011.035.015.052.015.052Z" transform="translate(-110.863 -34.84)" fill="#fae59b"/>
        <path id="Trazado_827309" data-name="Trazado 827309" d="M128.863,110.587a.641.641,0,0,1-.354.449,6.359,6.359,0,0,1-1.937.449,2.553,2.553,0,0,0-.432.134,1.379,1.379,0,0,0-.988,1.07,2.013,2.013,0,0,0,.137.756q.325,1,.649,2.015a7.968,7.968,0,0,1,.634,1.964,2.235,2.235,0,0,1-.015.224c-1.169-.532-2.228-1.2-2.33-1.684-.173-.818.429-1.894.564-2.673v0a1.358,1.358,0,0,0,.028-.276,8.218,8.218,0,0,0-1.051-3.346c-.787-1.708,0-1.968,0-3.543s-.967-10.549-.967-10.549a3.9,3.9,0,0,0-.764-2.257c-.787-.985-1.181-2.428-2.1-4.2s.787-3.936.787-3.936a9.911,9.911,0,0,0,.2-2.688,26.842,26.842,0,0,0-1.558-8.069c-1.1-2.693-2.7-12.4-3.346-14.368s-1.456-5.054.217-7.022a5.121,5.121,0,0,1,1.137-1q-.3.643-.618,1.276a5.529,5.529,0,0,0-.61,1.571,5.1,5.1,0,0,0,.26,2.137c.653,2.378,2.031,5.038,2.011,7.507a29.443,29.443,0,0,0,.988,6.648c.536,2.4,1.834,4.476,2.35,6.881a21.1,21.1,0,0,1-.13,8.439c-.106.567-.642,1.2-.417,1.768.276.681,1.716,1.169,2.366,1.346a2.206,2.206,0,0,0,.429.071,2.959,2.959,0,0,1,.948.176.6.6,0,0,1,.371.673.8.8,0,0,1-.224.3c-.473.453-.941.909-1.41,1.362l-.071.071a.8.8,0,0,0-.232.358.966.966,0,0,0,.1.586c.768,1.944.387,2.437.876,4.468a26.263,26.263,0,0,1,.788,6.692c-.083,1.213-.523,2.441-.2,3.61a1.172,1.172,0,0,0,.228.469,1.568,1.568,0,0,0,.76.371,8.857,8.857,0,0,1,2.322,1.055,2.321,2.321,0,0,1,.2.13C128.658,110.146,128.883,110.339,128.863,110.587Z" transform="translate(-112.554 -36.254)" fill="#fae59b"/>
        <path id="Trazado_827310" data-name="Trazado 827310" d="M130.707,103.948s-.067,1.445-.657,1.315-1.378-1.118-1.378-1.118l.13,1.771-1.311-.063c-1.311-.067-4.921-1.642-5.117-2.558-.173-.818.429-1.894.564-2.673a4.807,4.807,0,0,0,2.346,1.435,3.974,3.974,0,0,0,3.409-.4,4.852,4.852,0,0,0,.622-.453c.011.035.015.05.015.05Z" transform="translate(-110.702 -23.586)" fill="#33373b"/>
        <path id="Trazado_827311" data-name="Trazado 827311" d="M180.669,61.1c-.738.738-1.987.97-2.509.246s-.985-1.132-1.722-.492a16,16,0,0,1-4.133,2.558,3.306,3.306,0,0,0-1.821,1.329,1.861,1.861,0,0,0,.541,2.509c1.427,1.229,2.263,1.968,3.3,1.329s1.181-1.427,1.821-1.821,1.821,1.083,2.805.59,1.23-2.46,1.23-2.46a8.192,8.192,0,0,0,1.28-1.919C181.7,62.233,180.669,61.1,180.669,61.1Z" transform="translate(-98.22 -34.039)" fill="#ffefb6"/>
        <path id="Trazado_827312" data-name="Trazado 827312" d="M175.775,62.151c-1.113.9-2.617,2.258-4.11,2.177a1.3,1.3,0,0,0-.48.026.775.775,0,0,0-.451.456,1.583,1.583,0,0,0,.434,1.741,9.167,9.167,0,0,0,1.35,1.118c.938.773,1.725.89,2.5-.231a2.285,2.285,0,0,1,1.046-1c.91-.3,1.792.686,2.746.619a.219.219,0,0,0,.1-.025c.73-.455.89-2.261.8-3a1.617,1.617,0,0,0-.511.305.649.649,0,0,1-.557.148.727.727,0,0,1-.345-.342,3.66,3.66,0,0,1-.53-1.111c-.066-.358.088-.652-.166-.993C177.191,61.489,176.2,61.808,175.775,62.151Z" transform="translate(-98.114 -33.725)" fill="#fae59b"/>
      </g>
    </g>
    <g id="Grupo_1077275" data-name="Grupo 1077275" transform="translate(-3472.222 10708.865)">
      <path id="Trazado_827313" data-name="Trazado 827313" d="M162.225,171.582l2.185-1.261c7.708-4.45,6.732-12.3-2.169-17.434L128.655,133.5c-8.9-5.139-22.489-5.7-30.2-1.252L96.273,133.5c-7.708,4.45-6.732,12.3,2.168,17.434l33.586,19.392C140.928,175.469,154.516,176.032,162.225,171.582Z" transform="translate(-91.074 -89.47)" fill="#c1c8e0"/>
      <g id="Grupo_1077274" data-name="Grupo 1077274" transform="translate(0.84 0)">
        <path id="Trazado_827314" data-name="Trazado 827314" d="M100.524,103.734a3.7,3.7,0,0,1-1.088,3.051,4.4,4.4,0,0,1-2.988,1.7,2.707,2.707,0,0,1-2.867-2.079,3.394,3.394,0,0,1,.018-1.843,3.158,3.158,0,0,1,1.083-1.505,3.845,3.845,0,0,1,1.643-.743,1.29,1.29,0,0,1,1.17.39,1.528,1.528,0,0,1,.373,1.06,2.713,2.713,0,0,1-.731,1.71,4.375,4.375,0,0,1-1.4,1.041,4.261,4.261,0,0,1-1.693.325,2.548,2.548,0,0,1-1.7-.6,2.021,2.021,0,0,1-.594-1.7,2.936,2.936,0,0,1,.622-1.519c.029,1.064-.135,2.133.475,2.66a2.785,2.785,0,0,0,4.038-1.916c-.034-.376-.169-.478-.387-.432a3.216,3.216,0,0,0-1.156.57,2,2,0,0,0-.709,2.216,1.678,1.678,0,0,0,1.752,1.3,3.394,3.394,0,0,0,2.286-1.294A16.727,16.727,0,0,1,100.524,103.734Z" transform="translate(-91.74 -96.496)" fill="#ff919e"/>
        <path id="Trazado_827315" data-name="Trazado 827315" d="M119.773,142.94c-.434.29-1.59,0-1.59,0s.434.507-.507.867-3.394-.615-3.394-.615-.2-.126-.485-.316a11.925,11.925,0,0,1-1.824-1.417,5.9,5.9,0,0,1-1.374-2.817c-.073-.937.867-3.393.867-3.709a25.8,25.8,0,0,0-1.118-3.042c-.6-1.586-.542-3.974-.615-6.1,0,0,3.684.178,4.082,2.059s1.876,9.317,1.984,9.569a11.081,11.081,0,0,0,1.842,1.915,2.46,2.46,0,0,1,.208.182,19.314,19.314,0,0,1,1.561,2.054S120.206,142.649,119.773,142.94Z" transform="translate(-87.048 -90.37)" fill="#f75466"/>
        <path id="Trazado_827316" data-name="Trazado 827316" d="M118.932,140.131c-.434.29-1.59,0-1.59,0s.434.507-.507.867-3.394-.615-3.394-.615-.2-.126-.485-.316a3.5,3.5,0,0,1,.251-1.357,1.327,1.327,0,0,1,1.183-.828c.226.009.437.1.663.112a.515.515,0,0,0,.555-.29c.147-.46-.2-.811.395-1.075a1.453,1.453,0,0,1,1,.073,19.314,19.314,0,0,1,1.561,2.054S119.366,139.839,118.932,140.131Z" transform="translate(-86.207 -87.561)" fill="#33373b"/>
        <path id="Trazado_827317" data-name="Trazado 827317" d="M168.351,138.336c-1.948,3.722-6.313,5.942-10.861,7.248A103.3,103.3,0,0,0,145.8,149.71c-.348.021-.968.076-1.785.131-2.775.163-7.814.185-11.721-1.992-.348-.2-.707-.381-1.067-.566-.925-.468-1.85-.871-2.753-1.229a63.886,63.886,0,0,0-8.827-2.535c-1.621-.425-6.879-3.636-10.905-6.661a34.93,34.93,0,0,1-3.6-3.014c-.054-.054-.108-.1-.153-.153a27.143,27.143,0,0,1-3.9-5.855,61.028,61.028,0,0,1-4.549-10.971,2.306,2.306,0,0,1-.054-.272c-.914-3.755-.1-6.344.054-8.042a1.186,1.186,0,0,1,.021-.174.387.387,0,0,1,.021-.076,10.827,10.827,0,0,1,3.668-5.1c.011-.01.021-.021.033-.033a27.2,27.2,0,0,1,9.177-4.718c7.88-1.948,16.259.146,26.3,3.476s16.782,8.613,22.54,13.131c9.675,7.6,8.914,8.114,10.5,9.279S173.182,129.009,168.351,138.336Z" transform="translate(-90.612 -97.696)" fill="#ff8795"/>
        <path id="Trazado_827318" data-name="Trazado 827318" d="M145.034,159.04c-.576.5-1.984-.217-1.984-.217s.5,1.335-.615,1.478-1.95-.325-3.826-1.191c-.151-.069-.29-.142-.42-.213-1.439-.811-1.314-1.664-1.314-1.664a7.5,7.5,0,0,1-1.669-2.2c-.368-1.014,1.019-4.481,1.019-4.481s-.507-1.625-.905-3.5.4-5.092,0-6.835c0,0,1.664-7.069,3.649-5.373s1.876,12.823,1.876,12.823l2.059,6.427.663,1.062,1.543,2.479S145.611,158.534,145.034,159.04Z" transform="translate(-80.422 -88.079)" fill="#ff5c6f"/>
        <path id="Trazado_827319" data-name="Trazado 827319" d="M144.4,154.785c-.576.5-1.984-.217-1.984-.217s.5,1.335-.615,1.478-1.95-.325-3.826-1.191c-.151-.069-.29-.142-.42-.213a1.548,1.548,0,0,0,.217-.048c.5-.153.715-.715,1.031-1.127a2.182,2.182,0,0,1,1.591-.845,1.177,1.177,0,0,0,.91-.464,7.02,7.02,0,0,1,.477-.528,3.806,3.806,0,0,1,1.152-.732l1.543,2.479S144.981,154.278,144.4,154.785Z" transform="translate(-79.792 -83.823)" fill="#33373b"/>
        <path id="Trazado_827320" data-name="Trazado 827320" d="M109.093,134.664c-.153,1.741-3.134,5.551-3.178,6.367-.033.87,1.088,7.694,1.088,7.694s.272.773.5,1.546a7.266,7.266,0,0,1,.327,1.339,8.41,8.41,0,0,1-.251,2.1.534.534,0,0,1-.066.1.717.717,0,0,1-.838.327c-.315-.087-.773-.674-1.143-1.208-.282-.435-.522-.837-.576-.936l.425,1.567s.7,1.024-.021,1.328a1.337,1.337,0,0,1-.522.087,2.807,2.807,0,0,1-1.644-.729,6.493,6.493,0,0,1-.632-.566,8.56,8.56,0,0,1-.9-1.067s-.087-.327-.207-.794c-.185-.751-.456-1.894-.588-2.7a38.332,38.332,0,0,1,0-4.189,42.345,42.345,0,0,0-1.165-4.865c-.218-.817.435-3.656,0-6.04s-1.654-4.409-2.885-6.867c-.9-1.829-1.621-8.044-1.926-11.667-.108-1.262-.174-2.22-.174-2.558,0-1.208,1.938-6.106,2.2-6.748a.388.388,0,0,1,.021-.076s.207.064.545.207a6.6,6.6,0,0,1,2.3,1.708c1.23,1.447,2.46,6,3.9,8.446A27.059,27.059,0,0,1,105.956,123l.011.011c.425,1.708.773,3.461,1.034,4.952,0,0,.338.893.751,2.046a34.059,34.059,0,0,1,1.339,4.342A.966.966,0,0,1,109.093,134.664Z" transform="translate(-90.964 -95.502)" fill="#ff8795"/>
        <path id="Trazado_827321" data-name="Trazado 827321" d="M102.562,154.733a8.559,8.559,0,0,1-.9-1.067s-.087-.327-.207-.794c-.185-.751-.456-1.894-.588-2.7a38.328,38.328,0,0,1,0-4.189,42.344,42.344,0,0,0-1.165-4.865c-.218-.817.435-3.656,0-6.04s-1.654-4.409-2.885-6.867c-.9-1.829-1.621-8.044-1.926-11.667-.108-1.262-.174-2.22-.174-2.558a13.981,13.981,0,0,1,5.888-11.928,14.916,14.916,0,0,0-3.124,5.312A20.978,20.978,0,0,0,96.11,115.6c.141,1.752.381,3.559.6,5.431.783,6.966,3.033,6.355,3.969,9.959s-.294,7.575,0,9.24c2.1,4.114-.458,6.7,1.229,8.815S103.836,152.175,102.562,154.733Z" transform="translate(-90.964 -96.558)" fill="#ff5c6f"/>
        <g id="Grupo_1077273" data-name="Grupo 1077273" transform="translate(12.752 24.469)">
          <path id="Trazado_827322" data-name="Trazado 827322" d="M137.375,141.567a16.246,16.246,0,0,1,.021,2.917,1.438,1.438,0,0,1-.021.217,5.594,5.594,0,0,1-.272,1.154c-.174.577-.425,1.111-.707,1.894,0,0-3.928,6.682-4.255,7.553a57.544,57.544,0,0,0-.533,6.5s.98,1.524,1.546,2.634a5.459,5.459,0,0,1,.371.87,8.449,8.449,0,0,0,.294.893c.261.719.62,1.567.871,2.133.087.218.164.4.207.512.218.545.609,2.46-.512,2.319a3.366,3.366,0,0,1-1.872-1.415c.066.141,1.154,2.166.359,2.307a.594.594,0,0,1-.141.021,1.38,1.38,0,0,1-.359-.021,7.01,7.01,0,0,1-3.113-1.372,5.277,5.277,0,0,1-1.48-2.568c-.054-.174-.076-.284-.076-.284a5.15,5.15,0,0,1-1.546-2.025c-.251-.968.576-3.178.794-4.473s-.719-5.692-1.012-7.346-4.255-5.5-4.473-8.173a32.258,32.258,0,0,1,.392-5.115,53.513,53.513,0,0,0,.7-9.251,17.026,17.026,0,0,1,.294-4.158c.653-3.831,2.079-8.086,2.655-8.782.827-.991,5.2,1.175,5.2,1.175a34.377,34.377,0,0,1,4.582,7.356c.272.555.533,1.144.806,1.764a18.067,18.067,0,0,1,1.328,4.55C137.9,136.6,137.189,138.943,137.375,141.567Z" transform="translate(-96.746 -116.807)" fill="#ff8795"/>
          <path id="Trazado_827323" data-name="Trazado 827323" d="M137.476,172.349a7.01,7.01,0,0,1-3.113-1.372,5.277,5.277,0,0,1-1.48-2.568c-.054-.174-.076-.284-.076-.284a5.15,5.15,0,0,1-1.546-2.025c-.251-.968.576-3.178.794-4.473s-.719-5.692-1.012-7.346-4.255-5.5-4.473-8.173a32.262,32.262,0,0,1,.392-5.115,63.886,63.886,0,0,0-8.827-2.535c-1.621-.425-6.879-3.636-10.906-6.661-.153,1.741-3.134,5.551-3.178,6.367-.033.87,1.088,7.694,1.088,7.694s.272.773.5,1.546a7.266,7.266,0,0,1,.327,1.339,8.41,8.41,0,0,1-.251,2.1.533.533,0,0,1-.066.1.717.717,0,0,1-.838.327c-.315-.087-.876-2.664-1.247-3.2a5.462,5.462,0,0,0,.2-6.076c-.588-.62-2.361-3.337-.642-5.231,1.175-1.3.7-4.967.5-7.982a17.85,17.85,0,0,0-.838-4.375c-1.567-4.832-.686-7.3-.686-7.3a11.375,11.375,0,0,0,1.992,3.026l.011.011c6.334,5.746,1.684,5.759,5.3,8.665s14.576,7.757,18.547-1.22c3.178,2.895,5.714,7.509,3.265,11.514a15.3,15.3,0,0,0-1.5,3.124c-.893,2.709-.378,7.054,1.156,9.046,2.112,2.742,2.659.743,2.351,8.653-.311,8-.468,5.506,1.85,8.7C136.053,169.986,136.6,170.085,137.476,172.349Z" transform="translate(-101.854 -117.104)" fill="#ff5c6f"/>
        </g>
        <path id="Trazado_827324" data-name="Trazado 827324" d="M175.756,149.854a9.044,9.044,0,0,1-1.088,3.1c-.458.762-1.969,2.655-2.96,2.873-.305.066-.6.12-.848.163-.489.076-.816.1-.816.1a5.4,5.4,0,0,0-2.013-.729c-1.447-.282-8.815-2.59-8.815-2.59a16.745,16.745,0,0,0-5.344,0,25.777,25.777,0,0,1-7.934-.674,3.269,3.269,0,0,1-3.559.284c-2.319-.937-7.3-3.8-8.173-5.746-.044-.087-.077-.174-.12-.272a13.78,13.78,0,0,1-.458-1.339,18.245,18.245,0,0,1-.587-5.692c.021-.7.077-1.447.164-2.232a6.944,6.944,0,0,1,1.2-3.243,11.9,11.9,0,0,1,1.208-1.491c1.556-1.676,3.548-3.265,4.962-5.986a18.307,18.307,0,0,1,11.918-8.805l3.026-1.034s.46-.246.46-.234c1.72,2.079,7.877,3.108,10.391,6.775s4.908,10.438,4.843,11.667a42.059,42.059,0,0,0,.935,7c.4,1.926,3.918,4.342,4.495,4.723-.033,0,0,.12.338.707C177.552,148.188,175.756,149.854,175.756,149.854Z" transform="translate(-80.975 -92.844)" fill="#ff8795"/>
        <path id="Trazado_827325" data-name="Trazado 827325" d="M171.964,154.4c-.489.076-.816.1-.816.1a5.4,5.4,0,0,0-2.013-.729c-1.447-.282-8.815-2.59-8.815-2.59a16.744,16.744,0,0,0-5.344,0,25.776,25.776,0,0,1-7.934-.675,3.269,3.269,0,0,1-3.559.284c-2.319-.937-7.3-3.8-8.173-5.747-.044-.087-.077-.174-.12-.272-.174.577-.425,1.111-.707,1.894,0,0-3.928,6.682-4.255,7.553a57.54,57.54,0,0,0-.533,6.5s.98,1.524,1.546,2.634a5.453,5.453,0,0,1,.371.87,8.468,8.468,0,0,0,.294.893c.261.719.62,1.567.871,2.133-.848-.576-.939-.474-.981-.935-.406-4.5-3.733-4.249-2.834-6.3.635-1.451,1.159-8.412.364-10.012s-1-.556,1.491-5.1a8.351,8.351,0,0,0,.642-1.48c1.2-3.7-1.1-6.247.783-10.1,1.643-3.352,1.067-4.179,1.132-7.358a27.551,27.551,0,0,1,.284-3.559c2.655,2.46,3.167,5.192,3.059,8.38-.066,1.8-.327,3.744-.522,5.876a7.773,7.773,0,0,0,1.948,6.247,18.049,18.049,0,0,0,6.672,4.092,14.315,14.315,0,0,0,12.515-.5c3.331-1.839,7.891,1.633,13.126,5.376C170.452,151.868,171.061,152.837,171.964,154.4Z" transform="translate(-82.08 -91.256)" fill="#ff5c6f"/>
        <path id="Trazado_827326" data-name="Trazado 827326" d="M133.077,161.237a3.337,3.337,0,0,1-1.876-1.408c.069.142,1.152,2.167.359,2.31a6.057,6.057,0,0,1-3.61-1.374,5.282,5.282,0,0,1-1.483-2.569,2.143,2.143,0,0,0,1.712.043,2.5,2.5,0,0,0,1.014-.935.7.7,0,0,1,.229-.251.549.549,0,0,1,.373-.021,7.562,7.562,0,0,0,1.243.3,1.628,1.628,0,0,0,1.417-.914.517.517,0,0,0,.052-.13c.359.983.914,2.245,1.075,2.644C133.8,159.464,134.194,161.379,133.077,161.237Z" transform="translate(-82.684 -82.42)" fill="#33373b"/>
        <path id="Trazado_827327" data-name="Trazado 827327" d="M152.359,128.757a4.726,4.726,0,0,0-1.325-2.282l-2.76-.85a18.138,18.138,0,0,0-4.192,2.68c-1.372,1.377-1.836,1.28-1.846,2.694a4.282,4.282,0,0,0,1.171,3.222,2.983,2.983,0,0,0,3.05,1.14,7.97,7.97,0,0,0,2.063-.574,1.719,1.719,0,0,0,1.943-.859c.642-1.214,2.081-1.63,2.119-2.793A11.267,11.267,0,0,0,152.359,128.757Z" transform="translate(-78.573 -90.413)" fill="#ff8795"/>
        <path id="Trazado_827328" data-name="Trazado 827328" d="M151.264,129.452c.2.146.352.4.588.427a.33.33,0,0,0,.328-.221,1.734,1.734,0,0,0-.005-1.053,3.226,3.226,0,0,0-1.387-2.271,2.313,2.313,0,0,0-2.527.24,13.826,13.826,0,0,0-1.491,1.8,13.123,13.123,0,0,1-2.622,1.928,2.584,2.584,0,0,0-1.16,1.265c-.28.9.35,1.987.956,2.944a2.106,2.106,0,0,0,.586.678,1.417,1.417,0,0,0,1.078.168,3.644,3.644,0,0,0,.9-.4,8.571,8.571,0,0,1,3.072-.937c.148-.12.087-.373-.074-.542a1.639,1.639,0,0,0-.614-.354,7.985,7.985,0,0,0-1.271-.364.92.92,0,0,1-.478-.19.6.6,0,0,1-.151-.416,5.482,5.482,0,0,1,.719-3.158,5.067,5.067,0,0,1,.541,1.049,3.885,3.885,0,0,0,.337,1.165c.222.379,1.5,1.618,1.954,1.292.4-.285-.263-1.491-.373-1.89C150.027,130.106,150.337,128.784,151.264,129.452Z" transform="translate(-78.394 -90.299)" fill="#ff5c6f"/>
        <path id="Trazado_827329" data-name="Trazado 827329" d="M172.644,117.1a6.474,6.474,0,0,0-2.962-.213s-4.515,1.048-5.995,1.662-3.473,2.4-4.478,2.419-1.662.072-1.662.072a13.662,13.662,0,0,0,2.059,2.419c1.285,1.193,1.439,4.35,1.734,4.009a20.674,20.674,0,0,0,2.059-3.178c.434-.975,4.044-3.973,5.346-4.8s3.936-1.083,4.189-1.517S172.644,117.1,172.644,117.1Z" transform="translate(-74.58 -92.714)" fill="#ff8795"/>
        <path id="Trazado_827330" data-name="Trazado 827330" d="M167.687,140.189c-1.156.217-2.888,2.3-3.717,3.5a29.056,29.056,0,0,0-2.513,3.381,1.777,1.777,0,0,0,.489,2.447c.811.64,1.36.623,2.683.151a6.668,6.668,0,0,0,3.278-2.712c.734-1.189,1.345-2.489,1.844-3.287a2.785,2.785,0,0,0,0-2.944C169.132,139.7,167.687,140.189,167.687,140.189Z" transform="translate(-73.632 -86.646)" fill="#ff5c6f"/>
        <path id="Trazado_827331" data-name="Trazado 827331" d="M165.059,144.291a5.078,5.078,0,0,1-1.9,1.788s.271.948.785.542,1.842-1.788,1.571-2.194S165.059,144.291,165.059,144.291Z" transform="translate(-73.116 -85.569)" fill="#33373b"/>
        <path id="Trazado_827332" data-name="Trazado 827332" d="M167.211,142.421a3.694,3.694,0,0,0-1.246,2.547c.108.352.393.434.617-.108a10.539,10.539,0,0,0,.277-1.659A8.188,8.188,0,0,0,167.211,142.421Z" transform="translate(-72.388 -86.034)" fill="#33373b"/>
        <path id="Trazado_827333" data-name="Trazado 827333" d="M156.392,134.673a2.8,2.8,0,0,0-.836-.616,2.144,2.144,0,0,0-.952-.348,2.52,2.52,0,0,0-1.428.669,7.368,7.368,0,0,1-2.692,1.184,16.4,16.4,0,0,0,2.118.252,1.628,1.628,0,0,0,.693-.069c.184-.074.337-.209.517-.292C154.294,135.232,157.8,136.388,156.392,134.673Z" transform="translate(-76.422 -88.306)" fill="#ff5c6f"/>
        <path id="Trazado_827334" data-name="Trazado 827334" d="M156.029,134.952c-.523-.361-.6-1.3-1.933-.939a2.609,2.609,0,0,0-1.734,1.589,2.2,2.2,0,0,0,1.77.469A6.11,6.11,0,0,0,156.029,134.952Z" transform="translate(-75.932 -88.247)" fill="#33373b"/>
        <path id="Trazado_827335" data-name="Trazado 827335" d="M106.187,144.623a.781.781,0,0,1-.9.434c-.615-.182-1.734-2.167-1.734-2.167l.434,1.59s.975,1.408-.542,1.408-3.181-2.358-3.181-2.358-.082-.325-.2-.8a3.441,3.441,0,0,1,.425-.88,1.9,1.9,0,0,1,1.9-.876,6.881,6.881,0,0,1,1.383.775.659.659,0,0,0,.489.1c.187-.061.3-.243.425-.386a1.247,1.247,0,0,1,1.4-.3c.013.009.03.013.044.021a7.982,7.982,0,0,1,.32,1.339A8.484,8.484,0,0,1,106.187,144.623Z" transform="translate(-89.57 -86.42)" fill="#33373b"/>
      </g>
    </g>
    <g id="Grupo_1077482" data-name="Grupo 1077482" transform="translate(-3551.011 10694.979)">
      <g id="Grupo_1077481" data-name="Grupo 1077481" transform="translate(0 1.286)">
        <path id="Trazado_827709" data-name="Trazado 827709" d="M99.731,173.791l2.185-1.261c7.708-4.45,6.732-12.3-2.168-17.434L66.161,135.7c-8.9-5.139-22.489-5.7-30.2-1.252l-2.185,1.261c-7.708,4.45-6.732,12.3,2.168,17.434l33.586,19.392C78.434,177.678,92.022,178.241,99.731,173.791Z" transform="translate(-28.58 -76.293)" fill="#c1c8e0"/>
        <g id="Grupo_1077480" data-name="Grupo 1077480" transform="translate(4.251)">
          <path id="Trazado_827710" data-name="Trazado 827710" d="M83.542,152.974a2.786,2.786,0,1,1-2.786-2.786A2.786,2.786,0,0,1,83.542,152.974Z" transform="translate(-19.952 -71.407)" fill="#ebcc7a"/>
          <circle id="Elipse_6210" data-name="Elipse 6210" cx="2.786" cy="2.786" r="2.786" transform="translate(57.839 75.334)" fill="#ebcc7a"/>
          <path id="Trazado_827711" data-name="Trazado 827711" d="M83.628,150.24a2.786,2.786,0,0,1-2.786,2.786c-1.538,0-.344-1.393-.344-2.933s-1.194-2.64.344-2.64A2.787,2.787,0,0,1,83.628,150.24Z" transform="translate(-19.408 -72.12)" fill="#f5da93"/>
          <circle id="Elipse_6211" data-name="Elipse 6211" cx="2.786" cy="2.786" r="2.786" transform="translate(59.608 77.974)" fill="#f5da93"/>
          <path id="Trazado_827712" data-name="Trazado 827712" d="M84.042,147.447a2.786,2.786,0,1,1-2.786-2.786A2.786,2.786,0,0,1,84.042,147.447Z" transform="translate(-19.821 -72.849)" fill="#f5da93"/>
          <circle id="Elipse_6212" data-name="Elipse 6212" cx="2.786" cy="2.786" r="2.786" transform="translate(59.523 67.262)" fill="#f5da93"/>
          <path id="Trazado_827713" data-name="Trazado 827713" d="M83.182,147.447a2.786,2.786,0,1,1-2.786-2.786A2.786,2.786,0,0,1,83.182,147.447Z" transform="translate(-20.046 -72.849)" fill="#ebcc7a"/>
          <circle id="Elipse_6213" data-name="Elipse 6213" cx="2.786" cy="2.786" r="2.786" transform="translate(56.736 67.852)" fill="#ebcc7a"/>
          <path id="Trazado_827714" data-name="Trazado 827714" d="M77.972,146.218c1.266,2.384,1.659,8.307,1.659,8.307s-.434,2.6-.468,3.684,1.3,3.393,1.3,3.393l-.039.174-.286,1.234.073,1.625a9.027,9.027,0,0,0,1.01,1.191,4.706,4.706,0,0,0,2.114.715c.5.082.884.117.884.117s.286-.793.359-1.049,1.915-.251,1.915-.251-.182-1.842-.325-2.817a4.87,4.87,0,0,0-.238-.811c-.5-1.348-1.613-3.579-2.075-4.534-.576-1.191-.325-8.815.434-10.149s2.493-2.093,4.611-4.013,1.422-3.138,2.288-6.136l-2.041-1.833L85.393,131.7l-4.932-4.425L79,130.269,76.2,136S76.708,143.834,77.972,146.218Z" transform="translate(-20.413 -77.381)" fill="#f5da93"/>
          <path id="Trazado_827715" data-name="Trazado 827715" d="M77.973,145.6c1.266,2.384,1.659,8.307,1.659,8.307s-.434,2.6-.468,3.684,1.3,3.393,1.3,3.393l-.039.174-.286,1.234.073,1.625a9.025,9.025,0,0,0,1.01,1.191,4.706,4.706,0,0,0,2.114.715,5.423,5.423,0,0,0-.958-2.514,4.08,4.08,0,0,1-.043-2.5.923.923,0,0,0-.013-.564.834.834,0,0,0-.329-.329c-.646-.412-1.452-.646-1.872-1.282a2.657,2.657,0,0,1,.082-2.493,7.9,7.9,0,0,0,.932-2.418,6.031,6.031,0,0,0-.373-2.167,17.716,17.716,0,0,1-.572-3.225c.681.151,1.287-.429,1.746-.953q1.254-1.437,2.509-2.878a37.38,37.38,0,0,0,3.485-4.416c1.075-1.682,1.894-3.762,1.252-5.651a.675.675,0,0,0-.035-.091,6.383,6.383,0,0,0-3.753-3.364c-.242-.1-.489-.2-.732-.286a20.222,20.222,0,0,0-5.249-1.123c-.139-.013-.272-.021-.411-.025l-2.8,5.729C76.205,135.381,76.708,143.216,77.973,145.6Z" transform="translate(-20.413 -76.763)" fill="#ebcc7a"/>
          <path id="Trazado_827716" data-name="Trazado 827716" d="M79.326,155.886l.074,1.625a9.119,9.119,0,0,0,1.01,1.191c.615.615,3,.832,3,.832s.286-.793.359-1.049,1.915-.251,1.915-.251-.183-1.842-.325-2.816a4.873,4.873,0,0,0-.238-.811,1.025,1.025,0,0,1-.338.151c-.4.087-.823-.112-1.218-.013a2.484,2.484,0,0,0-.736.429,2.53,2.53,0,0,1-3.216-.524Z" transform="translate(-19.598 -70.255)" fill="#33373b"/>
          <path id="Trazado_827717" data-name="Trazado 827717" d="M46.9,135.576l1.677,5.252-.087.352-.507,2.089.651,2.6a11.581,11.581,0,0,0,2.886,1.323,1.625,1.625,0,0,0,.443.03.736.736,0,0,0,.732-.975s1.95.057,2.059-.16a25.4,25.4,0,0,0-.434-3.2,15.04,15.04,0,0,0-.884-1.295,3.733,3.733,0,0,0-.741-.763c-.651-.434-1.46-4.386-1.46-4.386s.018-.489.057-1.2c.052-1,.144-2.427.269-3.567.1-.88.316-2.587.533-4.486.272-2.315.542-4.918.6-6.674l-2.869-5.69s-.494,1.222-1.1,2.822a47.148,47.148,0,0,0-2.15,6.712C46.223,126.718,46.9,135.576,46.9,135.576Z" transform="translate(-28.164 -80.627)" fill="#ebcc7a"/>
          <path id="Trazado_827718" data-name="Trazado 827718" d="M52.463,134.236a2.786,2.786,0,1,1-2.785-2.786A2.786,2.786,0,0,1,52.463,134.236Z" transform="translate(-28.055 -76.293)" fill="#ebcc7a"/>
          <path id="Trazado_827719" data-name="Trazado 827719" d="M51.9,131.567a2.786,2.786,0,1,1-2.785-2.786A2.786,2.786,0,0,1,51.9,131.567Z" transform="translate(-28.202 -76.989)" fill="#ebcc7a"/>
          <path id="Trazado_827720" data-name="Trazado 827720" d="M51.509,128.821a2.786,2.786,0,1,1-2.785-2.786A2.786,2.786,0,0,1,51.509,128.821Z" transform="translate(-28.304 -77.705)" fill="#ebcc7a"/>
          <circle id="Elipse_6214" data-name="Elipse 6214" cx="2.786" cy="2.786" r="2.786" transform="translate(18.044 46.697)" fill="#ebcc7a"/>
          <circle id="Elipse_6215" data-name="Elipse 6215" cx="2.786" cy="2.786" r="2.786" transform="translate(20.829 49.005)" fill="#ebcc7a"/>
          <circle id="Elipse_6216" data-name="Elipse 6216" cx="2.786" cy="2.786" r="2.786" transform="translate(23.981 50.726)" fill="#f5da93"/>
          <path id="Trazado_827721" data-name="Trazado 827721" d="M46.9,134.993l1.677,5.252-.087.352-.507,2.089.651,2.6a11.58,11.58,0,0,0,2.886,1.323c-.429-1.686-1.543-3.246-1.522-5,0-.576.139-1.149.1-1.721-.126-1.942-2.141-3.515-1.855-5.439,1.028.039,2.176.615,3.047.208.052-1,.144-2.427.269-3.567.1-.88.316-2.587.533-4.486a19.945,19.945,0,0,1,.238-3.367c.338-2.02.013-4.468-1.959-5.469a10.36,10.36,0,0,0-1.647-.706,47.15,47.15,0,0,0-2.15,6.712C46.223,126.135,46.9,134.993,46.9,134.993Z" transform="translate(-28.164 -80.044)" fill="#ebcc7a"/>
          <circle id="Elipse_6217" data-name="Elipse 6217" cx="2.786" cy="2.786" r="2.786" transform="translate(21.196 49.005)" fill="#f5da93"/>
          <circle id="Elipse_6218" data-name="Elipse 6218" cx="2.786" cy="2.786" r="2.786" transform="translate(18.311 46.944)" fill="#f5da93"/>
          <circle id="Elipse_6219" data-name="Elipse 6219" cx="2.786" cy="2.786" r="2.786" transform="translate(27.254 52.517)" fill="#f5da93"/>
          <path id="Trazado_827722" data-name="Trazado 827722" d="M61.35,133.316a2.786,2.786,0,1,1-2.786-2.786A2.786,2.786,0,0,1,61.35,133.316Z" transform="translate(-25.738 -76.533)" fill="#f5da93"/>
          <circle id="Elipse_6220" data-name="Elipse 6220" cx="2.786" cy="2.786" r="2.786" transform="translate(33.388 55.157)" fill="#f5da93"/>
          <circle id="Elipse_6221" data-name="Elipse 6221" cx="2.786" cy="2.786" r="2.786" transform="translate(36.175 58.585)" fill="#f5da93"/>
          <path id="Trazado_827723" data-name="Trazado 827723" d="M66.779,139.584a2.786,2.786,0,1,1-2.786-2.786A2.786,2.786,0,0,1,66.779,139.584Z" transform="translate(-24.323 -74.899)" fill="#f5da93"/>
          <path id="Trazado_827724" data-name="Trazado 827724" d="M67.559,141.894a2.786,2.786,0,1,1-2.785-2.786A2.786,2.786,0,0,1,67.559,141.894Z" transform="translate(-24.119 -74.297)" fill="#f5da93"/>
          <circle id="Elipse_6222" data-name="Elipse 6222" cx="2.786" cy="2.786" r="2.786" transform="translate(38.96 67.596)" fill="#f5da93"/>
          <path id="Trazado_827725" data-name="Trazado 827725" d="M69.254,146.822a2.786,2.786,0,1,1-2.786-2.785A2.786,2.786,0,0,1,69.254,146.822Z" transform="translate(-23.677 -73.011)" fill="#f5da93"/>
          <path id="Trazado_827726" data-name="Trazado 827726" d="M69.769,150.009a2.786,2.786,0,1,1-2.786-2.786A2.786,2.786,0,0,1,69.769,150.009Z" transform="translate(-23.543 -72.181)" fill="#f5da93"/>
          <circle id="Elipse_6223" data-name="Elipse 6223" cx="2.786" cy="2.786" r="2.786" transform="translate(41.448 78.431)" fill="#f5da93"/>
          <circle id="Elipse_6224" data-name="Elipse 6224" cx="2.786" cy="2.786" r="2.786" transform="translate(42.455 81.567)" fill="#f5da93"/>
          <path id="Trazado_827727" data-name="Trazado 827727" d="M71.669,152.219a2.786,2.786,0,1,1-2.785-2.786A2.786,2.786,0,0,1,71.669,152.219Z" transform="translate(-23.047 -71.604)" fill="#f5da93"/>
          <path id="Trazado_827728" data-name="Trazado 827728" d="M72.357,149.344a2.786,2.786,0,1,1-2.785-2.786A2.786,2.786,0,0,1,72.357,149.344Z" transform="translate(-22.868 -72.354)" fill="#f5da93"/>
          <circle id="Elipse_6225" data-name="Elipse 6225" cx="2.786" cy="2.786" r="2.786" transform="translate(45.437 70.383)" fill="#f5da93"/>
          <path id="Trazado_827729" data-name="Trazado 827729" d="M75.144,144.782A2.786,2.786,0,1,1,72.357,142,2.786,2.786,0,0,1,75.144,144.782Z" transform="translate(-22.142 -73.544)" fill="#f5da93"/>
          <path id="Trazado_827730" data-name="Trazado 827730" d="M77.073,142.4a2.786,2.786,0,1,1-2.786-2.786A2.786,2.786,0,0,1,77.073,142.4Z" transform="translate(-21.639 -74.164)" fill="#f5da93"/>
          <path id="Trazado_827731" data-name="Trazado 827731" d="M80.4,142.205a2.786,2.786,0,1,1-2.786-2.786A2.786,2.786,0,0,1,80.4,142.205Z" transform="translate(-20.771 -74.215)" fill="#f5da93"/>
          <path id="Trazado_827732" data-name="Trazado 827732" d="M83.15,141.7a2.786,2.786,0,1,1-2.786-2.786A2.786,2.786,0,0,1,83.15,141.7Z" transform="translate(-20.053 -74.347)" fill="#f5da93"/>
          <path id="Trazado_827733" data-name="Trazado 827733" d="M86.088,140.719a2.786,2.786,0,1,1-2.786-2.786A2.786,2.786,0,0,1,86.088,140.719Z" transform="translate(-19.287 -74.603)" fill="#f5da93"/>
          <circle id="Elipse_6226" data-name="Elipse 6226" cx="2.786" cy="2.786" r="2.786" transform="translate(64.499 61.371)" fill="#f5da93"/>
          <circle id="Elipse_6227" data-name="Elipse 6227" cx="2.786" cy="2.786" r="2.786" transform="translate(66.8 58.288)" fill="#f5da93"/>
          <circle id="Elipse_6228" data-name="Elipse 6228" cx="2.786" cy="2.786" r="2.786" transform="translate(68.997 55.502)" fill="#f5da93"/>
          <path id="Trazado_827734" data-name="Trazado 827734" d="M93.876,131.729a2.786,2.786,0,1,1-2.786-2.786A2.786,2.786,0,0,1,93.876,131.729Z" transform="translate(-17.257 -76.947)" fill="#f5da93"/>
          <circle id="Elipse_6229" data-name="Elipse 6229" cx="2.786" cy="2.786" r="2.786" transform="translate(71.991 48.017)" fill="#f5da93"/>
          <circle id="Elipse_6230" data-name="Elipse 6230" cx="2.786" cy="2.786" r="2.786" transform="translate(73.024 44.595)" fill="#f5da93"/>
          <circle id="Elipse_6231" data-name="Elipse 6231" cx="2.786" cy="2.786" r="2.786" transform="translate(73.559 41.361)" fill="#f5da93"/>
          <path id="Trazado_827735" data-name="Trazado 827735" d="M96.444,120.844a2.786,2.786,0,1,1-2.786-2.786A2.785,2.785,0,0,1,96.444,120.844Z" transform="translate(-16.588 -79.785)" fill="#f5da93"/>
          <path id="Trazado_827736" data-name="Trazado 827736" d="M96.835,118.1a2.786,2.786,0,1,1-2.786-2.786A2.786,2.786,0,0,1,96.835,118.1Z" transform="translate(-16.486 -80.502)" fill="#f5da93"/>
          <circle id="Elipse_6232" data-name="Elipse 6232" cx="2.786" cy="2.786" r="2.786" transform="translate(42.652 84.353)" fill="#f5da93"/>
          <circle id="Elipse_6233" data-name="Elipse 6233" cx="2.786" cy="2.786" r="2.786" transform="translate(42.455 86.493)" fill="#f5da93"/>
          <path id="Trazado_827737" data-name="Trazado 827737" d="M47.675,137.82l.651,2.6s2.327,1.46,3.328,1.352a.735.735,0,0,0,.732-.975s1.95.057,2.059-.16a25.4,25.4,0,0,0-.434-3.2,15.173,15.173,0,0,0-.884-1.3,1.956,1.956,0,0,0-1.287.2c-.174.121-.3.29-.468.416a1.817,1.817,0,0,1-1.984-.178c-.377-.238-.78-.6-1.2-.854Z" transform="translate(-27.851 -75.177)" fill="#33373b"/>
          <path id="Trazado_827738" data-name="Trazado 827738" d="M34.119,117.087a42.618,42.618,0,0,0,1.357,6.687L48.91,135.041c.975,1.191,11.05,10.618,16.143,11.484s8.559,1.3,8.559,1.3,6.609,6.717,10.293,8.342,10.618.217,13.326-1.3a10.265,10.265,0,0,0,.889-.571c2.77-1.984,6.852-6.669,9.187-13.187.581-1.625,1.088-3.337,1.526-5.044a79.284,79.284,0,0,0,2.267-14.023c.073-1.906-4.164-8.966-7.923-13.534-1.8-2.189-3.485-3.8-4.537-4.018-3.25-.651,3.6-4.215,1.321-3.781s-8.868,1.17-11.143,1.5-6.067-1.3-10.184-4.118-6.5-6.392-14.734-8.451-8.885-1.517-12.352-.325-12.281,3.262-16.073,12.8C33.5,107.089,33.582,112.784,34.119,117.087Z" transform="translate(-31.472 -87.557)" fill="#fff0c5"/>
          <path id="Trazado_827739" data-name="Trazado 827739" d="M89.379,143.541c-1.369,2.244-3.193,4.251-4.395,6.566,2.77-1.984,6.852-6.669,9.187-13.187.581-1.625,1.088-3.337,1.526-5.044a79.284,79.284,0,0,0,2.267-14.023c.073-1.906-4.164-8.966-7.923-13.534a22.943,22.943,0,0,0-3,.62,3.976,3.976,0,0,0-2.864,3.865,6.413,6.413,0,0,0,1,3.826,17.466,17.466,0,0,1,2.089,3.172,4.413,4.413,0,0,0,.421.953,3.578,3.578,0,0,0,.832.78,15.57,15.57,0,0,0,5.551,3.094,3.526,3.526,0,0,1,1.348.473c.758.572.646,1.821.5,2.639-.2,1.131-.373,2.249-.551,3.4A58.109,58.109,0,0,1,93.46,134.9a21.28,21.28,0,0,1-1.794,5.071c-.286.464-.706.806-1.01,1.252C90.168,141.943,89.839,142.791,89.379,143.541Z" transform="translate(-18.337 -83.368)" fill="#f5da93"/>
          <path id="Trazado_827740" data-name="Trazado 827740" d="M34.051,111.972a42.618,42.618,0,0,0,1.357,6.687l13.435,11.267c.975,1.191,11.05,10.618,16.143,11.484s8.559,1.3,8.559,1.3,6.609,6.717,10.293,8.342,10.618.217,13.326-1.3,7.476-6.5,10.076-13.76c.581-1.625,1.088-3.337,1.526-5.044a78.7,78.7,0,0,1-4.819,8.8c-2.08,2.951-5.044,5.521-8.616,6.093a15.5,15.5,0,0,1-6.843-.78c-2.518-.754-5.062-2.007-6.089-4.573-1.118-2.808-1.227-5.746-3.147-8.255-1.746-2.288-4.932-3.748-7.58-2.614-2.37,1.019-3.524,3.64-5.044,5.725a3.993,3.993,0,0,1-1.278,1.234,3.687,3.687,0,0,1-1.586.347,9.776,9.776,0,0,1-5.4-1.378,17.172,17.172,0,0,1-4.88-4.988,13.294,13.294,0,0,1-2.722-5.716c-.178-1.3,0-2.626-.226-3.917-.512-2.982-2.9-5.083-4.893-7.155-1.5-1.568-2.393-3.662-4-5.14-2.137-1.963-3.4.308-5.153,1.76A13.63,13.63,0,0,1,34.051,111.972Z" transform="translate(-31.403 -82.442)" fill="#f5da93"/>
          <path id="Trazado_827741" data-name="Trazado 827741" d="M78.767,111.059s3.519.434,5.309,1.95c.13.113.251.213.364.3,1.417,1.143,1.426.759,2.128,1.863.759,1.191,3.467,4.715,6.067,5.634a25.766,25.766,0,0,0,5.469.862s3.2,2.66,5.526,3.038a2.213,2.213,0,0,0,2.692-1.7c.013-.052.018-.082.018-.082a5.679,5.679,0,0,0,1.248-1.625c.434-.923-.217-2.656-.217-3.307a2.219,2.219,0,0,0-1.191-1.894c-.814-.434-3.723-7.167-3.792-7.315-1.049-2.237.784-2.991.7-4.333a11.4,11.4,0,0,0-6.011-8.559c-4.824-2.708-6.067-2.167-8.342-1.734s-5.581,2.817-8.017,6.392-2.817,4.009-3.09,6.067A8.349,8.349,0,0,0,78.767,111.059Z" transform="translate(-20.05 -86.11)" fill="#fff0c5"/>
          <circle id="Elipse_6234" data-name="Elipse 6234" cx="2.786" cy="2.786" r="2.786" transform="translate(70.303 6.493)" fill="#fff0c5"/>
          <circle id="Elipse_6235" data-name="Elipse 6235" cx="2.786" cy="2.786" r="2.786" transform="translate(73.948 8.035)" fill="#fff0c5"/>
          <circle id="Elipse_6236" data-name="Elipse 6236" cx="2.786" cy="2.786" r="2.786" transform="translate(76.263 10.174)" fill="#fff0c5"/>
          <circle id="Elipse_6237" data-name="Elipse 6237" cx="2.786" cy="2.786" r="2.786" transform="translate(79.272 12.961)" fill="#fff0c5"/>
          <path id="Trazado_827742" data-name="Trazado 827742" d="M100.224,101.681A2.786,2.786,0,1,1,97.437,98.9,2.786,2.786,0,0,1,100.224,101.681Z" transform="translate(-15.602 -84.782)" fill="#fff0c5"/>
          <path id="Trazado_827743" data-name="Trazado 827743" d="M88.027,103.71a4.123,4.123,0,0,1,.751.334,38.691,38.691,0,0,1,6,3.928,1.55,1.55,0,0,1-1.913.668c-.715-.207-1.333-.674-2.049-.877-1.339-.379-2.732.216-4.091.521a.782.782,0,0,1-.392.018.814.814,0,0,1-.427-.484,5.241,5.241,0,0,1-.64-2.079A2.056,2.056,0,0,1,88.027,103.71Z" transform="translate(-18.048 -83.554)" fill="#f5da93"/>
          <path id="Trazado_827744" data-name="Trazado 827744" d="M79.689,108.6a7.068,7.068,0,0,0,3.133-.234c.676-.334.923-1.157,1.469-1.682a9.419,9.419,0,0,0-.4,4.936c1.417,1.143,1.426.759,2.128,1.863.759,1.191,3.467,4.715,6.067,5.634a25.768,25.768,0,0,0,5.469.862s3.2,2.66,5.526,3.038a2.213,2.213,0,0,0,2.692-1.7c-1.036-.251-2.626-.066-3.238-.2-1.486-.308-2.015-2.024-3.367-2.418a5.154,5.154,0,0,0-.629-.142c-1.547-.265-3.185.03-4.667-.55a6.172,6.172,0,0,1-1.652-1.036,6.033,6.033,0,0,1-.871-.85,8.363,8.363,0,0,1-.672-1.019q-.838-1.443-1.686-2.877a2.5,2.5,0,0,0-.551-.724,7.21,7.21,0,0,0-1.23-.576A2.665,2.665,0,0,1,86,108.4a6.691,6.691,0,0,1,.681-2.206,6.055,6.055,0,0,0,.334-1.812,5.089,5.089,0,0,0-.759-3.645,1.166,1.166,0,0,0-.416-.368c-.572-.274-1.209.269-1.483.841-.6,1.261-.823,2.548-1.945,3.494-.359.3-.875.446-1.1.866-.251.455-.151,1.031-.356,1.508C80.691,107.685,80,108.014,79.689,108.6Z" transform="translate(-19.503 -84.418)" fill="#f5da93"/>
          <path id="Trazado_827745" data-name="Trazado 827745" d="M83.114,101.952c.482-.842.779-1.16,1.78-1.194a1.809,1.809,0,0,1,1.687.833,3.148,3.148,0,0,1,.469,1.156s-.145,1.156-1.011,1.445-.975-.434-1.7.144-3.612,2.6-5.417,2.493c.145-.722.18-.9.18-.9A33.387,33.387,0,0,0,83.114,101.952Z" transform="translate(-19.702 -84.297)" fill="#fff5db"/>
          <path id="Trazado_827746" data-name="Trazado 827746" d="M86.923,104.971c.361.759,1.083.623,1.842.763s1.48.116,1.95.634-1.517.987-2.456.915a1.556,1.556,0,0,1-1.476-.915C86.344,105.26,86.923,104.971,86.923,104.971Z" transform="translate(-17.696 -83.198)" fill="#33373b"/>
          <path id="Trazado_827747" data-name="Trazado 827747" d="M97.585,113.94c1.352-.076,2.673-.037,3.178.469a2.821,2.821,0,0,0,.9.651l.253-1.589s-.193-1.493,0-1.336a9.258,9.258,0,0,1,.8,1.191s-.257,1.589-.294,2.131-.108.867-.506,1.083-.577.072-1.3-.18-.145-.939-.759-.831a3.526,3.526,0,0,1-1.95.037C97.08,115.313,96.142,114.02,97.585,113.94Z" transform="translate(-15.033 -81.333)" fill="#33373b"/>
          <path id="Trazado_827748" data-name="Trazado 827748" d="M95.1,115.431a.331.331,0,0,1,.158.02c.131.058.274.251.386.344a8.49,8.49,0,0,0,.97.7,6.227,6.227,0,0,0,2.411.919c1.625.217,2.384.072,2.673-.217a1.052,1.052,0,0,1,.686-.286s-.469,1.334-.649,1.694a3.048,3.048,0,0,1-2.6.686,14.539,14.539,0,0,1-4.253-2.411c-.29-.221-.753-.453-.608-.894a.749.749,0,0,1,.391-.419A1.362,1.362,0,0,1,95.1,115.431Z" transform="translate(-15.709 -80.471)" fill="#f5da93"/>
          <path id="Trazado_827749" data-name="Trazado 827749" d="M94.663,98.049a4.374,4.374,0,0,1,2.564-.253,4.449,4.449,0,0,1,3.13,1.589c.662.938.265,1.12.265,1.12a4.437,4.437,0,0,0-2.528-.325c-1.048.325-.9,1.075-2.384,1.368S94.663,98.049,94.663,98.049Z" transform="translate(-15.614 -85.089)" fill="#fff5db"/>
          <path id="Trazado_827750" data-name="Trazado 827750" d="M83.483,103.6a3.191,3.191,0,0,1,2.66-.556c.062.005.139.02.155.081a.14.14,0,0,1-.015.092,1.77,1.77,0,0,1-1.306.893,9.76,9.76,0,0,0-1.6.348,9.533,9.533,0,0,0-1.5,1c-.479.315-1.59.913-2.152.609C81,105.3,82.235,104.43,83.483,103.6Z" transform="translate(-19.495 -83.709)" fill="#33373b"/>
          <path id="Trazado_827751" data-name="Trazado 827751" d="M97.979,100.521c-.422.115-1.809.944-2.146.321-.265-.49.769-1.266,1.116-1.451a2.109,2.109,0,0,1,.41-.2,1.34,1.34,0,0,1,.465-.032c.3.019,2.414.16,2.412.711a.112.112,0,0,1-.026.064,1.244,1.244,0,0,1-.933.425A7.979,7.979,0,0,0,97.979,100.521Z" transform="translate(-15.305 -84.714)" fill="#33373b"/>
          <path id="Trazado_827752" data-name="Trazado 827752" d="M63.493,124.142c-2.283,3.143-2.113,7.378-1.847,11.253-1.415-4.845-2.825-10.07-1.18-14.84.567-1.644,1.5-3.263,1.331-4.994.093.961,2.078,2.554,2.859,2.975.968.521,2.98.348,3.707,1.232.913,1.113-.4,1.029-1.449,1.553A9.33,9.33,0,0,0,63.493,124.142Z" transform="translate(-24.709 -80.436)" fill="#f5da93"/>
          <g id="Grupo_1077478" data-name="Grupo 1077478" transform="translate(37.15 36.275)">
            <path id="Trazado_827753" data-name="Trazado 827753" d="M61.6,141.583a71.55,71.55,0,0,0,4.477,13.577s1.014,8.112,1.374,9.486-.108,4.945-.108,5.668a12.777,12.777,0,0,0,1.408,3.108l-.026.281-.226,2.644s.651.651,1.369,1.444a1.164,1.164,0,0,0,.234.2,5.644,5.644,0,0,0,2.548.637l1.118-1.266,1.122.29v-.069c-.009-.269-.039-1.253-.039-2.206a4.217,4.217,0,0,0-.606-1.829,7.69,7.69,0,0,0-.512-.811s-2.527-3.61-2.31-5.27a43.507,43.507,0,0,0,.217-5.274c0-1.591,2.093-7.029,2.093-7.029a30.035,30.035,0,0,0,4.065-5.5c1.022-1.924.325-4.988-.187-7.844a20.228,20.228,0,0,1-.412-3.48c0-3.467,2.024-17.468-1.374-20.359s-9.386-1.444-10.834,3.012A94.559,94.559,0,0,0,62,131.606,37.626,37.626,0,0,0,61.6,141.583Z" transform="translate(-61.418 -116.474)" fill="#fff0c5"/>
            <path id="Trazado_827754" data-name="Trazado 827754" d="M68.785,159.961c.277,1.469-.477,3.124.277,4.416.342.589.949.983,1.321,1.552.564.862.516,1.976.832,2.951a7.959,7.959,0,0,0,.806,1.6c.368.62.736,1.239,1.109,1.855-.009-.269-.039-1.253-.039-2.206a4.217,4.217,0,0,0-.606-1.829,7.688,7.688,0,0,0-.512-.811s-2.527-3.61-2.31-5.27a43.51,43.51,0,0,0,.217-5.274c0-1.591,2.093-7.029,2.093-7.029a30.036,30.036,0,0,0,4.065-5.5c1.022-1.924.325-4.988-.187-7.844-.1.242-.19.482-.3.711A16.083,16.083,0,0,0,74,141.652a17.781,17.781,0,0,1-.308,2.306c-.416,1.5-1.682,2.813-2.436,4.178-.91,1.643-1.737,5.521-2.487,7.246a4.955,4.955,0,0,0-.581,2.5C68.269,158.6,68.651,159.25,68.785,159.961Z" transform="translate(-59.657 -111.233)" fill="#f5da93"/>
            <path id="Trazado_827755" data-name="Trazado 827755" d="M61.6,138.453a71.549,71.549,0,0,0,4.477,13.577s1.014,8.112,1.374,9.486-.108,4.945-.108,5.668a12.777,12.777,0,0,0,1.408,3.108l-.026.281-.226,2.644s.651.651,1.369,1.444a1.164,1.164,0,0,0,.234.2c0-.091-.005-.182-.005-.274a19.163,19.163,0,0,0-.793-5.734c-.178-.516-.4-1.019-.576-1.538a17.37,17.37,0,0,1-.7-6.445,33.168,33.168,0,0,0-.507-6.4,7.673,7.673,0,0,1-.6-2.084c.073-.62.537-1.2.585-1.9a15.653,15.653,0,0,0-.087-3.055.98.98,0,0,0-.217-.59,1.111,1.111,0,0,0-.512-.217,3.256,3.256,0,0,1-2.15-1.374,17.443,17.443,0,0,1-.935-3.86c-.56-2.535-1.01-5.092-1.326-7.667-.108-.88-.2-4.355-.274-5.238A37.6,37.6,0,0,0,61.6,138.453Z" transform="translate(-61.418 -113.344)" fill="#f5da93"/>
            <path id="Trazado_827756" data-name="Trazado 827756" d="M67.037,164.546s.651.651,1.369,1.444,2.782.832,2.782.832l1.118-1.266,1.122.29s-.039-1.157-.039-2.276a4.2,4.2,0,0,0-.606-1.829.305.305,0,0,1-.073.048c-.5.238-1.188-.082-1.607.274-.121.1-.2.251-.334.338-1.058.706-2.484-.395-3.506-.5Z" transform="translate(-59.952 -104.67)" fill="#33373b"/>
          </g>
          <g id="Grupo_1077479" data-name="Grupo 1077479">
            <path id="Trazado_827757" data-name="Trazado 827757" d="M38.785,101.681A2.786,2.786,0,1,1,36,98.9,2.786,2.786,0,0,1,38.785,101.681Z" transform="translate(-31.622 -84.782)" fill="#f5da93"/>
            <circle id="Elipse_6238" data-name="Elipse 6238" cx="2.786" cy="2.786" r="2.786" transform="translate(1.078 5.757)" fill="#f5da93"/>
            <circle id="Elipse_6239" data-name="Elipse 6239" cx="2.786" cy="2.786" r="2.786" transform="translate(1.236 2.327)" fill="#f5da93"/>
            <circle id="Elipse_6240" data-name="Elipse 6240" cx="2.786" cy="2.786" r="2.786" transform="translate(4.021)" fill="#f5da93"/>
            <circle id="Elipse_6241" data-name="Elipse 6241" cx="2.786" cy="2.786" r="2.786" transform="translate(7.072 1.499)" fill="#f5da93"/>
            <circle id="Elipse_6242" data-name="Elipse 6242" cx="2.786" cy="2.786" r="2.786" transform="translate(5.078 4.561)" fill="#f5da93"/>
            <path id="Trazado_827758" data-name="Trazado 827758" d="M37.895,108.744a2.786,2.786,0,1,1-2.786-2.786A2.786,2.786,0,0,1,37.895,108.744Z" transform="translate(-31.854 -82.94)" fill="#f5da93"/>
            <path id="Trazado_827759" data-name="Trazado 827759" d="M37.739,111.232a2.786,2.786,0,1,1-2.786-2.786A2.785,2.785,0,0,1,37.739,111.232Z" transform="translate(-31.895 -82.292)" fill="#f5da93"/>
            <path id="Trazado_827760" data-name="Trazado 827760" d="M37.522,114.263a2.786,2.786,0,1,1-2.786-2.786A2.786,2.786,0,0,1,37.522,114.263Z" transform="translate(-31.951 -81.501)" fill="#f5da93"/>
            <path id="Trazado_827761" data-name="Trazado 827761" d="M37.895,117.419a2.786,2.786,0,1,1-2.786-2.786A2.785,2.785,0,0,1,37.895,117.419Z" transform="translate(-31.854 -80.678)" fill="#f5da93"/>
            <circle id="Elipse_6243" data-name="Elipse 6243" cx="2.786" cy="2.786" r="2.786" transform="translate(0.883 37.383)" fill="#f5da93"/>
            <path id="Trazado_827762" data-name="Trazado 827762" d="M38.723,123.107a2.786,2.786,0,1,1-2.786-2.786A2.785,2.785,0,0,1,38.723,123.107Z" transform="translate(-31.638 -79.195)" fill="#f5da93"/>
            <circle id="Elipse_6244" data-name="Elipse 6244" cx="2.786" cy="2.786" r="2.786" transform="translate(2.143 44.159)" fill="#f5da93"/>
            <circle id="Elipse_6245" data-name="Elipse 6245" cx="2.786" cy="2.786" r="2.786" transform="translate(2.645 47.941)" fill="#f5da93"/>
            <path id="Trazado_827763" data-name="Trazado 827763" d="M39.621,131.107a2.786,2.786,0,1,1-2.786-2.786A2.786,2.786,0,0,1,39.621,131.107Z" transform="translate(-31.404 -77.109)" fill="#f5da93"/>
            <circle id="Elipse_6246" data-name="Elipse 6246" cx="2.786" cy="2.786" r="2.786" transform="translate(2.645 55.157)" fill="#f5da93"/>
            <circle id="Elipse_6247" data-name="Elipse 6247" cx="2.786" cy="2.786" r="2.786" transform="translate(2.645 58.828)" fill="#f5da93"/>
            <path id="Trazado_827764" data-name="Trazado 827764" d="M40.1,134.617a2.786,2.786,0,1,1-2.786-2.786A2.786,2.786,0,0,1,40.1,134.617Z" transform="translate(-31.278 -76.194)" fill="#f5da93"/>
            <circle id="Elipse_6248" data-name="Elipse 6248" cx="2.786" cy="2.786" r="2.786" transform="translate(4.928 51.792)" fill="#f5da93"/>
            <path id="Trazado_827765" data-name="Trazado 827765" d="M43.338,129.357a2.786,2.786,0,1,1-2.786-2.786A2.786,2.786,0,0,1,43.338,129.357Z" transform="translate(-30.434 -77.566)" fill="#f5da93"/>
            <circle id="Elipse_6249" data-name="Elipse 6249" cx="2.786" cy="2.786" r="2.786" transform="translate(10.479 47.612)" fill="#f5da93"/>
            <circle id="Elipse_6250" data-name="Elipse 6250" cx="2.786" cy="2.786" r="2.786" transform="translate(13.264 44.827)" fill="#f5da93"/>
            <path id="Trazado_827766" data-name="Trazado 827766" d="M39.621,139.584a2.786,2.786,0,1,1-2.786-2.786A2.786,2.786,0,0,1,39.621,139.584Z" transform="translate(-31.404 -74.899)" fill="#f5da93"/>
            <circle id="Elipse_6251" data-name="Elipse 6251" cx="2.786" cy="2.786" r="2.786" transform="translate(2.881 64.066)" fill="#f5da93"/>
            <circle id="Elipse_6252" data-name="Elipse 6252" cx="2.786" cy="2.786" r="2.786" transform="translate(0.883 18.72)" fill="#f5da93"/>
            <path id="Trazado_827767" data-name="Trazado 827767" d="M35.841,156.325a11.81,11.81,0,0,1-.651,2.653,6.315,6.315,0,0,0,1.353,1.625,2.146,2.146,0,0,0,.524.286,11.3,11.3,0,0,0,2.276.537c.455.069.775.1.775.1l.651-1.465,1.357.489a9.637,9.637,0,0,0-.057-2.817,6.6,6.6,0,0,0-1.109-2.006c-.416-.56-.784-.975-.784-.975a49.383,49.383,0,0,1-.856-6.7c0-2.276,1.12-8.453,2.267-8.993s7.8-4.709,8.555-6.117a4.274,4.274,0,0,0,.043-2.635,25.508,25.508,0,0,1-.693-4.733c0-3.033,1.955-12.132-.319-14.949s.016-7.036-2.368-12.02-8.039-.658-9.664.967l-1.629,1.9-1.028,1.191a85.723,85.723,0,0,0-1.677,14.245c-.057,4.009,2.653,17.688,2.761,19.639s-.651,13.218-.651,15.06a21,21,0,0,0,.893,4.511C35.823,156.2,35.837,156.27,35.841,156.325Z" transform="translate(-31.728 -85.463)" fill="#fff0c5"/>
            <path id="Trazado_827768" data-name="Trazado 827768" d="M36.915,143.741a7.889,7.889,0,0,0,.567,3.64,7.5,7.5,0,0,1,.494.992,3.605,3.605,0,0,1,.117,1.1,26.276,26.276,0,0,0,.178,4.919c.455.069.775.1.775.1l.651-1.465,1.357.489A9.637,9.637,0,0,0,41,150.7a6.6,6.6,0,0,0-1.109-2.006c-.416-.56-.784-.975-.784-.975a49.383,49.383,0,0,1-.856-6.7c0-2.276,1.12-8.453,2.267-8.993s7.8-4.709,8.555-6.117a4.274,4.274,0,0,0,.043-2.635,9.473,9.473,0,0,1-3.871,2.306c-1.118.443-2.279,4.492-3.5,4.519a17.041,17.041,0,0,1-2.991-.516c-.905,1.352-.685,3.12-.823,4.742-.112,1.344-.489,2.648-.711,3.978A33.612,33.612,0,0,0,36.915,143.741Z" transform="translate(-30.657 -78.425)" fill="#f5da93"/>
            <path id="Trazado_827769" data-name="Trazado 827769" d="M35.841,155.251a11.81,11.81,0,0,1-.651,2.653,6.315,6.315,0,0,0,1.353,1.625,2.147,2.147,0,0,0,.524.286,25.7,25.7,0,0,0,.013-3.787,15.765,15.765,0,0,0-1.23-4.442c-.72-2.223-.356-4.637.018-6.947.485-3.03.274-6.067.589-9.118.1-1.006.521-1.942.633-2.921a26.193,26.193,0,0,0,.066-2.8,3.152,3.152,0,0,0-.087-.905,3.524,3.524,0,0,0-.685-1.1c-1.867-2.393-3.117-8.964-2.6-11.99q.709-4.2,1.421-8.4a40.61,40.61,0,0,0,.308-7l-1.028,1.191a85.723,85.723,0,0,0-1.677,14.245c-.057,4.009,2.653,17.688,2.761,19.639s-.651,13.218-.651,15.06a21,21,0,0,0,.893,4.511C35.823,155.126,35.837,155.2,35.841,155.251Z" transform="translate(-31.728 -84.389)" fill="#f5da93"/>
            <path id="Trazado_827770" data-name="Trazado 827770" d="M34.7,146.685a6.326,6.326,0,0,0,1.352,1.625c.814.651,3.575.923,3.575.923l.651-1.465,1.357.489a9.637,9.637,0,0,0-.057-2.816,6.6,6.6,0,0,0-1.109-2.006c-.112,0-.226.009-.333.018a5.381,5.381,0,0,0-2.453.905,1.719,1.719,0,0,1-1.365.052,2.827,2.827,0,0,1-.706-.368c-.1-.069-.2-.142-.29-.212.013.078.026.147.03.2A11.9,11.9,0,0,1,34.7,146.685Z" transform="translate(-31.234 -73.168)" fill="#33373b"/>
          </g>
          <path id="Trazado_827771" data-name="Trazado 827771" d="M56.142,104.663a10.666,10.666,0,0,0-7.8-2.823,1.583,1.583,0,0,0-.8.2,1.673,1.673,0,0,0-.484,1.537c.221,4.159,1.812,8.2,1.631,12.364-.024.546-.163,1.205-.681,1.381-1.3-3.173-1.508-6.667-2.116-10.042s-1.756-6.872-4.391-9.066c-.289-.24-.628-.567-.509-.923a.827.827,0,0,1,.339-.382c2.48-1.773,6.613-1.281,9.153.112A11.269,11.269,0,0,1,56.142,104.663Z" transform="translate(-29.599 -85.598)" fill="#f5da93"/>
        </g>
      </g>
      <circle id="Elipse_6253" data-name="Elipse 6253" cx="2.786" cy="2.786" r="2.786" transform="translate(16.752 2.785)" fill="#fff0c5"/>
      <circle id="Elipse_6254" data-name="Elipse 6254" cx="2.786" cy="2.786" r="2.786" transform="translate(12.836 4.994)" fill="#fff0c5"/>
      <circle id="Elipse_6255" data-name="Elipse 6255" cx="2.786" cy="2.786" r="2.786" transform="translate(9.681 7.779)" fill="#fff0c5"/>
      <circle id="Elipse_6256" data-name="Elipse 6256" cx="2.786" cy="2.786" r="2.786" transform="translate(6.896 11.458)" fill="#fff0c5"/>
      <path id="Trazado_827772" data-name="Trazado 827772" d="M50.881,90.123a2.786,2.786,0,1,1-2.786-2.786A2.786,2.786,0,0,1,50.881,90.123Z" transform="translate(-24.218 -86.51)" fill="#fff0c5"/>
      <path id="Trazado_827773" data-name="Trazado 827773" d="M54.28,89.467A2.786,2.786,0,1,1,51.5,86.681,2.786,2.786,0,0,1,54.28,89.467Z" transform="translate(-23.331 -86.681)" fill="#fff0c5"/>
      <path id="Trazado_827774" data-name="Trazado 827774" d="M57.736,89.685A2.786,2.786,0,1,1,54.949,86.9,2.786,2.786,0,0,1,57.736,89.685Z" transform="translate(-22.43 -86.624)" fill="#fff0c5"/>
      <circle id="Elipse_6257" data-name="Elipse 6257" cx="2.786" cy="2.786" r="2.786" transform="translate(34.003 1.082)" fill="#fff0c5"/>
      <circle id="Elipse_6258" data-name="Elipse 6258" cx="2.786" cy="2.786" r="2.786" transform="translate(38.377 2.785)" fill="#fff0c5"/>
      <circle id="Elipse_6259" data-name="Elipse 6259" cx="2.786" cy="2.786" r="2.786" transform="translate(41.883 4.994)" fill="#fff0c5"/>
      <circle id="Elipse_6260" data-name="Elipse 6260" cx="2.786" cy="2.786" r="2.786" transform="translate(45.427 7.327)" fill="#fff0c5"/>
      <circle id="Elipse_6261" data-name="Elipse 6261" cx="2.786" cy="2.786" r="2.786" transform="translate(49.408 9.828)" fill="#fff0c5"/>
      <circle id="Elipse_6262" data-name="Elipse 6262" cx="2.786" cy="2.786" r="2.786" transform="translate(53.269 12.106)" fill="#fff0c5"/>
      <circle id="Elipse_6263" data-name="Elipse 6263" cx="2.786" cy="2.786" r="2.786" transform="translate(57.902 13.643)" fill="#fff0c5"/>
      <circle id="Elipse_6264" data-name="Elipse 6264" cx="2.786" cy="2.786" r="2.786" transform="translate(61.794 13.643)" fill="#fff0c5"/>
      <circle id="Elipse_6265" data-name="Elipse 6265" cx="2.786" cy="2.786" r="2.786" transform="translate(64.98 11.436)" fill="#fff0c5"/>
      <circle id="Elipse_6266" data-name="Elipse 6266" cx="2.786" cy="2.786" r="2.786" transform="translate(67.965 8.358)" fill="#fff0c5"/>
      <circle id="Elipse_6267" data-name="Elipse 6267" cx="2.786" cy="2.786" r="2.786" transform="translate(71.055 7.327)" fill="#fff0c5"/>
    </g>
  </g>
</svg>
