<svg xmlns="http://www.w3.org/2000/svg" xmlns:xlink="http://www.w3.org/1999/xlink" width="820" height="475" viewBox="0 0 820 475">
  <defs>
    <linearGradient id="linear-gradient" x1="0.5" x2="0.5" y2="1" gradientUnits="objectBoundingBox">
      <stop offset="0" stop-color="#f9fef5"/>
      <stop offset="1" stop-color="#e7f7f8"/>
    </linearGradient>
    <clipPath id="clip-path">
      <rect id="Rectángulo_376908" data-name="Rectángulo 376908" width="152.081" height="295.214" fill="none"/>
    </clipPath>
    <clipPath id="clip-path-3">
      <rect id="Rectángulo_376902" data-name="Rectángulo 376902" width="33.382" height="9.185" transform="translate(56.617 281.385)" fill="none"/>
    </clipPath>
    <clipPath id="clip-path-4">
      <rect id="Rectángulo_376903" data-name="Rectángulo 376903" width="33.382" height="9.185" transform="translate(100.365 277.362)" fill="none"/>
    </clipPath>
    <clipPath id="clip-path-5">
      <rect id="Rectángulo_376904" data-name="Rectángulo 376904" width="49.727" height="15.422" transform="translate(73.508 142.198)" fill="none"/>
    </clipPath>
    <clipPath id="clip-path-6">
      <rect id="Rectángulo_376905" data-name="Rectángulo 376905" width="14.036" height="10.727" transform="translate(90.527 47.275)" fill="none"/>
    </clipPath>
    <clipPath id="clip-path-7">
      <rect id="Rectángulo_376906" data-name="Rectángulo 376906" width="19.253" height="91.534" transform="translate(104.528 63.015)" fill="none"/>
    </clipPath>
  </defs>
  <g id="Grupo_1082425" data-name="Grupo 1082425" transform="translate(-390 -600)">
    <path id="Trazado_833737" data-name="Trazado 833737" d="M0,0H820V475H0Z" transform="translate(390 600)" fill="url(#linear-gradient)"/>
    <g id="Grupo_1068069" data-name="Grupo 1068069" transform="translate(267.848 574.905)">
      <g id="Grupo_1068068" data-name="Grupo 1068068" transform="translate(331.75 67.719)">
        <path id="Trazado_809082" data-name="Trazado 809082" d="M512.571,246.018H692.713A196.547,196.547,0,0,0,512.571,65.369Z" transform="translate(-300.854 -65.369)" fill="#fffad0"/>
        <path id="Trazado_809083" data-name="Trazado 809083" d="M509.521,246.018V65.369A196.547,196.547,0,0,0,329.379,246.018Z" transform="translate(-329.379 -65.369)" fill="#e8e8e8"/>
        <path id="Trazado_809084" data-name="Trazado 809084" d="M512.571,249V428.535A196.544,196.544,0,0,0,692.613,249Z" transform="translate(-300.854 -36.776)" fill="#e8e8e8"/>
        <path id="Trazado_809085" data-name="Trazado 809085" d="M509.507,249H329.465A196.544,196.544,0,0,0,509.507,428.535Z" transform="translate(-329.366 -36.776)" fill="#fffad0"/>
      </g>
      <path id="Trazado_809086" data-name="Trazado 809086" d="M703.488,234.59c-13.28-95.563-94.5-167.509-190.917-169.221l.645,10.445A196.63,196.63,0,0,1,682.576,235.88l-12.557.774,25.328,16.427,23.12-19.415Z" transform="translate(30.896 2.35)" fill="#1b3f5e"/>
      <path id="Trazado_809087" data-name="Trazado 809087" d="M517.152,429.382c96.066-8.952,171.6-86.846,177.666-183.083l-10.464.172A196.631,196.631,0,0,1,516.808,408.434l-.207-12.578-17.554,24.561L517.4,444.389Z" transform="translate(28.79 30.523)" fill="#1b3f5e"/>
      <path id="Trazado_809088" data-name="Trazado 809088" d="M329.159,257A196.548,196.548,0,0,0,512.242,434.672l-.171-10.464A196.631,196.631,0,0,1,350.107,256.661l12.578-.207L338.124,238.9l-23.972,18.352Z" transform="translate(0 29.371)" fill="#1b3f5e"/>
      <path id="Trazado_809089" data-name="Trazado 809089" d="M507.046,65.284c-96.066,8.953-171.6,86.846-177.667,183.084l10.464-.172A196.557,196.557,0,0,1,507.39,86.232l.207,12.579,17.554-24.562L506.8,50.277Z" transform="translate(2.371 0)" fill="#1b3f5e"/>
    </g>
    <path id="Trazado_833738" data-name="Trazado 833738" d="M-27.22-4.342V0H-30.3V-12.8H-25.2a5.948,5.948,0,0,1,2.6.541,4.074,4.074,0,0,1,1.749,1.538,4.2,4.2,0,0,1,.62,2.263,3.7,3.7,0,0,1-1.34,2.993,5.561,5.561,0,0,1-3.678,1.121Zm0-2.382H-25.2a1.906,1.906,0,0,0,1.367-.448,1.665,1.665,0,0,0,.47-1.266,2.059,2.059,0,0,0-.483-1.433,1.712,1.712,0,0,0-1.318-.545H-27.22ZM-15.6,0h-2.971V-13.5H-15.6ZM-8.42,0A3.344,3.344,0,0,1-8.7-.853,2.754,2.754,0,0,1-10.986.176a3.374,3.374,0,0,1-2.285-.813,2.588,2.588,0,0,1-.94-2.043,2.66,2.66,0,0,1,1.143-2.338A5.821,5.821,0,0,1-9.747-5.81h.914v-.5q0-1.316-1.134-1.316a.927.927,0,0,0-1.055,1.042h-2.962A2.655,2.655,0,0,1-12.81-8.825a4.931,4.931,0,0,1,2.993-.86A4.323,4.323,0,0,1-6.943-8.8,3.086,3.086,0,0,1-5.862-6.363v4.21a4.311,4.311,0,0,0,.4,2V0Zm-1.854-1.934a1.652,1.652,0,0,0,.918-.237,1.487,1.487,0,0,0,.523-.536V-4.228h-.861q-1.547,0-1.547,1.389a.848.848,0,0,0,.272.655A.986.986,0,0,0-10.274-1.934ZM-1.5-9.51l.1,1.116A3.225,3.225,0,0,1,1.31-9.686,2.713,2.713,0,0,1,3.529-8.8a4.226,4.226,0,0,1,.76,2.672V0H1.318V-6a1.6,1.6,0,0,0-.29-1.059A1.342,1.342,0,0,0-.026-7.4a1.413,1.413,0,0,0-1.292.686V0H-4.28V-9.51ZM10.529.176A4.889,4.889,0,0,1,6.987-1.129a4.507,4.507,0,0,1-1.354-3.4v-.246a5.84,5.84,0,0,1,.541-2.575A3.955,3.955,0,0,1,7.752-9.075a4.763,4.763,0,0,1,2.461-.611,4.117,4.117,0,0,1,3.164,1.244,4.887,4.887,0,0,1,1.16,3.467v1.151H8.648a2.135,2.135,0,0,0,.694,1.257,2.066,2.066,0,0,0,1.389.457,2.662,2.662,0,0,0,2.2-.984l1.354,1.6A3.784,3.784,0,0,1,12.713-.277,5.3,5.3,0,0,1,10.529.176ZM10.2-7.4q-1.3,0-1.547,1.723h2.988v-.229a1.467,1.467,0,0,0-.36-1.1A1.434,1.434,0,0,0,10.2-7.4ZM21.085,0A3.344,3.344,0,0,1,20.8-.853,2.754,2.754,0,0,1,18.519.176a3.374,3.374,0,0,1-2.285-.813,2.588,2.588,0,0,1-.94-2.043,2.66,2.66,0,0,1,1.143-2.338,5.821,5.821,0,0,1,3.322-.791h.914v-.5q0-1.316-1.134-1.316a.927.927,0,0,0-1.055,1.042H15.521a2.655,2.655,0,0,1,1.173-2.239,4.931,4.931,0,0,1,2.993-.86,4.323,4.323,0,0,1,2.874.888,3.086,3.086,0,0,1,1.081,2.435v4.21a4.311,4.311,0,0,0,.4,2V0ZM19.23-1.934a1.652,1.652,0,0,0,.918-.237,1.487,1.487,0,0,0,.523-.536V-4.228h-.861q-1.547,0-1.547,1.389a.848.848,0,0,0,.272.655A.986.986,0,0,0,19.23-1.934Zm11.8-4.9-.976-.07a1.752,1.752,0,0,0-1.793.879V0H25.3V-9.51h2.777l.1,1.222a2.294,2.294,0,0,1,2.083-1.4,2.888,2.888,0,0,1,.826.105Z" transform="translate(879 775.117)" fill="#12263f"/>
    <path id="Trazado_833739" data-name="Trazado 833739" d="M-18.923-2.391H-23.15L-23.889,0h-3.3l4.693-12.8h2.9L-14.862,0h-3.313Zm-3.489-2.382h2.751l-1.38-4.438Zm12.366,2.663a1.317,1.317,0,0,0,.967-.338,1.241,1.241,0,0,0,.334-.945h2.777A3.288,3.288,0,0,1-7.088-.826a4.168,4.168,0,0,1-2.887,1,4.22,4.22,0,0,1-3.27-1.3,5.125,5.125,0,0,1-1.2-3.6v-.123A5.792,5.792,0,0,1-13.909-7.4a3.872,3.872,0,0,1,1.534-1.7A4.573,4.573,0,0,1-10-9.686,4.116,4.116,0,0,1-7.058-8.657a3.647,3.647,0,0,1,1.09,2.786H-8.745A1.626,1.626,0,0,0-9.105-7a1.244,1.244,0,0,0-.967-.4q-1.151,0-1.345,1.468a10.357,10.357,0,0,0-.062,1.283,4.068,4.068,0,0,0,.343,1.986A1.187,1.187,0,0,0-10.046-2.109Zm8.78-9.765V-9.51H.3v2.057H-1.266V-3.1a1.111,1.111,0,0,0,.193.747,1.037,1.037,0,0,0,.765.211A4.345,4.345,0,0,0,.431-2.2V-.079a5.466,5.466,0,0,1-1.67.255A3.1,3.1,0,0,1-3.5-.545a2.954,2.954,0,0,1-.729-2.188v-4.72H-5.44V-9.51h1.213v-2.364ZM7.128-1.028a3.054,3.054,0,0,1-2.54,1.2,3,3,0,0,1-2.369-.91,3.826,3.826,0,0,1-.8-2.615V-9.51H4.377v6.179A1.065,1.065,0,0,0,5.563-2.109a1.548,1.548,0,0,0,1.45-.729V-9.51H9.993V0H7.216ZM16.972,0a3.344,3.344,0,0,1-.281-.853A2.754,2.754,0,0,1,14.405.176,3.374,3.374,0,0,1,12.12-.637a2.588,2.588,0,0,1-.94-2.043,2.66,2.66,0,0,1,1.143-2.338,5.821,5.821,0,0,1,3.322-.791h.914v-.5q0-1.316-1.134-1.316A.927.927,0,0,0,14.37-6.587H11.408a2.655,2.655,0,0,1,1.173-2.239,4.931,4.931,0,0,1,2.993-.86,4.323,4.323,0,0,1,2.874.888,3.086,3.086,0,0,1,1.081,2.435v4.21a4.311,4.311,0,0,0,.4,2V0ZM15.117-1.934a1.652,1.652,0,0,0,.918-.237,1.487,1.487,0,0,0,.523-.536V-4.228H15.7q-1.547,0-1.547,1.389a.848.848,0,0,0,.272.655A.986.986,0,0,0,15.117-1.934Zm11.8-4.9-.976-.07a1.752,1.752,0,0,0-1.793.879V0H21.19V-9.51h2.777l.1,1.222a2.294,2.294,0,0,1,2.083-1.4,2.888,2.888,0,0,1,.826.105Z" transform="translate(712 775.117)" fill="#12263f"/>
    <path id="Trazado_833740" data-name="Trazado 833740" d="M-12.423,0h-3.067V-5.344h-4.544V0H-23.12V-12.8h3.085v5.08h4.544V-12.8h3.067Zm7.172,0a3.344,3.344,0,0,1-.281-.853A2.754,2.754,0,0,1-7.818.176,3.374,3.374,0,0,1-10.1-.637a2.588,2.588,0,0,1-.94-2.043A2.66,2.66,0,0,1-9.9-5.019,5.821,5.821,0,0,1-6.579-5.81h.914v-.5q0-1.316-1.134-1.316A.927.927,0,0,0-7.853-6.587h-2.962A2.655,2.655,0,0,1-9.642-8.825a4.931,4.931,0,0,1,2.993-.86A4.323,4.323,0,0,1-3.775-8.8,3.086,3.086,0,0,1-2.694-6.363v4.21a4.311,4.311,0,0,0,.4,2V0ZM-7.106-1.934a1.652,1.652,0,0,0,.918-.237,1.487,1.487,0,0,0,.523-.536V-4.228h-.861q-1.547,0-1.547,1.389a.848.848,0,0,0,.272.655A.986.986,0,0,0-7.106-1.934ZM2.966-2.109a1.317,1.317,0,0,0,.967-.338,1.241,1.241,0,0,0,.334-.945H7.044A3.288,3.288,0,0,1,5.924-.826a4.168,4.168,0,0,1-2.887,1,4.22,4.22,0,0,1-3.27-1.3,5.125,5.125,0,0,1-1.2-3.6v-.123A5.792,5.792,0,0,1-.9-7.4a3.872,3.872,0,0,1,1.534-1.7A4.573,4.573,0,0,1,3.01-9.686,4.116,4.116,0,0,1,5.955-8.657a3.647,3.647,0,0,1,1.09,2.786H4.267A1.626,1.626,0,0,0,3.907-7a1.244,1.244,0,0,0-.967-.4Q1.789-7.4,1.6-5.933a10.357,10.357,0,0,0-.062,1.283,4.068,4.068,0,0,0,.343,1.986A1.187,1.187,0,0,0,2.966-2.109ZM12.9.176A4.889,4.889,0,0,1,9.356-1.129,4.507,4.507,0,0,1,8-4.526v-.246a5.84,5.84,0,0,1,.541-2.575,3.955,3.955,0,0,1,1.578-1.727,4.763,4.763,0,0,1,2.461-.611,4.117,4.117,0,0,1,3.164,1.244,4.887,4.887,0,0,1,1.16,3.467v1.151H11.017a2.135,2.135,0,0,0,.694,1.257,2.066,2.066,0,0,0,1.389.457,2.662,2.662,0,0,0,2.2-.984l1.354,1.6A3.784,3.784,0,0,1,15.082-.277,5.3,5.3,0,0,1,12.9.176ZM12.564-7.4q-1.3,0-1.547,1.723h2.988v-.229a1.467,1.467,0,0,0-.36-1.1A1.434,1.434,0,0,0,12.564-7.4Zm11.285.571-.976-.07a1.752,1.752,0,0,0-1.793.879V0H18.119V-9.51H20.9l.1,1.222a2.294,2.294,0,0,1,2.083-1.4,2.888,2.888,0,0,1,.826.105Z" transform="translate(879 908.117)" fill="#12263f"/>
    <path id="Trazado_833741" data-name="Trazado 833741" d="M-29.188-3.48-26.64-12.8h3.445L-27.5,0h-3.375l-4.271-12.8h3.419Zm11,3.656a4.889,4.889,0,0,1-3.542-1.305,4.507,4.507,0,0,1-1.354-3.4v-.246a5.84,5.84,0,0,1,.541-2.575,3.955,3.955,0,0,1,1.578-1.727A4.763,4.763,0,0,1-18.5-9.686a4.117,4.117,0,0,1,3.164,1.244,4.887,4.887,0,0,1,1.16,3.467v1.151h-5.889a2.135,2.135,0,0,0,.694,1.257,2.066,2.066,0,0,0,1.389.457,2.662,2.662,0,0,0,2.2-.984l1.354,1.6A3.784,3.784,0,0,1-16-.277,5.3,5.3,0,0,1-18.185.176ZM-18.519-7.4q-1.3,0-1.547,1.723h2.988v-.229a1.467,1.467,0,0,0-.36-1.1A1.434,1.434,0,0,0-18.519-7.4Zm11.285.571-.976-.07A1.752,1.752,0,0,0-10-6.021V0h-2.962V-9.51h2.777l.1,1.222a2.294,2.294,0,0,1,2.083-1.4,2.888,2.888,0,0,1,.826.105ZM-3.041,0H-6.012V-9.51h2.971ZM-6.187-11.962A1.322,1.322,0,0,1-5.73-13a1.724,1.724,0,0,1,1.187-.4,1.724,1.724,0,0,1,1.187.4A1.322,1.322,0,0,1-2.9-11.962a1.322,1.322,0,0,1-.457,1.037,1.724,1.724,0,0,1-1.187.4,1.724,1.724,0,0,1-1.187-.4A1.322,1.322,0,0,1-6.187-11.962ZM-.527,0V-7.453h-1.38V-9.51h1.38v-.316A3.631,3.631,0,0,1,.721-12.735a4.987,4.987,0,0,1,3.243-.949,11.509,11.509,0,0,1,3.094.51l-.4,2.338-.492-.132a7.832,7.832,0,0,0-2.021-.255q-1.7,0-1.7,1.547v.167H4.307v2.057H2.443V0ZM8.42,0H5.44V-9.51H8.42Zm5.827-2.109a1.317,1.317,0,0,0,.967-.338,1.241,1.241,0,0,0,.334-.945h2.777A3.288,3.288,0,0,1,17.2-.826a4.168,4.168,0,0,1-2.887,1,4.22,4.22,0,0,1-3.27-1.3,5.125,5.125,0,0,1-1.2-3.6v-.123A5.792,5.792,0,0,1,10.384-7.4a3.872,3.872,0,0,1,1.534-1.7,4.573,4.573,0,0,1,2.373-.593,4.116,4.116,0,0,1,2.944,1.028,3.647,3.647,0,0,1,1.09,2.786H15.548A1.626,1.626,0,0,0,15.188-7a1.244,1.244,0,0,0-.967-.4q-1.151,0-1.345,1.468a10.357,10.357,0,0,0-.062,1.283,4.068,4.068,0,0,0,.343,1.986A1.187,1.187,0,0,0,14.247-2.109ZM24.935,0a3.344,3.344,0,0,1-.281-.853A2.754,2.754,0,0,1,22.368.176a3.374,3.374,0,0,1-2.285-.813,2.588,2.588,0,0,1-.94-2.043,2.66,2.66,0,0,1,1.143-2.338,5.821,5.821,0,0,1,3.322-.791h.914v-.5q0-1.316-1.134-1.316a.927.927,0,0,0-1.055,1.042H19.371a2.655,2.655,0,0,1,1.173-2.239,4.931,4.931,0,0,1,2.993-.86,4.323,4.323,0,0,1,2.874.888,3.086,3.086,0,0,1,1.081,2.435v4.21a4.311,4.311,0,0,0,.4,2V0ZM23.08-1.934A1.652,1.652,0,0,0,24-2.171a1.487,1.487,0,0,0,.523-.536V-4.228H23.66q-1.547,0-1.547,1.389a.848.848,0,0,0,.272.655A.986.986,0,0,0,23.08-1.934Zm11.8-4.9-.976-.07a1.752,1.752,0,0,0-1.793.879V0H29.153V-9.51h2.777l.1,1.222a2.294,2.294,0,0,1,2.083-1.4,2.888,2.888,0,0,1,.826.105Z" transform="translate(712 908.117)" fill="#12263f"/>
    <g id="Grupo_1082307" data-name="Grupo 1082307" transform="translate(941.171 769)">
      <g id="Grupo_1082306" data-name="Grupo 1082306" clip-path="url(#clip-path)">
        <g id="Grupo_1082305" data-name="Grupo 1082305">
          <g id="Grupo_1082304" data-name="Grupo 1082304" clip-path="url(#clip-path)">
            <path id="Trazado_832484" data-name="Trazado 832484" d="M152.081,282.577c0,6.979-25.459,12.637-56.865,12.637s-56.864-5.658-56.864-12.637S63.811,269.94,95.216,269.94s56.865,5.658,56.865,12.637" fill="#e8e8e8"/>
            <path id="Trazado_832485" data-name="Trazado 832485" d="M143.782,166.181h0a1.1,1.1,0,0,1-.049.126l0,0a1.1,1.1,0,0,1-.061.107l-.006.007a.69.69,0,0,1-.072.088l-.012.012a.689.689,0,0,1-.083.069.179.179,0,0,1-.023.015.848.848,0,0,1-.09.052l-.041.016c-.03.012-.059.025-.092.035s-.051.012-.076.018-.052.013-.08.018a1.609,1.609,0,0,1-.181.021.374.374,0,0,1-.1,0,.443.443,0,0,1-.074-.017l-.014,0a.5.5,0,0,1-.158-.093c-.7-.6-.658-3.356-.9-4.861-.016-.1-.031-.19-.047-.279l0-.016c-.015-.084-.03-.163-.044-.239l0-.027c-.015-.073-.029-.142-.043-.208l-.006-.027c-.014-.064-.028-.125-.042-.182l-.006-.026c-.014-.056-.028-.109-.041-.159l-.006-.022c-.014-.049-.027-.1-.041-.138l-.005-.019c-.014-.042-.027-.082-.04-.119l0-.013c-.013-.036-.027-.071-.04-.1l0-.008c-.014-.031-.027-.06-.041-.086h0a.459.459,0,0,0-.119-.158h0a.1.1,0,0,0-.036-.018h0a.1.1,0,0,0-.034,0h0a.107.107,0,0,0-.033.011.137.137,0,0,0-.031.024.172.172,0,0,0-.025.028,34.091,34.091,0,0,0-.132,5.475,11.182,11.182,0,0,1-.136,3.6h0c-.016.045-.034.088-.053.13l-.006.014c-.018.038-.036.073-.056.108l-.007.012a.944.944,0,0,1-.151.2l-.008.007a.738.738,0,0,1-.077.061l-.026.017a.628.628,0,0,1-.067.037l-.033.014a.634.634,0,0,1-.074.024l-.033.008a.843.843,0,0,1-.115.014.676.676,0,0,1-.128-.01l-.029-.006a.6.6,0,0,1-.1-.031l-.011-.005a.692.692,0,0,1-.221-.153l-.005,0c-.02-.021-.039-.042-.058-.065l0,0c-.52-.637-.613-2.28-.726-3.866l0-.024-.012-.157c0-.022,0-.043,0-.065,0-.045-.007-.09-.011-.136,0-.021,0-.042,0-.064-.006-.065-.011-.13-.016-.2-.182-2.2.163-4.31-.366-4.33s-.837,8.108-.9,8.711a5.99,5.99,0,0,1-.431,2.086,1.125,1.125,0,0,1-.061.1l0,.009-.057.078-.016.019c-.018.021-.036.041-.055.06l-.017.018a.856.856,0,0,1-.073.062l0,0a.65.65,0,0,1-.083.053l-.021.011c-.022.011-.044.02-.067.029l-.03.01a.484.484,0,0,1-.068.017.267.267,0,0,1-.03.006.679.679,0,0,1-.1.008.845.845,0,0,1-.1-.007l-.03,0a.5.5,0,0,1-.069-.016.171.171,0,0,1-.03-.009.436.436,0,0,1-.068-.027l-.02-.008a.624.624,0,0,1-.083-.049l0,0a.642.642,0,0,1-.072-.057l-.016-.014c-.02-.019-.039-.038-.057-.058l-.014-.015a1.212,1.212,0,0,1-.126-.176h0a5.256,5.256,0,0,1-.4-2.208c-.028-.91,0-3.445.159-5.56s.22-2.793-.118-2.882a.042.042,0,0,0-.026.005l-.015.008c-.375.258-1.361,4.771-1.68,6.463a5.779,5.779,0,0,1-.947,2.46,1.51,1.51,0,0,1-.249.24l0,0-.055.037-.017.011c-.017.011-.034.02-.051.03l-.023.011-.049.023-.027.01c-.016.006-.032.013-.048.018l-.029.007a.722.722,0,0,1-.078.016l-.043.007H131.8l-.037,0-.047,0-.036-.006c-.017,0-.034-.007-.051-.012l-.034-.009-.057-.02-.029-.011c-.029-.012-.058-.025-.088-.04a.777.777,0,0,1-.077-.05l-.027-.023-.04-.037c-.011-.011-.021-.021-.031-.033a.6.6,0,0,1-.048-.062c-.623-.9.184-3.792.554-5.537a44.157,44.157,0,0,0,1.089-6.585c-.024-1.363.23-2.6-.48-2.484-.164.018-.293.026-.373.029a4.833,4.833,0,0,0-2.175,1.584,3.963,3.963,0,0,1-2.847,1.06c-.413-.019-.745-.15-.795-.414a.33.33,0,0,1-.007-.055v0a.515.515,0,0,1,0-.055v-.007c0-.018.005-.036.009-.055l0-.01a.433.433,0,0,1,.016-.056l0-.012c.007-.019.015-.039.024-.059l.006-.013c.01-.02.02-.04.032-.061l.008-.014c.012-.021.025-.042.039-.064l.011-.016.048-.066.012-.016.057-.07.014-.017.066-.074.016-.016c.024-.026.05-.052.077-.079l.016-.016.089-.083.016-.015c.032-.03.067-.059.1-.09l.015-.013.117-.1.013-.011c.043-.034.088-.069.135-.1l.008-.006c.057-.043.116-.087.179-.132a14.267,14.267,0,0,0,4.17-5.142c.626-1.529.892-2.558,2.614-3.044.566-.16.4-13.008.3-14.886s7.728-1.1,7.67.427-1.845,14.729-1.074,15.364,1.122,1.367,1.628,4c.253,1.315.563,3.864.8,5.993,0,0,.454,4.011.471,5.564a6.656,6.656,0,0,1-.093,1.8" fill="#f4b799"/>
            <path id="Trazado_832486" data-name="Trazado 832486" d="M106.983,63.721s19.675-3.7,27.977,20.114c7.052,20.229,10.35,23.1,9.723,33.657s-2.335,29.353-2.335,29.353l-9.55-1.66-2.041-38.246a1.815,1.815,0,0,0-.479-1.138c-3.667-3.968-28.72-31.666-23.295-42.08" fill="#f99746"/>
            <path id="Trazado_832487" data-name="Trazado 832487" d="M90,286.9a5.218,5.218,0,0,1-4.261,3.592c-4.853.581-27.745-2.06-28.937-7.771a8.64,8.64,0,0,1-.184-1.335c-.306-4.59,3.615-5.765,7.974-5.3,4.764.515,11.816-.583,11.816-.583L90.622,278A17.916,17.916,0,0,1,90,286.9" fill="#dc433e"/>
            <g id="Grupo_1082291" data-name="Grupo 1082291" opacity="0.3" style="mix-blend-mode: soft-light;isolation: isolate">
              <g id="Grupo_1082290" data-name="Grupo 1082290">
                <g id="Grupo_1082289" data-name="Grupo 1082289" clip-path="url(#clip-path-3)">
                  <path id="Trazado_832488" data-name="Trazado 832488" d="M90,286.9a5.218,5.218,0,0,1-4.261,3.592c-4.853.581-27.745-2.06-28.937-7.771a8.64,8.64,0,0,1-.184-1.335,30.847,30.847,0,0,1,4.249,2.21,40.55,40.55,0,0,0,16.065,3.991,53.882,53.882,0,0,0,9.176-.357A32.862,32.862,0,0,1,90,286.9"/>
                </g>
              </g>
            </g>
            <path id="Trazado_832489" data-name="Trazado 832489" d="M133.747,282.877a5.218,5.218,0,0,1-4.261,3.592c-4.853.581-27.745-2.06-28.937-7.772a8.607,8.607,0,0,1-.184-1.335c-.306-4.589,3.615-5.764,7.974-5.3,4.764.515,11.816-.583,11.816-.583l14.215,2.5a17.9,17.9,0,0,1-.623,8.9" fill="#dc433e"/>
            <g id="Grupo_1082294" data-name="Grupo 1082294" opacity="0.3" style="mix-blend-mode: soft-light;isolation: isolate">
              <g id="Grupo_1082293" data-name="Grupo 1082293">
                <g id="Grupo_1082292" data-name="Grupo 1082292" clip-path="url(#clip-path-4)">
                  <path id="Trazado_832490" data-name="Trazado 832490" d="M133.747,282.877a5.218,5.218,0,0,1-4.261,3.592c-4.853.581-27.745-2.06-28.937-7.772a8.607,8.607,0,0,1-.184-1.335,30.961,30.961,0,0,1,4.249,2.211,40.55,40.55,0,0,0,16.065,3.991,53.986,53.986,0,0,0,9.176-.357,32.651,32.651,0,0,1,3.892-.33"/>
                </g>
              </g>
            </g>
            <path id="Trazado_832491" data-name="Trazado 832491" d="M135.31,274.081l-16.877-2.239c1.9-12.128-5.518-44.891-9.057-56.93-1.515-5.169-4.638-19.3-7.713-33.73-1.869-8.764-3.716-17.645-5.167-24.709-.533-2.583-1.012-4.916-1.423-6.92-.931-4.538-1.5-7.355-1.5-7.355l28.766,5.61s.331,3.5.9,8.943c1.676,16.423,5.365,50.477,8.005,59.251,3.5,11.682,4.07,58.079,4.07,58.079" fill="#002671"/>
            <path id="Trazado_832492" data-name="Trazado 832492" d="M114.066,148.672a82.68,82.68,0,0,1-1.25,8.932c-1.475,7.7-4.566,18.33-10.786,23.263-.123.1-.245.2-.366.316-8.319,7.569-8.338,41.4-8.338,41.4S94.371,269.8,90.762,278.8l-15.55-3.2s-1.684-59.9-2.25-66.755c-.475-5.746-.375-38.705.546-52.708a40.487,40.487,0,0,1,.617-5.615l20.949-.97Z" fill="#1947b6"/>
            <g id="Grupo_1082297" data-name="Grupo 1082297" opacity="0.3" style="mix-blend-mode: soft-light;isolation: isolate">
              <g id="Grupo_1082296" data-name="Grupo 1082296">
                <g id="Grupo_1082295" data-name="Grupo 1082295" clip-path="url(#clip-path-5)">
                  <path id="Trazado_832493" data-name="Trazado 832493" d="M123.235,156.751c-1.48.212-2.967.335-4.454.466-1.982.172-3.981.345-5.966.387a32.544,32.544,0,0,1-5.661-.285c-1.532-.226-3.035-.584-4.565-.777a33.5,33.5,0,0,0-6.093-.069c-.334.019-.659.046-.993.065-3.3.216-6.6.481-9.921.55-3.5.077-8.427.4-12.074-.95a40.714,40.714,0,0,1,.616-5.615l20.949-.97c-.931-4.538-1.5-7.355-1.5-7.355l28.766,5.61s.331,3.5.9,8.943"/>
                </g>
              </g>
            </g>
            <path id="Trazado_832494" data-name="Trazado 832494" d="M90.355,51.109l.782,23.408,17.78,3.713s-3.408-25.288.656-36.457Z" fill="#f4b799"/>
            <g id="Grupo_1082300" data-name="Grupo 1082300" opacity="0.6" style="mix-blend-mode: soft-light;isolation: isolate">
              <g id="Grupo_1082299" data-name="Grupo 1082299">
                <g id="Grupo_1082298" data-name="Grupo 1082298" clip-path="url(#clip-path-6)">
                  <path id="Trazado_832495" data-name="Trazado 832495" d="M90.527,56.262s11.041-3.369,14.036-8.987c0,0-3.117,10.554-13.976,10.727Z"/>
                </g>
              </g>
            </g>
            <path id="Trazado_832496" data-name="Trazado 832496" d="M86.993,9.747s-8.052,14.467-6.9,29.7,9.1,20.214,19.567,15.9,13.568-23.708,10.9-33.309S98.478,5.839,86.993,9.747" fill="#f4b799"/>
            <path id="Trazado_832497" data-name="Trazado 832497" d="M.054,34.862c.014-.05.029-.086.044-.127a1.21,1.21,0,0,1,.551-.851,1.1,1.1,0,0,1,1.266-.2c.037-.075.074-.15.112-.225A1.337,1.337,0,0,1,2.4,31.488a1.2,1.2,0,0,1,1.358-.231c.077-.061.156-.12.237-.178A1.291,1.291,0,0,1,4.563,29.5c.941-.739,1.628-.263,2.391.676.044,0,.086,0,.13,0,.365.011-.715-1.209-2.417-4.057C2.939,23.232.6,20.055,2.143,19.056,3.348,18.273,5.234,21,7.134,23.993c1.337,2.106,3.6,5.649,4.613,7.036.813,1.108,1.406,2.634,1.941,2.88a5.3,5.3,0,0,1,.625-.6c.494-.378.527-2.079.919-3.231.565-1.656,1.486-2.883,2.444-3.126,1.036-.277,1.78-.215,1.094,1.957-.033.107-.069.217-.109.335l0,0c-.041.12-.08.245-.118.37-.03.1-.06.2-.088.3a18.19,18.19,0,0,0-.342,7.654c.468,2.03.944,3.284-.476,5.038-.466.576,9.063,13.685,10.532,15.547s-6.356,6.107-7.411,4.489S11.134,46.791,9.877,46.7s-2.151-.591-4.588-2.933c-1.2-1.157-5.842-6.8-5.235-8.9" fill="#f4b799"/>
            <path id="Trazado_832498" data-name="Trazado 832498" d="M92.16,63.59,42.839,66.033,20.3,46.841,12.87,51.162S24.794,74.87,31.952,79.177,83.243,93.986,83.243,93.986Z" fill="#f99746"/>
            <path id="Trazado_832499" data-name="Trazado 832499" d="M121.4,114.509c-2.011,8.242.936,27.179,2.029,33.569a2.956,2.956,0,0,1-1.731,3.212c-4.534,1.97-10.717,2.906-17.168,3.259A180.99,180.99,0,0,1,74.951,153.2a2.964,2.964,0,0,1-2.6-2.968c.134-12.244.747-63.648,1.785-74.265,1.179-12.069,18.027-12.372,18.027-12.372,9.053-1.934,15.728-1.766,20.539-.576,6.274,1.552,9.361,4.856,10.377,7.546,1.34,3.539.76,33.952-1.679,43.948" fill="#f99746"/>
            <g id="Grupo_1082303" data-name="Grupo 1082303" opacity="0.3" style="mix-blend-mode: soft-light;isolation: isolate">
              <g id="Grupo_1082302" data-name="Grupo 1082302">
                <g id="Grupo_1082301" data-name="Grupo 1082301" clip-path="url(#clip-path-7)">
                  <path id="Trazado_832500" data-name="Trazado 832500" d="M121.4,114.509c-2.011,8.242.936,27.179,2.029,33.569a2.956,2.956,0,0,1-1.731,3.212c-4.534,1.97-10.717,2.906-17.168,3.259a17.344,17.344,0,0,1,2.98-3.937c4.568-5.524,4.928-13.253,5.673-20.376a130.594,130.594,0,0,1,2.752-16.306,119.965,119.965,0,0,0,2.867-13.436c.727-6.156.057-12.376-.6-18.533-.524-4.964-1.119-10.078-3.033-14.731-.4-.974-1.746-2.712-2.468-4.215,6.274,1.552,9.361,4.856,10.377,7.546,1.34,3.539.76,33.952-1.679,43.948"/>
                </g>
              </g>
            </g>
            <path id="Trazado_832501" data-name="Trazado 832501" d="M113.1,14.023c2.435,3.887.987,9-2.82,11.556-3.617,2.43-10.069,4.28-21.222,1.334-21.3-5.625-15.817-22.82-15.817-22.82a53.308,53.308,0,0,0,11.619,6.189S79.169,6.172,79.217,0c0,0,5.649,4.449,17.034,6.834,8.133,1.7,14.214,2.989,16.846,7.19" fill="#0e1c4d"/>
            <path id="Trazado_832502" data-name="Trazado 832502" d="M113.1,14.023s13.72,11.8-.939,30.819-36.947-38.66.939-30.819" fill="#0e1c4d"/>
            <path id="Trazado_832503" data-name="Trazado 832503" d="M100.547,38.968a4.065,4.065,0,1,1-3.574-4.5,4.063,4.063,0,0,1,3.574,4.5" fill="#f4b799"/>
          </g>
        </g>
      </g>
    </g>
  </g>
</svg>
