<svg xmlns="http://www.w3.org/2000/svg" width="504" height="490" viewBox="0 0 504 490">
  <g id="Grupo_1082282" data-name="Grupo 1082282" transform="translate(5964 -1154)">
    <rect id="Rect치ngulo_376899" data-name="Rect치ngulo 376899" width="504" height="490" rx="15" transform="translate(-5964 1154)" fill="#dbf9bd"/>
    <g id="Grupo_1082280" data-name="Grupo 1082280" transform="translate(-6373.001 -7906.456)">
      <g id="Grupo_1082281" data-name="Grupo 1082281">
        <path id="Trazado_833608" data-name="Trazado 833608" d="M11.32,12.667a4.673,4.673,0,0,1-.721,2.36,4.35,4.35,0,0,1-1.85,1.586,6.3,6.3,0,0,1-2.72.563,5.025,5.025,0,0,1-3.973-1.644,6.786,6.786,0,0,1-1.45-4.641v-.633a7.746,7.746,0,0,1,.655-3.292,4.961,4.961,0,0,1,1.885-2.18,5.26,5.26,0,0,1,2.848-.769A5.516,5.516,0,0,1,9.738,5.245a4.844,4.844,0,0,1,1.608,3.379H8.271a2.292,2.292,0,0,0-.589-1.679,2.422,2.422,0,0,0-1.687-.51A1.843,1.843,0,0,0,4.307,7.3a5.536,5.536,0,0,0-.562,2.751v.905a6.125,6.125,0,0,0,.514,2.927,1.882,1.882,0,0,0,1.771.879,2.369,2.369,0,0,0,1.626-.5,2.126,2.126,0,0,0,.6-1.591Zm.949-.51a5.613,5.613,0,0,1,.554-2.536,3.96,3.96,0,0,1,1.591-1.709,4.791,4.791,0,0,1,2.435-.6,4.373,4.373,0,0,1,3.366,1.323,5.076,5.076,0,0,1,1.23,3.6v.105a4.925,4.925,0,0,1-1.235,3.529,4.384,4.384,0,0,1-3.344,1.305,4.434,4.434,0,0,1-3.261-1.217,4.761,4.761,0,0,1-1.327-3.3Zm2.962.185a3.538,3.538,0,0,0,.413,1.934,1.376,1.376,0,0,0,1.222.615q1.582,0,1.617-2.435v-.3q0-2.558-1.635-2.558-1.485,0-1.608,2.206ZM28.5,10.171l-.976-.07a1.752,1.752,0,0,0-1.793.879V17H22.772V7.49H25.55l.1,1.222a2.294,2.294,0,0,1,2.083-1.4,2.888,2.888,0,0,1,.826.105Zm6.82,0-.976-.07a1.752,1.752,0,0,0-1.793.879V17H29.593V7.49H32.37l.1,1.222a2.294,2.294,0,0,1,2.083-1.4,2.888,2.888,0,0,1,.826.105ZM39.516,17H36.545V7.49h2.971ZM36.369,5.038A1.322,1.322,0,0,1,36.826,4,1.943,1.943,0,0,1,39.2,4a1.322,1.322,0,0,1,.457,1.037A1.322,1.322,0,0,1,39.2,6.075a1.943,1.943,0,0,1-2.373,0A1.322,1.322,0,0,1,36.369,5.038ZM45.94,17.176A4.889,4.889,0,0,1,42.4,15.871a4.507,4.507,0,0,1-1.354-3.4v-.246a5.84,5.84,0,0,1,.541-2.575,3.955,3.955,0,0,1,1.578-1.727,4.763,4.763,0,0,1,2.461-.611,4.117,4.117,0,0,1,3.164,1.244,4.887,4.887,0,0,1,1.16,3.467v1.151H44.06a2.135,2.135,0,0,0,.694,1.257,2.066,2.066,0,0,0,1.389.457,2.662,2.662,0,0,0,2.2-.984l1.354,1.6a3.784,3.784,0,0,1-1.569,1.217A5.3,5.3,0,0,1,45.94,17.176ZM45.606,9.6q-1.3,0-1.547,1.723h2.988v-.229a1.467,1.467,0,0,0-.36-1.1A1.434,1.434,0,0,0,45.606,9.6ZM53.859,7.49l.1,1.116a3.225,3.225,0,0,1,2.716-1.292,2.713,2.713,0,0,1,2.219.888,4.226,4.226,0,0,1,.76,2.672V17H56.681V11a1.6,1.6,0,0,0-.29-1.059A1.342,1.342,0,0,0,55.336,9.6a1.413,1.413,0,0,0-1.292.686V17H51.082V7.49ZM64.74,5.126V7.49H66.3V9.547H64.74V13.9a1.111,1.111,0,0,0,.193.747,1.037,1.037,0,0,0,.765.211,4.345,4.345,0,0,0,.738-.053v2.118a5.466,5.466,0,0,1-1.67.255,3.1,3.1,0,0,1-2.259-.721,2.954,2.954,0,0,1-.729-2.188V9.547H60.565V7.49h1.213V5.126Zm7.33,12.05a4.889,4.889,0,0,1-3.542-1.305,4.507,4.507,0,0,1-1.354-3.4v-.246a5.84,5.84,0,0,1,.541-2.575,3.955,3.955,0,0,1,1.578-1.727,4.763,4.763,0,0,1,2.461-.611,4.117,4.117,0,0,1,3.164,1.244,4.887,4.887,0,0,1,1.16,3.467v1.151H70.189a2.135,2.135,0,0,0,.694,1.257,2.066,2.066,0,0,0,1.389.457,2.662,2.662,0,0,0,2.2-.984l1.354,1.6a3.784,3.784,0,0,1-1.569,1.217A5.3,5.3,0,0,1,72.07,17.176ZM71.736,9.6q-1.3,0-1.547,1.723h2.988v-.229a1.467,1.467,0,0,0-.36-1.1A1.434,1.434,0,0,0,71.736,9.6Zm9.642,2.575a5.809,5.809,0,0,1,.976-3.56,3.211,3.211,0,0,1,2.725-1.3,2.731,2.731,0,0,1,2.145,1V3.5h2.971V17H87.53l-.149-1.02a2.8,2.8,0,0,1-2.32,1.2,3.205,3.205,0,0,1-2.689-1.3A5.993,5.993,0,0,1,81.378,12.175Zm2.962.185q0,2.531,1.477,2.531a1.458,1.458,0,0,0,1.406-.826V10.443A1.419,1.419,0,0,0,85.834,9.6q-1.371,0-1.485,2.215Zm12.138,4.816a4.889,4.889,0,0,1-3.542-1.305,4.507,4.507,0,0,1-1.354-3.4v-.246a5.84,5.84,0,0,1,.541-2.575A3.955,3.955,0,0,1,93.7,7.925a4.763,4.763,0,0,1,2.461-.611,4.117,4.117,0,0,1,3.164,1.244,4.887,4.887,0,0,1,1.16,3.467v1.151H94.6a2.135,2.135,0,0,0,.694,1.257,2.066,2.066,0,0,0,1.389.457,2.662,2.662,0,0,0,2.2-.984l1.354,1.6a3.784,3.784,0,0,1-1.569,1.217A5.3,5.3,0,0,1,96.478,17.176ZM96.144,9.6q-1.3,0-1.547,1.723h2.988v-.229a1.467,1.467,0,0,0-.36-1.1A1.434,1.434,0,0,0,96.144,9.6ZM104.8,17H101.83V3.5H104.8Zm11.663,0a3.344,3.344,0,0,1-.281-.853,2.754,2.754,0,0,1-2.285,1.028,3.374,3.374,0,0,1-2.285-.813,2.588,2.588,0,0,1-.94-2.043,2.66,2.66,0,0,1,1.143-2.338,5.821,5.821,0,0,1,3.322-.791h.914v-.5q0-1.316-1.134-1.316a.927.927,0,0,0-1.055,1.042H110.9a2.655,2.655,0,0,1,1.173-2.239,4.931,4.931,0,0,1,2.993-.86,4.323,4.323,0,0,1,2.874.888,3.086,3.086,0,0,1,1.081,2.435v4.21a4.311,4.311,0,0,0,.4,2V17Zm-1.854-1.934a1.652,1.652,0,0,0,.918-.237,1.487,1.487,0,0,0,.523-.536V12.772h-.861q-1.547,0-1.547,1.389a.848.848,0,0,0,.272.655A.986.986,0,0,0,114.609,15.066ZM123.785,17h-2.971V7.49h2.971ZM120.639,5.038A1.322,1.322,0,0,1,121.1,4a1.943,1.943,0,0,1,2.373,0,1.322,1.322,0,0,1,.457,1.037,1.322,1.322,0,0,1-.457,1.037,1.943,1.943,0,0,1-2.373,0A1.322,1.322,0,0,1,120.639,5.038Zm10.723,5.133-.976-.07a1.752,1.752,0,0,0-1.793.879V17h-2.962V7.49h2.777l.1,1.222a2.294,2.294,0,0,1,2.083-1.4,2.888,2.888,0,0,1,.826.105Zm5.5,7a4.889,4.889,0,0,1-3.542-1.305,4.507,4.507,0,0,1-1.354-3.4v-.246a5.84,5.84,0,0,1,.541-2.575,3.955,3.955,0,0,1,1.578-1.727,4.763,4.763,0,0,1,2.461-.611,4.117,4.117,0,0,1,3.164,1.244,4.887,4.887,0,0,1,1.16,3.467v1.151h-5.889a2.135,2.135,0,0,0,.694,1.257,2.066,2.066,0,0,0,1.389.457,2.662,2.662,0,0,0,2.2-.984l1.354,1.6a3.784,3.784,0,0,1-1.569,1.217A5.3,5.3,0,0,1,136.863,17.176ZM136.529,9.6q-1.3,0-1.547,1.723h2.988v-.229a1.467,1.467,0,0,0-.36-1.1A1.434,1.434,0,0,0,136.529,9.6Z" transform="translate(442.776 9229.09)" fill="#1b3f5e"/>
        <path id="Trazado_833607" data-name="Trazado 833607" d="M11.32,12.667a4.673,4.673,0,0,1-.721,2.36,4.35,4.35,0,0,1-1.85,1.586,6.3,6.3,0,0,1-2.72.563,5.025,5.025,0,0,1-3.973-1.644,6.786,6.786,0,0,1-1.45-4.641v-.633a7.746,7.746,0,0,1,.655-3.292,4.961,4.961,0,0,1,1.885-2.18,5.26,5.26,0,0,1,2.848-.769A5.516,5.516,0,0,1,9.738,5.245a4.844,4.844,0,0,1,1.608,3.379H8.271a2.292,2.292,0,0,0-.589-1.679,2.422,2.422,0,0,0-1.687-.51A1.843,1.843,0,0,0,4.307,7.3a5.536,5.536,0,0,0-.562,2.751v.905a6.125,6.125,0,0,0,.514,2.927,1.882,1.882,0,0,0,1.771.879,2.369,2.369,0,0,0,1.626-.5,2.126,2.126,0,0,0,.6-1.591Zm.949-.51a5.613,5.613,0,0,1,.554-2.536,3.96,3.96,0,0,1,1.591-1.709,4.791,4.791,0,0,1,2.435-.6,4.373,4.373,0,0,1,3.366,1.323,5.076,5.076,0,0,1,1.23,3.6v.105a4.925,4.925,0,0,1-1.235,3.529,4.384,4.384,0,0,1-3.344,1.305,4.434,4.434,0,0,1-3.261-1.217,4.761,4.761,0,0,1-1.327-3.3Zm2.962.185a3.538,3.538,0,0,0,.413,1.934,1.376,1.376,0,0,0,1.222.615q1.582,0,1.617-2.435v-.3q0-2.558-1.635-2.558-1.485,0-1.608,2.206ZM25.471,7.49l.1,1.116a3.225,3.225,0,0,1,2.716-1.292A2.713,2.713,0,0,1,30.5,8.2a4.226,4.226,0,0,1,.76,2.672V17H28.292V11A1.6,1.6,0,0,0,28,9.938,1.342,1.342,0,0,0,26.947,9.6a1.413,1.413,0,0,0-1.292.686V17H22.693V7.49ZM37.5,17.176a4.889,4.889,0,0,1-3.542-1.305,4.507,4.507,0,0,1-1.354-3.4v-.246a5.84,5.84,0,0,1,.541-2.575,3.955,3.955,0,0,1,1.578-1.727,4.763,4.763,0,0,1,2.461-.611,4.117,4.117,0,0,1,3.164,1.244,4.887,4.887,0,0,1,1.16,3.467v1.151H35.622a2.135,2.135,0,0,0,.694,1.257,2.066,2.066,0,0,0,1.389.457,2.662,2.662,0,0,0,2.2-.984l1.354,1.6a3.784,3.784,0,0,1-1.569,1.217A5.3,5.3,0,0,1,37.5,17.176ZM37.169,9.6q-1.3,0-1.547,1.723H38.61v-.229a1.467,1.467,0,0,0-.36-1.1A1.434,1.434,0,0,0,37.169,9.6ZM45.888,7.49v9.835a3.452,3.452,0,0,1-.967,2.6,3.714,3.714,0,0,1-2.672.914,6.308,6.308,0,0,1-1.4-.149V18.45a5.667,5.667,0,0,0,.835.079,1.084,1.084,0,0,0,1.23-1.222V7.49ZM42.7,5.038A1.322,1.322,0,0,1,43.154,4a1.943,1.943,0,0,1,2.373,0,1.322,1.322,0,0,1,.457,1.037,1.322,1.322,0,0,1-.457,1.037,1.943,1.943,0,0,1-2.373,0A1.322,1.322,0,0,1,42.7,5.038Zm9.466,12.138a4.889,4.889,0,0,1-3.542-1.305,4.507,4.507,0,0,1-1.354-3.4v-.246a5.84,5.84,0,0,1,.541-2.575,3.955,3.955,0,0,1,1.578-1.727,4.763,4.763,0,0,1,2.461-.611,4.117,4.117,0,0,1,3.164,1.244,4.887,4.887,0,0,1,1.16,3.467v1.151H50.282a2.135,2.135,0,0,0,.694,1.257,2.066,2.066,0,0,0,1.389.457,2.662,2.662,0,0,0,2.2-.984l1.354,1.6a3.784,3.784,0,0,1-1.569,1.217A5.3,5.3,0,0,1,52.163,17.176ZM51.829,9.6q-1.3,0-1.547,1.723h2.988v-.229a1.467,1.467,0,0,0-.36-1.1A1.434,1.434,0,0,0,51.829,9.6Zm11.285.571-.976-.07a1.752,1.752,0,0,0-1.793.879V17H57.384V7.49h2.777l.1,1.222a2.294,2.294,0,0,1,2.083-1.4,2.888,2.888,0,0,1,.826.105Z" transform="translate(722.266 9334.957)" fill="#1b3f5e"/>
        <path id="Trazado_808888" data-name="Trazado 808888" d="M503.185,339.637c-10.291-.133-33.722.468-43.945-2.706-6.52-2.024-19.655-11.655-21.652-18.447-3.507-11.926-7-23.857-10.668-35.733-.58-1.878-1.707-4.57-3.167-5.03-8.258-2.6-15.819-8.146-25.409-5.475a35.367,35.367,0,0,1-20.532-.4c-3.421-1.082-7.543-.823-11.172-.179-6.21,1.1-12.229,3.257-18.43,4.439-4.114.785-6.071,3.014-7.378,6.737-4.19,11.93-8.644,23.768-12.916,35.669-4.671,13.014-4.56,12.859-17.115,7.528-4.538-1.927-6.5-4.517-6.277-9.538.355-8.007-.077-16.046.16-24.061.113-3.849-1.539-5.455-4.957-6.851-11.434-4.672-22.411-4.286-33.447,1.31-3.422,1.735-5.385,3.573-5.145,7.622.374,6.311.444,12.641.573,18.964.138,6.768-9.076,20.868-15.551,22.568a128,128,0,0,1-20.733,3.528c-6.281.577-12.656.121-18.989.121H172.56q-.025.815-.049,1.63h7.137c103.466,0,220.07,0,323.536.014ZM387.552,323.743c-.043-7.155.028-14.31.055-21.465.011-3.093.8-5.221,4.653-5.123,3.806.1,4.529,2.16,4.5,5.308-.063,6.1.313,12.228-.1,18.3-.373,5.476,1.02,9.418,6.387,11.575,1.184.476,2.046,1.754,3.249,2.837C396.179,338.845,387.61,333.407,387.552,323.743Z" transform="translate(270.763 8872.082)" fill="#1b3f5e"/>
        <path id="Trazado_808889" data-name="Trazado 808889" d="M487.7,1173.476c-25.929-.1-58.47-.015-84.4-.123a7.5,7.5,0,0,1-4.983-1.786c-2.731-2.892-2.421-16.617.576-19.228,5.986-5.215,12.323-10.03,18.579-14.927a4.26,4.26,0,0,1,2.426-.4c4.848.013,8.214-2.4,9.512-6.858,1.346-4.627.34-8.839-2.742-13.016-3.885-5.265-6.954-11.168-10.047-16.97-2.488-4.668-5.439-7.979-11.326-6.882-1.165.217-2.957.453-3.551-.176-6.1-6.472-11.8-4.44-16.087-.114-8.391-3.322-15.662-6.661-23.258-8.9-2.039-.6-5.264,1.856-7.564,3.456-1.426.992-2.137,3.014-3.393,4.914-7.617-3.446-11.842.837-15.085,7.261-6.751-3.824-12.661-4.318-17.287,2.8-.526.809-2.55.992-3.839.9-8.433-.6-12.724,3.48-11.682,12.031.418,3.432-.384,5.177-3.149,7.222-4.317,3.192-6.46,7.783-4.744,13.353,1.791,5.811,5.48,9.23,11.88,9.535,7.8.372,12.9,5.286,16.106,11.643,4.61,9.127-.03,16.227-9.953,16.228q-77.87.007-155.739.054c-2.634,0-5.266.754-7.9,1.156H487.933C487.851,1174.261,487.775,1173.869,487.7,1173.476ZM401.783,1135.6c2.309-1.915,7.225-.689,10.985-.855l.916,2.442-15.152,10.679-1.732-1.129C398.362,1142.906,398.975,1137.929,401.783,1135.6ZM323.6,1150.152l-9.755-7.021,6.638-4.307,5.014,9.926Zm22.188-7.6-14.084,8C333.658,1140.207,333.9,1140.076,345.79,1142.556Zm11.355,26.936c0,1.292-2.986,3.24-4.891,3.72-2.564.646-5.413.16-8.14.16v.071a3.3,3.3,0,0,1-.629-.005c-4.277-.842-10.138,2.577-12.108-4.48-2.38-8.526-.352-14.135,6.6-18.229,1.445-.851,2.934-1.626,4.4-2.445,7.15-4,9.791-3.923,12.986,3.641C357.565,1157.136,357.139,1163.591,357.145,1169.492Zm19.749,3.951c-12.208,0-12.735-.587-12.709-14.122.011-6.12,7.532-14.79,13.067-15.065,5-.248,13.1,10.682,13.013,17.556C390.129,1172.5,389.038,1173.444,376.894,1173.442Zm11.682-25.6L381,1141.223l4.164-5.866,2.08.063,3.128,11.748Z" transform="translate(286.279 8310.492)" fill="#1b3f5e"/>
        <path id="Trazado_808890" data-name="Trazado 808890" d="M635.668,671.285c.265-4.5.47-7.978.735-12.484,4.122,0,8.087-.357,11.92.2,1.31.19,3.12,2.585,3.266,4.11a89.94,89.94,0,0,1,.113,13.9c-.233,3.872,1.306,6.135,4.549,8.15,10.7,6.646,21.207,13.6,32.064,20.606-4.338,4.737-8.034,5.249-13.3,1.79-22.557-14.812-45.466-29.089-68.07-43.83-3.818-2.49-6.466-2.349-10.153.046-22.456,14.585-45.179,28.763-67.526,43.51-5.186,3.422-8.981,3.592-13.388-1.184a38.9,38.9,0,0,1,3.3-2.664c26.051-16.78,52.177-33.444,78.117-50.392,3.7-2.414,6.211-2.03,9.55.252,7.287,4.98,14.789,9.647,22.242,14.381C630.963,668.863,632.982,669.82,635.668,671.285Z" transform="translate(33.547 8609.361)" fill="#1b3f5e"/>
        <path id="Trazado_808891" data-name="Trazado 808891" d="M526.234,979.308c-.943.02-8.708.019-9.947.017-55.777-.089-111.554-.286-167.33-.282q-92.738.007-185.476.29-3.062.005-6.124,0l.006,1.5H526.477C526.386,980.326,526.3,979.819,526.234,979.308Z" transform="translate(281.232 8382.924)" fill="#12263f"/>
        <path id="Trazado_808892" data-name="Trazado 808892" d="M227.635,612.635,218.66,606.3v3.045h-51.45v6.572h51.45v3.366Z" transform="translate(274.426 8645.284)" fill="#363b40"/>
        <path id="Trazado_808893" data-name="Trazado 808893" d="M227.635,675.635,218.66,669.3v3.045h-51.45v6.571h51.45v3.366Z" transform="translate(274.426 8597.992)" fill="#363b40"/>
        <path id="Trazado_808894" data-name="Trazado 808894" d="M227.635,734.778l-8.976-6.331v3.045h-51.45v6.571h51.45v3.366Z" transform="translate(274.426 8553.595)" fill="#363b40"/>
        <g id="Grupo_1067748" data-name="Grupo 1067748" transform="translate(787.567 9295.024)">
          <path id="Trazado_808895" data-name="Trazado 808895" d="M1290.252,762.235l-98.971,19.874v4.173l14.905-2.933V831h4.571V782.45l66.974-13.18V831h4.77V768.331l7.751-1.525Z" transform="translate(-1191.281 -762.235)" fill="#12263f"/>
        </g>
        <g id="Grupo_1067752" data-name="Grupo 1067752" transform="translate(436.001 9251.252)">
          <g id="Grupo_1067749" data-name="Grupo 1067749" transform="translate(0 87.502)">
            <rect id="Rect치ngulo_375242" data-name="Rect치ngulo 375242" width="1.854" height="1.237" transform="matrix(0.901, -0.433, 0.433, 0.901, 0, 0.803)" fill="#475d37"/>
          </g>
          <g id="Grupo_1067750" data-name="Grupo 1067750" transform="translate(5.014)">
            <path id="Trazado_808896" data-name="Trazado 808896" d="M165.743,707.646l-.538-1.113,3.349-1.62.539,1.113C167.857,706.625,166.735,707.167,165.743,707.646Zm6.7-3.244-.54-1.113,3.346-1.625.541,1.112Zm6.691-3.254-.542-1.112,3.342-1.63.543,1.111Zm6.685-3.266-.543-1.11,3.339-1.637.545,1.11Zm6.679-3.276-.546-1.11q1.651-.812,3.336-1.643l.547,1.109Zm6.672-3.29-.548-1.109,3.332-1.65.549,1.108Q200.829,690.5,199.169,691.317Zm6.662-3.3-.551-1.108q1.665-.828,3.329-1.659l.552,1.106Zm6.663-3.326-.554-1.105q1.669-.836,3.323-1.668l.556,1.1Q214.165,683.851,212.493,684.688Zm6.646-3.345-.558-1.1q1.675-.847,3.316-1.681l.56,1.1Q220.817,680.5,219.139,681.343Zm6.633-3.372-.564-1.1q1.683-.861,3.307-1.7l.566,1.1Q227.458,677.108,225.772,677.971Zm6.615-3.411-.571-1.1q1.694-.881,3.293-1.723l.576,1.094Q234.086,673.676,232.387,674.56Zm6.587-3.484-.6-1.082c1.018-.564,2.1-1.185,3.2-1.845l.633,1.062C241.093,669.879,240,670.506,238.974,671.076Zm6.419-3.815-.658-1.047c.986-.62,2.035-1.293,3.12-2l.676,1.036C247.44,665.961,246.384,666.638,245.393,667.261Zm6.244-4.068-.688-1.027q1.521-1.019,3.075-2.079l.7,1.022Q253.161,662.17,251.636,663.193Zm6.152-4.187-.7-1.019,2.854-1.966.207-.142.7,1.018-.207.142Q259.2,658.033,257.788,659.006Zm287.381-1.657c-1.224-.006-2.476-.018-3.721-.039l.02-1.236c1.24.02,2.487.033,3.706.038Zm3.722-.006-.01-1.237c1.237-.01,2.484-.027,3.707-.052l.025,1.236C551.386,657.316,550.134,657.334,548.891,657.343Zm-11.161-.114q-1.864-.051-3.716-.122l.047-1.236q1.846.07,3.7.122Zm18.6-.039-.041-1.236c1.237-.042,2.483-.093,3.7-.151l.059,1.235C558.83,657.1,557.578,657.148,556.335,657.19Zm-26.034-.245q-1.866-.09-3.717-.2l.072-1.234q1.844.108,3.7.2Zm33.474-.114L563.7,655.6c1.242-.078,2.486-.166,3.7-.261l.1,1.233C566.275,656.664,565.025,656.753,563.776,656.831Zm-40.906-.321q-1.865-.127-3.711-.271l.1-1.233q1.84.143,3.7.27Zm48.334-.264-.117-1.231c1.237-.118,2.477-.246,3.686-.383l.138,1.229C573.7,656,572.448,656.129,571.2,656.247Zm-55.754-.312q-1.866-.162-3.706-.337l.117-1.231q1.834.175,3.7.336Zm63.161-.524-.161-1.226c1.233-.162,2.468-.336,3.668-.518l.185,1.223C581.1,655.073,579.853,655.248,578.611,655.411Zm-70.57-.182q-1.866-.194-3.7-.4l.138-1.229q1.828.2,3.69.4Zm-244.13-.439-.7-1.019q1.52-1.045,3.069-2.1l.7,1.022Q265.429,653.746,263.911,654.79Zm236.735-.39q-1.868-.224-3.692-.458l.157-1.227q1.82.233,3.683.457Zm85.339-.1-.21-1.219c1.224-.211,2.45-.436,3.642-.668l.237,1.213C588.452,653.857,587.218,654.083,585.985,654.3Zm-92.721-.839q-1.869-.253-3.685-.513l.175-1.224q1.811.259,3.676.512ZM485.9,652.4q-1.874-.281-3.678-.566l.193-1.221q1.8.283,3.668.565Zm-7.351-1.157q-1.882-.309-3.669-.616l.208-1.219q1.782.3,3.661.614Zm-208.5-.636-.69-1.026q1.535-1.032,3.1-2.065l.682,1.032Q271.581,649.581,270.051,650.61Zm201.163-.618-1.63-.292c-.656-.118-1.341-.25-2.037-.39l.245-1.212c.688.139,1.365.268,2.013.385l1.627.292Zm-7.317-1.475c-1.146-.266-2.365-.562-3.625-.883l.3-1.2c1.251.318,2.462.613,3.6.876Zm-7.229-1.831c-1.14-.309-2.347-.645-3.588-1l.338-1.189c1.237.352,2.44.686,3.574.994Zm-180.424-.164-.671-1.038c1.055-.682,2.111-1.356,3.139-2l.658,1.047C278.348,645.171,277.3,645.842,276.245,646.521ZM449.5,644.654q-1.758-.517-3.567-1.061l.356-1.184q1.8.543,3.559,1.059Zm-166.981-2.081-.644-1.055c1.074-.655,2.149-1.3,3.2-1.916l.628,1.065C284.661,641.279,283.591,641.921,282.523,642.573Zm159.854-.059q-1.757-.536-3.555-1.091l.364-1.182q1.8.553,3.552,1.09Zm-7.107-2.188-3.551-1.1.365-1.182,3.551,1.1Zm-146.36-1.512-.609-1.076c1.087-.615,2.181-1.221,3.253-1.8l.589,1.087C291.077,637.6,289.99,638.2,288.91,638.813Zm139.258-.68q-1.763-.542-3.553-1.087l.36-1.183q1.791.545,3.556,1.088Zm-7.108-2.163q-1.768-.532-3.559-1.062l.351-1.186q1.794.53,3.564,1.063Zm-125.65-.67-.565-1.1c1.111-.571,2.231-1.131,3.329-1.665l.54,1.112C297.624,634.177,296.512,634.733,295.409,635.3Zm118.528-1.437q-1.776-.515-3.569-1.023l.337-1.19q1.8.509,3.576,1.026Zm-111.883-1.789-.513-1.125c1.139-.519,2.286-1.024,3.409-1.5l.483,1.138C304.32,631.059,303.183,631.56,302.054,632.074Zm104.739-.234q-1.784-.491-3.582-.972l.319-1.195q1.8.481,3.592.975Zm-7.172-1.915q-1.793-.462-3.6-.909l.3-1.2q1.81.448,3.609.912Zm-90.771-.734-.451-1.152c1.162-.455,2.336-.895,3.489-1.307l.416,1.164C311.164,628.306,310,628.741,308.851,629.192Zm83.559-1.049c-1.218-.287-2.436-.568-3.621-.833l.271-1.207c1.19.266,2.412.548,3.635.837ZM315.8,626.712l-.379-1.177c1.186-.382,2.385-.746,3.565-1.083l.34,1.189C318.155,625.973,316.969,626.334,315.8,626.712Zm69.364-.192c-1.209-.255-2.431-.5-3.634-.742l.239-1.213c1.208.238,2.436.489,3.651.746Zm-7.276-1.433c-1.223-.223-2.451-.437-3.649-.636l.2-1.22c1.2.2,2.438.416,3.668.639Zm-55-.4-.3-1.2c1.212-.3,2.438-.581,3.642-.833l.253,1.211C325.3,624.114,324.085,624.391,322.888,624.688Zm47.691-.815c-1.225-.183-2.457-.356-3.663-.514l.16-1.226c1.213.159,2.453.333,3.685.517Zm-40.469-.695-.207-1.219c1.228-.209,2.472-.395,3.7-.554l.159,1.226C332.55,622.788,331.323,622.972,330.111,623.178Zm33.136-.265c-1.232-.137-2.468-.263-3.675-.373l.112-1.232c1.215.111,2.46.237,3.7.376Zm-7.365-.668c-1.234-.085-2.477-.157-3.695-.212l.056-1.235c1.227.056,2.48.128,3.724.214Zm-18.457-.013L337.315,621c1.24-.11,2.5-.2,3.73-.253l.058,1.235C339.885,622.039,338.647,622.123,337.424,622.232Zm11.065-.321c-1.24-.025-2.479-.034-3.7-.026l-.008-1.237c1.23-.008,2.481,0,3.731.027Z" transform="translate(-165.205 -620.645)" fill="#475d37"/>
          </g>
          <g id="Grupo_1067751" data-name="Grupo 1067751" transform="translate(432.766 30.626)">
            <path id="Trazado_808897" data-name="Trazado 808897" d="M1549.121,721.326l-.265-1.208q.9-.2,1.8-.406l.278,1.205Q1550.033,721.126,1549.121,721.326Z" transform="translate(-1548.856 -719.712)" fill="#475d37"/>
          </g>
        </g>
        <g id="Grupo_1067756" data-name="Grupo 1067756" transform="translate(436.07 9250.992)">
          <g id="Grupo_1067753" data-name="Grupo 1067753" transform="translate(0 97.477)">
            <path id="Trazado_808898" data-name="Trazado 808898" d="M149.607,936.885l-.4-1.171s.611-.208,1.752-.6l.4,1.169C150.219,936.677,149.607,936.885,149.607,936.885Z" transform="translate(-149.209 -935.115)" fill="#475d37"/>
          </g>
          <g id="Grupo_1067754" data-name="Grupo 1067754" transform="translate(5.234)">
            <path id="Trazado_808899" data-name="Trazado 808899" d="M166.545,717.251l-.4-1.169c1.031-.357,2.2-.762,3.493-1.212l.407,1.168C168.747,716.489,167.577,716.894,166.545,717.251Zm6.986-2.432-.409-1.167q1.652-.579,3.485-1.224l.411,1.167Zm6.972-2.453-.412-1.166q1.685-.6,3.479-1.234l.414,1.165Zm6.96-2.475-.416-1.165q1.7-.608,3.474-1.245l.418,1.164Q189.165,709.283,187.463,709.891Zm6.951-2.5-.42-1.163q1.709-.617,3.47-1.256l.422,1.162Q196.125,706.775,194.414,707.394Zm6.941-2.519-.424-1.162q1.714-.626,3.465-1.268l.426,1.161Q203.071,704.248,201.355,704.874Zm6.932-2.545-.428-1.16q1.717-.634,3.46-1.281l.431,1.159Q210.006,701.695,208.287,702.329Zm6.922-2.571-.433-1.158q1.719-.643,3.454-1.3l.436,1.157Q216.93,699.115,215.208,699.758Zm6.911-2.6L221.681,696q1.717-.65,3.44-1.307l.441,1.155Q223.837,696.508,222.119,697.159Zm6.888-2.627-.443-1.155q1.723-.662,3.446-1.33l.447,1.153Q230.733,693.868,229.007,694.531Zm6.89-2.67-.45-1.152q1.721-.673,3.433-1.348l.454,1.15Q237.621,691.188,235.9,691.861Zm6.87-2.709L242.31,688q1.721-.685,3.424-1.37l.462,1.147Q244.49,688.466,242.767,689.152Zm6.852-2.757-.466-1.145q1.719-.7,3.413-1.4l.471,1.143Q251.341,685.695,249.619,686.4Zm6.829-2.815-.477-1.141q1.718-.717,3.4-1.43l.483,1.138Q258.17,682.861,256.448,683.58Zm6.8-2.886-.49-1.135q1.716-.741,3.381-1.472l.5,1.132Q264.971,679.952,263.25,680.694Zm6.766-2.976-.507-1.128q1.713-.77,3.355-1.526l.518,1.123Q271.737,676.945,270.016,677.718Zm6.716-3.1-.53-1.117c1.144-.544,2.26-1.083,3.316-1.6l.547,1.109C279,673.531,277.883,674.073,276.733,674.62Zm6.641-3.278-.567-1.1c1.143-.59,2.236-1.17,3.249-1.725l.594,1.085C285.628,670.163,284.525,670.748,283.373,671.342Zm6.5-3.577-.633-1.062q.367-.219.72-.434c.774-.473,1.582-.977,2.4-1.5l.663,1.044c-.824.523-1.638,1.03-2.418,1.507Q290.249,667.542,289.875,667.765Zm6.254-3.958-.681-1.033c.971-.64,2-1.329,3.057-2.047l.695,1.023C298.139,662.471,297.105,663.163,296.13,663.807Zm6.116-4.147-.7-1.016q1.5-1.042,3.02-2.11l.711,1.012Q303.751,658.615,302.246,659.66Zm6.041-4.242-.715-1.009,3.008-2.133.715,1.009Zm6.017-4.263-.713-1.01q1.5-1.06,3.019-2.123l.709,1.013Q315.8,650.1,314.3,651.155Zm6.039-4.221-.7-1.018q1.513-1.044,3.043-2.079l.693,1.024Q321.85,645.892,320.342,646.934Zm176.174-2.249q-.684,0-1.35-.008l.015-1.237c1.18.014,2.41.009,3.668-.014l.024,1.236C498.075,644.677,497.282,644.685,496.516,644.685Zm-5.059-.124c-1.315-.069-2.564-.167-3.709-.293l.135-1.229c1.123.123,2.347.22,3.639.287Zm11.117-.018-.055-1.235c1.195-.053,2.429-.122,3.668-.2l.082,1.234C505.02,644.42,503.777,644.49,502.573,644.543Zm7.384-.488-.106-1.232c1.2-.1,2.435-.221,3.66-.349l.128,1.23C512.407,643.833,511.168,643.951,509.958,644.055Zm-25.91-.35c-.394-.08-.776-.167-1.138-.257-.766-.192-1.6-.414-2.478-.66l.334-1.191c.868.244,1.69.463,2.444.651.344.086.709.169,1.085.245Zm33.267-.415-.149-1.228c1.2-.146,2.431-.305,3.647-.473l.168,1.225C519.759,642.983,518.525,643.143,517.315,643.29Zm-190.883-.471-.681-1.032c1.049-.692,2.09-1.37,3.095-2.013l.667,1.042C328.513,641.455,327.476,642.13,326.431,642.819Zm198.208-.538-.188-1.222c1.209-.186,2.431-.384,3.63-.588l.208,1.219C527.084,641.895,525.856,642.094,524.64,642.281Zm-47.759-.543c-1.055-.325-2.207-.689-3.524-1.114l.38-1.177c1.311.423,2.458.785,3.508,1.108Zm55.048-.7-.227-1.216c1.209-.226,2.423-.463,3.609-.706l.248,1.212C534.366,640.573,533.145,640.812,531.929,641.039Zm7.247-1.481-.269-1.207c1.2-.268,2.409-.548,3.581-.832l.291,1.2C541.6,639.007,540.388,639.289,539.176,639.558Zm-69.328-.08q-1.635-.539-3.364-1.113l-.138-.046.389-1.174.138.046q1.727.573,3.362,1.113Zm-137.227-.62-.65-1.052c1.065-.658,2.129-1.3,3.162-1.915l.631,1.064C334.738,637.563,333.681,638.2,332.622,638.858Zm213.745-1.046-.316-1.2c1.2-.317,2.391-.646,3.541-.978l.343,1.188C548.775,637.161,547.575,637.493,546.366,637.812Zm-83.52-.652q-1.711-.564-3.5-1.148l.383-1.176q1.793.584,3.506,1.15Zm90.633-1.408-.375-1.178.516-.165c1.005-.323,2.02-.637,3.015-.933l.352,1.186c-.986.293-1.991.6-2.988.925Zm-214.537-.64-.609-1.077c1.092-.617,2.182-1.217,3.243-1.784l.583,1.09C341.108,633.9,340.026,634.5,338.943,635.112Zm116.9-.232q-1.723-.55-3.512-1.109l.369-1.18q1.792.559,3.52,1.111Zm104.68-1.213-.318-1.2c1.2-.319,2.408-.622,3.593-.9l.283,1.2C562.9,633.051,561.706,633.351,560.519,633.668Zm-111.711-.978q-1.736-.526-3.528-1.051l.347-1.187q1.8.526,3.539,1.054ZM567.658,632l-.244-1.212c1.219-.245,2.446-.471,3.645-.671l.2,1.22C570.076,631.529,568.864,631.752,567.658,632Zm-222.24-.345-.555-1.1c1.116-.561,2.237-1.105,3.332-1.617l.524,1.12C347.635,630.555,346.524,631.094,345.418,631.65Zm229.469-.854-.158-1.226c1.243-.16,2.484-.3,3.689-.4l.109,1.232C577.338,630.5,576.113,630.638,574.887,630.8Zm-133.144-.174q-1.75-.493-3.547-.979l.322-1.194q1.8.487,3.56.983Zm140.434-.464-.053-1.235c1.04-.045,2.065-.067,3.05-.067.229,0,.452,0,.669,0l-.013,1.237q-.319,0-.655,0C584.207,630.092,583.2,630.114,582.177,630.158ZM434.637,628.7c-1.185-.306-2.385-.608-3.568-.9l.295-1.2c1.187.291,2.392.594,3.582.9Zm-82.573-.159-.489-1.136c1.143-.493,2.3-.967,3.427-1.41l.451,1.151C354.335,627.588,353.195,628.057,352.064,628.544Zm75.427-1.594c-1.192-.277-2.4-.549-3.589-.808l.264-1.208c1.194.261,2.407.534,3.6.812Zm-68.606-1.077-.41-1.167c1.173-.412,2.356-.8,3.519-1.161l.364,1.182C361.211,625.081,360.042,625.467,358.885,625.873Zm61.419-.492c-1.2-.245-2.411-.484-3.608-.711l.231-1.215c1.2.228,2.423.469,3.625.714Zm-7.226-1.371c-1.2-.211-2.425-.415-3.627-.607l.2-1.221c1.208.193,2.435.4,3.645.61Zm-47.206-.292-.316-1.2c1.2-.317,2.409-.61,3.6-.872l.265,1.208C368.246,623.117,367.052,623.406,365.871,623.719Zm39.944-.869c-1.208-.175-2.434-.343-3.643-.5l.158-1.227c1.215.157,2.448.325,3.662.5Zm-32.809-.695-.211-1.218c1.22-.211,2.455-.4,3.671-.548l.154,1.227C375.423,621.767,374.207,621.948,373.006,622.156Zm25.516-.245c-1.216-.137-2.446-.266-3.656-.384l.119-1.231c1.216.118,2.453.248,3.675.386Zm-18.267-.662-.095-1.233c1.231-.095,2.479-.16,3.709-.2l.035,1.236C382.694,621.09,381.466,621.154,380.255,621.248Zm10.955-.04c-1.209-.085-2.438-.141-3.652-.166l.026-1.236c1.234.026,2.483.083,3.712.169Z" transform="translate(-166.141 -619.806)" fill="#475d37"/>
          </g>
          <g id="Grupo_1067755" data-name="Grupo 1067755" transform="translate(428.375 9.203)">
            <path id="Trazado_808900" data-name="Trazado 808900" d="M1536.664,651.007c-.006,0-.623-.1-1.788-.2l.1-1.233c1.228.1,1.871.207,1.9.212Z" transform="translate(-1534.876 -649.576)" fill="#475d37"/>
          </g>
        </g>
        <g id="Grupo_1067760" data-name="Grupo 1067760" transform="translate(436.144 9268.646)">
          <g id="Grupo_1067757" data-name="Grupo 1067757" transform="translate(432.614 0.921)">
            <path id="Trazado_808901" data-name="Trazado 808901" d="M1549.178,681.607l-.351-1.186c1.152-.341,1.768-.529,1.77-.53l.362,1.182S1550.339,681.264,1549.178,681.607Z" transform="translate(-1548.827 -679.892)" fill="#475d37"/>
          </g>
          <g id="Grupo_1067758" data-name="Grupo 1067758" transform="translate(4.986)">
            <path id="Trazado_808902" data-name="Trazado 808902" d="M165.965,763.856l-.39-1.173c1.074-.357,2.24-.777,3.467-1.246l.442,1.155C168.24,763.068,167.056,763.493,165.965,763.856Zm6.983-2.651-.476-1.141c1.081-.451,2.224-.943,3.4-1.462l.5,1.131C175.189,760.256,174.037,760.751,172.948,761.205Zm6.815-3.008-.519-1.122c1.087-.5,2.214-1.035,3.351-1.579l.534,1.115C181.987,757.158,180.855,757.691,179.763,758.2Zm6.711-3.21-.547-1.109q1.631-.8,3.317-1.653l.556,1.1Q188.11,754.18,186.474,754.987Zm6.639-3.343-.565-1.1q1.625-.834,3.292-1.7l.572,1.1Q194.741,750.807,193.113,751.643Zm6.587-3.437-.578-1.093q1.621-.857,3.273-1.743l.584,1.09Q201.324,747.347,199.7,748.206Zm6.548-3.506-.588-1.088q1.617-.875,3.258-1.771l.593,1.085Q207.867,743.824,206.248,744.7Zm6.518-3.559-.6-1.083q1.614-.889,3.246-1.794l.6,1.081Q214.382,740.252,212.766,741.142Zm6.494-3.6-.6-1.08q1.612-.9,3.237-1.811l.605,1.078Q220.873,736.642,219.26,737.542Zm6.475-3.632-.607-1.077q1.61-.907,3.23-1.824l.609,1.076Q227.346,733,225.735,733.91Zm6.46-3.656-.611-1.076q1.609-.914,3.224-1.835l.612,1.075Zm6.449-3.675-.614-1.073,3.231-1.848.615,1.073Zm6.457-3.7-.615-1.073,3.219-1.847.616,1.072Zm6.434-3.694-.616-1.072,3.209-1.844.616,1.072Zm6.426-3.694-.617-1.072,3.218-1.849.616,1.072Zm6.434-3.7-.615-1.072L267,708.879l.615,1.073Zm6.439-3.689-.614-1.073,3.223-1.841.612,1.074Q272.454,707.182,270.834,708.109Zm6.445-3.676-.611-1.075q1.627-.925,3.229-1.832l.609,1.076Q278.905,703.509,277.279,704.433Zm6.457-3.655-.607-1.077q1.635-.92,3.237-1.818l.6,1.079Q285.37,699.858,283.736,700.778Zm196.715-1.213c-1.264-.015-2.517-.047-3.723-.1l.049-1.236c1.195.048,2.436.079,3.689.095Zm3.722,0-.015-1.237c1.2-.014,2.443-.043,3.695-.084l.041,1.236C486.633,699.522,485.381,699.551,484.172,699.565Zm7.44-.245-.065-1.235c1.2-.063,2.445-.139,3.692-.226l.086,1.234C494.072,699.18,492.822,699.257,491.612,699.32Zm-18.607-.056c-1.267-.091-2.517-.2-3.715-.335l.134-1.229c1.183.13,2.417.24,3.67.33Zm26.029-.458-.105-1.232c1.208-.1,2.448-.217,3.686-.34l.122,1.231C501.495,698.588,500.249,698.7,499.035,698.806Zm-33.447-.363c-1.266-.2-2.5-.421-3.68-.668l.254-1.21c1.154.243,2.37.463,3.615.656Zm40.847-.37-.138-1.229c1.207-.136,2.444-.282,3.677-.435l.153,1.227C508.889,697.79,507.647,697.937,506.435,698.073Zm7.378-.917-.166-1.225q1.836-.249,3.675-.518l.179,1.224Q515.656,696.906,513.813,697.156Zm-223.6,0-.6-1.081q1.645-.915,3.249-1.8l.6,1.083Q291.853,696.24,290.209,697.154Zm168.068-.24q-1.77-.441-3.6-.9l.3-1.2q1.827.462,3.6.9Zm62.9-.834-.191-1.222q1.831-.286,3.658-.587l.2,1.22Q523.016,695.793,521.179,696.08Zm-70.1-.984-3.594-.916.306-1.2,3.594.916Zm77.423-.226-.212-1.218q1.826-.317,3.639-.648l.222,1.217Q530.337,694.552,528.505,694.87Zm-231.8-1.3-.592-1.086q1.66-.905,3.266-1.771l.586,1.089Q298.364,692.67,296.706,693.574Zm239.1-.033-.231-1.215q1.829-.348,3.638-.705l.24,1.213Q537.64,693.192,535.806,693.541Zm-91.912-.278q-1.778-.452-3.594-.912l.3-1.2,3.6.913Zm99.2-1.161-.248-1.212q1.829-.375,3.628-.755l.256,1.21Q544.928,691.726,543.095,692.1Zm-106.39-.657q-1.783-.447-3.6-.9l.3-1.2q1.815.449,3.6.9Zm113.658-.881-.264-1.208q1.83-.4,3.62-.8l.271,1.206Q552.2,690.163,550.362,690.564Zm-247.125-.506-.58-1.093q1.682-.892,3.291-1.729l.571,1.1Q304.915,689.168,303.237,690.058Zm126.271-.393q-1.789-.436-3.6-.87l.288-1.2q1.816.435,3.608.871Zm128.1-.73-.278-1.205q1.833-.423,3.61-.845l.285,1.2Q559.449,688.511,557.611,688.935ZM422.3,687.942q-1.8-.42-3.611-.834l.275-1.205q1.817.415,3.617.836Zm142.541-.72-.292-1.2q1.839-.447,3.6-.886l.3,1.2Q566.684,686.773,564.84,687.222Zm-255.03-.578-.55-1.107c1.1-.547,2.244-1.075,3.4-1.569l.487,1.137C312.012,685.589,310.891,686.107,309.81,686.644Zm105.264-.349q-1.8-.4-3.619-.79l.26-1.209q1.821.391,3.627.792Zm156.975-.868-.305-1.2q1.853-.471,3.591-.926l.312,1.2Q573.907,684.954,572.049,685.427Zm-164.211-.685q-1.807-.374-3.624-.736l.241-1.213q1.821.362,3.633.738Zm-91.277-.994-.426-1.161c1.15-.422,2.342-.826,3.542-1.2l.369,1.18C318.864,682.935,317.692,683.332,316.561,683.748Zm262.68-.195-.318-1.2q1.882-.5,3.581-.966l.326,1.193Q581.129,683.049,579.24,683.553ZM400.583,683.3q-1.815-.345-3.639-.674l.22-1.217q1.828.33,3.65.677Zm-7.284-1.315q-1.825-.311-3.654-.6l.2-1.221q1.834.293,3.666.605Zm193.114-.389-.333-1.191c1.323-.369,2.518-.708,3.57-1.009l.341,1.189C588.936,680.887,587.739,681.226,586.412,681.6Zm-262.828-.046-.314-1.2c1.182-.311,2.4-.605,3.632-.874l.264,1.208C325.954,680.953,324.749,681.243,323.584,681.55Zm62.4-.731c-1.227-.181-2.461-.356-3.669-.52l.166-1.225c1.213.164,2.452.34,3.683.522Zm-55.205-.849-.218-1.217c1.2-.215,2.442-.414,3.682-.591l.174,1.224C333.192,679.562,331.968,679.759,330.779,679.971Zm47.86-.145c-1.228-.15-2.467-.292-3.683-.424l.133-1.229c1.221.131,2.466.275,3.7.425Zm-7.364-.792c-1.236-.114-2.476-.219-3.685-.311l.094-1.233c1.216.093,2.463.2,3.7.313Zm-33.2-.107-.135-1.229c1.211-.133,2.459-.25,3.71-.349l.1,1.233C340.51,678.68,339.275,678.8,338.076,678.928Zm25.825-.454c-1.239-.073-2.482-.134-3.692-.182l.049-1.236c1.218.049,2.468.11,3.715.184Zm-18.468-.132-.063-1.235c1.217-.062,2.47-.11,3.723-.143l.032,1.236C347.882,678.232,346.641,678.28,345.433,678.342Zm11.081-.16c-1.115-.022-2.236-.033-3.332-.033h-.363l0-1.237h.366c1.1,0,2.233.011,3.356.033Z" transform="translate(-165.575 -676.912)" fill="#475d37"/>
          </g>
          <g id="Grupo_1067759" data-name="Grupo 1067759" transform="translate(0 86.74)">
            <path id="Trazado_808903" data-name="Trazado 808903" d="M149.7,959.12l-.25-1.211c.557-.115,1.153-.256,1.771-.419l.316,1.2C150.895,958.854,150.277,959,149.7,959.12Z" transform="translate(-149.448 -957.489)" fill="#475d37"/>
          </g>
        </g>
        <g id="Grupo_1067762" data-name="Grupo 1067762" transform="translate(758.224 9144.713)">
          <path id="Trazado_808904" data-name="Trazado 808904" d="M1290.252,276.024,1191.281,295.9v4.173l14.905-2.933v47.649h4.571V296.238l66.974-13.18v61.728h4.77V282.12l7.751-1.525Z" transform="translate(-1191.281 -276.024)" fill="#12263f"/>
        </g>
        <g id="Grupo_1067763" data-name="Grupo 1067763" transform="translate(787.24 9173.53)">
          <path id="Trazado_808905" data-name="Trazado 808905" d="M1285.138,377.685v31.5h4.968v-12.52h36.965v12.52h4.969V369.238Zm41.735,1.888h-25.041l25.041-4.77Z" transform="translate(-1285.138 -369.238)" fill="#12263f"/>
        </g>
        <g id="Grupo_1067764" data-name="Grupo 1067764" transform="translate(441.304 9124.456)">
          <path id="Trazado_808906" data-name="Trazado 808906" d="M166.8,287.474l-.661-1.045a31.139,31.139,0,0,1,3.372-1.735l.514,1.125A30.7,30.7,0,0,0,166.8,287.474Zm6.612-3.081-.449-1.153c1.117-.435,2.3-.864,3.513-1.275l.4,1.171C175.676,283.542,174.512,283.965,173.412,284.393Zm6.974-2.371-.352-1.185c1.161-.346,2.37-.683,3.592-1l.314,1.2C182.73,281.346,181.534,281.68,180.385,282.022Zm7.137-1.875-.278-1.205c1.187-.274,2.412-.539,3.641-.788l.245,1.212C189.913,279.613,188.7,279.876,187.522,280.147Zm7.238-1.469-.215-1.217c1.208-.214,2.444-.418,3.674-.606l.187,1.222C197.184,278.264,195.958,278.466,194.76,278.678Zm7.3-1.122-.161-1.226c1.214-.159,2.456-.31,3.695-.447l.136,1.229C204.5,277.248,203.27,277.4,202.064,277.556Zm7.348-.816-.113-1.231c1.222-.112,2.469-.215,3.708-.305l.09,1.233C211.867,276.527,210.627,276.629,209.413,276.74Zm7.376-.543-.07-1.234c1.046-.059,2.118-.112,3.185-.156l.524-.024.062,1.235-.534.024C218.895,276.087,217.829,276.139,216.789,276.2Zm7.426-.459-.125-1.23c1.221-.124,2.445-.282,3.639-.47l.192,1.221C226.705,275.451,225.458,275.612,224.214,275.738Zm7.382-1.165-.262-1.208c1.19-.258,2.388-.554,3.561-.88l.331,1.191C234.031,274.009,232.809,274.31,231.6,274.573Zm7.2-2-.4-1.17c1.145-.391,2.3-.823,3.438-1.284l.464,1.146C241.143,271.731,239.965,272.171,238.8,272.57Zm6.928-2.8-.524-1.12c1.085-.508,2.192-1.06,3.29-1.64l.577,1.093C247.954,268.689,246.829,269.25,245.726,269.766Zm6.609-3.482-.623-1.068c1.023-.6,2.082-1.242,3.149-1.916l.661,1.045C254.443,265.027,253.371,265.679,252.335,266.284Zm6.3-3.976-.69-1.026c.971-.654,1.965-1.34,3.038-2.1l.713,1.011C260.62,260.958,259.619,261.649,258.64,262.308Zm6.078-4.272-.727-1q1.495-1.085,2.989-2.188l.734,1Q266.214,256.946,264.718,258.035Zm5.98-4.395-.733-1q1.489-1.1,3-2.193l.727,1Q272.182,252.545,270.7,253.64Zm6-4.345-.714-1.01c1.075-.759,2.075-1.452,3.057-2.119l.694,1.024C278.757,247.852,277.763,248.541,276.695,249.3Zm6.118-4.143-.669-1.04c1.066-.686,2.13-1.349,3.161-1.971l.639,1.059C284.922,243.816,283.868,244.473,282.813,245.152Zm6.318-3.8-.6-1.08c1.093-.611,2.2-1.2,3.288-1.759l.563,1.1C291.3,240.16,290.211,240.744,289.13,241.348ZM295.689,238l-.519-1.122c1.131-.523,2.282-1.027,3.418-1.5l.472,1.143C297.939,236.986,296.8,237.482,295.689,238Zm6.8-2.808-.423-1.162c1.164-.424,2.353-.829,3.535-1.2l.373,1.179C304.809,234.374,303.637,234.773,302.49,235.19Zm7.025-2.274-.358-1.184q1.765-.533,3.563-1.06l.348,1.187Q311.275,232.385,309.515,232.917Zm7.114-2.085-.338-1.19q1.776-.505,3.578-1l.329,1.192Q318.4,230.328,316.628,230.832Zm7.146-1.975-.321-1.195q1.786-.48,3.592-.951l.313,1.2Q325.558,228.378,323.775,228.857Zm7.174-1.874-.3-1.2q1.791-.455,3.595-.9l.3,1.2Q332.736,226.529,330.949,226.983Zm220.43-1.035h-.37l0-1.237h.368c1.119,0,2.24-.008,3.333-.023l.017,1.237C553.631,225.94,552.5,225.948,551.379,225.948Zm-4.091-.034c-1.217-.019-2.468-.049-3.719-.086l.037-1.236c1.245.037,2.49.066,3.7.085Zm11.162-.075-.039-1.236c1.244-.039,2.488-.09,3.7-.151l.062,1.235C560.954,225.749,559.7,225.8,558.45,225.84Zm-18.595-.146c-1.219-.052-2.468-.113-3.711-.181l.068-1.235c1.237.068,2.481.128,3.7.18Zm26.034-.229-.087-1.233c1.247-.088,2.488-.19,3.686-.3l.115,1.231C568.4,225.273,567.146,225.375,565.889,225.464Zm-33.457-.176q-1.864-.123-3.709-.265l.095-1.233q1.837.141,3.7.264Zm-194.3-.082-.289-1.2q1.8-.434,3.611-.858l.282,1.2Q339.929,224.774,338.131,225.207Zm235.178-.438-.146-1.228c1.238-.147,2.469-.309,3.661-.484L577,224.28C575.8,224.456,574.557,224.621,573.309,224.768Zm-48.29-.049q-1.867-.162-3.7-.34l.119-1.231q1.829.177,3.69.339Zm-7.4-.716q-1.869-.2-3.695-.408l.141-1.229q1.819.209,3.684.407Zm63.066-.321-.217-1.217c1.233-.22,2.45-.459,3.619-.711l.26,1.209C583.163,223.218,581.931,223.46,580.684,223.682Zm-235.339-.166-.275-1.206q1.811-.412,3.626-.815l.268,1.207Q347.153,223.1,345.345,223.517Zm164.887-.362q-1.875-.231-3.687-.471l.162-1.226q1.806.239,3.677.47Zm-7.371-.972q-1.884-.264-3.679-.53l.181-1.223q1.788.264,3.67.528Zm85.119-.076-.308-1.2c1.133-.292,2.25-.6,3.319-.928l.359,1.183C590.265,221.494,589.131,221.811,587.981,222.107Zm-235.391-.2-.26-1.209q1.821-.392,3.64-.773l.253,1.21Q354.407,221.519,352.59,221.91Zm142.919-.814q-1.9-.3-3.671-.585l.2-1.221q1.76.287,3.661.583Zm-135.646-.708-.246-1.212q1.825-.371,3.643-.729l.239,1.213Q361.684,220.019,359.863,220.388Zm128.309-.489c-1.3-.222-2.526-.436-3.662-.637l.216-1.218c1.133.2,2.353.415,3.653.636Zm-121.034-.944-.231-1.215q1.832-.349,3.652-.684l.224,1.216Q368.968,218.607,367.138,218.956Zm113.714-.356-1.087-.2q-1.288-.239-2.565-.49l.237-1.214q1.273.249,2.554.488l1.085.2Zm-106.421-.987-.216-1.217q1.839-.327,3.661-.638l.208,1.219Q376.267,217.287,374.431,217.613Zm99.13-.433-2.608-.534-1.026-.211.249-1.211,1.027.211,2.606.534Zm-91.821-.815-.2-1.22q1.847-.3,3.67-.587l.191,1.222Q383.584,216.063,381.74,216.365Zm84.553-.669q-1.8-.36-3.634-.71l.23-1.215q1.846.35,3.646.712Zm-77.228-.476L388.884,214q1.855-.276,3.679-.532l.172,1.225Q390.916,214.945,389.065,215.22Zm69.955-.9c-1.241-.216-2.469-.419-3.647-.6l.19-1.222c1.186.184,2.421.388,3.67.606Zm-62.614-.133-.161-1.226q1.866-.245,3.688-.467l.15,1.227Q398.267,213.946,396.406,214.19Zm7.357-.9-.137-1.229c1.247-.139,2.491-.271,3.7-.391l.123,1.23C406.246,213.025,405.006,213.156,403.764,213.294Zm47.952-.1c-1.226-.164-2.46-.316-3.667-.45l.137-1.229c1.216.135,2.459.288,3.694.453Zm-40.579-.631-.107-1.232c1.26-.109,2.508-.208,3.71-.294l.088,1.233C413.632,212.354,412.39,212.453,411.136,212.561Zm33.236-.186c-1.22-.108-2.459-.2-3.683-.283l.08-1.234c1.234.081,2.484.177,3.712.285Zm-25.852-.338-.066-1.235c1.25-.067,2.5-.124,3.717-.168l.045,1.236C421.006,211.913,419.763,211.97,418.52,212.037ZM437,211.893c-1.218-.052-2.461-.092-3.693-.118l.027-1.236c1.241.027,2.493.067,3.72.119Zm-11.086-.126-.023-1.236c1.186-.022,2.383-.033,3.558-.033h.164v1.237h-.164C428.28,211.734,427.091,211.745,425.913,211.767Z" transform="translate(-166.139 -210.497)" fill="#475d37"/>
        </g>
        <g id="Grupo_1067765" data-name="Grupo 1067765" transform="translate(441.284 9132.019)">
          <path id="Trazado_808907" data-name="Trazado 808907" d="M166.775,292.437l-.7-1.018c.011-.008,1.124-.774,3.138-2.052l.662,1.044C167.882,291.675,166.786,292.43,166.775,292.437Zm6.244-3.979-.642-1.057c1.036-.629,2.112-1.272,3.2-1.908l.625,1.067C175.12,287.193,174.05,287.832,173.02,288.458Zm6.393-3.744-.608-1.077c1.067-.6,2.162-1.211,3.255-1.807l.592,1.085C181.565,283.509,180.475,284.114,179.413,284.714Zm6.5-3.549-.576-1.094c1.093-.576,2.205-1.152,3.305-1.711l.561,1.1C188.112,280.018,187.005,280.591,185.917,281.164Zm6.6-3.359-.545-1.11c1.108-.544,2.236-1.087,3.353-1.616l.529,1.118C194.745,276.723,193.622,277.264,192.52,277.8Zm6.7-3.166-.512-1.126c1.129-.514,2.273-1.024,3.4-1.516l.495,1.133C201.478,273.62,200.34,274.127,199.216,274.639ZM206,271.673l-.478-1.141c1.149-.481,2.308-.956,3.444-1.411l.459,1.148C208.3,270.722,207.145,271.194,206,271.673Zm6.873-2.752-.441-1.155c1.157-.442,2.331-.879,3.488-1.3l.422,1.163C215.194,268.047,214.027,268.482,212.876,268.921Zm6.959-2.524-.4-1.169c1.177-.4,2.365-.8,3.532-1.177l.381,1.176C222.185,265.6,221,266,219.835,266.4Zm7.041-2.277-.359-1.183c1.191-.361,2.393-.713,3.573-1.046l.336,1.19C229.253,263.413,228.059,263.762,226.876,264.121Zm7.12-2.008-.312-1.2c1.2-.313,2.418-.616,3.613-.9l.287,1.2C236.4,261.5,235.19,261.8,234,262.113Zm7.192-1.714-.261-1.209.291-.062q1.668-.356,3.334-.717l.262,1.208q-1.669.361-3.338.718Zm7.252-1.569-.265-1.208q1.811-.4,3.621-.8l.266,1.208Q250.252,258.434,248.44,258.831Zm7.245-1.6-.267-1.207,3.621-.8.267,1.208Zm7.241-1.6-.267-1.207,3.622-.8.266,1.208Zm7.242-1.591-.263-1.208q1.812-.394,3.626-.785l.26,1.209Q271.979,253.644,270.169,254.038Zm7.248-1.557-.256-1.21q1.815-.384,3.632-.76l.251,1.211Q279.229,252.1,277.417,252.481Zm7.257-1.5-.245-1.212q1.818-.367,3.64-.726l.239,1.213Q286.488,250.612,284.674,250.979Zm7.27-1.427-.231-1.215q1.822-.346,3.649-.681l.222,1.216Q293.761,249.206,291.944,249.552Zm7.285-1.333L299.015,247q1.827-.32,3.659-.627l.2,1.22Q301.05,247.9,299.228,248.219Zm7.3-1.218-.193-1.221q1.832-.289,3.67-.562l.182,1.223Q308.357,246.712,306.531,247Zm140.849-.848h-.3v-1.237h.3q1.714,0,3.411,0l0,1.237Q449.1,246.153,447.38,246.153Zm-4.011-.006q-1.849-.006-3.713-.018l.008-1.237q1.861.012,3.709.018Zm11.139-.015-.008-1.237q1.868-.012,3.709-.03l.012,1.237Q456.378,246.119,454.508,246.131ZM435.94,246.1q-1.854-.017-3.715-.039l.015-1.237q1.86.022,3.712.039Zm25.994-.042-.017-1.236q1.872-.026,3.708-.058l.022,1.236Q463.809,246.032,461.934,246.057Zm-33.424-.046q-1.855-.027-3.713-.06l.022-1.237q1.856.032,3.71.06Zm40.849-.085-.027-1.236q1.877-.042,3.707-.091l.033,1.236Q471.241,245.884,469.359,245.926Zm-155.508-.01-.169-1.225q1.837-.254,3.68-.488l.156,1.227Q315.682,245.663,313.851,245.915Zm107.234-.034q-1.856-.038-3.71-.08l.028-1.236q1.852.043,3.707.08Zm55.7-.157-.04-1.236q1.884-.061,3.7-.131l.048,1.236Q478.674,245.663,476.785,245.724Zm-63.12-.013q-1.858-.047-3.708-.1l.035-1.236q1.847.052,3.7.1Zm-7.414-.211q-1.863-.058-3.711-.121l.042-1.236q1.846.063,3.707.121Zm77.959-.064-.056-1.236q1.894-.086,3.7-.183l.067,1.235Q486.11,245.35,484.21,245.437Zm-85.379-.189q-1.866-.07-3.71-.144l.05-1.236q1.842.074,3.706.144Zm92.8-.213-.079-1.234c1.27-.081,2.513-.168,3.694-.258l.094,1.233C494.155,244.866,492.907,244.953,491.632,245.035Zm-170.442-.052-.142-1.229c1.239-.143,2.481-.28,3.69-.405l.128,1.23C323.661,244.7,322.424,244.84,321.19,244.983Zm70.221-.034q-1.87-.081-3.709-.168l.058-1.235q1.838.086,3.7.168Zm-7.418-.348q-1.873-.1-3.708-.2l.068-1.235q1.832.1,3.7.194Zm115.057-.137-.114-1.231c1.3-.12,2.538-.248,3.678-.38l.142,1.228C501.606,244.214,500.359,244.343,499.05,244.464Zm-170.5-.245-.112-1.232c1.237-.113,2.482-.219,3.7-.314l.1,1.233C331.015,244,329.776,244.107,328.545,244.219Zm48.032-.024q-1.879-.11-3.707-.227l.079-1.234q1.824.116,3.7.226Zm-7.412-.472-.964-.067q-1.368-.1-2.731-.175l.071-1.234q1.371.079,2.746.176l.962.067Zm-33.251-.081-.08-1.234c1.241-.08,2.487-.152,3.705-.215l.063,1.235C338.389,243.49,337.148,243.563,335.913,243.643Zm170.543-.048-.185-1.223c1.046-.158,2.006-.324,2.854-.494q.38-.076.778-.151l.23,1.215q-.391.074-.765.149C508.5,243.264,507.521,243.434,506.456,243.594Zm-144.682-.3c-1.227-.05-2.471-.091-3.7-.122l.031-1.236c1.233.031,2.484.073,3.717.123Zm-18.484-.03-.045-1.236c1.235-.045,2.483-.081,3.709-.108l.027,1.236C345.76,243.186,344.519,243.222,343.29,243.267Zm11.087-.155q-1.854-.017-3.7,0l-.008-1.237q1.855-.012,3.719,0Zm159.4-.794-.19-1.222c1.141-.177,2.384-.357,3.694-.533l.165,1.225C516.148,241.965,514.913,242.143,513.78,242.318Zm7.35-1-.148-1.228q1.795-.216,3.7-.425l.135,1.229Q522.922,241.107,521.13,241.321Zm7.379-.812-.125-1.23q1.82-.185,3.7-.363l.117,1.231Q530.328,240.325,528.509,240.509Zm7.394-.7-.11-1.232q1.836-.164,3.706-.321l.1,1.232Q537.738,239.645,535.9,239.809Zm7.4-.624-.1-1.233q1.847-.147,3.7-.289l.094,1.233Q545.151,239.038,543.3,239.185Zm7.411-.565-.09-1.233q1.86-.136,3.709-.265l.087,1.233Q552.577,238.485,550.716,238.62Zm7.412-.518-.083-1.234q1.874-.126,3.711-.245l.08,1.234Q560,237.976,558.128,238.1Zm7.416-.479-.077-1.234q1.89-.117,3.712-.227l.074,1.234Q567.435,237.5,565.544,237.622Zm7.419-.445-.071-1.234c1.278-.074,2.518-.145,3.714-.211l.069,1.235Q574.882,237.066,572.963,237.177Zm7.424-.415-.066-1.235c1.318-.071,2.56-.137,3.716-.2l.064,1.235C582.946,236.626,581.7,236.691,580.387,236.762Zm7.431-.385-.061-1.235c1.52-.075,2.776-.136,3.722-.18l.058,1.235C590.592,236.241,589.336,236.3,587.818,236.377Z" transform="translate(-166.073 -234.962)" fill="#475d37"/>
        </g>
        <g id="Grupo_1067766" data-name="Grupo 1067766" transform="translate(444.026 9128.355)">
          <path id="Trazado_808908" data-name="Trazado 808908" d="M181.9,283.669c-.93,0-1.821-.04-2.647-.12l.119-1.231a28.391,28.391,0,0,0,3.627.1l.04,1.236Q182.463,283.669,181.9,283.669Zm4.889-.308-.143-1.228c1.15-.134,2.373-.316,3.635-.539l.216,1.217C189.215,283.039,187.968,283.224,186.793,283.361Zm-11.3-.564q-.28-.093-.548-.2l.445-1.154q.241.093.493.176Zm18.676-.725-.27-1.207c1.154-.259,2.361-.553,3.585-.875l.314,1.2C196.557,281.512,195.337,281.81,194.167,282.072Zm7.222-1.887L201.04,279c1.147-.338,2.335-.7,3.533-1.09l.379,1.177C203.744,279.474,202.546,279.844,201.389,280.185Zm7.1-2.283-.405-1.168c1.133-.393,2.305-.813,3.483-1.247l.428,1.16C210.806,277.084,209.626,277.506,208.485,277.9Zm6.988-2.576-.449-1.152c1.127-.439,2.284-.9,3.438-1.372l.468,1.145C217.77,274.42,216.607,274.884,215.473,275.325Zm6.892-2.814-.485-1.138c1.122-.479,2.265-.976,3.4-1.477l.5,1.13C224.641,271.531,223.492,272.03,222.364,272.512Zm6.8-3.017-.517-1.123c1.111-.511,2.24-1.04,3.355-1.571l.532,1.116C231.417,268.45,230.283,268.981,229.167,269.495Zm6.717-3.2-.546-1.11c1.1-.54,2.214-1.1,3.318-1.659l.56,1.1C238.109,265.191,236.988,265.752,235.885,266.295Zm6.639-3.375-.574-1.1c1.092-.573,2.191-1.158,3.268-1.741l.588,1.088C244.724,261.758,243.62,262.346,242.524,262.92Zm6.539-3.536-.6-1.08c1.077-.6,2.162-1.215,3.223-1.825l.616,1.072C251.234,258.164,250.145,258.781,249.063,259.384Zm6.45-3.71-.631-1.063c1.067-.634,2.134-1.277,3.171-1.913l.646,1.054C257.657,254.391,256.585,255.038,255.513,255.674Zm6.344-3.891-.662-1.044c1.049-.666,2.1-1.341,3.11-2.008l.679,1.033C263.964,250.435,262.912,251.114,261.857,251.783Zm6.221-4.092-.7-1.02.171-.117c.98-.671,1.963-1.328,2.923-1.954l.675,1.036c-.952.621-1.928,1.273-2.9,1.939Zm6.187-4.03-.648-1.053c1.075-.661,2.151-1.3,3.2-1.9l.616,1.072C276.395,242.372,275.329,243.007,274.265,243.661Zm6.392-3.667-.579-1.092c1.115-.591,2.235-1.158,3.326-1.684l.537,1.114C282.864,238.851,281.759,239.411,280.657,239.995Zm258.09-.614q-1.094,0-2.191,0l0-1.237q1.857.006,3.707,0l0,1.237Zm5.233-.018-.008-1.237q1.862-.013,3.709-.033l.014,1.237Q545.846,239.351,543.98,239.363Zm-11.139-.007q-1.861-.015-3.717-.042l.018-1.236q1.852.026,3.71.041Zm18.568-.075-.018-1.236q1.869-.028,3.709-.063l.024,1.236Q553.281,239.254,551.409,239.282Zm-26-.031q-1.866-.038-3.715-.089l.034-1.236q1.844.051,3.706.089Zm33.433-.11-.028-1.236q1.876-.043,3.709-.091l.032,1.236Q560.717,239.1,558.838,239.141Zm-40.862-.095q-1.872-.066-3.714-.146l.054-1.235q1.836.08,3.7.146Zm48.289-.1-.037-1.236q1.887-.056,3.709-.117l.041,1.236Q568.155,238.889,566.265,238.946Zm-55.716-.226c-1.257-.067-2.506-.141-3.712-.218l.079-1.234c1.2.078,2.446.151,3.7.218Zm63.142-.019-.045-1.236q1.9-.07,3.708-.141l.049,1.236Q575.6,238.632,573.69,238.7Zm7.424-.293-.053-1.235q1.933-.083,3.707-.164l.057,1.235C583.643,238.3,582.4,238.353,581.114,238.408Zm-77.988-.168c-1.269-.1-2.516-.2-3.708-.314l.114-1.231c1.185.109,2.426.215,3.689.312Zm85.411-.171-.06-1.235c1.341-.066,2.58-.129,3.707-.188l.065,1.235C591.12,237.939,589.879,238,588.537,238.068Zm7.423-.391-.07-1.234c2.383-.135,3.709-.22,3.711-.22l.079,1.234S598.349,237.542,595.96,237.677Zm-100.246-.127c-1.272-.14-2.516-.292-3.7-.449l.163-1.226c1.173.156,2.408.306,3.671.446ZM287.287,236.8l-.489-1.136c1.152-.5,2.317-.967,3.461-1.4l.436,1.157C289.568,235.852,288.422,236.315,287.287,236.8Zm201.04-.245c-1.286-.208-2.522-.431-3.676-.663l.243-1.212c1.139.229,2.36.449,3.63.654ZM481,235.068c-1.313-.338-2.526-.7-3.6-1.078l.408-1.167c1.046.366,2.225.718,3.5,1.047Zm-186.838-.85-.378-1.178c1.181-.379,2.386-.733,3.584-1.052l.318,1.195C296.508,233.5,295.323,233.845,294.162,234.218ZM473.915,232.5a31.014,31.014,0,0,0-3.345-1.421l.422-1.162a32.258,32.258,0,0,1,3.479,1.48Zm-172.657-.174L301,231.116c1.185-.254,2.418-.489,3.666-.7l.2,1.219C303.639,231.843,302.425,232.075,301.258,232.325Zm7.252-1.228-.159-1.226c1.165-.151,2.375-.291,3.7-.425l.125,1.23C310.862,230.809,309.664,230.947,308.509,231.1Zm7.344-.76-.1-1.232q1.827-.153,3.7-.295l.095,1.233Q317.674,230.187,315.853,230.338Zm151.225-.376c-1.109-.314-2.309-.62-3.566-.909l.277-1.205c1.277.294,2.5.6,3.626.924Zm-143.839-.2-.1-1.233q1.811-.143,3.687-.307l.109,1.232Q325.053,229.617,323.239,229.758Zm7.4-.663-.128-1.23c1.269-.132,2.47-.269,3.67-.417l.152,1.227C333.122,228.825,331.913,228.962,330.636,229.1Zm129.266-.8c-1.16-.223-2.384-.439-3.638-.643l.2-1.221c1.265.206,2.5.424,3.672.649Zm-121.886-.114-.178-1.224q.87-.127,1.757-.266.916-.144,1.913-.285l.173,1.224q-.987.14-1.894.282T338.016,228.18Zm7.333-1.025-.147-1.228c1.17-.14,2.414-.278,3.7-.41l.127,1.23C347.75,226.879,346.512,227.016,345.349,227.154Zm107.259-.054c-1.177-.164-2.412-.324-3.669-.475l.148-1.228c1.265.151,2.507.312,3.693.477Zm-99.893-.711-.112-1.232q1.8-.163,3.7-.317l.1,1.233Q354.508,226.227,352.714,226.39Zm92.546-.173c-1.2-.124-2.44-.244-3.686-.355l.11-1.232c1.252.112,2.5.232,3.7.356Zm-85.159-.424-.089-1.233q1.816-.13,3.708-.251l.079,1.234Q361.914,225.662,360.1,225.793Zm77.783-.238q-1.827-.14-3.7-.263l.082-1.234q1.874.123,3.709.264ZM367.5,225.32l-.07-1.235q1.829-.1,3.71-.2l.061,1.235Q369.324,225.216,367.5,225.32Zm62.991-.253q-1.836-.1-3.7-.189l.057-1.235q1.871.087,3.713.19Zm-55.585-.118-.054-1.235q1.837-.08,3.712-.151l.046,1.236Q376.738,224.869,374.9,224.949Zm48.181-.228q-1.842-.07-3.7-.127l.037-1.236q1.866.057,3.714.127Zm-40.772-.051-.039-1.236q1.843-.058,3.713-.107l.032,1.236Q384.154,224.611,382.313,224.669Zm33.362-.175q-1.847-.043-3.7-.073l.02-1.237q1.859.031,3.71.073Zm-25.95-.018-.025-1.236q1.849-.037,3.714-.064l.018,1.236Q391.572,224.439,389.726,224.477Zm18.542-.1q-1.852-.018-3.707-.024l0-1.237q1.858.006,3.715.024Zm-11.125,0-.011-1.237q1.854-.016,3.717-.021l0,1.237Q398.995,224.353,397.143,224.37Z" transform="translate(-174.944 -223.112)" fill="#475d37"/>
        </g>
        <g id="Grupo_1067767" data-name="Grupo 1067767" transform="translate(758.224 9416.342)">
          <path id="Trazado_808909" data-name="Trazado 808909" d="M1290.252,1154.661l-98.971,19.874v4.173l14.905-2.933v47.649h4.571v-48.548l66.974-13.18v61.728h4.77v-62.667l7.751-1.525Z" transform="translate(-1191.281 -1154.661)" fill="#12263f"/>
        </g>
        <g id="Grupo_1067768" data-name="Grupo 1067768" transform="translate(787.24 9445.159)">
          <path id="Trazado_808910" data-name="Trazado 808910" d="M1285.138,1256.322v31.5h4.968V1275.3h36.965v12.521h4.969v-39.946Zm41.735,1.888h-25.041l25.041-4.77Z" transform="translate(-1285.138 -1247.875)" fill="#12263f"/>
        </g>
        <path id="Trazado_808911" data-name="Trazado 808911" d="M1285.138,863.364v31.5h4.968v-12.52h36.965v12.52h4.969V854.917Zm41.735,1.888h-25.041l25.041-4.77Z" transform="translate(-468.555 8468.76)" fill="#12263f"/>
        <g id="Grupo_1067770" data-name="Grupo 1067770" transform="translate(436.051 9391.747)">
          <path id="Trazado_808912" data-name="Trazado 808912" d="M149.583,1150.757l-.436-1.157s1.238-.467,3.521-1.32l.433,1.158C150.821,1150.291,149.584,1150.756,149.583,1150.757Zm7.015-2.625-.432-1.159,3.492-1.3.431,1.159Zm6.981-2.6-.43-1.159,3.489-1.293.429,1.16Zm6.977-2.582-.428-1.16,3.489-1.287.428,1.161Zm6.976-2.571-.427-1.161,3.49-1.282.426,1.161Zm6.977-2.56-.425-1.161q1.715-.628,3.491-1.276l.424,1.162Q186.224,1137.193,184.508,1137.822Zm6.979-2.55-.423-1.161,3.492-1.271.423,1.162Zm6.982-2.538-.422-1.162,3.493-1.266.421,1.163Zm6.986-2.529-.42-1.163,3.495-1.26.419,1.164Zm6.989-2.517-.418-1.163,3.5-1.255.417,1.164Zm6.992-2.505-.416-1.165,3.5-1.248.415,1.165Zm7-2.493-.414-1.165,3.5-1.242.413,1.166Zm7-2.48-.412-1.166,3.49-1.23.411,1.167Zm6.985-2.459-.409-1.167,3.506-1.228.408,1.167Zm7.019-2.453-.407-1.168q1.754-.611,3.509-1.219l.4,1.168Zm7.016-2.434-.4-1.169q1.758-.607,3.512-1.211l.4,1.17Q256.21,1112.256,254.453,1112.864Zm7.022-2.415-.4-1.17,3.515-1.2.4,1.171Q263.236,1109.845,261.475,1110.448Zm7.029-2.4-.4-1.171q1.765-.6,3.519-1.19l.4,1.172Q270.269,1107.455,268.5,1108.053Zm7.037-2.372-.393-1.173q1.77-.593,3.524-1.177l.39,1.173Q277.311,1105.088,275.541,1105.681Zm7.046-2.345-.388-1.174q1.776-.587,3.529-1.163l.385,1.175Q284.362,1102.749,282.588,1103.336Zm7.056-2.315-.383-1.176q1.782-.58,3.535-1.145l.379,1.177Q291.424,1100.442,289.643,1101.021Zm7.067-2.278-.376-1.178q1.789-.571,3.543-1.125l.372,1.179Q298.5,1098.172,296.711,1098.743Zm7.082-2.234-.368-1.181q1.8-.561,3.552-1.1l.363,1.182Q305.59,1095.949,303.793,1096.509Zm7.1-2.179-.357-1.184q1.811-.547,3.563-1.066l.351,1.186Q312.7,1093.783,310.892,1094.33Zm7.12-2.107-.344-1.188q1.83-.53,3.578-1.022l.335,1.19Q319.837,1091.694,318.011,1092.222Zm215.8-.817a32.206,32.206,0,0,1-3.768-.255l.15-1.228a30.9,30.9,0,0,0,3.624.246Zm3.807-.316-.224-1.216c.456-.084.9-.188,1.33-.308l2.21-.619.333,1.191-2.207.618C538.6,1090.885,538.111,1091,537.617,1091.089Zm-11.279-.534c-1.12-.217-2.314-.475-3.649-.79l.284-1.2c1.319.31,2.5.565,3.6.779Zm-201.18-.342-.324-1.193c1.241-.337,2.453-.659,3.6-.957l.31,1.2C327.6,1089.557,326.4,1089.878,325.159,1090.214Zm219.686-1.073-.33-1.192,3.583-.99.329,1.192Zm-25.767-.272q-1.735-.448-3.592-.95l.321-1.194q1.852.5,3.58.947Zm-186.734-.513-.292-1.2c1.271-.309,2.493-.594,3.634-.846l.267,1.208C334.82,1087.766,333.606,1088.049,332.343,1088.356Zm219.665-1.192-.328-1.192,3.584-.985.327,1.193Zm-40.1-.214q-1.737-.47-3.58-.964l.319-1.2q1.845.493,3.584.965Zm-172.335-.177-.229-1.215q1.821-.342,3.647-.679l.224,1.216Q341.388,1086.432,339.569,1086.774Zm7.288-1.343-.22-1.217q1.824-.329,3.653-.651l.214,1.218Q348.678,1085.1,346.857,1085.432Zm212.318-.234-.327-1.193,3.585-.981.326,1.193Zm-54.433-.153q-1.748-.453-3.589-.911l.3-1.2q1.848.459,3.6.914Zm-150.587-.9-.209-1.219q1.827-.313,3.659-.618l.2,1.22Q355.98,1083.835,354.155,1084.147Zm143.4-.885c-1.213-.286-2.427-.563-3.608-.825l.268-1.207c1.186.263,2.405.542,3.624.829Zm68.788-.026-.326-1.193,3.585-.979.326,1.193Zm-204.879-.306-.2-1.221q1.83-.3,3.666-.582l.19,1.222Q363.292,1082.635,361.464,1082.93Zm7.321-1.141-.183-1.223q1.834-.275,3.672-.54l.176,1.224Q370.616,1081.514,368.785,1081.789Zm121.544-.129c-1.2-.249-2.423-.492-3.629-.723l.233-1.214c1.211.232,2.438.477,3.646.727Zm83.185-.381-.325-1.193,3.586-.977.325,1.193Zm-197.395-.547-.169-1.225q1.838-.253,3.68-.5l.161,1.226Q377.953,1080.479,376.119,1080.732Zm106.943-.464c-1.214-.214-2.442-.421-3.648-.614l.2-1.221c1.213.194,2.447.4,3.667.617Zm-99.6-.5-.153-1.227q1.841-.23,3.686-.446l.144,1.228Q385.3,1079.539,383.465,1079.767Zm197.224-.442-.325-1.193,2.59-.7.684-.186.165.6h.62c0,.473-.2.526-1.145.784Zm-104.933-.23c-1.209-.175-2.443-.344-3.666-.5l.158-1.227c1.23.159,2.469.328,3.684.5Zm-84.934-.191-.135-1.229q1.845-.2,3.693-.392l.126,1.23Q392.664,1078.7,390.823,1078.9Zm7.37-.753-.116-1.231q1.848-.174,3.7-.333l.106,1.232Q400.037,1077.978,398.193,1078.152Zm70.225,0c-1.215-.138-2.453-.27-3.679-.391l.121-1.231c1.232.121,2.476.254,3.7.393Zm-62.845-.631-.1-1.233q1.851-.143,3.7-.271l.085,1.234Q407.419,1077.374,405.574,1077.517Zm55.48-.1c-1.218-.1-2.46-.2-3.691-.29l.089-1.233c1.236.089,2.483.187,3.706.29Zm-48.091-.411-.073-1.234q1.854-.11,3.709-.2l.062,1.235Q414.811,1076.9,412.963,1077.01Zm40.707-.122c-1.227-.073-2.471-.139-3.7-.2l.058-1.235c1.231.058,2.48.125,3.712.2Zm-33.31-.249-.05-1.235q1.856-.076,3.713-.132l.037,1.236Q422.21,1076.564,420.36,1076.639Zm25.913-.1c-1.221-.043-2.466-.08-3.7-.108l.029-1.237c1.24.029,2.491.066,3.715.109Zm-18.511-.127-.025-1.236q1.857-.038,3.715-.056l.012,1.236Q429.613,1076.375,427.762,1076.413Zm11.108-.048c-1.211-.015-2.457-.023-3.7-.025V1075.1c1.251,0,2.5.01,3.717.024Z" transform="translate(-149.147 -1075.104)" fill="#475d37"/>
        </g>
        <g id="Grupo_1067771" data-name="Grupo 1067771" transform="translate(438.092 9385.118)">
          <path id="Trazado_808913" data-name="Trazado 808913" d="M156.078,1143.512l-.329-1.192s1.284-.354,3.611-1.011l.336,1.19C157.363,1143.157,156.078,1143.512,156.078,1143.512Zm7.208-2.032-.339-1.189c1.087-.31,2.283-.653,3.579-1.027l.343,1.188C165.571,1140.826,164.373,1141.17,163.286,1141.48Zm7.159-2.064-.345-1.187q1.7-.5,3.569-1.044l.348,1.187Q172.152,1138.919,170.444,1139.416Zm7.141-2.1-.351-1.186q1.73-.512,3.563-1.059l.354,1.185Q179.318,1136.807,177.585,1137.32Zm7.127-2.127-.356-1.184q1.743-.525,3.557-1.075l.359,1.183Q186.457,1134.667,184.712,1135.192Zm7.116-2.159-.362-1.182q1.75-.536,3.551-1.091l.365,1.182Q193.58,1132.5,191.828,1133.033Zm7.1-2.193-.367-1.181q1.754-.546,3.545-1.108l.37,1.18Q200.689,1130.294,198.932,1130.84Zm7.092-2.227-.373-1.179q1.757-.556,3.539-1.126l.377,1.178Q207.783,1128.056,206.025,1128.614Zm7.081-2.264-.38-1.177q1.758-.567,3.532-1.146l.383,1.176Q214.865,1125.781,213.105,1126.349Zm7.067-2.305-.387-1.174q1.758-.579,3.524-1.167l.391,1.173Q221.932,1123.464,220.172,1124.044Zm7.046-2.347-.394-1.172q1.758-.592,3.517-1.191l.4,1.17Q228.979,1121.1,227.218,1121.7Zm7.048-2.4-.4-1.169q1.756-.606,3.507-1.218l.408,1.167Q236.025,1118.688,234.266,1119.295Zm7.018-2.455-.413-1.165q1.754-.622,3.5-1.248l.419,1.163Q243.041,1116.217,241.284,1116.84Zm7-2.518-.424-1.162q1.751-.64,3.482-1.284l.431,1.159Q250.035,1113.68,248.28,1114.322Zm6.97-2.593-.438-1.156q1.748-.662,3.466-1.325l.446,1.153Q257,1111.066,255.25,1111.729Zm6.939-2.68-.454-1.15q1.744-.688,3.446-1.375l.463,1.147Q263.938,1108.359,262.189,1109.049Zm6.9-2.788-.474-1.143q1.737-.719,3.419-1.438l.486,1.137Q270.832,1105.538,269.088,1106.261Zm6.847-2.926-.5-1.132c1.16-.512,2.3-1.023,3.381-1.52l.515,1.124C278.242,1102.307,277.1,1102.821,275.935,1103.335Zm6.773-3.108-.534-1.115c1.15-.551,2.268-1.1,3.324-1.633l.557,1.1C284.991,1099.12,283.865,1099.673,282.707,1100.228Zm6.659-3.368-.586-1.089c1.137-.611,2.222-1.218,3.225-1.8l.623,1.068C291.614,1095.627,290.516,1096.241,289.366,1096.859Zm6.454-3.785-.674-1.036c.673-.438,1.316-.874,1.91-1.3l1.12-.8.718,1.007-1.12.8C297.165,1092.181,296.508,1092.628,295.82,1093.074Zm6.094-4.275-.716-1.008q1.523-1.082,3.027-2.146l.714,1.01Q303.436,1087.717,301.914,1088.8Zm193.994-1.423h-.41l.009-1.237h.4c1.1,0,2.2-.031,3.268-.09l.069,1.235C498.155,1087.345,497.032,1087.376,495.909,1087.376Zm-4.15-.133c-1.216-.076-2.469-.187-3.724-.329l.139-1.229c1.235.14,2.467.249,3.663.324Zm11.224-.3-.154-1.227c1.22-.153,2.436-.352,3.615-.591l.246,1.212C505.48,1086.586,504.233,1086.789,502.983,1086.947Zm-18.65-.537c-1.2-.19-2.435-.411-3.676-.658l.242-1.213c1.225.244,2.445.462,3.627.65Zm26.006-.96L510,1084.26q1.8-.514,3.574-1.008l.333,1.191Q512.139,1084.937,510.338,1085.449Zm-33.327-.49c-1.173-.275-2.39-.581-3.617-.908l.319-1.195c1.215.324,2.42.627,3.581.9Zm-169.041-.438-.71-1.013q1.532-1.073,3.047-2.121l.7,1.017Q309.5,1083.451,307.97,1084.522Zm209.509-1.067-.327-1.192q1.812-.5,3.584-.972l.321,1.194Q519.287,1082.959,517.479,1083.455Zm-47.673-.412c-1.154-.341-2.352-.71-3.56-1.1l.377-1.177c1.2.384,2.388.749,3.533,1.088Zm54.834-1.509-.314-1.2q1.82-.478,3.595-.933l.307,1.2Q526.456,1081.057,524.639,1081.534Zm-61.928-.758c-1.138-.389-2.32-.8-3.512-1.234l.42-1.163c1.186.428,2.36.841,3.491,1.227Zm-148.645-.466-.695-1.023q1.547-1.051,3.083-2.073l.684,1.03Q315.606,1079.263,314.066,1080.31Zm217.755-.618-.3-1.2q1.829-.457,3.606-.89l.293,1.2Q533.647,1079.237,531.82,1079.693Zm-76.111-1.439c-1.116-.421-2.284-.869-3.472-1.332l.45-1.152c1.183.462,2.347.908,3.458,1.327Zm83.314-.313-.284-1.2q1.841-.435,3.618-.841l.276,1.205Q540.86,1077.507,539.023,1077.941Zm7.225-1.65-.266-1.208q1.856-.408,3.632-.783l.255,1.21Q548.1,1075.883,546.247,1076.29Zm-226.014-.075-.671-1.038c1.062-.687,2.117-1.358,3.137-2l.656,1.048C322.341,1074.864,321.291,1075.532,320.233,1076.215Zm128.539-.665q-1.725-.693-3.448-1.4l.469-1.144q1.719.7,3.44,1.395Zm104.725-.789-.243-1.213q1.875-.376,3.648-.712l.23,1.215Q555.366,1074.386,553.5,1074.761Zm7.277-1.376-.215-1.218c1.255-.22,2.489-.428,3.669-.617l.195,1.221C563.25,1072.96,562.023,1073.166,560.774,1073.386Zm-118.885-.651q-1.715-.712-3.425-1.429l.478-1.14q1.708.714,3.422,1.427Zm-115.383-.44-.637-1.06c1.076-.648,2.155-1.283,3.207-1.887l.616,1.072C328.647,1071.02,327.575,1071.651,326.506,1072.295Zm241.575-.073L567.91,1071c1.293-.181,2.537-.339,3.7-.469l.138,1.229C570.6,1071.887,569.363,1072.044,568.081,1072.222Zm7.333-.807-.088-1.233c1.309-.093,2.494-.141,3.522-.141h.233l-.01,1.237h-.223C577.85,1071.278,576.694,1071.324,575.414,1071.416Zm-140.367-1.542-.1-.042q-1.666-.7-3.323-1.391l.476-1.141,3.325,1.392.1.042Zm-102.131-1.259-.592-1.086c1.107-.6,2.216-1.19,3.3-1.744l.564,1.1C335.113,1067.435,334.013,1068.017,332.915,1068.615Zm95.282-1.6q-1.722-.711-3.431-1.406l.465-1.146q1.713.7,3.438,1.409Zm-88.7-1.773-.534-1.115c1.126-.539,2.266-1.064,3.387-1.559l.5,1.131C341.738,1064.191,340.61,1064.71,339.5,1065.243Zm81.83-1.012c-1.193-.472-2.354-.924-3.453-1.344l.441-1.155c1.1.421,2.269.875,3.466,1.349Zm-75.081-1.968-.463-1.147c1.155-.467,2.325-.916,3.478-1.337l.424,1.162C348.544,1061.358,347.387,1061.8,346.245,1062.264Zm68.16-.673c-1.193-.436-2.366-.852-3.487-1.239l.4-1.169c1.129.388,2.309.808,3.509,1.246Zm-61.243-1.848-.382-1.176c1.181-.383,2.382-.749,3.568-1.086l.338,1.189C355.514,1059,354.328,1059.364,353.162,1059.743Zm54.247-.557c-1.2-.384-2.392-.746-3.534-1.076l.344-1.188c1.152.333,2.353.7,3.567,1.086Zm-47.161-1.457-.293-1.2c1.2-.293,2.426-.568,3.64-.816l.248,1.212C362.643,1057.168,361.434,1057.439,360.248,1057.729Zm40.065-.586c-1.22-.309-2.428-.59-3.59-.834l.255-1.21c1.178.248,2.4.532,3.638.846Zm-32.849-.888-.2-1.22c1.217-.2,2.459-.382,3.691-.539l.156,1.227C369.893,1055.877,368.666,1056.056,367.464,1056.254Zm25.642-.619c-1.245-.2-2.469-.359-3.641-.477l.123-1.231c1.2.12,2.445.283,3.713.487Zm-18.333-.31-.111-1.231c1.228-.111,2.479-.2,3.719-.269l.067,1.235C377.222,1055.126,375.986,1055.216,374.773,1055.325Zm7.359-.4-.025-1.236c.785-.016,1.583-.015,2.355-.024q.688,0,1.384.021l-.036,1.236c-.468-.013-.936-.021-1.4-.02C383.66,1054.9,382.892,1054.906,382.132,1054.921Z" transform="translate(-155.749 -1053.661)" fill="#475d37"/>
        </g>
        <g id="Grupo_1067772" data-name="Grupo 1067772" transform="translate(437.826 9387.388)">
          <path id="Trazado_808914" data-name="Trazado 808914" d="M155.749,1156.78l-.86-.888c.381-.369.782-.729,1.191-1.071l.793.948C156.487,1156.093,156.108,1156.433,155.749,1156.78Zm4.072-3.076-.622-1.069a24.983,24.983,0,0,1,3.422-1.65l.452,1.151A23.667,23.667,0,0,0,159.821,1153.7Zm39.673-1.321c-1.225,0-2.476-.015-3.719-.036l.021-1.237c1.236.021,2.481.033,3.7.036Zm3.72-.021-.017-1.237c1.257-.017,2.5-.044,3.7-.08l.038,1.236C205.728,1152.318,204.477,1152.346,203.213,1152.363Zm-11.155-.1q-1.081-.033-2.183-.075l-.084,0-.081-.026c-.005,0-.53-.169-1.443-.406l.311-1.2c.749.194,1.241.342,1.427.4q1.055.04,2.09.071Zm18.588-.124-.06-1.235c1.246-.061,2.487-.134,3.688-.217l.086,1.234C213.151,1152,211.9,1152.074,210.647,1152.135Zm7.422-.516-.113-1.232c1.245-.114,2.48-.242,3.672-.381l.143,1.228C220.569,1151.375,219.324,1151.5,218.069,1151.619Zm-51.54-.576-.3-1.2a33.821,33.821,0,0,1,3.713-.692l.16,1.226A32.541,32.541,0,0,0,166.529,1151.043Zm18.157-.085c-1.2-.223-2.425-.409-3.629-.55l.145-1.228c1.23.145,2.478.334,3.709.563Zm40.777-.2-.177-1.224c1.237-.178,2.462-.374,3.641-.58l.214,1.218C227.95,1150.377,226.713,1150.574,225.463,1150.754Zm-48.06-.648c-1.25-.057-2.483-.065-3.66-.024l-.043-1.236c1.21-.042,2.476-.035,3.76.025Zm55.4-.644-.256-1.21c1.22-.258,2.426-.536,3.586-.829l.3,1.2C235.258,1148.918,234.036,1149.2,232.8,1149.462Zm7.231-1.831-.356-1.184c1.2-.36,2.372-.745,3.49-1.145l.416,1.165C242.444,1146.873,241.25,1147.265,240.032,1147.63Zm7.034-2.525-.485-1.138c1.149-.49,2.264-1.011,3.315-1.549l.564,1.1C249.383,1144.07,248.241,1144.6,247.066,1145.105Zm6.662-3.433-.654-1.05c1.055-.657,2.063-1.353,2.994-2.07l.754.98C255.858,1140.274,254.817,1140.994,253.727,1141.672Zm5.949-4.608-.863-.885a26.635,26.635,0,0,0,2.416-2.692l.976.76A27.8,27.8,0,0,1,259.676,1137.065Zm4.627-5.983-1.082-.6a21.094,21.094,0,0,0,1.472-3.282l1.168.406A22.362,22.362,0,0,1,264.3,1131.082Zm2.482-7.181-1.222-.186a17.921,17.921,0,0,0,.209-2.693c0-.3-.008-.6-.025-.882l1.234-.071c.018.309.027.63.027.953A19.126,19.126,0,0,1,266.785,1123.9Zm1.4-6.576-.955-.786c.783-.952,1.591-1.91,2.4-2.847l.935.809C269.763,1115.431,268.961,1116.381,268.185,1117.325Zm4.833-5.588-.915-.831c.828-.911,1.682-1.828,2.539-2.725l.894.854C274.685,1109.924,273.838,1110.834,273.017,1111.737Zm5.1-5.343-.873-.875c.878-.875,1.775-1.749,2.67-2.6l.851.9C279.879,1104.659,278.989,1105.526,278.118,1106.394Zm5.358-5.087-.829-.917c.918-.829,1.857-1.658,2.793-2.463l.807.937C285.318,1099.662,284.386,1100.484,283.476,1101.307Zm5.6-4.819-.783-.957c.96-.786,1.939-1.569,2.909-2.325l.76.975C291,1094.931,290.028,1095.707,289.076,1096.488Zm5.827-4.543-.737-.993c.989-.733,2-1.467,3.019-2.182l.713,1.011C296.891,1090.49,295.884,1091.218,294.9,1091.945Zm6.04-4.257-.688-1.028c1.022-.684,2.071-1.369,3.119-2.035l.663,1.043C303,1086.329,301.956,1087.009,300.943,1087.688Zm285.182-2.282s-1.341-.126-3.714-.337l.109-1.232c2.378.212,3.721.338,3.721.338Zm-7.418-.661c-1.128-.1-2.367-.2-3.7-.314l.1-1.232c1.337.112,2.577.217,3.706.315Zm-7.407-.62q-1.775-.145-3.7-.3l.1-1.233c1.284.1,2.522.2,3.706.3Zm-264.121-.4-.639-1.059c1.058-.638,2.138-1.273,3.212-1.886l.614,1.073C309.3,1082.46,308.228,1083.09,307.179,1083.723Zm256.714-.184q-1.807-.138-3.7-.28l.092-1.233q1.9.142,3.707.28Zm-7.408-.551q-1.824-.131-3.7-.262l.085-1.234q1.88.13,3.708.262Zm-76.35-.513q-.7,0-1.432-.015l.025-1.237c1.3.027,2.542.017,3.672-.029l.051,1.235C481.72,1082.459,480.94,1082.475,480.135,1082.475Zm68.941,0q-1.837-.122-3.706-.241l.079-1.234q1.869.119,3.709.241Zm-74.11-.176c-1.18-.075-2.432-.174-3.722-.3l.116-1.231c1.277.12,2.517.219,3.684.293Zm11.244-.2-.181-1.223c.51-.075,1-.163,1.448-.261.648-.141,1.391-.271,2.208-.387l.174,1.224c-.787.111-1.5.236-2.119.371C487.262,1081.922,486.747,1082.015,486.209,1082.094Zm55.455-.091q-1.844-.112-3.7-.217l.071-1.235q1.857.106,3.7.218Zm-74.129-.4c-1.189-.141-2.432-.3-3.7-.477l.17-1.225c1.256.174,2.491.334,3.672.474Zm66.721-.024q-1.86-.1-3.715-.19l.06-1.235q1.857.091,3.721.19Zm-7.423-.364q-1.866-.083-3.709-.155l.049-1.235q1.845.072,3.715.155Zm-33.324-.157-.1-1.233c1.135-.089,2.388-.164,3.725-.222l.054,1.235C495.868,1080.9,494.629,1080.973,493.509,1081.06Zm25.906-.132q-1.877-.062-3.709-.11l.032-1.236q1.835.047,3.718.11Zm-7.418-.193q-1.892-.034-3.709-.049l.01-1.237q1.821.014,3.721.049Zm-11.111-.011-.026-1.236c1.178-.024,2.43-.04,3.72-.046l.006,1.237C503.3,1080.684,502.057,1080.7,500.886,1080.724Zm-40.731-.137c-1.179-.183-2.415-.383-3.675-.6l.206-1.219c1.254.212,2.485.411,3.658.593Zm-146.56-.531-.588-1.088c1.092-.59,2.2-1.173,3.3-1.733l.562,1.1C315.778,1078.892,314.678,1079.47,313.595,1080.056Zm139.22-.708q-1.815-.329-3.657-.683l.234-1.214q1.834.353,3.644.681Zm-7.306-1.4q-1.815-.367-3.642-.752l.255-1.21q1.821.383,3.632.749Zm-125.331-1.253-.537-1.114c1.11-.535,2.246-1.066,3.374-1.577l.51,1.126C322.405,1075.636,321.279,1076.162,320.177,1076.693Zm118.056-.279q-1.818-.4-3.633-.809l.273-1.206q1.809.409,3.624.807Zm-7.257-1.642q-1.818-.424-3.618-.856l.289-1.2q1.8.431,3.61.855Zm-104.066-1.13-.484-1.138c1.138-.484,2.3-.961,3.445-1.418l.457,1.149C329.187,1072.688,328.038,1073.162,326.909,1073.642Zm96.836-.6q-1.821-.449-3.607-.9l.3-1.2q1.781.45,3.6.9Zm-7.209-1.822q-1.826-.472-3.6-.942l.317-1.2q1.765.468,3.589.94Zm-82.759-.306-.43-1.159c1.165-.432,2.345-.854,3.508-1.254l.4,1.17C336.1,1070.062,334.933,1070.48,333.776,1070.909Zm75.571-1.6q-1.837-.5-3.586-.984l.331-1.191q1.743.484,3.579.982Zm-68.582-.806-.374-1.179c1.181-.375,2.38-.739,3.565-1.084l.345,1.188C343.127,1067.771,341.937,1068.133,340.766,1068.5Zm61.416-1.186q-1.86-.53-3.575-1.033l.348-1.186q1.708.5,3.565,1.03Zm-54.319-.876-.316-1.2c1.2-.318,2.42-.622,3.616-.9l.284,1.2C350.262,1065.826,349.056,1066.128,347.863,1066.442Zm47.177-1.219c-1.267-.384-2.464-.754-3.558-1.1l.373-1.179c1.09.345,2.282.714,3.544,1.1Zm-39.987-.48-.252-1.211c1.217-.254,2.448-.494,3.66-.712l.219,1.217C357.48,1064.254,356.26,1064.491,355.053,1064.743Zm7.27-1.307-.183-1.223c1.238-.186,2.482-.353,3.7-.5l.146,1.228C364.78,1063.087,363.549,1063.252,362.324,1063.435Zm25.64-.258c-1.114-.228-2.329-.418-3.61-.564l.14-1.229c1.317.15,2.568.346,3.718.581Zm-18.309-.6-.1-1.232c1.263-.106,2.517-.187,3.727-.243l.057,1.235C372.141,1062.387,370.9,1062.468,369.655,1062.573Zm11.041-.25c-1.11-.054-2.275-.082-3.463-.082h-.213l-.006-1.237h.219c1.208,0,2.393.028,3.522.083Z" transform="translate(-154.889 -1061.004)" fill="#475d37"/>
        </g>
        <path id="Trazado_808915" data-name="Trazado 808915" d="M716.585,758.586a9.426,9.426,0,0,0-3.534-6.6q-27.485-18.255-55.4-35.851a6.86,6.86,0,0,0-6.061-.006q-28.142,17.816-55.913,36.221c-1.82,1.211-3.173,4.441-3.251,6.785-.347,10.421.011,20.864-.227,31.291-.1,4.548,1.221,6.577,6.039,6.493,12.448-.216,24.9-.183,37.352-.01,3.851.053,5.563-1.2,5.829-4.541v-2.79c-.168-6.7-.183-13.409,0-20.108v-9.085h8.789c5.538-.128,11.208,0,17.342,0,0,9.214.082,17.921,0,26.549v6.025c.307,2.81,1.835,3.933,5.1,3.909q19.309-.141,38.62.01c4.09.039,5.579-1.659,5.52-5.725C716.638,780.3,716.949,769.433,716.585,758.586Zm-84.171,20.074H602.074V760.39h7.895c4.571-.2,9.16-.205,13.73,0h8.715Zm75.352,0h-30.34V760.39h30.34Z" transform="translate(-19.179 8565.125)" fill="#1b3f5e"/>
      </g>
    </g>
  </g>
</svg>
