<svg xmlns="http://www.w3.org/2000/svg" xmlns:xlink="http://www.w3.org/1999/xlink" width="141" height="141" viewBox="0 0 141 141">
  <defs>
    <clipPath id="clip-path">
      <rect id="Rect치ngulo_321603" data-name="Rect치ngulo 321603" width="128.612" height="128.604" fill="none"/>
    </clipPath>
  </defs>
  <g id="Grupo_1082415" data-name="Grupo 1082415" transform="translate(-745 -2778)">
    <g id="Grupo_1076523" data-name="Grupo 1076523" transform="translate(0 -14)">
      <path id="Trazado_821767" data-name="Trazado 821767" d="M259.863,70.5A70.5,70.5,0,1,1,189.363,0a70.5,70.5,0,0,1,70.5,70.5" transform="translate(626.137 2791.999)" fill="#1b3f5e"/>
      <g id="Grupo_1072349" data-name="Grupo 1072349" transform="translate(751.317 2798.32)" style="isolation: isolate">
        <g id="Grupo_253623" data-name="Grupo 253623" transform="translate(0 0)">
          <g id="Grupo_253622" data-name="Grupo 253622" clip-path="url(#clip-path)">
            <path id="Trazado_271692" data-name="Trazado 271692" d="M254.479,71.311A64.305,64.305,0,1,1,190.173,7.005a64.306,64.306,0,0,1,64.306,64.306" transform="translate(-125.867 -7.01)" fill="#e5dbd7"/>
          </g>
        </g>
      </g>
    </g>
    <g id="Grupo_1076529" data-name="Grupo 1076529" transform="translate(366 726)">
      <path id="Uni칩n_12" data-name="Uni칩n 12" d="M65,0A65,65,0,1,1,0,65,65,65,0,0,1,65,0Z" transform="translate(385 2058)" fill="#1b3f5e"/>
      <circle id="Elipse_4842" data-name="Elipse 4842" cx="50" cy="50" r="50" transform="translate(400 2073)" fill="#1b3f5e"/>
    </g>
    <g id="Grupo_1076531" data-name="Grupo 1076531" transform="translate(784.934 2807.363)">
      <path id="Trazado_809065" data-name="Trazado 809065" d="M274.309,818.505a4.2,4.2,0,0,1-3.048-3.077,5.412,5.412,0,0,1-.106-1.151q-.008-22.911,0-45.823a4.4,4.4,0,0,1,.011-.581,1.234,1.234,0,0,1,2.457-.033,5.748,5.748,0,0,1,.021.911q0,22.538,0,45.075c0,1.806.38,2.186,2.185,2.186h53.792c1.745,0,2.143-.4,2.143-2.146q0-37.895,0-75.79c0-1.685-.412-2.092-2.112-2.092H275.691c-1.626,0-2.049.428-2.049,2.071q0,12.12,0,24.24a4.746,4.746,0,0,1-.021.828,1.234,1.234,0,0,1-2.455-.036,4.621,4.621,0,0,1-.013-.663q0-12.286,0-24.572c0-2.774,1.6-4.357,4.389-4.357q27.145,0,54.29,0c2.847,0,4.42,1.569,4.42,4.41q0,37.853.028,75.707c0,2.443-.842,4.1-3.185,4.892Z" transform="translate(-271.146 -733.496)" fill="#fff"/>
      <path id="Trazado_809066" data-name="Trazado 809066" d="M310.688,760.732c0-.947-.012-1.8,0-2.649.019-1.078.445-1.514,1.52-1.515q12.078-.009,24.156,0c1.022,0,1.459.445,1.482,1.469.019.856,0,1.713,0,2.7h.924q4.607,0,9.214,0c1.3,0,1.685.39,1.685,1.676q0,18.8,0,37.6a3.607,3.607,0,0,1-.016.58,1.234,1.234,0,0,1-2.447.037,5.256,5.256,0,0,1-.026-.911q0-17.722,0-35.445v-1.006h-9.334c0,.895.013,1.745,0,2.6-.02,1.074-.461,1.519-1.523,1.52q-12.036.007-24.073,0c-1.114,0-1.548-.438-1.564-1.562-.012-.827,0-1.654,0-2.54h-9.277V827.77h45.776v-.991q0-10.376,0-20.753a3.371,3.371,0,0,1,.038-.826,1.235,1.235,0,0,1,2.433.086,3.641,3.641,0,0,1,.018.663q0,11.289,0,22.579c0,1.41-.365,1.783-1.749,1.783H300.613c-1.385,0-1.749-.371-1.749-1.782q0-33,0-65.992c0-1.462.341-1.8,1.806-1.8C303.96,760.73,307.251,760.732,310.688,760.732Zm2.539-1.633v5.741H335.3V759.1Z" transform="translate(-292.715 -751.446)" fill="#fff"/>
      <path id="Trazado_809067" data-name="Trazado 809067" d="M343.589,921.508c-1.382,0-2.765.015-4.147,0a3.389,3.389,0,0,1-3.486-3.287q-.113-4.393.005-8.789a3.324,3.324,0,0,1,3.358-3.229q4.27-.064,8.542,0a3.431,3.431,0,0,1,3.4,3.477q.043,4.147,0,8.294a3.49,3.49,0,0,1-3.605,3.534C346.3,921.517,344.943,921.508,343.589,921.508Zm-.026-2.49c1.271,0,2.541,0,3.812,0,1.059,0,1.4-.33,1.4-1.373q.01-3.812,0-7.624c0-1-.339-1.343-1.341-1.347q-3.853-.014-7.707,0c-.971,0-1.308.325-1.313,1.289q-.023,3.895,0,7.79c.006.95.356,1.257,1.338,1.263C341.022,919.023,342.293,919.017,343.563,919.017Z" transform="translate(-321.537 -867.866)" fill="#fff"/>
      <path id="Trazado_809068" data-name="Trazado 809068" d="M351.252,998.114c0,1.355.015,2.71,0,4.064a3.52,3.52,0,0,1-3.57,3.587q-4.105.043-8.212,0a3.447,3.447,0,0,1-3.538-3.431q-.093-4.228,0-8.46a3.389,3.389,0,0,1,3.426-3.448q4.227-.106,8.459,0a3.464,3.464,0,0,1,3.439,3.62C351.263,995.4,351.252,996.759,351.252,998.114Zm-2.49-.023c0-1.271.006-2.542,0-3.813-.006-1.007-.341-1.375-1.327-1.381q-3.855-.023-7.709,0c-.972.006-1.318.34-1.324,1.295q-.024,3.9,0,7.792c.006.941.374,1.292,1.322,1.3q3.854.015,7.709,0c.969,0,1.324-.381,1.33-1.375C348.768,1000.634,348.762,999.362,348.762,998.091Z" transform="translate(-321.523 -933.396)" fill="#fff"/>
      <path id="Trazado_809069" data-name="Trazado 809069" d="M351.252,829.415c0,1.355.011,2.71,0,4.064a3.444,3.444,0,0,1-3.434,3.613q-4.227.1-8.459,0a3.387,3.387,0,0,1-3.438-3.511q-.069-4.146,0-8.294a3.453,3.453,0,0,1,3.623-3.512q4.023-.025,8.046,0a3.52,3.52,0,0,1,3.661,3.657C351.263,826.76,351.252,828.088,351.252,829.415Zm-7.688-5.153c-1.271,0-2.542-.007-3.812,0-1.006.007-1.349.334-1.354,1.341q-.02,3.854,0,7.707c.006.972.333,1.308,1.3,1.314q3.9.025,7.79,0c.936-.007,1.269-.379,1.272-1.341q.011-3.853,0-7.707c0-.94-.366-1.3-1.3-1.311C346.161,824.253,344.862,824.262,343.564,824.262Z" transform="translate(-321.523 -802.185)" fill="#fff"/>
      <path id="Trazado_809070" data-name="Trazado 809070" d="M431.639,850.813c2.072,0,4.143-.006,6.215,0,1.052,0,1.593.452,1.574,1.268-.018.767-.571,1.216-1.558,1.217q-6.256.01-12.512,0c-.628,0-1.229-.163-1.381-.807a1.647,1.647,0,0,1,.262-1.274,1.735,1.735,0,0,1,1.187-.393C427.5,850.793,429.568,850.813,431.639,850.813Z" transform="translate(-390.051 -824.787)" fill="#fff"/>
      <path id="Trazado_809071" data-name="Trazado 809071" d="M431.324,937.586c-2.154,0-4.308.014-6.462-.008a1.174,1.174,0,0,1-1.274-1.141,1.225,1.225,0,0,1,1.2-1.316,6.261,6.261,0,0,1,.744-.02h9.114q1.326,0,2.651,0a5.454,5.454,0,0,1,.662.02,1.2,1.2,0,0,1,1.184,1.321,1.152,1.152,0,0,1-1.272,1.139C435.688,937.593,433.506,937.586,431.324,937.586Z" transform="translate(-389.773 -890.382)" fill="#fff"/>
      <path id="Trazado_809072" data-name="Trazado 809072" d="M431.332,1021.98c-2.072,0-4.144,0-6.216,0-.986,0-1.529-.447-1.533-1.228s.555-1.255,1.521-1.257q6.257-.01,12.514,0c.969,0,1.527.472,1.53,1.245s-.539,1.237-1.518,1.24C435.531,1021.984,433.431,1021.98,431.332,1021.98Z" transform="translate(-389.771 -956.052)" fill="#fff"/>
      <path id="Trazado_809073" data-name="Trazado 809073" d="M427.776,1042.382c.94,0,1.881-.016,2.821.005.867.019,1.368.488,1.368,1.224a1.23,1.23,0,0,1-1.363,1.248q-2.821.042-5.643,0a1.231,1.231,0,0,1-1.367-1.243c0-.763.512-1.215,1.444-1.23C425.95,1042.369,426.863,1042.381,427.776,1042.382Z" transform="translate(-389.779 -973.864)" fill="#fff"/>
      <path id="Trazado_809074" data-name="Trazado 809074" d="M427.733,875.993c-.937,0-1.874.014-2.811,0a1.239,1.239,0,1,1-.057-2.473q2.893-.04,5.787,0a1.239,1.239,0,1,1-.026,2.473C429.663,876.007,428.7,875.993,427.733,875.993Z" transform="translate(-389.767 -842.442)" fill="#fff"/>
      <path id="Trazado_809075" data-name="Trazado 809075" d="M427.8,912.386c.91,0,1.819-.01,2.729,0s1.435.493,1.427,1.25a1.242,1.242,0,0,1-1.368,1.231q-2.811.027-5.623,0a1.246,1.246,0,0,1-1.385-1.215c-.018-.762.516-1.254,1.409-1.266C425.929,912.376,426.866,912.386,427.8,912.386Z" transform="translate(-389.771 -872.703)" fill="#fff"/>
      <path id="Trazado_809076" data-name="Trazado 809076" d="M427.788,957.988c.937,0,1.874-.012,2.811,0a1.244,1.244,0,1,1,.017,2.477q-2.852.033-5.7,0a1.23,1.23,0,0,1-1.322-1.277c.018-.733.526-1.186,1.387-1.2C425.913,957.977,426.85,957.988,427.788,957.988Z" transform="translate(-389.776 -908.19)" fill="#fff"/>
      <path id="Trazado_809077" data-name="Trazado 809077" d="M427.834,996.79c.941,0,1.882-.019,2.822.006a1.233,1.233,0,1,1,.057,2.463q-2.946.051-5.893,0a1.193,1.193,0,0,1-1.225-1.29,1.177,1.177,0,0,1,1.251-1.166c1-.03,1.992-.007,2.988-.007Z" transform="translate(-389.779 -938.384)" fill="#fff"/>
      <path id="Trazado_809078" data-name="Trazado 809078" d="M427.726,830.407c-.913,0-1.826.014-2.739,0-.874-.016-1.377-.464-1.395-1.2a1.23,1.23,0,0,1,1.332-1.276q2.864-.037,5.728,0a1.239,1.239,0,1,1-.02,2.471C429.664,830.423,428.7,830.407,427.726,830.407Z" transform="translate(-389.778 -806.968)" fill="#fff"/>
      <path id="Trazado_809079" data-name="Trazado 809079" d="M358.354,930.923c.62-.666,1.172-1.281,1.749-1.872a1.244,1.244,0,1,1,1.822,1.676c-.848.943-1.707,1.877-2.591,2.787a1.239,1.239,0,0,1-1.955.008q-.574-.536-1.111-1.111a1.242,1.242,0,0,1-.119-1.836,1.263,1.263,0,0,1,1.843.048C358.1,930.708,358.2,930.8,358.354,930.923Z" transform="translate(-337.021 -885.294)" fill="#fff"/>
      <path id="Trazado_809080" data-name="Trazado 809080" d="M358.344,1015.227c.61-.649,1.166-1.259,1.743-1.85a1.221,1.221,0,0,1,1.826-.2,1.263,1.263,0,0,1-.022,1.9c-.831.921-1.672,1.834-2.537,2.723a1.235,1.235,0,0,1-2.009,0q-.54-.512-1.052-1.053a1.25,1.25,0,0,1-.174-1.834c.51-.565,1.176-.55,1.9.045Z" transform="translate(-337.017 -950.888)" fill="#fff"/>
      <path id="Trazado_809081" data-name="Trazado 809081" d="M358.355,846.536c.617-.665,1.167-1.282,1.743-1.873a1.245,1.245,0,1,1,1.828,1.673c-.844.946-1.7,1.88-2.586,2.791a1.247,1.247,0,0,1-1.958.018c-.364-.337-.711-.693-1.054-1.051-.644-.672-.7-1.342-.183-1.893s1.181-.505,1.9.09C358.129,846.358,358.215,846.424,358.355,846.536Z" transform="translate(-337.019 -819.622)" fill="#fff"/>
    </g>
  </g>
</svg>
