<svg xmlns="http://www.w3.org/2000/svg" xmlns:xlink="http://www.w3.org/1999/xlink" width="141" height="141" viewBox="0 0 141 141">
  <defs>
    <clipPath id="clip-path">
      <rect id="Rect치ngulo_321603" data-name="Rect치ngulo 321603" width="128.612" height="128.604" fill="none"/>
    </clipPath>
  </defs>
  <g id="Grupo_1076525" data-name="Grupo 1076525" transform="translate(-364 -2011)">
    <g id="Grupo_1075455" data-name="Grupo 1075455">
      <path id="Trazado_821767" data-name="Trazado 821767" d="M259.863,70.5A70.5,70.5,0,1,1,189.363,0a70.5,70.5,0,0,1,70.5,70.5" transform="translate(245.137 2010.999)" fill="#1b3f5e"/>
      <g id="Grupo_1072349" data-name="Grupo 1072349" transform="translate(370.317 2017.32)" style="isolation: isolate">
        <g id="Grupo_253623" data-name="Grupo 253623" transform="translate(0 0)">
          <g id="Grupo_253622" data-name="Grupo 253622" clip-path="url(#clip-path)">
            <path id="Trazado_271692" data-name="Trazado 271692" d="M254.479,71.311A64.305,64.305,0,1,1,190.173,7.005a64.306,64.306,0,0,1,64.306,64.306" transform="translate(-125.867 -7.01)" fill="#e5dbd7"/>
          </g>
        </g>
      </g>
    </g>
    <g id="Grupo_1075456" data-name="Grupo 1075456" transform="translate(-15 -41)">
      <path id="Uni칩n_12" data-name="Uni칩n 12" d="M65,0A65,65,0,1,1,0,65,65,65,0,0,1,65,0Z" transform="translate(385 2058)" fill="#1b3f5e"/>
      <circle id="Elipse_4842" data-name="Elipse 4842" cx="50" cy="50" r="50" transform="translate(400 2073)" fill="#1b3f5e"/>
    </g>
    <g id="Grupo_1068059" data-name="Grupo 1068059" transform="translate(-241.467 1381.813)">
      <path id="Trazado_809020" data-name="Trazado 809020" d="M671.326,774.806c1.205-.937,2.39-1.825,3.528-2.769a1.383,1.383,0,0,0,.36-.887,4.384,4.384,0,0,1,5.381-4.3c1.164.174,2.329.347,3.486.564.944.177,1.408-.13,1.542-1.122.308-2.263.654-4.523,1.061-6.771.622-3.439,3.5-4.2,6.237-3.552.337.079.691.977.685,1.491-.056,5.163-.169,10.325-.31,15.487a2.177,2.177,0,0,0,.773,2.007.467.467,0,0,1,.135.157c1.016,2.094,2.932,2.751,5,3.394,8.85,2.758,17.664,5.631,26.492,8.461.23.074.535.077.678.232.351.379.917.858.875,1.24-.089.82-.835.78-1.475.583-1.223-.378-2.439-.778-3.652-1.185-.485-.163-.777-.189-.971.45a67.344,67.344,0,0,0-2.263,7.325c-.226,1.237.588,2.673.99,4,.033.109.51.114.78.115,1.975.009,3.951.006,5.926.005.694,0,1.427.06,1.444.95.017.957-.741,1.023-1.478,1.023h-81.82c-.9,0-1.6-.165-1.465-1.337.015-.127-.408-.411-.654-.447a9.526,9.526,0,0,1-8.32-9.616,9.128,9.128,0,0,1,3.231-6.945,1.33,1.33,0,0,0,.536-1.4c-.557-3.416-1.043-6.845-1.568-10.266a4.285,4.285,0,0,1,4.371-5.252c1.106.006,1.394-.308,1.33-1.369-.092-1.519-.02-3.048-.024-4.573a2.057,2.057,0,0,1,1.323-2.034,1.092,1.092,0,0,0,.545-.782q.077-2.441,0-4.885a1.8,1.8,0,0,0-.47-1.064c-.869-.941-1.814-1.812-2.7-2.738a2.64,2.64,0,0,1-.1-3.81,2.592,2.592,0,0,1,3.806.072,50.48,50.48,0,0,1,3.865,3.92,4.433,4.433,0,0,1,.891,2.431c.127,1.967.012,3.949.071,5.922a1.3,1.3,0,0,0,.635.925,2.016,2.016,0,0,1,1.306,1.933c0,1.663.045,3.328-.014,4.99-.029.809.194,1.055,1.028,1.047,4.089-.044,8.178-.022,12.267-.017a12.606,12.606,0,0,1,1.347.064c.465.051,1.135.381,1.348.187a13.362,13.362,0,0,0,1.748-2.179c.056-.079-.126-.417-.276-.538a17.731,17.731,0,0,1-1.725-1.326c-.24-.249-.2-.77-.287-1.167.4-.056.94-.307,1.186-.137q2.907,2.007,5.7,4.179c.236.184.155.774.221,1.176-.4.042-.8.089-1.2.119-.054,0-.114-.072-.171-.111-.626-.423-1.355-1.281-1.85-1.161-.616.148-1.015,1.124-1.551,1.7-.42.453-.33.776-.084,1.333.7,1.577,1.224,3.228,1.814,4.852C671.012,773.875,671.172,774.358,671.326,774.806ZM653.1,768.349q-5.817,0-11.634,0c-2.51,0-3.386,1.014-3.012,3.511.441,2.942.951,5.873,1.35,8.82.117.864.322.971,1.147.71a9.4,9.4,0,0,1,11.389,4.815,1.265,1.265,0,0,0,1.319.855q6.543-.055,13.087,0c.8.006,1.071-.172.99-1.031a14.63,14.63,0,0,1,1.886-8.582,1.759,1.759,0,0,0,.107-1.239c-.576-1.847-1.224-3.672-1.851-5.5-.676-1.975-1.214-2.353-3.353-2.354Q658.811,768.346,653.1,768.349ZM695.9,784.9a13.151,13.151,0,1,0-13.141,13.163A13.133,13.133,0,0,0,695.9,784.9Zm-9.276,14.831q11.578,0,23.155.006c.66,0,.634-.274.46-.772-.55-1.566-1.145-3.123-1.555-4.726a5.24,5.24,0,0,1-.031-2.571c.612-2.231,1.38-4.421,2.128-6.612.2-.586.107-.831-.511-1.014-1.823-.539-3.619-1.168-5.445-1.695a.973.973,0,0,0-.848.423c-.427,1.093-.635,2.28-1.133,3.334a7.85,7.85,0,0,0,.051,7.222,18.05,18.05,0,0,1,.789,2.249c.215.639.292,1.292-.495,1.555s-1.124-.265-1.344-.926c-.621-1.87-1.3-3.723-1.861-5.611a3.318,3.318,0,0,1,0-1.79c.644-2.188,1.391-4.345,2.076-6.521.081-.257.091-.779,0-.809-1.632-.573-3.284-1.091-5.063-1.662A15.551,15.551,0,0,1,686.622,799.727Zm-7.762-.068.031-.128c-.113-.04-.225-.084-.338-.12a15.267,15.267,0,0,1-10.169-9.763,1.354,1.354,0,0,0-1.054-.606c-4.364-.042-8.729,0-13.093-.048-.834-.009-.909.256-.887,1a9.3,9.3,0,0,1-4.7,8.673c-.542.336-1.138.586-1.933.989Zm-35.033-1.606a7.606,7.606,0,1,0-7.609-7.568A7.615,7.615,0,0,0,643.827,798.054Zm71.2,1.675a11.814,11.814,0,0,1,1.453.01c1.076.134,1.405-.222.887-1.219a5.4,5.4,0,0,1-.061-4.761c.766-1.922,1.293-3.938,1.975-5.9.235-.675.112-.945-.6-1.132-1.268-.334-2.505-.785-3.754-1.193-2.062-.672-2.061-.674-2.752,1.439a10.082,10.082,0,0,1-.466,1.373,9.932,9.932,0,0,0,.009,9.1C712.734,799.642,712.547,799.728,715.031,799.728Zm-23.644-27.22c.1-4.909.2-9.61.252-14.312,0-.169-.424-.484-.658-.492a2.472,2.472,0,0,0-2.435,2.363c-.355,2.257-.706,4.514-1.067,6.77a2.716,2.716,0,0,1-3.377,2.5c-1.337-.183-2.668-.412-4-.6a2.147,2.147,0,0,0-2.706,2.044A15.315,15.315,0,0,1,691.387,772.509ZM649.478,763.4l-.046,0a21.14,21.14,0,0,0-.033-2.383.986.986,0,0,0-.678-.668,38.039,38.039,0,0,0-3.94,0,.994.994,0,0,0-.666.694c-.079,1-.033,2-.033,3.007,0,2.349,0,2.361,2.386,2.344.956-.007,2.274.283,2.768-.216S649.431,764.362,649.478,763.4Zm-2.075-8.869c0-1.005.036-2.012-.019-3.014a1.863,1.863,0,0,0-.405-1.108c-1.189-1.26-2.411-2.491-3.685-3.664-.238-.219-.766-.125-1.16-.175.071.39.01.9.236,1.151.949,1.055,2.027,1.995,2.965,3.057a2.687,2.687,0,0,1,.639,1.535c.079,1.729.037,3.464.027,5.2,0,.5.026.861.7.868.657.007.722-.314.71-.833C647.386,756.545,647.4,755.54,647.4,754.535Z" transform="translate(-2.758 -68.064)" fill="#fff"/>
      <path id="Trazado_809021" data-name="Trazado 809021" d="M842.87,683.164a8.448,8.448,0,1,1,8.391,8.52A8.463,8.463,0,0,1,842.87,683.164Zm8.414,6.557a6.509,6.509,0,1,0-6.494-6.559A6.539,6.539,0,0,0,851.284,689.721Z" transform="translate(-153.394 -17.766)" fill="#fff"/>
      <path id="Trazado_809022" data-name="Trazado 809022" d="M633.976,945.492a12.232,12.232,0,0,1-2.382-.043c-.421-.084-.754-.612-1.127-.939.373-.326.728-.909,1.12-.935a38.871,38.871,0,0,1,4.881,0c.372.023.712.574,1.067.883-.354.345-.666.908-1.073.988A13.118,13.118,0,0,1,633.976,945.492Z" transform="translate(0 -211.86)" fill="#fff"/>
      <path id="Trazado_809023" data-name="Trazado 809023" d="M914.34,701.614a3.205,3.205,0,0,1,1.227.033c.377.171.869.59.88.916a1.267,1.267,0,0,1-.836.924,10.142,10.142,0,0,1-2.782,0c-.34-.047-.9-.643-.851-.881a1.631,1.631,0,0,1,.926-.964,4.139,4.139,0,0,1,1.435-.037Z" transform="translate(-203.301 -37.138)" fill="#fff"/>
      <path id="Trazado_809024" data-name="Trazado 809024" d="M820.684,703.54a3.751,3.751,0,0,1-1.331-.035c-.37-.151-.857-.588-.861-.9a1.263,1.263,0,0,1,.817-.932,10.053,10.053,0,0,1,2.782-.006c.345.048.913.647.864.89a1.67,1.67,0,0,1-.94.959,3.631,3.631,0,0,1-1.331.035Z" transform="translate(-135.788 -37.143)" fill="#fff"/>
      <path id="Trazado_809025" data-name="Trazado 809025" d="M826.275,726.406c-.385-.351-.813-.559-.87-.841a1.261,1.261,0,0,1,.323-1.07,14.283,14.283,0,0,1,2.511-1.445,1.2,1.2,0,0,1,1.073.261c.194.2.253.893.1,1.008C828.432,725.054,827.378,725.69,826.275,726.406Z" transform="translate(-140.769 -52.624)" fill="#fff"/>
      <path id="Trazado_809026" data-name="Trazado 809026" d="M826.265,675.25c1.11.714,2.165,1.343,3.145,2.074.153.114.1.816-.1,1.008a1.217,1.217,0,0,1-1.08.264,14.144,14.144,0,0,1-2.507-1.439,1.262,1.262,0,0,1-.327-1.067C825.455,675.81,825.88,675.6,826.265,675.25Z" transform="translate(-140.767 -18.136)" fill="#fff"/>
      <path id="Trazado_809027" data-name="Trazado 809027" d="M910.662,725.332c-.237.826-.672,1.257-1.406.919a12.505,12.505,0,0,1-2.412-1.413c-.277-.214-.484-1-.324-1.188a1.415,1.415,0,0,1,1.262-.384,12.367,12.367,0,0,1,2.344,1.32C910.382,724.755,910.512,725.115,910.662,725.332Z" transform="translate(-199.32 -52.784)" fill="#fff"/>
      <path id="Trazado_809028" data-name="Trazado 809028" d="M907.325,679.612c-.369-.3-.8-.475-.879-.754a1.223,1.223,0,0,1,.23-1.079,14.935,14.935,0,0,1,2.588-1.507,1.219,1.219,0,0,1,1.076.3c.186.192.218.882.057,1C909.445,678.293,908.415,678.908,907.325,679.612Z" transform="translate(-199.282 -18.846)" fill="#fff"/>
      <path id="Trazado_809029" data-name="Trazado 809029" d="M846.825,661.33c-1.171.012-2.952-2.987-2.573-3.716a.914.914,0,0,1,1.55-.178,13.125,13.125,0,0,1,1.517,2.7C847.446,660.459,846.965,661.02,846.825,661.33Z" transform="translate(-154.355 -5.013)" fill="#fff"/>
      <path id="Trazado_809030" data-name="Trazado 809030" d="M891.731,661.687c-.85-.172-1.187-.677-.881-1.367a12.875,12.875,0,0,1,1.455-2.49,1.269,1.269,0,0,1,1.157-.258,1.09,1.09,0,0,1,.458.977,26.17,26.17,0,0,1-1.615,2.862C892.2,661.575,891.895,661.613,891.731,661.687Z" transform="translate(-187.964 -5.336)" fill="#fff"/>
      <path id="Trazado_809031" data-name="Trazado 809031" d="M847.518,739.295c-.7,1.067-1.34,2.115-2.071,3.1-.11.149-.727.115-.933-.052-.243-.2-.5-.729-.394-.945a20.626,20.626,0,0,1,1.666-2.846c.138-.2.719-.226,1.023-.122C847.068,738.516,847.221,738.909,847.518,739.295Z" transform="translate(-154.28 -63.718)" fill="#fff"/>
      <path id="Trazado_809032" data-name="Trazado 809032" d="M871.606,652.525a3.633,3.633,0,0,1-.036,1.331c-.158.37-.609.844-.936.847-.3,0-.829-.522-.88-.869a9.12,9.12,0,0,1,0-2.681c.058-.377.6-.679.915-1.015a4.258,4.258,0,0,1,.915,1.053,3.769,3.769,0,0,1,.034,1.333Z" transform="translate(-172.737 0)" fill="#fff"/>
      <path id="Trazado_809033" data-name="Trazado 809033" d="M891.738,738.018c.157.068.466.1.568.265a26.051,26.051,0,0,1,1.616,2.86,1.094,1.094,0,0,1-.458.982,1.267,1.267,0,0,1-1.157-.259,12.889,12.889,0,0,1-1.455-2.49C890.547,738.69,890.869,738.177,891.738,738.018Z" transform="translate(-187.965 -63.465)" fill="#fff"/>
      <path id="Trazado_809034" data-name="Trazado 809034" d="M871.646,746.2a3.071,3.071,0,0,1-.034,1.227c-.189.392-.632.66-.966.982-.3-.314-.817-.6-.863-.946a11.009,11.009,0,0,1,.007-2.786c.041-.323.571-.849.821-.818a1.447,1.447,0,0,1,.983.8,4.622,4.622,0,0,1,.041,1.538Z" transform="translate(-172.769 -67.679)" fill="#fff"/>
      <path id="Trazado_809035" data-name="Trazado 809035" d="M694.694,838.7c0-1.109.007-2.218,0-3.327-.006-.717.249-1.361,1.021-1.211a1.583,1.583,0,0,1,1,1.135c.1,2.318.1,4.644,0,6.962-.017.41-.655.794-1.006,1.19-.335-.4-.909-.781-.96-1.219A30.634,30.634,0,0,1,694.694,838.7Z" transform="translate(-46.363 -132.88)" fill="#fff"/>
      <path id="Trazado_809036" data-name="Trazado 809036" d="M678.429,838.7c0-1.069.005-2.138,0-3.208-.005-.746.233-1.35,1.072-1.341.782.009,1,.583,1,1.292q-.015,3.363,0,6.727c0,.706-.218,1.284-1,1.291-.842.008-1.071-.606-1.068-1.346C678.432,840.977,678.429,839.838,678.429,838.7Z" transform="translate(-34.636 -132.891)" fill="#fff"/>
      <path id="Trazado_809037" data-name="Trazado 809037" d="M662.213,838.731q0-1.611,0-3.221c0-.747.108-1.464,1.061-1.454.893.01.993.688.991,1.4q-.009,3.221,0,6.443c0,.756-.111,1.486-1.043,1.463s-1.017-.771-1.012-1.514C662.219,840.809,662.213,839.77,662.213,838.731Z" transform="translate(-22.925 -132.822)" fill="#fff"/>
      <path id="Trazado_809038" data-name="Trazado 809038" d="M785.873,876.195a8.8,8.8,0,1,1,8.814-8.778A8.777,8.777,0,0,1,785.873,876.195Zm6.856-8.814a6.872,6.872,0,1,0-6.848,6.876A6.854,6.854,0,0,0,792.729,867.38Z" transform="translate(-105.877 -150.548)" fill="#fff"/>
      <path id="Trazado_809039" data-name="Trazado 809039" d="M656.8,903.008a4.523,4.523,0,1,1,4.58-4.426A4.561,4.561,0,0,1,656.8,903.008ZM659.4,898.5a2.561,2.561,0,1,0-5.122-.022,2.561,2.561,0,1,0,5.122.022Z" transform="translate(-15.772 -176.086)" fill="#fff"/>
    </g>
  </g>
</svg>
