<svg xmlns="http://www.w3.org/2000/svg" xmlns:xlink="http://www.w3.org/1999/xlink" width="252.445" height="282.535" viewBox="0 0 252.445 282.535">
  <defs>
    <clipPath id="clip-path">
      <path id="Trazado_829748" data-name="Trazado 829748" d="M113.48,171.424a6.115,6.115,0,0,1,1.6.687A14.089,14.089,0,0,1,121.49,183.1a8.833,8.833,0,0,1-.229,1.716,14.732,14.732,0,0,1-2.517,3.662c.343,3.547.687,21.055-1.488,23.229-1.259,1.259-10.756-2.517-10.756-2.517s2.861-19.8,6.523-23.916c-2.4-2.4-4.348-6.294-4.348-9.383C108.674,172.34,110.734,170.623,113.48,171.424Z" transform="translate(-106.5 -171.23)"/>
    </clipPath>
  </defs>
  <g id="_15" data-name="15" transform="translate(-13.131 -9.295)">
    <g id="Grupo_1080864" data-name="Grupo 1080864" transform="translate(149.335 91.643)">
      <g id="Grupo_1080861" data-name="Grupo 1080861">
        <path id="Trazado_829699" data-name="Trazado 829699" d="M133.808,82.679h-.114l-1.373-.8c-.114-.114-.229-.343-.114-.458s.343-.229.458-.114l1.373.8c.114.114.229.343.114.458A.42.42,0,0,1,133.808,82.679Z" transform="translate(-132.159 -81.259)" fill="#2d4057"/>
      </g>
      <g id="Grupo_1080862" data-name="Grupo 1080862" transform="translate(4.119 2.517)">
        <path id="Trazado_829700" data-name="Trazado 829700" d="M243.37,147.358h-.114l-2.746-1.6c-.114-.114-.229-.343-.114-.458s.343-.229.458-.114l2.746,1.6c.114.114.229.343.114.458C243.6,147.244,243.485,147.358,243.37,147.358Zm-5.493-3.318h-.114l-2.746-1.6c-.114-.114-.229-.343-.114-.458s.343-.229.458-.114l2.746,1.6c.114.114.229.343.114.458C237.992,144.04,237.992,144.04,237.878,144.04Zm-5.607-3.2h-.114l-2.746-1.6c-.114-.114-.229-.343-.114-.458s.343-.229.458-.114l2.746,1.6c.114.114.229.343.114.458A.42.42,0,0,1,232.271,140.836Zm-5.493-3.2h-.114l-2.746-1.6c-.114-.114-.229-.343-.114-.458s.343-.229.458-.114l2.746,1.6c.114.114.229.343.114.458C227.007,137.517,226.892,137.632,226.778,137.632Zm-5.493-3.318h-.114l-2.746-1.6c-.114-.114-.229-.343-.114-.458s.343-.229.458-.114l2.746,1.6c.114.114.229.343.114.458A.42.42,0,0,1,221.285,134.313Zm-5.493-3.2h-.114l-2.746-1.6c-.114-.114-.229-.343-.114-.458s.343-.229.458-.114l2.746,1.6c.114.114.229.343.114.458C216.022,130.995,215.907,131.109,215.793,131.109Zm-5.493-3.2h-.114l-2.746-1.6c-.114-.114-.229-.343-.114-.458s.343-.229.458-.114l2.746,1.6c.114.114.229.343.114.458C210.529,127.79,210.415,127.9,210.3,127.9Zm-5.493-3.318h-.114l-2.746-1.6c-.114-.114-.229-.343-.114-.458s.343-.229.458-.114l2.746,1.6c.114.114.229.343.114.458A.42.42,0,0,1,204.807,124.586Zm-5.493-3.2H199.2l-2.746-1.6c-.114-.114-.229-.343-.114-.458s.343-.229.458-.114l2.746,1.6c.114.114.229.343.114.458C199.544,121.268,199.429,121.382,199.315,121.382Zm-5.493-3.318h-.114l-2.746-1.6c-.114-.114-.229-.343-.114-.458s.343-.229.458-.114l2.746,1.6c.114.114.229.343.114.458A.42.42,0,0,1,193.822,118.064Zm-5.493-3.2h-.114l-2.746-1.6c-.114-.114-.229-.343-.114-.458s.343-.229.458-.114l2.746,1.6c.114.114.229.343.114.458C188.558,114.745,188.444,114.86,188.329,114.86Zm-5.493-3.2h-.114l-2.746-1.6c-.114-.114-.229-.343-.114-.458s.343-.229.458-.114l2.746,1.6c.114.114.229.343.114.458C183.066,111.541,182.951,111.656,182.837,111.656Zm-5.493-3.318h-.114l-2.746-1.6c-.114-.114-.229-.343-.114-.458s.343-.229.458-.114l2.746,1.6c.114.114.229.343.114.458A.42.42,0,0,1,177.344,108.337Zm-5.493-3.2h-.114l-2.746-1.6c-.114-.114-.229-.343-.114-.458s.343-.229.458-.114l2.746,1.6c.114.114.229.343.114.458C172.08,105.019,171.966,105.133,171.852,105.133Zm-5.493-3.318h-.114l-2.746-1.6c-.114-.114-.229-.343-.114-.458s.343-.229.458-.114l2.746,1.6c.114.114.229.343.114.458A.42.42,0,0,1,166.359,101.815Zm-5.493-3.2h-.114l-2.746-1.6c-.114-.114-.229-.343-.114-.458s.343-.229.458-.114l2.746,1.6c.114.114.229.343.114.458A.886.886,0,0,1,160.866,98.611Zm-5.607-3.2h-.114L152.4,93.8c-.114-.114-.229-.343-.114-.458s.343-.229.458-.114l2.746,1.6c.114.114.229.343.114.458C155.488,95.292,155.374,95.407,155.259,95.407Zm-5.493-3.318h-.114l-2.746-1.6c-.114-.114-.229-.343-.114-.458s.343-.229.458-.114l2.746,1.6c.114.114.229.343.114.458A.42.42,0,0,1,149.766,92.088Zm-5.493-3.2h-.114l-2.746-1.6c-.114-.114-.229-.343-.114-.458s.343-.229.458-.114l2.746,1.6c.114.114.229.343.114.458C144.5,88.77,144.388,88.884,144.274,88.884Zm-5.493-3.2h-.114l-2.746-1.6c-.114-.114-.229-.343-.114-.458s.343-.229.458-.114l2.746,1.6c.114.114.229.343.114.458C139.01,85.566,138.9,85.68,138.781,85.68Z" transform="translate(-135.759 -83.459)" fill="#2d4057"/>
      </g>
      <g id="Grupo_1080863" data-name="Grupo 1080863" transform="translate(114.201 67.399)">
        <path id="Trazado_829701" data-name="Trazado 829701" d="M233.608,141.579h-.114l-1.373-.8c-.114-.114-.229-.343-.114-.458s.343-.229.458-.114l1.373.8c.114.114.229.343.114.458A.42.42,0,0,1,233.608,141.579Z" transform="translate(-231.959 -140.159)" fill="#2d4057"/>
      </g>
    </g>
    <g id="Grupo_1080868" data-name="Grupo 1080868" transform="translate(84.224 159.729)">
      <g id="Grupo_1080865" data-name="Grupo 1080865" transform="translate(178.626)">
        <path id="Trazado_829702" data-name="Trazado 829702" d="M231.749,142.637c-.114,0-.343-.114-.343-.229a.5.5,0,0,1,.114-.572l1.831-1.03a.413.413,0,0,1,.458.687l-1.831,1.03C231.864,142.522,231.864,142.637,231.749,142.637Z" transform="translate(-231.359 -140.759)" fill="#2d4057"/>
      </g>
      <g id="Grupo_1080866" data-name="Grupo 1080866" transform="translate(5.378 3.09)">
        <path id="Trazado_829703" data-name="Trazado 829703" d="M80.349,242.145c-.114,0-.343-.114-.343-.229a.5.5,0,0,1,.114-.572l3.662-2.06a.413.413,0,0,1,.458.687l-3.662,2.06C80.578,242.145,80.464,242.145,80.349,242.145Zm7.209-4.119c-.114,0-.343-.114-.343-.229a.5.5,0,0,1,.114-.572l3.662-2.06a.413.413,0,0,1,.458.687l-3.662,2.06C87.787,238.025,87.673,238.025,87.558,238.025Zm7.209-4.119c-.114,0-.343-.114-.343-.229a.5.5,0,0,1,.114-.572l3.662-2.06a.413.413,0,0,1,.458.687L95,233.792A.4.4,0,0,1,94.767,233.906Zm7.324-4.234c-.114,0-.343-.114-.343-.229a.5.5,0,0,1,.114-.572l3.662-2.06a.413.413,0,0,1,.458.687l-3.662,2.06A.354.354,0,0,1,102.091,229.672Zm7.209-4.12c-.114,0-.343-.114-.343-.229a.5.5,0,0,1,.114-.572l3.662-2.06a.413.413,0,0,1,.458.687l-3.662,2.06A.354.354,0,0,1,109.3,225.553Zm7.209-4.234c-.114,0-.343-.114-.343-.229a.5.5,0,0,1,.114-.572l3.662-2.06a.413.413,0,1,1,.458.687l-3.662,2.06A.354.354,0,0,1,116.509,221.319Zm7.209-4.119c-.114,0-.343-.114-.343-.229a.5.5,0,0,1,.114-.572l3.662-2.06a.413.413,0,0,1,.458.687l-3.662,2.06A.354.354,0,0,1,123.718,217.2Zm7.209-4.119c-.114,0-.343-.114-.343-.229a.5.5,0,0,1,.114-.572l3.662-2.06a.413.413,0,0,1,.458.687l-3.662,2.06A.4.4,0,0,0,130.927,213.08Zm7.209-4.234c-.114,0-.343-.114-.343-.229a.5.5,0,0,1,.114-.572l3.662-2.06a.413.413,0,1,1,.458.687l-3.662,2.06C138.251,208.846,138.251,208.846,138.137,208.846Zm7.209-4.119c-.114,0-.343-.114-.343-.229a.5.5,0,0,1,.114-.572l3.662-2.06a.413.413,0,0,1,.458.687l-3.662,2.06C145.46,204.726,145.46,204.726,145.346,204.726Zm7.209-4.234c-.114,0-.343-.114-.343-.229a.5.5,0,0,1,.114-.572l3.662-2.06a.413.413,0,0,1,.458.687l-3.662,2.06C152.669,200.492,152.669,200.492,152.555,200.492Zm7.209-4.12c-.114,0-.343-.114-.343-.229a.5.5,0,0,1,.114-.572l3.662-2.06a.413.413,0,0,1,.458.687l-3.662,2.06C159.878,196.373,159.878,196.373,159.764,196.373Zm7.209-4.234c-.114,0-.343-.114-.343-.229a.5.5,0,0,1,.114-.572l3.662-2.06a.413.413,0,1,1,.458.687l-3.662,2.06C167.087,192.139,167.087,192.139,166.973,192.139Zm7.209-4.119c-.114,0-.343-.114-.343-.229a.5.5,0,0,1,.114-.572l3.662-2.06a.413.413,0,0,1,.458.687l-3.662,2.06C174.411,188.019,174.3,188.019,174.182,188.019Zm7.209-4.119c-.114,0-.343-.114-.343-.229a.5.5,0,0,1,.114-.572l3.662-2.06a.413.413,0,0,1,.458.687l-3.662,2.06A.4.4,0,0,1,181.391,183.9Zm7.209-4.234c-.114,0-.343-.114-.343-.229a.5.5,0,0,1,.114-.572l3.662-2.06a.413.413,0,0,1,.458.687l-3.662,2.06C188.829,179.666,188.715,179.666,188.6,179.666Zm7.209-4.119c-.114,0-.343-.114-.343-.229a.5.5,0,0,1,.114-.572l3.662-2.06a.413.413,0,1,1,.458.687l-3.662,2.06C196.038,175.546,195.924,175.546,195.809,175.546Zm7.324-4.234c-.114,0-.343-.114-.343-.229a.5.5,0,0,1,.114-.572l3.662-2.06a.413.413,0,0,1,.458.687l-3.662,2.06A.354.354,0,0,1,203.133,171.313Zm7.209-4.12c-.114,0-.343-.114-.343-.229a.5.5,0,0,1,.114-.572l3.662-2.06a.413.413,0,0,1,.458.687l-3.662,2.06A.354.354,0,0,1,210.342,167.193Zm7.209-4.119c-.114,0-.343-.114-.343-.229a.5.5,0,0,1,.114-.572l3.662-2.06a.413.413,0,1,1,.458.687l-3.662,2.06A.4.4,0,0,0,217.551,163.074Zm7.209-4.234c-.114,0-.343-.114-.343-.229a.5.5,0,0,1,.114-.572l3.662-2.06a.413.413,0,1,1,.458.687l-3.662,2.06A.354.354,0,0,1,224.76,158.84Zm7.209-4.119c-.114,0-.343-.114-.343-.229a.5.5,0,0,1,.114-.572l3.662-2.06a.413.413,0,1,1,.458.687l-3.662,2.06A.354.354,0,0,1,231.969,154.72Zm7.209-4.234c-.114,0-.343-.114-.343-.229a.5.5,0,0,1,.114-.572l3.662-2.06a.413.413,0,0,1,.458.687l-3.662,2.06A.354.354,0,0,1,239.179,150.486Zm7.209-4.119c-.114,0-.343-.114-.343-.229a.5.5,0,0,1,.114-.572l3.662-2.06a.413.413,0,1,1,.458.687l-3.662,2.06C246.5,146.367,246.5,146.367,246.388,146.367Z" transform="translate(-79.959 -143.459)" fill="#2d4057"/>
      </g>
      <g id="Grupo_1080867" data-name="Grupo 1080867" transform="translate(0 103.102)">
        <path id="Trazado_829704" data-name="Trazado 829704" d="M75.649,232.737c-.114,0-.343-.114-.343-.229a.5.5,0,0,1,.114-.572l1.831-1.03a.413.413,0,0,1,.458.687l-1.831,1.03A.354.354,0,0,1,75.649,232.737Z" transform="translate(-75.259 -230.859)" fill="#2d4057"/>
      </g>
    </g>
    <g id="Grupo_1080922" data-name="Grupo 1080922" transform="translate(13.131 117.666)">
      <path id="Trazado_829705" data-name="Trazado 829705" d="M21.069,217.979A14.926,14.926,0,0,0,25.99,221.3c7.9,3.891,16.364,6.866,23.344,12.358,1.831,1.373,3.433,2.975,5.493,3.891,3.891,1.831,8.468,1.03,12.587-.229a70.25,70.25,0,0,0,14.189-5.95,6.291,6.291,0,0,0,1.03-.8c.915-1.259-.114-2.975-1.144-4.005-4.005-4.005-8.926-6.98-13.846-9.841-5.378-3.2-10.642-6.294-16.02-9.5a52.553,52.553,0,0,0-5.607-2.975A29.908,29.908,0,0,0,32.627,201.5a10.246,10.246,0,0,0-4.577.915c-2.861,1.259-3.776,4.234-5.493,6.637C20.5,211.914,18.209,214.432,21.069,217.979Z" transform="translate(-12.179 -89.932)" fill="#255787" opacity="0.2"/>
      <path id="Trazado_829706" data-name="Trazado 829706" d="M52.179,200.279A14.925,14.925,0,0,0,57.1,203.6c7.9,3.891,16.364,6.866,23.344,12.358,1.831,1.373,3.433,2.975,5.493,3.891,3.891,1.831,8.468,1.03,12.587-.229a70.249,70.249,0,0,0,14.189-5.95,6.289,6.289,0,0,0,1.03-.8c.915-1.259-.114-2.975-1.144-4.005-4.005-4.005-8.926-6.98-13.846-9.841-5.378-3.2-10.642-6.294-16.02-9.5a52.55,52.55,0,0,0-5.607-2.975A29.908,29.908,0,0,0,63.737,183.8a10.246,10.246,0,0,0-4.577.915c-2.861,1.259-3.776,4.234-5.493,6.637C51.493,194.329,49.2,196.846,52.179,200.279Z" transform="translate(-7.701 -92.486)" fill="#255787" opacity="0.2"/>
      <path id="Trazado_829707" data-name="Trazado 829707" d="M42.3,249.458,121.142,203.8l24.717,14.189L67.017,263.761Z" transform="translate(-8.922 -89.599)" fill="#255787" opacity="0.2"/>
      <path id="Trazado_829708" data-name="Trazado 829708" d="M168.1,186.374c-10.528-6.065-27.692-6.065-38.22,0-8.811,5.035-10.3,12.7-4.463,18.652L99.1,219.558l.114.114,6.523,11.214,33.07-19.11c9.841,2.289,21.4,1.144,29.409-3.433C178.629,202.394,178.629,192.438,168.1,186.374Z" transform="translate(-0.726 -92.77)" fill="#255787" opacity="0.2"/>
      <g id="Grupo_1080921" data-name="Grupo 1080921">
        <g id="Grupo_1080898" data-name="Grupo 1080898" transform="translate(110.733)">
          <g id="Grupo_1080897" data-name="Grupo 1080897" transform="translate(10.413)">
            <g id="Grupo_1080896" data-name="Grupo 1080896">
              <path id="Trazado_829709" data-name="Trazado 829709" d="M132.549,171.968c6.866-3.891,17.851-3.891,24.717,0,3.433,1.945,5.149,4.577,5.149,7.095V196.8c0,2.632-1.716,5.149-5.149,7.095-6.866,3.891-17.851,3.891-24.717,0-3.433-1.945-5.149-4.577-5.149-7.095V179.063C127.4,176.545,129.116,173.913,132.549,171.968Z" transform="translate(-117.788 -94.613)" fill="#255787"/>
              <rect id="Rectángulo_376637" data-name="Rectángulo 376637" width="0.801" height="5.493" transform="translate(26.662 2.632)" fill="#30404b"/>
              <g id="Grupo_1080869" data-name="Grupo 1080869" transform="translate(4.234 51.265)">
                <path id="Trazado_829710" data-name="Trazado 829710" d="M168.343,160.3v23.229c0,3.318-2.174,6.751-6.637,9.269-8.926,5.149-23.344,5.149-32.269,0-4.463-2.517-6.637-5.95-6.637-9.269V160.3Z" transform="translate(-122.686 -147.141)" fill="#1a1a1a"/>
                <ellipse id="Elipse_6285" data-name="Elipse 6285" cx="22.886" cy="13.159" rx="22.886" ry="13.159" fill="#4a6373"/>
              </g>
              <g id="Grupo_1080870" data-name="Grupo 1080870" transform="translate(0 7.324)">
                <path id="Trazado_829711" data-name="Trazado 829711" d="M119,124.1v54.927c0,4.005,2.632,8.01,7.9,11.1a27.824,27.824,0,0,0,5.607,2.517,44.373,44.373,0,0,0,6.98,1.6,10.016,10.016,0,0,0,1.831.229.858.858,0,0,1,.572.114,12.434,12.434,0,0,0,2.06.114,23.589,23.589,0,0,0,4.921-.114c.572,0,1.259-.114,1.831-.114l2.746-.343a48.807,48.807,0,0,0,6.179-1.488,33.179,33.179,0,0,0,5.378-2.4c5.264-3.09,7.9-7.095,7.9-11.1V124.214H119Z" transform="translate(-119 -108.423)" fill="#86beed"/>
                <path id="Trazado_829712" data-name="Trazado 829712" d="M160.078,190.126c5.264-3.09,7.9-7.095,7.9-11.1V124.1H154.7v68.429A33.183,33.183,0,0,0,160.078,190.126Z" transform="translate(-113.848 -108.423)" fill="#255787" opacity="0.3"/>
                <path id="Trazado_829713" data-name="Trazado 829713" d="M139.2,127.4V194a12.434,12.434,0,0,0,2.06.114A23.589,23.589,0,0,0,146.18,194V129Z" transform="translate(-116.085 -107.947)" fill="#fff"/>
                <path id="Trazado_829714" data-name="Trazado 829714" d="M146.9,129.1v64.539l2.746-.343v-63.28Z" transform="translate(-114.974 -107.702)" fill="#fff"/>
                <ellipse id="Elipse_6286" data-name="Elipse 6286" cx="27.006" cy="15.677" rx="27.006" ry="15.677" transform="translate(0.114)" fill="#d4ebff"/>
              </g>
              <g id="Grupo_1080871" data-name="Grupo 1080871" transform="translate(8.239 2.517)">
                <path id="Trazado_829715" data-name="Trazado 829715" d="M163.848,116v5.722c0,2.861-1.831,5.722-5.493,7.9-7.324,4.348-19.224,4.348-26.662,0-3.662-2.174-5.493-5.035-5.493-7.9V116Z" transform="translate(-126.2 -104.786)" fill="#255787"/>
                <ellipse id="Elipse_6287" data-name="Elipse 6287" cx="18.881" cy="11.214" rx="18.881" ry="11.214" fill="#dae9f7"/>
              </g>
              <g id="Grupo_1080877" data-name="Grupo 1080877" transform="translate(12.358)">
                <g id="Grupo_1080872" data-name="Grupo 1080872" transform="translate(0 2.174)">
                  <path id="Trazado_829716" data-name="Trazado 829716" d="M129.8,113.3v4.119c0,2.174,1.488,4.348,4.348,5.95,5.722,3.318,15.1,3.318,20.826,0,2.861-1.6,4.348-3.776,4.348-5.95V113.3Z" transform="translate(-129.8 -104.832)" fill="#255787"/>
                  <ellipse id="Elipse_6288" data-name="Elipse 6288" cx="14.762" cy="8.468" rx="14.762" ry="8.468" fill="#dae9f7"/>
                </g>
                <g id="Grupo_1080874" data-name="Grupo 1080874" transform="translate(2.06)">
                  <g id="Grupo_1080873" data-name="Grupo 1080873">
                    <path id="Trazado_829717" data-name="Trazado 829717" d="M131.6,110.4v1.716c0,1.831,1.259,3.776,3.776,5.149,4.92,2.861,13.045,2.861,17.966,0,2.517-1.488,3.776-3.318,3.776-5.149V110.4Z" transform="translate(-131.6 -103.076)" fill="#1a1a1a"/>
                    <ellipse id="Elipse_6289" data-name="Elipse 6289" cx="12.702" cy="7.324" rx="12.702" ry="7.324" fill="#fff"/>
                  </g>
                  <path id="Trazado_829718" data-name="Trazado 829718" d="M149.743,107.584c3.318,1.945,3.318,5.035,0,6.98a13.334,13.334,0,0,1-12.13,0c-3.318-1.945-3.318-5.035,0-6.98A13.334,13.334,0,0,1,149.743,107.584Z" transform="translate(-131.091 -103.693)" fill="#d4ebff"/>
                </g>
                <g id="Grupo_1080876" data-name="Grupo 1080876" transform="translate(1.259 10.483)">
                  <g id="Grupo_1080875" data-name="Grupo 1080875">
                    <path id="Trazado_829719" data-name="Trazado 829719" d="M133.189,119.27l-1.716-1.03a1.476,1.476,0,0,1-.572-1.259,4.631,4.631,0,0,1,2.06-3.547,1.419,1.419,0,0,1,1.488-.114l1.716,1.03Z" transform="translate(-130.9 -113.161)" fill="#1a1a1a"/>
                    <path id="Trazado_829720" data-name="Trazado 829720" d="M136.519,115.481c0-1.259-.915-1.831-2.06-1.144a4.454,4.454,0,0,0-2.06,3.547c0,1.259.915,1.831,2.06,1.144A4.631,4.631,0,0,0,136.519,115.481Z" transform="translate(-130.684 -113.033)" fill="#b4c0cc"/>
                  </g>
                  <path id="Trazado_829721" data-name="Trazado 829721" d="M135.489,115.8c0-.687-.458-1.03-1.144-.687a2.67,2.67,0,0,0-1.144,1.945c0,.687.458,1.03,1.144.687A2.67,2.67,0,0,0,135.489,115.8Z" transform="translate(-130.568 -112.898)" fill="#fff"/>
                </g>
              </g>
              <g id="Grupo_1080886" data-name="Grupo 1080886" transform="translate(42.797 56.071)">
                <g id="Grupo_1080885" data-name="Grupo 1080885">
                  <g id="Grupo_1080880" data-name="Grupo 1080880" transform="translate(3.891 14.762)">
                    <g id="Grupo_1080878" data-name="Grupo 1080878">
                      <path id="Trazado_829722" data-name="Trazado 829722" d="M169.069,167.044l-9.269,5.264a1.263,1.263,0,0,0,.572-1.144l9.269-5.264C169.527,166.472,169.412,166.93,169.069,167.044Z" transform="translate(-159.8 -165.9)" fill="#b4c0cc"/>
                    </g>
                    <g id="Grupo_1080879" data-name="Grupo 1080879">
                      <path id="Trazado_829723" data-name="Trazado 829723" d="M169.069,167.044l-9.269,5.264a1.263,1.263,0,0,0,.572-1.144l9.269-5.264C169.527,166.472,169.412,166.93,169.069,167.044Z" transform="translate(-159.8 -165.9)" fill="#255787"/>
                    </g>
                  </g>
                  <g id="Grupo_1080881" data-name="Grupo 1080881">
                    <path id="Trazado_829724" data-name="Trazado 829724" d="M156.4,158.264,165.669,153l2.632,1.488-9.269,5.264Z" transform="translate(-156.4 -153)" fill="#f6f6f6"/>
                  </g>
                  <g id="Grupo_1080882" data-name="Grupo 1080882" transform="translate(4.463 4.577)">
                    <path id="Trazado_829725" data-name="Trazado 829725" d="M160.3,162.264,169.454,157v10.184l-9.154,5.264Z" transform="translate(-160.3 -157)" fill="#d4ebff"/>
                    <path id="Trazado_829726" data-name="Trazado 829726" d="M161.9,162.9l5.607-3.2v3.547l-5.607,3.2Z" transform="translate(-160.069 -156.61)" fill="#f6f6f6"/>
                  </g>
                  <g id="Grupo_1080883" data-name="Grupo 1080883" transform="translate(2.632 1.488)">
                    <path id="Trazado_829727" data-name="Trazado 829727" d="M158.7,159.564l9.269-5.264a3.871,3.871,0,0,1,1.831,3.09l-9.269,5.264A3.871,3.871,0,0,0,158.7,159.564Z" transform="translate(-158.7 -154.3)" fill="#f6f6f6"/>
                  </g>
                  <g id="Grupo_1080884" data-name="Grupo 1080884" transform="translate(0 5.264)">
                    <path id="Trazado_829728" data-name="Trazado 829728" d="M160.863,172.362c0,1.144-.8,1.6-1.831,1.03L156.4,171.9V157.6l2.632,1.488a3.871,3.871,0,0,1,1.831,3.09Z" transform="translate(-156.4 -157.6)" fill="#255787"/>
                  </g>
                </g>
              </g>
              <g id="Grupo_1080895" data-name="Grupo 1080895" transform="translate(42.797 34.558)">
                <g id="Grupo_1080894" data-name="Grupo 1080894">
                  <g id="Grupo_1080889" data-name="Grupo 1080889" transform="translate(3.891 14.762)">
                    <g id="Grupo_1080887" data-name="Grupo 1080887">
                      <path id="Trazado_829729" data-name="Trazado 829729" d="M169.069,148.244l-9.269,5.264a1.263,1.263,0,0,0,.572-1.144l9.269-5.264C169.527,147.672,169.412,148.13,169.069,148.244Z" transform="translate(-159.8 -147.1)" fill="#b4c0cc"/>
                    </g>
                    <g id="Grupo_1080888" data-name="Grupo 1080888">
                      <path id="Trazado_829730" data-name="Trazado 829730" d="M169.069,148.244l-9.269,5.264a1.263,1.263,0,0,0,.572-1.144l9.269-5.264C169.527,147.672,169.412,148.13,169.069,148.244Z" transform="translate(-159.8 -147.1)" fill="#255787"/>
                    </g>
                  </g>
                  <g id="Grupo_1080890" data-name="Grupo 1080890">
                    <path id="Trazado_829731" data-name="Trazado 829731" d="M156.4,139.464l9.269-5.264,2.632,1.488-9.269,5.264Z" transform="translate(-156.4 -134.2)" fill="#f6f6f6"/>
                  </g>
                  <g id="Grupo_1080891" data-name="Grupo 1080891" transform="translate(4.463 4.577)">
                    <path id="Trazado_829732" data-name="Trazado 829732" d="M160.3,143.464l9.154-5.264v10.184l-9.154,5.264Z" transform="translate(-160.3 -138.2)" fill="#d4ebff"/>
                    <path id="Trazado_829733" data-name="Trazado 829733" d="M161.9,144.1l5.607-3.2v3.547l-5.607,3.2Z" transform="translate(-160.069 -137.81)" fill="#f6f6f6"/>
                  </g>
                  <g id="Grupo_1080892" data-name="Grupo 1080892" transform="translate(2.632 1.488)">
                    <path id="Trazado_829734" data-name="Trazado 829734" d="M158.7,140.764l9.269-5.264a3.871,3.871,0,0,1,1.831,3.09l-9.269,5.264A3.871,3.871,0,0,0,158.7,140.764Z" transform="translate(-158.7 -135.5)" fill="#f6f6f6"/>
                  </g>
                  <g id="Grupo_1080893" data-name="Grupo 1080893" transform="translate(0 5.264)">
                    <path id="Trazado_829735" data-name="Trazado 829735" d="M160.863,153.561c0,1.144-.8,1.6-1.831,1.03L156.4,153.1V138.8l2.632,1.488a3.871,3.871,0,0,1,1.831,3.09Z" transform="translate(-156.4 -138.8)" fill="#255787"/>
                  </g>
                </g>
              </g>
            </g>
          </g>
          <path id="Trazado_829736" data-name="Trazado 829736" d="M135.8,173.473c0,2.06-.687,3.433-1.831,4.12l-15.791,9.154L116,182.971h0L135.8,172.1Q135.8,172.787,135.8,173.473Z" transform="translate(-109.02 -94.173)" fill="#255787"/>
          <path id="Trazado_829737" data-name="Trazado 829737" d="M125.806,163.355c1.144-.687,2.746-.572,4.463.458l-19.11,10.756-1.259-2.06Z" transform="translate(-109.9 -95.497)" fill="#dae9f7"/>
          <path id="Trazado_829738" data-name="Trazado 829738" d="M130.224,163.7a8.126,8.126,0,0,1,1.6,1.144h0l-19.8,11.329L111,174.456Z" transform="translate(-109.741 -95.385)" fill="#fff"/>
          <path id="Trazado_829739" data-name="Trazado 829739" d="M112.4,176.943,132.54,165.5c.229.343.572.572.8.915.114.114.229.343.343.458a1.844,1.844,0,0,1,.458.8c.114.114.114.229.229.343L114,179.689Z" transform="translate(-109.539 -95.125)" fill="#fff"/>
          <path id="Trazado_829740" data-name="Trazado 829740" d="M134.154,167.6a14.224,14.224,0,0,1,1.831,4.577.865.865,0,0,0,.114.458l-19.8,10.871-2.4-4.234Z" transform="translate(-109.323 -94.822)" fill="#dae9f7"/>
          <path id="Trazado_829741" data-name="Trazado 829741" d="M111.9,176.129,131.7,164.8a5.289,5.289,0,0,1,.8.8l-20.14,11.443Z" transform="translate(-109.611 -95.226)" fill="#dae9f7"/>
        </g>
        <path id="Trazado_829742" data-name="Trazado 829742" d="M108.4,175.472c0-4.005,2.861-5.722,6.408-3.662a14.089,14.089,0,0,1,6.408,10.985c0,4.005-2.861,5.722-6.408,3.662A13.741,13.741,0,0,1,108.4,175.472Z" transform="translate(0.617 -94.341)" fill="#1a1a1a"/>
        <g id="Grupo_1080902" data-name="Grupo 1080902" transform="translate(34.866 105.161)">
          <g id="Grupo_1080901" data-name="Grupo 1080901" transform="translate(0)">
            <path id="Trazado_829743" data-name="Trazado 829743" d="M64.459,251.627v4.005a3.122,3.122,0,0,1-1.259,2.861l75.524-43.827c.8-.458,1.259-1.373,1.259-2.861V207.8Z" transform="translate(-40.772 -194.183)" fill="#754c24"/>
            <g id="Grupo_1080899" data-name="Grupo 1080899">
              <path id="Trazado_829744" data-name="Trazado 829744" d="M43.6,239.727,119.124,195.9l23.687,13.732L67.287,253.344Z" transform="translate(-43.6 -195.9)" fill="#fbb03b"/>
              <path id="Trazado_829745" data-name="Trazado 829745" d="M46.9,239.453,118.648,197.8l19.911,11.557L66.811,250.9Z" transform="translate(-43.124 -195.626)" fill="#754c24"/>
            </g>
            <g id="Grupo_1080900" data-name="Grupo 1080900" transform="translate(0.114 43.827)">
              <path id="Trazado_829746" data-name="Trazado 829746" d="M67.273,247.817v4.005c0,2.746-1.945,3.891-4.348,2.517l-14.876-8.582a9.666,9.666,0,0,1-4.348-7.552V234.2Z" transform="translate(-43.7 -234.2)" fill="#c4720e"/>
            </g>
          </g>
        </g>
        <g id="Grupo_1080904" data-name="Grupo 1080904" transform="translate(106.842 76.932)">
          <g id="Grupo_1080903" data-name="Grupo 1080903" clip-path="url(#clip-path)">
            <path id="Trazado_829747" data-name="Trazado 829747" d="M120.229,175.7s-5.722,3.433-7.438,8.239-2.632,23-2.632,23l-1.259,7.9,2.746-.8,4.921-5.264,1.373-21.742,5.264-3.662Z" transform="translate(-106.154 -170.585)" fill="#452b11"/>
          </g>
        </g>
        <path id="Trazado_829749" data-name="Trazado 829749" d="M124.777,203.489l-5.493-2.289-3.662,1.831-3.433.458-2.174,2.975-4.463,1.945-4.234,1.373-6.751,6.751-1.945,3.891-4.463-.114-6.065,3.2-4.005,4.463-4.577,2.06-5.722-.343-4.005,4.348-3.891,3.776-4.921,1.259L52.8,242.853l13.159,7.552,69.116-40.051-6.294-2.632-.343-3.09Z" transform="translate(-7.407 -89.974)" fill="#452b11"/>
        <g id="Grupo_1080912" data-name="Grupo 1080912" transform="translate(36.961 58.202)">
          <g id="Grupo_1080905" data-name="Grupo 1080905" transform="translate(40.926 20.755)">
            <path id="Trazado_829750" data-name="Trazado 829750" d="M92.644,205.384l1.144,3.2-1.716-1.144v2.4s-.8.114-2.632-1.716a4.481,4.481,0,0,1-.915-1.144,13.536,13.536,0,0,1-1.716-3.547s.114-7.552-2.517-12.13C80.285,183.871,81.315,173,81.315,173s10.985,4.005,12.473,12.7c1.373,8.7-1.716,10.184-1.716,10.184l-.229,7.209Z" transform="translate(-81.196 -173)" fill="#b85e5e"/>
            <path id="Trazado_829751" data-name="Trazado 829751" d="M92.764,204.533l-1.716-1.144v2.4s-.8.114-2.632-1.716a4.48,4.48,0,0,1-.915-1.144,6.027,6.027,0,0,1,1.716-1.373,3.223,3.223,0,0,1,2.517-.343Z" transform="translate(-80.287 -168.945)"/>
          </g>
          <g id="Grupo_1080906" data-name="Grupo 1080906" transform="translate(12.547 6.108)">
            <path id="Trazado_829752" data-name="Trazado 829752" d="M67.844,192.584l1.144,3.2-1.716-1.144v2.4s-.8.114-2.632-1.716a4.48,4.48,0,0,1-.915-1.144,13.536,13.536,0,0,1-1.716-3.547s.114-7.552-2.517-12.13c-4.005-7.438-2.975-18.309-2.975-18.309s10.985,4.005,12.473,12.7c1.373,8.7-1.716,10.184-1.716,10.184l-.229,7.209Z" transform="translate(-56.396 -160.2)" fill="#b85e5e"/>
            <path id="Trazado_829753" data-name="Trazado 829753" d="M68.064,191.733l-1.716-1.144v2.4s-.8.114-2.632-1.716a4.48,4.48,0,0,1-.915-1.144,6.027,6.027,0,0,1,1.716-1.373,3.223,3.223,0,0,1,2.517-.343Z" transform="translate(-55.472 -156.145)"/>
          </g>
          <path id="Trazado_829754" data-name="Trazado 829754" d="M104.929,186.961s-.114,7.438-11.786,9.841a41.336,41.336,0,0,1-11.1.8,33.316,33.316,0,0,1-18.309-6.637,26.91,26.91,0,0,1-3.776-3.433,60.678,60.678,0,0,1-9.5-12.816c-1.144-1.831-1.488-5.149-1.144-8.01a11.507,11.507,0,0,1,1.144-4.348c1.6-3.09,8.582-5.493,8.582-5.493,1.716-.687,5.035-.572,7.324-.343a10.76,10.76,0,0,1,4.119,1.259c5.149,2.632,19.911,10.413,23.344,12.931C97.949,173.687,104.929,186.961,104.929,186.961Z" transform="translate(-44.889 -154.649)" fill="#ffbdbd"/>
          <path id="Trazado_829755" data-name="Trazado 829755" d="M81.257,191.618l-.572,2.861a33.316,33.316,0,0,1-18.309-6.637,26.913,26.913,0,0,1-3.776-3.433l1.945-7.209C64.55,185.1,72.561,188.757,81.257,191.618Z" transform="translate(-43.531 -151.639)" fill="#d98080" opacity="0.25"/>
          <g id="Grupo_1080907" data-name="Grupo 1080907" transform="translate(4.308 11.944)">
            <path id="Trazado_829756" data-name="Trazado 829756" d="M60.3,196.768l1.488,4.12-1.716-1.03v2.289s-.8.114-2.632-1.716a8.64,8.64,0,0,1-1.259-1.6,14.038,14.038,0,0,1-1.373-3.09s.114-7.552-2.517-12.13c-4.005-7.438-2.975-18.309-2.975-18.309S60.3,169.305,61.788,178c1.373,8.7-1.716,10.184-1.716,10.184l-.229,7.209Z" transform="translate(-49.196 -165.3)" fill="#ffbdbd"/>
            <path id="Trazado_829757" data-name="Trazado 829757" d="M60.907,196.824l-1.716-1.03v2.289s-.8.114-2.632-1.716a8.641,8.641,0,0,1-1.259-1.6c1.03-1.488,3.433-2.289,4.119-2.06Z" transform="translate(-48.315 -161.351)"/>
          </g>
          <g id="Grupo_1080908" data-name="Grupo 1080908" transform="translate(32.687 26.591)">
            <path id="Trazado_829758" data-name="Trazado 829758" d="M85.1,209.568l1.488,4.119-1.716-1.03v2.289s-.8.114-2.632-1.716a8.641,8.641,0,0,1-1.259-1.6,14.038,14.038,0,0,1-1.373-3.09s.114-7.552-2.517-12.13c-4.005-7.438-2.975-18.309-2.975-18.309s4.234,9.269,12.473,12.7a1.533,1.533,0,0,1,.915,1.488c.343,2.861-2.746,8.7-2.746,8.7l-.229,7.209Z" transform="translate(-73.996 -178.1)" fill="#ffbdbd"/>
            <path id="Trazado_829759" data-name="Trazado 829759" d="M85.607,209.724l-1.716-1.03v2.289s-.8.114-2.632-1.716a8.64,8.64,0,0,1-1.259-1.6c1.03-1.488,3.433-2.289,4.119-2.06Z" transform="translate(-73.13 -174.137)"/>
          </g>
          <path id="Trazado_829760" data-name="Trazado 829760" d="M84.569,199.774l-.229,7.209.343-10.642c-5.378-.458-7.781-5.95-9.383-9.841l11.9,4.463C87.658,193.938,84.569,199.774,84.569,199.774Z" transform="translate(-41.121 -150.297)" fill="#d98080" opacity="0.25"/>
          <path id="Trazado_829761" data-name="Trazado 829761" d="M75.4,187.012l13.96-1.03s6.523-3.2,11.9-1.945,1.831,6.751,1.831,6.751l-23.687-.8Z" transform="translate(-41.106 -150.695)" fill="#d98080" opacity="0.25"/>
          <g id="Grupo_1080911" data-name="Grupo 1080911" transform="translate(34.293 19.954)">
            <g id="Grupo_1080909" data-name="Grupo 1080909" transform="translate(12.378)">
              <path id="Trazado_829762" data-name="Trazado 829762" d="M104.392,210.668c-.114,0-.229-.114-.343-.229a34.343,34.343,0,0,0-3.2-1.945,38.085,38.085,0,0,0-5.035-2.4c-1.259-.458-5.836-1.945-7.9-4.348-2.289-2.746-1.716-6.408-1.373-7.9a3.69,3.69,0,0,1,.229-.687l1.144-4.806c2.4-3.2,8.353-5.493,12.244-5.149l4.234,2.746c4.119,4.806,2.4,7.552,2.517,9.5l.458,2.289c.458,2.174,1.6,6.523,3.318,8.811.114.114.229.229.229.343C111.716,208.608,106.681,211.926,104.392,210.668Z" transform="translate(-86.216 -170.731)" fill="#ffbdbd"/>
              <path id="Trazado_829763" data-name="Trazado 829763" d="M96.6,186.947l1.488-2.289a38.544,38.544,0,0,1,1.716-6.065,48.922,48.922,0,0,1,3.662-6.294s3.662,6.637,3.09,9.727-5.378,6.523-5.378,6.523Z" transform="translate(-84.718 -172.3)" fill="#ffbdbd"/>
              <path id="Trazado_829764" data-name="Trazado 829764" d="M102.1,207.7a1.032,1.032,0,0,1,.114-.572,2.754,2.754,0,0,1,.687-.915c.458-.572,1.03-1.03,1.488-1.6a13.712,13.712,0,0,1,1.373-1.259,2.092,2.092,0,0,1,1.831-.343,1.666,1.666,0,0,1,1.03.687C109.309,205.644,104.5,209.191,102.1,207.7Z" transform="translate(-83.924 -167.882)" fill="#d98080"/>
              <path id="Trazado_829765" data-name="Trazado 829765" d="M104.682,204.829c.114-.114.114-.229.229-.229a.219.219,0,0,1,.114.343v.8a2.231,2.231,0,0,1-.114.915c-.114.229-.343.572-.687.572s-.114-.343-.114-.458C104.453,206.2,104.338,205.4,104.682,204.829Z" transform="translate(-83.645 -167.639)" fill="#1a1a1a"/>
              <path id="Trazado_829766" data-name="Trazado 829766" d="M106.111,204.364v-.343c0-.114.114-.229.229-.114a.4.4,0,0,1,.229.114c0,.114.114.114.114.229a3.168,3.168,0,0,1,.114,1.03c0,.229-.458,1.259-.687.8-.114-.229,0-.572,0-.8A1.254,1.254,0,0,1,106.111,204.364Z" transform="translate(-83.358 -167.746)" fill="#1a1a1a"/>
              <path id="Trazado_829767" data-name="Trazado 829767" d="M95.408,194.8a3.035,3.035,0,0,0,.572.687c.114.114.229.114.343.229h.458a.868.868,0,0,0,.229-.458c0-.229-.114-.343-.229-.572a1.379,1.379,0,0,0-.572-.572C95.636,193.772,95.179,194.229,95.408,194.8Z" transform="translate(-84.898 -169.169)" fill="#1a1a1a"/>
              <path id="Trazado_829768" data-name="Trazado 829768" d="M103.513,192.262c.114.114.114.343.343.343.114,0,.229-.114.343-.229a.42.42,0,0,0,.114-.343,1.039,1.039,0,0,0-.343-.8l-.229-.229C103.17,190.775,103.513,192.033,103.513,192.262Z" transform="translate(-83.735 -169.605)" fill="#1a1a1a"/>
            </g>
            <path id="Trazado_829769" data-name="Trazado 829769" d="M100.945,207.147a38.087,38.087,0,0,0-5.035-2.4c-1.259-.458-5.836-1.945-7.9-4.348-2.289-2.746-1.716-6.408-1.373-7.9h.229s2.174,9.5,8.811,10.07Z" transform="translate(-73.824 -169.385)" fill="#d98080" opacity="0.25"/>
            <g id="Grupo_1080910" data-name="Grupo 1080910" transform="translate(0 16.231)">
              <path id="Trazado_829770" data-name="Trazado 829770" d="M91.306,188.333c-.229,0-2.517-1.488-4.348-1.716-1.831-.343-11.672.114-11.557-.114s4.577,11.443,13.274,8.01S91.306,188.333,91.306,188.333Z" transform="translate(-75.399 -186.484)" fill="#ffbdbd"/>
            </g>
            <path id="Trazado_829771" data-name="Trazado 829771" d="M76.8,187.6s2.861,9.269,11.557,6.408c1.831-.572,1.6-2.746,1.6-2.746A102.819,102.819,0,0,1,76.8,187.6Z" transform="translate(-75.197 -170.092)" fill="#a65050"/>
          </g>
          <path id="Trazado_829772" data-name="Trazado 829772" d="M91.73,185.979a2.288,2.288,0,0,0,.458,2.632c.687.687,1.831.8,2.861,1.144a6.715,6.715,0,0,1,2.861,1.831,2.075,2.075,0,0,0,3.433-1.716v-.458a6.387,6.387,0,0,0-1.144-3.776,5.135,5.135,0,0,0-3.09-1.831C95.506,183.576,92.417,184.491,91.73,185.979Z" transform="translate(-38.784 -150.691)" fill="#fff" opacity="0.3"/>
          <path id="Trazado_829773" data-name="Trazado 829773" d="M56.627,162.508c.458,0,.915-.114,1.373-.114a16.063,16.063,0,0,1,8.01.8c10.3,2.975,19.911,8.353,26.662,16.592a1.062,1.062,0,0,0,1.831-1.03,17.57,17.57,0,0,0-2.289-4.119c-1.488-2.06-3.547-3.2-5.721-4.806-4.234-2.975-7.781-4.348-11.9-7.438-2.632-1.831-5.264-3.776-8.239-4.692a17.556,17.556,0,0,0-9.727-.229C54.339,158.16,52.164,162.394,56.627,162.508Z" transform="translate(-44.19 -154.57)" fill="#fff" opacity="0.3"/>
          <path id="Trazado_829774" data-name="Trazado 829774" d="M49.286,161.085a3.358,3.358,0,0,1-1.831-.458,3.837,3.837,0,0,1-1.945-4.119.584.584,0,0,1,.572-.458.76.76,0,0,1,.458.572,2.848,2.848,0,0,0,1.373,2.975,2.307,2.307,0,0,0,1.945.229A3.559,3.559,0,0,1,48.485,158a2.623,2.623,0,0,1,.229-2.06,2.042,2.042,0,0,1,1.373-1.03,2.653,2.653,0,0,1,1.831.343,2.247,2.247,0,0,1,1.03,1.488,3.086,3.086,0,0,1-.687,2.746,11.9,11.9,0,0,0,1.716-.229c.229-.114.572.114.687.343s-.114.572-.343.687a5.761,5.761,0,0,1-3.09.114A2.562,2.562,0,0,1,49.286,161.085Zm1.373-5.035H50.43c-.343.114-.572.229-.687.572a2.263,2.263,0,0,0-.229,1.259,2.758,2.758,0,0,0,1.6,1.6l.114-.114a2.152,2.152,0,0,0,.8-2.174A1.559,1.559,0,0,0,50.659,156.05Z" transform="translate(-45.431 -154.862)" fill="#ffbdbd"/>
        </g>
        <g id="Grupo_1080920" data-name="Grupo 1080920" transform="translate(0 79.601)">
          <g id="Grupo_1080913" data-name="Grupo 1080913" transform="translate(40.926 20.64)">
            <path id="Trazado_829775" data-name="Trazado 829775" d="M60.344,223.984l1.144,3.2-1.716-1.144v2.4s-.8.114-2.632-1.716a4.481,4.481,0,0,1-.915-1.144,13.536,13.536,0,0,1-1.716-3.547s.114-7.552-2.517-12.13c-4.005-7.438-2.975-18.309-2.975-18.309S60,195.605,61.488,204.3c1.373,8.7-1.716,10.184-1.716,10.184l-.229,7.209Z" transform="translate(-48.896 -191.6)" fill="#b85e5e"/>
            <path id="Trazado_829776" data-name="Trazado 829776" d="M60.464,223.133l-1.716-1.144v2.4s-.8.114-2.632-1.716a4.48,4.48,0,0,1-.915-1.144,6.027,6.027,0,0,1,1.716-1.373,3.223,3.223,0,0,1,2.517-.343Z" transform="translate(-47.987 -187.545)"/>
          </g>
          <g id="Grupo_1080914" data-name="Grupo 1080914" transform="translate(12.547 5.993)">
            <path id="Trazado_829777" data-name="Trazado 829777" d="M35.544,211.184l1.144,3.2-1.716-1.144v2.4s-.8.114-2.632-1.716a4.481,4.481,0,0,1-.915-1.144,13.536,13.536,0,0,1-1.716-3.547s.114-7.552-2.517-12.13c-4.005-7.438-2.975-18.309-2.975-18.309s10.985,4.005,12.473,12.7c1.373,8.7-1.716,10.184-1.716,10.184l-.229,7.209Z" transform="translate(-24.096 -178.8)" fill="#b85e5e"/>
            <path id="Trazado_829778" data-name="Trazado 829778" d="M35.764,210.333l-1.716-1.144v2.4s-.8.114-2.632-1.716a4.48,4.48,0,0,1-.915-1.144,6.027,6.027,0,0,1,1.716-1.373,3.223,3.223,0,0,1,2.517-.343Z" transform="translate(-23.172 -174.745)"/>
          </g>
          <path id="Trazado_829779" data-name="Trazado 829779" d="M72.629,205.661s-.114,7.438-11.786,9.841a41.336,41.336,0,0,1-11.1.8,33.316,33.316,0,0,1-18.309-6.637,26.913,26.913,0,0,1-3.776-3.433,60.678,60.678,0,0,1-9.5-12.816c-1.144-1.831-1.488-5.149-1.144-8.01a11.507,11.507,0,0,1,1.144-4.348c1.6-3.09,8.582-5.493,8.582-5.493,1.716-.687,5.035-.572,7.324-.343a10.761,10.761,0,0,1,4.119,1.259c5.149,2.632,19.911,10.413,23.344,12.931C65.649,192.387,72.629,205.661,72.629,205.661Z" transform="translate(-12.589 -173.349)" fill="#ffbdbd"/>
          <path id="Trazado_829780" data-name="Trazado 829780" d="M48.957,210.318l-.572,2.861a33.316,33.316,0,0,1-18.309-6.637,26.91,26.91,0,0,1-3.776-3.433l1.945-7.209C32.25,203.681,40.26,207.457,48.957,210.318Z" transform="translate(-11.231 -170.339)" fill="#d98080" opacity="0.25"/>
          <g id="Grupo_1080915" data-name="Grupo 1080915" transform="translate(4.308 11.829)">
            <path id="Trazado_829781" data-name="Trazado 829781" d="M28,215.368l1.488,4.12-1.716-1.03v2.289s-.8.114-2.632-1.716a8.642,8.642,0,0,1-1.259-1.6,14.039,14.039,0,0,1-1.373-3.09s.114-7.552-2.517-12.13c-4.005-7.438-2.975-18.309-2.975-18.309S28,187.905,29.488,196.6c1.373,8.7-1.716,10.184-1.716,10.184L27.543,214Z" transform="translate(-16.896 -183.9)" fill="#ffbdbd"/>
            <path id="Trazado_829782" data-name="Trazado 829782" d="M28.607,215.524l-1.716-1.03v2.289s-.8.114-2.632-1.716a8.641,8.641,0,0,1-1.259-1.6c1.03-1.488,3.433-2.289,4.119-2.06Z" transform="translate(-16.015 -179.937)"/>
          </g>
          <g id="Grupo_1080916" data-name="Grupo 1080916" transform="translate(32.687 26.476)">
            <path id="Trazado_829783" data-name="Trazado 829783" d="M52.8,228.168l1.488,4.119-1.716-1.03v2.289s-.8.114-2.632-1.716a8.64,8.64,0,0,1-1.259-1.6,14.038,14.038,0,0,1-1.373-3.09s.114-7.552-2.517-12.13c-4.005-7.438-2.975-18.309-2.975-18.309s4.234,9.269,12.473,12.7a1.533,1.533,0,0,1,.915,1.488c.343,2.861-2.746,8.7-2.746,8.7l-.114,7.209Z" transform="translate(-41.696 -196.7)" fill="#ffbdbd"/>
            <path id="Trazado_829784" data-name="Trazado 829784" d="M53.307,228.324l-1.716-1.03v2.289s-.8.114-2.632-1.716a8.64,8.64,0,0,1-1.259-1.6c1.03-1.488,3.433-2.289,4.119-2.06Z" transform="translate(-40.83 -192.737)"/>
          </g>
          <path id="Trazado_829785" data-name="Trazado 829785" d="M52.254,218.374l-.114,7.209.343-10.642c-5.378-.458-7.781-5.95-9.383-9.841L55,209.563C55.344,212.652,52.254,218.374,52.254,218.374Z" transform="translate(-8.806 -169.012)" fill="#d98080" opacity="0.25"/>
          <path id="Trazado_829786" data-name="Trazado 829786" d="M43.1,205.612l13.961-1.03s6.523-3.2,11.9-1.945,1.831,6.751,1.831,6.751l-23.687-.8Z" transform="translate(-8.806 -169.409)" fill="#d98080" opacity="0.25"/>
          <g id="Grupo_1080919" data-name="Grupo 1080919" transform="translate(34.293 19.954)">
            <g id="Grupo_1080917" data-name="Grupo 1080917" transform="translate(12.378)">
              <path id="Trazado_829787" data-name="Trazado 829787" d="M72.092,229.268c-.114,0-.229-.114-.343-.229a34.336,34.336,0,0,0-3.2-1.945,38.089,38.089,0,0,0-5.035-2.4c-1.259-.458-5.836-1.945-7.9-4.348-2.289-2.746-1.716-6.408-1.373-7.9a3.688,3.688,0,0,1,.229-.687l1.144-4.806c2.4-3.2,8.353-5.493,12.244-5.149l4.234,2.746c4.119,4.806,2.4,7.552,2.517,9.5l.458,2.289c.458,2.174,1.6,6.523,3.318,8.811.114.114.229.229.229.343C79.416,227.208,74.381,230.641,72.092,229.268Z" transform="translate(-53.916 -189.446)" fill="#ffbdbd"/>
              <path id="Trazado_829788" data-name="Trazado 829788" d="M64.3,205.647l1.488-2.289a38.544,38.544,0,0,1,1.716-6.065A48.921,48.921,0,0,1,71.166,191s3.662,6.637,3.09,9.727-5.378,6.523-5.378,6.523Z" transform="translate(-52.418 -191)" fill="#ffbdbd"/>
              <path id="Trazado_829789" data-name="Trazado 829789" d="M69.8,226.4a1.032,1.032,0,0,1,.114-.572,2.754,2.754,0,0,1,.687-.915c.458-.572,1.03-1.03,1.488-1.6a13.718,13.718,0,0,1,1.373-1.259,2.092,2.092,0,0,1,1.831-.343,1.666,1.666,0,0,1,1.03.687C77.009,224.229,72.2,227.776,69.8,226.4Z" transform="translate(-51.624 -186.582)" fill="#d98080"/>
              <path id="Trazado_829790" data-name="Trazado 829790" d="M72.382,223.529c.114-.114.114-.229.229-.229a.219.219,0,0,1,.114.343v.8a2.231,2.231,0,0,1-.114.915c-.114.229-.343.572-.687.572s-.114-.343-.114-.458C72.153,224.788,72.038,224.1,72.382,223.529Z" transform="translate(-51.345 -186.339)" fill="#1a1a1a"/>
              <path id="Trazado_829791" data-name="Trazado 829791" d="M73.811,223.064v-.343c0-.114.114-.229.229-.114a.4.4,0,0,1,.229.114c0,.114.114.114.114.229a3.168,3.168,0,0,1,.114,1.03c0,.229-.458,1.259-.687.8-.114-.229,0-.572,0-.8A1.254,1.254,0,0,1,73.811,223.064Z" transform="translate(-51.058 -186.446)" fill="#1a1a1a"/>
              <path id="Trazado_829792" data-name="Trazado 829792" d="M63.108,213.51a3.034,3.034,0,0,0,.572.687c.114.114.229.114.343.229h.458a.867.867,0,0,0,.229-.458c0-.229-.114-.343-.229-.572a1.379,1.379,0,0,0-.572-.572C63.336,212.366,62.879,212.823,63.108,213.51Z" transform="translate(-52.598 -187.877)" fill="#1a1a1a"/>
              <path id="Trazado_829793" data-name="Trazado 829793" d="M71.213,210.86c.114.114.114.343.343.343.114,0,.229-.114.343-.229a.42.42,0,0,0,.114-.343,1.039,1.039,0,0,0-.343-.8l-.229-.229C70.87,209.487,71.213,210.631,71.213,210.86Z" transform="translate(-51.435 -188.317)" fill="#1a1a1a"/>
            </g>
            <path id="Trazado_829794" data-name="Trazado 829794" d="M68.645,225.747a38.087,38.087,0,0,0-5.035-2.4c-1.259-.458-5.836-1.945-7.9-4.348-2.289-2.746-1.716-6.408-1.373-7.9h.229s2.174,9.5,8.811,10.07Z" transform="translate(-41.524 -188.1)" fill="#d98080" opacity="0.25"/>
            <g id="Grupo_1080918" data-name="Grupo 1080918" transform="translate(0 16.231)">
              <path id="Trazado_829795" data-name="Trazado 829795" d="M59.006,207.033c-.229,0-2.517-1.488-4.348-1.716-1.831-.343-11.672.114-11.557-.114s4.577,11.443,13.274,8.01S59.006,207.033,59.006,207.033Z" transform="translate(-43.099 -205.184)" fill="#ffbdbd"/>
            </g>
            <path id="Trazado_829796" data-name="Trazado 829796" d="M44.5,206.3s2.861,9.269,11.557,6.408c1.831-.572,1.6-2.746,1.6-2.746A102.82,102.82,0,0,1,44.5,206.3Z" transform="translate(-42.897 -188.792)" fill="#a65050"/>
          </g>
          <path id="Trazado_829797" data-name="Trazado 829797" d="M59.43,204.576a2.288,2.288,0,0,0,.458,2.632c.687.687,1.831.8,2.861,1.144a6.715,6.715,0,0,1,2.861,1.831,2.075,2.075,0,0,0,3.433-1.716v-.458a6.387,6.387,0,0,0-1.144-3.776,5.135,5.135,0,0,0-3.09-1.831C63.206,202.287,60.117,203.088,59.43,204.576Z" transform="translate(-6.484 -169.403)" fill="#fff" opacity="0.3"/>
          <path id="Trazado_829798" data-name="Trazado 829798" d="M24.327,181.108c.458,0,.915-.114,1.373-.114a16.063,16.063,0,0,1,8.01.8c10.3,2.975,19.911,8.353,26.662,16.592a1.062,1.062,0,0,0,1.831-1.03,17.57,17.57,0,0,0-2.289-4.119c-1.488-2.06-3.547-3.2-5.722-4.806-4.234-2.975-7.781-4.348-11.9-7.438-2.632-1.831-5.264-3.776-8.239-4.692a17.556,17.556,0,0,0-9.727-.229C22.039,176.875,19.864,181.108,24.327,181.108Z" transform="translate(-11.89 -173.284)" fill="#fff" opacity="0.3"/>
          <path id="Trazado_829799" data-name="Trazado 829799" d="M16.986,179.785a3.358,3.358,0,0,1-1.831-.458,3.837,3.837,0,0,1-1.945-4.119.584.584,0,0,1,.572-.458.76.76,0,0,1,.458.572,2.848,2.848,0,0,0,1.373,2.975,2.307,2.307,0,0,0,1.945.229,3.559,3.559,0,0,1-1.373-1.831,2.623,2.623,0,0,1,.229-2.06,2.042,2.042,0,0,1,1.373-1.03,2.653,2.653,0,0,1,1.831.343,2.247,2.247,0,0,1,1.03,1.488,3.086,3.086,0,0,1-.687,2.746,11.9,11.9,0,0,0,1.716-.229c.229-.114.572.114.687.343s-.114.572-.343.687a5.761,5.761,0,0,1-3.09.114A3.107,3.107,0,0,1,16.986,179.785Zm1.373-5.149H18.13c-.343.114-.572.229-.687.572a2.263,2.263,0,0,0-.229,1.259,2.758,2.758,0,0,0,1.6,1.6l.114-.114a2.152,2.152,0,0,0,.8-2.174A1.736,1.736,0,0,0,18.359,174.635Z" transform="translate(-13.131 -173.563)" fill="#ffbdbd"/>
        </g>
      </g>
    </g>
    <g id="Grupo_1080929" data-name="Grupo 1080929" transform="translate(133.705 9.294)">
      <path id="Trazado_829800" data-name="Trazado 829800" d="M142.079,22.408l-2.174,11.443-.114.229-1.373,1.945s-6.294,4.921-7.667,5.836a1.626,1.626,0,0,1-.687.229c-1.488.114-3.433-1.716-2.746-2.861,4.692-7.552,6.294-9.04,6.523-9.841a49.4,49.4,0,0,1,1.945-5.836s1.373-5.607,4.692-5.149C143.224,18.747,142.079,22.408,142.079,22.408Z" transform="translate(-117.248 -7.984)" fill="#d4ebff"/>
      <path id="Trazado_829801" data-name="Trazado 829801" d="M139.427,33.169l-1.373,1.945s-6.294,4.921-7.667,5.836a1.626,1.626,0,0,1-.687.229c1.488-2.289,5.721-8.125,5.721-8.125l.915-9.154Z" transform="translate(-116.884 -7.186)" fill="#005c8f" opacity="0.3"/>
      <g id="Grupo_1080925" data-name="Grupo 1080925" transform="translate(4.903)">
        <path id="Trazado_829802" data-name="Trazado 829802" d="M139.28,80.405c.572.687.572,2.4.458,4.348-.572,1.945-2.4,1.831-3.891,2.06-2.975.458-4.577,2.746-8.582,2.746-2.4,0-4.005-.572-4.463-2.06-.114-.687.343-1.373,1.144-2.174,0,0,5.493-2.4,5.607-2.517s2.632-1.945,2.632-2.06c0-.229.915-4.348.915-4.348h5.95Z" transform="translate(-122.785 0.389)"/>
        <path id="Trazado_829803" data-name="Trazado 829803" d="M130.5,85.618c2.4,1.488,5.722,2.746,7.209,2.06a1,1,0,0,0,.687-.915c.114-.687.343-1.373.458-2.06,1.259-6.408,1.945-12.587.687-17.966l2.975-10.184.114-.229.687-2.289.114-.229c0-6.179-2.517-8.468-6.98-7.9-.229,0-.458.114-.8.114a4.957,4.957,0,0,0-.572.114c-.343.114-.572.114-.915.229l-.572,3.547-2.517,15.563C130.271,71.429,131.53,80.469,130.5,85.618Z" transform="translate(-121.671 -4.023)" fill="#0082ca"/>
        <path id="Trazado_829804" data-name="Trazado 829804" d="M136.814,87.392a1,1,0,0,0,.687-.915c.114-.687.343-1.373.458-2.06,1.259-6.408,1.945-12.587.687-17.966l2.975-10.184.114-.229c.114.915.458,2.4.572,3.09s.229,1.373.343,2.174l.343-6.637-.687-.8-4.12-5.264a22.982,22.982,0,0,1,.114,2.861,70.259,70.259,0,0,1-1.6,15.219C138.416,71.715,137.615,79.5,136.814,87.392Z" transform="translate(-120.777 -3.622)" fill="#005c8f" opacity="0.5"/>
        <path id="Trazado_829805" data-name="Trazado 829805" d="M154.027,88.39a5.858,5.858,0,0,1,.458,3.547,16.846,16.846,0,0,0-.8,1.945c-.343,1.144-.229,3.09-2.06,4.234-2.06,1.6-6.065,1.716-7.324,0a9.363,9.363,0,0,1,1.6-4.234l2.06-3.776-.114-3.547,5.836-1.259Z" transform="translate(-119.68 1.674)"/>
        <path id="Trazado_829806" data-name="Trazado 829806" d="M135.6,44.788c0,.458.114.915.114,1.373a2.122,2.122,0,0,0,.229.8,14.778,14.778,0,0,0,2.746,4.921,45.693,45.693,0,0,1,3.318,4.234.865.865,0,0,0,.114.458c.114.915.458,2.4.572,3.09s.229,1.373.343,2.174c.915,4.577,1.945,9.383,3.2,14.418a95.81,95.81,0,0,1,2.517,19.911,6.594,6.594,0,0,0,6.065-.229,2.929,2.929,0,0,0,1.144-1.488c0-2.861,0-5.722-.114-8.353-.114-5.607-.572-10.413-1.716-12.587V45.474l-2.632-.343-1.488-.229-9.5-1.144-1.03-.114-.572-.114L136.63,43.3Z" transform="translate(-120.936 -4.387)" fill="#0082ca"/>
        <path id="Trazado_829807" data-name="Trazado 829807" d="M133.7,50.557l2.517.343,15.906,1.831,2.174.229c0-.343.458-8.7.458-8.926l.458-5.836.114-.915.915-12.358a46.108,46.108,0,0,0-9.955-8.125l-7.438.343c-2.632,1.945-3.2,3.547-4.005,8.125,0,0,.572,13.846.114,17.165C134.73,42.432,133.7,50.328,133.7,50.557Z" transform="translate(-121.21 -8.211)" fill="#0082ca"/>
        <path id="Trazado_829808" data-name="Trazado 829808" d="M135.9,25.783c1.945,2.517,5.722,4.119,10.413,5.378.572-5.149,2.632-9.154,6.523-9.269a41.316,41.316,0,0,0-7.095-5.378l-6.179-.114A16.405,16.405,0,0,0,135.9,25.783Z" transform="translate(-120.892 -8.269)" fill="#d4ebff"/>
        <path id="Trazado_829809" data-name="Trazado 829809" d="M146.843,41.41a7.844,7.844,0,0,0,5.607.114l1.03-4.348,1.373-12.13c-.229-1.259-1.6-2.174-2.174-2.746-1.945.229-3.891,1.716-4.692,4.921C146.271,33.743,146.271,38.091,146.843,41.41Z" transform="translate(-119.362 -7.417)" fill="#d4ebff"/>
        <g id="Grupo_1080924" data-name="Grupo 1080924" transform="translate(13.741 1.828)">
          <g id="Grupo_1080923" data-name="Grupo 1080923">
            <path id="Trazado_829810" data-name="Trazado 829810" d="M144.965,15.6l1.6,2.746c1.259,3.318-2.746,6.179-5.149,5.722L138.9,19.605Z" transform="translate(-134.201 -10.213)" fill="#ffb294"/>
            <path id="Trazado_829811" data-name="Trazado 829811" d="M144.62,18.7a8.842,8.842,0,0,1-.8,4.577c-1.831,3.318-3.318.915-4.12-.229Z" transform="translate(-134.085 -9.765)" fill="#ffb294" opacity="0.5"/>
            <path id="Trazado_829812" data-name="Trazado 829812" d="M145.283,18.765a7.365,7.365,0,0,1-3.433,6.065,1.716,1.716,0,0,1-2.174,0l-2.06-2.746a7.029,7.029,0,0,1-1.716-2.975l3.09-6.408H143.8l2.289,3.2Z" transform="translate(-134.633 -10.631)" fill="#ffb294"/>
            <path id="Trazado_829813" data-name="Trazado 829813" d="M146.7,18.454l-1.945.458a1.572,1.572,0,0,0-2.06-.114,7.792,7.792,0,0,1-4.577,1.488,3.377,3.377,0,0,1-3.318-3.662c.114-1.831,3.2-5.95,6.866-5.722,4.234.343,6.294,3.433,5.493,8.125Z" transform="translate(-134.793 -10.892)"/>
          </g>
          <path id="Trazado_829814" data-name="Trazado 829814" d="M144.63,15.705a.591.591,0,0,1,.8.343,1.451,1.451,0,0,1,.114.687,3.047,3.047,0,0,1-.343,1.373,1.58,1.58,0,0,1-.343.458.874.874,0,0,1-.572.229c-.687-.114-.572-1.03-.687-1.6A1.477,1.477,0,0,1,144.63,15.705Z" transform="translate(-133.522 -10.204)" fill="#ffb294"/>
        </g>
        <path id="Trazado_829815" data-name="Trazado 829815" d="M136.872,44.289,136.3,51.5c2.174-.8,3.433-2.517,4.005-2.517,2.517-.343,6.294-.458,8.811-.572a2.644,2.644,0,0,1,2.746,2.4c.8,8.353.687,17.851-1.144,24.946,3.09,4.577,3.891,12.816,4.005,22.085a2.929,2.929,0,0,0,1.144-1.488c0-2.861,0-5.722-.114-8.353-.114-5.607-.572-10.413-1.716-12.587V51.041c0-.343.458-8.7.458-8.926l.458-5.836L150.26,30.1a10.63,10.63,0,0,1-2.861,8.01Z" transform="translate(-120.834 -6.292)" fill="#005c8f" opacity="0.3"/>
        <path id="Trazado_829816" data-name="Trazado 829816" d="M143.381,16.93c-.114,2.975-1.716,5.836-4.692,5.95l-3.09-4.234,1.144-2.746Z" transform="translate(-120.935 -8.341)" fill="#ffb294" opacity="0.5"/>
        <path id="Trazado_829817" data-name="Trazado 829817" d="M138.323,17.444a12.976,12.976,0,0,0,4.692-.229s.343,0,.343.114c-1.831,2.4-4.005,5.95-8.468,4.692-4.005-1.144-1.945-3.318-.114-5.607l.114-.114A9.182,9.182,0,0,0,138.323,17.444Z" transform="translate(-121.37 -8.283)" fill="#00589d"/>
        <path id="Trazado_829818" data-name="Trazado 829818" d="M143.083,18.226a8.312,8.312,0,0,0,3.891-3.433s-.343-5.722-5.493-5.493c-8.468.343-6.866,7.781-6.866,7.781C135.988,19.027,139.192,19.027,143.083,18.226Z" transform="translate(-121.095 -9.294)" fill="#0082ca"/>
      </g>
      <path id="Trazado_829819" data-name="Trazado 829819" d="M138.6,45.607s-.229-.229.687-.915c.687-.572,9.383-6.065,11.329-6.751l-1.03-7.209s-1.259-5.264,2.632-6.98,4.348,2.632,4.348,2.632,2.174,11.786.343,14.189-6.98,4.463-6.98,4.463l-9.154,3.891C139.976,49.154,139.061,47.209,138.6,45.607Z" transform="translate(-115.603 -7.266)" fill="#d4ebff"/>
      <g id="Grupo_1080928" data-name="Grupo 1080928" transform="translate(0 33.166)">
        <path id="Trazado_829820" data-name="Trazado 829820" d="M123.208,42.652s-.458-.915,1.03-1.6,5.493-2.517,5.493-2.517a1.471,1.471,0,0,1,1.6,0c.687.572,7.438,4.348,7.438,4.348a1.158,1.158,0,0,1,.687,1.373,9.092,9.092,0,0,1-1.716,2.517l-4.234,1.945-2.517.229-1.831-1.03-5.493-3.547Z" transform="translate(-117.83 -38.278)" fill="#d4ebff"/>
        <path id="Trazado_829821" data-name="Trazado 829821" d="M138.171,42.3a2.734,2.734,0,0,1-.572,1.6c-2.289,2.632-6.637,3.662-10.3,2.632l1.259.8,1.831,1.03,2.517-.229,4.234-1.945a9.092,9.092,0,0,0,1.716-2.517A1.291,1.291,0,0,0,138.171,42.3Z" transform="translate(-117.23 -37.697)" fill="#255787"/>
        <g id="Grupo_1080926" data-name="Grupo 1080926" transform="translate(7.438 1.742)">
          <path id="Trazado_829822" data-name="Trazado 829822" d="M129.806,41.8a1.073,1.073,0,0,1-.687.915,3.648,3.648,0,0,1-3.433,0A1.073,1.073,0,0,1,125,41.8a1.562,1.562,0,0,1,.687-1.144,3.648,3.648,0,0,1,3.433,0A1.562,1.562,0,0,1,129.806,41.8Z" transform="translate(-125 -39.739)" fill="#255787"/>
          <path id="Trazado_829823" data-name="Trazado 829823" d="M129.806,41.77a1.073,1.073,0,0,1-.687.915,3.647,3.647,0,0,1-3.433,0,.954.954,0,0,1,0-1.831,3.647,3.647,0,0,1,3.433,0A1.779,1.779,0,0,1,129.806,41.77Z" transform="translate(-125 -39.71)" fill="#255787"/>
          <path id="Trazado_829824" data-name="Trazado 829824" d="M128.6,41.043c.687.458.687,1.03,0,1.488a2.692,2.692,0,0,1-2.632,0c-.687-.458-.687-1.03,0-1.488A2.692,2.692,0,0,1,128.6,41.043Z" transform="translate(-124.935 -39.67)" fill="#fff"/>
          <path id="Trazado_829825" data-name="Trazado 829825" d="M128.074,41.132c.458.343.458.8,0,1.03a1.756,1.756,0,0,1-1.831,0c-.458-.343-.458-.8,0-1.03A1.753,1.753,0,0,1,128.074,41.132Z" transform="translate(-124.87 -39.645)" fill="#86beed"/>
          <path id="Trazado_829826" data-name="Trazado 829826" d="M127.5,41.516c0,.343-.8.343-.8,0V40.143c0-.458.8-.458.8,0Z" transform="translate(-124.755 -39.8)" fill="#fff"/>
        </g>
        <g id="Grupo_1080927" data-name="Grupo 1080927" transform="translate(12.244 4.374)">
          <path id="Trazado_829827" data-name="Trazado 829827" d="M134.006,44.2a1.073,1.073,0,0,1-.687.915,3.648,3.648,0,0,1-3.433,0,1.073,1.073,0,0,1-.687-.915,1.562,1.562,0,0,1,.687-1.144,3.648,3.648,0,0,1,3.433,0A1.393,1.393,0,0,1,134.006,44.2Z" transform="translate(-129.2 -42.024)" fill="#255787"/>
          <path id="Trazado_829828" data-name="Trazado 829828" d="M134.006,44.17a1.073,1.073,0,0,1-.687.915,3.648,3.648,0,0,1-3.433,0,.954.954,0,0,1,0-1.831,3.647,3.647,0,0,1,3.433,0A1.073,1.073,0,0,1,134.006,44.17Z" transform="translate(-129.2 -41.995)" fill="#255787"/>
          <path id="Trazado_829829" data-name="Trazado 829829" d="M132.8,43.443c.687.458.687,1.03,0,1.488a2.692,2.692,0,0,1-2.632,0c-.687-.458-.687-1.03,0-1.488A2.692,2.692,0,0,1,132.8,43.443Z" transform="translate(-129.135 -41.956)" fill="#fff"/>
          <path id="Trazado_829830" data-name="Trazado 829830" d="M132.374,43.422c.458.343.458.8,0,1.03a2.06,2.06,0,0,1-1.831,0c-.458-.343-.458-.8,0-1.03A2.522,2.522,0,0,1,132.374,43.422Z" transform="translate(-129.056 -41.934)" fill="#86beed"/>
          <path id="Trazado_829831" data-name="Trazado 829831" d="M131.8,43.816c0,.343-.8.343-.8,0V42.443c0-.458.8-.458.8,0Z" transform="translate(-128.94 -42.1)" fill="#fff"/>
        </g>
        <path id="Trazado_829832" data-name="Trazado 829832" d="M118.958,40.3l-.458,1.03,9.727,5.722,3.433,1.144.572-.8-9.5-5.607Z" transform="translate(-118.5 -37.986)" fill="#86beed"/>
        <path id="Trazado_829833" data-name="Trazado 829833" d="M119.3,40.7l3.2,1.259,8.811,5.149-2.861-1.03Z" transform="translate(-118.385 -37.928)" fill="#271f47"/>
      </g>
      <path id="Trazado_829834" data-name="Trazado 829834" d="M132.216,42.207c-.8-.229-1.259.343-.343.915a3.985,3.985,0,0,0,2.06.572s1.144.229,1.03,1.144a5.676,5.676,0,0,1-1.144,2.289l-1.373.915-1.945.229s0,.343.8.343c0,0-.229.229.114.343,0,0-.114.572,1.144.8,0,0-.343.458.343.572s1.945.229,1.945.229l2.4-.915s3.2-3.433,3.547-3.776a9.064,9.064,0,0,1,1.144-.687s-.572-2.06-1.716-2.632a3.589,3.589,0,0,1-2.06.572c-1.03-.114-1.831-.687-2.289-.687A7.867,7.867,0,0,1,132.216,42.207Z" transform="translate(-116.768 -4.552)" fill="#ffb294"/>
      <path id="Trazado_829835" data-name="Trazado 829835" d="M127.133,40.141s-.114.915.572.8a.9.9,0,0,0,.8-.572,1.769,1.769,0,0,1,.343-.687,1.991,1.991,0,0,0,.343-.8l.915-.343a1.208,1.208,0,0,1,.687,0s.229-.343-.343-.915c-.572-.458-1.373-1.373-2.06-.8a3.1,3.1,0,0,1-.8.915c-.572.458-3.433,3.09-3.433,3.09l-.458.8,3.547-1.716v.229Z" transform="translate(-117.75 -5.348)" fill="#ffb294"/>
    </g>
  </g>
</svg>
