<svg xmlns="http://www.w3.org/2000/svg" xmlns:xlink="http://www.w3.org/1999/xlink" width="256.353" height="167.404" viewBox="0 0 256.353 167.404">
  <defs>
    <clipPath id="clip-path">
      <rect id="Rectángulo_376636" data-name="Rectángulo 376636" width="256.353" height="167.403"/>
    </clipPath>
  </defs>
  <g id="_13248602_5197840" data-name="13248602_5197840" transform="translate(-101.768 -136.299)">
    <g id="Objects" transform="translate(101.768 136.298)">
      <g id="Grupo_1080860" data-name="Grupo 1080860">
        <g id="Grupo_1079735" data-name="Grupo 1079735" transform="translate(218.96 94.844)">
          <rect id="Rectángulo_376610" data-name="Rectángulo 376610" width="0.429" height="3.967" transform="matrix(0.941, -0.34, 0.34, 0.941, 0, 0.146)" fill="#7a7a34"/>
        </g>
        <g id="Grupo_1079736" data-name="Grupo 1079736" transform="translate(178.377 21.374)">
          <path id="Trazado_829249" data-name="Trazado 829249" d="M260.589,288.126a6.819,6.819,0,0,0-.274,1.88A2.007,2.007,0,0,0,260.589,288.126Z" transform="translate(-260.315 -288.126)" fill="#b4c083"/>
        </g>
        <g id="Grupo_1080374" data-name="Grupo 1080374">
          <g id="Grupo_1080373" data-name="Grupo 1080373" clip-path="url(#clip-path)">
            <g id="Grupo_1080220" data-name="Grupo 1080220" transform="translate(-7.762 9.11)">
              <g id="Grupo_1080138" data-name="Grupo 1080138" transform="translate(7.104 18.076)">
                <g id="Grupo_1080134" data-name="Grupo 1080134">
                  <path id="Trazado_829530" data-name="Trazado 829530" d="M74.627,437.96H274.809c-.577-22.655-1.965-46.02-13.063-65.656-4.844-8.57-11.983-16.5-21.457-19.174s-21.3,1.692-24.3,11.066c-12.917-19.205-28.11-37.271-47.21-50.343s-42.489-20.839-65.482-18.187-45.138,16.8-54.251,38.071c-7.58,17.7-5.718,38.1-.549,56.643C53.4,407.978,61.713,425.367,74.627,437.96Z" transform="translate(-43.974 -295.149)" fill="#f2eee1"/>
                </g>
                <g id="Grupo_1080135" data-name="Grupo 1080135" transform="translate(7.926 16.869)">
                  <path id="Trazado_829531" data-name="Trazado 829531" d="M164.034,331.7c-2.206.46-4.413,1.437-6.628,1.016-3.274-.623-5.521-4.134-8.86-4.134-2.969,0-5.708,2.864-8.487,1.872-1.181-.421-1.985-1.456-3.048-2.1-2.483-1.507-5.768-.629-8.443.546s-5.476,2.651-8.384,2.192c-3.324-.524-5.609-3.377-8.529-4.973-4.5-2.459-10.2-1.743-15.088-.089-2.753.931-6.274,1.975-8.222-.092a9.206,9.206,0,0,1-1.457-2.854c-2.455-5.694-9.876-8.242-16.3-7.385-6.241.833-11.757,4.123-17.039,7.4V333.98H158.025a42.556,42.556,0,0,1,11.915-.4C169.07,331.6,166.241,331.237,164.034,331.7Z" transform="translate(-53.551 -315.533)" fill="#fff"/>
                </g>
                <g id="Grupo_1080137" data-name="Grupo 1080137" transform="translate(107.528 43.523)">
                  <g id="Grupo_1080136" data-name="Grupo 1080136">
                    <path id="Trazado_829532" data-name="Trazado 829532" d="M237.606,349.092c-.031-.022-.06-.046-.091-.068-2.323-1.548-5.713-1.874-7.764.021-1.213,1.121-2.256,3.038-3.87,2.693-.936-.2-1.5-1.122-2.247-1.724-1.792-1.449-4.411-.931-6.639-.339l-9.149,2.432a22.341,22.341,0,0,1-5.053.934,36.046,36.046,0,0,1-6.75-.928c-7.362-1.2-14.857.441-22.135,2.07l63.7.747v-5.838Z" transform="translate(-173.908 -347.741)" fill="#fff"/>
                  </g>
                </g>
              </g>
              <g id="Grupo_1080219" data-name="Grupo 1080219">
                <g id="Grupo_1080141" data-name="Grupo 1080141" transform="translate(37.289 79.548)">
                  <g id="Grupo_1080139" data-name="Grupo 1080139">
                    <path id="Trazado_829533" data-name="Trazado 829533" d="M88.292,424.564c-6.143-2.261-9.537-10.083-6.991-16.113-.723-6.9-.842-13.976,1.053-20.644s6.021-12.934,12.137-16.2,14.3-2.973,19.448,1.674c2.154,1.946,3.678,4.494,5.732,6.545s5,3.633,7.795,2.867c2.062-.564,6.433,5.211,7.185,7.213,3.028,8.074,10.7,1.8,14.274,2.6,3.893.865,1.506,1.489,5.19-4.038,1.442-2.162,4.276-2.5,4.614-3.172,3.171-6.272,6.7-10.258,13.7-10.264a19.568,19.568,0,0,1,16.279,8.991c3.846-7.484,15-7.23,17.717,5.924,1.7,8.241,8.985-5.705,16.3-1.544,3.72,2.116,1.09,4.868,1,8.98-.039,1.835-1.183,5.478.286,6.577,4.517,3.377,8.158-3.058,12.58.053,1.607,1.13,2.222,3.193,2.626,5.114s.761,3.981,2.09,5.428c.9.981,3.4.636,5.246-.2a3.277,3.277,0,0,1,4.19,1.394l.03.05a1.485,1.485,0,0,0,2.417.177,9.285,9.285,0,0,1,15.676,2.126c.9,2.021,1.422,4.717,3.559,5.278,1.159.3,2.357-.2,3.539-.394,3.937-.652,7.759,2.288,9.456,5.9s1.757,7.747,1.786,11.737A317.381,317.381,0,0,0,99.661,426.668Z" transform="translate(-80.449 -369.43)" fill="#b4c083"/>
                  </g>
                  <g id="Grupo_1080140" data-name="Grupo 1080140" transform="translate(8.538 19.35)">
                    <path id="Trazado_829534" data-name="Trazado 829534" d="M197.753,403.423c-1.52-2.758-6.542-2.057-7.249,1.012a10.283,10.283,0,0,0-12.806-.371c-.063-2.935-4.07-3.989-6.909-3.241s-5.7,2.408-8.521,1.592c-1.72-.5-3.067-1.85-4.731-2.509s-4.11-.141-4.367,1.63c-1.645-3.644-12.976-3.6-16.463-1.642-10.724.858-8.1-7.311-15.014-7.078-3.648.122-4.933,9.652-10.147,4.148-1.747-1.845-5.079.543-7.479,1.378-5.523,1.921-9.6,6.546-13.3,11.075,60.444-.436,120.024,14.422,177.329,33.652,2.777.932,5.659,1.888,8.572,1.581s5.875-2.253,6.359-5.142-2.679-6.006-5.334-4.77c-4.042-1.375-6.788-5.035-10.171-7.64s-8.741-3.952-11.6-.78a7.105,7.105,0,0,0-10.686-.44A6.311,6.311,0,0,0,237,423.933a5.2,5.2,0,0,0-7.788-1.742c-.291-3.651-5.259-5.929-8.216-3.767a5.532,5.532,0,0,0-7.2-3.88,11,11,0,0,0-7.157-11.63,4.467,4.467,0,0,0-8.888.509Z" transform="translate(-90.766 -392.812)" fill="#7a7a34"/>
                  </g>
                </g>
                <g id="Grupo_1080201" data-name="Grupo 1080201" transform="translate(171.15)">
                  <g id="Grupo_1080158" data-name="Grupo 1080158">
                    <path id="Trazado_829535" data-name="Trazado 829535" d="M263.569,412.432c-.061-.09-.122-.181-.185-.271a7.533,7.533,0,0,1-2.384.92V399.225h-2.145V410.7a14.41,14.41,0,0,1-3.709-2.306l-.262.343a22.475,22.475,0,0,0,2.581,1.815,7.478,7.478,0,0,1-2.684-.333l-.052.363a17.954,17.954,0,0,0,3.361.321c.253.142.506.286.764.419v32.093H261V413.792A22.073,22.073,0,0,0,263.569,412.432Z" transform="translate(-244.363 -295.02)" fill="#533d48"/>
                    <g id="Grupo_1080157" data-name="Grupo 1080157">
                      <path id="Trazado_829536" data-name="Trazado 829536" d="M270.1,352.662l.466.858.377-.2-.909-1.676q-.077-1.192-.156-2.384c.294.5.6,1,.919,1.483l.357-.238c-.486-.727-.924-1.483-1.341-2.249q-.757-11.6-1.577-23.191A12.067,12.067,0,0,0,269,326l.314-.293a11.7,11.7,0,0,1-1.145-1.461c-.022-.306-.043-.612-.065-.918l.246.655.4-.151L268,321.828l-.022-.319c.127.22.254.439.391.65l.36-.233a14.377,14.377,0,0,1-.83-1.476q-.441-5.981-.92-11.958c-.442-5.454-.925-10.944-1.737-16.362l.918,2.175.4-.167-1.592-3.771a87.1,87.1,0,0,0-3.58-14.589A3.615,3.615,0,0,0,255.2,274.6l-.037.047a12.251,12.251,0,0,0-1.926,5.627l-2.249,13.477-1.351,1.989.355.242.827-1.217c-.035.21-.07.42-.105.631l-.111-.06-1.609,3,.378.2,1.187-2.216-.315,1.9-.845,1.494.374.211.267-.473c-2.017,12.158-3.954,24.344-5.256,36.586l-1.71,5.224.408.134,1.1-3.362q-.2,1.992-.376,3.986l-1.2,2.886.4.166.683-1.635q-.488,5.838-.732,11.694c-.022.564-.047,1.163-.071,1.777l-1.073,1.777.367.221.672-1.112c-.022.6-.042,1.215-.061,1.843a13.385,13.385,0,0,1-.87,1.731l.368.219q.252-.422.473-.861c-.009.39-.018.782-.024,1.179l-.468.883.379.2.079-.149c-.045,5.068.213,10.5,1.5,14.372,2.216,6.673,7.767,9.476,14.852,10.772a10.11,10.11,0,0,0,5.439-.391c5.627-2.157,6.246-8.234,6.211-13.511-.033-4.965-.268-9.926-.591-14.879Q270.307,355.933,270.1,352.662Z" transform="translate(-242.203 -273.306)" fill="#7a7a34"/>
                      <g id="Grupo_1080156" data-name="Grupo 1080156" transform="translate(3.731 1.946)">
                        <g id="Grupo_1080142" data-name="Grupo 1080142" transform="translate(5.994 24.814)">
                          <path id="Trazado_829537" data-name="Trazado 829537" d="M253.959,308.626a3.671,3.671,0,0,0,.943-2.984A4.538,4.538,0,0,0,253.959,308.626Z" transform="translate(-253.954 -305.642)" fill="#b4c083"/>
                        </g>
                        <g id="Grupo_1080143" data-name="Grupo 1080143" transform="translate(4.39 30.14)">
                          <path id="Trazado_829538" data-name="Trazado 829538" d="M252.016,316.124a23,23,0,0,0,1.719-4.046A9.609,9.609,0,0,0,252.016,316.124Z" transform="translate(-252.016 -312.078)" fill="#b4c083"/>
                        </g>
                        <g id="Grupo_1080144" data-name="Grupo 1080144" transform="translate(2.579 47.766)">
                          <path id="Trazado_829539" data-name="Trazado 829539" d="M249.858,338.333a7.22,7.22,0,0,0,1.077-4.957A8.678,8.678,0,0,0,249.858,338.333Z" transform="translate(-249.827 -333.376)" fill="#b4c083"/>
                        </g>
                        <g id="Grupo_1080145" data-name="Grupo 1080145" transform="translate(1.97 54.571)">
                          <path id="Trazado_829540" data-name="Trazado 829540" d="M249.613,341.6a4.821,4.821,0,0,0-.49,2.732A3.486,3.486,0,0,0,249.613,341.6Z" transform="translate(-249.091 -341.6)" fill="#b4c083"/>
                        </g>
                        <g id="Grupo_1080146" data-name="Grupo 1080146" transform="translate(9.189)">
                          <path id="Trazado_829541" data-name="Trazado 829541" d="M257.815,279.435a6.093,6.093,0,0,0,1.106-3.778A12.232,12.232,0,0,0,257.815,279.435Z" transform="translate(-257.815 -275.657)" fill="#b4c083"/>
                        </g>
                        <g id="Grupo_1080147" data-name="Grupo 1080147" transform="translate(8.796 4.468)">
                          <path id="Trazado_829542" data-name="Trazado 829542" d="M258.07,281.056a19.864,19.864,0,0,0-.73,2.586A4.859,4.859,0,0,0,258.07,281.056Z" transform="translate(-257.34 -281.056)" fill="#b4c083"/>
                        </g>
                        <g id="Grupo_1080148" data-name="Grupo 1080148" transform="translate(8.962 7.278)">
                          <path id="Trazado_829543" data-name="Trazado 829543" d="M257.9,285.319a12.355,12.355,0,0,0-.362,2.183,8.01,8.01,0,0,0,.717-1.453,2.7,2.7,0,0,0,.087-1.6A1.585,1.585,0,0,0,257.9,285.319Z" transform="translate(-257.54 -284.452)" fill="#b4c083"/>
                        </g>
                        <g id="Grupo_1080149" data-name="Grupo 1080149" transform="translate(2.812 59.164)">
                          <path id="Trazado_829544" data-name="Trazado 829544" d="M250.11,350.785a7.846,7.846,0,0,0,.724-3.191c0-.18-.041-.41-.218-.444A12.312,12.312,0,0,0,250.11,350.785Z" transform="translate(-250.109 -347.15)" fill="#b4c083"/>
                        </g>
                        <g id="Grupo_1080150" data-name="Grupo 1080150" transform="translate(0.274 74.839)">
                          <path id="Trazado_829545" data-name="Trazado 829545" d="M247.237,370.09a5.46,5.46,0,0,0,.146-4A7.741,7.741,0,0,0,247.237,370.09Z" transform="translate(-247.042 -366.091)" fill="#b4c083"/>
                        </g>
                        <g id="Grupo_1080151" data-name="Grupo 1080151" transform="translate(0 80.513)">
                          <path id="Trazado_829546" data-name="Trazado 829546" d="M247.076,374.456a7.5,7.5,0,0,0-.091-1.509,3.23,3.23,0,0,0-.147,2.2A.922.922,0,0,0,247.076,374.456Z" transform="translate(-246.711 -372.947)" fill="#b4c083"/>
                        </g>
                        <g id="Grupo_1080152" data-name="Grupo 1080152" transform="translate(1.03 78.436)">
                          <path id="Trazado_829547" data-name="Trazado 829547" d="M248.244,370.438a7.67,7.67,0,0,0-.283,2.367.38.38,0,0,0,.046.2.134.134,0,0,0,.18.047A3.191,3.191,0,0,0,248.244,370.438Z" transform="translate(-247.956 -370.438)" fill="#b4c083"/>
                        </g>
                        <g id="Grupo_1080153" data-name="Grupo 1080153" transform="translate(0.602 95.496)">
                          <path id="Trazado_829548" data-name="Trazado 829548" d="M248.071,394.975a15.89,15.89,0,0,0-.338-3.923,6.4,6.4,0,0,0-.29,2.013A3.412,3.412,0,0,0,248.071,394.975Z" transform="translate(-247.439 -391.052)" fill="#b4c083"/>
                        </g>
                        <g id="Grupo_1080154" data-name="Grupo 1080154" transform="translate(1.899 98.458)">
                          <path id="Trazado_829549" data-name="Trazado 829549" d="M249.522,397.384a6.037,6.037,0,0,0-.436-2.752,7.083,7.083,0,0,0-.065,1.431A2.369,2.369,0,0,0,249.522,397.384Z" transform="translate(-249.006 -394.632)" fill="#b4c083"/>
                        </g>
                        <g id="Grupo_1080155" data-name="Grupo 1080155" transform="translate(1.14 101.783)">
                          <path id="Trazado_829550" data-name="Trazado 829550" d="M248.088,398.65a5.785,5.785,0,0,0,.909,2.872c.1.156.279.328.444.242a.321.321,0,0,0,.141-.267,1.689,1.689,0,0,0-.2-.8C249.022,399.867,248.446,399.473,248.088,398.65Z" transform="translate(-248.088 -398.65)" fill="#b4c083"/>
                        </g>
                      </g>
                    </g>
                  </g>
                  <g id="Grupo_1080174" data-name="Grupo 1080174" transform="translate(73.877 83.108)">
                    <path id="Trazado_829551" data-name="Trazado 829551" d="M342.082,434.41l-.2-.348a5.514,5.514,0,0,1-1.772,1.3l-.531-25.446-1.216.3V433.1a9.558,9.558,0,0,1-3.4-1.742l-.221.229a9.39,9.39,0,0,0,3.623,1.912V454.4h2.145l-.375-17.932A8.968,8.968,0,0,0,342.082,434.41Z" transform="translate(-332.038 -379.971)" fill="#533d48"/>
                    <g id="Grupo_1080173" data-name="Grupo 1080173">
                      <path id="Trazado_829552" data-name="Trazado 829552" d="M345.043,414.052c-.2-3.165-.581-6.31-1.068-9.443l.328.3.288-.317-.724-.658c-.06-.373-.117-.746-.18-1.12l.283.273.3-.309-.7-.678c-.028-.163-.059-.325-.087-.488l.058.064.318-.288-.517-.569c-.032-.178-.063-.356-.1-.534l.579.846.353-.243-1.123-1.641c-.516-2.743-1.079-5.48-1.644-8.212q-1.508-7.289-3.016-14.577c-.266-1.284-.99-2.91-2.284-2.706-1.134.179-1.483,1.617-1.576,2.762q-.37,4.563-.739,9.127l-.226,2.8a3.242,3.242,0,0,1-.868,1.553l.3.309a3.585,3.585,0,0,0,.466-.564c-.031.391-.061.784-.093,1.175l-.7,1.173.368.219.256-.429q-.024.3-.046.59l-.391.927.31.13c-.529,6.93-.973,13.866-1.1,20.813-.011.591-.019,1.185-.012,1.779a8.781,8.781,0,0,0-.578,2.114l.425.059a8.112,8.112,0,0,1,.2-.955c.012.222.025.444.045.665l-.041-.01-.421,1.718.416.1.181-.738c.023.146.051.293.078.439a3.1,3.1,0,0,0-.237,1.106l.429.007c0-.068.012-.135.019-.2a10.035,10.035,0,0,0,.358,1.1c.007.017.017.032.023.049a5.02,5.02,0,0,0,.028.8l.324-.041a6.337,6.337,0,0,0,4.953,3.575c2.582.153,4.918-1.833,5.945-4.207A16.573,16.573,0,0,0,345.043,414.052Z" transform="translate(-331.475 -373.732)" fill="#7a7a34"/>
                      <g id="Grupo_1080172" data-name="Grupo 1080172" transform="translate(1.851 2.443)">
                        <g id="Grupo_1080159" data-name="Grupo 1080159" transform="translate(1.842 7.873)">
                          <path id="Trazado_829553" data-name="Trazado 829553" d="M335.987,388.022a2.442,2.442,0,0,0,.224-1.824A3.078,3.078,0,0,0,335.987,388.022Z" transform="translate(-335.937 -386.198)" fill="#b4c083"/>
                        </g>
                        <g id="Grupo_1080160" data-name="Grupo 1080160" transform="translate(1.927)">
                          <path id="Trazado_829554" data-name="Trazado 829554" d="M336.283,378a2.281,2.281,0,0,0-.042-1.321,2.182,2.182,0,0,0-.168,1.282c.013.074.061.169.134.148C336.25,378.1,336.27,378.049,336.283,378Z" transform="translate(-336.041 -376.684)" fill="#b4c083"/>
                        </g>
                        <g id="Grupo_1080161" data-name="Grupo 1080161" transform="translate(1.784 2.602)">
                          <path id="Trazado_829555" data-name="Trazado 829555" d="M335.944,381.106a2.256,2.256,0,0,0,.07-1.278A1.941,1.941,0,0,0,335.944,381.106Z" transform="translate(-335.868 -379.828)" fill="#b4c083"/>
                        </g>
                        <g id="Grupo_1080162" data-name="Grupo 1080162" transform="translate(2.522 1.567)">
                          <path id="Trazado_829556" data-name="Trazado 829556" d="M337.073,379.687a.562.562,0,1,0-.262-.022c.025.1.111.215.2.166A.176.176,0,0,0,337.073,379.687Z" transform="translate(-336.759 -378.578)" fill="#b4c083"/>
                        </g>
                        <g id="Grupo_1080163" data-name="Grupo 1080163" transform="translate(0.207 24.458)">
                          <path id="Trazado_829557" data-name="Trazado 829557" d="M334.074,406.238a17.23,17.23,0,0,0-.094,2.795C334.548,408.243,334.261,407.191,334.074,406.238Z" transform="translate(-333.961 -406.238)" fill="#b4c083"/>
                        </g>
                        <g id="Grupo_1080164" data-name="Grupo 1080164" transform="translate(0.001 28.676)">
                          <path id="Trazado_829558" data-name="Trazado 829558" d="M333.874,411.336a9.736,9.736,0,0,0-.113,2.716.887.887,0,0,0,.286-.662A9.875,9.875,0,0,0,333.874,411.336Z" transform="translate(-333.713 -411.336)" fill="#b4c083"/>
                        </g>
                        <g id="Grupo_1080165" data-name="Grupo 1080165" transform="translate(0.717 27.648)">
                          <path id="Trazado_829559" data-name="Trazado 829559" d="M334.733,411.64a2.635,2.635,0,0,0,.024-1.547A1.875,1.875,0,0,0,334.733,411.64Z" transform="translate(-334.577 -410.093)" fill="#b4c083"/>
                        </g>
                        <g id="Grupo_1080166" data-name="Grupo 1080166" transform="translate(0 39.513)">
                          <path id="Trazado_829560" data-name="Trazado 829560" d="M333.739,424.431a5.828,5.828,0,0,0,.382,2.989A4.7,4.7,0,0,0,333.739,424.431Z" transform="translate(-333.712 -424.431)" fill="#b4c083"/>
                        </g>
                        <g id="Grupo_1080167" data-name="Grupo 1080167" transform="translate(0.549 37.929)">
                          <path id="Trazado_829561" data-name="Trazado 829561" d="M334.64,424.215a2.412,2.412,0,0,0-.079-1.7A1.725,1.725,0,0,0,334.64,424.215Z" transform="translate(-334.375 -422.517)" fill="#b4c083"/>
                        </g>
                        <g id="Grupo_1080168" data-name="Grupo 1080168" transform="translate(1.089 43.099)">
                          <path id="Trazado_829562" data-name="Trazado 829562" d="M335.42,430.952a2.627,2.627,0,0,0-.282-2.188A2.757,2.757,0,0,0,335.42,430.952Z" transform="translate(-335.028 -428.764)" fill="#b4c083"/>
                        </g>
                        <g id="Grupo_1080169" data-name="Grupo 1080169" transform="translate(1.645 41.657)">
                          <path id="Trazado_829563" data-name="Trazado 829563" d="M335.7,427.022a2.879,2.879,0,0,0,.219,1.047c.017.041.046.087.089.083s.064-.061.069-.108C336.14,427.521,335.86,427.524,335.7,427.022Z" transform="translate(-335.699 -427.022)" fill="#b4c083"/>
                        </g>
                        <g id="Grupo_1080170" data-name="Grupo 1080170" transform="translate(1.959 37.17)">
                          <path id="Trazado_829564" data-name="Trazado 829564" d="M336.3,423.743a2.689,2.689,0,0,0-.07-2.144A3.274,3.274,0,0,0,336.3,423.743Z" transform="translate(-336.079 -421.599)" fill="#b4c083"/>
                        </g>
                        <g id="Grupo_1080171" data-name="Grupo 1080171" transform="translate(0.721 34.699)">
                          <path id="Trazado_829565" data-name="Trazado 829565" d="M334.82,420.042a3.751,3.751,0,0,0-.052-1.428,2.254,2.254,0,0,0-.114,1.453c.011.041.03.088.07.094C334.78,420.17,334.811,420.1,334.82,420.042Z" transform="translate(-334.583 -418.614)" fill="#b4c083"/>
                        </g>
                      </g>
                    </g>
                  </g>
                  <g id="Grupo_1080184" data-name="Grupo 1080184" transform="translate(55.898 45.062)">
                    <path id="Trazado_829566" data-name="Trazado 829566" d="M321.946,429.215l-.1-.487a3.484,3.484,0,0,1-.974.374l-.669-29.543-1.144.012v22.653A8.549,8.549,0,0,1,316.4,420.6c-.127,0-.2.166-.154.284a.591.591,0,0,0,.261.265l2.547,1.671v20.94H321.2l-.312-13.785A7.9,7.9,0,0,1,321.946,429.215Z" transform="translate(-310.868 -340.14)" fill="#533d48"/>
                    <path id="Trazado_829567" data-name="Trazado 829567" d="M327.183,396.414l.41-.127a5.746,5.746,0,0,0-.9-1.733c.007-.179.017-.357.021-.535l.024.058.4-.164-.414-1c0-.977-.033-1.955-.074-2.924-.162-3.908-.439-7.8-.8-11.681l.377.4.312-.3-.756-.8c-.052-.544-.1-1.087-.157-1.63l.362.466.338-.263-.784-1.007c-.034-.322-.071-.643-.106-.965l.115.179.361-.231-.581-.9c-.036-.317-.068-.634-.1-.951l.236-.21c-.108-.121-.206-.248-.3-.377-.57-4.873-1.263-9.727-2.027-14.567l.079-.07-.112-.129q-.154-.971-.312-1.94l.07-.027-.127-.329c-.07-.434-.137-.867-.209-1.3l.206-.126-.313-.513q-.082-.493-.165-.986l.409.577.35-.248-.921-1.3c-.021-.119-.041-.238-.061-.358l.228-.168c-.122-.166-.23-.34-.344-.511-.962-5.611-1.992-11.205-3.022-16.789-.449-2.432-1.555-5.48-3.527-5.148-1.682.283-2.347,2.846-2.623,4.948q-.7,5.305-1.179,10.651c-.214.472-.419.948-.6,1.433l.4.151c.025-.065.054-.128.079-.193q-.062.719-.118,1.437l-.907,1.677.377.2.442-.818q-.7,9.162-.774,18.378l-.7,2.811.416.1.263-1.073c0,.334,0,.668,0,1a5.552,5.552,0,0,0-.6,1.922l.425.05a5.073,5.073,0,0,1,.183-.843q0,.632.011,1.263a5.575,5.575,0,0,0-.711,2.442l.428.022a5.206,5.206,0,0,1,.291-1.454q.089,6.563.495,13.11l-.473,2.009.417.1.151-.642c.046.676.082,1.354.132,2.03l-.933,2.886.408.132.616-1.9c.024.307.05.614.074.92l-.4,1.375.411.121.087-.3c.01.113.017.225.027.337.024.27.05.54.074.811l-.219.477.278.128a26.692,26.692,0,0,0,1.745,7.941c1.234,2.843,3.534,5.177,6.114,5.161,2.82-.017,5.247-2.848,6.305-6.129.022-.066.036-.134.056-.2l.318-.1c-.054-.18-.1-.361-.141-.543a19.287,19.287,0,0,0,.455-2.316l.154.413.4-.149-.444-1.192c.036-.367.068-.736.089-1.106A5.207,5.207,0,0,1,327.183,396.414Z" transform="translate(-309.749 -327.758)" fill="#7a7a34"/>
                    <g id="Grupo_1080183" data-name="Grupo 1080183" transform="translate(2.038 27.744)">
                      <g id="Grupo_1080175" data-name="Grupo 1080175" transform="translate(0.742 36.822)">
                        <path id="Trazado_829568" data-name="Trazado 829568" d="M313.587,408.606a3.707,3.707,0,0,0-.339-2.828A3.7,3.7,0,0,0,313.587,408.606Z" transform="translate(-313.107 -405.778)" fill="#b4c083"/>
                      </g>
                      <g id="Grupo_1080176" data-name="Grupo 1080176" transform="translate(1.109 33.933)">
                        <path id="Trazado_829569" data-name="Trazado 829569" d="M313.757,402.287a2.353,2.353,0,0,0,.466,2.6A4.366,4.366,0,0,0,313.757,402.287Z" transform="translate(-313.552 -402.287)" fill="#b4c083"/>
                      </g>
                      <g id="Grupo_1080177" data-name="Grupo 1080177" transform="translate(2.391 38.019)">
                        <path id="Trazado_829570" data-name="Trazado 829570" d="M315.826,411.309a5.885,5.885,0,0,0-.511-4.084A5.105,5.105,0,0,0,315.826,411.309Z" transform="translate(-315.101 -407.225)" fill="#b4c083"/>
                      </g>
                      <g id="Grupo_1080178" data-name="Grupo 1080178" transform="translate(0 4.081)">
                        <path id="Trazado_829571" data-name="Trazado 829571" d="M312.545,368.419a2.914,2.914,0,0,0-.069-2.2A2.185,2.185,0,0,0,312.545,368.419Z" transform="translate(-312.211 -366.214)" fill="#b4c083"/>
                      </g>
                      <g id="Grupo_1080179" data-name="Grupo 1080179" transform="translate(0.462)">
                        <path id="Trazado_829572" data-name="Trazado 829572" d="M312.786,363.733a4.487,4.487,0,0,0,.285-2.45A6.684,6.684,0,0,0,312.786,363.733Z" transform="translate(-312.769 -361.283)" fill="#b4c083"/>
                      </g>
                      <g id="Grupo_1080180" data-name="Grupo 1080180" transform="translate(1.061 2.464)">
                        <path id="Trazado_829573" data-name="Trazado 829573" d="M313.709,364.26a2.051,2.051,0,0,0,.083,1.98A4.352,4.352,0,0,0,313.709,364.26Z" transform="translate(-313.493 -364.26)" fill="#b4c083"/>
                      </g>
                      <g id="Grupo_1080181" data-name="Grupo 1080181" transform="translate(1.851 42.787)">
                        <path id="Trazado_829574" data-name="Trazado 829574" d="M314.686,413.091c-.008-.041-.022-.087-.061-.1-.065-.024-.113.063-.126.131a2.923,2.923,0,0,0,.433,2.151A7.468,7.468,0,0,0,314.686,413.091Z" transform="translate(-314.448 -412.986)" fill="#b4c083"/>
                      </g>
                      <g id="Grupo_1080182" data-name="Grupo 1080182" transform="translate(3.095 44.669)">
                        <path id="Trazado_829575" data-name="Trazado 829575" d="M316.584,417.3a3.271,3.271,0,0,0-.577-2.043,3.227,3.227,0,0,0,.309,2.087c.038.072.106.155.183.128S316.58,417.371,316.584,417.3Z" transform="translate(-315.951 -415.26)" fill="#b4c083"/>
                      </g>
                    </g>
                  </g>
                  <g id="Grupo_1080200" data-name="Grupo 1080200" transform="translate(33.575 57.85)">
                    <path id="Trazado_829576" data-name="Trazado 829576" d="M299.248,423.87c-.025-.045-.094-.022-.137.007a5.264,5.264,0,0,1-2.175.792v-25.5l-1.573-.214-.572,44.4h2.145V425.234a6.126,6.126,0,0,0,2.266-1.259C299.234,423.948,299.268,423.907,299.248,423.87Z" transform="translate(-284.847 -352.824)" fill="#533d48"/>
                    <g id="Grupo_1080199" data-name="Grupo 1080199">
                      <path id="Trazado_829577" data-name="Trazado 829577" d="M303.479,385.012c-.066-.794-.136-1.589-.2-2.383a10.773,10.773,0,0,0,.862,1.432l.347-.252a10.526,10.526,0,0,1-1.321-2.488q-.02-.237-.041-.474l.334-.051a6.267,6.267,0,0,0-.477-1.554c-.057-.647-.118-1.293-.176-1.941a5.83,5.83,0,0,1,.689,1.742l.419-.09a6.274,6.274,0,0,0-1.185-2.5q-.511-5.534-1.12-11.059c-.761-6.807-1.332-13.815-4.293-20.31a3.113,3.113,0,0,0-4.585-1.326,3.021,3.021,0,0,0-.3.249,5.672,5.672,0,0,0-1.446,3.1q-.865,3.8-1.731,7.605c-.008.037-.017.074-.026.112l-.878,1.207.347.253.291-.4-.146.646-.8.994.334.27.256-.316c-.022.094-.043.188-.064.282l-.732.957.341.262.163-.214c-1.622,7.207-3.139,14.433-4.048,21.7l-1.51,3.067.385.19.984-2q-.042.37-.084.74a4.584,4.584,0,0,0-.679,2.109l.428.028a3.832,3.832,0,0,1,.058-.387q-.192,2.047-.309,4.1a40.183,40.183,0,0,0,.84,9.541,3.98,3.98,0,0,1-.4-.6l-.377.2a4.469,4.469,0,0,0,.971,1.222,19.217,19.217,0,0,0,.55,1.845,3.688,3.688,0,0,1-.914-1.515l-.411.121a4.142,4.142,0,0,0,1.652,2.223c.011.023.02.05.03.073,1.5,3.3,4.1,3.578,8.6,4.678,2.485.607,5.443.53,7.468-.687,2.566-1.543,2.868-4.3,2.84-6.732C304.355,394.119,303.856,389.564,303.479,385.012Z" transform="translate(-282.775 -343.211)" fill="#7a7a34"/>
                      <g id="Grupo_1080198" data-name="Grupo 1080198" transform="translate(2.634 1.383)">
                        <g id="Grupo_1080185" data-name="Grupo 1080185" transform="translate(3.99 16.578)">
                          <path id="Trazado_829578" data-name="Trazado 829578" d="M291.674,364.916a4.591,4.591,0,0,0-.882,3.045C291.593,366.966,291.5,366.183,291.674,364.916Z" transform="translate(-290.779 -364.916)" fill="#b4c083"/>
                        </g>
                        <g id="Grupo_1080186" data-name="Grupo 1080186" transform="translate(2.05 22.869)">
                          <path id="Trazado_829579" data-name="Trazado 829579" d="M288.445,375.02a3.1,3.1,0,0,0,.871-2.5A3.346,3.346,0,0,0,288.445,375.02Z" transform="translate(-288.436 -372.518)" fill="#b4c083"/>
                        </g>
                        <g id="Grupo_1080187" data-name="Grupo 1080187" transform="translate(1.573 27.529)">
                          <path id="Trazado_829580" data-name="Trazado 829580" d="M288.4,378.148a3.577,3.577,0,0,0-.469,2.6C288.743,379.7,288.589,379.465,288.4,378.148Z" transform="translate(-287.859 -378.148)" fill="#b4c083"/>
                        </g>
                        <g id="Grupo_1080188" data-name="Grupo 1080188" transform="translate(3.31 25.078)">
                          <path id="Trazado_829581" data-name="Trazado 829581" d="M289.973,376.568a1.5,1.5,0,0,0,.442-1.381A1.692,1.692,0,0,0,289.973,376.568Z" transform="translate(-289.957 -375.187)" fill="#b4c083"/>
                        </g>
                        <g id="Grupo_1080189" data-name="Grupo 1080189" transform="translate(0 41.857)">
                          <path id="Trazado_829582" data-name="Trazado 829582" d="M286.011,398.73c.012.087.038.189.12.22.11.041.211-.077.266-.181a3.935,3.935,0,0,0,.14-3.307A5.675,5.675,0,0,0,286.011,398.73Z" transform="translate(-285.958 -395.462)" fill="#b4c083"/>
                        </g>
                        <g id="Grupo_1080190" data-name="Grupo 1080190" transform="translate(0.082 47.07)">
                          <path id="Trazado_829583" data-name="Trazado 829583" d="M286.187,403.957a2.91,2.91,0,0,0,.2-2.2A2.9,2.9,0,0,0,286.187,403.957Z" transform="translate(-286.057 -401.762)" fill="#b4c083"/>
                        </g>
                        <g id="Grupo_1080191" data-name="Grupo 1080191" transform="translate(1.357 45.482)">
                          <path id="Trazado_829584" data-name="Trazado 829584" d="M287.994,399.843a1.572,1.572,0,0,0-.2,1.8A3.367,3.367,0,0,0,287.994,399.843Z" transform="translate(-287.598 -399.843)" fill="#b4c083"/>
                        </g>
                        <g id="Grupo_1080192" data-name="Grupo 1080192" transform="translate(0.28 51.43)">
                          <path id="Trazado_829585" data-name="Trazado 829585" d="M286.439,409.566c.01.045.037.1.084.1s.052-.051.06-.089a5.237,5.237,0,0,0-.156-2.543A5.967,5.967,0,0,0,286.439,409.566Z" transform="translate(-286.296 -407.03)" fill="#b4c083"/>
                        </g>
                        <g id="Grupo_1080193" data-name="Grupo 1080193" transform="translate(1.022 54.683)">
                          <path id="Trazado_829586" data-name="Trazado 829586" d="M287.193,410.961a3.488,3.488,0,0,0,.493,1.809c.023.039.06.083.1.072s.055-.065.06-.108C287.92,411.972,287.5,411.661,287.193,410.961Z" transform="translate(-287.193 -410.961)" fill="#b4c083"/>
                        </g>
                        <g id="Grupo_1080194" data-name="Grupo 1080194" transform="translate(0.671 34.3)">
                          <path id="Trazado_829587" data-name="Trazado 829587" d="M287,386.33a6.838,6.838,0,0,0-.171,2.667A3.3,3.3,0,0,0,287,386.33Z" transform="translate(-286.768 -386.33)" fill="#b4c083"/>
                        </g>
                        <g id="Grupo_1080195" data-name="Grupo 1080195" transform="translate(1.292 32.702)">
                          <path id="Trazado_829588" data-name="Trazado 829588" d="M287.759,384.4a1.99,1.99,0,0,0-.176,1.448.13.13,0,0,0,.063.1c.076.03.125-.083.131-.165C287.814,385.175,287.721,385,287.759,384.4Z" transform="translate(-287.519 -384.4)" fill="#b4c083"/>
                        </g>
                        <g id="Grupo_1080196" data-name="Grupo 1080196" transform="translate(7.035)">
                          <path id="Trazado_829589" data-name="Trazado 829589" d="M295.276,344.883a2.022,2.022,0,0,0-.794,1.914A2.793,2.793,0,0,0,295.276,344.883Z" transform="translate(-294.458 -344.883)" fill="#b4c083"/>
                        </g>
                        <g id="Grupo_1080197" data-name="Grupo 1080197" transform="translate(6.667 3.241)">
                          <path id="Trazado_829590" data-name="Trazado 829590" d="M294.083,350.779a2.552,2.552,0,0,0,.22-1.979A3.152,3.152,0,0,0,294.083,350.779Z" transform="translate(-294.014 -348.799)" fill="#b4c083"/>
                        </g>
                      </g>
                    </g>
                  </g>
                </g>
                <g id="Grupo_1080216" data-name="Grupo 1080216" transform="translate(51.549 33.761)">
                  <g id="Grupo_1080202" data-name="Grupo 1080202" transform="translate(3.11 34.123)">
                    <rect id="Rectángulo_376621" data-name="Rectángulo 376621" width="1.931" height="63.06" fill="#533d48"/>
                  </g>
                  <g id="Grupo_1080203" data-name="Grupo 1080203" transform="translate(21.77 34.123)">
                    <rect id="Rectángulo_376622" data-name="Rectángulo 376622" width="1.931" height="63.06" fill="#533d48"/>
                  </g>
                  <g id="Grupo_1080204" data-name="Grupo 1080204" transform="translate(0 33.909)">
                    <rect id="Rectángulo_376623" data-name="Rectángulo 376623" width="27.884" height="0.965" fill="#533d48"/>
                  </g>
                  <g id="Grupo_1080205" data-name="Grupo 1080205" transform="translate(3.218 10.421)">
                    <rect id="Rectángulo_376624" data-name="Rectángulo 376624" width="19.947" height="21.878" fill="#533d48"/>
                  </g>
                  <g id="Grupo_1080206" data-name="Grupo 1080206" transform="translate(1.346)">
                    <path id="Trazado_829591" data-name="Trazado 829591" d="M99.307,323.664l11.9-9.562,11.9,9.562Z" transform="translate(-99.307 -314.102)" fill="#533d48"/>
                  </g>
                  <g id="Grupo_1080207" data-name="Grupo 1080207" transform="translate(4.039 37.626)">
                    <rect id="Rectángulo_376625" data-name="Rectángulo 376625" width="18.517" height="1.287" fill="#533d48"/>
                  </g>
                  <g id="Grupo_1080208" data-name="Grupo 1080208" transform="translate(4.039 37.703)">
                    <path id="Trazado_829592" data-name="Trazado 829592" d="M121.079,374.524l-18.518-13.576v-1.287l18.518,13.576Z" transform="translate(-102.561 -359.661)" fill="#533d48"/>
                  </g>
                  <g id="Grupo_1080209" data-name="Grupo 1080209" transform="translate(4.039 37.703)">
                    <path id="Trazado_829593" data-name="Trazado 829593" d="M102.561,374.524l18.518-13.576v-1.287l-18.518,13.576Z" transform="translate(-102.561 -359.661)" fill="#533d48"/>
                  </g>
                  <g id="Grupo_1080210" data-name="Grupo 1080210" transform="translate(4.039 31.407)">
                    <rect id="Rectángulo_376626" data-name="Rectángulo 376626" width="2.431" height="2.931" fill="#533d48"/>
                  </g>
                  <g id="Grupo_1080211" data-name="Grupo 1080211" transform="translate(19.697 31.407)">
                    <rect id="Rectángulo_376627" data-name="Rectángulo 376627" width="2.431" height="2.931" fill="#533d48"/>
                  </g>
                  <g id="Grupo_1080212" data-name="Grupo 1080212" transform="translate(12.351 31.746)">
                    <rect id="Rectángulo_376628" data-name="Rectángulo 376628" width="2.431" height="2.931" fill="#533d48"/>
                  </g>
                  <g id="Grupo_1080213" data-name="Grupo 1080213" transform="translate(12.566 8.849)">
                    <rect id="Rectángulo_376629" data-name="Rectángulo 376629" width="0.715" height="2.931" fill="#533d48"/>
                  </g>
                  <g id="Grupo_1080214" data-name="Grupo 1080214" transform="translate(4.611 8.849)">
                    <rect id="Rectángulo_376630" data-name="Rectángulo 376630" width="0.715" height="2.931" fill="#533d48"/>
                  </g>
                  <g id="Grupo_1080215" data-name="Grupo 1080215" transform="translate(20.269 8.849)">
                    <rect id="Rectángulo_376631" data-name="Rectángulo 376631" width="0.715" height="2.931" fill="#533d48"/>
                  </g>
                </g>
                <g id="Grupo_1080217" data-name="Grupo 1080217" transform="translate(0.001 110.983)">
                  <path id="Trazado_829594" data-name="Trazado 829594" d="M35.39,455.74H298.067c-10.833-8.281-22.107-16.212-35.149-20.671-13.518-4.623-28.138-5.239-42.261-7.775-27.651-4.964-53.75-17.36-81.843-18.971-25.2-1.445-83.052-3.1-103.425,11.688v35.73Z" transform="translate(-35.39 -407.416)" fill="#ec8a70"/>
                </g>
                <g id="Grupo_1080218" data-name="Grupo 1080218" transform="translate(0 110.983)">
                  <path id="Trazado_829595" data-name="Trazado 829595" d="M262.918,435.069c-13.518-4.623-28.139-5.239-42.261-7.775-27.651-4.964-53.75-17.36-81.843-18.971-25.2-1.445-83.052-3.1-103.425,11.688v10.037A94.625,94.625,0,0,0,56.7,425.666c24.481-8.579,48.962-16.3,74.35-13.728,16.321.858,27.2,16.3,42.615,18.876,22.668,4.29,46.242-2.574,68,8.579,8.437,4.2,15.132,10.256,21.687,16.348h34.715C287.234,447.46,275.959,439.528,262.918,435.069Z" transform="translate(-35.389 -407.416)" fill="#eaada2"/>
                </g>
              </g>
            </g>
            <g id="Grupo_1080266" data-name="Grupo 1080266" transform="translate(7.652 94.597)">
              <g id="Grupo_1080221" data-name="Grupo 1080221" transform="translate(12.347 5.298)">
                <path id="Trazado_829596" data-name="Trazado 829596" d="M75.111,384.946a8.126,8.126,0,0,0-4.448,5.463,19.956,19.956,0,0,0-.122,6.652,16.534,16.534,0,0,1-.357,6.638,18.326,18.326,0,0,0-1.231,3.77c-.158,1.694.684,3.334,1.134,5,.906,3.342.228,6.813.5,10.223a9.065,9.065,0,0,0,.705,3.072,13.773,13.773,0,0,0,1.481,2.338,4.7,4.7,0,0,0,1.85,1.719,6.868,6.868,0,0,0,3.771.084c.845-1.02.213-2.408-.753-3.361s-2.255-1.727-2.928-2.824a6.179,6.179,0,0,1-.666-3.2c-.048-1.96-.1-3.92-.041-5.88.047-1.718.173-3.434.3-5.149a6.665,6.665,0,0,1,.627-2.8c1.039-1.892,3.645-2.872,5.781-4.077,4.213-2.374,7.066-6.171,7.666-10.2a8.038,8.038,0,0,0-2.148-7.1,8.649,8.649,0,0,0-8.551-1.837Z" transform="translate(-68.934 -383.009)" fill="#533d48"/>
              </g>
              <g id="Grupo_1080222" data-name="Grupo 1080222" transform="translate(51.117 4.573)">
                <path id="Trazado_829597" data-name="Trazado 829597" d="M118.722,384.1a20.339,20.339,0,0,0-2.92,8.645,10.9,10.9,0,0,0,3.153,8.459c1.555,1.548,3.189,2.13,3.976,3.987a7.346,7.346,0,0,1,.439,2.49c.124,2.13-.262,4.351-.138,6.481.037.646,1.008,1.437.6,2-.226.318-.468,1.073-.653,1.405-.4.717.922,2.494,1.211,3.241.793,2.048.328,2.791.093,4.92a2.757,2.757,0,0,0,.847,2.757,11.32,11.32,0,0,0,1.26.646c1.226.654.161,1.588.534,3.137,2.091.322,4.29.751,4.891-.346-.465-2.642-.6-3.456-1.952-4.829a10.576,10.576,0,0,1-1.547-1.971,5.141,5.141,0,0,1-.691-2.446q-.195-1.857-.391-3.714a3.324,3.324,0,0,1,.375-2.431c.167-.226.083-.384.115-.643a1.448,1.448,0,0,0-.22-1.054,3.467,3.467,0,0,1-.756-1.861c-.053-1.713.379-3.571.325-5.284a16.433,16.433,0,0,1,.465-2.87,14.927,14.927,0,0,1,.976-2.915,54.723,54.723,0,0,0,2.552-8.72,11.975,11.975,0,0,0,.181-5.238,7.651,7.651,0,0,0-3.064-4.608,6.426,6.426,0,0,0-2.943-1.173,4.167,4.167,0,0,0-3.074.761Z" transform="translate(-115.783 -382.133)" fill="#533d48"/>
              </g>
              <g id="Grupo_1080225" data-name="Grupo 1080225" transform="translate(0 6.618)">
                <g id="Grupo_1080223" data-name="Grupo 1080223" transform="translate(2.157)">
                  <path id="Trazado_829598" data-name="Trazado 829598" d="M67.384,386.687c-.145-.552.9-1.49.961-2.058-2.459-.257-5.95,1.564-7.435,3.542a18.152,18.152,0,0,0-3.1,6.561c-.569,2.258-.092,3.829-.286,6.149a51.318,51.318,0,0,0-.127,7.229,29.139,29.139,0,0,1-.779,8.9c.74-.191,1.078-1.072,1.12-1.835.179-3.289.291-4.9.393-7.364.179-4.326-.536-3.11.37-10.873.417-3.571,1.437-7.42,4.428-9.414A5.309,5.309,0,0,1,67.384,386.687Z" transform="translate(-56.621 -384.605)" fill="#fff"/>
                </g>
                <g id="Grupo_1080224" data-name="Grupo 1080224" transform="translate(0 25.046)">
                  <path id="Trazado_829599" data-name="Trazado 829599" d="M55.922,418.532a14.118,14.118,0,0,0-1.539,3.192,7.074,7.074,0,0,0-.248,3.506,6.143,6.143,0,0,1,1.014-3.491,6.358,6.358,0,0,0-.31,4.417,26.1,26.1,0,0,1,.91,4.427,8.814,8.814,0,0,0,1.791-7.035,7.3,7.3,0,0,1,.029,5.238,7.981,7.981,0,0,0,1.018-4.035c.029-1.4-.154-2.8-.224-4.2a28.09,28.09,0,0,0-.2-2.963,5.529,5.529,0,0,0-1.115-2.714c-.223.63.076,1.322-.168,1.934A11.057,11.057,0,0,1,55.922,418.532Z" transform="translate(-54.014 -414.87)" fill="#533d48"/>
                </g>
              </g>
              <g id="Grupo_1080236" data-name="Grupo 1080236" transform="translate(5.102 2.44)">
                <g id="Grupo_1080226" data-name="Grupo 1080226">
                  <path id="Trazado_829600" data-name="Trazado 829600" d="M129.3,392.789a23.316,23.316,0,0,0-1.149-5.561,9.542,9.542,0,0,0-1.819-3.011,20.02,20.02,0,0,0-.712-3.455c-10.73-4.277-23.926,4.331-33.2,2.56-5.468-1.044-10.857-3.356-16.387-2.644-6.994.9-12.348,6.613-14.419,12.814a35.683,35.683,0,0,0-1.308,13.7,5.081,5.081,0,0,0,2.609,4.044l-.287.459c2.144.269,3.423,3.144,5.584,3.127.941-.007,1.86-.657,3.251-.574a4.673,4.673,0,0,0,3.749-1.967c1.953.209,3.9.487,5.825.8,6.692,1.071,13.414,2.453,20.2,2.125,6.509-.314,12.838-2.131,16.89-6.76,2.115-.791,3.125-3.439,3.8-5.447a21.648,21.648,0,0,1,.663-2.122,2.577,2.577,0,0,1,1.64-1.509,9.762,9.762,0,0,0,1.216-.218c.9-.348,1.064-1.412,1.287-2.282a3.624,3.624,0,0,1,1.018-1.844,2.232,2.232,0,0,1,2.092-.518Z" transform="translate(-60.179 -379.556)" fill="#fff"/>
                </g>
                <g id="Grupo_1080235" data-name="Grupo 1080235" transform="translate(0.001 0.054)">
                  <g id="Grupo_1080227" data-name="Grupo 1080227" transform="translate(16.541 0.819)">
                    <path id="Trazado_829601" data-name="Trazado 829601" d="M120.027,380.823q-7.922,1.29-15.8,2.849a39.038,39.038,0,0,1-4.988.775,19.974,19.974,0,0,1-3.952-.14c-2.542-.34-5-1.138-7.5-1.7a16.815,16.815,0,0,0-7.621-.288,17.883,17.883,0,0,1,5.512.843l4.364,1.144a50.927,50.927,0,0,0,7.228,1.525,26.591,26.591,0,0,0,7.727-.286,16.843,16.843,0,0,1,2.24-.338,11.593,11.593,0,0,0,1.7-.086,1.8,1.8,0,0,0,1.346-.93c-.317.679.435,1.467,1.185,1.474a3.153,3.153,0,0,0,1.969-.977,4.11,4.11,0,0,1,1.9-1.152c-.427.394.046,1.183.625,1.224a2.086,2.086,0,0,0,1.5-.775,2.828,2.828,0,0,1,1.423-.953c.229-.036.465-.009.693-.049a4.2,4.2,0,0,0,1.05-.477,5.631,5.631,0,0,1,1.336-.39l3.162-.645a6.137,6.137,0,0,0-3.081-.859A12.1,12.1,0,0,0,120.027,380.823Z" transform="translate(-80.168 -380.611)" fill="#f2eee1"/>
                  </g>
                  <g id="Grupo_1080228" data-name="Grupo 1080228" transform="translate(0 2.083)">
                    <path id="Trazado_829602" data-name="Trazado 829602" d="M128.154,387.674a9.542,9.542,0,0,0-1.819-3.011,19.139,19.139,0,0,0-.477-2.525,16.85,16.85,0,0,0-4.943,2.623c-5.147,5.147,1.716,12.011,0,18.017-.858,1.716-5.147.858-5.147,0-2.574-6.006-5.147-15.443-10.3-7.722-2.574,2.574-6.006.858-6.006,2.574-1.716,4.29,1.716,14.586-4.29,11.154-7.722-4.29-14.586-2.574-22.308-1.716-6.864,0-.858-12.869-6.864-13.728a12.774,12.774,0,0,0-4.246.215c-.046.127-.1.254-.141.382a35.683,35.683,0,0,0-1.308,13.7,5.081,5.081,0,0,0,2.609,4.044l-.287.459c2.144.269,3.423,3.144,5.584,3.126.941-.007,1.86-.657,3.251-.574a4.673,4.673,0,0,0,3.749-1.967c1.953.209,3.9.487,5.825.8,6.692,1.071,13.414,2.453,20.2,2.125,6.509-.314,12.838-2.131,16.89-6.76,2.115-.791,3.125-3.439,3.8-5.447a21.655,21.655,0,0,1,.663-2.122,2.577,2.577,0,0,1,1.64-1.509,9.757,9.757,0,0,0,1.217-.218c.9-.348,1.064-1.412,1.287-2.282a3.624,3.624,0,0,1,1.018-1.844,2.231,2.231,0,0,1,2.092-.518l-.54-1.716A23.323,23.323,0,0,0,128.154,387.674Z" transform="translate(-60.18 -382.138)" fill="#f2eee1"/>
                  </g>
                  <g id="Grupo_1080229" data-name="Grupo 1080229" transform="translate(59.944 4.537)">
                    <path id="Trazado_829603" data-name="Trazado 829603" d="M138.343,397.591l1.24-1.639a4.142,4.142,0,0,0,1-1.987,3.085,3.085,0,0,0-1.031-2.368c-.626-.633-1.388-1.115-2.038-1.722a7.076,7.076,0,0,1-2.09-3.742c-.078-.384-.173-.842-.536-.989a.77.77,0,0,0-.861.323,2.6,2.6,0,0,0-.346.922c-.29,1.154-.765,2.262-.971,3.435a4.218,4.218,0,0,0,.654,3.4c.552.674,1.388,1.068,1.932,1.749.688.862.832,2.09,1.612,2.869a.927.927,0,0,0,.653.322C137.892,398.15,138.141,397.858,138.343,397.591Z" transform="translate(-132.616 -385.103)" fill="#533d48"/>
                  </g>
                  <g id="Grupo_1080230" data-name="Grupo 1080230" transform="translate(9.803 10.864)">
                    <path id="Trazado_829604" data-name="Trazado 829604" d="M72.328,410.561a24.638,24.638,0,0,0,6.663-7.908,10.229,10.229,0,0,0,1.415-4.729,7.239,7.239,0,0,0-2.327-5.148,4.571,4.571,0,0,1,4.273,2.35,9.161,9.161,0,0,1,1.044,4.983,19,19,0,0,1-1.884,7.723,5.868,5.868,0,0,0-.931,3.1c.045.389.125.894-.223,1.072a.82.82,0,0,1-.423.051l-7.911-.458Z" transform="translate(-72.026 -392.749)" fill="#f2eee1"/>
                  </g>
                  <g id="Grupo_1080231" data-name="Grupo 1080231" transform="translate(28.062 12.669)">
                    <path id="Trazado_829605" data-name="Trazado 829605" d="M97.621,407.283a7.766,7.766,0,0,1,3.655,1.561,6.354,6.354,0,0,0,1.2.855,1.393,1.393,0,0,0,1.406-.057,1.367,1.367,0,0,0,.443-1.214,5.146,5.146,0,0,0-.376-1.291,12.536,12.536,0,0,1,.453-9.622,4.179,4.179,0,0,0,.482-1.305,1.164,1.164,0,0,0-.546-1.191,1.7,1.7,0,0,0-1.423.222l-4.155,2.019c-1.642.8-3.409,1.721-4.153,3.387a7.887,7.887,0,0,0-.5,2.836,3.751,3.751,0,0,0,.714,2.985A4.9,4.9,0,0,0,97.621,407.283Z" transform="translate(-94.09 -394.93)" fill="#533d48"/>
                  </g>
                  <g id="Grupo_1080234" data-name="Grupo 1080234" transform="translate(20.072)">
                    <g id="Grupo_1080232" data-name="Grupo 1080232" transform="translate(0 1.432)">
                      <path id="Trazado_829606" data-name="Trazado 829606" d="M86.508,382.457c-.351.358-.794.611-1.155.958a3.109,3.109,0,0,0-.652,3.456,22.966,22.966,0,0,1,1.408,2.33c.263.813.089,1.749.5,2.5.618,1.138,2.249,1.258,3.465.812,2.3-.846,3.86-3.047,6.079-4.092,1.221-.575,2.6-.778,3.792-1.406a5.978,5.978,0,0,0,2.858-3.41,18.93,18.93,0,0,1-6.192.03c-3.218-.614-6.408-1.663-9.615-2.282A1.557,1.557,0,0,1,86.508,382.457Z" transform="translate(-84.435 -381.351)" fill="#533d48"/>
                    </g>
                    <g id="Grupo_1080233" data-name="Grupo 1080233" transform="translate(30.138)">
                      <path id="Trazado_829607" data-name="Trazado 829607" d="M120.945,382.112a2.025,2.025,0,0,0,1.749,1.313,3.327,3.327,0,0,0,1.876-.573,8.382,8.382,0,0,0,3.068-3.23,43.7,43.7,0,0,0-6.539.995A1.887,1.887,0,0,0,120.945,382.112Z" transform="translate(-120.854 -379.621)" fill="#533d48"/>
                    </g>
                  </g>
                </g>
              </g>
              <g id="Grupo_1080237" data-name="Grupo 1080237" transform="translate(44.136 12.544)">
                <path id="Trazado_829608" data-name="Trazado 829608" d="M122.673,393.254c1.317,1.364,1.25,3.521.95,5.393a35.982,35.982,0,0,1-1.407,5.723,13.257,13.257,0,0,0-.705,2.563c-.134,1.093.057,2.209-.1,3.3a6.4,6.4,0,0,1-2.513,4.048,10.919,10.919,0,0,1-4.453,1.905,5.242,5.242,0,0,0-.818-3.644,25.539,25.539,0,0,0-2.351-3.007,17.584,17.584,0,0,1-3.467-6.231,10.528,10.528,0,0,1,.294-7.034,6.864,6.864,0,0,1,1.146-1.84,8.746,8.746,0,0,1,5.395-2.477,18.478,18.478,0,0,1,4.35-.107A5.734,5.734,0,0,1,122.673,393.254Z" transform="translate(-107.348 -391.766)" fill="#533d48"/>
              </g>
              <g id="Grupo_1080238" data-name="Grupo 1080238" transform="translate(8.569 17.324)">
                <path id="Trazado_829609" data-name="Trazado 829609" d="M68.011,414.415c-1.5.223-2.143-1.588-3.643-1.365.135-1.45.2-.7,1.318-1.625a24.013,24.013,0,0,1,3.717-2.282,21.482,21.482,0,0,0,5.993-4.689,11.862,11.862,0,0,0,2.949-6.913,4.418,4.418,0,0,1,.689,3.04,11.622,11.622,0,0,1-3.74,7.747c-2.1,1.908-4.944,3.082-6.437,5.5a1.33,1.33,0,0,1-.368.449A1.2,1.2,0,0,1,68.011,414.415Z" transform="translate(-64.368 -397.541)" fill="#533d48"/>
              </g>
              <g id="Grupo_1080243" data-name="Grupo 1080243" transform="translate(44.424 7.78)">
                <g id="Grupo_1080239" data-name="Grupo 1080239">
                  <path id="Trazado_829610" data-name="Trazado 829610" d="M110.634,387.972a20.339,20.339,0,0,0-2.92,8.645,10.9,10.9,0,0,0,3.153,8.459c1.555,1.548,2.656,4.662,3.442,6.52a11.588,11.588,0,0,1,1.18,2.9c.124,2.13-.47,1.413-.346,3.543.038.646,1.008,1.437.6,2-.226.318-.468,1.073-.653,1.405-.4.717.922,2.494,1.211,3.241.793,2.048.328,2.791.093,4.92a2.758,2.758,0,0,0,.847,2.758c.37.265.866.387,1.26.646.953.627-.33,1.491.041,3.04,2.574.644,4.612.858,5.383-.249-.465-2.642-.6-3.456-1.952-4.829A10.575,10.575,0,0,1,120.429,429a5.141,5.141,0,0,1-.691-2.446q-.195-1.857-.391-3.714a3.321,3.321,0,0,1,.375-2.431c.167-.226.083-.384.115-.643a1.448,1.448,0,0,0-.22-1.054,3.467,3.467,0,0,1-.756-1.861c-.053-1.713.378-3.571.325-5.284a16.433,16.433,0,0,1,.465-2.87,14.977,14.977,0,0,1,.976-2.915,54.722,54.722,0,0,0,2.552-8.72,11.975,11.975,0,0,0,.181-5.238,7.651,7.651,0,0,0-3.064-4.608,6.426,6.426,0,0,0-2.943-1.173,4.167,4.167,0,0,0-3.074.761Z" transform="translate(-107.695 -386.009)" fill="#fff"/>
                </g>
                <g id="Grupo_1080240" data-name="Grupo 1080240" transform="translate(8.721 44.996)">
                  <path id="Trazado_829611" data-name="Trazado 829611" d="M119.061,441.739c.37.265.866.387,1.26.646.953.627-.33,1.491.041,3.04,2.574.644,4.612.858,5.383-.249-.154-.875-.273-1.538-.411-2.1a17.291,17.291,0,0,1-7.1-2.7A2.052,2.052,0,0,0,119.061,441.739Z" transform="translate(-118.233 -440.381)" fill="#533d48"/>
                </g>
                <g id="Grupo_1080241" data-name="Grupo 1080241" transform="translate(6.631 1.645)">
                  <path id="Trazado_829612" data-name="Trazado 829612" d="M117.889,400.284a4.344,4.344,0,0,0,2.808.109,4.674,4.674,0,0,0,2.28-2.815,10.631,10.631,0,0,0,.969-5.378,4.958,4.958,0,0,0-3.182-4.154,1.768,1.768,0,0,0-1.743.653,5.2,5.2,0,0,0-.858,1.755l-2.148,6.3a3.168,3.168,0,0,0-.229,1.938A2.886,2.886,0,0,0,117.889,400.284Z" transform="translate(-115.707 -387.997)" fill="#533d48"/>
                </g>
                <path id="Trazado_829613" data-name="Trazado 829613" d="M116.83,417.973c.225.311.6.639.946.466a.871.871,0,0,0,.358-.568,94.789,94.789,0,0,0,2.544-10.55,2.758,2.758,0,0,1-2.6,1.578,5.39,5.39,0,0,1-2.984-1.121c-.884-.62-1.668-1.37-2.549-1.994a5.49,5.49,0,0,0-2.973-1.152l1.47,1.883a23.2,23.2,0,0,1,2.562,3.77C114.85,412.778,115.2,415.712,116.83,417.973Z" transform="translate(-108.018 -389.221)" fill="#f2eee1"/>
                <g id="Grupo_1080242" data-name="Grupo 1080242" transform="translate(8.986 33.456)">
                  <path id="Trazado_829614" data-name="Trazado 829614" d="M118.57,428.943a.739.739,0,0,0,.119.626.55.55,0,0,0,.6.09,1.346,1.346,0,0,0,.492-.4,3.914,3.914,0,0,0,1.023-2.818A3.143,3.143,0,0,0,118.57,428.943Z" transform="translate(-118.553 -426.437)" fill="#f2eee1"/>
                </g>
              </g>
              <g id="Grupo_1080248" data-name="Grupo 1080248" transform="translate(3.822 9.518)">
                <g id="Grupo_1080244" data-name="Grupo 1080244">
                  <path id="Trazado_829615" data-name="Trazado 829615" d="M64.809,390.046a8.126,8.126,0,0,0-4.448,5.463,19.956,19.956,0,0,0-.122,6.652,16.534,16.534,0,0,1-.357,6.638,18.328,18.328,0,0,0-1.231,3.77c-.158,1.695.684,3.334,1.134,5,.906,3.342.228,6.813.5,10.223.083,1.042-.358,1.794.089,2.777.373.82.788.96,1.341,1.716.482.659.439,2.848,1.287,3.218,1.124.491,3.832-.288,5.091-.5.845-1.02.213-2.407-.753-3.361s-2.255-1.727-2.928-2.824a6.179,6.179,0,0,1-.666-3.2c-.048-1.96-.1-3.92-.041-5.88.047-1.718.173-3.433.3-5.149a6.667,6.667,0,0,1,.627-2.8c1.039-1.892,3.645-2.872,5.781-4.077,4.213-2.374,7.066-6.171,7.666-10.2a8.038,8.038,0,0,0-2.148-7.1,8.651,8.651,0,0,0-8.551-1.837Z" transform="translate(-58.632 -388.108)" fill="#fff"/>
                </g>
                <g id="Grupo_1080245" data-name="Grupo 1080245" transform="translate(1.541 41.45)">
                  <path id="Trazado_829616" data-name="Trazado 829616" d="M60.495,438.2a2.268,2.268,0,0,0,.2,1.007c.373.82.788.96,1.341,1.716.482.659.439,2.848,1.287,3.218,1.124.491,3.832-.288,5.091-.5,1.236-1.272.239-1.981-.319-2.827A6.413,6.413,0,0,1,60.495,438.2Z" transform="translate(-60.495 -438.196)" fill="#533d48"/>
                </g>
                <g id="Grupo_1080246" data-name="Grupo 1080246" transform="translate(2.62 0.875)">
                  <path id="Trazado_829617" data-name="Trazado 829617" d="M66.909,389.67a6.394,6.394,0,0,0-4.25,3.8,13.021,13.021,0,0,0-.837,5.8c.088,1.97.386,3.928.418,5.9a35.917,35.917,0,0,1,1.662-9.95,13.989,13.989,0,0,1,1.587-3.57,6.328,6.328,0,0,1,2.949-2.485Z" transform="translate(-61.799 -389.165)" fill="#f2eee1"/>
                </g>
                <g id="Grupo_1080247" data-name="Grupo 1080247" transform="translate(2.265 24.812)">
                  <path id="Trazado_829618" data-name="Trazado 829618" d="M61.528,421.146c-.18.4-.267.946.076,1.221s.819.089,1.166-.148a4.023,4.023,0,0,0,1.6-4.128A8.637,8.637,0,0,0,61.528,421.146Z" transform="translate(-61.37 -418.091)" fill="#f2eee1"/>
                </g>
              </g>
              <g id="Grupo_1080265" data-name="Grupo 1080265" transform="translate(62.211)">
                <g id="Grupo_1080249" data-name="Grupo 1080249" transform="translate(11.772 3.436)">
                  <path id="Trazado_829619" data-name="Trazado 829619" d="M145.267,381.073c.167-.183.407-.393.629-.283.169.084.208.3.214.491a4.155,4.155,0,0,1-.707,2.435l-1.989-1.149A7.906,7.906,0,0,0,145.267,381.073Z" transform="translate(-143.414 -380.759)" fill="#533d48"/>
                </g>
                <g id="Grupo_1080250" data-name="Grupo 1080250" transform="translate(3.275 3.701)">
                  <path id="Trazado_829620" data-name="Trazado 829620" d="M148.159,390.363a7.906,7.906,0,0,0-2.3-3.855,16.91,16.91,0,0,1-1.6-2.127c-.2-.262-.357-.552-.546-.82a6.439,6.439,0,0,0-4.085-2.279,7.516,7.516,0,0,0-2.973-.093c-1.467.3-3.169,1.5-2.991,3.2a14.3,14.3,0,0,1-.484,4.638c-.238,1.095,1.049,3.331,1.716,3.754a10.867,10.867,0,0,0,3.378,1.5,23.048,23.048,0,0,1,2.866.808c.853.319,1.729,1.18,2.7.844a4.8,4.8,0,0,0,2.081-2.215A12.437,12.437,0,0,1,148.159,390.363Z" transform="translate(-133.146 -381.08)" fill="#f4cca8"/>
                </g>
                <g id="Grupo_1080251" data-name="Grupo 1080251" transform="translate(5.383)">
                  <path id="Trazado_829621" data-name="Trazado 829621" d="M136.686,376.608c.155-.012.245.167.293.314a19.546,19.546,0,0,0,1.763,3.861,1.566,1.566,0,0,1,.206.439.51.51,0,0,1-.094.459.757.757,0,0,1-.575.163h-1.024a1.284,1.284,0,0,1-.743-.154,1.119,1.119,0,0,1-.321-.406,4.4,4.4,0,0,1,.266-4.506A.347.347,0,0,1,136.686,376.608Z" transform="translate(-135.694 -376.607)" fill="#533d48"/>
                </g>
                <g id="Grupo_1080255" data-name="Grupo 1080255" transform="translate(13.355 12.984)">
                  <g id="Grupo_1080252" data-name="Grupo 1080252">
                    <path id="Trazado_829622" data-name="Trazado 829622" d="M152.328,396.057c-.175-.742-.622-1.023-.938-1.716-.206-.452-.9-1.04-.992-1.529-.033-.181-.094-.343-.138-.516-2.328.463-3.454,3.813-4.932,5.726a2.062,2.062,0,0,1,.336.249c.453.43.607,1.116,1.092,1.509.573.467,1.415.379,2.092.674.481.209,1,.619,1.462.367.308-.169.4-.554.516-.885a16.739,16.739,0,0,1,.855-1.754A3.941,3.941,0,0,0,152.328,396.057Z" transform="translate(-145.327 -392.297)" fill="#fc8458"/>
                  </g>
                  <g id="Grupo_1080253" data-name="Grupo 1080253" transform="translate(1.86 6.05)">
                    <path id="Trazado_829623" data-name="Trazado 829623" d="M149.884,400.57a4.36,4.36,0,0,0,.593.355.917.917,0,0,0,.674.053.521.521,0,0,0,.35-.535,4.95,4.95,0,0,1-2.507-.515,2.914,2.914,0,0,0-.713-.3.713.713,0,0,0-.707.209A4.737,4.737,0,0,1,149.884,400.57Z" transform="translate(-147.575 -399.607)" fill="#533d48"/>
                  </g>
                  <g id="Grupo_1080254" data-name="Grupo 1080254" transform="translate(3.639 3.067)">
                    <path id="Trazado_829624" data-name="Trazado 829624" d="M150.017,396.372a1.072,1.072,0,0,1,.5-.357.683.683,0,0,1,.7.36,1.365,1.365,0,0,1,.122.824c-.027.251-.128.541-.372.606a.653.653,0,0,1-.459-.1,3.626,3.626,0,0,1-.427-.267.736.736,0,0,1-.363-.521A.82.82,0,0,1,150.017,396.372Z" transform="translate(-149.724 -396.003)" fill="#533d48"/>
                  </g>
                </g>
                <g id="Grupo_1080256" data-name="Grupo 1080256" transform="translate(7.522 7.823)">
                  <path id="Trazado_829625" data-name="Trazado 829625" d="M138.53,386.749a3.213,3.213,0,0,1,1.1-.642,1.1,1.1,0,0,1,1.161.319c.29.392.17.947.308,1.415a10.157,10.157,0,0,0-2.046-.281,1.271,1.271,0,0,1-.518-.086.405.405,0,0,1-.246-.424A.587.587,0,0,1,138.53,386.749Z" transform="translate(-138.278 -386.061)" fill="#533d48"/>
                </g>
                <g id="Grupo_1080259" data-name="Grupo 1080259" transform="translate(0 3.427)">
                  <g id="Grupo_1080257" data-name="Grupo 1080257">
                    <path id="Trazado_829626" data-name="Trazado 829626" d="M136.639,382.556a7.565,7.565,0,0,0-2.913-1.658,9.23,9.23,0,0,0-4.537.415,7.467,7.467,0,0,0,.972,1.538,2.682,2.682,0,0,0,1.532.922c1.428.232,2.786-1.082,4.206-.809Z" transform="translate(-129.189 -380.749)" fill="#f4cca8"/>
                  </g>
                  <g id="Grupo_1080258" data-name="Grupo 1080258" transform="translate(0.545 0.822)">
                    <path id="Trazado_829627" data-name="Trazado 829627" d="M130.625,382.743a2.624,2.624,0,0,0,.77.674,2.533,2.533,0,0,0,1.744.023,4.3,4.3,0,0,1,1.753-.236,2.006,2.006,0,0,0-1.3-1.264,4.768,4.768,0,0,0-1.863-.182,11.431,11.431,0,0,1-1.881.032Q130.222,382.277,130.625,382.743Z" transform="translate(-129.848 -381.742)" fill="#533d48"/>
                  </g>
                </g>
                <g id="Grupo_1080264" data-name="Grupo 1080264" transform="translate(3.792 4.357)">
                  <g id="Grupo_1080260" data-name="Grupo 1080260" transform="translate(0 5.257)">
                    <path id="Trazado_829628" data-name="Trazado 829628" d="M136.384,393.863a7.005,7.005,0,0,1-2.008-5.638,3.728,3.728,0,0,0-.382,3.3A3.963,3.963,0,0,0,136.384,393.863Z" transform="translate(-133.771 -388.225)" fill="#f2eee1"/>
                  </g>
                  <g id="Grupo_1080261" data-name="Grupo 1080261" transform="translate(3.23 2.651)">
                    <path id="Trazado_829629" data-name="Trazado 829629" d="M137.674,386.862a2.82,2.82,0,0,1,3.028-1.054,1.356,1.356,0,0,0-1.523-.7C138.588,385.241,137.938,386.316,137.674,386.862Z" transform="translate(-137.674 -385.075)" fill="#f2eee1"/>
                  </g>
                  <g id="Grupo_1080262" data-name="Grupo 1080262" transform="translate(5.502 5.279)">
                    <path id="Trazado_829630" data-name="Trazado 829630" d="M142.137,388.882a1.708,1.708,0,0,1-1.718-.631Z" transform="translate(-140.419 -388.251)" fill="#f2eee1"/>
                  </g>
                  <g id="Grupo_1080263" data-name="Grupo 1080263" transform="translate(6.089)">
                    <path id="Trazado_829631" data-name="Trazado 829631" d="M143.547,384.858c.218,1.216,2.07,1.607,2.243,2.83.035.244-.007.494.014.74a.7.7,0,0,0,.356.608c.132.057.294.053.4.151.2.183.027.537.169.764.184.294.776.217.82.56.016.122-.06.246-.032.367a.3.3,0,0,0,.309.2.873.873,0,0,0,.373-.132c.406-.217.87-.53.852-.989a1.152,1.152,0,0,0-.134-.437,24.709,24.709,0,0,0-2.655-3.886,16.58,16.58,0,0,0-2.094-2.605,3.894,3.894,0,0,0-3.039-1.131,5.8,5.8,0,0,1,1.5.655,1.958,1.958,0,0,1,.89,1.326C143.561,384.2,143.489,384.536,143.547,384.858Z" transform="translate(-141.128 -381.872)" fill="#f2eee1"/>
                  </g>
                </g>
              </g>
            </g>
            <g id="Grupo_1080372" data-name="Grupo 1080372" transform="translate(72.199 8.493)">
              <g id="Grupo_1080267" data-name="Grupo 1080267" transform="translate(89.378 92.032)">
                <path id="Trazado_829632" data-name="Trazado 829632" d="M240.069,383.825l-.054-.054Z" transform="translate(-240.015 -383.771)" fill="#fc8458"/>
              </g>
              <g id="Grupo_1080270" data-name="Grupo 1080270" transform="translate(36.188 164.026)">
                <g id="Grupo_1080268" data-name="Grupo 1080268" transform="translate(0.024)">
                  <path id="Trazado_829633" data-name="Trazado 829633" d="M189.206,495.911c.17-7.248,1.331-20.5,1.711-25.144H177.494c.153,5.78.338,22.2.537,28.46a15.668,15.668,0,0,1-.268,1.943c-.649,3.136-2.267,6.16-1.952,9.347a3.606,3.606,0,0,0,.941,2.3,4.022,4.022,0,0,0,2.162.889,14.8,14.8,0,0,0,7.09-.561,4.086,4.086,0,0,0,2.546-1.84c.576-1.2.045-2.677.449-3.95.182-.571.545-1.071.74-1.638a6.031,6.031,0,0,0,.162-2.351C189.751,500.974,189.428,498.382,189.206,495.911Z" transform="translate(-175.77 -470.767)" fill="#533d48"/>
                </g>
                <g id="Grupo_1080269" data-name="Grupo 1080269" transform="translate(0 30.38)">
                  <path id="Trazado_829634" data-name="Trazado 829634" d="M181.385,517.184a30.741,30.741,0,0,1-3.848-.286,6.028,6.028,0,0,1-1.8-.426l.18-.394a5.676,5.676,0,0,0,1.67.391c2.922.372,6,.554,8.705-.6a2.919,2.919,0,0,0,.771-.444,2.632,2.632,0,0,0,.75-1.672c.04-.332.048-.679.057-1.014s.017-.675.055-1.015a10.048,10.048,0,0,1,1.788-4.243l.363.235a9.657,9.657,0,0,0-1.72,4.057c-.036.321-.045.655-.052.977-.009.345-.017.7-.06,1.054a2.98,2.98,0,0,1-.9,1.947,3.294,3.294,0,0,1-.885.515A12.81,12.81,0,0,1,181.385,517.184Z" transform="translate(-175.741 -507.478)" fill="#964054"/>
                </g>
              </g>
              <g id="Grupo_1080273" data-name="Grupo 1080273" transform="translate(66.696 164.531)">
                <g id="Grupo_1080271" data-name="Grupo 1080271">
                  <path id="Trazado_829635" data-name="Trazado 829635" d="M235.9,502.807c-1.116-1.3-2.884-1.789-4.413-2.568a11.693,11.693,0,0,1-5.408-5.847c.256-7.237.636-18,.759-22.662l-14.229-.353c.338,4.126,1.29,14.216,1.619,21.312a56.572,56.572,0,0,0-.88,16.01l6.447.2c.053-.518.214-.518,1.125-.84,3.7.751,4.248,1.336,7.268,1.281s6.245.274,9.024-.753C237.245,506.562,237.212,504.343,235.9,502.807Z" transform="translate(-212.606 -471.377)" fill="#533d48"/>
                </g>
                <g id="Grupo_1080272" data-name="Grupo 1080272" transform="translate(0.097 32.729)">
                  <path id="Trazado_829636" data-name="Trazado 829636" d="M229.206,513.076a42.466,42.466,0,0,1-9.432-1.055l-.533-.124c-.645-.152-1.313-.31-1.975-.4a22.83,22.83,0,0,0-4.518-.041l-.025-.433a23.154,23.154,0,0,1,4.6.046c.681.1,1.359.257,2.013.41l.53.123a42.207,42.207,0,0,0,17.352.276l0-.045a.266.266,0,0,1,.308-.087l.167.252c-.006.07-.046.235-.3.286A42.355,42.355,0,0,1,229.206,513.076Z" transform="translate(-212.723 -510.926)" fill="#964054"/>
                </g>
              </g>
              <g id="Grupo_1080278" data-name="Grupo 1080278" transform="translate(47.29 20.455)">
                <g id="Grupo_1080274" data-name="Grupo 1080274" transform="translate(0 0.001)">
                  <path id="Trazado_829637" data-name="Trazado 829637" d="M211.521,310.469a17.712,17.712,0,0,0,2.071-3.216,17.135,17.135,0,0,1-3.537-2.176c-2.285-2.051-3.09-4.779-3.69-7.791-2.517-.046-3.7.114-5.368.2-1.668-.085-2.851-.246-5.367-.2-.6,3.011-1.406,5.739-3.69,7.791a14.1,14.1,0,0,1-2.785,1.788C193.168,314.865,205.3,317.471,211.521,310.469Z" transform="translate(-189.156 -297.279)" fill="#fc8458"/>
                </g>
                <g id="Grupo_1080275" data-name="Grupo 1080275" transform="translate(6.164 0.001)">
                  <path id="Trazado_829638" data-name="Trazado 829638" d="M207.65,297.287c-2.517-.046-3.7.114-5.368.2-1.668-.085-2.851-.246-5.368-.2-.1.478-.2.944-.309,1.405a96.852,96.852,0,0,0,2.548,15.21,14.055,14.055,0,0,0,9.287-.345,57.89,57.89,0,0,0,1.135-10.645A17.345,17.345,0,0,1,207.65,297.287Z" transform="translate(-196.605 -297.279)" fill="#ce6b51"/>
                </g>
                <g id="Grupo_1080276" data-name="Grupo 1080276" transform="translate(3.276 11.659)">
                  <path id="Trazado_829639" data-name="Trazado 829639" d="M213.106,311.366c-6.011,4.125-13.351,5.156-19.991,2.15a16.321,16.321,0,0,0,10.923,3.7C207.962,317,210.979,314.673,213.106,311.366Z" transform="translate(-193.115 -311.366)" fill="#533d48"/>
                </g>
                <g id="Grupo_1080277" data-name="Grupo 1080277" transform="translate(6.082)">
                  <path id="Trazado_829640" data-name="Trazado 829640" d="M206.934,304.723a17.159,17.159,0,0,0,2.456-2.086,18.06,18.06,0,0,1-1.758-5.35c-2.517-.046-3.7.114-5.368.2-1.668-.085-2.851-.246-5.368-.2-.117.592-.249,1.168-.392,1.734C198.994,302.876,202.253,306.283,206.934,304.723Z" transform="translate(-196.505 -297.278)" fill="#533d48"/>
                </g>
              </g>
              <g id="Grupo_1080298" data-name="Grupo 1080298" transform="translate(73.867 34.101)">
                <g id="Grupo_1080281" data-name="Grupo 1080281" transform="translate(1.375 17.904)">
                  <g id="Grupo_1080279" data-name="Grupo 1080279">
                    <path id="Trazado_829641" data-name="Trazado 829641" d="M222.933,338.011c2.911,13.934,9.42,26.95,15.871,39.8l6.015-2.861A209.4,209.4,0,0,1,233.245,335.4Z" transform="translate(-222.933 -335.402)" fill="#fc8458"/>
                  </g>
                  <g id="Grupo_1080280" data-name="Grupo 1080280" transform="translate(0 1.692)">
                    <path id="Trazado_829642" data-name="Trazado 829642" d="M222.933,338.364c2.911,13.934,9.42,26.95,15.871,39.8l3.645-1.734a93.857,93.857,0,0,1-15.892-38.988Z" transform="translate(-222.933 -337.447)" fill="#ce6b51"/>
                  </g>
                </g>
                <g id="Grupo_1080284" data-name="Grupo 1080284">
                  <g id="Grupo_1080282" data-name="Grupo 1080282">
                    <path id="Trazado_829643" data-name="Trazado 829643" d="M221.757,317.129c.244-1.379.815-2.978,2.176-3.306a3.5,3.5,0,0,1,2.943,1.134,21.861,21.861,0,0,1,6.058,10.347c1.159,3.88,1.693,7.916,2.551,11.875l-12.064,1.615C221.955,331.654,220.484,324.306,221.757,317.129Z" transform="translate(-221.272 -313.768)" fill="#f4cca8"/>
                  </g>
                  <g id="Grupo_1080283" data-name="Grupo 1080283" transform="translate(1.976 21.948)">
                    <rect id="Rectángulo_376632" data-name="Rectángulo 376632" width="11.977" height="0.432" transform="translate(0 2.084) rotate(-10.021)" fill="#533d48"/>
                  </g>
                </g>
                <g id="Grupo_1080297" data-name="Grupo 1080297" transform="translate(2.534 52.262)">
                  <g id="Grupo_1080285" data-name="Grupo 1080285" transform="translate(11.467)">
                    <path id="Trazado_829644" data-name="Trazado 829644" d="M246.426,376.92a41.353,41.353,0,0,0-8.236,3.622q1.6,2.7,3.194,5.4a32.428,32.428,0,0,1,7.285-1.475A33.631,33.631,0,0,0,246.426,376.92Z" transform="translate(-238.19 -376.92)" fill="#b4c083"/>
                  </g>
                  <g id="Grupo_1080286" data-name="Grupo 1080286" transform="translate(14.113 6.448)">
                    <path id="Trazado_829645" data-name="Trazado 829645" d="M242.359,387.041a2.359,2.359,0,0,0-.972,2.061c0,.778.209,1.545.221,2.323a3.451,3.451,0,0,0,.213,1.73,2.409,2.409,0,0,0,1.327.933,12.263,12.263,0,0,0,5.885.147,2.122,2.122,0,0,0,1.057-.359,1.633,1.633,0,0,0,.463-.847,9.9,9.9,0,0,0-1.155-7.947.729.729,0,0,0-.368-.348.863.863,0,0,0-.406.007l-3.845.689Z" transform="translate(-241.387 -384.712)" fill="#b4c083"/>
                  </g>
                  <g id="Grupo_1080287" data-name="Grupo 1080287" transform="translate(14.835 9.089)">
                    <path id="Trazado_829646" data-name="Trazado 829646" d="M244.893,387.929a1.885,1.885,0,0,0-1.735.7,3.184,3.184,0,0,0-.614,1.708c-.063.6-.045,1.214-.144,1.813s-.3,1.278.091,1.773a1.983,1.983,0,0,0,1.094.573,14.674,14.674,0,0,0,4.163.364,2.631,2.631,0,0,0,1.344-.3,1.6,1.6,0,0,0,.66-1.111,2.656,2.656,0,0,0-1.082-2.526c-.934-.687-2.29-.847-3.069-1.678-.342-.364-.607-.873-1.125-.957Z" transform="translate(-242.26 -387.903)" fill="#7a7a34"/>
                  </g>
                  <g id="Grupo_1080291" data-name="Grupo 1080291" transform="translate(0 11.42)">
                    <g id="Grupo_1080288" data-name="Grupo 1080288">
                      <path id="Trazado_829647" data-name="Trazado 829647" d="M237.745,463.9h0a32.29,32.29,0,0,1-3.93-.234c-2.825-.348-4.736-1.084-6.012-2.317a9.066,9.066,0,0,1-2.234-4.519c-1.609-6.443-1.346-13.3-.876-19.156a179.728,179.728,0,0,1,3.2-22.207c1.627-7.8,3.893-15.963,9.4-22.776a4.79,4.79,0,0,1,2.007-1.645,2.2,2.2,0,0,1,2.208.4,3.957,3.957,0,0,1,2.369-.722,4.791,4.791,0,0,1,2.628.774,8.924,8.924,0,0,1,2.863,4.1c6.475,14.812,13.367,32.168,13.193,50.711-.034,3.611-.475,8.162-3.611,11.333-2.257,2.282-5.458,3.428-8.292,4.248A46.826,46.826,0,0,1,237.745,463.9Zm2.365-72.128a1.551,1.551,0,0,0-.514.087,4.069,4.069,0,0,0-1.628,1.376c-5.391,6.669-7.62,14.711-9.226,22.409a178.763,178.763,0,0,0-3.187,22.1c-.465,5.787-.727,12.556.852,18.877a8.311,8.311,0,0,0,2,4.107c1.134,1.1,2.887,1.756,5.516,2.08a41.706,41.706,0,0,0,16.5-1.755c2.727-.789,5.8-1.884,7.917-4.025,2.9-2.934,3.326-7.072,3.361-10.734.172-18.372-6.682-35.626-13.121-50.356a8.26,8.26,0,0,0-2.555-3.727,3.9,3.9,0,0,0-2.143-.626,2.93,2.93,0,0,0-2.16.821l-.535.562-.2-.751C240.907,391.912,240.476,391.773,240.11,391.773Z" transform="translate(-224.334 -390.72)" fill="#533d48"/>
                    </g>
                    <g id="Grupo_1080289" data-name="Grupo 1080289" transform="translate(2.499 1.041)">
                      <path id="Trazado_829648" data-name="Trazado 829648" d="M243.111,460.985h0a14.36,14.36,0,0,1-8.018-2.6,16.164,16.164,0,0,1-5.087-5.751c-1.859-3.582-2.219-7.753-2.428-11.72-.342-6.5-.517-15.06,1.178-23.6a50.669,50.669,0,0,1,10.1-22.347c1.05-1.3,2.364-2.657,4.153-2.936a5.53,5.53,0,0,1,4.528,1.655c3.045,2.65,4.62,6.3,5.871,9.851a84.439,84.439,0,0,1,4.3,35.8c-.4,4.225-1.22,9.706-4.005,14.631A13.863,13.863,0,0,1,247.694,460,10.772,10.772,0,0,1,243.111,460.985Zm.545-68.139a3.247,3.247,0,0,0-.51.04c-1.5.233-2.668,1.458-3.614,2.625a49.81,49.81,0,0,0-9.927,21.972c-1.677,8.446-1.5,16.934-1.163,23.386.2,3.872.552,7.938,2.332,11.366a15.287,15.287,0,0,0,4.815,5.44,13.477,13.477,0,0,0,7.522,2.445,9.931,9.931,0,0,0,4.218-.9,13.028,13.028,0,0,0,5.628-5.673c2.7-4.783,3.5-10.147,3.9-14.287a83.58,83.58,0,0,0-4.259-35.436c-1.21-3.439-2.729-6.969-5.622-9.486A5.174,5.174,0,0,0,243.656,392.846Z" transform="translate(-227.353 -391.978)" fill="#533d48"/>
                    </g>
                    <g id="Grupo_1080290" data-name="Grupo 1080290" transform="translate(4.036 1.917)">
                      <path id="Trazado_829649" data-name="Trazado 829649" d="M243.8,464.4h0a10.519,10.519,0,0,1-2.4-.271,11.927,11.927,0,0,1-6.366-4.168c-2.654-3.145-4.35-7.386-5.041-12.606a80.728,80.728,0,0,1-.466-10.425c0-1.074,0-2.147-.017-3.22-.025-1.786-.083-3.583-.142-5.386-.3-9.118-.6-18.545,3.564-27.225a17.088,17.088,0,0,1,5.159-6.64,6.989,6.989,0,0,1,2.9-1.347,6.292,6.292,0,0,1,2.4.092c3.236.7,5.945,3.074,8.054,7.07a60.676,60.676,0,0,1,3.286,7.978,63.571,63.571,0,0,1,2.668,8.794c.311,1.553.51,3.146.7,4.688.135,1.085.275,2.207.453,3.3.338,2.084.834,4.178,1.313,6.2a60.214,60.214,0,0,1,1.707,9.45,31.565,31.565,0,0,1-.434,7.918,17.54,17.54,0,0,1-7.048,11.77A17.371,17.371,0,0,1,243.8,464.4Zm-1.9-70.5a4.447,4.447,0,0,0-.762.064,6.15,6.15,0,0,0-2.538,1.194,16.266,16.266,0,0,0-4.889,6.318c-4.078,8.487-3.774,17.808-3.48,26.822.06,1.808.118,3.611.143,5.4.015,1.076.017,2.152.017,3.231a80.1,80.1,0,0,0,.458,10.312c.669,5.053,2.3,9.145,4.845,12.162a11.1,11.1,0,0,0,5.9,3.885c3.554.833,8.1-.554,11.96-3.595a16.69,16.69,0,0,0,6.732-11.244,30.672,30.672,0,0,0,.422-7.7,59.716,59.716,0,0,0-1.687-9.313c-.482-2.04-.982-4.151-1.326-6.265-.18-1.106-.32-2.237-.457-3.329-.19-1.527-.386-3.1-.692-4.625a62.882,62.882,0,0,0-2.634-8.674,60.22,60.22,0,0,0-3.237-7.865c-1.984-3.759-4.5-5.988-7.47-6.627A6.246,6.246,0,0,0,241.9,393.9Z" transform="translate(-229.211 -393.037)" fill="#533d48"/>
                    </g>
                  </g>
                  <g id="Grupo_1080292" data-name="Grupo 1080292" transform="translate(19.023 8.172)">
                    <path id="Trazado_829650" data-name="Trazado 829650" d="M248.622,394.908l2.158-1.026a2.186,2.186,0,0,0,.687-.438,1.857,1.857,0,0,0,.377-1.078,13.129,13.129,0,0,0,.147-2.513,4.611,4.611,0,0,0-.787-2.387,1.432,1.432,0,0,0-.969-.666,1.385,1.385,0,0,0-.836.235,2.569,2.569,0,0,0-1.212,2.029,3.237,3.237,0,0,0,.809,2.226,1.422,1.422,0,0,1,.428.724c.037.47-.487.794-.936,1.033a3.224,3.224,0,0,0-.827.566,1.055,1.055,0,0,0-.331.864.739.739,0,0,0,.682.61A1.376,1.376,0,0,0,248.622,394.908Z" transform="translate(-247.321 -386.795)" fill="#b4c083"/>
                  </g>
                  <g id="Grupo_1080293" data-name="Grupo 1080293" transform="translate(18.067 13.353)">
                    <path id="Trazado_829651" data-name="Trazado 829651" d="M248.214,395.16a1.01,1.01,0,0,1,.055.662.777.777,0,0,1-.758.416,1.256,1.256,0,0,1-.9-.465,1.972,1.972,0,0,1-.387-.893,3.1,3.1,0,0,1,0-1.22.69.69,0,0,1,.453-.594.759.759,0,0,1,.679.316A4.783,4.783,0,0,1,248.214,395.16Z" transform="translate(-246.166 -393.055)" fill="#b4c083"/>
                  </g>
                  <g id="Grupo_1080294" data-name="Grupo 1080294" transform="translate(16.779 13.457)">
                    <path id="Trazado_829652" data-name="Trazado 829652" d="M244.92,395.6a3.008,3.008,0,0,1-.228-1.964.781.781,0,0,1,.16-.315.419.419,0,0,1,.337-.14.561.561,0,0,1,.393.324,5.7,5.7,0,0,1,.555,1.7,1.476,1.476,0,0,1,.044.612.57.57,0,0,1-.411.449.632.632,0,0,1-.554-.177A1.358,1.358,0,0,1,244.92,395.6Z" transform="translate(-244.61 -393.181)" fill="#b4c083"/>
                  </g>
                  <g id="Grupo_1080295" data-name="Grupo 1080295" transform="translate(15.412 13.526)">
                    <path id="Trazado_829653" data-name="Trazado 829653" d="M242.977,394.977a1.883,1.883,0,0,1,.394-1.527.507.507,0,0,1,.328-.185.537.537,0,0,1,.449.321,2.671,2.671,0,0,1,.321,1.423,1.311,1.311,0,0,1-.118.564.68.68,0,0,1-.465.365.725.725,0,0,1-.675-.285A1.332,1.332,0,0,1,242.977,394.977Z" transform="translate(-242.957 -393.264)" fill="#b4c083"/>
                  </g>
                  <g id="Grupo_1080296" data-name="Grupo 1080296" transform="translate(14.264 13.252)">
                    <path id="Trazado_829654" data-name="Trazado 829654" d="M242.047,392.946a.489.489,0,0,1,.422.108.9.9,0,0,1,.238.351,4.157,4.157,0,0,1,.188,1.839.965.965,0,0,1-.094.442.4.4,0,0,1-.406.2.521.521,0,0,1-.286-.214,2.514,2.514,0,0,1-.428-2.294A.593.593,0,0,1,242.047,392.946Z" transform="translate(-241.57 -392.934)" fill="#b4c083"/>
                  </g>
                </g>
              </g>
              <g id="Grupo_1080301" data-name="Grupo 1080301" transform="translate(36.821 30.044)">
                <g id="Grupo_1080299" data-name="Grupo 1080299">
                  <path id="Trazado_829655" data-name="Trazado 829655" d="M217.51,313.022c-1.25-1.452-3.8-2.608-6.1-3.77a17.692,17.692,0,0,1-2.071,3.216c-6.224,7-18.353,4.4-22.365-3.6-2.468,1.3-5.462,2.546-6.851,4.158-5.158,5.986-4.282,12.27-.615,19.27,3.536,6.749.508,23.042,1.832,30.152h34.954c1.323-7.11-1.7-23.4,1.832-30.152C221.792,325.291,222.669,319.008,217.51,313.022Z" transform="translate(-176.506 -308.865)" fill="#f4cca8"/>
                </g>
                <g id="Grupo_1080300" data-name="Grupo 1080300" transform="translate(9.385 0.593)">
                  <path id="Trazado_829656" data-name="Trazado 829656" d="M201.744,318.762a13.37,13.37,0,0,1-7.343-2.429,31.947,31.947,0,0,1-6.555-6.478l.335-.274a31.562,31.562,0,0,0,6.461,6.392,11.236,11.236,0,0,0,14.057-.2,18.367,18.367,0,0,0,5.264-6.071l.381.2a18.8,18.8,0,0,1-5.388,6.215,12.848,12.848,0,0,1-5.963,2.566A10.076,10.076,0,0,1,201.744,318.762Z" transform="translate(-187.846 -309.581)" fill="#533d48"/>
                </g>
              </g>
              <g id="Grupo_1080323" data-name="Grupo 1080323" transform="translate(0 34.101)">
                <g id="Grupo_1080308" data-name="Grupo 1080308" transform="translate(16.955)">
                  <g id="Grupo_1080304" data-name="Grupo 1080304" transform="translate(0 16.138)">
                    <g id="Grupo_1080302" data-name="Grupo 1080302">
                      <path id="Trazado_829657" data-name="Trazado 829657" d="M178.54,333.8c-3.17-.42-6.589-.117-9.759-.536-4.182,16.087-9.811,27.6-16.28,40.843,2.114.868,3.405,1.795,5.521,2.663,4.038-6.556,8.526-13.051,12.691-19.7S177.588,341.59,178.54,333.8Z" transform="translate(-152.5 -333.268)" fill="#fc8458"/>
                    </g>
                    <g id="Grupo_1080303" data-name="Grupo 1080303" transform="translate(3.988 0.368)">
                      <path id="Trazado_829658" data-name="Trazado 829658" d="M177.5,333.713c-2.7,15.488-11.587,28.915-20.177,42.44.474.235.973.468,1.532.7,4.038-6.556,8.526-13.051,12.691-19.7s6.877-15.487,7.829-23.272C178.754,333.8,178.128,333.75,177.5,333.713Z" transform="translate(-157.319 -333.713)" fill="#ce6b51"/>
                    </g>
                  </g>
                  <g id="Grupo_1080307" data-name="Grupo 1080307" transform="translate(13.354)">
                    <g id="Grupo_1080305" data-name="Grupo 1080305">
                      <path id="Trazado_829659" data-name="Trazado 829659" d="M182.365,317.129c-.245-1.379-.815-2.978-2.176-3.306a3.5,3.5,0,0,0-2.943,1.134,21.861,21.861,0,0,0-6.058,10.347c-1.159,3.88-1.693,7.916-2.551,11.875l12.064,1.615C182.168,331.654,183.638,324.306,182.365,317.129Z" transform="translate(-168.637 -313.768)" fill="#f4cca8"/>
                    </g>
                    <g id="Grupo_1080306" data-name="Grupo 1080306" transform="translate(0.086 22.11)">
                      <rect id="Rectángulo_376633" data-name="Rectángulo 376633" width="0.433" height="11.67" transform="translate(0 0.43) rotate(-82.964)" fill="#533d48"/>
                    </g>
                  </g>
                </g>
                <g id="Grupo_1080322" data-name="Grupo 1080322" transform="translate(0 1.475)">
                  <g id="Grupo_1080309" data-name="Grupo 1080309" transform="translate(16.955 48.681)">
                    <path id="Trazado_829660" data-name="Trazado 829660" d="M155.053,374.375c-.995,2.066-1.513,4.695-2.553,6.824,2.114.868,3.405,1.795,5.521,2.663.864-1.4,2.3-2.3,3.2-3.7A12.228,12.228,0,0,0,155.053,374.375Z" transform="translate(-152.5 -374.375)" fill="#b4c083"/>
                  </g>
                  <g id="Grupo_1080310" data-name="Grupo 1080310" transform="translate(16.14 53.028)">
                    <path id="Trazado_829661" data-name="Trazado 829661" d="M154.879,379.654a1.686,1.686,0,0,1,1.365.377,2.375,2.375,0,0,1,.755,1.226,2.185,2.185,0,0,0,.423,1.069c.168.162.4.247.547.432a1.208,1.208,0,0,1,.183.667l.084,1.165a5.181,5.181,0,0,1-.036,1.493,7.3,7.3,0,0,1-1.946,2.834,9.171,9.171,0,0,0-1.567,2.692l-1.211-1.557a6.191,6.191,0,0,1-.635-.928c-.2-.394-.32-.827-.5-1.233-.2-.468-.491-.9-.655-1.384a4.568,4.568,0,0,1,.165-2.913,9.41,9.41,0,0,1,1.647-2.953A2.538,2.538,0,0,1,154.879,379.654Z" transform="translate(-151.515 -379.628)" fill="#7a7a34"/>
                  </g>
                  <g id="Grupo_1080311" data-name="Grupo 1080311" transform="translate(14.555 51.859)">
                    <path id="Trazado_829662" data-name="Trazado 829662" d="M153.95,378.215c-.458.549-1.244.708-1.76,1.2a3.571,3.571,0,0,0-.693,1.091l-1.663,3.5a1.627,1.627,0,0,0-.132,1.421q.454,1.879.908,3.76c1.182-.473,1.561-1.991,1.4-3.254a3.3,3.3,0,0,1-.015-1.518c.221-.618.851-.97,1.337-1.412A3.857,3.857,0,0,0,153.95,378.215Z" transform="translate(-149.601 -378.215)" fill="#b4c083"/>
                  </g>
                  <g id="Grupo_1080316" data-name="Grupo 1080316">
                    <g id="Grupo_1080312" data-name="Grupo 1080312" transform="translate(18.617 8.978)">
                      <rect id="Rectángulo_376634" data-name="Rectángulo 376634" width="3.499" height="157.513" fill="#533d48"/>
                    </g>
                    <g id="Grupo_1080315" data-name="Grupo 1080315">
                      <g id="Grupo_1080313" data-name="Grupo 1080313">
                        <path id="Trazado_829663" data-name="Trazado 829663" d="M132.012,319.9l8.957,5.954a5.67,5.67,0,0,0,3.34.944l17.877-.635a1.01,1.01,0,0,0,.646-1.754l-9.346-8.571a.724.724,0,0,0-.948-.178l-.363.484,4.609,5.213a1.01,1.01,0,0,1-.684,1.692l-2.568.15a4.49,4.49,0,0,1-2.808-.785l-7.883-5.439a1.007,1.007,0,0,0-.893-.127l-.43.386,5.17,4.9a1,1,0,0,1-.635,1.732l-3.849.472a7.543,7.543,0,0,1-1.655-.5l-6.719-3.984a1.635,1.635,0,0,0-1.5-.092Z" transform="translate(-132.012 -315.55)" fill="#964054"/>
                      </g>
                      <g id="Grupo_1080314" data-name="Grupo 1080314" transform="translate(17.888 9.51)">
                        <path id="Trazado_829664" data-name="Trazado 829664" d="M158.607,333.08c.233-.161.21-.506.162-.785q-.33-1.92-.66-3.839a1.618,1.618,0,0,0-.261-.747,1.352,1.352,0,0,0-.593-.387,4.2,4.2,0,0,0-3.455.2,54.093,54.093,0,0,1-.174,5.507,15.527,15.527,0,0,1,4.405.1A.776.776,0,0,0,158.607,333.08Z" transform="translate(-153.628 -327.042)" fill="#964054"/>
                      </g>
                    </g>
                  </g>
                  <g id="Grupo_1080321" data-name="Grupo 1080321" transform="translate(15.586 59.648)">
                    <g id="Grupo_1080317" data-name="Grupo 1080317">
                      <path id="Trazado_829665" data-name="Trazado 829665" d="M151.238,389.851a1,1,0,0,1-.3-.536,3,3,0,0,1,.052-1.687c2.921,1.533,3.3.593,4.281.958a.7.7,0,0,1,.379.9,1.386,1.386,0,0,1-1.145.886,2.484,2.484,0,0,1-.708-.035l-1.979-.289A1.208,1.208,0,0,1,151.238,389.851Z" transform="translate(-150.846 -387.627)" fill="#b4c083"/>
                    </g>
                    <g id="Grupo_1080318" data-name="Grupo 1080318" transform="translate(0.819 1.836)">
                      <path id="Trazado_829666" data-name="Trazado 829666" d="M152.169,390.193a.946.946,0,0,0-.071,1.378,1.872,1.872,0,0,0,1.439.5,6.421,6.421,0,0,0,2.263-.561,2.045,2.045,0,0,0,.774-.467.747.747,0,0,0,.151-.839.9.9,0,0,0-.834-.354,20.2,20.2,0,0,1-2.166.367C153.195,390.173,152.615,389.9,152.169,390.193Z" transform="translate(-151.836 -389.845)" fill="#b4c083"/>
                    </g>
                    <g id="Grupo_1080319" data-name="Grupo 1080319" transform="translate(1.7 3.473)">
                      <path id="Trazado_829667" data-name="Trazado 829667" d="M153.178,392.114a.79.79,0,0,0-.06,1.15,1.562,1.562,0,0,0,1.2.415,5.372,5.372,0,0,0,1.889-.468,1.7,1.7,0,0,0,.645-.39.625.625,0,0,0,.127-.7.748.748,0,0,0-.7-.3,16.609,16.609,0,0,1-1.808.307C154.035,392.1,153.551,391.873,153.178,392.114Z" transform="translate(-152.9 -391.824)" fill="#b4c083"/>
                    </g>
                    <g id="Grupo_1080320" data-name="Grupo 1080320" transform="translate(2.499 4.962)">
                      <path id="Trazado_829668" data-name="Trazado 829668" d="M154.122,393.892a.731.731,0,0,0-.055,1.065,1.449,1.449,0,0,0,1.112.384,4.968,4.968,0,0,0,1.749-.434,1.587,1.587,0,0,0,.6-.361.578.578,0,0,0,.118-.649.693.693,0,0,0-.645-.274,15.527,15.527,0,0,1-1.674.285C154.915,393.876,154.468,393.669,154.122,393.892Z" transform="translate(-153.866 -393.623)" fill="#b4c083"/>
                    </g>
                  </g>
                </g>
              </g>
              <g id="Grupo_1080335" data-name="Grupo 1080335" transform="translate(36.251 66.379)">
                <g id="Grupo_1080326" data-name="Grupo 1080326" transform="translate(7.566)">
                  <g id="Grupo_1080324" data-name="Grupo 1080324">
                    <path id="Trazado_829669" data-name="Trazado 829669" d="M216.311,352.772c-9.868.471-20.233.226-30.1.7-.171,7.11-1.078,16.366-1.25,23.475a190.483,190.483,0,0,1,33.854-.823C216.667,369.009,216.642,360.2,216.311,352.772Z" transform="translate(-184.96 -352.772)" fill="#964054"/>
                  </g>
                  <g id="Grupo_1080325" data-name="Grupo 1080325" transform="translate(1.108 0.656)">
                    <path id="Trazado_829670" data-name="Trazado 829670" d="M186.728,370.013l-.429-.061c.74-5.182.961-15.316.963-15.418l0-.206.206-.006,28.249-.757-.038.255c-.535,3.572.689,12.316,1.092,15.19.1.734.127.912.127.972h-.217l-.216,0c0-.057-.055-.436-.122-.916-.4-2.824-1.581-11.284-1.125-15.059l-27.531.737C187.655,356.224,187.412,365.219,186.728,370.013Z" transform="translate(-186.299 -353.565)" fill="#533d48"/>
                  </g>
                </g>
                <g id="Grupo_1080334" data-name="Grupo 1080334" transform="translate(0 17.202)">
                  <g id="Grupo_1080327" data-name="Grupo 1080327">
                    <path id="Trazado_829671" data-name="Trazado 829671" d="M216.39,373.558H180.574c-1.467,4.409-3.189,10.046-3.386,12.753-1.662,22.81-1.577,45.685-.972,68.551h15.712c1.658-20.233,4.566-28.9,5.961-51.081.113-1.8.817-1.8.93,0,1.394,22.178,3.606,30.848,5.263,51.081h16.41c.6-22.866.689-45.741-.972-68.551C219.322,383.6,217.737,377.967,216.39,373.558Z" transform="translate(-175.817 -373.558)" fill="#964054"/>
                  </g>
                  <g id="Grupo_1080328" data-name="Grupo 1080328" transform="translate(13.664 28.837)">
                    <path id="Trazado_829672" data-name="Trazado 829672" d="M192.335,460.871h2.439c1.658-20.231,4.566-28.9,5.961-51.076a.466.466,0,0,1,.931,0c1.394,22.174,3.6,30.845,5.263,51.076h4.741c-2.025-16.821-3.832-34.253-8.136-50.737a2.329,2.329,0,0,0-4.536.153C195.768,426.867,192.145,443.932,192.335,460.871Z" transform="translate(-192.328 -408.404)" fill="#873249"/>
                  </g>
                  <g id="Grupo_1080329" data-name="Grupo 1080329" transform="translate(9.316 1.76)">
                    <rect id="Rectángulo_376635" data-name="Rectángulo 376635" width="30.378" height="0.433" transform="translate(0 0.267) rotate(-0.504)" fill="#533d48"/>
                  </g>
                  <g id="Grupo_1080330" data-name="Grupo 1080330" transform="translate(12.808 2.746)">
                    <path id="Trazado_829673" data-name="Trazado 829673" d="M216.184,377.244c-3.614,2.107-8.037,2.09-12.22,2.013-4.306-.079-8.751-.19-12.67-1.975A200.456,200.456,0,0,1,216.184,377.244Z" transform="translate(-191.294 -376.876)" fill="#873249"/>
                  </g>
                  <g id="Grupo_1080331" data-name="Grupo 1080331" transform="translate(20.522 6.548)">
                    <path id="Trazado_829674" data-name="Trazado 829674" d="M201.645,381.886c-.491.089-1.113.375-1.02.865a17.094,17.094,0,0,0,9.308-1.022A26.077,26.077,0,0,0,201.645,381.886Z" transform="translate(-200.616 -381.471)" fill="#873249"/>
                  </g>
                  <g id="Grupo_1080332" data-name="Grupo 1080332" transform="translate(13.15 41.513)">
                    <path id="Trazado_829675" data-name="Trazado 829675" d="M192.142,463.685a313.237,313.237,0,0,1,5.017-39.883l-.425-.081a313.617,313.617,0,0,0-5.025,39.964Z" transform="translate(-191.708 -423.721)" fill="#533d48"/>
                  </g>
                  <g id="Grupo_1080333" data-name="Grupo 1080333" transform="translate(26.475 39.332)">
                    <path id="Trazado_829676" data-name="Trazado 829676" d="M214.741,463.231a314.888,314.888,0,0,0-6.51-42.145l-.422.094a314.71,314.71,0,0,1,6.5,42.051Z" transform="translate(-207.809 -421.086)" fill="#533d48"/>
                  </g>
                </g>
              </g>
              <g id="Grupo_1080361" data-name="Grupo 1080361" transform="translate(50.862)">
                <g id="Grupo_1080356" data-name="Grupo 1080356" transform="translate(0 5.969)">
                  <g id="Grupo_1080345" data-name="Grupo 1080345">
                    <g id="Grupo_1080338" data-name="Grupo 1080338" transform="translate(0 7.451)">
                      <g id="Grupo_1080336" data-name="Grupo 1080336" transform="translate(15.282)">
                        <path id="Trazado_829677" data-name="Trazado 829677" d="M213.2,288.813a.952.952,0,0,1,.862.188,1.068,1.068,0,0,1,.369.81c0,.724-.669,1.281-.814,1.989-.155.752.3,1.589-.049,2.274-.3.584-1.02.766-1.63,1.005.072-1.548.145-3.1.334-4.635a3.262,3.262,0,0,1,.227-.967A1.184,1.184,0,0,1,213.2,288.813Z" transform="translate(-211.94 -288.778)" fill="#ce6b51"/>
                      </g>
                      <g id="Grupo_1080337" data-name="Grupo 1080337">
                        <path id="Trazado_829678" data-name="Trazado 829678" d="M194.7,288.813a.952.952,0,0,0-.862.188,1.068,1.068,0,0,0-.369.81c0,.724.669,1.281.814,1.989.155.752-.3,1.589.049,2.274.3.584,1.02.766,1.63,1.005-.072-1.548-.145-3.1-.335-4.635a3.262,3.262,0,0,0-.227-.967A1.18,1.18,0,0,0,194.7,288.813Z" transform="translate(-193.473 -288.778)" fill="#ce6b51"/>
                      </g>
                    </g>
                    <g id="Grupo_1080340" data-name="Grupo 1080340" transform="translate(1.015)">
                      <g id="Grupo_1080339" data-name="Grupo 1080339">
                        <path id="Trazado_829679" data-name="Trazado 829679" d="M204.041,279.774h-2.99a14.467,14.467,0,0,0-4.287,1.3l-2.066.648a73.816,73.816,0,0,1,.545,7.387,15.925,15.925,0,0,0,1.887,7.124,10.123,10.123,0,0,0,3.717,3.525h3.941a8.706,8.706,0,0,0,3.172-3.525,15.929,15.929,0,0,0,1.887-7.124,73.79,73.79,0,0,1,.545-7.387l-2.066-.648A14.463,14.463,0,0,0,204.041,279.774Z" transform="translate(-194.699 -279.774)" fill="#fc8458"/>
                      </g>
                      <path id="Trazado_829680" data-name="Trazado 829680" d="M208.328,281.072a14.473,14.473,0,0,0-4.287-1.3h-2.99a14.466,14.466,0,0,0-4.287,1.3l-2.066.648c.421,2.434.6,6.083.77,8.544a17.574,17.574,0,0,1,4.307-3.016,38.529,38.529,0,0,1,2.068,4.758,38.229,38.229,0,0,0-.9-5.2c3.171-.929,5.866.555,8.678,4.492a11.562,11.562,0,0,0,.223-2.195,73.78,73.78,0,0,1,.545-7.387Z" transform="translate(-194.699 -279.774)" fill="#ce6b51"/>
                    </g>
                    <g id="Grupo_1080344" data-name="Grupo 1080344" transform="translate(0.439 0)">
                      <g id="Grupo_1080341" data-name="Grupo 1080341" transform="translate(0 4.358)">
                        <path id="Trazado_829681" data-name="Trazado 829681" d="M195.568,287.5q.063-.947.125-1.894a.542.542,0,0,0-.132-.489.426.426,0,0,0-.191-.069,9.986,9.986,0,0,0-1.124.105,6.61,6.61,0,0,0-.033,3.423c.243,1.129.746,2.241,1.026,3.362C195.475,290.481,195.47,288.978,195.568,287.5Z" transform="translate(-194.003 -285.04)" fill="#533d48"/>
                      </g>
                      <g id="Grupo_1080342" data-name="Grupo 1080342" transform="translate(0.576)">
                        <path id="Trazado_829682" data-name="Trazado 829682" d="M209.952,287.186a42.635,42.635,0,0,1,.442-5.467l-2.066-.648a14.473,14.473,0,0,0-4.287-1.3h-2.99a14.466,14.466,0,0,0-4.287,1.3l-2.066.648a44.032,44.032,0,0,1,.45,5.625A20.547,20.547,0,0,1,209.952,287.186Z" transform="translate(-194.699 -279.774)" fill="#533d48"/>
                      </g>
                      <g id="Grupo_1080343" data-name="Grupo 1080343" transform="translate(15.068 4.926)">
                        <path id="Trazado_829683" data-name="Trazado 829683" d="M212.239,285.986a28,28,0,0,0,.385,6.037,15.205,15.205,0,0,0,1.169-6.3A7.839,7.839,0,0,1,212.239,285.986Z" transform="translate(-212.211 -285.727)" fill="#533d48"/>
                      </g>
                    </g>
                  </g>
                  <g id="Grupo_1080355" data-name="Grupo 1080355" transform="translate(2.076 5.931)">
                    <g id="Grupo_1080348" data-name="Grupo 1080348">
                      <g id="Grupo_1080346" data-name="Grupo 1080346">
                        <path id="Trazado_829684" data-name="Trazado 829684" d="M196.364,288.919l-.383-.2a3.117,3.117,0,0,1,.81-.927c.1-.085.2-.171.3-.267a1.9,1.9,0,0,1,1.716-.542l.2.047a2.214,2.214,0,0,1,1.226.57l-.321.29a1.86,1.86,0,0,0-1-.439l-.207-.05a1.5,1.5,0,0,0-1.314.438c-.1.1-.208.189-.31.278A2.744,2.744,0,0,0,196.364,288.919Z" transform="translate(-195.981 -286.941)" fill="#533d48"/>
                      </g>
                      <g id="Grupo_1080347" data-name="Grupo 1080347" transform="translate(2.359 1.713)">
                        <path id="Trazado_829685" data-name="Trazado 829685" d="M198.884,289.5a.749.749,0,0,1,.267-.412.407.407,0,0,1,.468-.014.55.55,0,0,1,.172.295,1.752,1.752,0,0,1-.036,1.086c-.069.189-.221.393-.42.366a.436.436,0,0,1-.278-.212A1.333,1.333,0,0,1,198.884,289.5Z" transform="translate(-198.832 -289.011)" fill="#533d48"/>
                      </g>
                    </g>
                    <g id="Grupo_1080351" data-name="Grupo 1080351" transform="translate(8.943 0)">
                      <g id="Grupo_1080349" data-name="Grupo 1080349">
                        <path id="Trazado_829686" data-name="Trazado 829686" d="M210.654,288.919a2.742,2.742,0,0,0-.711-.8c-.1-.089-.207-.179-.31-.278a1.5,1.5,0,0,0-1.314-.438l-.208.05a1.863,1.863,0,0,0-1,.439l-.321-.29a2.208,2.208,0,0,1,1.225-.57l.2-.047a1.9,1.9,0,0,1,1.716.542c.1.094.2.182.3.266a3.107,3.107,0,0,1,.81.927Z" transform="translate(-206.788 -286.941)" fill="#533d48"/>
                      </g>
                      <g id="Grupo_1080350" data-name="Grupo 1080350" transform="translate(0.863 1.713)">
                        <path id="Trazado_829687" data-name="Trazado 829687" d="M208.807,289.5a.749.749,0,0,0-.267-.412.407.407,0,0,0-.468-.014.55.55,0,0,0-.172.295,1.752,1.752,0,0,0,.036,1.086c.069.189.221.393.42.366a.436.436,0,0,0,.278-.212A1.333,1.333,0,0,0,208.807,289.5Z" transform="translate(-207.831 -289.011)" fill="#533d48"/>
                      </g>
                    </g>
                    <g id="Grupo_1080352" data-name="Grupo 1080352" transform="translate(4.955 7.13)">
                      <path id="Trazado_829688" data-name="Trazado 829688" d="M203.761,296.821a2.764,2.764,0,0,1-1.792-.915l.291-.319c1.059.966,1.754,1.192,3.072-.031l.294.318A2.843,2.843,0,0,1,203.761,296.821Z" transform="translate(-201.969 -295.556)" fill="#533d48"/>
                    </g>
                    <g id="Grupo_1080353" data-name="Grupo 1080353" transform="translate(4.816 9.592)">
                      <path id="Trazado_829689" data-name="Trazado 829689" d="M205.944,298.531a.942.942,0,0,1-.67,1.153,6.145,6.145,0,0,1-2.091.188c-.858,0-1.447-.51-1.375-1.179A16.036,16.036,0,0,0,205.944,298.531Z" transform="translate(-201.801 -298.531)" fill="#533d48"/>
                    </g>
                    <g id="Grupo_1080354" data-name="Grupo 1080354" transform="translate(5.092 1.266)">
                      <path id="Trazado_829690" data-name="Trazado 829690" d="M203.1,293.613a28.682,28.682,0,0,0-.746-4.389,1.176,1.176,0,0,1-.111-.205,1.428,1.428,0,0,0-.064-.128l.16-.107,0-.028-.2-.1.2-.125a.221.221,0,0,1,.192.108l.084-.17.142.578a29.207,29.207,0,0,1,.774,4.518Z" transform="translate(-202.134 -288.471)" fill="#533d48"/>
                    </g>
                  </g>
                </g>
                <g id="Grupo_1080360" data-name="Grupo 1080360" transform="translate(0.164)">
                  <g id="Grupo_1080357" data-name="Grupo 1080357" transform="translate(0.247)">
                    <path id="Trazado_829691" data-name="Trazado 829691" d="M210.445,277.791a3.5,3.5,0,0,0-.462-1.629,5.527,5.527,0,0,0-1.653-1.266c-.8-.522-1.463-1.207-2.278-1.7a3.636,3.636,0,0,0-2.071-.581,10.931,10.931,0,0,0-1.638-.036,11.046,11.046,0,0,0-1.638.036,3.641,3.641,0,0,0-2.071.581c-.815.5-1.481,1.181-2.278,1.7a5.54,5.54,0,0,0-1.653,1.266,3.482,3.482,0,0,0-.462,1.629,18.69,18.69,0,0,0,.021,6.378,19.2,19.2,0,0,1,16.164,0A18.69,18.69,0,0,0,210.445,277.791Z" transform="translate(-193.971 -272.561)" fill="#c5a94a"/>
                  </g>
                  <g id="Grupo_1080358" data-name="Grupo 1080358" transform="translate(3.392 0.324)">
                    <path id="Trazado_829692" data-name="Trazado 829692" d="M209.267,277.362a3.4,3.4,0,0,0-.323-1.373,4.056,4.056,0,0,0-1.154-1.068c-.555-.44-1.021-1.017-1.59-1.436a2.228,2.228,0,0,0-1.446-.49,6.358,6.358,0,0,0-1.143-.031,6.279,6.279,0,0,0-1.143.031,2.223,2.223,0,0,0-1.446.49c-.569.419-1.034,1-1.59,1.436a4.045,4.045,0,0,0-1.154,1.068,3.41,3.41,0,0,0-.323,1.373,18.958,18.958,0,0,0,.015,5.376,11.328,11.328,0,0,1,11.28,0A18.959,18.959,0,0,0,209.267,277.362Z" transform="translate(-197.77 -272.952)" fill="#7a7a34"/>
                  </g>
                  <g id="Grupo_1080359" data-name="Grupo 1080359" transform="translate(0 6.704)">
                    <path id="Trazado_829693" data-name="Trazado 829693" d="M194.867,286.469a.961.961,0,0,1-.877.089.691.691,0,0,1-.262-.476,3.211,3.211,0,0,1,.471-2.356c1.383-2.111,4.024-2.687,6.38-2.964a12.9,12.9,0,0,1,5.786.578,7.461,7.461,0,0,1,3.387,2.181,3.932,3.932,0,0,1,.8,1.693.652.652,0,0,1-.837.715,30.059,30.059,0,0,0-6.615-1.154A18.882,18.882,0,0,0,194.867,286.469Z" transform="translate(-193.671 -280.662)" fill="#f4cca8"/>
                  </g>
                </g>
              </g>
              <g id="Grupo_1080366" data-name="Grupo 1080366" transform="translate(43.174 30.718)">
                <g id="Grupo_1080364" data-name="Grupo 1080364" transform="translate(2.252 33.479)">
                  <g id="Grupo_1080362" data-name="Grupo 1080362">
                    <path id="Trazado_829694" data-name="Trazado 829694" d="M189.973,355.512l-2.946-4.22a.681.681,0,0,1,.545-1.07l4.578-.087h0a.675.675,0,0,1,.631.948l-1.9,4.317Zm2.191-4.945-4.584.087a.248.248,0,0,0-.2.389l2.8,4.007.4-.051,1.806-4.091a.242.242,0,0,0-.019-.231A.238.238,0,0,0,192.165,350.567Z" transform="translate(-186.904 -350.135)" fill="#533d48"/>
                  </g>
                  <g id="Grupo_1080363" data-name="Grupo 1080363" transform="translate(1.831 3.806)">
                    <circle id="Elipse_6284" data-name="Elipse 6284" cx="1.341" cy="1.341" r="1.341" fill="#533d48"/>
                  </g>
                </g>
                <g id="Grupo_1080365" data-name="Grupo 1080365">
                  <path id="Trazado_829695" data-name="Trazado 829695" d="M191.268,343.953c-.682-11.529-2.6-22.86-4.655-34.271a3.228,3.228,0,0,0-2.431,1.216c.938,11.193,1.872,21.96,2.809,33.056Z" transform="translate(-184.183 -309.68)" fill="#964054"/>
                </g>
              </g>
              <g id="Grupo_1080371" data-name="Grupo 1080371" transform="translate(70.893 31.025)">
                <g id="Grupo_1080369" data-name="Grupo 1080369" transform="translate(0 33.206)">
                  <g id="Grupo_1080367" data-name="Grupo 1080367">
                    <path id="Trazado_829696" data-name="Trazado 829696" d="M220.221,354.746l-.912-.022-1.564-3.477a.76.76,0,0,1,.693-1.072l3.17.048a.644.644,0,0,1,.556.952Zm-.629-.448.375.008,1.816-3.338a.208.208,0,0,0,0-.208.206.206,0,0,0-.18-.105l-3.158-.048h0a.328.328,0,0,0-.3.462Z" transform="translate(-217.678 -350.176)" fill="#533d48"/>
                  </g>
                  <g id="Grupo_1080368" data-name="Grupo 1080368" transform="translate(0.79 3.352)">
                    <path id="Trazado_829697" data-name="Trazado 829697" d="M220.6,355.21a.983.983,0,1,1-.983-.983A.983.983,0,0,1,220.6,355.21Z" transform="translate(-218.632 -354.227)" fill="#533d48"/>
                  </g>
                </g>
                <g id="Grupo_1080370" data-name="Grupo 1080370" transform="translate(0.403)">
                  <path id="Trazado_829698" data-name="Trazado 829698" d="M221.605,344.017c.242-10.93.812-22.091,1-32.985-.25-.644-1.609-1.073-2.359-.965-1.24,11.187-1.584,22.677-2.085,33.95Z" transform="translate(-218.165 -310.051)" fill="#964054"/>
                </g>
              </g>
            </g>
          </g>
        </g>
      </g>
    </g>
  </g>
</svg>
